<?xml version="1.0" encoding="utf-8"?>
<!-- Generator: Adobe Illustrator 27.4.0, SVG Export Plug-In . SVG Version: 6.00 Build 0)  -->
<svg version="1.1" id="Layer_1" xmlns="http://www.w3.org/2000/svg" xmlns:xlink="http://www.w3.org/1999/xlink" x="0px" y="0px"
	 viewBox="0 0 720 720" style="enable-background:new 0 0 720 720;" xml:space="preserve">
<style type="text/css">
	.st0{fill:#5E342C;}
	.st1{fill:#F4A171;}
	.st2{fill:#F8A190;}
	.st3{fill:#F0B29A;}
	.st4{fill:#C0959B;}
	.st5{fill:#8497A7;}
	.st6{fill:#D87183;}
	.st7{fill:#F3E5CC;}
	.st8{fill:#F89F91;}
	.st9{fill:#A89E93;}
	.st10{fill:#AE9E9B;}
	.st11{fill:#D4B790;}
	.st12{fill:#649BA1;}
	.st13{fill:#E5D0B8;}
	.st14{fill:#D4748A;}
	.st15{fill:#F8ECD6;}
	.st16{fill:#604A7A;}
	.st17{fill:#E2C261;}
	.st18{fill:#73ABA6;}
	.st19{fill:#F3E8D0;}
	.st20{fill:#F9EDD7;}
	.st21{fill:#4D7F8F;}
	.st22{fill:#61999D;}
	.st23{fill:#F0E5CF;}
	.st24{fill:#F3D3AF;}
	.st25{fill:#ADC4B0;}
	.st26{fill:#DBD1BA;}
	.st27{fill:#CFB55E;}
	.st28{fill:#F6E0A6;}
	.st29{fill:#F6A89D;}
	.st30{fill:#99BEB1;}
	.st31{fill:#D4DECB;}
	.st32{fill:#E6C9B8;}
	.st33{fill:#2F303E;}
	.st34{fill:#2E2C3C;}
	.st35{fill:#F18E80;}
	.st36{fill:#EE9724;}
	.st37{fill:#F2A123;}
	.st38{fill:#704D56;}
	.st39{fill:#E2B69F;}
	.st40{fill:#D3AFA0;}
	.st41{fill:#E6AB8E;}
	.st42{fill:#AF869B;}
	.st43{fill:#A4C2B1;}
	.st44{fill:#F7A557;}
	.st45{fill:#BCB49D;}
	.st46{fill:#E2DCC3;}
	.st47{fill:#8EAFA9;}
	.st48{fill:#E5C680;}
	.st49{fill:#D5B99C;}
	.st50{fill:#6AA4A3;}
</style>
<rect x="0" y="0" class="st0" width="720" height="720"/>
<g>
	<path class="st1" d="M85.3,560.4c0.5,0.6,0.8,1.4,0.9,2.4c0.2,7.7,3.3,14.8,4.9,22.3c11.7,12.4,25.2,20.9,39.6,28.2
		c1.8,0.9,3.7,2.5,6,1c2.2-4.5,3.3-9.2,3.9-14.1c0-1.6-0.4-3.4,0.1-4.9c1.9-5.7-1.1-8.3-5.7-10.8c-10.3-5.7-20.5-11.6-29.6-19.2
		c-3.7-3.1-6.5-7.2-10.7-9.8c-2.6-1.6-3.6-4.6-3.5-7.8c0.1-2.2,0.2-4.3,0.4-6.5c0.3-2.9-0.1-5.7-1.3-8.3c-0.4-0.9-1.1-1.7-2.2-1.6
		c-1.1,0.1-1.5,1-1.8,1.9c-0.3,0.8-0.4,1.6-0.3,2.4C86.3,543.8,85.5,552.1,85.3,560.4z"/>
	<path class="st2" d="M250.1,588.4c-0.3-2.3-2.2-3-4.2-3c-4.8,0.1-9.4-0.7-14.2-1c-8.8-0.6-17.5-1.4-26.2-2.9
		c-3.4-0.6-4.6-2.1-4-5.5c0.9-5.1,1.3-10.2,1.6-15.3c0.4-5.6-0.5-6.6-5.9-7.8c-6.9-1.5-13.7-3.1-20.4-5.3c-9.4-3-18.5-6.6-27.1-12
		c2.5-1.8,4.9-0.4,7.1-0.7c1.1-0.1,2.3-0.2,2.8-1.3c0.5-1.2-0.3-2.1-1-2.9c-1.3-1.6-3.1-2.6-4.7-3.8c-1.7-1.3-2.3-2.7-1.6-4.9
		c2.2-7.3,1.6-9-5.2-12.1c-11-5.2-21.3-11.4-29.7-20.2c-8.7-9-14.4-16.6-13.5-26.8c-6.9,7.3-9.3,19.8-11.5,28.8
		c-3.4,14.5-4.3,28.9-2.1,43.6c0.1,0.7,0,1.4-0.2,2c0.2,1.3,0.2,2.6,0,4c-0.8,5.5-1.6,11.4,3.5,15.2c3.3,2.5,6,5.5,9.1,8.1
		c10,8.9,21.7,15.5,33.4,21.9c3,1.6,4.7,3.3,3.5,7c-0.7,2.1-0.3,4.6-0.3,6.8c3.3-1.2,2.7-4.6,3.7-7c1.2-2.8,2.6-4.1,5.8-3.1
		c5.8,2,11.9,3,17.9,4.4c1.1,0.2,2,0.7,2.9,1.3c1.3,0.7,2.7,1.2,4.2,1.5c9.8,2.1,19.5,4.2,29.5,5.2c10.1,1.1,20,2.8,30.1,3.8
		c2.3-0.3,4.5-0.3,6.7,0.5c2.5,0.3,4.9,0.7,7.4,0.4c0.7-0.2,1.3-0.7,1.4-1.3C249.7,600.3,250.9,594.4,250.1,588.4z"/>
	<path class="st3" d="M139.4,600.4c1.1-3.1,2.2-6.3,3.3-9.4c0.7-2,2.1-3.1,4.3-2.6c6.7,1.8,13.4,3.6,20.1,5.4
		c-2.9,2.8-2.9,6.6-3.7,10.1c0,0.3,0.1,0.7,0.1,1c-0.1,1.7,1.2,1.6,2.3,2c13.2,3.7,26.4,7.8,40,10.3c1,0.3,1.9,0.8,3,0.6
		c1,0,2.1,0.1,3.1,0.4c1.4,0.6,2.9,0.6,4.3,0.4c1.1,0,2.2,0.1,3.3,0.4c5.6,1.4,5.9,1.7,5.9,7.6c0.1,8.1-1.6,7.4,7.7,9.7
		c8.5,2.1,17.4,2.2,26.1,3.2c8.3,0.9,16.7,1,25,1.7c3.6,0.3,5.8,1.7,6.7,5.2c1.8,6.5,3.3,13.1,4.9,19.6c0.3,3,0.9,5.9,1.4,8.8
		c0.3,1.6,0.4,3.2-0.8,4.6c-2.9,1.8-6,1.3-9.1,0.9c-25.6-3.1-51.2-5.5-76.7-9.7c-9.1-1.3-18-3.8-26.8-6.4
		c-13.4-3.9-26.5-8.7-39.7-13.2c-3-1-5.9-1.8-9-2.5c-4.3-1-5.9-3.7-4.5-7.8c1.3-3.6,2.3-7.7,7-8.7c6.8,0.8,12.8,4.2,19.2,6.2
		c11.3,3.6,22.7,7.1,34.2,9.9c6.1,1.5,6.4,1.2,7.2-4.8c0.1-0.8,0.2-1.6,0.4-2.4c0.9-5.9,0.1-7.1-5.9-8.3
		c-18.4-3.6-36.3-8.6-53.5-15.9c-1.3-0.5-3.1-0.5-3.1-2.6C137.2,609.6,138.3,605,139.4,600.4z"/>
	<path class="st4" d="M137.8,632.9c-4.7,1.7-5.2,6.2-6.4,10.1c-0.7,2.4,0.8,4,3.1,4.4c12.1,2.2,23.3,7.5,35,11.2
		c13.4,4.2,26.7,8.4,40.6,11c0.9,0.9,1.4,2,1.3,3.3c-0.8,5.8-0.1,11.8-2.2,17.5c-1.6,2-3.6,1.2-5.6,0.8c-12-2.6-23.9-6.1-35.7-9.5
		c-5.5-1.6-5.7-1.5-7.1,4.2c-1.1,4.5-1.8,9-2.9,13.5c-1.4,1.5-3,0.8-4.5,0.3c-14.9-4.5-28.5-11.6-41.6-19.7
		c-2.4-1.5-4.2-3.8-6.5-5.4c-2.8-3.1-3.6-7.2-4.7-11c-3.2-11.9-6.4-23.8-9.2-35.9c-1.8-7.6-3.4-15.2-3.1-23.1c1-0.5,1.8,0.1,2.6,0.6
		c14.3,9.2,28.8,18,44.3,25.2C136.3,630.8,137.9,631,137.8,632.9z"/>
	<path class="st5" d="M105.1,674.4c1.1-1.3,1.9-0.2,2.6,0.5c8.5,7.9,19.3,12.2,29.4,17.3c6.4,3.2,13.2,5.1,20,7.4
		c1.4-0.4,2.6-0.2,3.9,0.3c17.3,6.7,35.2,11.2,52.8,17.1c1.5,0.5,3.2,0.8,4,2.4c0.4,1.4-0.2,2.6-0.5,3.9c-3.3,10.8-4.5,21.8-2.4,33
		c0.3,1.7,0.7,3.5-0.9,4.9c-2.9-1-5.7-0.1-8.6,0.1c-5.4-1.2-10.8-2.2-16.1-3.5c-9.5-2.4-18-7.2-26.9-11.2c-17-7.7-28-21.6-38.9-35.8
		c-8-10.4-13.1-22.2-17.9-34.3C105.3,675.8,105.3,675.1,105.1,674.4z"/>
	<path class="st6" d="M137.8,632.9c-15.7-7.1-30.4-16-45.1-25c-1.6-1-3-2.3-4.5-3.4c-1-7.9-2.4-15.7-0.7-24.9
		c14,15.6,30.2,26.7,48.6,34.6c18.4,7.7,37.4,13.7,57.1,17.2c7,1.2,8,2.9,6.6,9.9c-0.1,0.7-0.2,1.3-0.3,2c-1.6,9.9,0.1,7.9-9.3,5.9
		C172.3,645.4,154.9,639.3,137.8,632.9z"/>
	<path class="st7" d="M393,124.3c2,1.4,3.9,0.7,5.6-0.6c2.3-1.6,4.2-2.4,5.3,1.4c0.7,2.6,3,3.3,5.5,3.2c0.7,0,1.4-0.6,2-0.4
		c1.5,0.4,3.8-0.2,4.3,1.5c0.5,1.7-1.8,2.1-2.8,2.9c-4.6,3.7-10.1,6.3-12.8,12c-0.7,1.6-1.8,2.9-1.6,4.8c1.3,0.6,2.3-0.2,3-0.8
		c4.6-3.8,9-7.8,13.6-11.6c4-3.4,7.4-7.2,10.8-11.3c6.7-8.1,14.8-15,23.1-21.4c1.1,0.4,2.3,0.6,3.4,1.1c1.8,1,2.7,2.4,1.6,4.3
		c-1.7,2.8-0.2,3.1,2.1,3.1c2.6,0,5.1-0.2,7.7,0.1c2,0.3,3.6,1.3,2.4,3.5c-1.3,2.4,0.1,3,1.8,3.8c2.4,1.2,5.4,2.1,1.9,5.6
		c-1.2,1.2-0.2,2.8,1.1,3.8c0.9,0.8,2.1,1.1,3.1,2c1.2,1.1,1.4,2.3-0.4,2.6c-3.2,0.5-2.5,2-1.9,4.3c0.9,3.7,2.2,6.8,5.9,8.5
		c1.2,0.5,2.5,2,1.7,3.3c-2,3.3,0.5,3.4,2.5,4.1c3.8,1.3,4.1,2.1,1.9,5.4c-0.6,0.9-1.5,1.8-0.5,2.9c1.6,1.7,2.4,3.8,3.2,6
		c0.9,2.7,2.1,0.9,3.1-0.2c2.5-0.4,2.9,1.8,4.1,3.1c1.8,5.8,4.8,11.1,8,16.3c8.3,13.6,16,27.7,19.6,43.1c3.7,15.8,9.2,31.5,8,48.2
		c-0.4,5.1,1.6,9.8,2.6,14.7c0.7,3.1-0.1,6.6,1.8,9.5c0.9,9.7,2.9,19.1,5.6,28.5c-1.6,6.4-5,11.9-8,17.7c-1.3,2.4-1.4,4.6-1.5,7.2
		c-0.1,2.7-3.8,0.4-5.7,2.8c-14.9,18.6-34.5,30.7-56.5,39.4c-8.8,3.5-17.5,6.8-26.7,9.2c-2.3,0.6-4.7,1.2-6.5,3
		c-0.7,0.9-2.2,1.4-0.9,2.9c1.6,1.9,1.2,4.3,2,6.4c0.1,0.5,0.2,1.1,0.3,1.6c0.3,4.2,0.3,4.2,4.9,2.9c10.1-2.6,20-5.8,30-8.7
		c1.8-0.5,3.6-1.3,5.5-0.4c3.1,3.6,3.7,8,4,12.4c0.2,3.2-2.5,4.7-5.1,5.6c-9.8,3.5-19.4,7.5-29.6,9.6c-0.4,0.1-0.9,0.1-1.2,0.3
		c-3.1,2-9.4-1.4-9.4,5.4c0.1,4.1,0.1,8.4,3.2,11.8c-0.6,3.4-3.5,3.9-6.1,4.4c-13.8,2.3-27.6,4.1-41.5,4.3c-2.2,0-5.4-0.8-3.4,3.6
		c0.6,1.4-0.5,2.7-1.9,3.1c-6.6,1.9-13.2,4.5-20.2,1.6c-0.7-0.3-1.5-0.5-2.2-1c-1-0.7-1.9-1.7-1.7-3c0.2-1.6,1.4-2.3,2.8-2.6
		c3.8-0.7,7.7-1.2,11.9-1c-12.3,0.1-24.3-0.8-36.3-1.1c-6.6-0.2-13.1-2.1-19.6-3c-22.1-2.9-44.3-5.8-65.5-13.1
		c-7.3-2.5-14.5-5.3-21.5-8.5c-3.8-1.8-7.5-3.8-10.1-7.3c-1.7-2.2-4.3-3.2-6.7-4.5c-5.4-3-9.6-8.1-15.8-9.7
		c-7.3-3.8-13.4-9.3-19.9-14.3c-0.7-0.6-1.2-1.4-0.8-2.5c2.8-1.2,5.1,0.9,7.8,1.1c2.6,0.2,4.1,0.1,2.9-3c-0.3-0.8-0.3-1.6-0.3-2.4
		c0.1-4,2.5-5.6,5.8-3.3c9,6.1,19.2,10.5,27.8,17.2c1.9,1.5,4,2.7,6.1,4.1c5.5,3.6,5.9,3.4,8.4-2.4c0.9-2.2,1.3-4.7,3.2-6.5
		c1.3-0.6,2.4-0.1,3.5,0.5c12,6.7,24.8,11.4,37.8,15.8c3.8,1.3,6.4,3,6.7,7.5c0.2,2.8,1.8,5.5,2.7,8.2c1.1,3.6,5.2,2.6,8.2,3.1
		c2.2,0.4,3.3-0.7,3.8-2.7c0.5-1.9,2.2-2.1,4-2.3c-3.2-3.4-6.8-4.7-11.1-4.8c-2.8-0.1-4.3-1.7-4-4.5c0.3-2.9-0.6-5.9,1.2-8.7
		c0.8-1.2,0.4-2.7-0.4-3.8c-1.3-1.7-2-3.4-1.3-5.6c0.6-1.9-1-2.2-2.3-2.6c-11.3-3.6-21.5-9.3-31.5-15.7c-11.8-7.4-23.5-15-34.8-23.1
		c-5.6-4-10-9.1-13.2-15.2c-1.4-2.7-1.5-5.4,0.7-7.9c0.6,0-0.1-0.8,0.2-0.3c0.1,0.1,0,0.2-0.3,0.2c-3.7-0.2-8.3-4.5-8.6-7.9
		c-0.1-1.5,0.5-2.6,1.8-3.3c1.9-1,3.5-2.5,5.2-3.7c-1.6,1.2-3.3,2.2-4.8,3.5c-3.5,3.1-6.5,2.1-9.2-0.8c-2.5-2.8-4.6-2-6.9,0.1
		c-3,2.9-6,5.8-10.2,7.1c-0.5-0.2-1.1-0.4-1.3-0.9c-1.6-6.2-5.5-11.6-6.2-18.1c1.5-4.6,1.1-9.3,0.9-14c-0.9-22,1.1-43.8,6.7-65.2
		c3-9.1,6.3-18.1,10.4-26.9c1.5-3.2,2.7-6.5,3.5-9.9c1.9-8.5,6.4-15.8,11.3-22.8c2.6-3.7,3.9-7.6,3.8-12.1
		c-0.6-19.5,0.5-39,0.9-58.4c0.2-8.8,1.5-17.5,3.9-26.1c0.7-2.6,1.8-5.1,3.4-7.3c4-5.6,9.1-7.1,15.2-4c9.2,4.6,16.7,11.5,24.5,18
		c10,8.3,19.8,16.8,28.7,26.3c2,2.1,4.4,3,7.3,2.8c8.7-0.6,17.3,1.1,25.9,0.4c2.8-0.2,5.4,1.8,8.4,1.2c6,0,11.9-0.3,17.9,0.1
		c10.1-0.5,20.2-0.1,30.3-0.2C380.1,126.8,386.7,126.2,393,124.3z"/>
	<path class="st8" d="M489.7,160.8c0,2.4,0,4.9,0,7.3c-0.5,1.2,0.9,3.6-1.3,3.6c-1.8,0-3.5-1.5-3.6-3.7c-0.1-1.9-0.4-3.3-2.2-4.4
		c-2.6-1.5-2.3-3.4,0.1-5c0.7-0.5,2-0.8,1.6-2c-0.3-1-1.4-1.2-2.3-1.4c-0.9-0.2-1.8-0.5-2.7-0.7c-3.8-1.1-3.9-1.1-1.3-4
		c1.1-1.2,0.9-1.8-0.2-2.5c-1.4-0.9-2.8-1.7-4.1-2.5c-1.4-0.9-2.8-1.6-2-3.8c0.6-1.4-0.5-2.6-1.1-3.8c-0.6-1.5-1.7-2.9-0.6-4.5
		c1.2-1.7,2.8,0.4,4.1-0.4c-0.8-2.6-4.7-1.3-5.4-4.2c-0.7-2.7-1.2-5,3.3-5.6c-2.5-1.2-4.1-2.3-5.9-2.7c-2.8-0.7-3-2.1-1.2-3.9
		c2.1-2.2,1-2.7-1.2-2.8c-3.1-0.1-6.2,0-9.3,0c-1.2,0-2.6,0.2-3.2-1.2c-0.5-1.2,0.7-1.9,1.4-2.7c2-1.9,1.6-3.1-1-3.9
		c-1-0.3-2-0.9-2.4-2c7.7-6.9,15.5-13.7,24.2-19.5c2.6-1.7,5.2-2.8,8.3-2.4c4.2,0.5,5.3,3.8,6.2,7.1c1.8,6.6,2.4,13.4,2.4,20.1
		c0.1,14.7,0.7,29.4,1,44.1C491.1,155.9,490.8,158.5,489.7,160.8z"/>
	<path class="st9" d="M699.1,724.8c-9.2,13.9-21.2,24.1-37.2,29.2c-1.5-1-1.6-2.7-1.9-4.3c-2.3-11.5-8.3-21.2-14.3-31
		c-0.8-1.2-1.5-2.4-3.1-0.9c-0.1,0.1-0.2,0.2-0.3,0.2c-0.8,0.6-2.2,1.1-2.6,0.4c-1.7-3.1-6.9-0.7-7.7-5c2-2.7,3.5-5.4,2.4-8.9
		c-0.3-1.1,0.2-2.2,1.3-2.7c1.2-0.4,2.2,0.3,2.7,1.3c1.4,2.3,3.6,3.1,6.1,3.5c4.1,0.7,7.9,2,10.4,5.6c0.5,0.7,1.1,1.3,2,1.2
		c2-0.1,2.2-3.1,4.1-3c2.6,0.2,2.8-1.4,3.1-3.1c1.6-0.9,3.3-0.5,4.7,0.2c3,1.5,5.3,0.5,7.7-1.3c5.1-3.7,6.6-3.6,10.3,1.4
		c3.5,4.6,8.1,8.3,10.7,13.6C698.1,722.5,698.5,723.6,699.1,724.8z"/>
	<path class="st10" d="M614.7,764.7c-3.3-0.1-6.5-0.1-9.8-0.2c-1.7-1.8-1.3-4-1.4-6.1c-0.2-5.6,0.4-11.3-0.8-16.8
		c-0.5-2.3-1.1-4.4-3.3-5.7c1.8-4.4,0.2-8.7-0.7-13c-1-5.1,1.1-7,5.9-5.7c2.1,0.6,4-0.2,5.9-0.8c4.9-1.7,9.8-3.1,15-1.2
		c1.5,0.8,2.3,2.2,3,3.7c5.3,11,9,22.5,9.4,34.8c0.1,2.8,1.8,5.8-0.6,8.5C629.9,763.6,622.3,764.1,614.7,764.7z"/>
	<path class="st11" d="M696.8,722.3c-3.3-6.3-9-10.7-12.9-16.4c-0.9-1.3-2.2-1.5-3.5-0.6c-0.3,0.2-0.7,0.3-1.1,0.6
		c-2.4,1.6-5.2,4.8-7.2,4.4c-2.5-0.5-5.2-1.7-7.8-2.5c-1.1,0-1.7-0.7-2.2-1.5c-0.6-0.9-1.1-2-0.4-3c0.8-1.1,1.9-0.5,3-0.4
		c2,0.2,3.4,1.8,5.8,1.9c4.8,0.3,7.4-2.4,10.6-4.8c4.9-3.8,5.5-3.8,10.7-0.6c3.3,2,6.3,4.7,10.4,5.8c0.3-2.4-1-3.8-2.3-5.1
		c-2.2-2.4-4.4-4.7-7-6.8c-1.4-1.1-2.7-2.3-2.7-4.3c1.8-4,0.1-6.7-3.1-8.9c-1.3-0.9-2.7-1.9-3.9-3c-1.3-1.1-3.3-2.3-1.8-4.2
		c1.3-1.6,3-0.3,4.3,0.6c2.9,2,5.9,3.9,8.9,5.7c2,1.4,4,2.8,6.5,3.8c-1.4-1.6-3.3-2.6-3.3-4.8c0-1,0.4-1.9,0.8-2.7
		c1.2-2.5,0.3-4.2-2-5.4c-4-2.1-7.9-4.1-12-5.9c-2.7-1.2-4.8-2.6-3.5-6.1c0.8-2.3-1.1-2.7-2.5-3.4c-1.5-0.8-3.8-1.2-3.1-3.6
		c0.6-2.3,2.9-2.2,4.8-2.1c3.4,0.2,6.7,1,9.9,2.2c7.2,2.7,14.6,5.1,21.5,8.4c1.2,0.6,2.5,1.2,3.9,1.1c2.7,7.5,1.8,15,0.4,22.5
		c-0.4,2.2-0.7,4.5-1.1,6.7c-1.4,7.8-3.9,15.2-8.3,22c-2.7,1.7-4.1,4.2-3.9,7.5c-0.2,1.3-0.9,2.2-1.9,3.1
		C699.5,722.5,698.1,723,696.8,722.3z"/>
	<path class="st12" d="M637.4,762.1c-0.7-15-3.1-29.6-10.2-43.2c-0.6-1.1-1.2-2-1.9-3.1c-2.7-2.3-4-5.4-5.4-8.5
		c-1.2-2.6-0.3-4.8,2.2-6.2c2.4-1.4,3.9,0.5,4.9,2.2c2,3.3,5.2,5.9,5.6,10.1c0.1,0.9,0.5,2.4,1.5,1.7c2.5-1.7,3.5-0.4,4.8,1.4
		c1.5,2.2,2.8,1.5,3.8-0.6c0.6-1.3,1.3-2.2,2.4-0.4c7.6,11.9,15.1,23.9,16.8,38.4C654.4,758.8,646.1,761,637.4,762.1z"/>
	<path class="st13" d="M702.6,719.2c-1.9-3.9,0-7.5,3.9-7.5C705.9,714.6,704.2,716.9,702.6,719.2z"/>
	<path class="st13" d="M696.8,722.3c1.3-0.7,2.6-1.5,4,0c-0.6,0.8-1.1,1.7-1.7,2.5C697.6,724.6,697.4,723.3,696.8,722.3z"/>
	<path class="st14" d="M587,427.4c5.1,15.8,7.7,32.1,10.8,48.3c1.9,10.1,3.8,20.1,4.2,30.3c0,0.4,0.4,0.7,0.6,1.1
		c0,0.5,0.1,1.1,0.1,1.6c0.7,1.6,0.3,3.2,0.2,4.7c0.2,1.1,0.4,2.3,0.6,3.4c1.1,2.1-0.3,4.5,0.7,6.6c-0.1,0.2-0.1,0.5,0,0.7
		c0.1,1.9,0.1,3.8,0.2,5.6c1.1,5-0.3,8.7-4.4,12.4c-10.4,9-21.5,16.8-33.3,23.9c-1,0.6-2.1,1.2-3.4,1.1c-2.7-0.7-2.7-3.1-3.2-5.1
		c-2.3-9.3-4.1-18.7-6.3-28.1c-2.3-9.8-2.3-9.8-11.5-5.4c-8.3,3.9-16.8,7.5-25.7,9.9c-5.2,1.4-6.9,0.5-8-4.8
		c-0.6-2.8-0.9-5.6-1.4-8.4c-0.6-3.6,1.1-5.6,4.2-6.8c6.8-2.7,13.5-5.6,20.1-8.8c8.5-4,8.3-4.1,7.5-13.2c-0.4-3.9-1.6-7.7-1.4-11.6
		c0.1-0.4,0.2-0.8,0.4-1.2c6.4-4.9,13.5-8.9,19.6-14.3c12.1-10.6,21.6-22.9,26.4-38.5C584.2,429.3,584,426.6,587,427.4z"/>
	<path class="st15" d="M214,761.2c0.1-0.8,0.4-1.7,0.2-2.4c-3.6-13.6-1.6-26.8,3.2-39.7c0.9-3.5,4-5,6.7-6.6
		c7.9-4.8,16.6-7.6,25.8-8.5c24-4.8,45.3,8.3,51.5,31.8c0.3,1.2,0.9,2.2,1.3,3.4c0.2,0.4,0.2,0.9,0.3,1.3c0.2,6.9-0.2,13.7-4.2,19.8
		c-6.6,1.7-13.2,0.6-19.7,0.2c-2.2-0.1-2.3-1.3-2.2-3c0.1-3.1,1-6.2-0.5-9.3c-1.2,2.3-1.2,4.6-1.4,7c-0.4,5.4-1.1,6-6.4,6
		c-3.9,0-7.8-0.2-11.7-0.6c-3.3-0.3-4.2-1.8-4.3-4.5c-0.1-3.5,0-7-0.5-10.5c-3.2,3.4-3,7.5-2,11.4c0.7,2.5,0.4,3.2-2.3,3.5
		c-3.5,0.5-7,0.6-10.5,0.6c-6.1,0-6.9-0.6-7.4-6.7c-0.3-3.2-0.1-6.4-0.1-10.6c-3.3,5-3.6,9.4-1.5,13.8c1.5,3.1,0.4,3.6-2.5,3.5
		C221.8,761.1,217.9,761.2,214,761.2z"/>
	<path class="st16" d="M298.8,760.3c1.5-6.6,3.2-13.2,3.2-20.1c2.3-2.2,5-1.5,7.7-1.2c23.9,2.5,47.8,5.3,71.9,4.6
		c6.2-0.2,12.4-1,18.6-1.2c1.6-0.1,3.2-0.4,4.7,0.5c2.6,5.9,4.1,11.9,2.8,18.4c-17.4-0.4-34.8-0.8-52.2-1.2
		C336.6,759.6,317.7,759.7,298.8,760.3z"/>
	<path class="st17" d="M563.5,566.4c14-8,27.1-17.4,39.1-28.3c2.7-2.4,1-5.6,1.6-8.4c0.2,0.6,0.6,1.2,0.7,1.8c0.3,13,1.4,26,0.7,39
		c-13.1,10.5-27.2,19.4-42.2,26.9c-22.6,11.4-46.7,18.3-71.5,23.2c-11,2.2-22.1,3.8-33.3,4.7c-11.1,1.7-22.3,2-33.5,1.8
		c-1.5,0-3-0.1-4.3-0.8c-1.7-1.3-1.4-3.1-1.1-4.8c0.7-4.1,1.4-8.2,2.8-12.2c1.5-4.7,1.6-10,5.6-13.7c9.7-1,19.4-1.1,29.1-2.3
		c9-1.1,18.1-1.2,26.9-3.8c14.2-1.5,27.7-6,41.3-9.9c10.8-3.1,21.2-7.2,31.6-11.6C559,567,561.2,566.6,563.5,566.4z"/>
	<path class="st18" d="M459.6,624.1c30.5-3.4,60.4-9.4,88.8-21.3c10.8-4.5,21.4-9.5,31.3-16c7.8-5.1,15.8-9.7,22.8-15.9
		c0.9-0.8,1.9-1.8,3.1-0.4c0.1,2.4,0.2,4.7,0.3,7.1c0.9,1.1,1.2,2.4,1.3,3.8c0.1,8.2,0.4,16.5-1.2,24.6c-0.5,1.5-1.6,2.5-2.9,3.2
		c-17.8,10-35.2,20.8-54.4,28.1c-12.8,4.8-25.9,8.6-39.3,11.4c-7.3,1.3-14.5,2.6-21.8,3.8c-1.7,0.3-3.4,0.7-5.2,0
		c-2.7-1.8-0.7-3.1,0.6-4.4c1.2-1.2,3.8-1.5,3.1-3.6c-0.6-1.8-3-2-4.9-2.4c-3.4-0.7-6.7,0.3-10,0.7c-2,0.2-4,0.8-6,0.7
		c-2.4-0.1-5-0.8-5.5-3.3c-1-4.7-1.9-9.5-1.2-14.4C458.6,625.1,459.1,624.6,459.6,624.1z"/>
	<path class="st19" d="M629.3,638.6c3-4.1,5.7-8.5,8.9-12.4c9.1-10.9,21.1-14.6,35-12.9c6.8,2.2,13.4,4.8,19.3,8.9
		c7.4,5.1,13.8,11.4,17.4,19.3c2.6,5.9,6.7,11.8,5.6,19c-0.5,2.3-1.6,1.4-3,0.8c-9.5-4.4-19.3-8.4-29.5-10.9
		c-0.5-0.1-1.1-0.4-1.6-0.3c-1.8,0.2-4.6-1-5.1,1.1c-0.5,2.1,2.5,1.8,3.8,2.6c2.1,1.2,4.9,1.8,1.9,5.1c-1.7,1.8,0.2,2.8,1.7,3.6
		c3.7,1.7,7.3,3.4,11,5.2c7.3,3.6,7.3,3.6,3.6,10.7c-0.7,2.1-2.4,1.6-4,1.7c-3.6-1.8-7-3.9-10.2-6.5c-0.8-0.6-1.7-1.3-2.4-0.2
		c-0.5,0.8,0.4,1.5,1,2c2,1.6,4.1,3.1,6.1,4.6c3.3,2.4,4.8,5.3,2.1,9.1c-1.2,3.2-3.5,4.1-6.4,2.4c-7.1-4.4-14.7-8-21.1-13.6
		c-0.6,3-2.5,3.4-5.1,2.5c-1.7-0.6-3.2-1.5-4.6-2.5c-7.4-5.3-15.6-9.2-23-14.3c-2.6-1.8-5.9-1.8-8.3-3.9c0.7-6.7,2.6-13.1,5.1-19.3
		C627.8,639.4,628.6,639.1,629.3,638.6z"/>
	<path class="st13" d="M622.8,659.7c5.5-0.4,9.3,3.3,13.5,5.8c6.8,4.1,13.8,7.8,20.2,12.6c0.5,0.4,1.2,0.8,1.8,0.9
		c1.2,0.2,2.4,1.5,3.8,0.3c1.3-1.3-0.3-2.4-0.3-4.2c6.9,5.8,14.5,9.7,21.7,14.3c3,2,5.2,2.5,7.6-0.4c0.2,1.6,1.5,2.4,2.6,3.4
		c3.6,3.2,7.5,6.2,9.7,10.7c0.5,1.1,1.2,2.3,0.1,3.4c-1.1,1-2.2,0.2-3.3-0.4c-3.6-2.3-7.3-4.5-10.9-6.9c-2.2-1.5-3.9-1.3-5.8,0.3
		c-2.2,1.9-4.7,3.6-6.9,5.5c-1.5,1.3-2.9,2.7-4.6,0.4c-0.1-0.1-0.3-0.2-0.3-0.2c-3.9,4-5.8-2.5-9-1.7c-0.1,0-0.2,0.1-0.4,0.2
		c-0.1,1.8,1.4,2.8,2.1,4.1c0.3,1.4,2.1,2.5,0.9,4c-1,1.3-2.2,0.1-3.3-0.4c-1.7-0.8-1.2,0.9-1.7,1.4c-2.7,3.5-4,3.7-6.3,0.1
		c-2.4-3.6-6-4.4-9.7-5.1c-2.8-0.6-5.6-0.8-6.6-4.2c-0.2-0.6-0.8-1.2-1.5-1c-1,0.3-0.9,1.2-0.6,2c1.3,3.7,0.7,6.8-3,8.8
		c-2.2-3.2-4.3-6.4-6.7-9.5c-0.8-1-1.1-3.6-3.5-2c-1.8,1.3-2.7,3-1.4,5.2c1.6,2.8,3.3,5.5,4.3,8.6c-6.4-1.4-12.2,1.1-18.1,2.9
		c-1.2,0.4-2.4,0.6-3.5,0c-0.9-0.5-1.2-2.7-2.7-1.3c-1.1,1.1-1.8,2.5-1.2,4.4c0.8,2.7,1,5.6,2,8.2c1.1,3,0.3,4.5-2.6,5.1
		c-5.1,3.1-8.6,1.7-9.7-3.9c-0.4-2.4-1-4.8-1.3-7.2c-0.3-2.5-1.7-3.1-3.9-3c-2.4,0.1-2.4,1.7-2.4,3.4c0,6.5,0,13,0,19.4
		c0,5.2-0.9,10.2-2.4,15.1c-1.4,4.6-2.1,5.1-6.9,5c-1.7,0-3.5,0.4-5.2-0.3c-2.9,0-5.9,0.1-8.8,0.1c-1-1.4-0.3-2.6,0.3-3.8
		c4.6-8.7,4.9-18.4,6.4-27.8c0.2-1.1,0-2.2,0.3-3.2c0.8-3.2,0.4-5.3-3.7-5.9c-3.3-0.4-3.8-2.7-1.5-5.6c3.4-4.2,6.5-8.6,10.1-12.6
		c4.1-4.5,7.5-9.4,10.4-14.6c0.9-1.6,1.8-3.3,3.3-4.4c6.1-3.5,13-5.1,19.1-8.7c6.8-4,13.1-8.5,16.9-15.8
		C620.8,660.5,621.4,659.4,622.8,659.7z"/>
	<path class="st20" d="M407.6,761.3c-0.9-5.9-1.8-11.9-2.7-17.8c-2.5-5.9-1.4-12-0.8-18c10.2-11,21.8-19.6,37.2-21.8
		c10.2-1.5,20.2-0.4,29.7,3.7c12.1,4.6,17.5,14.2,19.6,26.4c0.8,7.2,0.4,14.3-0.9,21.3c-0.5,2.6-1.1,5.3-3.5,7.1
		c-5.5,1.3-10.9,0.6-16.7,0.2c2-4.9,4.4-9.5,1.6-15.2c-0.4,4.7-0.9,8.7-2.3,12.6c-0.7,2-1.7,2.7-3.7,2.7c-4.8,0-9.7,0.3-14.5,0.4
		c-1.4-0.3-2.9-0.5-4.6-0.8c2.2-5.4,4-10.9,1.6-17.5c-0.7,4.6-1.1,8.5-2,12.3c-1.2,5.3-1.4,5.3-6.7,5.3
		C428.5,762,418,762.6,407.6,761.3z"/>
	<path class="st21" d="M486.3,762c3.3-9.5,3.8-19.2,3.2-29.1c-0.1-1.9,1.4-1.7,2.5-1.8c25.7-4,49.4-13.8,72.7-24.9
		c2.2-1.1,4.4-3,7.1-0.9c-3.6,4.5-7.2,9.1-10.8,13.6c-0.6,0.7-1.6,1.5-1.2,2.4c0.4,1.2,1.8,1,2.8,1.1c4.9,0.5,5.1,0.9,4.4,5.6
		c-0.8,5.7-1.3,11.5-2.1,17.2c-0.9,6.6-3.1,12.8-6.3,18.6c-5.1,1.3-10.2,0.2-15.3-0.3c-4.9-0.5-9.7-0.6-14.6-0.7
		C514.7,762.6,500.5,762.3,486.3,762z"/>
	<path class="st22" d="M567.5,763.8c10.1-0.3,10.6-0.8,12.2-11.2c1.5-9.5,0.6-19.1,0.9-28.6c0.1-1.6,0-3.2,0-5
		c1.2,0.4,2.3,1.1,3.2,0.8c5-1.2,5.9,1.7,6.1,5.6c0,0.9,0.3,1.9,0.4,2.8c1.3,7.4,1.3,7.4,8.9,7c2.5-0.1,3.6,0.9,4.3,3.6
		c2.2,8.5,1.1,17.2,1.4,25.8C592.5,764.7,580,764.9,567.5,763.8z"/>
	<path class="st23" d="M125.7,403c2.2-6.2,4.9-12.1,8.2-17.7c2.7-0.2,3.1,2.2,4.2,3.7c5.6,8.1,10.4,16.8,17.8,23.6
		c16.1,14.7,34.2,26.1,54.6,33.6c4.5,1.6,6.3,0.7,8-3.4c1.5-3.5,1-5.3-2.7-7.3c-5.2-2.8-9.6-6.5-14.1-10.2c-1.1-0.9-2.7-1.6-2.2-3.5
		c4.3,0.6,7.6,3.3,11,5.8c3.2,2.3,6.3,4.8,9.9,6.2c3.5,1.4,4.4,5.2,7.7,7c8.3,4.6,17.2,7.8,26.1,11c13.7,4.9,28.1,7.6,42.4,10
		c9.7,1.7,19.5,2.2,29.1,4c17.1,3.2,34.3,2.3,51.5,3.2c1,0.1,2.6-0.3,2.7,1c0.1,1.8-1.7,1.4-2.7,1.3c-4.4-0.3-8.6,0.6-12.9,0.9
		c-1.2,0.1-2.7,0.1-2.7,1.7c0,1.3,1.2,2.2,2.4,2.4c4.7,1.1,9.4,2.5,14.1,0.4c0.9-0.4,1.8-0.7,2.7-0.9c6.3-1.7,6.3-1.7,1.9-6.2
		c1.5-1.3,3.3-1.5,5.2-1.5c14.9,0.3,29.5-2.2,44.2-4.2c2.1-0.3,4.2-1.2,5.5-3.1c1.1-1.7,2.9-1.8,4.6-2.2c12.2-2.9,24.6-5.2,36.7-9
		c9.8-3.1,19.5-6.5,28.9-10.8c1.6-0.7,3.1-1.7,4.6-2.4c1.7-0.9,3.4-0.9,4.7,0.8c1.6,4.4,2.6,8.8,2.4,13.5c-1.1,2.3-3.2,3.2-5.3,4.2
		c-5.4,2.7-11,5-16.7,7.3c-4.3,1.7-4.4,2.1-3.5,6.7c0.4,1.7,0.9,3.4,0.5,5.2c-0.2,1-0.7,1.8-1.5,2.4c-1.8,1.5-1.6,2.7,0.2,4.2
		c3.5,2.9,3.3,4.7-0.8,6.8c-6.1,3.2-12.9,5-19.4,7c-4.2,1.3-5.6,3.8-4.8,7.9c0.4,2.4,0.7,4.8,1,7.2c0.2,1.9-0.1,3.6-1.7,4.7
		c-2.2,1.6-2.4,3.6-2.2,6.1c1.2,14,1.2,14.1-12.2,17.1c-3.2,0.7-5,2.3-5.7,5.5c-0.5,2.5-1.5,4.9-2.5,7.3c-2.4,6.4-4.8,12.7-7.3,19.1
		c-3,7.5-5.2,15.2-7.9,22.8c-0.5,1.5-0.8,3.1-2,4.3c-1.4,4.3-2.8,8.6-4.2,13c-0.8,0.8-1.8,1.2-2.9,1.3c-24.7,3.9-49.4,7.8-74.6,6.7
		c-7.6-0.3-7.8,0.2-7.9,7.6c-0.1,9.8-1.6,11.2-11.6,10c-2.8-0.3-5.6-1-8.4-1.6c-6.8-1.5-13.3-4.7-20.6-3.2c-0.4,0.1-0.8,0.1-1.2-0.1
		c-10.1-4.4-21.2-1.1-31.4-4c-13.5-3.8-27.7-2.4-41.2-6c-1.6-0.4-3.2,0-4.8-0.2c-1.1,0-2.2,0-3.2,0c-1.2-1-2.7-0.7-4.1-0.8
		c-1.1,0-2.1,0-3.2,0c-0.7-0.5-1.6-0.8-2.5-0.8c-14.2-2.1-27.8-6.3-41.4-10.6c-1.1-0.6-1.9-1.4-2.4-2.4c0-0.3,0-0.5,0-0.8
		c1.1-1.9,1.8-3.9,2.2-6c0.6-2.8,2.1-4.3,5.1-3.8c6.6,2.5,13.5,3.6,20.4,4.7c14,2.2,28.2,4,42.2,5.9c0.5,0.1,1.1,0,1.6,0.1
		c2.1,0.9,4.4-0.3,6.5,0.7c2.4,0.3,5-0.6,7.3,0.9c8,0,15.9-0.1,23.8,1.3c4.2,0.8,4.8,0.1,3.5-3.9c-6-17.7-13-35-20-52.3
		c-0.5-1.1-1.2-2.1-1.6-3.3c-2.2-5.3-6.1-7.8-11.9-8.9c-27-5.3-53.7-11.7-79.5-21.3c-10.4-3.9-11.2-5.1-7.7-15.7
		c2.4-7.3,3.6-7.9,10.9-5c9.4,3.8,19,7.3,28.8,9.7c4.2,1,5.6,0.3,6.6-4.1c0.8-3.6,1.6-7.1,3.1-10.5c1.1-2.5,0.3-3.9-2.2-5.1
		c-6.6-3.1-13.2-6.3-19.7-9.7c-3.9-2-5.9-4.7-5.5-9.4c0.4-4.3-2.7-6.8-6.6-5.6c-6.3,2-10.4-1.6-14.5-5.1c-2.1-1.7-1.2-3.5,1.6-4.3
		c1.1-0.3,3.1,0.9,3.3-1.2c0.1-1.5-1.4-2.7-2.8-3.2c-4.3-1.5-7.8-4.3-11.2-7.2c-1.8-1.5-3.4-3.1-2.8-5.8c0.4-1.7-0.9-3-1.7-4.5
		c-4.2-8.2-10.1-15.4-14.1-23.7C126.5,406.7,125.6,405,125.7,403z"/>
	<path class="st24" d="M125.7,403c5.6,10.8,12.4,20.9,18.6,31.3c0.4,0.7,1.1,1.6,0.5,2.2c-2.3,2.6,0.2,3.6,1.6,4.7
		c3.4,2.6,6.2,6.1,10.7,6.9c1.2,0.2,2.4,1,2.9,2.1c0.7,1.5,2.9,2.6,1.7,4.6c-1.1,1.8-2.7,0.4-4,0.3c-1.1-0.1-2.4-0.4-2.9,0.8
		c-0.5,1.3,0.9,1.8,1.7,2.3c2.1,1.4,4.1,3.1,6.4,4.2c2.1,1,4.4,0.4,6.5-0.4c3.4-1.3,8.1,1.5,8.2,5.2c0,1.1-0.2,2.1-0.3,3.2
		c-0.2,2.5,0.5,4.6,2.8,5.7c7.6,3.8,15.2,7.7,22.9,11.2c2.6,1.2,3.6,2.3,2.2,4.7c-2.6,4.7-2.7,10.1-4.8,15c-1.2,2.8-2.7,3.1-5.3,2.4
		c-10.6-2.7-20.9-6.3-31.1-10.4c-1.1-0.5-2.3-0.9-3.4-1.3c-2.2-0.8-3.6-0.4-4.3,2.1c-0.9,3.3-2.1,6.4-2.9,9.7
		c-0.7,2.6-0.2,4.4,2.8,5.6c17,6.9,34.6,12.1,52.5,16.3c7.3,1.7,14.6,3.7,22,5.4c4.3,1,8.7,2.3,13.1,2.6c5.1,0.3,7.3,3.5,9.5,7.4
		c4,7.1,6.5,14.8,9.5,22.3c4.9,12.3,9.2,24.8,14,37.1c1.3,3.3-0.6,4.5-2.8,3.9c-6.5-1.6-13.2-0.9-19.7-1.9c-2.2-0.4-4.9,1.5-6.8-1.1
		c1.2-6.1,1.8-12.2,1.6-18.4c-0.1-2.5-2.1-2-3.6-2c-14-0.6-28-1.6-41.8-4.1c-2.9-0.5-4.4-1.2-3.6-5c1.2-6,1.2-12.3,2-18.5
		c0.4-3.5-1.5-4.3-4.3-4.9c-10.1-2.1-20-4.4-29.6-8.3c-6.4-2.6-12.7-5.3-18.7-8.8c-1-0.6-2.5-1.1-2.3-2.5c0.2-1.4,1.9-0.5,2.8-1
		c3-1.6,6,1.3,9.2-0.3c-1.3-2.7-3.8-3.8-6-5.2c-2.6-1.7-3.7-3.4-2-6.7c2.8-5.2,1.9-7.4-3.5-9.9c-11.7-5.3-22.3-12.2-31.5-21.1
		c-6.6-6.4-11.9-14-14-23.3c-0.9-4.2,1.3-7.9,2.4-11.7c3.6-12.3,9.5-23.8,12.8-36.2c1.1-2.4,2.2-4.9,3.3-7.3
		C122.4,409,123.5,405.7,125.7,403z"/>
	<path class="st24" d="M169.4,594.8c-2.4,0.7-3.8,2-4.2,4.7c-0.3,1.9-1.1,3.9-3,5.1c0.5-2.6,1-5.2,1.6-7.8c0.4-1.7,1.2-3,3.3-2.8
		C167.9,594,168.8,593.8,169.4,594.8z"/>
	<path class="st24" d="M240.1,606.1c-2.2-0.2-4.5,0.7-6.5-0.7C235.8,605.6,238.1,604.6,240.1,606.1z"/>
	<path class="st24" d="M219,619.9c6.5-1.9,12.8,0.3,19.1,1.2c1.5,0.2,2.9,0.6,4.4,0.5c6.7-0.5,13,1.5,19.5,2.5
		c7.5,1.2,15.1,3.6,23.1,1.4c2.4-0.7,5.8,1,8.3,2.3c2.5,1.3,5.1,1.6,7.4,0.9c3.3-0.9,6.1,0.1,9,1c7.6,2.2,15.2,4.5,23.3,4.2
		c2.6-0.1,3.7-1,3.6-3.6c-0.1-3.2-0.1-6.5,0-9.7c0.1-3,1.4-4.7,4.8-4.6c6.5,0.2,13,0,19.5,0c16.8,0.1,33.2-2.4,49.7-5.3
		c4.3-0.8,8.5-1.4,12.8-1.2c-0.9,5.5-2.8,10.7-3.1,16.3c0.9,3.3-0.7,6.3-1.2,9.4c-0.4,2.9-1.3,5.7-1.7,8.7c-0.2,1.5-0.7,2.9-2.2,3.6
		c-6.9,1.5-14,0.2-21,1.5c-10.5,2.1-21.3,1.1-31.9,2.4c-5,0.6-5.3,1-6.1,5.8c-0.3,2-0.3,4-0.4,6.1c-0.2,2.5-0.7,4.8-3.1,6.2
		c-1.4,0.6-2.9,0.7-4.4,0.7c-15.9,0.3-31.8,0.2-47.6-1.8c-2.3-0.3-4.6-0.4-6.4-2.1c-1.6-6.4-3.4-12.8-4.9-19.2c-0.7-3-2-4.3-5.5-4.5
		c-10.1-0.6-20.1-0.9-30.2-2.1c-5.7-0.7-11.5-1.2-17.2-1.8c-3.8-0.4-7.3-2-11-2.6c-1.9-0.3-2.3-1.9-2.1-3.8c0.2-2.6,0-5.1,0.2-7.7
		c0.2-2.7-0.6-4.1-3.5-3.9C219.9,620.7,219.5,620.2,219,619.9z"/>
	<path class="st25" d="M294.5,666.2c19.4,2.4,39,2.8,58.5,2.4c0.8-0.5,1.7-0.9,2.7-0.9c17.2,0.7,34.2-2.1,51.3-4
		c1.6-0.2,3.2-0.5,4.7,0.6c1,1,1.2,2.4,1.2,3.7c-0.1,6.5-0.1,13-3.6,18.9c-3.9,1.7-8.1,1.8-12.3,1.8c-7,0.1-14.1,0.1-21.1,0
		c-3.4,0-4.7,1.3-4.1,4.6c0.1,0.7,0.2,1.3,0.3,2c0.8,6.8-0.7,8.5-7.5,8.8c-0.7,0-1.4,0-2,0.1c-8.1,0.5-8.1,0.5-9.6-7.5
		c-0.4-2.1-0.9-3.9-3.7-4c-16.9-0.6-33.7-2-50.5-2.8c-2.8-2.2-3.9-7-2.7-11C296.4,674.8,294.1,670.7,294.5,666.2z"/>
	<path class="st26" d="M296.1,679.2c0.8,3.6,1.6,7.1,2.4,10.7c1.2,0.8,1.5,2.2,1.7,3.5c0.8,6.7,1.8,13.3,2.1,20
		c0.8,6,1.9,12,1.7,18.1c-0.1,2.8,0,5.7-2.2,7.9c-1-0.8-1.3-2-1.6-3.2c-5.2-21.9-26.4-35.4-49.3-31.1c-0.4,0.1-0.8,0-1.2,0
		c-0.8-4.5-4-5.5-8-6.1c-9.7-1.6-19.6-2.7-29-5.6c-1.6-0.5-4-0.2-4.3-2.8c0.5-7,1.1-14.1,1.6-21.1c6.7,0.2,13.4,1.3,20,2.7
		c8.2,1.7,16.6,1.8,24.8,3c10.6,1.5,21.3,2.8,32,4C289.9,679.4,293,679.2,296.1,679.2z"/>
	<path class="st24" d="M211.7,619.1c1.7-1.5,3-0.8,4.1,0.8C214.4,619.8,212.8,620.4,211.7,619.1z"/>
	<path class="st24" d="M162.1,605.3c1.1,0.6,1.9,1.4,2.4,2.4C162.8,607.9,161.9,607.1,162.1,605.3z"/>
	<path class="st24" d="M206,618.3c1.3-1.3,1.8,0,2.5,0.8C207.5,619.1,206.6,619.2,206,618.3z"/>
	<path class="st27" d="M208.4,690.6c7.9,3,16.2,4.2,24.5,5.6c5.1,0.9,10.3,1.7,15.4,2.6c1.7,0.3,2.4,1,1.9,2.8
		c-0.3,1.2-0.4,2.4-0.5,3.6c-12.1,1.7-23.2,5.6-32.4,14c-20.2-6.2-40.6-11.4-60.2-19.5c-0.2-6.6,2.3-12.7,3.4-19
		c0.4-2.2,1.7-1.9,3.3-1.5c6.9,2,13.7,3.9,20.6,5.8C192.4,687,200.3,689.3,208.4,690.6z"/>
	<path class="st28" d="M147.5,361.6c2.5-5.2,5.3-10.3,9-14.7c5.6-6.6,8.9-14.7,14.7-21c2.4,5.9,4.8,11.9,7.2,17.8
		c1.6,0.4,2.1,1.9,3,2.9c0.9,1.7,2.3,3,3.3,4.7c0.7,1.1,1.5,2.3,2.4,3.3c0.8,0.9,1.7,1.8,2.5,2.7c1.5,2.6,4.3,4.1,5.3,7
		c-0.1,0.7,0.3,0.9,1,0.9c1.5,0.4,2.4,1.5,3.3,2.6c1.1,1.9,2.7,3.4,4.6,4.6c0.8,0.6,1.5,1.2,2.1,1.8c1.4,1.5,2.8,3,4.3,4.3
		c3.1,2.7,4.1,5.6,1.5,9.2c-1.3,1.8-0.7,3.3,1,4.4c4.6,3.1,8.7,6.8,13.7,9.4c1.4,0.9,2.8,1.8,4.3,2.6c3,2.1,6.4,3.6,9.4,5.7
		c0.4,0.4,0.7,0.9,0.8,1.5c-0.7,3.5-2.2,6.7-3.7,9.8c-1.7,3.7-2.1,3.8-5.7,1.6c-3.1-1.9-6.1-4-9.1-6c-5.8-4-11.5-7.9-18-10.8
		c-3.4-1.5-6.3-4-9.4-6.1c-1-0.7-1.8-1.8-3.2-1.1c-1.5,0.8-1.3,2.3-1.2,3.6c0.1,0.9,0.3,1.9,0.7,2.7c0.6,1.1,1.5,2.3,0.4,3.3
		c-0.9,0.9-2.4,1.1-3.8,0.7c-2.9-0.9-5.8-1.7-8.7-2.5c-1,0.5-1.8-0.1-2.6-0.7c-13.2-10.8-23.3-23.9-29-40.1
		C147.2,364.2,146.7,362.9,147.5,361.6z"/>
	<path class="st23" d="M180.8,346.9c-1.4-0.7-1.8-2.1-2.4-3.3c3.8-3.2,7.4-6.6,11.3-9.6c2-1.6,3.9-1,5.6,1.1
		c3.2,4.1,5.4,4.3,9.4,1.3c2.2-1.7,4.5-3.2,7-4.6c-1.7,2.3-3.8,4.3-6.4,5.6c-3,1.5-3.2,3.3-1.2,5.8c0.7,0.8,1.3,1.8,2,2.6
		c2.1,2.3,4.4,3.9,7.1,0.1c0.5,1.6-0.5,2-1,2.6c-2.2,2.6-2.8,5.2-0.8,8.5c3.9,6.3,8.8,11.3,14.9,15.7c7.3,5.3,14.7,10.6,22.4,15.3
		c13.5,8.3,26.4,18,42.1,22c2.2,0.6,5,1.1,2.1,4.4c-1.2,1.3-0.1,2.5,0.9,3.5c1,1,2.2,2.1,1.7,3.5c-1.3,3.2-1.3,6.6-1.9,9.9
		c-0.5,2.9,0.4,4,2.8,4c3.9-0.1,7.6,0,10.1,3.7c0.2,0.2,0.7,0.3,1.1,0.2c1.3-0.3,2.4-0.1,2.2,1.4c-0.1,1.3-1.3,2.4-2.6,2.1
		c-2.4-0.7-2.9,0.4-2.8,2.4c0,0.9-0.4,1.5-1.1,2c-3,2-15.3-2.4-14.1-4.4c2.5-4.4-3.5-5.8-1.9-9.4c0.9-2.1-1-3.4-3-4
		c-11-3.4-21.5-7.9-32.1-12.4c-3.8-1.6-7.4-3.8-11.1-5.7c-0.3-0.3-0.5-0.5-0.8-0.8c-2.9-2.5-6.2-4.4-9.8-5.7
		c-1.6-0.3-3.1-0.9-4.1-2.4c-1.4-1.1-2.7-2.3-4.1-3.2c-2.9-1.9-5.1-3.8-2.5-7.5c-1.6-0.5-2,0.7-2.8,1c-2.7,1-6.1-1.4-4.8-3.7
		c4-7-1.5-9.5-5.2-13.1c-0.5-0.5-1.1-0.8-1.6-1.2c-0.5-0.5-1.1-1.1-1.6-1.6c-2-1.2-3.2-3.3-4.9-4.9c-1.1-0.8-2.2-1.7-3.2-2.5
		c-0.4-0.1-0.6-0.4-0.8-0.8c-1.6-2.7-4.7-4.2-5.7-7.3c-0.6-1-1.4-1.8-2.4-2.4c-1.5-0.6-1.8-2.1-2.4-3.3
		C183.4,349.9,182.3,348.3,180.8,346.9z"/>
	<path class="st29" d="M227.8,147.9c2.3,1.1,3.6-0.2,5.1,0c1.4,0.1,2.7,0.4,3.4,1.7c0.8,1.5-0.2,2.8-1.2,3.5
		c-4,2.7-6.1,6.7-8.2,10.7c-2.5,4.7-7.5,7-10.9,10.8c-1.5,1.6-3,0.8-3.4-1.3c-0.2-1-0.1-2.2-0.1-3.2c0-15-0.4-30.1,0.2-45.1
		c0.4-9.9-0.2-20,2.2-29.8c0.7-2.9,1.8-5.7,3.3-8.2c2.5-4.3,5.7-5.2,10.3-3c5.3,2.6,9.6,6.5,14.2,10c6.4,4.9,12.9,9.9,18.9,15.2
		c4.8,4.3,9,9.3,13.5,14c0.7,0.7,1.1,1.6,0.4,2.5c-1.1,1.4-2.7,1.3-4.1,0.7c-3.4-1.5-6.9-2.3-10.5-3.1c-7.3-1.7-14.7-1.4-22.2-1.3
		c-1.2,0-2.3,0.4-3.2,1.6c1.6,1.5,2.9,0.1,4.3,0.1c12.6,0.1,25.3,0.1,36.9,6.4c3.8,2,3.7,2.1,0.5,4.6c-2.5,1.9-5.2,2.3-8,1.6
		c-7.1-1.7-14.1-3.6-21.4-4.3c-7.4-0.8-14.3,1.5-20.7,5.2c2.8-0.7,5.7-1.3,8.4-2.3c3.2-1.2,7-1.2,9.7-0.9c4,0.4,8.3,1.8,12.3,3
		c2,0.6,0.9,2.3-0.3,3c-2.7,1.7-5.8,1.9-8.9,2.3C241.5,143.1,234.9,145.4,227.8,147.9z"/>
	<path class="st30" d="M434.3,421.6c0-0.5,0-1.1,0-1.6c0.4-3.3-2.8-6.3-0.8-9.7c0.3-1.9,1.8-2.1,3.3-2.5c6.1-1.5,12.2-3.1,18-5.1
		c4.4-1.6,9-3.8,13.5-5.7c11.2-4.8,22.2-10,31.9-17.4c8.7-6.6,17.2-13.4,23.8-22.2c1.9-2.6,2-2.5,4.9-0.7c0-1.6-2.6-2.2-1.3-4.2
		c4.3-6.4,7-13.6,10.6-20.4c1.4-0.4,2.4,0.5,3,1.5c3.8,5.8,8.6,11,11.7,17.2c0.5,1.1,1.2,2.1,1,3.4c-2.5,5.9-3.4,12.2-4.7,18.3
		c-0.5,2.1-1.3,3.6-3.5,3.7c-3.4,0.1-5.6,2.1-8,4.1c-13.9,11.2-27.7,22.6-44.6,29.1c-1.1,0.4-2.2,1.1-3.2,1.6
		c-3.3,1.3-6.6,2.8-9.9,4.1c-1.4,0.5-2.7,1.1-4.2,0.7c-11.1,3.1-22.3,6.3-33.4,9.4c-0.8,0.2-1.6,0.3-2.4,0.4
		C436.1,427.2,435.5,424,434.3,421.6z"/>
	<path class="st31" d="M147.5,361.6c5.7,18.3,16.8,32.8,31.7,44.7c6.3,5.8,13.2,10.7,20.3,15.4c5,4.2,9.7,8.9,15.7,12
		c6.4,3.2,6.9,5.7,3.3,11.9c-1.5,2.6-3.6,3.5-6.5,2.4c-3.1-1.2-6.3-2.3-9.4-3.6c-15.4-6.6-29.2-15.6-42.2-26.1
		c-9.9-8-16.7-18.3-23.4-28.7c-0.9-1.5-1.6-3.2-3.1-4.1C137.9,377.1,142.7,369.3,147.5,361.6z"/>
	<path class="st32" d="M475.7,415.9c4.5-2.1,9-4.2,13.9-5.6c1.4-0.5,2.7-1.2,4.1-1.5c3.6-0.7,5.9,0.9,4.8,4.2
		c-1.6,5.3,0.6,7.3,5.1,8.4c0.2,0.2,0.5,0.4,0.5,0.6c1.5,5.8,2.5,11.8,4.1,17.6c-3.5,2.6-7.8,3.5-11.7,5.1c-19,7.8-39,11.8-59,16
		c-1.9,0-3.2-0.5-3.2-2.7c0-4.5-3.4-9.5-0.3-13.4c1.7-2.1,6.2-1.9,9.5-2.5c10.8-1.8,20.8-6.4,31.2-9.8c3.4-1.1,5.1-3.1,3.6-7.1
		C477.1,422.3,476.6,419,475.7,415.9z"/>
	<path class="st23" d="M351.4,401.5c11.5-1.4,23.2-0.3,34.6-2.5c4.9-0.9,4.5,0.2,5.5,5c1.4,6.5-3.8,8.2-6.4,11.8
		c-0.3,0.5-1.2,0.9-1.7,0.8c-4.6-0.6-8.7,1.8-13.2,1.7c-1.8,0-3.2,0.5-3.9,2.2c-0.5,1.2-0.1,2.4,0.9,3.3c1.5,1.5,2.7,0.1,4-0.4
		c1.8-0.7,3.5-1.5,5.2-2.2c2.5-0.9,5.5,0.9,5.8,3.4c0.1,1.1,0.1,2.2-0.9,2.9c-0.9,0.6-1.7,0.2-2.6-0.3c-1.5-0.8-3.4-3.4-4.3,0.7
		c-0.2,0.7-1.1,0.8-1.7,0.5c-2.3-0.9-4.8-0.2-7.2-1c-2.4-0.8-4.6-0.1-6.6,1.9c-4,4-6.4,4-11.6,1.7c-2.4-1.1-5.2-1.5-7.8-2
		c-2.2-0.4-3.1-1.2-3.6-3.5c-0.5-2.3-1.4-4.9-4.3-5.8c-2.3-0.7-1.9-2.9-0.9-4c2.5-2.9,3-6.3,3.6-9.7c0.5-2.7,2-3.5,4.3-4
		C342.7,401.1,347.1,401.4,351.4,401.5z"/>
	<path class="st33" d="M401.5,236.8c-7.4-9.3-7.2-13.1,1.6-21.1c8.9-8,19.5-9.1,30.7-6.6c3.9,0.9,7.8,2.2,11.3,4.2
		c1.5,0.8,3.3,1.4,3.7,3.4c-1.1,1.2-2.5,1-3.8,0.6c-3.4-1-4,0.5-3.7,3.5c0.4,4.2-0.2,8.3-2.2,12.2c-3.8,7.4-12.6,12.2-20.2,10.6
		c-8.9-1.9-15.5-9.4-15.9-18.2c-0.1-1.3,0.3-2.7-0.4-4.2c-2.2,3.1-1.6,6.1-0.8,9.2C402.4,232.5,403.8,234.8,401.5,236.8z"/>
	<path class="st34" d="M266.2,232.2c-1.9-3-2.9-6.4-3.1-9.9c-0.1-2.2-0.7-3.5-2.9-4c17.7-13.9,38.2-14.3,52,1.4
		c3.2,3.6,4.8,7.5,1.5,12c-3.3,0.8-2.9-1.6-2.7-3.4c0.2-3.1,0.2-6-2.9-8.3c0.1,8-1.8,15-8,20.2c-3.5,2.9-7.6,4.1-12.1,3.9
		c-4.1-0.2-7.6-1.8-10.7-4.4c-3.3-2.7-5-6.4-6.1-10.3c-1.1-3.8-0.5-7.7-0.3-12c-3.5,0.7-4.9,2.3-4.7,5.7
		C266.3,226.2,268,229.2,266.2,232.2z"/>
	<path class="st35" d="M355.1,259.7c-1.5-3.2-3.1-6.1-4.2-9.1c-1.3-3.3-3.7-4.4-7-4.4c-1.1,0-2.2,0.1-3.2-0.2
		c-2.1-0.7-3.9-2.1-4.6-4.2c-0.7-2.3,1.3-3.4,2.8-4.5c8.8-5.9,18.2-6,27.9-2.9c1.6,0.5,2.8,1.7,3.9,2.9c2.7,2.9,2.2,5.6-1.4,7.5
		c-0.5,0.2-1,0.6-1.5,0.6c-7.1-0.3-9.1,4.7-10.8,10.2C356.7,256.9,356.5,258.5,355.1,259.7z"/>
	<path class="st23" d="M345.6,454.2c-4.3,1.4-9-1.5-14.1-1.8c-3.1-0.2-4.6-3-5.3-6c-0.6-2.6,1.3-3.5,3.2-4.4
		c0.7-0.3,1.8-0.8,1.9-1.3c1.9-7.8,8.6-4.7,13.2-5.2c2.5-0.3,5.7,0.9,8.6,0.9c2.6,0,4,1.2,3.8,4c-0.1,2.8,0,5.7,0,8.5
		c0,4.9-0.5,5.4-5.3,5.4C350.1,454.2,348.3,454.2,345.6,454.2z"/>
	<path class="st36" d="M266.2,232.2c-0.4-2.4-0.7-4.8-1.1-7.2c-0.9-6.7,0.2-8.2,7.3-9.3c-0.2,2.6-0.5,5.1-0.7,7.6
		c-1,11.2,8.6,19.4,15.8,19.6c10.6,0.2,18.7-7.7,19-18.9c0.1-2.2-0.2-4.5-0.3-6.8c5.3,2.3,7.1,5.7,6,11.3c-0.3,1.6-0.8,2.9,1.4,3.2
		c-0.2,0.4-0.4,0.8-0.5,1.2c-1.1,0.9-2.2,1.9-2.4,3.5C297.8,255.5,272.9,248,266.2,232.2z"/>
	<path class="st37" d="M401.5,236.8c1.1-2.5-0.7-4.4-1.2-6.6c-1.4-5.7-0.4-9.5,3.9-12.5c0,2.6-0.1,4.8,0,7.1
		c0.4,9.8,8.4,17.8,17.6,17.8c9.8,0,18-7.9,18.3-17.9c0.1-2,0.3-4.2-0.2-6.1c-1-3.7,0.8-3.5,3.3-2.9c1.8,0.4,3.7,0.7,5.5,1
		c0.2,21.9-15.7,33.6-33.9,29.4C409.2,244.9,404.9,241.4,401.5,236.8z"/>
	<path class="st38" d="M348.7,288.4c2.3-5.5,5.9-9.2,7-15.1c2.2,5.2,4.7,9,7.3,13.4C358.3,287.4,353.8,286.2,348.7,288.4z"/>
	<path class="st32" d="M433.5,410.3c-0.1,3.3,1.3,6.4,0.8,9.7c-1.3-2.2-1-5-2.9-7.1C430.3,411.6,432.4,410.9,433.5,410.3z"/>
	<path class="st32" d="M434.3,421.6c2,1.2,2.4,4.6,5.6,4.1C435,427.6,434.3,427.1,434.3,421.6z"/>
	<path class="st34" d="M310.8,236.5c0-1.7-0.7-3.9,2.4-3.5C312.9,234.5,311.6,235.4,310.8,236.5z"/>
	<path class="st13" d="M694.3,680.1c1-1.3,2.9-0.6,4-1.7c1.1,2.6,4.6,3,5.7,6.4C699.9,684.2,697,682.3,694.3,680.1z"/>
	<path class="st39" d="M508.3,439.6c-4.5-5.2-3.6-11.8-4.9-17.9c0.2-1.2,1.1-1.8,2.1-2.3c7.4-3.7,13.9-8.8,21-13.1
		c1-0.6,2.1-1.3,3.2-1.8c4.3-1.8,7.1-0.5,8.2,4c1.3,5.1,2,5.3,5.8,1.6c8.1-7.9,14.2-17.3,20.1-26.8c0.8-1.3,1.2-2.8,3-3
		c6.4,11.7,12,23.7,16.3,36.3c1.2,3.7,2.6,7.3,3.9,10.9c-0.9,0.1-1.3,0.7-1.6,1.6c-5.5,20.3-18.5,35-35,47.2
		c-3.8,2.8-7.6,5.6-12,7.3c-2.9-2-2.6-5.5-3.4-8.3c-2-7-2-7.1-8.4-3.5c-7.6,4.2-15.3,7.9-23.3,11.2c-2.2,0.9-4.8,2.7-6.8,0.8
		c-2.2-2.1-3.8-5-2.5-8.4c0.2-0.5,0.1-1-0.2-1.5c-0.1-0.9-0.1-1.9-0.3-2.8c-1.9-8-1.9-8,5.7-10.9c6.8-2.5,13.4-5.6,19.7-9.2
		c0.9-1.1,1.2-2.3,0.7-3.8c-1.2-3.3-1.6-6.8-3.2-10c-1.6-1.2-2.9-0.2-4.2,0.7C510.9,438.6,509.7,439.4,508.3,439.6z"/>
	<path class="st40" d="M566.8,380.1c-4,8.4-9.8,15.7-15.3,23.1c-3,4-6.4,7.9-10.8,10.6c-1.8,1.1-2.9,1.7-3.3-1.4
		c-1.2-9.2-3.1-9.9-10.9-4.9c-7.6,4.8-14.8,10.4-23.1,14c-0.9-0.1-1.9-0.1-2.8-0.2c-3.5-0.5-5.7-1.2-3.8-5.9
		c2.3-5.8,0.9-6.9-5.2-5.5c-0.6,0.2-1.3,0.2-2,0.2c7.6-4.1,15.2-8.1,22.7-12.2c7.1-3.8,13.5-8.5,18.2-15.2c6.3,0.2,7.8-8.5,14.5-7.7
		c2.1,0.3,2.6-1.2,3.2-3.4c1.9-5.9,0.8-12.7,5.4-17.7c0.3,0.3,0.6,0.6,0.9,0.8C559,363.2,563.2,371.5,566.8,380.1z"/>
	<path class="st41" d="M436.8,568.8c2-6.4,4.5-12.6,7.2-18.8c0.4-0.5,0.9-1,1.6-1.2c13.1-2.7,25.9-6.6,39.2-8.2
		c5-0.6,9.8-2,14.7-3.2c3.4-0.8,4.6-2.9,4.2-6.2c-0.2-2.2-0.7-4.3-1.4-6.3c-0.7-2.1-1.2-4.2-1.5-6.3c-0.8-5.3,0.4-7.4,5.1-9.7
		c4.9-2.4,5-2.4,4.1-7.6c-0.5-2.7,0-4.9,2.5-6.2c7.5-4,15.3-7.4,23.1-11c0.9-0.4,1.8-0.6,2.7,0.1c0.9,5.7,1.5,11.5,2.7,17.1
		c0.6,2.8-0.1,4.2-2.4,5.6c-8.7,5.3-18.2,8.8-27.5,12.8c-2.4,1-3.4,2.1-2.8,4.8c0.7,3.3,1.2,6.6,1.7,9.9c0.4,3.3,2,3.9,5.1,3.1
		c9.8-2.7,19.1-6.6,28.3-10.9c1.5-0.7,2.9-1.5,4.4-2.1c2.9-1.3,4.5-0.9,5.5,2.7c3.2,11.4,5.2,23.1,8.1,34.6c0.4,1.7-0.1,4,2.3,4.7
		c-11,4.7-21.9,9.4-33.3,13c-13.1,4.1-26.3,7.5-39.6,10.9c-2,0.5-4,0.8-5.8-0.4c-1.8-1.6-1.5-3.7-1.4-5.7c0.1-5.1-0.3-10.2-0.8-15.3
		c-0.2-2.3-1.1-3.2-3.4-2.7c-11.7,2.3-23.5,3.1-35.4,3.7C441.3,570,438.9,570.7,436.8,568.8z"/>
	<path class="st32" d="M538.3,484.2c-8,3.8-16,7.6-24.1,11.3c-2.8,1.3-3.9,2.6-2.9,5.9c1.8,5.8,1.5,6-4.2,8.3c-5.9,2.4-6.9,6-3.8,14
		c1.2,3.2,1.8,6.4,1.8,9.9c0,2.4-0.7,3.7-3.1,4.4c-10.6,3.2-21.5,4.6-32.3,6.5c-4.9,0.9-10,1.8-14.6,3.9c-3.5,1.6-7.3,1.4-11,1.6
		c0.5-1.5,1.3-3,1.4-4.6c0.6-6.8,4.7-9,11-10.2c9.6-1.8,7.8-0.8,7.9-9.7c0-2.3,0.2-4.5-0.5-6.8c-0.6-2.1,0.1-4.2,2.3-5
		c2.5-0.9,2.3-2.4,1.9-4.5c-0.6-3.3-0.8-6.7-1.2-10c-0.4-3,1.1-4.3,3.8-5.3c7.3-2.5,14.8-4.2,21.7-7.8c1.1-0.6,2.8-0.7,2.8-2.5
		c0-1.6-1.6-1.6-2.6-2.1c-3.4-1.7-3.6-3.7-0.5-5.8c0.8-0.5,1.6-1,1.7-2.1c1.4,1.6,0.6,3.6,1.3,5.4c1.7,4.8,2,5.1,6.4,3.2
		c8.7-3.7,17.1-7.8,25.4-12.3c7.3-3.9,6.6-4.7,8.8,3.3c0.9,3.4,1.8,6.8,2.7,10.1C538.3,483.7,538.3,484,538.3,484.2z"/>
	<path class="st42" d="M301.8,739.4c1.9-8.8-0.2-17.4-0.7-26.1c1.8-1.6,3.8-1.1,5.8-0.7c12.3,2.6,24.8,3.4,37.4,4.3
		c18.8,1.4,37.5-0.3,56.2-1.2c1.9-0.1,3.8,0,5.4,1.3c1.8,2.8,0.9,5.3-0.7,7.8c-0.1,6.2-0.2,12.5-0.3,18.7
		c-14.2,1.8-28.5,1.9-42.7,1.6c-12.6-0.2-25.2-2-37.8-3.1c-7.5-0.6-14.9-2.3-22.5-1.8C301.9,740,301.9,739.7,301.8,739.4z"/>
	<path class="st43" d="M415.6,646.7c1.1-5.1,2.2-10.2,3.2-15.4c0.4-2,0.9-3.9,1.8-5.7c13,0.4,26-0.3,39-1.5c-0.7,5,0.7,9.9,0.8,14.9
		c0.1,2.9,2.7,3.6,5,3.4c3.6-0.3,7.2-0.8,10.7-1.7c3.9-1,7.2,0.2,10.5,1.8c2.7,1.3,2.7,3,0.2,4.8c-1.4,1-3,1.8-4.5,2.8
		c-0.7,0.5-0.7,1.1-0.1,1.6c-0.7,2.6-3.1,2.4-4.9,2.6c-13.9,2-27.9,3.4-41.8,5.3c-5.2,0.7-10.4,1.4-15.7,1.6c-2,0.1-4.1,0.2-5.9-1
		C412.3,655.4,413.7,651,415.6,646.7z"/>
	<path class="st44" d="M436.8,568.8c14.6-0.9,29.3-1.2,43.6-4.5c2.5-0.6,3.3-0.1,3.5,2.5c0.8,7.7,0.7,15.3,0.8,23
		c-0.8,2.6-3.3,2.1-5.1,2.4c-4.5,0.8-9,1.3-13.6,1.7c-12.7,1.1-25.4,2.9-38.2,2.5c1-7.1,4.1-13.6,6.1-20.4
		C434.8,573.5,435.9,571.2,436.8,568.8z"/>
	<path class="st45" d="M604.8,606.9c-0.2,9.3-2.5,18.2-4.1,27.3c-0.3,1.4-0.4,2.9-0.6,4.4c0.9,4.3-0.4,8.1-2.7,11.7
		c-14,7.2-27.4,15.5-41.8,22c-2.7,1.2-5.3,3.5-8.7,2.1c-1.8-3.1-2.8-6.4-3.7-9.8c-0.8-2.8-2.2-3.7-5-2.7c-6.2,2.3-12.7,3.7-18.9,6
		c-1.9,0.7-3.8,1.5-5.8,0.1c-2.8-6.5-4.3-13.3-3.6-20.5c10.1-2.8,20.3-5.1,30.2-8.5c15.4-5.2,29.9-12.3,43.9-20.5
		C590.8,614.6,597.8,610.8,604.8,606.9z"/>
	<path class="st46" d="M509.8,647.5c1.1,5.5,2.2,10.9,3.3,16.4c0.3,1.3,0.5,2.6,0.7,3.9c-0.9,1.8-2.7,2.1-4.4,2.6
		c-16.8,4.7-33.7,9-50.8,12.2c-13.5,2.5-27.3,3.5-41,4.5c-2.7,0.2-5.3,1-8,0.6c-0.5-0.2-0.7-0.5-0.6-1.1c1.6-7.3,2.9-14.5,2.5-22
		c-0.4-2.3-0.2-4.2,2.4-4.9c12.2,0.4,24.1-2.1,36.1-3.4c10-1.1,20-2.5,30-3.8c0.8-0.1,1.6-0.1,2.2-0.8c7.6-1.2,15.2-2.4,22.8-3.6
		C506.7,647.8,508.3,647.7,509.8,647.5z"/>
	<path class="st47" d="M596.7,650c-2.7,12.6-7.8,24.4-12,36.5c-3.6,5.5-6.4,11.4-10.7,16.4c-0.7,0.8-1.5,1.5-2.2,2.2
		c-5.5,0.1-9.8,3.6-14.5,5.7c-16.1,7.4-32.4,14-49.6,18.4c-6,1.5-12.1,2.4-18.2,3.6c-1-3.2-2.1-6.3-3.1-9.5
		c-2.4-7.9-8.8-11.6-15.5-15.1c-1-1.2-1.5-2.6-1.8-4c-1-4.8-0.3-6.1,4.5-7.1c23.6-5.1,46.1-13.4,68.6-21.9c1.6-0.6,3.2-1.6,5-0.9
		c9-2.9,17.2-7.8,25.6-12.1c6.4-3.3,12.7-6.5,18.6-10.6C592.9,650.6,594.8,650,596.7,650z"/>
	<path class="st48" d="M547.2,674.3c-7.8,3.9-16.2,6.5-24.4,9.6c-9.2,3.4-18.6,6.4-28,9.2c-7.3,2.2-14.8,4-22.3,5.5
		c-2.7,0.5-2.9,1.5-2.5,3.7c0.3,2,1.2,3.9,0.8,6c-16.8-6.3-33-5.1-48.7,3.3c-4.5,2.4-8.3,5.6-11.4,9.5c-1.6,2-3.2,3.1-5.5,3.6
		c-0.8-2.5,1.1-4.9,0.5-7.4c-1-1.2-0.8-2.5-0.6-3.9c1-6.7,1.4-13.4,1.9-20.2c0.2-2.1,0.2-4.4,2.2-5.9c2.3-1.3,4.8-1.6,7.4-1.7
		c7.8-0.1,15.5-1.7,23.2-2.1c16.8-1,32.8-5.4,49-9.3c8.4-2,16.6-4.3,25-6.5c4.9-0.2,9.2-2.9,13.9-4c3.9-0.9,7.7-2.5,11.5-3.7
		c1.6-0.5,3.6-1,4.1,1.1C544.4,665.7,546.9,669.7,547.2,674.3z"/>
	<path class="st32" d="M516.3,437.1c2.5,3.1,2.9,7,4.6,10.4c0.8,1.5-0.8,2.6-2.2,3.3C518,446.3,517.1,441.7,516.3,437.1z"/>
	<path class="st2" d="M148.3,503.7c-0.2,1.9-1.3,2.5-2.8,2.5c-1.3,0-2.7-0.3-2.5-1.9c0.2-1.6,1.3-2.7,3-2.6
		C147.3,501.7,148.2,502.5,148.3,503.7z"/>
	<path class="st23" d="M143.4,444.4c1.4-0.5,2.7-0.7,2.9,1.2c0.1,0.8-0.5,2.2-1.4,2.1C142.6,447.6,143.7,445.6,143.4,444.4
		L143.4,444.4z"/>
	<path class="st23" d="M143.4,444.4c-1,0.3-2.1,1.5-3-0.1c-0.1-0.2,0-0.9,0.2-1C142.1,442.4,142.8,443.4,143.4,444.4L143.4,444.4z"
		/>
	<path class="st49" d="M414,659.7c-0.8,1.6-1.6,3.3-2.4,4.9c-10.9,1.3-21.8,3.1-32.8,3.8c-8.5,0.6-17.1,2.3-25.7,0.2
		c3-4.4,1.1-9.5,2.3-14.2c0.7-2.8,1.7-4.2,4.3-4.4c4.6-0.3,9.1-1.1,13.7-0.9c12.6,0.5,24.9-3,37.5-2.7c1.6,0,3.2,0.5,4.8,0.3
		C415.9,651.2,414.5,655.4,414,659.7z"/>
	<path class="st50" d="M409.2,687.4c-1.5,9.9-1,20.1-3.5,29.9c-4.3-0.8-8.6,0-12.8,0.2c-13.5,0.8-27,2-40.4,1.3
		c-14.2-0.7-28.5-1.4-42.6-4c-2.9-0.5-5.7-1.9-8.7-1.6c-0.9-7.8-1.8-15.6-2.6-23.4c0.3-1.6,1.4-1.6,2.7-1.5
		c10.7,1.2,21.4,2.1,32.2,2.2c5.9,0.1,11.8,1.3,17.7,0.8c1.8-0.2,2.5,0.7,2.8,2.5c0.3,2.3,0.9,4.5,0.7,6.8c-0.2,2.4,1.1,3.3,3.2,2.8
		c3.2-0.8,6.4-0.7,9.7-0.7c2.4,0,3.6-1,3.4-3.4c-0.2-2.5-0.6-5.1-0.7-7.6c-0.2-4.2,0-4.4,4.1-4.4c6.9,0,13.8,0.1,20.7,0
		c4.7-0.1,9.4-0.5,14.1-0.7C409.1,686.9,409.2,687.1,409.2,687.4z"/>
	<path class="st7" d="M205.2,374.6c3.6,1.4,6.2,4.1,8.8,6.8c1.9,2.1,0.2,4.1-0.4,6c-0.5,1.6-1.7,2.8,0.3,4.1c1.7,1.2,2.6,0.3,3.6-1
		c0.8-1,2-1.7,3.2-0.9c1.5,0.9,0.5,2.3-0.2,3.1c-1.8,2.2-1,3.5,1.1,4.8c1.9,1.2,3.6,2.8,4.8,4.8c-6.1-2.4-10.8-6.9-15.9-10.7
		c-1.7-1.3-1.1-2.8,0.1-4.2c2.8-3.1,2.1-5.6-1-8.1C207.9,377.9,206.6,376.1,205.2,374.6z"/>
	<path class="st7" d="M230.3,404.6c4.4-0.1,7.4,2.2,9.8,5.7C236.6,408.9,233.2,407.3,230.3,404.6z"/>
	<path class="st7" d="M198.7,368.1c2.8,0.5,3.2,3.3,4.9,4.9C201.1,372.2,199.4,370.5,198.7,368.1z"/>
	<path class="st7" d="M180.8,346.9c2.8,0.5,3.1,2.6,3.3,4.9C182.9,350.2,181.1,349.1,180.8,346.9z"/>
	<path class="st7" d="M194.6,364.8c0.3,0.3,0.5,0.5,0.8,0.8c-0.6,0.4-1.3,0.8-2,1.2C193.1,365.5,194,365.2,194.6,364.8z"/>
	<path class="st7" d="M186.5,355.1c1.5,0.1,2.3,0.9,2.4,2.4C187.8,356.9,187,356.1,186.5,355.1z"/>
	<path class="st40" d="M539.3,367.4c1.7,1.6,3.3,3.2,5,4.8c0.1-0.1,0.2-0.2,0.3-0.3c-1.7-1.6-3.4-3.2-5.1-4.8
		C539.5,367.3,539.4,367.4,539.3,367.4z"/>
</g>
</svg>
