<?xml version="1.0" encoding="utf-8"?>
<!-- Generator: Adobe Illustrator 27.4.0, SVG Export Plug-In . SVG Version: 6.00 Build 0)  -->
<svg version="1.1" id="Layer_1" xmlns="http://www.w3.org/2000/svg" xmlns:xlink="http://www.w3.org/1999/xlink" x="0px" y="0px"
	 viewBox="0 0 720 720" style="enable-background:new 0 0 720 720;" xml:space="preserve">
<style type="text/css">
	.st0{fill:#2C455B;}
	.st1{fill:#08211A;}
	.st2{fill:#FBDEBF;}
	.st3{fill:#A6CAC0;}
	.st4{fill:#3F7589;}
	.st5{fill:#6096A1;}
	.st6{fill:#829892;}
	.st7{fill:#FBECD3;}
	.st8{fill:#C0AE7D;}
	.st9{fill:#89AFA8;}
	.st10{fill:#C29849;}
	.st11{fill:#FBEDD6;}
	.st12{fill:#F0E9D2;}
	.st13{fill:#F0D18D;}
	.st14{fill:#F4E6CC;}
	.st15{fill:#E79E82;}
	.st16{fill:#EECFA1;}
	.st17{fill:#B2C1B0;}
	.st18{fill:#EED086;}
	.st19{fill:#DFE1CE;}
	.st20{fill:#F8DBBD;}
	.st21{fill:#FCF4E2;}
	.st22{fill:#DDA4A4;}
	.st23{fill:#F3C85B;}
	.st24{fill:#F3C6AF;}
	.st25{fill:#83ADA7;}
	.st26{fill:#D3DAC7;}
	.st27{fill:#DADAC5;}
	.st28{fill:#E4B2A4;}
	.st29{fill:#F5CFB1;}
	.st30{fill:#F5DBC2;}
	.st31{fill:#A0C8C0;}
	.st32{fill:#F1CD99;}
	.st33{fill:#41758B;}
	.st34{fill:#CFADA7;}
	.st35{fill:#7A8F8C;}
	.st36{fill:#FCF3E1;}
	.st37{fill:#FDF3E0;}
	.st38{fill:#E07F2E;}
	.st39{fill:#41170E;}
	.st40{fill:#F3E2C7;}
	.st41{fill:#DEA4A4;}
	.st42{fill:#3D150D;}
	.st43{fill:#DF7E2E;}
	.st44{fill:#C1D3C6;}
	.st45{fill:#E8665E;}
	.st46{fill:#D8D3C6;}
	.st47{fill:#E2D3C3;}
</style>
<rect x="0" y="0" class="st0" width="720" height="720"/>
<circle class="st1" cx="455.6" cy="273.6" r="257.3"/>
<g>
	<path class="st2" d="M241.7,123.9c-12-1.4-23.9-1.3-35.7,1.5c-3.5,0.8-5.9,3.4-6.9,7c-0.6,2.1-1.3,4-3.1,5.5
		c-5.7,4.7-8.4,3.7-10.1-3.3c-1-4.2,0.1-8.6-1.9-12.6c-1.3-1-2.6-1.6-4.1-0.6c-1.3,1.8-1,3.8-0.7,5.8c0.5,1.7,0.8,3.3,0.4,5.1
		c0.1,1.2-0.1,2.1-0.4,2.8c-0.3,5.1-1,10.2-1.3,15.3c-0.4,6-0.7,12.8,2.3,18.3c0.6,1.1,0.7,2.1,0.4,3.1c0.6,0.3,1.4,0.6,2.3,1.1
		c2.6,1.3,4.9,1.3,7.1-0.7c9.3-8.3,19.8-15.1,29.5-22.9c7.1-5.8,13.6-12.2,20.5-18.3C241.9,129.1,244.2,126.9,241.7,123.9z"/>
	<path class="st3" d="M67.3,674.9c-4.4-7.8-6-16.6-8.4-25.1c-5.7-20.1-8.9-40.7-10.5-61.6c-1.5-18.3-1.7-36.6-0.5-54.9
		c5.3-2.7,10.9-1.4,16.4-1.1c11.9,0.7,23.7,0.9,35.5-0.1c5.3-0.4,10.6-0.4,15.8,0.3c2.4,0.3,5.3,1,6.5-1.8c1.1-2.4-1.1-4.4-2.7-5.8
		c-4.3-3.9-8-8.6-13.1-11.7c-1.8-1.1-3.6-2.5-3.2-5.1c1.2-1.6,2.6-0.5,3.9-0.3c2.7,0.4,4.4-0.3,4.7-3.3c0.2-2.5,1.4-4.9,4.3-4
		c6.6,2,13.1,4.5,18.4,9.2c1.4,8.5,1.5,17.1,2.3,25.6c0.3,3.2,0.8,6.3,2.5,9c5.3,8.1,7.5,17.2,9.6,26.5c2.8,12.1,2.9,12.9,15.1,11.9
		c10.2-0.9,18.5,1,27,7.3c9.6,7.1,21,11.6,32.3,15.9c4.6,1.7,6.7,4.5,6.5,9.3c-0.1,1.3,0,2.6,0,3.9c0.3,7,2.1,9.2,7.8,9.5
		c7.5,0.4,10.7-2.1,11.6-8.9c0.6-4.8,1.5-5.6,6.5-4.7c8.3,1.6,16.6,3.3,25,4.4c5.3,0.7,10.5,1,15.8,1.5c4.3,0.4,5.3,1.3,5.5,5.5
		c0.2,4.7-0.1,9.5,0.2,14.2c0.3,4.4,1.1,5.2,5.6,5.2c6.9,0,13.7,0.5,20.6-0.6c2.3-0.4,4.6-0.2,6.8,0.2c8.3,1.7,16.5,2.8,24.8,0.1
		c2.3-0.6,4.6-0.7,6.8,0.2c4.2,3.1,4.1,7.8,2.6,11.7c-2.2,5.5-6.3,9.9-12.7,11c-2.5,0.4-5.1,0.9-7.7,0.7c-2.2-0.2-4.4-0.6-5.2-3.1
		c-0.6-2-0.4-4,1.3-5.6c1.8-1.7,3.9-1.6,6-0.7c0.3,0.1,0.5,0.3,0.8,0.4c1.1,0.3,2.5,2.1,3.2,0.3c0.6-1.6-0.2-3.4-2.4-3.8
		c-1-0.2-2-0.2-3-0.2c-7.3-0.1-7.3-0.1-7.2,6.9c0,3.4-1.1,6.5-1.8,9.7c-1.2,5.6-0.1,7.3,5.5,7.1c9.2-0.3,18.3,0.9,27.5,1
		c5.1,0,6.6,1.6,6.6,6.9c0.1,9.9,0.1,19.8,0,29.7c0,2.8,0,5,3.3,6.1c2.9,1,2.3,3.6,1.7,5.9c-2.3,7.9-4.2,15.8-6,23.8
		c-0.3,1.4-0.7,2.6-2.4,2.7c-12.7-1-25.3-0.2-38-0.5c-2.6-0.1-5.1,0.2-7.6-0.6c-1-0.4-1.7-1.1-2.2-2.1
		c-6.3-29.1-19.4-55.3-33.5-81.2c-2.1-3.9-3.4-7.9-3.3-12.3c0.1-3.4-1.4-5-4.7-5.4c-5.5-0.6-10.9-0.2-16.2,1.1c-4.1,1-4.7,2.7-3,6.5
		c2.1,4.5,1.4,6.4-3.2,8.4c-2.1,0.9-4.3,1.6-6.6,1.8c-15.4,0.8-30.9,1.8-46.3,2.7c-9.8,0.6-9.9,0.9-5.9,9.6
		c4.7,10,10.7,19.3,15,29.5c1.4,3.2,4,6.4,2.4,10.4c-2.5,0.1-3.5-1.7-4.4-3.5c-9.2-17.9-21.2-34-32.2-50.7
		c-4.3-6.6-8.2-13.4-11.5-20.6c-0.8-1.8-1.9-3.5-2.9-5.3c-1.9-3.2-4.3-4.1-8.1-4.1c-18.9,0.4-37.8,0.1-56.7,0.2
		c-7.6,0-7.9,0.6-7.2,8.2c1.4,17.4,0.5,34.9,0.5,52.4c0,0.6-0.2,1.1-0.4,1.7c-1.6,2.5-3.3,0.9-4.7-0.1c-4.5-3.3-8.9-6.8-12.7-10.8
		c-4.8-5.1-10.3-9.5-14.5-15.2C68.7,675.2,68.1,674.9,67.3,674.9z"/>
	<path class="st4" d="M67.3,674.9c0.9-3.8,2.2-0.2,2.5,0.1c4,5.2,9,9.5,13.6,14.1c5.1,5.1,10.3,10.2,16.7,13.7
		c1.7,0.1,2.9,1.2,4.1,2.1c12.9,9.4,26.5,17.5,40.9,24.5c1.4,0.7,2.9,2.1,4.4,1.1c1.5-1,0.7-2.9,0.6-4.4c-0.4-5,0.8-6.5,6-6.5
		c10-0.1,20.1-0.1,30.1,0c2.5,0,4.9,0.6,7,1.9c12.2,7.5,25.5,12.4,38.6,17.8c0.8,0.5,1.3,1.3,1.8,2.1c6.1,12.4,10,25.5,14.1,38.6
		c2.1,6.6,3.8,13.3,7,19.5c0.4,0.7,0.8,1.5,0.2,2.4c-1.3,1.2-2.8,1.7-4.7,1.8c-24.2,0.4-47.9-1.9-70.8-10.2
		c-16.9-6.2-32.7-14.4-46.8-25.7c-1-0.8-2.2-1.3-3.2-2c-6.1-6.2-12.8-11.8-18.6-18.3c-17.1-19.4-30.5-41-40.4-64.9
		C69.4,679.9,68.4,677.4,67.3,674.9z"/>
	<path class="st5" d="M57,463.6c3.8-14.5,7.6-29.1,13-43.2c0.6-1.6,1.3-3.1,1.9-4.7c2.3,0.2,1.9,2.1,2,3.4
		c2.1,28.2,11.6,54,25.6,78.3c1.8,3.1,4.8,5.8,4.1,10c0.1,2.3,1.9,3.6,3.5,4.6c6.3,4,11.4,9.3,15.9,15.2c0.9,1.2,2.9,2.2,1.4,3.9
		c-1.2,1.4-2.4,3.1-4.9,2.9c-4.4-0.2-8.8-1.2-13.3-0.8c-9.3,0.7-18.6,0.9-27.9,0.9c-10.2,0-20.3-1.5-30.5-1
		c0.6-10.9,1.6-21.7,2.7-32.5C51.9,488.3,54.7,476,57,463.6z"/>
	<path class="st6" d="M493.5,802.7c-12.6,0.4-25.1-0.7-37.6-1.7c-0.9-0.1-1.7-0.3-2.1-1.1c-0.4-3.9,2.1-7,2.9-10.6
		c4-17.7,10.6-34.5,17.6-51.1c8.3-16.8,16.4-33.7,24.4-50.6c6.5-13.7,15.2-25.9,25.2-37.1c2.7-3,5.2-6.1,7.7-9.2
		c1.6-1.9,3.2-3.7,6-3.7c7.4-0.2,14.8-1.5,22.2-1.6c9.5-0.1,9.9,0.4,10,9.7c0.1,8.6-0.4,17.1,0.3,25.6c0.2,0.5,0.6,1.2,0.4,1.6
		c-2.3,3.4,0.2,4.8,2.5,6.4c0.3,2-1,3.2-2.1,4.6c-7.1,9.2-15.7,17.1-24.9,24.1c-5.4,4.1-10.8,8.1-16.3,11.9c-2.8,1.9-4.1,4.2-4,7.5
		c0.2,3.9-0.1,7.7-0.7,11.6c-0.5,3.2,0.7,4.4,4.1,4.9c12.2,1.5,24.3-1,36.5-0.1c3.8,0.3,7.7-0.6,11.5,0.7c1.9,1.9,0.1,3.1-0.9,4.2
		c-2.8,3-5.6,6-8.9,8.6c-3.6,2.9-7.1,5.9-10.8,8.8c-18.7,13-38.2,24.3-60.2,30.7c-1.6,0.5-3.6,0.7-2.1,3.3
		C494.7,800.8,494.2,801.9,493.5,802.7z"/>
	<path class="st7" d="M475.4,738.2c-5.4,14.2-11.3,28.1-15.3,42.8c-1.8,6.4-2.5,13.1-6.3,18.8c-2.4,1.8-4.8,3.5-7.2,5.4
		c-2.6,2.1-5.1,2.5-7.5-0.3c-2.1-2.4-3.9-1.9-6.1,0c-4.9,4.3-5.9,4.3-10.3-0.2c-2.2-2.3-3.9-2.2-6.2-0.4c-1,0.8-2,1.6-3.1,2.3
		c-2.8,1.9-5.6,1.8-8.4-0.1c-0.6-0.4-1.1-0.8-1.7-1.3c-5.3-4-5.3-4-10.5-0.3c-4.6,3.2-6.2,3.2-10.6-0.2c-1.3-1-2.8-2-4.1-3
		c-3.1-1.8-4.6-4.7-4.8-8.1c-0.8-12.1,0.7-24.1,2.6-36.1c0.1-0.8,0.6-1.6,1.3-2.1c0.8-0.7,0.8-1.7,0.8-2.6c1.8-1.7,4.1-1.9,6.4-2.2
		c9.5-1.3,18.7-3.7,27.9-6.5c6.1-1.9,11.7-4.4,16.4-8.7c4.2-1,8.6-0.9,12.8-0.4c9.1,0.9,18.3,0.6,27.4,0.8
		C471.4,735.8,474.1,735.4,475.4,738.2z"/>
	<path class="st8" d="M556.2,764.8c3.5-2.8,7-5.7,10.6-8.5c1.5,0.2,2.7-0.8,4-1.3c3.3-1.1,6.5-1.1,9.5,0.7c9.4,5.6,19,3.8,28.3-0.1
		c5.9-2.5,11.1-6.5,16.3-10.2c5.2-3.7,6.7-3.5,11.8,0.3c3.6,2.7,6.4,6.1,9.9,8.9c0.8,0.6,1.4,1.5,1,2.6c-2.2,3-5.1,5.3-8,7.7
		c-6.3,3.3-11,8.8-17.4,12c-1.5,0.7-2.8,1.9-4.2,2.8c-9.4,4.2-18.3,9.2-27.9,13c-15,6-30.4,9.8-46.6,9.8c0.8-2.6-0.2-4.1-2.6-5.4
		c-3.4-2-3.4-4.7-0.4-7.2c2.3-2,5-3.5,8.1-3.7c3.2-0.3,6.1-1.3,9.2-2c4.7-1.1,7.7-4.1,9.6-8.4c2.2-5,0.8-7.5-4.6-8.5
		C560.4,766.7,557.7,767.3,556.2,764.8z"/>
	<path class="st9" d="M377.3,755.4c-0.7,7.2-1.1,14.4-2.1,21.6c-0.8,5.6-0.4,11.1-0.5,16.6c0,3.2,2.4,5.4,3.5,8.1
		c-10.9,0.4-21.9,0.7-32.8,1.1c-5.1-0.8-10.4,1-15.5-1c-1.1-1.6-0.4-3.1,0.3-4.4c3-5.6,2.7-11.5,2.2-17.6
		c-0.6-7.1-1.6-14.2-2.4-21.3c-0.2-1.7-0.6-3.4,0.9-4.8c14.2,0,28.5,0,42.7,0C375,753.7,376.9,753.2,377.3,755.4z"/>
	<path class="st10" d="M556.2,764.8c3.2,1.5,6.8,0.2,10,1.9c3.9,2.1,4.5,3.3,3.1,7.5c-2,6.1-5.8,9.8-12.4,11.5
		c-4.5,1.2-9.5,0.5-13.4,3.5c-0.8,0.6-1.8,1-2.5,1.6c-2.7,2.3-2.5,3.8,0.7,5.4c0.5,0.2,1.1,0.3,1.6,0.6c3.3,1.6,3.3,3.6,0.1,5.7
		c-16.6,0.8-33.2,1.6-49.9,0.2c0-2.3-0.2-4.5-3.3-5.2C514.6,790.8,535.9,778.8,556.2,764.8z"/>
	<path class="st11" d="M330.9,753.7c0.4,7.7,1.8,15.3,2.7,22.9c1.1,8.9,0.7,17.3-3.7,25.2c-0.3,0.1-0.5,0.2-0.7,0.4
		c-7.6,5.9-7.6,6-15.4,0.5c-1.8-1.3-2.9-1.2-4.4,0.2c-1.1,1.1-2.5,1.9-3.8,2.8c-5.7,3.9-6.9,4-12.6,0.1c-2.1-1.5-3.5-1.6-5.6,0.1
		c-4.6,3.9-4.8,3.9-9.4,0.3c-3-2.3-5.3-3.2-7.9,0.5c-2,2.8-4.8,2.7-7.5,0.7c-2.5-1.9-5.1-3.7-7.6-5.5c-4.5-6.5-6-14.1-8.3-21.4
		c13-5.3,25.3-11.9,36.6-20.2c3.4-2.5,4.9-4.9,3.4-8.9c-0.8-2.2-1.3-4.6,1.9-5.5c8.6,0.3,17,2.2,25.5,3.2c3.8,0.4,7.7,0.7,11.5,1.4
		c1.6,0.3,3.1,0.5,4.3,1.7C330.2,752.5,330.5,753.1,330.9,753.7z"/>
	<path class="st12" d="M591.9,332.8c2.9,5.8,5.8,11.6,8.8,17.3c7.9,17.5,15.2,35.3,20.7,53.8c1.1,3.8,1.9,7.7,2.9,11.5
		c2.7,27.6-6.8,52.1-19.4,75.8c-1.8,3.4-3.8,6.8-6,9.9c-2.3,3.3-3.6,6.8-3.4,10.8c0.2,3.7-1.3,6.1-5.3,6.4c-1.8,0.2-3.2,1.2-4.3,2.7
		c-15.5,20.9-35.9,36-57.4,49.9c-6.8,3.9-13.3,8.1-20.2,11.7c-10.3,4.7-20.5,9.2-31,13.4c-4.8,1.9-6,1-6.7-4.1
		c0.2-1.6-0.1-3.1-0.5-4.5c-0.3-5.7-0.8-11.4-1.4-17c-0.4-4.2-1.4-4.8-5.2-2.9c-10.9,5.5-22,10.3-33.7,13.4c-1.9,0.9-5.4-0.3-5,3.8
		c0.2,1.3,0.3,2.5,0.2,3.8c-0.1,1.6,0.1,3.1,0.7,4.6c0.4,2.3,0.4,4.7,0.3,7.1c-0.3,1.9-0.3,3.7,0.4,5.5c0.3,1.4,0.4,2.8,0.4,4.2
		c-0.2,1.9-0.1,3.7,0.6,5.5c0.3,1.2,0.4,2.5,0.2,3.8c0,6.7,1.4,13.3,1.1,20.1c-0.1,2.1,0.1,4.3-1.2,6.2c-2.8,2.1-6.2,2.1-9.4,2.2
		c-14.6,0.6-29.1-0.7-43.7-1.2c-1.8-0.1-3.4-0.5-4.6-2c-1.3-2.2-1.1-4.7-1.1-7.1c0-14.3-0.1-28.7,0-43c0-10.3-1.6-20.6-0.8-30.9
		c0.2-2.7,1.5-5.5-1.3-7.7c0.6-2.4,2.6-2,4.2-2.1c15.2-0.3,30-2.8,44.3-7.7c13.2-4.6,26.3-9.7,39.1-15.6c3-1.4,4.6-3.2,2.8-6.7
		c-1.6-3.2-0.5-5.7,2.6-7.6c5.6-3.4,11.3-6.2,17.7-7.4c2.2-0.4,3.9-0.3,5.1,1.9c1.5,2.7,3.5,3,6.5,1.8c11.3-4.5,20.1-12.5,29.6-19.6
		c1.8-1.4,3.2-3,1.1-5.3c-1.8-1.9-1.3-3.9,0-5.9c1.4-2.2,3.2-4,5.1-5.8c17.6-16.4,32.3-35.1,45.3-55.3c1.6-2.4,2.7-5.1,4-7.6
		c1.4-2.7,2.1-5.2,0.2-8c-1.5-2.3-0.4-4.7,0.5-7c4.5-11.2,8.4-22.6,8.9-34.8c0.4-9.4,1.3-18.8,2.2-28.2c0.1-0.9,0.1-1.7,0.3-2.6
		c0.3-1.2,0.7-2.2,2-2.5c1.2-0.2,1.8,0.6,2.3,1.5C590.8,331.8,591.1,332.5,591.9,332.8z"/>
	<path class="st13" d="M425.5,609.9c0-1.4-0.1-2.9-0.1-4.3c-0.4-1.7,0.5-3.6-0.8-5.2c0-2.6-0.1-5.2-0.1-7.8
		c-0.5-1.4,0.6-3.1-0.7-4.3c0-1.4-0.1-2.9-0.1-4.3c1.7-1.5,4-2.2,5.2-4.2c12.1-3.5,23.6-8.2,34.7-14c5-2.6,6.2-2,6.5,3.8
		c0.3,6,1.5,11.9,1,17.9c1,1.3-0.1,3,0.8,4.3c0.3,4.8,0.5,5,4.9,3.1c10.4-4.4,20.8-8.9,31.2-13.4c7.6-2,13.9-6.3,19.8-11.2
		c5.5-4.8,12-8.1,17.8-12.6c14.7-11.2,28.9-22.8,39.6-38.2c1.3-1.9,3.1-2.9,5.5-2.6c2,0.2,3.7-0.7,3.3-2.9c-1.3-7.3,3-12.5,6.4-18.1
		c10.6-17.5,18.6-36,21.9-56.3c1-6.3,1.5-12.8,1.1-19.2c-0.1-1.7-0.1-3.4,0.8-5c3.1,6.6,4.2,13.8,5.9,20.8c4.1,17,7.2,34.2,8.8,51.6
		c0.3,2.8,0.8,5.6,0.8,8.5c1.3,3.1-1.4,5-2.1,7.5c-3,11-7.9,21.2-12.5,31.5c-1.6,3.6-3.7,6.5-8.4,5.7c-1.9-0.3-2.7,1.3-3.6,2.6
		c-2.6,4-5.1,8-8.2,11.6c-1.4,1.6-2.6,4-5,3.3c-2.4-0.6-2.5-3.3-3-5.3c-1.1-5.3-2.5-10.6-4.2-15.8c-0.3-1-0.4-2.5-1.8-2.6
		c-1.1-0.1-1.5,1.2-1.9,2.1c-6.4,12.4-14.2,23.9-23.6,34.2c-1.6,1.7-1.9,3.8-1.9,6c0,4.3-0.5,8.7,0.1,12.9
		c1.5,9.7-3.8,15.6-10.7,20.8c-9.5,5.6-18.2,12.4-27.7,18c-8.9,5.3-17.7,10.6-28.4,11.5c-4.3,0.4-6.7,2.7-7.1,7.1
		c-0.2,2-0.7,3.9-1.1,5.9c-0.4,2.3-1.7,3.9-3.9,4.8c-3.2,1.2-6.5,3.3-9.8,0.8c-3.6-2.7-3.9-7.1-3.3-11c0.8-5.2,0.6-10.3,0.5-15.4
		c-0.1-6.5-1.3-7.5-7.4-5.2c-9.4,3.5-19,6.3-29,7.7c-5.9,0.8-7.1-0.1-8-5.9c-0.5-3.5,0.3-7.2-1.5-10.5c0-1.1-0.1-2.3-0.1-3.4
		C426.2,613.3,426.6,611.5,425.5,609.9z"/>
	<path class="st14" d="M643.1,548c32.9,19.9,48.6,50.1,52.6,87.4c1.1,9.9,0.5,19.7-0.4,29.5c-4.8,1.8-8.9-0.9-13-2.4
		c-8.4-3-8.3-3.1-10.5,5.6c-1.2,5-2.7,9.9-5.3,14.4c-4.1,7.3-8.1,14.6-12.3,21.8c-2.2,3.1-3.9,6.6-6.3,9.7c-3.3,4.2-4.8,4.5-9.3,1.8
		c-6.8-4.1-13.3-8.8-19.8-13.4c-2.1-1.5-5.1-1.9-6.5-4.6c0.6-4.7,3.4-8.6,5.2-12.9c1.4-3.4,3-6.7,4.1-10.2
		c8.1-23.7,14-47.9,16.5-72.8c0.4-3.9,0.9-7.7,1.3-11.5c0.6-1.9,0.9-3.8,0.5-5.7c-0.2-3.6,0.1-7.1,0.4-10.7
		c0.9-3.9,0.3-7.9,0.4-11.9c0-3.9,0.5-7.7,0.8-11.5C641.6,549.4,641.4,548,643.1,548z"/>
	<path class="st15" d="M643.1,548c-0.9,7.1-0.7,14.3-0.9,21.5c0,1.5,0.3,3.2-0.7,4.5c-1.9,4.3-3.5,8.6-3,13.4
		c0.3,2.2,0.3,4.3-0.4,6.3c-1.1,3.3-3.2,5.4-6.8,5.4c-2.8-0.1-5.4,0.5-7.7,2.1c-3.2,0.7-6.1-0.5-8.6-1.9
		c-11.6-6.3-20.4-1.6-28.8,6.4c-5.1,4.8-9,10.7-15.3,14.2c-10,5.6-9.9,5.8-20.2-3.1c-1.1-2.8,0.2-5,2.1-6.9c0.5-0.5,0.9-1.1,1.4-1.6
		c5.7-4.8,9.5-10.2,8.2-18.4c-1.8-11.1,1-20.6,9.5-28.9c7.3-7.2,11.9-16.7,16.6-25.9c0.7-1.3,1.2-3.4,3.1-3.1c1.6,0.2,1.6,2.2,2,3.5
		c2,6.1,3.6,12.3,4.9,18.6c0.3,1.3,0.2,3.2,1.8,3.5c1.3,0.2,2.1-1.3,2.9-2.3c3.5-4.5,7-9.1,9.7-14.1c1-1.9,2.1-2.9,4.4-1.7
		c2.7,1.4,4.3-0.2,5.4-2.5c5.2-10.8,10.5-21.7,13.5-33.4c0.7-2.9,3.3-4.6,3.6-7.5c1.6,7.1,1.7,14.3,1.8,21.5
		c0.9,1.7-0.2,3.6,0.7,5.2c0,6.6,0.1,13.3,0.1,19.9C642.3,544.7,642.3,546.4,643.1,548z"/>
	<path class="st16" d="M613,697.8c6.7,2.6,11.9,7.7,17.9,11.4c3.5,2.2,6.9,4.5,10.4,6.8c1.7,1.1,3.2,0.9,4.4-0.9
		c2.5-3.8,5.1-7.5,7.7-11.3c6.3,3.4,13.1,5,20.1,5.9c2.8,0.4,5.8,0.8,7.5,3.5c-8.3,16.8-18.9,31.9-33.4,44c-4.3-3.9-8.6-7.8-13-11.5
		c-2.4-2.1-4.8-2.3-7.6-0.2c-6,4.6-12.2,9-19.1,12c-7.2,3.1-14.8,3.6-22.4,2.2c-0.4-0.1-0.9-0.1-1.2-0.3c-4.9-3.7-10.1-5.1-15.9-2.3
		c-0.3,0.1-1-0.4-1.4-0.7c3.7-3.7,7.4-7.5,11.1-11.2c-0.1-1.4,0.9-2.4,1.8-3.3c11.5-11.8,20.6-25.4,29-39.6
		C609.7,700.5,610.1,697.8,613,697.8z"/>
	<path class="st17" d="M681,713.1c-7.6-3.3-16.2-2.4-23.7-6c-1.7-0.8-3.6-1.2-3.9-3.4c4.1-7.2,8.2-14.4,12.3-21.6
		c1.4-0.6,2.8-0.3,4.1,0.1c5.6,1.6,11,3.4,16.8,4.4c1.4,0.2,3.3,0.2,3.2,2.5C687.6,697.5,684.7,705.5,681,713.1z"/>
	<path class="st18" d="M689.8,689.2c-5.8-1.5-11.6-3-17.4-4.6c-2.3-0.6-4.5-1.6-6.8-2.4c3.4-6.8,5.3-14.2,6.7-21.6
		c0.6-3.1,1.6-3.7,4.2-2.2c5.9,3.3,12.3,5.3,18.9,6.5C694.2,673.2,692.7,681.4,689.8,689.2z"/>
	<path class="st19" d="M358.2,131.4c-0.3-3.9-0.3-7.7-0.2-11.6c0.1-4-0.9-6.8-5.3-8c-3.7-1-3.9-3.4-0.6-5.7c1.9-1.4,3.8-2.6,4.5-5
		c1.4-4.4,1.8-9,0.9-13.6c-0.3-1.7-0.8-3.4-2.6-4.2c-20.2-0.5-40.4,0.9-60.5,2.2c-7.8,0.5-15.5,1.4-22.9-3.1
		c-16-9.5-31.6-19.6-46.2-31.2c-5.6-4.4-11.3-8.8-17.2-12.8c-6.4-4.4-10-3.3-14.3,3c-2.1,3-3.6,6.3-4.6,9.6
		c-6.7,22.8-10.2,46.1-8.7,70c1,0.6,2,0.9,3.1,0.8c1.6-1.2,1.3-3.1,1.3-4.7c0.1-2.4-0.3-5,0.6-7.3c3.1-7.7,1.6-16.1,3.6-24.1
		c0.8-3.5,1-6,5.2-5.9c0.9,0,2.3-0.2,2.2-1.6c-0.1-1.2-1.4-1.4-2.3-1.5c-3.4-0.2-3.5-2.1-2.9-4.8c1.6-7.9,3.5-15.7,6.9-23
		c2.3-5,3-5.2,7.4-1.7c4.4,3.5,7.9,7.9,11.6,12.1c13.4,15.1,24.9,31.5,35.4,48.6c1.7,2.8,1.4,4.9-0.8,7.2c-3.1,3.2-6.5,6-9.5,9.3
		c-0.3,1.7-0.9,3.5-2.2,4.5c-7.3,5.9-13.6,13-21.2,18.6c-9,6.7-18.2,13.3-26.7,20.6c-3.9,3.4-6.7,5.3-11.2,1.5
		c-0.1-0.1-0.1-0.1-0.2-0.2c0.5,3.4-3.5,6.1-6.4,4.5c-5.4,12-11.2,23.8-15.6,36.2c-3.9,11-7.4,22.2-10.3,33.5
		c0.7,2.3,0.3,4.8,1.2,7.2c5.2,13.2,9.3,26.8,16.7,39c4.6,7.7,9,15.7,15,22.4c1.9,2.1,3.9,5.3,6.8,4.5c6-1.5,8.5,2.4,11.5,6
		c1.9,2.3,3.9,4.3,7.3,3.3c16.6-8.7,33.1-17.6,50.1-25.4c2.8-1.3,5.9-2.3,7.3-5.6c-1.3-4.8-3.7-9.3-5.6-13.8c-2-1.5-4.3-0.7-6.1-0.5
		c1.4-0.4,3.4-0.2,4.6-2c0.6-3.3,0.7-6.7,1.5-10c0.4-1.5,0.4-3.1-1.2-4.2c-0.9-0.3-1.9-0.5-2.8-0.6c3.6,0.3,7.3,0.9,11.1,0.7
		c3.1-0.1,5.5-0.8,7.5-3.3c2.3-3,5.4-5.1,8.6-7c8-4.7,16.5-8.5,24.8-12.8c5.3-2.7,9.7-6.2,11.9-11.8c1.1-2.8,2.2-5.7,0.1-8.6
		c-1.4-0.3-1.3-1.6-1.9-2.5c-1.3-1.9-2.7-3.7-5.4-3.2c-1.6,0.5-2.8,1.5-3.7,2.7c-4.8,6.1-11.4,8.9-18.8,10c-13,1.9-23.9-4.7-27.4-16
		c-1.5-5,0-9.6,0.6-14.3c-0.7-1.2-2-1.6-3.1-2.2c-0.6-0.4-1.4-0.8-0.8-1.6c1.3-1.7,1.5-4.1,4.4-4.7c13.1-2.6,25.7-2.3,37,5.9
		c1.3,1,2.5,2.5,4.5,1.9c0.6-0.5,1.1-1.1,0.9-1.8c-1.6-4.3,1.3-5.8,4.4-7.4c4.6-2.4,9.3-4.2,14.4-5.3c7.9-1.6,9.4-4.5,6.9-12.2
		c-2.3-6.7-1.5-8.1,5.1-10.4c1.4-0.5,4.2-0.2,3.1-3.3c-4.6-3-4-7.9-4.2-12.4c-0.3-4.4,0.7-5.2,5.2-5.4c4.4-0.2,8.9-0.6,13.2-1.6
		C357.3,137.3,358.5,135.4,358.2,131.4z M247,264.4c2.2-0.3,4.5-0.2,6.8,0C251.4,264.3,249,264.6,247,264.4z"/>
	<path class="st20" d="M366.9,555.7c5.4,0.1,2.4,3.8,2.6,6.1c-18.5,0.1-36.6-3.9-54.9-6.1c-17.7-2.1-34.9-6.8-52-11.7
		c-5.1-1.4-5.8-1-6.1,4.2c-0.3,4-0.2,8-0.9,12c-0.8,5-1.8,5.7-6.5,3.9c-18-6.9-34.9-16-50.8-26.9c-16.4-11.2-29.6-25.7-43.1-40
		c-1.2-1.3-2.2-2.6-3.6-3.7c-0.8-0.6-1.6-1-2.7-0.5c-5.9,2.8-6.2,2.6-10.1-3.4c-2.4-4.9-5.6-9.3-8.6-13.9
		c-16.5-25-26.6-52.2-29.7-82.1c-1.2-11.3-1.8-22.6-1.7-33.9c0-1.3-0.1-2.6,0.6-3.8c1.1-4.3,2.3-8.6,3.4-12.9
		c2.5-1.8,3.1-4.7,4.3-7.3c1.7-3.8,3.3-7.8,6.4-11.8c0.8,3.9,1.3,7.1,5.9,5.5c1.5-0.5,2,1,2.4,2.4c0.8,3.2,1.7,6.3,2.5,9.4
		c2.3,3.2,2,6.9,2.3,10.5c2.4,13.2,6.3,26,11.2,38.5c0.6,2,1.2,3.9,2.5,5.5c0.2,0.3,0.4,0.7,0.6,1.1c0.8,2.7,2.5,5.1,3.4,7.8
		c1.1,3.2,2.1,6.4,2,10c0,3.2,0.9,6.5,3,9.2c1.7,2.2,3.1,4.5,2.5,7.5c-0.3,1.4,0.4,2.1,1.7,2.5c2.7,0.7,5.2,2.3,8.2,2
		c3.1-0.2,5.4,2,7.3,4c3.7,3.9,8.3,6,13.3,7.4c11.6,8.4,23.2,16.8,35.6,23.9c2,1.2,4.3,3.7,6.4,2.4c2.1-1.3,0.7-4.5,0.9-6.9
		c0.1-1.6-0.2-3.1-0.3-4.7c-0.5-5.5,1.6-7.7,7-6.3c14.2,3.7,28.6,5.6,43.2,7c5.3,0.5,6.9,2.2,6.3,7.6c-0.7,7.3-0.4,14.6-1.3,21.8
		c-0.7,5.4-0.1,10.9-0.2,16.3c-0.1,4.2,1.6,6,5.9,5.9c17-0.2,34,1.4,51.1,0.8c1.7-0.1,3.4,0.1,5.2,0c4.2-0.1,6,2,5.9,6.1
		c-0.1,1.6,0.1,3.1,0,4.7c-0.3,2-0.2,3.9-0.1,5.9c0.2,1.2,0,2.5-0.2,3.7c-1,3.8-1,7.5,0,11.3c0.8,5.9,0.8,5.7,6.7,6.2
		C358.4,553.9,362.9,553.2,366.9,555.7z"/>
	<path class="st21" d="M125.1,352.6c-0.3-3.7-0.6-7.5-0.9-11.2c-0.1-6.4,0.5-12.6-2.9-18.7c-2.1-3.8-0.2-8.6,0.7-13
		c2-9.9,6.2-18.9,10.2-28.1c4.1-9.3,8.2-18.5,12.5-27.7c1.5-3.2,2.8-6.4,3.6-9.8c0.5,0.5,1.3,0.9,1.4,1.5
		c3.9,15.2,9.6,29.8,17.4,43.5c4.9,8.6,9.8,17.3,16.8,24.6c2.2,2.3,4.4,3.7,7.5,1.8c1.5-0.9,2.7-0.5,3.8,0.7
		c1.7,1.9,3.7,3.5,5.2,5.7c1.5,2.3,3.3,4.4,6.6,3.9c0.8,0.4,1.1,1.2,1.3,2c8,9.3,17,17.3,28.8,21.6c2.3,0.8,3.8,0.2,5.2-1.5
		c10.2-12.1,20.9-23.8,31.5-35.7c1.9-2.1,3.6-4.5,6.3-5.7c0.4,0,0.8,0.1,1.2,0.3c0.7,1.3,0.2,2.5-0.4,3.7c-7,10-16.1,18.3-24,27.7
		c-2.8,3.4-5.8,6.6-8.4,10.2c-3.4,4.2-3.4,4.4,1.5,6.5c3.5,1.6,7.1,3,10.6,4.6c2.9,1.4,5.7,2.8,5.6,6.7c-0.1,1.9,1.6,2.2,3,2.6
		c13.7,4.1,27.5,8,41.7,10.1c4.9,0.7,9.7,0.5,14.8-1.1c5.5-1.8,11.7-1.3,17.4-0.7c11.5,1.3,22.9-0.2,34.3-0.8
		c4.1-0.2,8.3-0.3,12.4-1c2.1-0.3,4.2,0.1,5.1,2.2c1.3,3,3.5,2.9,6,2.4c7.5-1.4,14.9-3,22.3-4.7c1.7-0.4,3.3-0.8,5.1-0.7
		c2.5,0.7,4.8-0.4,7.1-1.2c1.7-0.5,3.3-0.9,5.1-0.8c3.7,0.3,5,2.6,3.2,5.9c-1,1.9-2.7,2.9-4.4,4c-4,2.6-6.9,5.7-7.6,10.8
		c-0.8,5.6-2.9,6.8-8.7,6.5c-1.6-0.1-3.1,0.2-4.7,0.2c-1.6,0.1-3.1-0.4-4.9-0.4c2.7,4.7,0.3,8.8-1.4,12.8c-0.9,2.2-3.5,3.2-5.9,2.6
		c-3.1-0.7-5.7-2.8-6.1-6c-0.4-3.1-1.6-3.6-4.4-3.6c-8.2,0.1-16.2-1.7-24.4-1.6c-2.9,0-4.1-1.7-4.7-4.2c-0.7-3.1-1.9-2.5-3.6-0.7
		c-3.9,4.2-5.1,4.2-9,0.4c-1.1-1.1-2.2-1.8-3.8-1.7c-11.3,0.7-22.8-1.2-34.1,1c-1,0.2-2.1,0-2.9-0.5c-3.2-1.7-5-1.1-6.5,2.6
		c-1.7,4.1-11.8,5.3-15.7,2.3c-1-0.8-1.8-1.8-2.8-2.6c-4-3.2-7.1-2.8-10,1.1c-0.3,0.5-0.6,1.1-1.1,1.3c-4.7,2.3-8.5,5.4-11.8,9.5
		c-1.7,2-4.6,1.2-7,0.6c-4.5-1.3-7.5,0.3-10.4,3.8c-4.2,5.2-6.9,11.2-10.9,16.5c-3.7,5-9.9,4.7-13-1c-1.6-2.9-1.5-6.1-1.9-9.2
		c-1.1-7.3-5.5-12.4-11.1-16.4c-2.5-1.8-3.2-3.5-2.4-6c1.5-4.6,2.3-9.5,4.3-14c1.1-2.4,0.8-4.4-1.5-6c-2.3-1.6-3.3,0.5-4.7,1.6
		c-4.9,3.9-8.5,8.9-12.4,13.6c-3.7,4.6-5.7,4.9-10.5,1.2c-10.3-8-19.2-17.2-25.5-28.7c-1.4-2.5-2.7-4.6-6.1-4.5
		c-2.2,0.1-3.4-4.4-6.4-1.4c-0.6,0.6-1.7,1-0.7,2c3.9,3.8,0.1,6-2,8.1c-1.9,2-4.5,3.3-5.9,6.1c-1.2,2.2-3.2,1.4-3.8-0.5
		c-1.7-5.1-3.8-10.2-4.5-15.6c-0.5-3.5,1.6-4.8,5.2-3.9c1.3,0.3,2.6,1.2,4.2,0.8c-2.4-2.9-4.6-5.4-9-4.2
		C127.4,356.3,126.5,353.8,125.1,352.6z"/>
	<path class="st22" d="M183.5,122c0.3-5.9-0.7-12,2.5-17.6c0.6-1.1,0.5-2.9,0.1-4.2c-1.4-4.3,1.4-8,1.3-12.1c0-0.5,0.7-1,0.7-1.5
		c0-2.4-1.2-5,0.8-7c1.8-1.7,4.4-0.1,6.6-1c-0.2-0.2-0.4-0.4-0.6-0.4c-6.4-0.3-6.3-0.3-5-6.7c1.7-8.4,4.1-16.6,7.6-24.5
		c2-4.5,3.1-4.9,7.1-1.8c9.4,7,16,16.6,23.4,25.4c10,11.8,17.9,25,26.3,38c1.6,2.5,1.7,4.5-0.5,6.4c-3.9,3.2-6.1,8.4-11.6,9.7
		c-11.5-0.2-23.1-0.8-34.5,1.5c-4.3,0.9-6.8,3.1-7.6,7.5c-0.7,4-7.1,9-11.2,8.8c-2.2-0.1-3-1.6-3.5-3.6
		C184.1,133.4,183.3,127.7,183.5,122z"/>
	<path class="st23" d="M180.9,131.5c-1.2-1.3-0.6-2.9-0.7-4.3C181.4,128.4,181,130,180.9,131.5z"/>
	<path class="st24" d="M139.8,489.4c0.8,1,1.6,2,2.5,2.9c1.9,2.2,3.6,3.3,5.3-0.4c1.4-2.9,3.3-1.5,4.7,0.1
		c6.1,7,12.9,13.4,19.3,20.2c16.5,17.8,36.4,30.8,57.8,41.6c6.7,3.4,13.9,6.1,20.8,9.1c2.5,1.1,4.1,1.4,4.2-2.5
		c0.1-5.4,1.1-10.8,1.4-16.2c0.2-3.8,2-3.5,4.8-2.7c11.3,3.1,22.4,6.8,33.9,9c14.4,2.8,29,4.6,43.5,6.6c7.3,1,14.6,2.9,22,2.5
		c1.3-0.1,2.7,0.2,3.8-0.3c2.7-1.2,4.4-0.1,5.8,2c1.2,27.5,0.8,55.1,0.9,82.6c-0.1,2.7-1.6,2.7-3.5,1.7c-2.3,0-4.5,0-6.8,0
		c-8.3,1.6-16.7,0.9-25,0c-9.4,0.3-18.8,1.2-28.3,0.9c-5.3-0.2-5.8-0.3-6-5.8c-0.2-5.2-0.2-10.3-0.1-15.5c0.1-2.8-0.8-3.7-3.6-3.8
		c-13.1-0.5-26.1-2.5-38.9-5.3c-0.4-0.1-0.8-0.3-1.2-0.4c-5.9-1.2-5.8-1.2-6.3,4.8c-0.3,3.7-2.2,6.5-5.6,7.9
		c-3.6,1.5-7.4,1.2-11,0.5c-2.6-0.5-4.7-2.1-4.9-5.2c-0.1-1.4-0.9-2.9-0.7-4.2c1.6-8.5-2.2-12.2-10.1-15c-11.7-4.1-23.1-9.6-33-17.1
		c-4.9-3.7-9.2-5.1-15.2-3.9c-5,0.9-10.3,0.2-15.4,0.2c-2.2,0-3.3-0.8-4-3c-2-5.8-3.6-11.7-4.9-17.7c-1.1-4.9-2.1-9.8-5.2-13.9
		c-4.7-6.3-5.5-13.7-5.8-21.1c-0.2-6.4-1.5-12.8-1-19.2c0.7-6.3,2.3-12.5,4.2-18.5C138.1,489.9,138.7,489.2,139.8,489.4z"/>
	<path class="st25" d="M231.6,740c-6-1-11.3-3.9-16.8-6.2c-7.5-3.1-14.9-6.5-21.8-10.9c-2-1.3-4.1-1.9-6.5-1.9
		c-10.5,0-20.9,0.1-31.4,0c-3.4,0-4.7,1.1-3.8,4.6c0.6,2.3,1.5,5.3-0.5,6.8c-2,1.5-4.2-0.9-6.2-1.8c-14.7-7.1-28.7-15.4-41.8-25.1
		c-1.1-0.8-2.1-1.5-2.7-2.7c0-15.9,0-31.8-0.1-47.7c0-4-0.4-8-0.8-11.9c-0.4-3.8,1.2-4.9,4.9-4.9c19.3,0.1,38.7,0.1,58,0.1
		c0.7,0,1.5,0.2,2.1,0c7.1-2.5,9.7,3.1,11.5,7.5c5.6,13,13.8,24.4,21.5,36c8.4,12.6,17.2,25,23.8,38.6c0.6,1.3,1.5,2.4,2.8,3.1
		c1.6,0.4,2.2,1.7,2.7,3c1.3,3.1,2.9,6.1,4.3,9.2C231.7,737.1,232.9,738.4,231.6,740z"/>
	<path class="st26" d="M231.6,740c-2.5-5.5-5-11-7.5-16.5c-2.5-7.6-5.9-14.8-9.8-21.8c-4.4-7.7-8.4-15.7-11.7-23.9
		c-1.2-2.9-0.8-3.9,2.6-4.3c13.6-1.5,27.4-1.4,41-2.7c6.4-0.6,13.2,0.7,19.4-2.4c3.1-1.6,4.2-3,2-6.2c-3.2-4.8-2.5-7.3,3.1-8.6
		c6.5-1.5,13.2-2.3,19.9-0.7c2.2,0.5,3.4,1.4,3.2,3.7c-0.8,7.2,2.5,12.8,5.8,18.8c6.9,12.4,12.8,25.3,18.3,38.4
		c4.6,11,9,22,11.5,33.6c0.3,1.6,0.5,3.1,0.5,4.7c-12.7-0.9-25.3-2.8-37.9-4.8c-1.4-0.2-2.8-0.3-4.2-0.4c-3.1,0.4-5.9-0.4-8.8-1.4
		c-9.6-3.3-19.5-5.7-28.9-9.8c-2.9-1.3-4-0.7-4.1,2.7c-0.2,8.4-0.9,8.8-8.6,5.6c-1.6-0.7-3.2-1.3-4.7-2.2
		C232.3,741.1,232,740.5,231.6,740z"/>
	<path class="st27" d="M366.9,646.1c1.5,0,2.8-0.2,3.5-1.7c3.2,1.6,6.7,0.4,10,0.7c13,1,26.1,1.4,39.2,1c2.5-0.1,5.1-0.5,7.6-0.8
		c1.9,1.8,1.6,4.2,1.5,6.5c-0.2,12.3,0.3,24.6,0.3,36.9c0,13.7,0.6,27.5,0.6,41.2c0,2.3,0.3,4.6-1.5,6.5c-1,3.2-3.6,4.7-6.4,5.8
		c-14,5.5-28.5,9.1-43.5,10.6c1.2-8.5,3.7-16.7,6.1-24.9c0.6-2.2,0.9-3.6-2.1-3.6c-2.8,0-3.4-1.6-3.4-4.2c0.2-11.3,0.1-22.6,0.2-34
		c0-2.7-0.9-4-3.7-3.9c-10.2,0.3-20.3-1.4-30.4-0.9c-5.4,0.2-7-2.1-5.9-7.7c0.7-3.3,2.5-6.4,2.2-10c-0.1-1.7,0-3.4-0.6-5.1
		c-0.8-2.5,0.4-3.8,3-3.8c2,0,4,0.2,6-0.1c4.6-0.7,7.4,0.7,7.7,5.7c0,0.8,0.9,1.6,0,2.4c-0.8,0.8-1.9,0.7-2.8,0.3
		c-1-0.5-2.1-1-2.9-1.8c-1.7-1.5-3.5-1.9-5.5-0.7c-2.2,1.3-1.2,3.5-1,5c0.2,1.8,2.6,1.9,4.2,2c7.8,0.3,14.3-2.6,18.4-9.2
		C370,654.6,369.2,650.1,366.9,646.1z"/>
	<path class="st28" d="M139.8,489.4c-1.9,3.6-2.3,7.6-3,11.4c-0.5,3-1.6,5.7-3,8.4c-5-2.3-10-4.8-15-7c-4.5-2-5.5-1.5-5.6,3.3
		c-0.1,4-2.6,3.6-5.3,3.7c-1.8,0.1-2.9-1-4.2-1.8C93,490,84,471.8,78.5,452c-3.1-11.1-5.7-22.3-5.9-33.9c0-0.8,0.1-1.7-0.6-2.4
		c2.2-8.1,5.8-15.8,9-23.5c4.5-11.1,9.5-22,15-32.7c0.8-1.5,1.3-3.3,3.4-3.4c1.1,2,0.9,4.2,0.8,6.3c-0.7,19.7,2.3,39,6.3,58.1
		c2.1,10.1,6.6,19.4,10.6,28.9c5.2,12.1,12.3,23.1,19.7,34C138.1,485.2,139.3,487.2,139.8,489.4z"/>
	<path class="st27" d="M335,646.1c8.3,0,16.7,0,25,0c-0.8,0.5-1.7,1.4-2.5,1.4C350,647.8,342.4,648.7,335,646.1z"/>
	<path class="st29" d="M232.7,741.6c3.2-1.3,5.3,1.3,7.8,2.2c3.8,1.4,4.2,1.3,4.2-2.7c0-2.1,0-4.3,0-6.4c0-2,0.6-2.5,2.6-1.7
		c4.1,1.7,8.2,3.4,12.4,4.8c9.3,3.1,18.7,6,28.1,8.9c-1.7,1.5-0.2,3,0.2,4.3c1.8,6.1,1.7,5.9-3.2,9.5c-10.3,7.8-21.6,13.9-33.3,19.2
		c-1.5,0.7-3.1,1.7-4.8,0.6C242.6,767.2,237.8,754.4,232.7,741.6z"/>
	<path class="st30" d="M339.4,158.1c-3,0.3-4.6-0.3-4.8-4c-0.2-3.3-1.2-6.7-1.3-10.1c-0.1-4,1.4-5.8,5.6-5.6
		c4.9,0.2,9.6-0.7,14.4-1.5c3.1-0.5,4.3-1.7,3.7-5.3c-0.7-4-0.5-8.3-0.3-12.4c0.2-3.7-0.8-5.7-4.8-5.8c-1.7,0-3.5-0.8-3.7-2.9
		c-0.3-2.1,0.2-4.6,2.2-5.1c5.9-1.4,5.6-6.3,6.2-10.5c0.6-3.8,0-7.7-1.6-11.3c17.6-0.3,35.2,0.4,52.7,1.4c7.1,0.4,14.2,2,21.4,0.7
		c10.2-1.9,18.9-7.2,27.9-11.8c14.8-7.5,28-17.8,42.1-26.5c3.6-2.3,7.3-4.7,11.1-6.4c5.2-2.3,7.9-1,10.1,4.2
		c2.6,5.9,3.7,12.3,4.9,18.6c3.5,18.2,4.3,36.6,3.3,55.1c-0.6,10.8-1,21.7-3.1,32.4c-0.7,3.5-0.5,7.1,0.6,10.6
		c-6.5,4.7-13.1,9.2-20.2,13c-11.8,6.3-23.2,13.6-36.5,17c-6,1.6-11.9,1.2-17.8,0.1c-17.1-5.4-32.9-4.3-46.1,9.4
		c-0.9,0.9-1.7,2-3.2,2c-2.3-2.7-0.5-4.8,1-6.8c3.6-5,3.4-7.3-1.6-11c-14.3-10.9-30.1-18.3-48.2-20.2c-1.9-0.2-3.7-0.3-5.5,0.5
		c-3.2,1.4-5.1,0.3-6.4-2.8C341,161.1,340.2,159.6,339.4,158.1z"/>
	<path class="st31" d="M452.3,190.9c14.4,2.6,26.7-3.2,38.8-9.7c9.9-5.3,20-10.3,29-17.3c1.7-1.3,3.8-1.9,5.9-2.3
		c6.8,13.6,13.8,27.2,19.6,41.4c5.5,13.6,10.9,27.3,13.3,41.9c0.6,4.7,0.1,9-3.9,12.2c-10.2,2.1-20.6,2.6-30.9,3.9
		c-13,1.6-26.1,1.9-39.1,3.3c-6.4,0.7-12.9-0.4-19.2,0.9c-5.7,0.3-11.4,0.1-17.2,0.1c-5.1-0.1-10.3,0-15.4-0.1c-1.9,0-4-0.2-4.9-2
		c-2.9-6-8.9-8.7-13.6-12.8c-1.9-1.7-4.3-2.9-5.9-4.9c-1-2.7,0.7-4.1,2.8-4.8c4.4-1.6,8.8-3,13.5-4c-2.1-1.7-1.8-3.8-0.9-6
		c1.5-1.8,3.6-1.4,5.5-1.7c12.4-1.5,20.8-13.1,18.3-25.3c-0.3-1.7-0.8-3.3,0-5c1.7-2.2,4.4-2.4,6.5-3.5
		C452.7,194.4,450.4,193.9,452.3,190.9z"/>
	<path class="st21" d="M555.3,256.2c2.3-3.4,2.1-7.6,3.6-11.3c0.6,0.6,1.2,1.3,1.7,1.9c5.2,19,11,37.8,18.3,56
		c0.3,0.8,0.5,1.6,0.8,2.4c-2.5,0.3-3.7,1.8-3.9,4.2c-0.1,1.3-0.1,2.6-0.2,3.9c-0.3,6.5-1.2,7.3-7.6,6.8c-5.3-0.4-11.5,4.6-12,9.9
		c-0.3,3.4,0,6.9-0.2,10.3c-0.3,4.8-1.7,5.6-5.8,3.2c-3.3-1.9-3.6-1.8-4.1,2.1c-0.2,1.7-0.4,3.4-2.6,3c-7.6-1.5-13.5,2.7-19.6,5.8
		c-2.8,1.4-5.5,3-8.4,4.3c-1.2,0.5-2.4,1.1-3.7,1c-6.9-0.5-12.7,2.3-18.2,5.9c-2.1,1.3-4,1.4-5.8-0.4c-3.9-3.7-6.1-8.6-8.4-13.3
		c-0.6-1.2-0.3-2.5,0.4-3.7c5.4-4.7,12.3-7.2,18.1-11.3c2.7-1.9,5.4-3.7,8.1-5.7c1.9-1.5,3.4-2.8,0.5-4.8c-0.8-0.6-1.4-1.6-0.8-2.6
		c0.7-1.1,1.9-0.8,2.7-0.2c3.9,2.6,6.1,0.2,8.7-2.3c6-5.8,11.6-11.9,15.8-19.1c1.2-2.1,3-3.9,2.1-6.7c-0.2-0.8,0-1.5,0.7-1.8
		c6.6-3.1,7.6-10,10.4-15.6c2.8-6.1,5.4-12.2,7.6-18.5C553.8,258.3,554.4,257.2,555.3,256.2z"/>
	<path class="st32" d="M428,736.4c-0.3-30.4-0.6-60.8-0.9-91.2c0.3-8.9-0.2-17.8-0.8-26.7c2.2,1.8,2.7,4.3,2.3,6.9
		c-1,7.1,1,8.9,7.9,7.9c10.4-1.4,20.3-4.5,30-8.3c4.5-1.7,7.2,0,7,4.7c-0.2,6.1,1.3,12.1-0.7,18.2c-0.9,2.7,0.6,5.6,1.2,8.4
		c0.3,1.2,1.3,1.9,2.4,2.3c3.7,1.4,10.3-2.6,10.9-6.6c0.2-1,0.5-1.9,0.7-2.9c1.5-9.3,0.5-9,10.8-10.5c8.5-1.3,15.7-5.1,22.7-9.3
		c9.5-5.7,18.6-12.1,27.9-18.1c0.9-0.6,2.1-0.9,3.1-1.3c-0.6,2.3-1.1,4.6-1.6,6.9c0.7,0.7,0.7,1.7,0.2,2.4
		c-4.6,6.6-8.5,13.8-14.8,19.1c-7.7,7.9-14.6,16.4-21.5,25c-11,13.5-17,29.7-24.8,45c-5,9.9-9.8,20-14.7,30c-1.3-0.8-2.7-1-4.1-0.9
		C456.9,737.9,442.5,736.2,428,736.4z"/>
	<path class="st33" d="M613,697.8c-6.7,10-12.4,20.7-19.9,30.2c-4.8,6-9.3,12.2-15.3,17.2c-12,0.2-24-0.9-36,0.7
		c-5.4,0.7-10.8-1-16.2-0.8c-1.7,0.1-2.2-1.1-2.1-2.6c0.3-6.4,0.6-12.8,0.9-19.2c0.1-1.4,1.1-2.2,2.2-3
		c10.5-7.1,20.7-14.6,30.2-23.1c6-5.4,11.5-11.4,15.8-18.4c1.8-5.4,4.8-10,8.2-14.4c1.8-2.4,4.3-1.8,6.6-0.8
		c6.3,2.8,12.8,5,19.4,7.1c3.7,1.1,7.3,2.4,11.2,2.8c1.7,0.2,3.5,0.4,4.6,1.9C620.6,683.3,616.3,690.3,613,697.8z"/>
	<path class="st34" d="M536.4,638.3c3.9-5.5,7.8-10.9,11.7-16.4c1.1-1.6,2.6-3,3-5c2.4-0.3,3.5,1.4,4.6,3.1c2.1,3,4.3,3.9,8.3,2.2
		c8.5-3.5,14.2-10.2,20.4-16.4c4.4-4.4,9.1-8.1,14.9-10.4c4.6-1.9,9,0,13.1,1.6c3.6,1.4,7.2,2.7,10.9,3.6c0.7,1.9-0.4,3.4-1.2,4.8
		c-12.9,23.7-27.8,46-47.5,64.7c-1.3,1.3-2.6,2.8-4.7,2.5c-2.1-0.9-1.6-2.8-1.6-4.5c0-8.8-0.2-17.7,0-26.5c0.1-3.5-1.2-4.3-4.4-4.3
		c-7.5,0.1-15,0.7-22.5,1.7C539.7,639.3,538,639.2,536.4,638.3z"/>
	<path class="st35" d="M570,672.6c11.9-10.1,21.8-22.1,30.8-34.8c8.5-11.9,16-24.3,22.6-37.2c1.4-2.4,3.5-2.9,6.2-2.8
		c6.1,0.1,9-3.1,7.7-9.1c-1.2-5.5,1.5-10,2.6-15c0.4-1.8,1.2-1.1,1.6,0.2c-0.1,3.6-0.1,7.2-0.2,10.9c-0.9,1.7,0.2,3.7-0.7,5.5
		c-1.5,28.4-8.2,55.8-16.7,82.8c-0.2,0.8-0.8,1.5-1.2,2.2c-11.4-0.8-21.8-5.1-32.2-9.1c-9.2-3.6-6.6-4.1-11.8,3.5
		c-2.1,3-3,6.7-6,9.1c-0.4,0-0.9,0-1.3,0c-1.6,0-3.5,0.1-4.2-1.4c-0.8-1.7,1.3-2.2,2.2-3.2C569.7,673.8,569.8,673.2,570,672.6z"/>
	<path class="st36" d="M480.5,348.3c-0.5,1-1.2,2.1-0.5,3.2c2.7,4.3,4.5,9.2,8.4,12.9c1.4,1.3,2.1,1.5,3.9,0.3
		c3.1-2,5.9-5.1,10.3-4.5c0.5,0.1,1.4-0.6,1.7-1.1c1.1-1.9,2.1-2,4.1-1c4.1,2,7.7-0.9,10.7-2.7c5.3-3.2,11-5.4,16.5-8
		c3.1-1.5,5.9-0.2,8.7,0.4c0.7-0.4,0.8-1,0.5-1.5c-1-2.3-0.7-4.5,1.2-5.8c1.9-1.3,3.1,1.2,4.7,2c1,0.5,1.5,2.5,3.1,1.5
		c1.2-0.8,0.7-2.4,0.7-3.6c0.3-4.5-0.6-9.1,0.7-13.6c1.1-3.8,8.7-8.7,12.6-7.9c5.9,1.1,6.4,0.7,6.5-5.5c0-2.5,0.3-4.9,1.1-7.5
		c1.4-4.7,2.7-1.8,4.3-0.5c4,9.2,7.6,18.6,12.2,27.5c-0.6-0.4-1.3-0.7-1.7-1.2c-0.6-0.6-1-1.5-2.1-1c-1,0.5-0.8,1.4-0.8,2.3
		c-0.2,9.7-1.7,19.2-2,28.9c-0.3,10-2.8,19.8-6.4,29.1c-1.1,2.8-2.2,5.6-3.3,8.4c-0.9,2.2-1.4,4.4,0.6,6.3c1.9,1.7,1.4,3.3,0.4,5.3
		c-4.7,9.7-10.4,18.7-17,27.2c-9.3,11.9-18.7,23.8-29.3,34.6c-3.3,3.4-7.3,5.9-10,9.9c-1.4,2.1-1,3.8,0.9,4.6
		c3.4,1.4,1.8,3.2,0.4,4.4c-3.2,3-6.8,5.7-10.2,8.5c-7.5,6.1-15.7,10.9-24.5,14.7c-1.6,0.7-4.9,0-5.5-3.1c-0.2-1.5-0.6-2.7-2.3-2.3
		c-7.3,1.8-14.3,4.6-20.6,8.8c-2.1,1.4-1.1,3.2-0.3,5c2.3,5.2,2.3,5.5-2.9,8.1c-9.1,4.5-18.9,7.4-28.2,11.5
		c-15.3,6.9-31.6,9.6-48,12c-4.1,0.6-8.3-0.9-12.2,0.9c-5.9-0.3-11.8-0.6-17.7-0.8c-2.2-0.1-3-1-2.9-3.1c0.1-1.6,0-3.1,0-4.7
		c-0.7-3.7-0.7-7.5,0-11.2c0-1.2,0-2.3,0-3.5c0.7-2,0.7-4,0-6c0-9.5,0-9.5-9.5-9.5c-8,0-16.1,0.4-24.1-0.1
		c-9.9-0.7-19.7-0.8-29.6-0.7c-3.4,0-4.8-1.8-4.7-4.7c0.1-7.4-0.4-14.8,0.5-22.3c0.9-6.9,0.8-14,1.1-21c0.1-2.5-0.9-3.5-3.5-3.7
		c-15.4-1.2-30.6-3-45.5-7.2c-4.3-1.2-5.7,0.1-4.8,4.5c0.9,4.4,0.3,8.9,0.5,13.3c0.1,2.9-1.6,2.1-3.1,1.3c-4.9-2.7-9.8-5.3-14.5-8.3
		c-9.6-6.2-19.2-12.5-28-19.8c-18.8-8.9-29.1-25.1-37.3-43.1c-1.3-2.9-2.9-5.6-4-8.5l0,0c-1.2-1.5-1.8-3.4-2.6-5.1
		c-4.3-7.4-6-15.8-8.5-23.9c-1.5-4.8-2.4-9.9-3.5-14.8c2.4,1.1,4.5,2.9,7.6,1.1c1.5-0.9,2.8,1.5,4.1,2.5c1.7,1.3,3.4,2.6,4.8,4.3
		c-3.2,1.1-5.6,1.1-8-0.5c-1.8-1.1-3.5-0.5-3.3,2c0.5,5.9,3.2,11.2,4.7,16.8c0.5,1.8,1.9,0.4,2-0.8c0.2-2.5,1.6-3.8,3.9-4.5
		c2.6-0.8,3.4-3.4,4.9-5.2c1.3-1.7-0.6-1.6-1.5-2c-1.2-0.5-1.7-1.5-1.7-2.7c0-1.4,1.2-1.4,2.2-1.4c1.4,0,2.3-1.1,3.3-1.8
		c1.9-1.1,3.7-1.7,3.3,1.7c-0.2,1.8,0.7,1.5,1.8,1.2c3-1,4.3,0.7,5.6,3.2c6.5,12.8,16.3,22.6,27.5,31.2c2.1,1.7,4,2,6.2-0.6
		c4.6-5.8,8.9-11.9,15-16.3c1.1-0.8,1.5-3.6,3.3-2c2.1,1.8,6.4,3.1,4.4,7.2c-2.3,4.6-2.9,9.6-4.6,14.2c-0.8,2.3-2.6,4.6,2,5.8
		c2.3,0.6,3.9,3.9,5.8,6c4.4,4.8,5.8,10.6,5.9,17c0.1,3.9,4.9,8,8.5,7.7c1.6-0.1,2.1-1.8,2.9-2.9c4.2-5.4,7.1-11.7,11.2-17.2
		c3.4-4.6,7.2-6.3,12.4-4.4c4.4,1.6,6.8-0.3,8.5-4c0.8-1.7,1.9-3.2,3.7-3.4c3.8-0.4,5.8-2.8,7.3-5.8c1.1-2.2,2.4-2.6,4.8-1.7
		c3.1,1.1,5.8,2.2,8,4.9c2.1,2.4,5.2,3.7,8.3,0.9c0.2-0.2,0.5-0.4,0.7-0.4c3.9,0.2,5.9-1.7,6.5-5.6c0.2-1.4,2.1-1.8,3.2-1.1
		c5.7,3.7,11.7,0.7,17.5,0.8c5.2,0.1,10.6-1.3,15.6,1c1.9,0.8,3.4-0.2,4.9-0.6c2.9-0.8,5.1-0.9,6.8,2.3c1.7,3.2,4.3,3.1,6.3,0
		c1-1.4,1.6-3.1,3.5-3.5c1.1-0.3,2.8-0.4,2.5,1.2c-1.1,6.7,3.8,6.1,7.6,6.1c6.3-0.2,12.4,1.6,18.7,1.4c1,0,1.9,0.2,2.9,0
		c3.4-0.8,5.1-0.3,4.4,4.1c-0.5,3.1,2.6,5.2,5.2,5.7c2,0.4,5.3,0,5.2-4c0-1.3,1.2-2.5,1.6-3.9c1-3.3-0.1-6.1-2.8-8.7
		c5.1,3.4,10.8-0.7,15.8,2c0.8,0.4,2.1,0.1,2.1-0.9c0-2.9,2.6-4.6,2.7-7.7c0.1-5.1,4.8-7.4,8.5-10c0.6-0.4,1.4-0.5,1.9-1
		c1.4-1.3,2.7-2.9,2-4.9c-0.7-1.9-2.8-1.2-4.2-1c-2.1,0.3-4.1,1.1-6.2,1.6c-1.3,0.3-2.6,1.6-3.9,0.1c0.6-2,2.4-2.3,4-2.8
		c3.3-0.9,6.5-2.1,9.8-2.9c2.3-0.6,4.2-1.7,5.7-3.6c3-3.9,7.2-4.9,11.8-4.8c6,0.1,6.1,0.1,7.8-5.3c1.3-1.4,2-0.2,2.5,0.8
		c0.6,1.1,1.7,1.9,2.2,3.1c0.5,1,1.4,1.7,1.9,2.4c-1.3-2.5-4.7-4.2-4.4-7.9c2.5-1.3,4.8-2.8,6.4-5.2
		C477.5,348.4,478.7,347.1,480.5,348.3z"/>
	<path class="st32" d="M527.8,570.3c-5,6.6-11.3,10.7-19.8,11.2C514.6,577.8,521.2,574,527.8,570.3z"/>
	<path class="st32" d="M428.9,579.9c0.1,3.6-2,4.6-5.2,4.2c-1.5-1.8-0.6-2.8,1.2-3.3C426.2,580.4,427.6,580.2,428.9,579.9z"/>
	<path class="st32" d="M425.5,609.9c2.1,1.4,2.2,3.2,0.8,5.2C424.8,613.6,425.6,611.7,425.5,609.9z"/>
	<path class="st32" d="M424.7,600.5c2.3,1.4,1.7,3.3,0.8,5.2C424,604.1,424.7,602.2,424.7,600.5z"/>
	<path class="st32" d="M423.8,588.4c2.8,1,1.3,2.7,0.7,4.3C423.3,591.5,423.8,589.9,423.8,588.4z"/>
	<path class="st32" d="M471.8,591.8c-1.3-1.3-0.7-2.8-0.8-4.3C472.3,588.8,471.8,590.4,471.8,591.8z"/>
	<path class="st15" d="M640.6,590.3c-0.1-1.9-0.6-3.8,0.7-5.5C641.4,586.7,641.7,588.6,640.6,590.3z"/>
	<path class="st37" d="M424.3,231.2c0.8,1.9-0.4,4.5,2.9,6c-5.3,1.6-9.9,3.1-14.5,4.4c-2,0.5-3.4,1.3-3.5,3.5
		c-0.6,2.8-2.7,1.9-4.4,1.6c-2.3-0.5-4.5-1.6-7-1.9c1.3,3.6,5.7,5.6,5.1,10c-1.8,3.5-4.4,2.6-6.9,1.2c-4-2.3-7.9-4.4-12.6-5.1
		c-3-0.4-4.7,0.1-4.8,3.4c-0.1,1.6-0.3,3.1-0.8,4.6c-1.2,3.7-0.5,6.6,2.8,9c3.1,2.2,4.1,5.3,3,9.1c-0.8,2.7-1.3,5.6-2.2,8.3
		c-2,5.8-2.7,6.1-8.2,3.2c-3-1.6-6-3.2-9.1-4.7c-7.7-3.9-10.2-11.7-6.4-19.5c0.8-1.7,1.9-3.2,2.9-4.7c2.2-2,2.5-5.1,4.1-7.4
		c1.8-0.9,3.7,0,5.5-0.4c1.9-0.4,3.6-1.3,4-3.4c0.4-2.2-1.3-3.1-2.9-3.7c-10.1-4.2-20.3-4.5-30.5-0.5c-1.6,0.6-3.3,1.5-3,3.7
		c0.3,2.3,2.1,2.9,4,3.3c1.8,0.3,3.7,0.3,5.5,0.9c1.6,0.5,3.3,1.1,3.4,2.9c0.1,5,2.9,8.9,4.6,13.2c0.1,1.3,0.1,2.7,0.1,4
		c0,7.7-5,11.2-11.3,13.7c-3.9-2,0-4-0.1-6c-7.7,1.6-14.9,4.9-22.2,7.7c-2.4,1-4.9,1.7-7.5,1.6c-2.8-0.1-4.4-1.3-5.1-4.2
		c-0.7-3,0.6-4.1,3.2-4.9c3.1-1,4.6-4.2,6.9-6.3c4.5-4.2,9.1-8.2,13-13.1c2.7-3.5,1.9-11-1.8-13.5c-0.9-0.6-1.9-0.6-2.9-0.3
		c-2.9,1-5.9,1.4-8.7,2.4c-1.7,0.6-2.9,1.6-3.8,3.2c-3.1,5.6-3.1,5.6-9.2,7.7c-0.1,1.8,2.5,3.3,0.9,5.4c-1.4,1.8-3.4,2-5.3,2.4
		c-1.3,0.3-2.7,0.8-2.2,2.5c0.5,1.6,1.8,1.7,3.2,1.3c1.9-0.6,3.5-0.5,4.3,1.6c0.8,2.1,1.8,4.5,0.4,6.6c-1.3,2-3.2,1.3-4.8-0.1
		c-0.7-0.6-1.4-1.7-2.5-1c-1.2,0.7-0.7,2.1-0.7,3.2c0,0.6,0,1.2,0.4,1.7c1.9,2.5,3.4,4.8,1.9,8.2c-1.8,4.1-4.1,7.7-8.4,9.3
		c-4,1.4-6.9,3.9-9.4,7.2c-1,1-1.6,2.6-3.5,2c0.3-1.1,0.6-2.2,0.9-3.4c-1.2-2.4,4.3-4.3,0.1-7.3c-4.6-3.2-8.8-5.4-13.8-1.2
		c-19,9.3-37.9,18.7-56.3,29c-1.2,0.7-2.4,1.6-4,1c0-0.9,0-1.7,0-2.6c0.4-1,1.3-1.5,2.2-1.9c15.8-8,31.2-16.6,47.4-23.8
		c2.6-1.1,4.9-2.9,7.3-4.4c1.1-1.5,2.6-2.1,4.2-2.7c3-1.1,3.5-3,1.8-5.6c-0.5-0.7-0.8-1.5-1-2.3c-0.7-2.5-2.1-3.5-4.8-2.9
		c-1.8,0.4-3.7,0.4-5.5-0.2c-2.7-0.2-5.3,0.2-8,0.8c-0.8,0.2-1.9,0.1-1.9-1.1c0-0.8,0.7-1.2,1.5-1.3c2.2-0.4,4.4-0.7,6.7-1
		c1.4-2,3.6-2,5.7-2.3c3.3-0.4,6-6.2,4.3-8.9c-0.7-1.1-1.9-1.1-3-1.2c-2.1-0.1-4.3,0-6.1-1.4c-4.3,0-8.6,0-12.9,0
		c-1.1,0-2.8,0.2-2.7-1.3c0-1.4,1.7-1.2,2.8-1.2c7,0.2,14,0.5,21,0.8c2.7,0.1,4.7-0.4,6.5-2.9c3.4-4.8,8.7-7.4,13.8-10
		c7-3.7,14.1-7.1,21.1-10.6c5.4-2.7,9.3-6.6,11-12.5c0.6-2,1.2-4.2-0.4-6.1c-4.1-7.2-7.4-15-13-21.3c-0.7-0.7-1.2-1.6-0.8-2.7
		c0.1-0.4,0.5-0.9,0.4-1.2c-1.8-5.9-1.7-5.8,3.8-8.7c5.2-2.7,10.5-4.9,16.5-5.9c6.1-1,7.3-3.4,5.3-9.4c-0.4-1.2-1-2.4-1.4-3.6
		c-1.4-4.3,0.8-8.1,5.2-9c2-0.4,4-0.5,5.6-1.8c2.8,0.3,3,2.7,3.7,4.7c0.7,2,1.5,3.2,4,1.6c2.9-1.8,6-0.5,9.1-0.3
		c13.1,0.6,24.4,6.9,35.6,12.5c4.8,2.4,9.7,5.9,13.6,10.2c2.7,3,2.9,6.1,0,9c-2,2-3.5,4.1-3.2,7.1c0.7,2.6-1.5,4-2.5,5.9
		c-1.2,2.4-2.8,4.6-3.9,7c0.8-0.5,1.5-1.3,2.5-1.5c2.1-0.1,3.1,1.3,3.8,2.9c3.2,7.3,9.5,10.3,16.7,11.8
		C420.7,229.5,422.8,229.5,424.3,231.2z"/>
	<path class="st38" d="M312.1,216.7c-3.8,3.1-6.8,7.2-11.3,9.7c-12.3,6.8-28.2,5.1-36.1-4.7c-5.5-6.9-7.2-14.8-3.1-23.2
		c0-4.8,2.4-7.7,6.8-8.1c2.6-0.2,5.2-0.2,7.7-0.1c5,0.2,5.5,1,4.1,5.7c-2.2,7.2-2.4,14.4,0.3,21.5c1.1,2.8,1.9,6.6,5.7,6.7
		c4.2,0.2,5.5-3.6,6.8-6.8c2.4-5.7,2.3-11.7,1.3-17.7c-0.2-1.5-1.1-3.4,0.3-4.4c1.6-1.2,3.3,0.1,4.7,1.2c5.5,4.2,10.3,9.1,13.2,15.5
		C313.4,213.7,313.8,215.3,312.1,216.7z"/>
	<path class="st39" d="M312.1,216.7c0.7-1.3,0.3-2.5-0.3-3.7c-3.6-7.7-9.3-13.4-17.3-17.8c2.4,8.4,2.8,16.2-0.5,23.9
		c-0.8,1.8-1.6,3.7-3.1,5.1c-3,3-6.7,2.9-9-0.6c-6-9.3-6-19.3-2.4-29.5c0.2-0.6,0.6-1.2,1-1.9c-11-2.4-15.2-0.9-18.8,6.4
		c-1.3-0.5-2.7-0.9-4-1.5c-1-0.4-2.4-0.9-2.4-2.2c0-1.2,1.3-1.2,2.3-1.3c0.5-0.1,1.5-0.3,1-0.8c-3.3-3,0.7-3,1.6-3.2
		c13.3-3.3,26.3-3.7,38.4,4.1c1.9,1.2,3.6,2.7,5.4,4.1c6.2,7.1,11.4,14.8,13.8,24C315.4,220.7,315.3,217,312.1,216.7z"/>
	<path class="st40" d="M258.5,282.1c2.7-1.6,5.9-0.4,8.7-1.6c0.3-0.1,1,0.2,1.1,0.4c1.5,3.2,2.7,6.5,4.4,9.7c0.6,1-0.9,1.9-1.9,2.5
		c-2.2,1.3-4.6,2.3-7.1,2.8C261.7,291.3,258.6,287.3,258.5,282.1z"/>
	<path class="st40" d="M257.6,265.7c2.4,0,4.9,0,7.3,0c1,0,2.2-0.2,2.8,0.6c2.5,3.1-0.4,6.3-0.1,9.5c0.2,1.8-1.8,2.8-3.7,2.8
		c-2.5-0.1-4.9,0.1-7.2,0.9c-0.8-3.1-0.4-6.1,0.6-9.2C257.8,268.9,258.4,267.3,257.6,265.7z"/>
	<path class="st2" d="M139.7,396.5c5.3,8.9,9.4,18.6,15.6,27c5,6.8,9.9,13.5,16.7,18.7c2.9,2.2,7.4,1.9,9,5.9
		c-4.4-0.6-8-2.7-11.3-5.6c-3.1-2.7-5.5-6.3-10.9-5.1c-2.4,0.5-5.2-2.5-8.3-2.6c-1.1,0-1.4-1.4-0.6-2.4c1.8-2.3,0.7-4.3-0.7-6.2
		c-3.2-4.2-4.6-8.6-4.2-14.1c0.2-3.3-1.7-6.8-3.4-10.1C140.8,400.3,139.6,398.7,139.7,396.5z"/>
	<path class="st12" d="M346.3,535.9c0,3.7,0,7.5,0,11.2C344.9,543.4,344.9,539.7,346.3,535.9z"/>
	<path class="st2" d="M137.2,391.4c1.4,1.4,2.2,3.2,2.6,5.1C137.8,395.4,137.2,393.5,137.2,391.4z"/>
	<path class="st12" d="M346.3,526.5c1.3,2,1.3,4,0,6C346.3,530.5,346.3,528.5,346.3,526.5z"/>
	<path class="st19" d="M280,310.4c0.9-0.8,1.7-1.7,2.6-2.5c0.9-0.7,1.9-0.8,2.9-0.4c7.7,2.8,16.1,3.7,23.4,8
		c14.5,8.6,30.5,13.8,47,17.1c8.6,1.7,16.7-1.4,24.9-3.4c8.1-2,15.7-5.5,22.5-10.4c6.1-4.4,12.9-7.3,19.6-10.6
		c2.1-1,4.3-1.5,6.6-1.5c1.2,0.4,1.8,1.3,2.2,2.4c1.6,6.5,7.3,10,11.2,14.8c2.6,3.2,5.6,6.1,8.1,9.3c1,1.2,2.1,2.5,0.7,4.1
		c-4.5,3.9-10.2,5.1-15.5,7.2c-4.6,1.9-9,3.7-10,9.5c-0.4,2.4-2.7,3.2-4.8,3.8c-14.5,3.5-29.1,6.6-44,7.5
		c-8.1,0.5-16.3,1.4-24.4,1.7c-25.3,0.9-49.9-3.2-74.4-9.3c-8.8-2.2-17.6-4.1-26-7.4c-1.7-0.7-3.6-1-4.6-2.9
		c0.5-2.7,2.7-4.4,4.3-6.2C261.5,330.8,270.8,320.6,280,310.4z"/>
	<path class="st40" d="M248.1,347.5c14.2,5.3,29,8.6,43.8,11.8c12.2,2.7,24.5,4.9,37.1,5.6c7.7,0.5,15.4,0.8,23.1,0.5
		c21.5-0.8,43-2.5,64-7.8c2.2-0.6,4.4-1,6.6-1.7c1.4-0.4,2.8-1.1,2.7-2.9c-0.4-4.9,3-6.9,6.6-8.4c6.7-2.8,13.7-5,20.1-8.4
		c3.3,0.8,4.5,3.8,6.4,5.9c2.8,3.2,5.6,6.4,8.3,9.8c0.9,1.1,2.4,2.2,1.7,4.1c1.2,5.1-1.6,7.9-6.5,7.2c-5.1-0.7-10-0.2-13.1,4.9
		c-1.3,2.1-3.6,2.7-5.8,3.3c-4.8,1.4-9.5,2.9-14.3,4.4c-10.5,2-20.8,4.8-31.4,6.4c-2,0.3-2.9,0.2-3.1-2c-0.2-3.4-2.4-3.7-5.2-3.3
		c-5.7,0.6-11.3,1.3-17,1.5c-7.4,0.2-14.8,1.8-22.2,0.8c-6.8-0.9-13.6,0.2-20.3-0.7c-0.8-0.1-1.9-0.3-2.5,0.1
		c-9.9,5.6-19.7,1.4-29.4-0.5c-10.2-2-20.2-5.2-30.2-8c-2.3-0.6-5.2-1-2.7-4.7c1-1.5-0.8-2.3-1.9-2.8c-4.8-2.2-9.6-4.4-14.4-6.5
		c-0.9-0.4-1.8-0.8-2.8-1.2c-2.7-1.1-3.3-2.5-0.9-4.6C246,349.4,247,348.4,248.1,347.5z"/>
	<path class="st19" d="M206.9,328.5c10.3-6.6,21.3-11.9,32.2-17.5c7.9-4,15.8-7.9,23.7-11.8c1.4-0.7,2.9-1.2,4.3-1.8
		c4.4,3,9.9,4.7,12.9,9.5c-8,9-16.1,18.1-24.1,27.1c-4.5,5.1-9.1,10.2-13.4,15.5c-1.5,1.9-2.8,2.4-5,1.5
		C225,346.6,215.4,338.3,206.9,328.5z"/>
	<path class="st40" d="M280,307c-4.2-3.3-9.8-4.8-12.9-9.5c2.3-1.7,4.9-4.2,7.5-3.1c3.6,1.4,6.7,4.2,9.8,6.5
		c1.1,0.8,0.1,1.8-0.5,2.5c-1,1.2-2,2.3-3.1,3.5C280.6,307,280.3,307,280,307z"/>
	<path class="st41" d="M509.7,80.5c3.5,0.2,5.8,0.4,8.2-0.3c3.3-0.9,4.8,0.2,4.8,3.8c0,5.7,0.1,5.5-5.7,6.4c-2.4,0.4-6-0.4-6.4,4.1
		c3-0.9,6-1.6,8.9-2.6c2.6-0.9,3.4,0.1,3.1,2.6c-0.3,3.1-1.3,7.2-0.4,9c1.9,4.2,1.3,8.2,1.1,12.1c-0.5,9.7-0.3,19.4-1.9,29.4
		c-5.8-2.7-11.3-5.3-16.8-8c-1.4-0.7-1.8-2.1-1.8-3.6c0-1.4-0.1-2.9-0.4-4.3c-2.1-10-2.2-9.8-12.3-11.4c-11.2-1.7-22.4-2.6-33.7-2.6
		c-1,0-2.2,0.4-2.8-0.5c-0.8-1.3,0.6-2.1,1.1-2.9c10.4-14.5,21-28.8,33.4-41.8c6.3-6.6,12.5-13.3,20-18.7c5.4-3.9,7.3-3.2,9.3,3.2
		c2.2,7.1,2.8,14.5,4.2,21.8c0.4,2.1-0.5,3-2.5,2.9C516.2,78.8,513.5,79.5,509.7,80.5z"/>
	<path class="st42" d="M398.3,214.8c-1.3,1.5-2.5,3.1-3.8,4.6c0.7-6.7,4.6-11.4,7.7-16.5c12.2-15.4,28.4-17.6,46.3-13.7
		c1.4,0.3,2.8,0.6,3.8,1.7c0.4,2.4,0.4,2.4,3.5,4.5c-2.1,1.7-4.6,2.5-7.1,3.3c-1,0.2-1.9-0.2-2.3-0.9c-3.6-6.2-9.4-4.8-15.9-4.7
		c3.2,5.8,3.4,11.7,3.2,17.6c-0.2,4.8-1.6,9.3-4.3,13.3c-3.2,4.6-7.3,4.8-11.1,0.7c-3.6-4-5.1-8.8-5.3-14.1
		c-0.1-3.4,0.2-6.8-0.3-10.5c-5,2.7-8.4,6.4-11.1,10.8C400.6,212.4,399.9,213.9,398.3,214.8z"/>
	<path class="st40" d="M429.8,307c-5.9,1.9-11.4,4.9-17,7.5c-4.6,2.1-8.5,5.3-12.7,7.9c-10.3,6.3-21.8,8.9-33.4,11.4
		c-8.7,1.9-16.7-0.9-24.7-3.2c-12.9-3.7-25.4-8.5-36.9-15.7c-1.8-1.1-3.9-2-5.9-2.4c-5.6-1.1-11-2.9-16.5-4.6
		c2.4-3.7,5.3-6.5,9.8-7.8c5-1.5,6.8-6.1,8.5-10.5c0.5-1.2,0.1-2.6-0.8-3.1c-2.8-1.4-2.4-3.6-2.5-6.1c-0.1-1.7,0-2.8,1.5-3.5
		c1.7-0.8,2.7,0,3.5,1.4c0.7,1.1,1.3,2.5,2.9,1.8c1.9-0.8,0.8-2.4,0.6-3.7c-0.4-3.1-0.6-5.7-4.7-2.7c-1.8,1.3-3-1.1-3.8-2.4
		c-0.8-1.4-0.8-3.1,1.1-4c0.6-0.3,1.3-0.5,2-0.6c2.1-0.1,4.7,0.4,5.5-2.3c0.7-2.3-2.4-2.5-3.3-4.2c0.5-0.3,0.9-0.8,1.3-0.9
		c5.5-0.7,8.9-3.5,10.4-9c0.8-2.8,4.2-1.9,6.3-2.9c1.3-0.6,2.8-0.5,4.2-0.9c2.3-0.7,4.9-3.2,6.8,0.2c2.2,4.1,6.1,8.6,2.6,13.4
		c-1.7,2.4-3.6,5.3-5.9,7.1c-5,3.9-9.3,8.4-13.5,13c-1.6,1.7-3.3,1.8-5.3,1.7c1.6,6.7,3.7,7.8,9.9,5.4c7.2-2.8,14.2-6.1,21.7-8
		c1.5-0.4,2.9-1,4.5-0.7c0.9,2.9-4.5,3.8-2.1,7c3.2,0.2,6-1.8,9.1-2.1c5-0.4,9.9-0.4,14.6,2.1c1.8,1,3.7,2.2,6,1.8
		c0.9,0.5,1.8,0.9,2.6,1.4c1.4,0.7,2.4,1.3,3-1.1c0.8-3.7,2-7.4,3.3-11.1c1.3-3.6,0-6.2-3-8c-3.8-2.2-4.6-5.1-3.1-9
		c0.6-1.6,0.9-3.3,1-5c0.5-5.9,0.9-5.9,6.3-5c5.1,0.8,9.5,2.9,13.6,5.7c2,1.3,3.7,1.6,5-0.7c2-1.2,3.6,0.2,5.1,1.1
		c7.1,4.2,14.8,7,22.7,8.5c5.7,1.2,11.9,0.7,17.8,0c6,0,12,0,18,0c0.5,1.4,0,2.5-1.2,3.3c-3.2,1.2-6.5,0.7-9.8,0.7
		c-6.7,0.1-13.4,0-20.1,0.1c-2,0-4.1,0-4.3,2.9c-0.1,2.7,1.6,3.3,3.8,3.6c7.2,1.2,14.4,1.7,21.5,3.5c19.8,2.9,39.7,5.6,59.3,9.7
		c8.8,4,16.2,2.3,22.7-4.9c2.2-2.5,4.6-5.7,9-4.3c-1.3,4.4-3.7,8.3-5.9,12.4c-1.1,2.2-2.7,3.6-6.4,3.1c2.3,1.9,2.4,3,1.3,5
		c-5.4,10.1-13.2,18.3-21.4,26.1c-1.6,1.6-3,1.9-4.8,0.4c-1-0.8-2.2-1.2-3.4-1.7c-0.8,1,0,1.4,0.5,1.8c4.2,2.8,4.3,2.9,0.2,6.1
		c-7,5.4-14.6,10-22.4,14.2c-1.4,0.7-2.7,1.6-4,2.4c-2,0.2-2.9,1.6-3.7,3.1c-1.4,2.6-3.5,4-6.6,3.7c-2.7-0.7-3.4-3.3-5-5
		c-3.1-3.4-5.8-7.1-8.8-10.6c-1.1-1.3-2.4-2.5-1.8-4.5c6.3-3.8,12.3-8.5,20.4-5.8c2.2,0.7,4.2-0.1,6.1-1.2c4.5-2.6,8.7-5.4,12.9-8.4
		c2-0.9,3.4,0.6,4.9,1.1c-6.6-3.5-13.5-6.6-20.4-9.6c-1.6-0.7-3.6-1.3-3.5-3.7c0.5-1.3,1.6-1.9,2.8-2.5c0.5-0.3,1.1-0.4,1.6-0.7
		c8.4-5.3,17.2-9.4,27.6-8.6c1.7,0.1,3.7-0.6,5.1-2.8c-3.9-1.8-8-2.3-11.9-2.9c-20.7-3.1-41.3-6.1-62-9.2c-1.3-0.2-3.1-1.2-3.9,0.5
		c-0.7,1.4,0.8,2.6,1.7,3.7c1.9,2.3,4.4,3.6,6.8,5.1c1.6,1.1,3.7,1.8,3.9,4.2c-0.1,0.5-0.4,1.3-0.9,1.2c-3-0.7,0.2,1.4-0.7,1.6
		C441.6,303,436.5,306.2,429.8,307z"/>
	<path class="st43" d="M398.3,214.8c2.4-8.2,8.9-12.9,15.9-17.9c0.1,5.4-0.5,10.2,0,15c0.5,3.9,1.6,7.6,3.8,10.8
		c3.8,5.5,8.6,5.3,11.3-0.8c4.1-9,4.6-18.1,0.4-27.3c-0.4-0.8-0.8-1.5-1.5-2.8c4.2,0,8.1,0.1,12,0c4.9-0.1,5.6,4.6,8.3,7
		c1.5,6,2,11.9-0.6,18c-3.5,8.2-9.8,12.3-18.2,13.7c-1.8,0.3-3.7,0.5-5.5,0.7c-10.3-0.9-19.4-3.8-23.9-14.3
		C400,215.9,399.1,215.3,398.3,214.8z"/>
	<path class="st44" d="M465,266.5c0.3-0.8,0.6-1.7,0.9-2.5c1.3-1.3,2.9-0.9,4.5-0.9c17.2-0.1,34.4-1.9,51.5-3.3
		c11.2-0.9,22.3-2.5,33.5-3.6c-1.5,8-5.1,15.2-8.6,22.4c-5.5,0.9-8.5,5.6-12.2,8.9c-6.1,5.4-12.3,4.5-18.9,1.6c1-1.8,3-2.2,4.6-3
		c10.4-5.3,19.1-12.6,26.6-21.5c1-1.1,2.3-2.2,2.4-4.3c-7.5,0.6-14.8,2-22.1,2.9c-17.2,2.1-34.5,3.7-51.8,3.9
		C471.9,267.1,468.3,269.3,465,266.5z"/>
	<path class="st44" d="M447.8,264.1c-6.5,1.6-13,0.8-19.5,0.5c-9.7-0.6-17.7-6-26.1-10c-0.3-3-2.9-4.5-4.2-6.8
		c-0.7-1.3-2.8-2.4-1.7-4c0.8-1.1,2.7-0.2,4,0.3c1.5,0.5,3,0.9,4.4,1.4c1.5,0.5,3,0.9,4.4-0.5c6.3,3.5,11.6,8.4,17.4,12.8
		c0.3,0.3,0.8,0.6,0.8,0.9c1.3,5.9,5.8,5.4,10.2,5.3C441,263.9,444.4,264,447.8,264.1z"/>
	<path class="st21" d="M454.6,335.5c5.2,6.6,10.4,13.2,15.5,19.7c2.3,3.4,4.5,6.7,6.8,10.1c-3.8-2.3-5.4-6.4-8.5-9.2
		c-5.5-6.6-10.9-13.2-16.4-19.8c-5.8-6.5-11.5-13-17.3-19.5c-2-2.2-3.6-4.4-4.2-7.3c3.5-0.1,4.6,3,6.7,4.8c4,5.3,9.3,9.4,13.2,14.7
		C451.9,331.2,454.1,332.8,454.6,335.5z"/>
	<path class="st21" d="M558.6,363.9c-2-1.3-5.3,0.1-6.2-1.9c-1.3-2.9-1.4-6.3-2-9.5c-0.1-0.5,0.2-1.1,0.8-1.3c1-0.2,1.7,0.3,2.1,1
		C555.6,355.7,558.8,358.8,558.6,363.9z"/>
	<path class="st45" d="M373.5,287.4c-2.3,1.6-4.3,0.4-6.3-0.6c-6.3-3.1-12.7-3.4-19.2-0.5c-1.6,0.7-2.9,0.9-4.1-0.6
		c1.6-1.1,3.2-2.3,4.9-3.3c3.6-2.2,5.5-5.2,5.3-9.5c0.5-1.5,0.6-3,0-4.6c0-2-2.1-2.6-2.7-4.2c-0.6-1.7-1.8-3.1-1.8-5.2
		c0-5.3-0.5-5.7-6-5.9c-1.9-0.1-3.7,0-5.4-1c-3.2-1.8-3.5-6.4-0.2-7.9c11.8-5.4,23.7-5.4,35.5,0.3c3.9,1.9,3.5,5.2-0.1,7.8
		c-3,2.2-6,0.4-9,0.8c-1.7,1.9-1.6,4.5-2.4,6.7c-3,4.1-5.4,8.3-4.7,13.6c0.5,3.7,1.7,6.8,5.3,8.6
		C366.2,283.6,369.9,285.5,373.5,287.4z"/>
	<path class="st40" d="M347.3,277.8c0.1-3.2-1-5-2.7-6.6c-0.9-0.8-1.3-2.1-0.4-3.1c0.9-1,1.8,0.1,2.7,0.4
		C351.3,270.7,351.7,272.9,347.3,277.8z"/>
	<path class="st40" d="M362,259.7c0.2-2.4-2.1-5.8,2.4-6.7C365.5,255.9,363.4,257.6,362,259.7z"/>
	<path class="st40" d="M354.1,268.2c1.2,1.5,1.1,3,0,4.6C354.1,271.2,354.1,269.7,354.1,268.2z"/>
	<path class="st46" d="M286.3,206.9c-2.9-3.2-2.3-6.7-0.8-10.2c0.2-0.6,0.4-1.6,1.3-1.4c0.6,0.1,1.2,0.7,1.5,1.3
		C290,199.2,289,204.2,286.3,206.9z"/>
	<path class="st44" d="M436.6,314.8c-2-1.8-4-3.5-6-5.3c-0.3-0.8-0.6-1.7-0.8-2.5c5.3-2.8,11.1-5,14.6-10.4c1.3-0.7,2.5,0,3.6,0.5
		c6.9,2.8,13.6,5.8,20.3,8.9c1.6,0.7,3.6,1.2,3.8,3.5c-5.6,4.6-12.3,6.8-19.2,8.6c-2.1,0.6-4-0.7-4.9-2.7c-1.3-3-3.2-3-5.8-1.8
		C440.5,314.5,438.7,315.7,436.6,314.8z"/>
	<path class="st47" d="M420.1,201.3c0.1-2.1,0-4.6,2.5-4.7c1.7,0,1.8,2.3,1.7,3.8c-0.1,2.1-0.1,5.3-2.1,5.5
		C420.5,206.2,420.3,203.2,420.1,201.3z"/>
	<path class="st31" d="M465,266.5c12.2-1.2,24.4-1.2,36.6-2.3c11.5-1,22.9-2.2,34.3-3.7c5.4-0.7,10.9-1.5,17.2-2.4
		c-6,9.3-13,16.4-21.3,22.3c-5,3.5-9.9,7.3-16.1,8.6c-7.8-0.4-15.4-2.9-23.1-4c-12.4-1.8-24.7-3.8-37-5.6c-3.2-3.9-3.6-9.8-0.9-12.9
		C458.1,266.6,461.5,266.6,465,266.5z"/>
	<path class="st44" d="M446,295c-0.7-3.6-4.3-3.8-6.7-5.4c-2.9-2-5.4-4.2-7-7.3c-1.6-3.2-0.2-3.9,2.6-3.5c5.9,0.9,11.8,1.9,17.7,2.8
		c15,2.2,30.1,4.3,45.1,6.6c4.6,0.7,9.2,1.7,13.8,2.6c1.2,0.2,2.3,0.7,2.6,1.9c0.2,1.3-1,2.1-1.9,2.6c-3.1,1.5-6.3,2.8-9.9,2.4
		c-6.5-0.8-12.2,0.8-16.9,5.3c-2.9,2.8-7.5,2.1-10.2,5.1c-2.1,0.9-3.9-0.4-5.6-1.2c-6.8-3.2-13.6-6.4-20.7-9.1
		C447.8,297.2,446.4,296.6,446,295z"/>
	<path class="st19" d="M436.6,314.8c1.7-0.7,3.4-1.4,5.1-2.2c3.3-1.6,6.4-3.3,7.4,2.5c0.4,2.2,2.7,2.4,5,1.7
		c6.2-1.9,11.8-5.2,17.8-7.3c1.1-1.1,2.3-0.7,3.5-0.1c5.4,2.4,10.6,5.3,16.2,7.5c1.3,0.5,2.5,1.4,2.7,3c-2.2,4.4-7.1,5.4-10.6,8.1
		c-3.3,2.5-6.9,4.2-11.5,1.8c-3.2-1.7-6.3,0.9-9.3,2c-2.8,1-5.5,2.4-8.2,3.6C448.6,328.6,442,322.2,436.6,314.8z"/>
	<path class="st44" d="M454.7,266.6c-1.3,4.4,0.2,8.6,0.9,12.9c-7.4-1.1-14.8-2.5-22.2-3.3c-3.9-0.4-4.5-2.2-4.5-5.6
		c0-3.8,2.1-4,5-4C440.7,266.6,447.7,266.6,454.7,266.6z"/>
	<path class="st21" d="M494.3,319.9c-7.4-3.6-14.4-8-22.4-10.3c-6.7-4.5-14.5-6.8-21.8-10.3c-1.9-0.9-3.9-1.8-5.8-2.6
		c-1-0.9-2-1.7-3-2.6c0.1-0.2,0.3-0.3,0.4-0.5c1.4,0.5,2.8,1,4.3,1.4c9.8,4.3,19.6,8.7,29.4,13c4.4,2.9,9.4,4.6,14.1,6.7
		c4.5,2,8.6,4.6,13.4,7.4C499.1,323,497.1,320.1,494.3,319.9z"/>
</g>
</svg>
