<?xml version="1.0" encoding="utf-8"?>
<!-- Generator: Adobe Illustrator 27.4.0, SVG Export Plug-In . SVG Version: 6.00 Build 0)  -->
<svg version="1.1" id="Layer_1" xmlns="http://www.w3.org/2000/svg" xmlns:xlink="http://www.w3.org/1999/xlink" x="0px" y="0px"
	 viewBox="0 0 720 720" style="enable-background:new 0 0 720 720;" xml:space="preserve">
<style type="text/css">
	.st0{fill:#B2B2B2;}
	.st1{fill:#616974;}
	.st2{fill:#6D7882;}
	.st3{fill:#423E42;}
	.st4{fill:#FAF4EE;}
	.st5{fill:#1B1525;}
	.st6{fill:#86979E;}
	.st7{fill:#4C5A65;}
	.st8{fill:#2A3440;}
	.st9{fill:#2A303C;}
	.st10{fill:#4E5761;}
	.st11{fill:#717D85;}
	.st12{fill:#848B90;}
	.st13{fill:#7D7172;}
	.st14{fill:#8D807E;}
	.st15{fill:#8C999F;}
	.st16{fill:#F7F7F5;}
	.st17{fill:#9FDFFF;}
	.st18{fill:#151115;}
	.st19{fill:#201A1E;}
	.st20{fill:#F5F5F4;}
	.st21{fill:#242026;}
	.st22{fill:#81797C;}
	.st23{fill:#88959B;}
	.st24{fill:#455561;}
	.st25{fill:#4E5B66;}
	.st26{fill:#687A84;}
	.st27{fill:#A8BFBF;}
	.st28{fill:#48545F;}
	.st29{fill:#9EAEB1;}
	.st30{fill:#E2C142;}
	.st31{fill:#DEC860;}
	.st32{fill:#5B6873;}
	.st33{fill:#828C94;}
	.st34{fill:#25232A;}
	.st35{fill:#22242C;}
	.st36{fill:#786A68;}
	.st37{fill:#909FA4;}
	.st38{fill:#293440;}
	.st39{fill:#302D33;}
	.st40{fill:#5B5457;}
	.st41{fill:#5C727D;}
	.st42{fill:#859CA2;}
	.st43{fill:#889FA4;}
	.st44{fill:#6A8089;}
	.st45{fill:#637681;}
	.st46{fill:#EAC966;}
	.st47{fill:#E4C566;}
</style>
<rect x="0" y="-0.5" class="st0" width="720" height="720"/>
<path class="st1" d="M182,213.4c0.6-0.6,0.8-1.3,0.7-2.1c0.7-7.7,2.3-15,9.3-19.7l0-0.1c0.9-0.7,2-1.2,3.1-1.6
	c9.4-1.3,17.9-5.3,24.9-11.3c15.9-13.7,35.6-17.6,54.9-22.7c4.7-1.3,9.2-2.7,13.5-4.9c2.7,3.9,5.9,5.6,11,4.4
	c31.2-7,62.8-11.1,94.9-9.8c1.7,0.3,3.4,0.7,5,1c2.5,1.1,5.2,0.5,7.8,0.6c2.1,0.1,4.3-0.3,6.3,0.6c0.9,0.3,1.8,0.7,2.6,1
	c2.3,1.4,4.8,0.6,7.3,0.8c1.5,0,3,0,4.4,0.4c0.9,0.4,1.8,0.8,2.7,1.3c1.7,1,3.6,0.7,5.4,0.7c1.4,0,2.8,0.1,4.1,0.6l-0.1,0.9
	c2,1.3,4.2,0.8,6.4,1.1c1.1,0.3,2,0.9,2.8,1.7c2.3,3.5,0.5,6.2-2,8.4c-7.5,6.4-7.7,15-9,23.8c-2.1,13.8-6,27.1,4.5,39.6
	c2.2,2.6,2.4,7.7,2.1,11.6c-0.9,10.7,3.1,16.5,14.3,16.5c0.7,0.9,1,1.9,0.8,3c-0.9,1.3-2.1,2.3-3.4,3c-0.8,0.5-1.7,0.9-2.5,1.3
	c-1.2,0.6-2.4,1.3-3.5,2c-1.4,1-2.9,2-4.3,2.9c-0.7,0.5-1.4,1-2.1,1.6c-0.3,0.3-0.7,0.6-1,0.9c-0.6,0.6-1.3,1.2-2,1.7
	c-1.1,0.9-2.3,1.5-3.6,1.9c-2.4,0.2-4.1,2.1-6.4,2.5c-4.3-0.2-8.6-0.4-12.9-1.2c-1.1-0.3-2.2-0.7-3.2-1.2
	c-14.9-11.7-15.2-13.1-3.7-27.2c3.2-4,4.7-8.3,4.2-13.3c-0.2-2.4-1-4.7-0.9-7.1c0.3-16.3,0.2-16.2-15.8-18.9
	c-8.4-1.4-16.8-1.2-25.2-0.8c-7.5,0.4-14.1,3.5-18.7,9.5c-5.5,7.2-12.3,12.6-20.8,15.6c-7.6,2.7-6.1,7.2-2.1,11.9
	c3.4,4,7.9,6.8,10.9,11.2c8.2,11.8,6.7,22-5.3,29.5c-6.6,4.2-8.8,7.4-1.9,13.4c7.7,6.7,8.6,15.8,7.1,25.3c-4.6,3.7-7.9,1-9.3-3
	c-3.1-8.8-9.2-9.7-17.1-8.7c-20.9,2.8-23.9,0.1-25.5-22.2c0.4-1.1,1-2.1,1.7-3c1.1-1.3,2.4-2.4,3.9-3.3c6.3-4.5,15.1-5.1,19.7-12.3
	c-0.5-0.8-1.1-1.5-1.8-2.1c-8.2-6.5-18.3-8.9-27.4-13.6c-2.5-2.9-4.9-6.2-6.6,0.6c-10.3,1.8-19.9,7-30.7,6.4
	c-10.4-4-15.9-1-17.3,9.5c-2.9,22-8.8,28-31,26.1c-14.9-1.2-30-0.1-44.6-4.3c-2.5-2.6-2.7-5.8-1.9-9c5.2-21.8,11.2-43.4,21.4-63.6
	c1.1-2.2,3-3.7,5-5.1l-0.2,0.1C180.8,215.2,181.4,214.3,182,213.4z"/>
<path class="st2" d="M459.1,258.8c-4.7-5.6-8.6,1.9-13.2,0.6c-6.8-8.1-3.2-18.7-5.7-28.1c-1.4-5.2-2.5-9.4-6.8-13.1
	c-6.6-5.5-6.7-7.7-1.5-14.8c2.3-3.1,3.3-6.2,3.2-9.9c-0.1-4-0.4-8,0.1-11.9c0.8-7.6,2-15.2,10.1-19c3.4-1.6,3.4-4,1.9-6.8
	c9.7-1.2,14.5-9.4,21.4-14.7l0.1-0.3c1.8-0.9,1.1-3.5,2.9-4.3l-0.1,0.2c1.4-2.6,2.5-5.5,5.1-7.3l-0.3,0.2c0.3-1.3,1.3-2.1,2.4-2.8
	l-0.1,0.2c0.5-1,1.5-1.7,2.1-2.7l0.1-0.3c0.8-0.4,1.3-1,1.5-1.9c0.4-0.8,0.8-1.7,1.2-2.5c-0.8-5.4,3.5-7.2,6.7-9.8l0.1-0.3
	c2-2,1.7-5.7,5-6.8l0,0c0.8-0.7,1.5-1.6,2-2.5l0.3-0.4c0.9-0.3,1.4-0.9,1.5-1.7c0.5-0.8,1-1.6,1.4-2.4c0.4-2.5,2.5-3.6,4.1-5.1
	l0.1-0.2c1.7-0.9,1.1-3.5,3-4.3l-0.2,0.2c0.5-1.2,1.4-2,2.3-2.8l-0.1,0.1c0.7-0.8,1.4-1.6,2-2.4c2-2.3,4.5-4.1,5.2-7.3
	c0.8-0.6,1.3-1.3,1.6-2.2c1.8-1.6,3.6-3.2,5.4-4.9c10.7,7.9,9.8,20.2,11.8,31.3c0.2,0.8,0.4,1.5,0.6,2.3c1.7,2.3,0.3,5.4,2,7.7
	c-0.2,0.7-0.1,1.3,0.3,1.9c1.8,2.3,0.5,5.5,2,7.9c-0.3,0.6-0.2,1.2,0.3,1.7c3,3,1,7,2,10.4c0.2,1.4,0.4,2.7,0.6,4.1
	c4.9,6.9-1.9,14.9,2,21.9l-0.1-0.1c5.8,5.9-1.3,13.5,2.5,19.6c0.1,1.4,0.2,2.8,0.3,4.3c4.3,5.3,2.7,11.2,1.9,17
	c-0.2,0.8-0.1,1.6,0.4,2.2c1.5,1.4,1,3.6,2.3,5c0.2,0.8,0.5,1.5,0.7,2.3c0.5,0.9,1,1.8,1.6,2.7c-0.1,0.8,0.1,1.5,0.7,2.1
	c0.5,0.9,1.1,1.7,1.7,2.6l-0.2-0.2c6.6,7.3,8.5,16.9,12,25.6c7,17.7,14.6,35.1,19.6,53.6c9.7-0.2,19.3-0.4,29-0.5
	c8.9-3.7,17.4-3.7,25.3,2.7c-10,0.4-20,0.8-30,1.2c-7.5,4.4-15.7,5.2-24.1,4.2c-12.7-4.5-25.3,0.7-37.8,1.3
	c-20.5,0.9-41.1,3.1-61.4,7c-2.7,0.5-5.3,1.8-7.9,2.7c-2.3,1.1-4,3.4-6.6,4.1c-10.1-2-20.1-4.3-28.9-9.7
	c-8.6-5.4-14.3-12.5-10.2-23.6c6.5-4.7,11.4,0.7,16.4,3c20.7,9.6,38.8,3.8,56.1-8.3c0.6-0.4,0.5-1.4,0.2-2.3
	c-4.8-7-13.6-8.8-18.8-15.1c-0.4-0.9-0.2-1.7,0.4-2.5c-1.5-0.3-2.3,1.3-3.7,1.5c-1.6,0.3-3.1,0-4.5-0.7c-3.6-1.8-7.2-4.8-11.1-0.5
	C467.4,259.7,463.5,261.2,459.1,258.8z"/>
<path class="st3" d="M475.9,314.4c0-2.1,0.4-3.9,2.5-4.8c0.7,0,1.5,0,2.2,0c37.6,0,75.2-7.5,112.8-1.2c5.3-0.4,10.4-0.3,14.8,3.2
	c5.4,0.2,10.8,0.5,16.2,0.7c0.4,0.4,0.9,0.9,1.3,1.3c-0.5,1.2-1.3,2.1-2.5,2.7c-2.4,1.1-5,1.4-7.7,1.5c-7.3,0.3-14.7,0.2-22,0
	c-23.2,0.5-46.5,0.7-63.5-1.8c9.9,0.5,25.9,1.8,41.2,6.4c4.9,1.5,11.7,1,12.6,8.6c-4,4.1-8.8,3.2-13.5,2.2
	c-29.2-6.7-58.5-12.5-88.3-15.7C479.7,317.3,477.5,316.4,475.9,314.4z"/>
<path class="st3" d="M641.9,313.9c1.4,0.3,2.8,0.5,4.1,0.8c0.4,0.5,0.9,1,1.3,1.5c-0.4,0.5-0.7,1.1-1.1,1.6
	c-1.1,0.8-2.2,1.4-3.5,1.7c-5.9,0.8-11.8,1.6-17.4-1.8c-1.1-1.1-1.2-2.3-0.2-3.5l-0.2,0.2C630.5,312.5,636.2,312.5,641.9,313.9z"/>
<path class="st4" d="M518.4,71.6c-0.5,0.7-1.1,1.5-1.6,2.2C517.4,73,517.9,72.3,518.4,71.6z"/>
<path class="st4" d="M482.2,122.1c-0.5,0.6-1,1.2-1.5,1.9C481.1,123.4,481.7,122.7,482.2,122.1z"/>
<path class="st5" d="M288.3,150.9c0.1,4-0.8,7-5.8,7.2c-12,0.5-22.7,7.1-34.9,7.7c-6.2,0.3-11.1,5.9-16.4,9.4
	c-9.6,6.4-18.4,14.2-29.9,17.2c-2.7,0.7-5.3,2.2-7.3-1.2c-0.8-7.1-1.5-14.1,0.4-21.1c1-2.1,1-4.4,0.4-6.6c2-3.2,0.1-7,1.8-10.2
	c0.2-1.5,0.4-3,0.5-4.5c2.3-3,0-6.9,2-9.9c0.2-1.3,0.4-2.5,0.6-3.8c0.6-1.9,0.9-3.9,1.6-5.8c0.2-1.6,0.4-3.1,0.6-4.7
	c2-2.1,0.3-5.2,2.1-7.4c0.6-0.7,0.7-1.4,0.4-2.2c1.2-1.4,1-3.4,1.7-5c0.2-1.5,0.5-3.1,0.7-4.6c1.9-2.1,0.3-5.3,2.1-7.5
	c0.6-0.7,0.7-1.4,0.3-2.2c2-2.1,0.3-5.2,2.1-7.4c0.6-0.6,0.7-1.3,0.4-2c3.8-9.6,7.7-19.1,11.2-28.8c1.4-3.8,2.4-7.6,7.5-10.1
	C253.1,79.8,270,115.8,288.3,150.9z"/>
<path class="st6" d="M81.4,622.2c-1.9-20.9,2.2-41.4,5.4-61.8c5.2-33.9,10.1-67.8,18.9-101c6.5-24.5,11.2-49.6,21.3-73.1
	c8.2,4.9,18.5,2.6,26.7,10.3c3.6,3.4,14.9,0.5,22.8,2.1c14.4,3,29.1,4.7,43.9,4.8c2.3-0.4,4.6-0.4,6.9,0.1c2.9,0.7,5.6,1.7,7.9,3.6
	c0.7,1,0.9,2.1,0.7,3.3c-3.7,15.8,9.1,32.9,25.5,32.5c16.9-0.4,32.4,1.1,45.3,13.9c12.4,12.3,12.4,17.9-2.6,26.9
	c-7.8,4.7-12,28.4-6.1,34.7c0.6,0.6,1.2,1.4,2,1.2c12.9-2.3,20.6,7,30.1,12.9c8.3,5.1,5.9,11.1,4.8,17.6c-1.2,7.2-5,7.4-11.9,7.2
	c-11.3-0.3-21.9-0.5-31.3-7.7c-1.6-1.2-4-1.9-5.7-1.1c-10.4,4.5-21.8,4.4-32.5,7.4c-6.9,1.9-7,7.2-4.9,12.5c4.9,12,6,23-4.5,33
	c-3.8,3.6-1,7.3,3,9.7c3.9,2.3,8.3,2.5,12.7,3c6,0.7,12,1.3,16.2,6.5c5.5,14.2,9,28.6,4,43.8c-5.6,3.7-7.8-0.9-10-4.5
	c-1.7-2.7-1.7-6.1-1.8-9.3c-0.6-20.1-3.9-23.6-23.6-25c-24.4-1.7-25.8-3.9-17.3-27.7c1.1-3,2.1-6,2.2-9.3
	c0.4-7.5-1.5-12.5-10.7-11.5c-11.1,1.2-22.3-1-33.4,1.1c-1.8,0.3-3.7,0.1-5.4-0.4c-6.3-3.3-6.9-9-8.9-15.4
	c-6.8-21.7,0.4-42.5,2.6-66.6c-7.2,7.9-13.7,9-21.1,6.5c-3.9-1.3-8-0.4-11.7,1.1c-11.9,4.5-24.1,5-37,2.3
	c-2.8,14.2-5.4,28.2-6.9,42.5c0.1,10.4-4.8,19.9-5.4,30.2c-0.3,5.3-0.3,9.5,4.3,13.7c5.6,5.1,4.9,7.5-2.3,11
	c-3.1,1.5-5.5,2.8-5.7,6.5C86.4,614.4,88.7,620.9,81.4,622.2z"/>
<path class="st7" d="M112.8,776c-14.1-11.4-19.3-27.6-23.7-44.2c-1.3-5-2.4-10-3.7-15c-1-3.7-2.9-4.8-7-4c-5.4,1-10.3,4.6-16.2,2.9
	c-0.8-0.7,0.8-2-0.2-2.2c-1-0.2-1.3,1.4-2,2.1c-9.1,0.5-18.3,2.5-27.1-1.7c1.9-3.9,5.3-6.9,6.6-11.3c2.6-8.9,8.5-12,16.8-9.5
	c-9.9-4.4-14.7-16.5-9.5-26.6c2.9-5.7,7.4-6.8,10.5-0.5c4.6,9.2,13.4,11.8,22,16.2c3.1-5,1-11.9,6.6-15.2c5.5-3.3,11.6-2.5,17.5-2.6
	c10.4-0.1,20.8,0.2,31.1-0.1c13.8-0.4,21.1-7,22.8-21c0.7-5.5,0.6-11.1-0.3-16.7c-1-5.5,0.9-9.5,7.1-10.2c6.4,6.3,13.5,11,23.1,9.7
	c1.1-0.1,2.4,0.3,3.5,0.7c1.9,0.7,4.1,1.6,3.8,3.9c-0.3,2.1-2.5,2.9-4.5,3.5c-3.1,0.9-6.3,1-9.5,1c-6.2,0.1-9.5,3.4-10.5,9.4
	c-0.7,3.9-1.3,7.9-1.7,11.9c-0.4,3.5,0.6,6.6,3.8,8.1c9.5,4.1,15.7,13.6,26.5,15.8c6.4,1.3,10,6.7,10.8,13.1
	c1.2,9.2,6.6,13.1,15.1,14c1.6,0.2,3.2,0.5,4.7,1c3.6,1.1,6.9,2.9,7.1,7.1c0.2,3.7-2.7,5.5-5.7,6.9c-1.6,0.8-3.4,1.1-6.6,2.3
	c8.6,1.9,15.5,3.8,22.3,5.9c14.2,4.5,18.6,9.9,18.9,25.2c0.2,10,0.7,19.9,2.7,29.8c4.4,9.5,1.6,19.2-1.6,27.7
	c-4,11.1-14.1,6.9-22.5,5.4c-4.1-6.6-5.5-14.1-4.9-21.5c0.5-6.7-1.5-9.6-7.9-10.6c-12.6-2-22.4-11.9-35.7-12.5
	c-4.4-0.2-7.9-4.3-7.3-9.5c0.7-5.8,5.2-7.4,10.3-8.1c2.9-0.4,7.4,2.4,8.3-1.8c1.1-5-4.2-5.8-7.5-7.9c-13.7-8.4-31.1-8.6-43.6-19.1
	c-13.2-11.2-28.5-11.4-44.2-10.6c-11.5,0.6-14,3.8-12.1,15.3c1.8,10.8,6.7,20.5,11.1,30.3C112.2,766.9,116.1,770.8,112.8,776z"/>
<path class="st8" d="M112.8,776c-2.7-10.1-9.3-18.4-12.5-28.3c-2.1-6.5-4.6-12.5-5-19.5c-0.5-7.9,1.4-13.5,8.1-13.9
	c14.2-0.7,28.7-2.7,42.7,2.7c5.1,2,7.8,6.4,12.3,9c15.1,8.8,32.4,11.9,47.9,19.4c7.6,3.6,3.9,10.2,5.1,17c-5.6-1.2-10.2-4-15.2-2.9
	c-3,0.6-5.4,1.7-6,4.9c-0.7,3.3,1.1,5.4,4,6.5c3,1.1,6.6,3.3,9.1,2.5c7-2.5,10.9,1.5,15.5,5.3c3.7,3.1,7.9,4.8,13.1,5
	c11.5,0.4,13,2.7,9.9,13.5c-0.7,2.6-1,4.6,0.8,6.6c3.8,4.5,2.7,8.8-0.3,13.2c-3.8,3.4-9.9,1.1-13.5,5.3c0.7,8.7-1.4,16.8-6.2,23.9
	c-2.7,4-6.4,8-11.9,4.9c-5.1-2.9-4.6-7.8-3-12.7c2.2-6.5,6.2-11.9,12.8-18.6c-5.3,0-8.6,0.1-11.9,0c-5.2-0.2-9,0.5-9.7,7.3
	c-0.5,5.1-4.5,9.2-8.1,13.1c-3.3,3.7-7.2,5.3-11.7,2.5c-3.4-2.1-3.6-9.1-0.1-13c2.6-2.9,6.1-4.9,9.9-7.9c-6.5-3.6-13.5-2.2-19.8-3.8
	c-6.6-1.7-12.5-5.2-19.4-5.7c-1.8-1.1-4.3-0.7-5.6-2.7c-0.9-0.8-1.7-1.7-2.6-2.5c-10.6-7.8-13.8-22.7-26.8-28.3l0.1,0.1
	c-0.5-1-1.4-1.8-2-2.7L112.8,776z"/>
<path class="st9" d="M163.2,617.4c-2.5,2.9-5.2,4.7-3.3,10.1c4.6,13.2,0,25.6-7.7,36.3c-2.9,4-9.3,4-14.6,4c-13.6,0-27.2,0-40.8,0.1
	c-12.7,0.1-13.7,1.2-12,14c0.3,2,1,4-0.8,5.5c-1.9,1.5-3.9,0.6-5.5-0.6c-5.9-4.3-12.4-7.3-18.8-10.5c-3.2-1.6-4.9-3.8-4.9-7.5
	c0-2.3-0.1-5.4-3.7-4.3c-2.8,0.8-3.1,3.4-2.1,5.9c1.2,2.8,0.2,5.4-0.4,8.1c-1.3,6,0.6,10.2,7.4,11c2.3,0.3,4.7,0.9,6.9,1.8
	c2.3,0.9,4.4,2.6,3.1,5.5c-1.2,2.7-3.9,2.4-6.3,1.8c-13.7-3.5-14.1-3.6-18.3,9c-1.6,4.8-4.4,6.1-8.7,6.2c-5.2-1.2-9.2-4.6-13.8-7
	c-13.8-7.2-21.2-16.8-19.9-34.1c1.7-23.7,0.4-47.6,1-71.7c5.1,26.5,20.4,43.9,46,51.4c11.1,3.3,22.8,3.8,33.1-3.9
	c2.8-8.7-0.9-17.9,2.2-26.5c0,0,0,0,0,0c3.8-4.2,0.8-9.7,2.7-14.3c5.1-7.9,13.8-5.9,20.5-5.8c17.3,0.1,34.7,2.4,51.8,5.1
	c2.8,0.4,5.2,1.7,7,4C164.7,613.4,164.8,615.4,163.2,617.4z"/>
<path class="st10" d="M293,287.8c-2.2,7.6,3.2,13.5,4.5,20.4c0.6,3.1,3.6,3.9,6.8,2.8c5.3-1.9,10.9-2.2,16.5-2.6
	c8.7-0.7,11.7,1.3,13.7,10.1c0.9,4,3.2,5.2,6.7,5.5c-7.4,4.5-3.2,18-14.8,19.3c-2.2,0.4-4,1.2-2.7,3.8c1.2,2.5,3.2,4.8,3,7.7
	c-0.7,13.6-1.7,24.7-9.5,26.3c-11.1,2.2-31.7-7.4-34.5-17.4c-2.3-8.1-6.2-11.5-14.7-8.8c-6.9,2.2-14.3,1.5-21.4,1.2
	c-7-0.2-12.4-2.9-14.5-10.2c6-8.7,16.5-8,24.8-12c3.8-1.9,8.5-1.8,10.7-3.5c-12.1,1.4-23.4,11.2-37.8,10.2
	c-3.2-6.9-8.5-7.9-15.7-6.8c-22.5,3.5-44.1,9.8-65.7,16.7c-5.4,1.7-11.8,5.9-16.3-2c0.7-0.4,1.4-0.9,2.1-1.3c1-1.6,2.1-3.1,3.7-4.2
	c18.5-8.5,38.3-13,58.1-17.1c9.6-2,18.2-4.6,23.8-13.3c15.5-0.9,30.9-1.7,46.3,0.7c-17.1-3.3-34.6,0.1-51.8-2.1
	c-7.4-7.7-17.1-9.3-27-9.8c-7.9-0.5-15.8,0.2-23.7-0.4c-4.5-0.4-10,0.1-10.9-6.5c0.3-1.6,1.3-2.3,2.9-2.1c17.6-0.5,35,2.5,52.6,2.5
	c12.9,0,19.5-6.6,20.1-19.8c0.2-4.8,0-9.3,3.2-13.6c6.7-8.9,10.5-9.1,18.4-0.2c-0.3,0.8-0.9,1.5-1.6,2.1c-1,0.9-2.1,1.7-3.1,2.5
	c-1,0.8-2.1,1.5-3.2,2.2c-0.7,0.5-1.4,0.9-2,1.4c0,0-0.8,0.8-0.8,0.9c-0.3,0.8-0.3,1.6-0.1,2.5c13.8,9.1,28,16.4,45.3,12.9
	C287.4,285.2,290.6,285,293,287.8z"/>
<path class="st11" d="M132.1,348.5c4,4.2,8.1,1.2,12.1,0c18.8-6,37.6-12.2,57.1-16c5.4-1.1,10.9-1.4,16.4-2.6
	c12.4-2.6,14.4-0.2,12.9,10.7c-0.1,0.5-0.1,1-0.2,1.4c-0.4,0.9-1,1.6-1.8,2.3c-0.8,0.6-1.6,1.2-2.4,1.7c-1.3,0.9-2.5,1.8-3.8,2.7
	c-22.2,11.9-41.5,28.1-61.5,43.2c-0.5,0.8-2.1,0.3-2.1,1.6c0,0.4,0.3-0.1,0.8-0.9c0.9-1.3-0.2,0.5,1-0.6c2.3-1.7,4.7-2.9,7.7-2.2
	c12.9,1.6,25.5,4.9,38.5,6.1c5.6,0.5,13.1,1.1,14.1,9.6c-1.1,1.2-2.4,2.3-4.1,1.9c-16.2-3.7-33.1-2.8-49.3-7.7
	c-6-1.8-14.2-2.7-19.1,4.7c-2.4-2.8-0.2-4.1,0.8-5.6c2.2-3.6,1.1-5-3-5.1c-7.3-0.2-15,0.1-19.2-7.8c0.7-11.1,5.4-21.3,7.3-33.6
	c-27.2,8.9-50.8,21.4-73.6,35.8C81.2,369.3,106.2,358.2,132.1,348.5z"/>
<path class="st12" d="M148.8,292.4c1.6,0.2,3.2,0.4,4.9,0.5c0.2,4.5,3.3,4.7,6.6,4.7c8.3,0,16.6,0.4,25,0.1c6.9-0.2,13.3,1.8,20,2.6
	c4.8,0.6,7.8,3.5,8.2,8.6c-0.3,0.3-0.4,0.7-0.8,0.9c-6.4,3.2-56.2,5.9-62.4,3.4c-0.7-0.3-1.1-1.1-1.6-1.7c0.6-1.9,1.3-3.7,1.8-5.6
	c1.7-7.4,1.2-8.5-6.4-8.2c-14.9,0.5-30-1.3-44.8,1.9c-4.9,1.1-10.2,0.2-15.3,0.2c-0.3-0.4-0.6-0.8-0.9-1.2c0.3-0.4,0.7-0.7,1-1.1
	c4-0.2,8.1-0.5,12.1-0.7c1.6-0.7,3.5-0.5,4.8-1.7c6.4-0.2,12.7-0.5,19.1-0.7c7.8-3.6,15.7-5.6,24-1.9
	C145.5,292.5,147.2,292.5,148.8,292.4z"/>
<path class="st13" d="M143.6,318.9c-9-4.8-17.8-0.3-26.6,0.7c-22.6,2.4-44.9,6.4-66.8,12.2c-0.9,0.1-1.7,0.1-2.6,0.2
	c-1,0.5-1.9,0.9-2.9,1.3c-3.1,0.4-6.2,0.9-9.3,1.3c-1.8-0.4-3-1.2-1.6-3.2c2.3-0.3,4.7-0.7,7-1c0.9-0.3,1.7-0.7,2.4-1.4
	c2.4-0.3,4.8-0.7,7.2-1c1-0.3,1.8-0.8,2.6-1.4c2.3-0.3,4.6-0.7,7-1c1-0.4,2-0.8,2.9-1.3c1.4-0.3,2.8-0.5,4.2-0.8
	c2.2-1.4,4.2-3.8,7.2-1.9c1.6-0.2,3.2-0.4,4.8-0.6c19-2.7,37.9-5.4,56.9-8.1c3.5-0.5,7.2-0.5,10.7-0.7c4.3,2.7,10-1,15,3.4
	C156,321.2,150.1,321.2,143.6,318.9z"/>
<path class="st7" d="M114.9,778.8c9,0.5,16.1,3,17.4,13.6c0.8,6.2,8.9,8.1,9.4,14.7C129.3,800.9,121.2,790.7,114.9,778.8z"/>
<path class="st14" d="M55,343.1c2.4-0.7,4.9-1.3,7.3-2c1.2,1,1.3,2,0.2,3.2c-9.5,4.3-18.6,9.7-29.3,11c5.9-4.7,12.9-7.4,19.6-10.6
	c0.9-0.2,1.6-0.7,2.1-1.5C54.8,343.2,55,343.1,55,343.1z"/>
<path class="st13" d="M33.7,331.3c-0.2,1.4,0.7,2.4,1.6,3.2c-6.2,1.9-12.5,3.7-19.9,5.9C20,332.2,28.2,334.7,33.7,331.3z"/>
<path class="st6" d="M81.4,622.2c0.6,8.9,1.8,17.9-2.2,26.5C79.5,639.9,77.4,630.8,81.4,622.2z"/>
<path class="st9" d="M59.9,715.6c-0.2-6.9,2.5-7.9,8.7-4.3c-2.8,1.9-4.7,3.1-6.5,4.3c0,0-1.1,0.2-1.1,0.2L59.9,715.6z"/>
<path class="st12" d="M83.8,299.9c-0.8,0.9-1.6,1.8-2.4,2.7c-3.2,0-6.4-0.1-9.6-0.1c-0.6-0.8-1.2-1.5-1.8-2.3
	c3.9-0.2,7.8,0.2,11.6-1.2c0.9-0.1,1.7,0.3,2.3,1C83.9,300,83.8,299.9,83.8,299.9z"/>
<path class="st7" d="M112.9,776.1c1.5,0.3,2.2,1.2,2,2.7C113.5,778.5,112.7,777.7,112.9,776.1z"/>
<path class="st14" d="M33.4,355.1c-0.5,0.3-0.6,1.8-1.6,0.5C32.4,355.8,33,355.6,33.4,355.1z"/>
<path class="st4" d="M54.8,343.2c-0.7,0.5-1.4,1-2.1,1.5C53.4,344.2,54.1,343.7,54.8,343.2z"/>
<path class="st4" d="M43.1,328.9c-0.8,0.5-1.6,0.9-2.4,1.4C41.5,329.8,42.3,329.4,43.1,328.9z"/>
<path class="st4" d="M52.9,326.5c-0.9,0.5-1.7,0.9-2.6,1.4C51.2,327.4,52.1,327,52.9,326.5z"/>
<path class="st15" d="M475.9,314.4c32.8,1.6,64.8,8.3,96.6,15.7c4,0.9,7.8,1.7,11.8,1.2c0.5-0.1,1.1-0.1,1.6-0.2
	c4.6,0.1,8.7,1.6,11.7,5.3c1.7,3,2.2,6.4,2.8,9.7c0.1,1.8-0.2,3.5-1.4,4.9c-5.5,2.1-10-1.1-14.8-3c-1.1-0.5-2.1-1-3.2-1.5
	c-1.7-0.7-3.5-0.9-5.2-1.5c-31.5-11.5-63.7-20.3-87.8-21.8c21.2,0.4,50.1,9.9,79.3,18.5c1.7,0.4,3.4,1.1,5.1,1.8
	c2.9,1.9,6.4,2.2,9.5,3.7c5.7,3.6,13.1,3.6,18.2,8.5c1.1,1.3,2,2.8,2.6,4.4c0.4,1.1,0.6,2.2,0.7,3.3c0,2.4-0.4,6-2.3,6
	c-8.5,0.1-8.6,7.3-11.5,12.2c-2.2,2.9-5.7,1-9.2,2.7c5,2.3,7.2-1.8,10.2-3c6.9,1.4,10.6,4.8,7.5,12.4c-11.1,6.9-23.8,6.2-36,7.3
	c-20.6,1.8-41.1,6-61.9,5c-3.5-1.5-3.8-3.7-1.4-6.4c6.3-7,1.7-10.9-4.2-13.9c-8.6-4.5-18.1-6.3-27.7-7.7c-12.6-1.8-14.8-5-12.9-17.5
	c0.4-2.8,1.8-6.7-0.5-8c-13.4-7.2-18.3-25.7-38.3-25.3c-11.4,0.2-23.3-4.2-35.3-2.9c-1.1-0.4-2.1-0.9-3-1.6
	c-1.1-1.5-1.3-3.1-0.9-4.9c7-5.9,3.7-15.4,7.7-22.4c0.4-1.8,1-3.5,1.9-5.1c1.8-3.2,4.4-5.7,6.2-8.8c7.3-12.4,10.2-13.4,24-7.7
	c0.8,0.1,1.5,0.1,2.3,0.1c3.7,3.9,9.1,1.4,13.3,3.4c1.1,0,2.2,0.1,3.2,0.1c1,0.5,1.8,1.2,2.4,2.1c0.1,0.5,0.2,1.1,0.4,1.6
	c0.4,15.7,4.1,20.1,19.2,26.2C463,309.5,471.2,307.5,475.9,314.4z"/>
<path class="st2" d="M415.8,273.4c-3.2,0-6.3,0.2-9.4,0c-5.7-0.3-10.3,0.4-10,7.8c0.3,6.4-7.7,6.3-9.3,11.4
	c-1.4,0.9-2.9,1.2-4.6,1.2c-16.3,0.4-15.1-0.1-9.7,14.5c4.4,11.9,4.5,25.1,1.6,37.8c-1.3,5.6-6.7,7.6-14.7,9.6
	c14.4-3.9,16.1-2.6,16,9.2c0,8.7-3,16.4-7,24c-5.6,10.4-16,7.2-24.6,8.9c-6.3-0.5-12,0.4-15.5,6.6c-4,7-12.3,6.9-18.1,10.9
	c-8.2,1.8-16.4,1.9-24.6,0c-1.9-0.7-3.3-2.1-4.6-3.6c-10.2-11.6-15.3-11.7-25.9-0.6c-1.9,1.4-4.1,1.7-6.4,1.5
	c-1.6-0.2-3.2-0.6-4.8-1c-2.1-0.4-4.2-0.6-6.3-1.3c-1-0.5-1.8-1.1-2.6-1.9l0-0.5c-2.1-1.8-5.2,0-7.2-2.1c-2.4,0-4.8,0-7.1,0
	c-6.5-5.9-14.5-7-22.9-7.4c-11.3-0.5-22.3-2.8-32.6-7.6c-0.7-3.5,2.2-4.7,4.2-6.4c0.9-0.7,1.9-1.3,2.9-1.8c1.1-0.4,2.2-0.6,3.4-0.7
	c7.3,1.5,14.4,4,22.2,1.5c5.4-1.8,9.8,2.2,14.1,5.2c18.3,12.6,28.4,12.7,46.7,0.5c10.1-6.7,16.1-6.7,25.6,1.4
	c10,8.6,21.5,1.5,32.2,3.6c2.9,0.6,3.9-4.6,4.8-7.5c2.3-7.6,4-15.4,7.8-22.5c2.1-3.9,1.2-7.6-1.2-11.2c-2.3-3.6-5.4-7.3-1.5-11.8
	c3.1-0.6,7.3-1.3,5.4-5.5c-3.4-7.5,0.3-8.9,6.4-9.4c0.9-0.1,1.8-1.4,2.6-2.1c-2.3-11.1-2.7-22.7-15-29.3c-4.2-2.3-1-7.1,3.1-9.2
	c7.2-3.9,16.7-5.9,15-17.2c-1.2-8.3-5.6-14.9-13.1-19c-3-1.7-4.2-4.6-5.9-7.3c-4-6.7-3.7-10.5,5.4-12.2c8.3-1.6,15.4-6.2,20.1-13.9
	c4.7-7.8,12.3-11.1,21-11.9c13.6-1.4,27,1.4,40.4,2.7c4.5,0.5,9.3,2.6,7.8,8.4c-1.8,7.2-3.8,13.8-1.7,21.6c1.2,4.4-0.1,10-4.9,13.9
	c-11.1,9.2-10.9,9.4-0.5,19.2C414.1,270.7,414.9,272.1,415.8,273.4z"/>
<path class="st16" d="M459.1,258.8c3.9-2.3,9-1,12.5-4.3c5.5-3.3,9.2-0.9,8.7,4.6c-0.7,7.9,0,16-1.5,23.8c-0.7,3.8-2.8,6.3-6.9,7.1
	c-8.7,1.6-29.1-7.9-34.7-16.5c0.9-0.9,1.8-1.9,2.7-2.8c0.9-0.6,1.7-1.3,2.5-2l0,0c0.8-1,1.7-1.8,2.9-2.3c1.4-0.9,2.8-1.8,4.3-2.7
	c0.9-0.9,1.8-1.8,3.1-2.1c0.6,0,1.2-0.2,1.7-0.6c0.9-0.7,1.8-1.5,3-1.9C457.9,259.3,458.5,259.2,459.1,258.8z"/>
<path class="st17" d="M240.8,266.5c1.4-0.9,2.8-1.8,4.2-2.7c0.9-1,1.9-1.8,3.3-2c0.6,0.1,1.1-0.1,1.5-0.6c10.1-3.5,19.9-8.4,31-6.8
	c3.7,8.5,0.8,17.2,1.1,25.8c0.2,4.4-4.2,5.3-7.9,5.8c-4.9,0.6-9.5-0.6-14.1-2.2c-7.9-2.8-15.8-5.5-22.1-11.4
	c-0.8-1.3-0.7-2.5,0.3-3.7L238,269C238.6,267.7,239.5,267,240.8,266.5z"/>
<path class="st18" d="M237.9,270.9c12.4,8.1,25.7,13.2,42.2,12.8c-2.5-10.3-2.7-19.9,0.7-29.2c1.1-2.1-2.6-3.3-1.5-4.3
	c1.1-1,3.6-0.7,5.4-0.4c3,0.6,0.8,3,1.3,4.5c4.2,4.6,2.7,10.4,3.2,15.7c0.7,7.7,2.1,8.6,9.7,6.8c5.8-1.4,10.5-5.3,16.1-7.1
	c1.7-0.1,3.4,0.2,4.9-1c3.6,3.1,0.6,4.7-1.6,6.1c-7.2,4.5-14.6,8.7-22.8,11.3c-1,0.4-1.8,0.9-2.5,1.7c0,0,0,0,0,0
	c-18.5,5.3-35.3,0.6-51.4-8.6c-2.8-1.6-5.5-3.2-7.5-5.8c-1.6-2-0.8-3.6,1.3-4.8C236.1,269.5,237.2,270,237.9,270.9z"/>
<path class="st19" d="M437.1,273.6c11.1,9,23.7,13.6,38.7,14.3c0.3-10.4-1.5-20.1,2-29.8c1.9-5.1-3.7-3.1-6.4-3.6
	c3.7-4.3,8.6-3.4,11.7,2.2c5.7,7.4,2.2,15.9,2.6,24.6c4.6,1.3,8.1-1.6,11.9-3.2c4.7-1.9,8.9-5.2,14.4-4.7c1.4,0.5,5.7,0.4,3.3,2.3
	c-15.3,12.3-32.3,20.3-52.9,15.9c-9.1-2-16.7-7.2-25.1-10.9c0,0-0.1,0-0.1,0c-0.6-0.9-1.4-1.5-2.4-1.8c-0.5-0.5-1.1-0.8-1.7-1
	c-1.7-0.1-1.9-0.8-0.8-2C432.3,271.6,434.8,272.7,437.1,273.6z"/>
<path class="st17" d="M317.3,271c-9.2,6.3-19.1,10.6-31.3,12.2c0-10.1,0-19.5,0-28.9c12.3,0.8,22.1,7.2,31.7,14.2
	C318.1,269.5,318,270.3,317.3,271z"/>
<path class="st2" d="M432.4,275.9c0.5,0.6,0.8,1.3,0.8,2c-3.1,0.1-6.3,0.2-9.4,0.3c-3.2,0.1-5.2-1.5-5.7-4.7
	C423,273.3,428,272.9,432.4,275.9z"/>
<path class="st10" d="M293.1,287.8c0.8-0.6,1.6-1.1,2.5-1.7C294.7,286.7,293.9,287.3,293.1,287.8z"/>
<path class="st2" d="M442.3,268.7c-0.8,0.7-1.7,1.3-2.5,2C440.7,270.1,441.5,269.4,442.3,268.7z"/>
<path class="st2" d="M317.3,271c0.1-0.8,0.2-1.6,0.3-2.5c0.8,0,1.5,0.1,2.3,0.2C319.7,270.2,318.9,271.1,317.3,271z"/>
<path class="st2" d="M445.2,266.5c-1,0.8-1.9,1.5-2.9,2.3C443.3,268,444.2,267.2,445.2,266.5z"/>
<path class="st2" d="M452.6,261.8c-1,0.7-2.1,1.4-3.1,2.1C450.5,263.1,451.5,262.4,452.6,261.8z"/>
<path class="st2" d="M457.3,259.3c-1,0.6-2,1.3-3,1.9C455.3,260.5,456.3,259.9,457.3,259.3z"/>
<path class="st20" d="M512.1,273.4c-8.9,6.8-18.9,11-31.3,13.8c2.1-10.5,3.4-20.4,2.5-30.5c1.6-0.1,3.3-0.2,4.9-0.3
	c0.8-0.9,1.5-0.7,2,0.3C497.3,262.5,506.8,265.1,512.1,273.4z"/>
<path class="st21" d="M588.7,297.3c-0.6,0.2-1.2,0.4-1.8,0.5c-3.5,3.8-8.5,4.3-13.1,4.9c-29.8,3.9-59.9,5.8-89.9,8
	c-2,0.1-4,0.1-5.7-1.2c0,0,0.1,0,0.1,0c6.3-5.8,14.7-5.4,22.2-6.6c16.4-2.6,33-3.8,49.6-5.2c7.5-0.6,15-0.8,22.5-2
	C577.9,295,583.7,293.3,588.7,297.3z"/>
<path class="st19" d="M490.1,256.8c-0.7,0-1.3-0.1-2-0.3c0.2-2,1.4-2,2.8-1.4C490.7,255.6,490.4,256.2,490.1,256.8z"/>
<path class="st22" d="M605.7,336.3c5.6,1.5,11.3,3.1,16.9,4.6c0.6,0.7,1.4,1.2,2.3,1.5c12,5.9,24,11.9,36,17.8
	c0.1,1.2,0.3,2.4,0.4,3.5c-16.2-8.8-32.9-16.6-50.4-22.5c-1.9-0.6-3.7-1.2-5-2.8c-0.9-0.4-1.2-0.9-0.9-1.4
	C605.2,336.5,605.4,336.3,605.7,336.3z"/>
<path class="st2" d="M478.3,309.5c3.2-0.1,6.5,0.3,9.5-0.5c15.9-4,32.2-4.6,48.3-6.3c14.2-1.5,28.4-2.5,42.6-4.8
	c2.7-0.4,5.5-0.1,8.3-0.2c2.1,4.7,2.1,10.5,7.1,13.8c-12.3,1.5-24.3-2.3-36.7-2c-22.2,0.6-44.3,4-66.5,2.2
	C486.6,311.4,482,312.7,478.3,309.5z"/>
<path class="st23" d="M595.9,329.3c0.2,1.3,0.3,2.6,0.5,3.9c-4.4,0.8-8.3-0.9-12.3-2.1c0,0,0.2,0.1,0.2,0.1
	c-14.6-7.7-30.9-8.8-46.6-12.1c-5.7-1.2-11.4-3.1-17.3-4.6c24.6,0,49.1,0,73.7,0c-0.1,2.3-0.1,4.7-0.2,7
	C596.6,323.6,594.7,326.9,595.9,329.3z"/>
<path class="st24" d="M627.5,540.4c2.1,15.6-1,31.1-0.7,46.7c0.4,22.8,0.2,45.6,0,68.4c-0.4,39-10.7,75.6-26.6,111
	c-6.7,14.8-18.7,24.6-30.6,34.7c-14.4,14.6-32.1,21-54.9,20.9c8.8-0.9,13.8,1.7,18.1,5.9c1.9,2.2,3.1,4.7,3.3,7.5
	c0.5,6.7-1.8,12.1-8.4,14.1c-6.6,2-10.6-2.2-13.1-7.7c-2.9-6.4-4.6-13.7-13.2-16.7c2.9,8.9,8.4,18.5-2.5,24.4
	c-8.8,4.8-13.9-2.1-18.2-8.8c-1.9-6.2-3-12.6-2.8-19.1c-17.4-1.7-34.6-7.6-52.5-2.7c-17.4,4.8-23.2-2.7-18.7-23.3
	c4-6.6,10.5-8.2,17.5-8.4c10.4-0.3,20.6-2.3,30.9-3.1c11.7-0.9,19.3-7.1,24.6-18c4.8-9.8,4.3-22.2,13.8-29.8
	c2.1-1.1,4.5-1.8,6.7-2.5c1.1-0.5,2.7-1.2,2.6-2.2c-1.4-17.4,11.9-23.3,24-28.4c12-5,14-18,23.2-24.8c1.2-0.9,0.8-3,0.2-4.5
	c-5-14.7-5.4-29.6-2.5-44.7c0.4-2.1-0.7-3.9-1.5-5.6c-2.2-5.1-6.6-5.5-11.4-5.3c-0.8,0-1.6,0.1-2.4,0c-4.7-0.7-12.6,1.6-12.6-4.9
	c0-4.9,7.7-3.6,12.2-4.1c4.2-0.5,9.3,1,11.4-4.2c2.1-5.2-0.9-8.7-4.3-12.6c-7.8-9-7.3-16.3,1.1-25.3c2.1-2.2,4.1-4.3,1.8-7.1
	c-6.7-8.5-1.9-17.2-0.6-25.8c10.6-5.5,21.4-7.3,33.5-5.5c9.8,1.5,20.1-0.1,29.1-5.1c16-8.8,20.5-6.7,21.8,11.1
	C626.4,536.7,626,538.8,627.5,540.4z"/>
<path class="st25" d="M374.8,819.3c-23.4,0.4-46.8,0.8-70.3,1.2c-4.7,0.8-9.5-0.8-14.1,1.1c-19.9,0.5-39.8-1-59.7,0.7
	c0,0-1-0.1-1-0.1s-1,0.1-1,0.1c1.8-8.6,7.7-6.8,13.5-5.3c2,0.1,4,0.1,6,0.2c14.3,0.1,13.9,0,16.2-13.8c1-6,3-11.7-0.2-17.6
	c1.3-1,2.5-2.4,4.1-2.4c19.8,0.5,39.5-5.6,59.4-1.2c16.1,3.6,23.7-2.6,24.3-19.4c0.2-5.4-1.1-11.4,4.1-15.6
	c5.9,1.5,4.6,6.7,5.1,10.7c0.8,6.3-0.8,12.7,1.5,19.7c4.6-2.2,4.9-6.9,7.1-10.2c1.3-2,2.5-4.3,5.4-4c3.5,0.4,4.2,3.2,4.8,6
	c1.4,6.1-1.3,12.9,3.2,18.4c3.8,5,8.3,9.5,10,15.8c0.4,1.1,0.7,2.3,0.9,3.5c0.3,3.1,0.1,6.1-2.2,8.5
	C386.6,818.7,379.9,815.3,374.8,819.3z"/>
<path class="st26" d="M382.1,790.6c-4.4-2.2-6.4-5-5.2-10.5c1-4.5,1.1-9.5-1.2-15.2c-4.4,4.2-5,9.8-7.7,14.1c-1.7,2.7-2,6.8-6.3,5.6
	c-3.6-1.1-3.6-4.8-3.7-8.1c-0.1-9.6-0.2-19.2-0.3-28.8c0.4-0.5,0.7-1,1.1-1.4c15.8-8.2,22.2-4.8,24.3,12.9c0.7,5.5,1.6,11,3.3,16.3
	c1.4,4.3,3.8,7.9,8.9,8.5c5.1,0.6,6.6-3.3,8.1-7.1c1.2-3,2.6-5.8,6.2-6.7c7,0.8,6.4,5.8,5.7,10.5c-0.9,5.5-3.9,10.2-6.7,14.9
	c0,3.2,0,6.4,0.1,9.6c0.2,11.7,4.4,16.2,13.9,11.1c11.7-6.3,21.7-3.1,32.4,0.1c4.3,1.3,8.7,0.6,13,0.9c3.9,0.2,8.2-0.4,9.9,4.6
	c-9.5,0.2-19,0.3-28.4,0.5c-25,0.5-49.8-1.7-74.8-2.9c4-7.1,10.9-3.9,16.7-4.8c4-3,1.6-6.2,0.3-9.4l0,0
	C390.6,798.9,389,793,382.1,790.6z"/>
<path class="st27" d="M235.3,408.4c0.8,0,1.6,0,2.3,0c2.2,1.6,4.7,0.8,7.1,1.1c1,0,1.9,0.4,2.7,1c2.4,0.1,4.8,0.1,7.2,0.2
	c9.8-2.3,19.6-3.2,28.9,2.2c9.6,0,19.2-0.1,28.8-0.1c4.1-3.3,9.4-1.2,13.8-3.2c18.6-3.3,37.2-6,55.1,2.8c8.8,4.3,17.7,3.1,25.6-0.3
	c20.8-8.8,41.6-4.8,62.5-2.3c8.8,1.1,12.5,6.5,12.3,14.8c-0.2,9.3-2.8,18.1-5.1,27c-2.1,7.4-1.4,15-2,22.5
	c-1.1,14.3-1.1,14.5,13.7,14.5c14.7,0,29.4,0.6,44.1-1.5c7.5-1.1,14.5,0.3,17.2,9c0.1,1.2-0.1,2.4-0.7,3.5c-3.7,3.1-8,0.3-11.7,1
	c-1.9-0.1,0,2.1-0.2,0.5c0-0.3,0.3-0.4,1.1-0.4c1.9,0.1,3.9-0.1,5.7,0.8c0.9,1.3,2.1,3.4,1.2,4.1c-6.2,4.7,2.1,4.8,2.2,7.4
	c-2,19-10.6,27.7-28.6,28.6c-26.8,1.4-53,7.1-79.7,9.5c-7.8,0.7-12,6.3-13.5,13.5c-4.2,19.6-5.6,39.5-4.8,59.5
	c0.4,8.7,1.5,17.5,1.4,26.3c0.5,12.5-0.9,23.3-15.3,28.4c-11.9,4.2-19.5,2.9-23.6-9c-3-8.6-7.8-11.1-15.9-10.1
	c-7.1,0-14.3,0.2-21.4-0.5c-6-1.5-11.8-1-17.5,1.9c-3.2,1.7-6.8,2.2-10.5,2.4c-17.7,1-21.3-1.5-26.6-18.3c-1.8-5.9-7-11.7,1.2-18.1
	c-7.1-2.5-14.1-1.9-18.6-7c-7.1-0.9-13.9-3.6-21.3-2.8c-1.1,0.1-2.4-0.3-3.5-0.6c-13.5-4.6-14.8-11.2-3.9-20.7
	c3.9-3.4,6.1-14.2,2.9-19.4c-2.5-4-2.7-8.3-4.2-12.4c-2.3-5.9,1.3-9.5,6.2-11c5.2-1.7,10.9-2.3,16.4-2.9c5-0.5,9.9,0.6,14.1-4.4
	c2.9-3.4,13.9-0.8,18.1,4.1c2.9,3.3,4.7,5.3,8.4,1.3c0.6-0.6,3-0.7,3.2-0.3c2.9,5.2,4.7,7.4,9.4,0.6c1.9-2.9,6.2,3.5,10.4,4.9
	c3.3-3,1.9-7.4,2.8-11c1.9-8,1.6-8.1-6.6-9.8c-2.3-0.5-4.7-0.3-5.9-3.1c-1.1-2.7,0.9-8.1-3.3-7.7c-4.9,0.4-8.6-3.3-13.9-1.5
	c-8.2,2.8-9.3,1.6-9.7-7.2c-0.3-6-0.2-11.8-1.3-17.8c-1.4-7.5,3.9-14.7,11.2-17.7c2.2-0.9,4.5-1.6,6.7-2.6c3.9-1.8,5.9-4.8,3-8.5
	c-8.8-11.4-18.1-22.5-34.4-22.7c-4-0.1-8,0.2-12,0c-5.9-0.4-13.3,2.6-17.4-1.8c-6.4-6.8-14.2-12.5-17.6-22.3
	C228.9,415.9,230.3,412.1,235.3,408.4z"/>
<path class="st26" d="M357.9,747.7c-4.5,6.6-1.2,14-2.2,21c-0.7,4.6,2,11.7-3.2,13c-7.8,2-14.6,9.4-23.8,5.1
	c-9.5-4.5-19.1-5.5-28.6,0c-1,0.5-2.4,0.8-3.4,0.5c-10.7-2.9-21.5-0.6-32.3-1.5c-3.1-10.1-2.4-20.5-2.5-30.9
	c-0.1-13.1-2.9-16.5-15.4-20.3c-9.1-2.8-18.1-6.2-27.8-6.6c-1.5-0.1-3.3-0.3-3.6-2.4c-0.3-2.5,1.5-3.8,3.4-4.1
	c3.1-0.6,6.4-0.3,9.5-1c2.5-0.6,6.1-1.2,6.1-4.7c0-3.6-3.2-4.1-6.1-4.4c-1.6-0.2-3.2,0-4.8-0.2c-9.7-1.4-17.9-3.8-17-16.6
	c0.5-6.8-4.2-11.2-11.1-11.9c-5.8-0.6-11.1-1.2-13.5-7.8c-0.6-1.6-3.1-2.3-4.6-3.6c-4.2-3.4-13-1.9-13.1-8.7
	c-0.2-9.4,1.9-18.9,4.9-28c0.9-2.7,3.8-2.6,6.2-2.6c5.5-0.1,11.1,0,16.8-1c-10.6-2.6-24.9,3.1-28.6-13.5c0-1.6-0.1-3.2-0.1-4.7
	c-5.5-16.7-1.2-22.9,15.8-22.8c0.4-0.3-0.1,0.1-1.1-0.2c-4.7-1.7-14.3,4.5-13.2-6.1c0.8-8.1,8.1-8.5,15-6.2c1.5,0.5,3.1,0.4,4.7,0.4
	c0.7,0,1.1,0.1,1.2,0.1c1-1.1-0.8-0.8-0.8-1.4c3.3-3.3,7.5-2,11.4-2.2c9.9-0.6,19.9,1.3,29.8-1.2c3.3-0.9,6.4,0.4,6.4,3.4
	c0,6.9,2.9,13.6-0.6,20.9c-2.5,5.2-5.8,10.5-5.9,16.8c-0.1,5.2,1.3,8.9,7.3,8.2c11.8-1.4,22.7,2.3,33.9,4.9c4.8,1.1,6.7,2.8,5.5,8.2
	c-1.1,4.9-0.6,10.2-1,15.3c-0.5,6.4,0.8,11.9,7.2,15c1.4,1.6,1.7,3.5,1.2,5.5c-5.5,5.5-3.9,12.7-3.7,19.2c0.3,13.5-0.5,27,1.2,40.4
	c1.2,8.9,5.6,13.7,15.1,13.2c15.9-0.8,31.9,0,47.7-3.1c6.8-1.3,14.5-2.2,18.1,6.6L357.9,747.7z"/>
<path class="st28" d="M184.7,576.4c3,0.8,6.3-0.7,11.1,2.4c-6.8,0-11.6-0.1-16.5,0c-2.8,0-5.6,0.1-8.3,0.5c-3.1,0.5-5.1,2.5-4.8,5.7
	c0.3,3,2.9,3.4,5.4,3.4c5.1,0.1,10.2,0,15.3,0c0,0.8,0,1.6,0,2.5c-5,0-9.9,0-14.9,0c-3.6,0-6.2,1.1-6.4,5.3
	c-0.2,5.6-3.2,10.7-2.5,16.4c-6.9-4.5-14.9-2.6-22.3-3.5c-16.2-1.9-32.4-4.7-48.8-3.8c-2.9,0.2-5.4,1.2-7.9,2.5
	c-0.3-9.4,8.2-6.5,12.7-8.6c0.8-3.5-1.2-5.1-3.6-5.4c-6.5-0.8-6.8-4-6.2-9.9c1.1-12.3,6-23.8,6.9-36.1c0.7-1.9,1.8-4,4-4
	c19.7-0.2,39.8-4.7,58.3,6.5c6.8,4.1,14.6,6.4,14,17c-0.3,5.6,6,6.7,10.1,9C181.7,576.4,183.2,576.4,184.7,576.4z"/>
<path class="st29" d="M278.6,670.3c0-1.6,0-3.1,0-4.7c1.4-15.5-1.8-30.6-4.9-45.7c8.3,2.5,18,0.4,25.6,6.3c-2,4.7-7.9,3.1-9.6,7.8
	c2.5,5.6,6.4,11.1,6.2,18.3c-0.2,5.2,5.2,7.7,9.3,7.6c8-0.2,16.5,2.4,24.1-2.9c4.3-3,9.2-5,14.3-1.2c-2.9,13.7,0.6,27.3,0.6,40.9
	c0,12.6-8.3,20.8-20.7,22.4c-12.8,1.6-25.3-2.7-38.1-2.5c-5.1,0.1-9.4-4.4-10.2-10.3C273.5,694.2,273.7,682,278.6,670.3z"/>
<path class="st26" d="M180.1,576.4c-12.5-0.2-12.9-0.4-13-12.1c0-3.4-0.7-5.5-3.6-6.5c-9.5-3.6-18-9.2-28.3-11.3
	c-8.9-1.8-17.1,0.6-25.5,0.9c-5.2,0.2-10.9-4.3-15.9,0.6c2.4-15.5,4.8-31,7.2-46.6c13.2,4.5,25.2,4.2,37.1-0.2
	c6.1-2.2,12-4.5,18.4-1.1c5.9,3.1,9.8,1.4,12.4-4.6c0.9-2,1.9-5.1,4.9-4.3c3.8,1.1,4.1,4.7,3.6,7.9c-1.6,10.2-3.2,20.5-5.5,30.5
	c-2,8.7-1.2,16.8,2.5,24.8c1,2.1,2.4,5.6,1.4,6.7C170.1,568.5,177.6,571.7,180.1,576.4z"/>
<path class="st11" d="M228.1,405.8c2.6,0,5.3-0.4,7.2,2.1C232.6,408.1,230,408.4,228.1,405.8z"/>
<path class="st30" d="M224.3,830.1c0.1,7.1-2.1,12.1-6.9,15.9c-1.3,1-2.8,1.3-4.3,0.2c-1.5-1.1-1.7-2.8-1-4.2
	C214.4,836.7,217.1,831.8,224.3,830.1z"/>
<path class="st31" d="M193.1,828.7c-1.3,5.8-4.5,8.6-8.3,10.9c-1.2,0.7-2.3,0.1-3.3-0.6c-1.5-1.1-1.7-2.9-0.8-4.2
	C183.4,831.1,187.1,829.2,193.1,828.7z"/>
<path class="st32" d="M326.8,340.9c-0.8,5.6,2.7,8.9,6.3,12.2c2.8,2.5,3.4,5.3,1.3,8.5c-6.9,10.6-8.1,23.2-12.3,34.8
	c-1.5,4.2-3.9,5.4-7,3c-4.8-3.8-9.3-2.7-14.6-1.5c-7.6,1.7-15.3,1.8-19.6-7c-2.1-4.3-6-5.2-10.3-3.6c-3.7,1.4-8.2,1.5-10.7,5
	c-5.9,8.2-14.2,8.5-23.4,9c-10.6,0.5-18.7-3.8-26.1-10c-5.4-4.5-10-7.5-17-3.3c-3.4,2.1-7.9,1.7-11.4-1c-2.7-2.1-5.6-3-8.9-2.7
	c2.8-7.9,10.7-10.6,16.4-15.3c11-9.1,23.7-15.6,36.1-22.7c2.2-1.3,4.8-3.2,7.5-0.5c10.2,11.4,23.1,7.3,35.3,5.7
	c3.5-0.5,6.6-4.8,10.7-1.4c3.8,3.1,6.6,6.4,7,11.9c0.6,8.7,3.3,11.6,11.3,12.4c5.2,0.5,10.1,1.5,14.9,3.6c6,2.5,8.8,0.5,9.6-6.2
	c0.4-2.8,0-5.6,0.4-8.4c1.8-11.7,1.9-11.7-7-18.5C318.6,341.6,321,336.8,326.8,340.9z"/>
<path class="st33" d="M137.2,345.7c2.7-7.8,6.1-15.5,6.5-23.9c8-6,18-5,27-7.2c14.1-3.6,29-3.3,43.6-2.3c1.6,0.1,2.9,1.1,4,2.3
	c-0.6,9.6-0.6,9.6-9.2,11.4C184.8,331.3,160.7,337.6,137.2,345.7z"/>
<path class="st34" d="M218.3,314.6c-25.2-1-50,2.3-74.6,7.2c-2.3-0.1-4.7-0.1-7-0.2c-0.6-0.6-0.7-1-0.4-1.5c0.3-0.4,0.5-0.6,0.7-0.6
	c2.2-0.2,4.4-0.5,6.6-0.7c4.8-1.7,9.8-2.8,15.6-2.6c-4.1-3.4-9.6,0.5-12.5-4.1c0.7-0.1,1.3-0.3,2-0.6c21.6-0.9,43.2-1.7,64.8-2.6
	c12,0.1,24,0.4,35.9,0.3c6.8-0.1,13.3,1.1,21.9,4.3C252,315.8,235.1,313.6,218.3,314.6z"/>
<path class="st35" d="M233,345.6c-9.8,1.7-17.3,8.1-25.4,13.1c-12.2,7.5-24,15.8-34.7,25.5c0,0-0.1,0.1-0.1,0.1
	c-1,0.6-1.7,1.5-2.7,2.1c-2.1,1-3.6,2.4-4.7,4.4c-2.4,1-4.2,3.3-7.2,2.8l0.2,0.2c11.3-15.1,27.1-25,42.2-35.5
	c7.1-4.9,14.9-8.8,22.4-13.2c1-0.4,1.9-1,2.6-1.9c0.7-0.1,1.5-0.3,2.2-0.6c1.1-0.4,1.9-1,2.5-1.9c0,0,0,0,0,0
	c12.7-4.2,25-9.9,38.7-10.9C258,337.1,244.4,338.9,233,345.6z"/>
<path class="st1" d="M237.9,270.9c-1.4-0.1-2.2-0.9-2.5-2.3c0.9,0.1,1.8,0.2,2.7,0.3C238,269.6,238,270.2,237.9,270.9z"/>
<path class="st1" d="M240.8,266.5c-0.9,0.8-1.8,1.6-2.8,2.5C238.4,267.6,239.3,266.8,240.8,266.5z"/>
<path class="st1" d="M248.2,261.9c-0.7,1.3-1.8,1.9-3.3,2C245.8,262.6,246.8,261.9,248.2,261.9z"/>
<path class="st35" d="M158.3,393.6c0,1-0.3,1.5-1.1,1.3c0,0,0-0.6,0.2-0.7c0.3-0.2,0.7-0.2,1.1-0.4
	C158.5,393.8,158.3,393.6,158.3,393.6z"/>
<path class="st10" d="M225.7,343.2c-0.9,0.6-1.7,1.3-2.6,1.9C224,344.5,224.9,343.8,225.7,343.2z"/>
<path class="st10" d="M230.4,340.7c-0.4,1.1-1.2,1.9-2.5,1.9C228.8,342,229.6,341.4,230.4,340.7z"/>
<path class="st36" d="M137,319.6c0.1,0.7,0,1.4-0.3,2.1c-6.1,3.9-13.4,3.9-20.1,5.5c-18.5,4.5-36.1,11.4-54.2,17.1
	c-0.1-1.1-0.1-2.1-0.2-3.2C86.6,331.8,111.2,323.7,137,319.6z"/>
<path class="st37" d="M473.3,451c1.7-9,3.9-17.9,4.8-27c0.9-8.9-1.2-10.9-9.9-11c-9.2-0.1-18.1-1.4-27.1-3.7
	c-9.9-2.6-19.5,2.7-28.9,5.6c-7.3,2.3-15,2-22.2,4.6c-2.5,0.9-4.6-0.3-6.7-1.7c-18-12.1-37.5-7.6-56.7-5.1c-2.6-6.8,3.2-6.9,6.9-8
	c6.5-1.9,13.2-3,18.5-7.5c6-1.5,12.4-1.9,16.2-8.5c2.8-4.9,6.8-2.4,8.1,1.2c2.9,7.7,8.8,9.5,17.2,10c-13.4-1.9-17.9-5.7-18.9-18.1
	c-0.8-9.5,0.1-19,0.5-28.5c0.3-7.1,4.4-6.4,8.7-2.6c-1.9-1.6-3.3-3.4-4.5-5.5c-0.9-1.6-1.5-3.3-2-5.1c-0.8-3.1-1.1-6.3-0.9-9.5
	c0-3.4,0.9-6.5,3.2-9c2-0.1,4.3,0.5,6-0.3c9.5-4.4,18.4-1.1,27.1,2.3c2.5,0.9,3.8,2.2,6-0.1c2.4-2.5,5-1.8,7.4,0.4
	c0.3,0.3,0.6,0.6,0.8,0.9c2,6.2,8.3,0,11.2,3.9c2.7,3.6,1,9,5.2,11.8c3,1.9,6.2,3.7,9.3,5.5c6.9,3.9,7.8,6.1,5.5,13.5
	c-3.8,12.3-2.6,13.8,10.4,15.1c10.4,1,20.4,3.7,29.7,8.6c2.5,1.3,4.8,2.7,6.4,5.2c3.8,6.2,3.1,8.7-4.2,12.8c-1,0.6-1.9,1.4-2.8,2.2
	c1.4,4.7,0.7,9.2-0.6,13.8c-1.9,7.4-0.4,15-0.8,22.5C495.5,454.8,487.4,458.9,473.3,451z"/>
<path class="st38" d="M494.9,415.3c1-3.9-1.1-8.6,2.7-11.9c9.2,1.5,18-1.9,27.1-2.7c23.2-1.9,46.4-4.9,69.6-7.5
	c1.5-0.2,2.9-1.1,4.4-1.7c3.1-2.8,6.2-2.7,9.3,0.1c2.5,5.1,3,10.6,3.2,16.1c1.6,4.1-0.3,8.6,1.5,12.6c0.2,1.6,0.5,3.1,0.7,4.7
	c4,12.5-5.8,18.7-12.1,26.3c-1.7,2-5.3,2.9-5,6.2c0.5,4.8,0.3,9.1-5.1,10.5c-7.8,2-15.8,2.3-23.5-0.4c-2.1-0.7-2.6-2.3-2.4-4.7
	c1.2-10.4-6.4-12.6-13.5-11.6c-14.6,2.2-29.4-0.5-43.9,4.5c-10,3.5-14.6-0.2-13.6-10.6c0.7-7.5-5.2-16.9,4.8-22.5
	C495.9,421.2,492.4,419.9,494.9,415.3z"/>
<path class="st32" d="M379.5,331.2c0.3,3.3,0.6,6.5,1,9.8c0.4,0.9,0.9,1.7,1.6,2.5c0.4,6.4,5.3,7.2,11.5,7.7
	c-6.4,6.9-10.3-0.5-15.8-1.5c0,9.9-0.1,19,0,28.1c0.3,17.2,4.9,21.4,21.2,19.4c-11.6,7.7-19.2,5.2-27.1-9.5
	c-4.9,6-9.8,11.8-18.2,11.5c-1.4,0.4-2.7,0.9-4.2,0.9c-1.5-0.2-2.8-0.8-4-1.7c-0.8-0.6-1.4-1.3-1.8-2.2c3.1-3.8,7.4-2.5,11.2-2.3
	c6.1,0.3,9.5-2.7,12.1-7.9c4.9-9.9,7.1-20.1,4.9-31.1c-12.5,3.1-12.5,3.1-17.5-4.5c1.9-1.5,2.7,0.7,4.1,1.1c8.1,2.6,13.6-0.6,14-9
	c0.5-9.2-0.1-18.4-0.1-27.6c0-5-3.8-7.7-6.6-11c-2.3-2.7-5.3-5.6-3.1-9.5c1.9-3.4,5.5-4.3,9.3-4.3c5.2,0,10.4-0.3,15.2,2.5
	c0,1.7,0,3.4,0,5c-0.9,0.7-1.9,1-3,0.8c-3.6-1.1-7.1-3.4-11-1c-0.5,0.6-0.8,1.3-0.9,2.1c0.1,0.8,0.3,1.6,0.7,2.3
	c0.7,1.1,1.5,2.1,2.4,3.1c1.7,1.8,3.4,3.7,4,6.2c0.6,2.3-0.3,4.2-1.2,6.2c0,1.2,0,2.5,0,3.7C379.3,324.3,377.4,328,379.5,331.2z"/>
<path class="st39" d="M581.4,348.6c-3.1-1-6.3-2-9.4-2.9c-0.6-1-1.4-1.9-2.8-1.9c-30.8-9.4-61.7-17.8-93.8-21.5
	c36.2-1.1,69.9,10.5,103.8,21.2c1,0.6,1.8,1.4,2.8,1.8c0.7,0.1,1.3,0.2,1.9,0.4C584.7,348.1,583.9,349.1,581.4,348.6z"/>
<path class="st37" d="M608,391.5c-3.1,0-6.2,0-9.3-0.1c-1.7-4.8-4.8-8.1-9.6-9.7l-0.1-0.1c0-2.8-0.1-5.6,0.1-8.4
	c0.4-5.5,1.3-9.5,8.8-6.1c4.8,2.1,2.3-3.3,3.4-5.2C604.8,371.5,606.5,381.5,608,391.5z"/>
<path class="st37" d="M475.2,329.1c7.8,2.7,16.4,4.5,24,9.1c1,0.6,5.4,17,4.7,18c-0.6,0.9-1.7,2-2.6,2c-0.9,0-2.7-1.1-2.7-1.7
	c-0.3-16.9-12.8-18.8-25.2-21c-1.7-0.3-3.2-1.5-3-3.2C470.6,330.1,472.5,329.3,475.2,329.1z"/>
<path class="st40" d="M581.4,348.6c0.9-1,1.7-1.9,2.6-2.9c4.6,1.6,9.3,3.3,13.9,4.9c9.9,5.8,19.9,11.4,29.7,17.4
	c3.7,2.2,6.8,5.3,10.2,8.1c0.5,1.2,0.1,1.7-1.2,1.3c-12-5.8-22.5-14.2-35-19.2c-1.1,0.5-2.1,0.3-3-0.6
	C593.9,352.8,586.3,353.3,581.4,348.6z"/>
<path class="st37" d="M589,381.8c-0.2,2-0.7,3.9-2.1,5.4c-4.5,4.9-8.2,4.2-10.5-1.8c-0.8-2.1-0.7-3.8,0.6-5.6
	c1.6-2.3,3.4-0.8,5.2-0.2c2.2,0.7,4.5,1.4,6.7,2.1C588.9,381.6,589,381.8,589,381.8z"/>
<path class="st2" d="M383.5,297.3c1.2,0.1,2.4,0.2,3.5,0.4c-1.3,3.1-4.4,5.3-3,9.7c1.6,5-1.3,8.3-6.1,9.9c-0.3-2.6-0.6-5.3-1-7.9
	C374.7,303,376.8,299,383.5,297.3z"/>
<path class="st3" d="M584.1,331.2c4.4-1.2,8.2,1.1,12.3,2.1c1.5,0.2,3,0.3,4.4,0.5c0.3,0.3,0.7,0.6,1,0.9c0,1-0.4,1.7-1.2,2.2
	c-1.4,0.3-2.7,0.5-3.9-0.5C592.7,334.2,587.4,335,584.1,331.2z"/>
<path class="st2" d="M379.5,331.2c-2.9-3-1.9-6.6-1.5-10.2c0.5,0.3,1,0.5,1.6,0.6C379.6,324.8,379.6,328,379.5,331.2z"/>
<path class="st37" d="M598.6,357.7c1,0.2,2,0.4,3,0.6c-0.1,0.6-0.3,1.2-0.6,1.8C600.2,359.3,599.4,358.5,598.6,357.7z"/>
<path class="st40" d="M582.1,345.4c-1.3,0-2.2-0.7-2.8-1.8C580.2,344.1,581.1,344.7,582.1,345.4z"/>
<path class="st40" d="M569.3,343.8c1.4-0.1,2.2,0.7,2.8,1.9C571.1,345.1,570.2,344.4,569.3,343.8z"/>
<path class="st2" d="M434.9,278.9c1.3,0,2,0.7,2.4,1.8C436.5,280.1,435.7,279.5,434.9,278.9z"/>
<path class="st11" d="M343.6,396.1c0.8,0.1,1.6,0.1,2.4,0.2c0.8,0.7,1.6,1.4,2.3,2.2c1.7,0.2,3.5,0.4,5.2,0.6
	c-4.7,7.3-12.8,7.3-20,8.8c-3.3,0.7-6.4,0.6-7,4.9c-4.8,0-9.5,0-14.3-0.1c0.4-2,1.2-4.2,3.5-4.2c5.5,0.1,8.7-2.4,11-7.4
	C330.4,393.5,336.2,391.9,343.6,396.1z"/>
<path class="st11" d="M283.5,412.8c-9.7-0.3-19.5,1.8-28.9-2.2c-0.2-9.5,7.8-11.7,13.7-11.2C275,400.1,283.9,402.3,283.5,412.8z"/>
<path class="st6" d="M245,410.5c-2.7,0.1-5.4,0.3-7.4-2.1c2.4-0.1,4.9-0.1,7.3-0.2c0.6,0.5,0.8,1,0.6,1.5
	C245.4,410.2,245.2,410.5,245,410.5z"/>
<path class="st11" d="M245,410.5c0-0.8,0-1.5-0.1-2.3c0.8,0.8,1.6,1.5,2.4,2.3c0,0-1.2,0.1-1.2,0.1L245,410.5z"/>
<path class="st32" d="M170.2,386.4c0.9-0.7,1.8-1.4,2.7-2.1C172,385,171.1,385.7,170.2,386.4z"/>
<path class="st41" d="M494.9,415.3c1.2,8,8.7,3.4,12.4,6c0.2,2-1,2.9-2.6,3.3c-9.2,2.3-9.2,2.3-9.3,11.1c0,2.8,0,5.6,0,8.4
	c0.2,9.1,3.8,12.8,11.3,8.9c10.4-5.3,21-3.5,31.5-4.2c2.4-0.2,5,0.4,7.1-0.4c9.4-3.4,16.6-0.7,23.4,6.3c5.8,5.9,6.3,5.7-1.3,10.9
	c15.2,1.3,18.3,1,26.6-2c-6.2-9.3-6.2-9.7,4.8-14.5c2.4-1.1,4.4-2,4.4-4.8c0-4.1,1.4-6.8,6-7.3c3.1-0.3,3.3-2.8,3.4-5.4
	c0-2.2-1.9-4.7,0.7-6.6c4.3,12.3,3.9,25.5,6.4,38.1c1.8,8.8,2.1,17.9,3.1,26.9c-2.3,3.7-5.6,5.4-9.8,5.8
	c-16.6,1.5-32.9,5.1-49.4,6.9c-5.5,0.6-11.2,1.4-15.6-3.2c-3.8-8.8-5.9-10.9-13.8-9.3c-18.2,3.5-36.6,1.2-54.8,1.9
	c-10.3,0.4-11.8-1.2-9.6-10.7c1.5-6.4,0.9-12.7,1.4-19c0.3-3.9-0.9-8.1,2.1-11.4c23.1,0.2,18.9,2.1,19.3-19.4
	c0.1-3.5-0.1-7.1-0.7-10.6C491.5,418.1,492.8,416.6,494.9,415.3z"/>
<path class="st42" d="M548,499.5c16.8,1.1,33-3.3,49.4-5.6c4.3-0.6,8.6-1.4,12.9-1.3c4.4,0.1,8.7-0.2,12.6-2.6
	c2.3,16.7,5.4,33.4,4.7,50.4c-3.7-3.4-1.8-8.3-3.6-12.4c-2.9-6.8-8.4-9.6-13.7-4.6c-10.9,10.4-24.3,8.7-37,8.7
	c-8.3,0-16.3-2.3-24.1,2.7c-2,1.3-5.5,0.6-8.2,0.8c-2.9-7.2,3.3-8.1,7.3-9.3c7.3-2.2,14.2-5,20.2-9.8c4.8-3.9,9.9-4.1,15.6-1.6
	c4.7,2,9.7,3.8,14.8-0.2c-8.9-0.4-17.8-2-26.9-0.8c-9,1.2-18.1,3.1-26.6-2.3c-1.7-0.7-6.7,1.5-3.3-3.9c1-1.5,0.7-3.8,1-5.7
	c1.1-2.1,3.9-0.9,5-2.8L548,499.5z"/>
<path class="st41" d="M612.6,420.3c-3.8-3.8-2.1-8.3-1.5-12.6C614.1,411.6,612.5,416,612.6,420.3z"/>
<path class="st40" d="M637.8,376.1c2.9,1.1,5.6,2.3,6.5,5.6l0,0c-3.7,0.5-5.7-1.9-7.7-4.3C637,377,637.4,376.5,637.8,376.1z"/>
<path class="st3" d="M600.9,338.3c0.1-0.8,0.2-1.6,0.2-2.4c0,0-0.3,0.2-0.3,0.2c0.6-0.8,1.4-1.1,2.4-0.9c0.8,0.3,1.6,0.7,2.4,1
	c0.1,0.7,0.2,1.4,0.1,2.1C604.2,338.4,602.6,338.3,600.9,338.3z"/>
<path class="st43" d="M545.3,511.8c10.4-0.1,20.8-0.6,31.2,0c7.4,0.4,14.1-2.8,21.3-2.6c4.4,0.1,8,0.6,7.9,6.4
	c-0.2,5-3.4,5.7-7.3,5.6c-6.3-0.1-12.9,1.2-17.8-4.6c-2.2-2.6-5-2.5-7.3,0c-6.9,7.8-15.6,11.9-25.8,13.4c-3.1,0.5-6.5,1.4-6.5,5.7
	c1,3,5.3,1.7,6.2,4.9c-7.3,9.2-7.5,9.3,0.2,19.4c2.2,2.9,2.1,4.9-0.5,7c-0.9,0.8-1.9,1.4-2.9,2.1c-2.5,1.9-7.3,4.7-6.9,5.8
	c1.3,4.1,1.5,8.2,2,12.3c0.2,1.6,1.3,3,3.1,3.2c5.2,0.5,6,3.6,6.1,8.2c0.5,13.8,0.7,13.8-13.2,14c-4.3,0.1-8.6,0-13,1.8
	c4.6,0.3,9.3,0.6,13.9,0.9c1.6,8.6-2.5,14.6-9.4,18.8c-5,3-12.8,2.8-14.7,9.2c-2.5,8.7-3.7,18-1.3,27.1c0.7,2.7,1.5,5.4,1.9,8.2
	c1.2,8.8-2.2,14.9-10.8,17.5c-13.1,4-20.9,11.6-22.7,26c-1.4,10.8-11.9,16.2-21.6,11.4c-6.8-3.4-11.3-3.4-16.6,2.2
	c-3.2,3.3-8.1,2.7-12.6,2.3c-18.3-1.9-19.1-1.1-17.8,17.3c0.6,3.3-0.1,6.7,0.4,10.1c0.2,2.3-0.3,4.5-2.1,6.1
	c-0.8,2.2-2.1,4.4-2.2,6.7c-0.4,5.1-1,9.5-7.5,10.1c-6.1,0.5-11-1-14-6.7c-3.4-6.5-4-13.7-4.9-20.7c-2.3-18.4-2.5-18.8-19.6-12.9
	c-0.6,0.2-1.5-0.5-2.2-0.7c-7.6-3.5-15.2-7.4-23.2-0.8c-0.8,0.7-2.3,0.9-3.4,0.7c-14.6-2.5-29.2,1.3-43.9,0.2
	c-9.2-0.7-10.5-0.7-12.3-9.6c-1.6-7.9-5.8-15.9-2-24.5c0.9-2,1.1-5.2,0.2-7c-4.6-8.8,1.4-18-1.5-26.9c-1.3-4.2,3.1-6.9,6.6-9
	c1.3,10.1-3.4,19.6-2.5,29.7c0.7,7.6,3.3,12.2,9.9,14.6c1.1,0.4,2.8,0.9,3.3,0.4c5.7-5.1,11.1-1.3,16.7,0.2
	c6.3,1.7,12.8,1.3,19.1,0.6c9.3-1,15-8.3,16-18.1c0.8-7.4-1.2-14.4-3-21.2c-1.8-6.7-1-11.5,3.9-16c1-0.9,1-2.9,1.5-4.4
	c8,0,15.9,0.1,23.9,0.1c3.4,2.1,7.2,3.3,10.3,6c6.9,6.1,7.1,10.7,0.6,17c-3.2,3.1-7.4,4.8-10.8,7.6c-6.9,5.8-6.5,8.8,2.1,11.3
	c6.5,1.9,9.8,6.4,12.7,11.9c2.4,4.6,3.9,9.8,7.2,13.8c4.4,5.4,9,4.8,11.8-1.6c2.4-5.5,3.7-11.4,4-17.5c0.3-6.5,1.8-12.7,5.9-18
	c8.5-10.7,11.3-22.5,6.9-35.7c-0.4-9.1,1-18.4-2.1-27.3c-0.7-2.2-0.7-4.8-0.3-7.1c2.9-16.9,1.3-34.1,4.9-50.9
	c3.2-14.8,9.4-19.5,25.1-18.3c2.3,0.2,4.8,0,7.1-0.5c22.8-5.7,46.2-7.6,69.6-8.6c8.5-0.4,13.8-4.6,17.1-10.9
	C542,522.5,545.3,517.6,545.3,511.8z"/>
<path class="st44" d="M408.5,757c-4.2-5.8-2.1-12.3-1.8-18.5c0.1-3.7,3.2-5.3,6.7-5.5c4.8-0.4,9.4,0.5,14.1,1.6
	c8.4,2.1,10.3,0.9,15.1-6.7c3.4-5.4,4.9-5.8,9.9-0.8c5.2,5.2,10.4,6.5,17.2,3.6c3.8-1.6,6.3-3.7,6.1-7.8c-0.8-17.6,9.5-25.5,24.7-30
	c8.9-2.6,12.1-6.9,8.3-14.9c-5.3-11-1.1-21.9-2.4-32.7c-0.7-5.4,3.6-10.4,9.3-10.9c12.2-1.1,16.4-9.7,20.1-19.2
	c10.9-0.5,10.9-0.5,12.4,6.8c3.2,5.9-0.5,10.1-4.2,13.6c-4.6,4.3-6.5,8.8-4.3,14.9c1.2,3.5,0.5,7.2-0.7,10.6
	c-2.2,6.3-4.8,12.2-4.3,19.5c0.4,5.9-5.2,9.7-9.9,12.7c-7.3,4.5-14.2,8.9-16.4,18c-0.4,1.5-1.6,2.9-3,3.7c-3.7,2-5.9,3.5-2.4,8.3
	c3,4.2,3,9.8-0.7,14.5c-2.4,0-4.7,0.1-7.1,0.1c-5.6,2.3-11.6,3.5-17.2,5.6c-3.2,1.1-5.1,3.7-7.4,6c-7.6,7.2-16.1,9.7-26.5,6.2
	C432.3,751.5,420.2,750.5,408.5,757z"/>
<path class="st45" d="M475.9,740.1c6.1-3.7,12.8-2.1,19.3-2.3c-1.5,1.8-4.4,3.6-4.4,5.4c0.3,9.7-6.3,17-8.7,25.6
	c-3.9,13.9-14.8,18.5-27.1,19.1c-11.1,0.6-21.9,4.1-33.2,2.9c-5-0.5-9,2.8-13.3,4.8c-0.6-5.2,1.2-9.8,3.3-14.4
	c1.9-4,3.1-8.4-3.4-9.7c0-2.4-0.1-4.8-0.1-7.2c7.8-6.2,16.9-2.9,25.5-3.2c10.9-0.4,21.1-1.2,30.8-7.4
	C470.5,750,472,744.3,475.9,740.1z"/>
<path class="st45" d="M535.1,646.8c-2.7-4.9,0.5-7.6,3.5-10.1c4.7-3.9,8.9-8,9.6-14.6c2.9,1.9,4.8,4,3.4,7.9
	c-4.2,11.2-1.1,22.8-1.1,34.2c0,1.2-0.2,2.9,0.4,3.5c9.4,9.2,4.4,14.6-4.8,19.1c-3.1,13.2-14.2,18.3-24.8,23.2
	c-10.5,4.8-16.9,10.9-14.4,23.4c0.5,2.7-2,4.1-4.6,4.4c-0.4-6.8,2.4-15-7.6-17.8c-0.7-0.2-1.3-1.9-1.4-3c-0.1-1.9,1.5-3.1,3.1-2.8
	c8.4,1.6,10.5-3.1,10.9-10.1c0.3-5.3,5.3-6.7,8.8-9.1c4-2.7,8.5-4.3,11.9-8c3.3-3.6,7.5-6.5,2.4-12c-2-2.2-0.2-4.4,1.4-6.3
	C537.1,662,539.6,654.8,535.1,646.8"/>
<path class="st46" d="M484.4,824.3c6.1,1.2,10.3,4.5,13,9.7c2.1,3.9,2.3,7.9-2.5,10.1c-4.4,2-7.1-1-8.2-4.5
	C485.2,834.7,482.6,829.9,484.4,824.3z"/>
<path class="st47" d="M519,827.6c4.1-0.5,6.7,1.9,8.8,4.6c1.9,2.4,4,5.2,1.5,8.4c-0.9,1.1-2.7,2.4-3.8,2.2c-3.2-0.6-3.4-3.7-4.2-6.3
	C520.5,833.6,518.3,831,519,827.6z"/>
<path class="st45" d="M382.1,790.6c9.4,2,9.4,2,9.6,14.5C388.5,800.3,385.3,795.5,382.1,790.6z"/>
<path class="st45" d="M391.7,805.1c5.5,6.8,5.5,7-0.3,9.4C391.5,811.4,391.6,808.2,391.7,805.1z"/>
<path class="st29" d="M418.3,651c6.7,13.6,5.4,26-4.1,36.6c-3.4,3.8-5.1,8.6-5.2,13.1c-0.2,8.1-3.1,15.5-4.1,23.2
	c-0.8,5.7-3.8,5.8-7.3,7.4c-4.3,2-6.7-0.5-9.3-3c-4.5-4.4-5.1-10.7-7.9-15.9c-3.7-6.9-6.6-13.8-16.8-11.1c-4,1.1-5.5-2.1-5.5-5.8
	c0-6.6,4.6-9.9,9.4-12.9c3.7-2.3,7.8-4,10.9-7.2c3.4-3.5,4.5-6.7-0.5-9.5c-4.3-2.4-7.6-5.7-10.2-9.8c2.8,0,5.6-0.3,8.3,0.1
	c4.5,0.7,8.5,2.4,8.6,8.1c0,2.9,1.1,5.3,2.7,7.7c5.4,8,7.9,7.7,16.6,4.5C416.5,671.7,420.4,663.4,418.3,651z"/>
<path class="st41" d="M548.1,499.4c-1.1,2-3.1,2.3-5,2.8c-3-0.6-6.2,0.6-11.5-2.8C538.8,499.4,543.5,499.4,548.1,499.4z"/>
<path class="st6" d="M121,523.5c-2.8,0-5.6,0.1-8.4,0c-6.6-0.4-8.8-2.7-8.7-8.5c0.1-6.5,1.4-7.4,8.9-8c6.1-0.4,11.9,0.9,17.6,2.6
	c5.2,1.6,5.3,6.5,5.7,10.7c0.2,2.2-2.2,3.1-4.3,3.1c-3.6,0.1-7.2,0-10.8,0C121,523.4,121,523.4,121,523.5z"/>
<path class="st6" d="M117.5,526.2c3.2,0,5.6-0.1,7.9,0c2.4,0.1,5,0.1,5.8,2.9c0.9,3.1,1,6-1.7,8.7c-5.3,5.2-8.4,5.4-14.7,0.3
	c-0.3-0.2-0.5-0.6-0.8-0.9c-3-2.5-10-2.4-7.6-8.4C108.5,523.8,114.4,527.1,117.5,526.2z"/>
<path class="st15" d="M410,337.6c-0.5-0.5-1.6-1.1-2-1.9c-0.5-1.4,0.7-2,1.8-1.7c0.9,0.2,2.1,0.9,2.4,1.7
	C412.6,336.9,411.8,337.7,410,337.6z"/>
<path class="st15" d="M424.7,337.5c0.5,0.5,1.3,0.9,1.5,1.5c0.2,0.8-0.6,1.3-1.5,1c-0.3-0.1-0.7-0.4-0.9-0.7
	C423.4,338.3,423.8,337.7,424.7,337.5z"/>
<path class="st15" d="M382,343.4c-0.5-0.8-1-1.7-1.6-2.5C381,341.8,381.5,342.6,382,343.4z"/>
<path class="st15" d="M383.5,297.3c-3.5,3.3-5.4,7.5-6.4,12.1c-2.6-0.7-3.9-2.8-5.1-5c-0.5-0.6-0.9-1.3-1.2-2.1
	c-0.4-0.9-0.7-1.8-1.1-2.8c-0.6-0.6-1-1.3-1.2-2.2C374.5,291.2,377.9,291.2,383.5,297.3z"/>
<path class="st2" d="M348.4,398.5c-0.8-0.7-1.6-1.5-2.3-2.2C346.8,397.1,347.6,397.8,348.4,398.5z"/>
<path class="st2" d="M370.8,302.4c0.4,0.7,0.8,1.4,1.2,2.1C371.6,303.8,371.2,303.1,370.8,302.4z"/>
<path class="st2" d="M368.4,297.5c0.4,0.7,0.8,1.4,1.2,2.2C369.2,298.9,368.8,298.2,368.4,297.5z"/>
<path class="st26" d="M475.9,740.1c-1.2,4.6-1.1,11.2-5.3,12.7c-9,3.3-14.3,13.5-26.3,11.7c-11.7-1.7-23.8-0.4-35.8-0.4
	c-2.5-2.4,0.6-4.8,0-7.2c3.8-7.2,8.8-9.5,17.4-7.7c7.6,1.5,15.4,1.3,23.1,4.4c7.3,3,13.9-1.2,19.3-6.3
	C470.8,745,472.5,741.7,475.9,740.1z"/>
<path class="st29" d="M389.3,747.8c0.2-4.7,0.3-8.5,4.2-9c4.2-0.6,6.6,2.9,7.3,6.5c0.8,4.2,1.7,8.8-2.1,12.3c-1.3,1.2-3,1.1-4.4,0.2
	C390.2,755.1,388.7,751.2,389.3,747.8z"/>
<path class="st26" d="M373.4,740.9c-2.2-0.7-3.1-2.5-2.8-4.5c0.2-2.2,1.7-3.5,4.1-2.9c1.8,0.4,2.4,1.8,2.3,3.5
	C376.7,739.2,375.7,740.7,373.4,740.9z"/>
<path class="st26" d="M426.9,740.8c-0.7,0.3-1.5,0.9-1.9,0.7c-0.5-0.2-0.6-1.2-0.8-1.9c0.7-0.3,1.5-0.9,1.9-0.7
	C426.5,739.1,426.6,740.1,426.9,740.8z"/>
<path class="st45" d="M415.5,752.9c10.2-0.6,18.4-3.1,25.7,3.3C432.5,761.2,424.9,760.6,415.5,752.9z"/>
</svg>
