<?xml version="1.0" encoding="utf-8"?>
<!-- Generator: Adobe Illustrator 27.4.0, SVG Export Plug-In . SVG Version: 6.00 Build 0)  -->
<svg version="1.1" id="Layer_1" xmlns="http://www.w3.org/2000/svg" xmlns:xlink="http://www.w3.org/1999/xlink" x="0px" y="0px"
	 viewBox="0 0 720 720" style="enable-background:new 0 0 720 720;" xml:space="preserve">
<style type="text/css">
	.st0{fill:#191919;}
	.st1{fill:#EEA89D;}
	.st2{fill:#F8E6BD;}
	.st3{fill:#FBD06E;}
	.st4{fill:#FADA95;}
	.st5{fill:#FBBE42;}
	.st6{fill:#E38911;}
	.st7{fill:#8E8A74;}
	.st8{fill:#8F7A66;}
	.st9{fill:#7A6458;}
	.st10{fill:#857668;}
	.st11{fill:#7F7164;}
	.st12{fill:#E9BAB1;}
	.st13{fill:#72505C;}
	.st14{fill:#452B3B;}
	.st15{fill:#F7A422;}
	.st16{fill:#6E5A4A;}
	.st17{fill:#F3B74C;}
	.st18{fill:#FABE48;}
	.st19{fill:#E4857B;}
	.st20{fill:#302430;}
	.st21{fill:#623E44;}
	.st22{fill:#3F2C33;}
	.st23{fill:#F6D0C7;}
	.st24{fill:#F9C254;}
	.st25{fill:#ECC9C1;}
	.st26{fill:#FCD885;}
	.st27{fill:#FBC558;}
	.st28{fill:#211D1A;}
	.st29{fill:#E3860B;}
	.st30{fill:#241C13;}
	.st31{fill:#AF5454;}
	.st32{fill:#211B16;}
	.st33{fill:#FCD78E;}
	.st34{fill:#F6E7DE;}
</style>
<rect x="0" y="-0.5" class="st0" width="720" height="720"/>
<g>
	<path class="st1" d="M207.7,881.6c-32.3-25.3-48.4-60.5-55.3-99.2c-7.3-40.9-10.2-82.5-16.1-123.7c-2.6-18.1-1.7-36.2-2.3-54.2
		c0-2.5,0.1-5,0.1-7.4c2.2-6.7-3.6-14.3,2.3-20.5c0.1-2.5,0.1-5,0.2-7.5c2-5.5,0.4-10.3-2.8-14.8c-0.2-0.7-0.5-1.4-0.7-2.1
		c5.9-1.5,6.6-5.9,6.1-10.9c1.3-1.6,0.8-3.8,2.2-5.4c0.1-2.5,0.1-5.1,0.2-7.6c1.5-1.4,1-3.6,2.2-5.1c0.1-3.4,0.2-6.8,0.4-10.2
		c1-0.8,2.1-0.9,3.3-0.2c7.7,9,18.3,12.7,29.1,16.1c14.3,4.4,28.6,8.7,43.5,10.9c4.1,0.6,8.2,1.4,11.4,4.4c4,9.5,4,11.4-4.1,14.7
		c-9,3.6-13,9.7-14.7,18.8c-1.5,7.9-4.2,15.5-5.5,23.5c-1.6,9.8-5,18.7-11.5,27.4c2.9,1.1,6,0.1,8.2,1.7c11.5,8,23,15.6,36.5,20
		c4,1.3,4.6,5.5,5.7,9.2c3.3,11.2,10.2,16.6,22,17.6c4.2,0.4,8.5,0.1,12.7,0.3c4.3,0.1,8.4,0.6,12.3,2.5c11.9,5.7,13.3,15,3.7,23.9
		c-3.1,2.9-6.9,4.9-10.6,6.8c-8,4.2-8.5,10.8-6.5,18.4c0.7,2.5,1.4,5.1,5,3.6c1.2-0.5,2.9-1.5,3.6-0.8c7.4,7.1,13.8,8,20.1-1.6
		c2-3,5.4-0.6,7.9,1c4.7,3.1,8.5,3,8.3-3.6c-0.2-7.8,3.9-12.6,9.2-17.1c3.3-2.8,5.7-6.4,7-10.4c2.3-7.1,7.3-9.9,14.5-9.9
		c8,0,16.2-1.1,24.1,0.4c9.9,1.9,19.2,0.7,28.7-1.6c3.7-0.9,7.5-1.5,11.3-1.3c30.5,1.1,60.7-2.5,91.1-4.8c6.7-0.5,13.5-1.3,20,1.6
		c8.8,9.1,19.4,5.1,28.3,2c18.7-6.6,36.9-14.4,56.8-17c11-1.5,13.8-6.1,12.6-17.4c-0.5-4.8-1-9.5,4.1-12.2c4.8-2.5,8.3,0.9,11.1,3.8
		c6.2,6.5,12.4,11.7,21.8,5.8c1-0.6,2.6-0.9,3.7-0.4c9.3,4.3,20,2.1,29.2,6.8c0.4,23.1-2.1,46.1-3.9,69.1c-1,12.6-4.4,24.9-3.2,37.6
		c-1.8,11-8.9,20.4-9.7,31.7c-6.2,12.2-7,27.1-18.3,36.8c-7.7,0.9-10,8.4-15.2,12.5c-3.3,2.6-6.3,5.6-10,7.6
		c-5.1,2.9-10.1,2.4-13.4-2.4c-3.2-4.7-0.5-8.7,3.1-12.2c2.9-2.7,9.3-4.3,7.5-8.7c-2-5-8.1-2.3-12.5-2c-26,2-52.1,2.8-78,5.8
		c-3.8,0.4-7.6,0.1-10.9-2.3c-2.1-10,5.8-14.9,10.9-21.2c2.1-2.6,5.5-4,7.4-6.9c3.8-5.7,4.2-12.2,1.5-18.2c-2.6-5.8-8.7-4.8-13.5-4
		c-8.6,1.3-16.8,0.8-24.8-2.8c-4.4-1.9-9.2-2.6-13.7-1c-24.2,9.1-49.3,4.8-74.1,5.8c-4.6,0.2-9.3-0.4-13.8,1.3c-3.4,1.2-6,3.5-6,7.3
		c0,3.7,3.4,4.9,6.2,5.3c11.1,1.5,20.8,4.1,21.9,17.9c0.1,1.8,3.1,2.7,4.9,3.7c7.2,3.9,11.6,9.6,12.1,18c-1.5,3.2-4.5,3.9-7.5,3.6
		c-10-1.2-20.1-0.3-30.3-1.6c-12.8-1.7-26.1-2-39.2-0.7c-17.4,1.7-34.6,2.2-51.9-0.3c-7.6-1.1-15.2-0.8-22.8-0.8
		c-9.3,0-18.6,0-27.9-1.7c-6.3-1.1-12.7-1-19,0.1c-14.4,2.5-28.7,1.9-42.9-1.3c-5.8-1.3-11.7-2.5-17.6-1.9c-6.4,0.7-7.2,2.7-3.7,8.2
		c2.3,3.6,5.3,6.6,8.7,9.2c6.5,5,10.3,11.1,9.2,19.6C207,871.8,211.2,876.7,207.7,881.6z"/>
	<path class="st2" d="M644.8,374.1c6.3,9.7,10.4,20.3,13.1,31.5c-2.2,2.9-5.5,2.1-8.2,1.7c-32.2-5.3-64.7-5-97.2-4.9
		c-11.8,0-23.6,1.1-35-3.5c13.1,4.6,26.6,3.7,40.1,3.6c30.8-0.2,61.6,0.2,92.2,4.9c5.7,0.9,11.8,1.2,17.6-0.7c3-0.4,6-0.9,7.9,2.2
		c-0.1,1.8-1.1,3.2-2.6,4.2c-4.4,1.6-7.3,4.9-10,8.4c-8.1,6.2-18.4,6.3-27.2,10.6c-9.5,2-17.8-3.4-26.9-4.4
		c-18.1-2.1-36.2-5.2-54.2-7.9c-12.2-2.2-24.3-6.2-34.8-4.1c9.9-3,21.4,3.2,33.2,2.9c20.6,5.6,42.1,6.2,62.9,10.7
		c2.1,0.4,4.2,0.5,6,1.8c2.3,6.3-3.4,6.5-6.6,8.2c-7.1,3.8-15.4,3.2-23,5.4c-12.1,1.9-23.7,6-35.8,7.8c-2.7,0.7-5.5,1-8.3,1.2
		c-26.2,5.6-52.6,10.1-79.5,10.2c-4.4-0.8-8.5,0.4-12.7,1.5c-6.6,1.5-13.4,0.1-20,1.2c-56.5,0.8-112.5-4.9-168.3-12.7
		c-22.2-4.8-45.1-5.4-67.2-10.6c-3.7-0.8-7.3-2.2-10.9-3.4c-1.7-0.6-3.3-1.4-4.8-2.1c-1.1-0.4-2.1-1-3.1-1.6c-1.5-0.8-3-1.8-4.2-3
		c-0.7-0.9-1.2-1.9-1.5-3c1-6.7-1.5-11.2-8.2-13.1c-1.6-5.3,2.6-9.7,2.4-14.8c5.1-3.5,11-3.3,16.8-3.3c41.9-0.5,83.7-3.8,125.6-2.6
		c1.6,0,3.3,0.3,3.7-0.1c-9.5,0.2-20.1,0.2-30.6,0.1c-36.8-0.3-73.5,2.2-110.2,3.7c-2.1,0.1-4.3,0.4-5.4-2
		c6.1-8.1,5.1-18.9,10.3-27.4c5.1-4.2,11.3-4,17-2.8c31,6.3,62.6,7.9,93.6,14.2c5.5,1.1,11.3-0.4,17.7,0.9
		c-33.3-2.2-65.2-9.1-97.5-12.7c-8.1-10-6.8-21.5,4.3-29c10.6-7.1,22.3-13.4,35.5-12c18.3,1.9,37,2.9,54.5,9.7c3,1.2,5.7,2,8.4,0.1
		c8.3-5.7,17.7-5.4,27-4.9c15.8,0.8,31.2-2.6,46.8-3.3c1.4-0.1,2.7,0.1,4,0.3c1.3,0.2,2.5,0.7,3.7,1.1c3.5,1.5,7.1,2.9,10.1,5.1
		c7.9,5.6,20.3,6.9,21.2,19.4c1.3,18.1,1.6,36.3-12.7,50.7c-0.8,0.8-1.9,1.6-2.6,1.5c6-2.1,8.2-8,10.8-13.6c1.2-2.6,1.6-6.2,5.1-6.7
		c4.6-0.6,3.4,4,4.5,6.2c1.9,3.9,4.7,6.9,7,10.4c1.4,1.7,3.2,2.8,4.9,3.9c-1.6-1.2-3.3-2.2-4.7-3.7c-1.1-1.2,0.6,0.2-0.7-1
		c-12.8-15.1-12.2-33.1-11-51.1c0.3-4.6,4-7.2,7.6-9.4c6.7-4.3,13.4-8.5,20-13.1c4.8-3.7,9.6-7.2,15.7-8.6
		c10.7-0.6,20.5-3.1,29.8-9.1c10-6.5,22.2-6.4,33.2-4.5c11.2,2,17.7-0.5,22.4-10.6c4.3-9.2,6.8-27.1,5.7-37.6
		c-1-10,1.3-20.1,0.6-30.3c-0.3-4.5,3.5-6.3,7.6-7c10.1-2,26.5,4.7,32.3,13.3c2.4,3.5,4.4,7.2,7.8,9.9c5.9,14.4,8.4,29.8,12.2,44.8
		c6.5,26.2,13.8,52,23.5,77.2c-2.6,3.1-6.1,4.8-9.9,4.9c-27.6,1.2-54.4,8-81.5,11.9c-1.6,0.5,1.2,2.3,0.1,1
		c-0.3-0.4-0.1-0.7,0.9-0.9c28.5-5.3,57-10.6,85.9-12.9C642.5,371.9,643.8,372.4,644.8,374.1z"/>
	<path class="st3" d="M390.5,332.3c-10.7,4.1-22.2,3.4-33.3,5c-6.6,1-13.5,0.3-20.2,0.2c-9.3-0.2-18.5-0.7-25.4,7.6
		c-1.8,2.2-5.1,4.4-6.7-2c-1.1-4.4-7.1-5.5-11.9-5.5c-10.1-0.1-19.7-1.3-29.7-4.2c-11-3.2-23.4-2.7-34.2,4.1
		c-2.8,1.8-6.2,2.6-9.2,4.1c-10.7,5.1-13.9,14.2-9.3,26.1c-10,4.3-19.3,1.9-28.3-3c0.1-2.2,0.2-4.4,0.3-6.6c0.5-1.1,1.3-2,2.1-2.9
		c0.9-5,1.8-10,2.8-15.1c0.8-0.9,1.4-1.8,2-2.9c0.5-3.8,0.5-7.7,1.6-11.3c11.7-38.3,19.3-77.5,27.1-116.7
		c8.2-41.3,18.3-82.2,33.4-121.7c0.8-2,1.4-4,2.2-5.9c4.1-9.6,9-11,15.7-3.4c15.1,17,29.9,34.4,42.5,53.4
		c-9.2,11.1-14.1,11.1-21.8-0.7c-6.6-10.3-12.2-21.2-20-30.7c-7-8.5-9.3-8.3-13,2.3c-9,26-14.9,52.7-18.1,80c-0.6,5,2.2,7.8,4.9,11
		c1.3,5.2,0.2,10.4,0.4,15.6c0.2-5.7,1.5-11.4-1.3-17c0.5-4.3,4.1-5.2,7.3-6c21.3-5.3,42.2-12.5,63.6-17c1.2,1.4,0.9-2,0.5-0.3
		c-0.2,0.8-0.4,0.6-1.3-0.1c-2.5-2-3.6-4.7-3.9-7.7c-0.4-3.4-0.3-7,2.8-9.2c3.4-2.4,6.5-0.5,9.3,1.3c3.5,2.2,5.9,6.2,10.7,6.4
		c7.3,4.7,14.5,1.9,21.9,0.2c6.1-1.4,13.6-1.1,17.6-5.2c4.1-4.4-1.3-11.1-1.3-16.9c0-1.2,0.3-2.4,0.8-5.1c3.5,5.6,4.8,10.4,4.9,15.7
		c0.1,4.9,2.6,6.7,7.3,6.4c5.4-0.3,10.9,0.5,16.5-1c-0.7-7.8-2.7-14.8,0.3-22.1c1.2,5.7,2.9,11.4,3.6,17.2c0.5,4.3,2.4,5.4,6.4,6
		c18.4,2.5,18.3,2.7,18.8-15.6c0-1.6,0.3-3.2,2.7-5c0.2,5.4,0.5,10.8,0.6,16.2c0.1,3.9,1.1,6.5,5.6,6.6c4.6,0.1,5.6-2.4,5.8-6.4
		c0.1-3.2-1.1-6.8,1.9-9.5c2.4,1.9,1.7,4.5,1.7,6.9c-0.2,10.2-1.9,12.2,11.8,11.6c2.7,1.8,2.3,3.9,0.7,6.1c2.4-1.1,0-5,3.3-5.7
		c0.5-0.1,1,0,1.4,0.3c3.5,2.6-0.1,7.4,2.5,10c-0.6-3.2-3.4-7,2.8-8.3c2.1,0.1,4.4-0.3,6.2,0.5c10.1,4.5,15.9-0.6,20.9-8.6
		c5.6-8.8,12.2-16.7,19.2-24.5c0.5-1,1.3-1.8,2.2-2.4l0.1-0.1c0.7-0.9,1.5-1.8,2.3-2.6l0,0c0.9-0.8,1.7-1.7,2.4-2.8
		c2.7-3.3,5.3-6.6,8-9.9c0.7-0.9,1.5-1.8,2.3-2.6l0,0c0.9-0.8,1.7-1.7,2.5-2.6l0,0c1-0.7,1.8-1.7,2.5-2.7c1.9-3.1,4.5-5.6,7.6-7.6
		c2.9-1,4.7,0.5,6,2.9c-3.6,12.1-12.4,20.8-20.2,29.9c-7.7,9-14,19-21.4,28.2c-4.2,5.2-3.4,7.9,3.5,9c5.7,0.8,12.1,0.5,15.8,6.4
		c-0.6,14.9,1.3,30.6-17.3,37.7c-4.7,1.8-10.4,6.5-9.2,12.5c3.4,16.9-11.2,20.8-20.1,28c-4.2,3.4-9.3,5.2-10.9,11.1
		c-0.7,2.5-1.9,5.5-4,6.2c-12.2,4-10.6,16.6-15.9,24.9c-3.2,4.9,2.1,6.5,4.9,8.4c4.9,3.3,10.5,5.6,13.7,10.9
		c2.7,4.5,5.4,9.1-1.1,12.8c-3.9,2.4-7.8,4.9-11.7,7.3c-2.1,0.2-4.1,0.1-6.1-0.5c-17.7-0.5-35.5-1.4-53.2,0.3
		C395.9,332.6,393.1,332.3,390.5,332.3z"/>
	<path class="st4" d="M469.5,324.7c4.5-8.9-2-13.6-7.8-17.1c-3.9-2.3-8.3-4.3-11.8-7.1c-4.6-3.6-10.9-8.6,0.8-11.7
		c3.1-0.8,4.3-3.6,2.5-5.8c-5.3-6.5-2-9.4,4.1-11.9c6.9-2.9,13-6.5,12.4-15.5c-0.2-2.9,2.2-5.3,4.5-5.4
		c13.2-0.6,16.5-15.1,27.5-18.2c-5.7-13.5,0.8-25.6,15.3-28.1c3.9-0.7,5.1-2.1,5.7-5.2c1.8-8.6,3.5-17.3,5.2-25.9
		c16.2-6.9,21.5-2.2,21.6,19c-1.4,3.5-3.3,6.8-2.7,11c0.5-2.6-0.4-5.2,1.2-7.5c1.6-1.7,1.2-3.9,1.6-6c0.9-5.2-3.4-13.1,5.9-14.3
		c7.4-0.9,14.2,1.2,17,9c7.8-7.3,5.4-16.9,4.1-26.4c-2.2-16.4-6.8-32.2-11.1-48.2c-2.3-8.4-6-12.3-14.6-11.1
		c-1.8-0.9-3.5-1.8-5.3-2.7c2.8-4.8,7.2-8.3,11.2-11.9c5.4-4.8,8.7-4.1,11.6,2.5c8.6,19.7,15.1,40.2,20.2,61.1
		c4.2,17.1,7.4,34.5,11.5,51.6c1.1,4.6,1.6,9.1,1.7,13.7c0.8,0.9,1.5,1.8,2.2,2.8c-0.1,10.5,5.6,19.9,5.5,30.4
		c-4.4,0.1-8.6-0.4-10.1-5.6c-1.3-4.5-2.7-8.9-8.2-10.1c-7.7-1.8-15.1-5.5-23.4-4.3c-3.1,0.5-4.4,2.8-3.4,5.5
		c2.9,8,1.8,15.7-0.5,23.6c-1.6,5.5,2.3,9.5,4.8,13.9c7,12.3,7,12.4-4.4,21.3c-4.1,3.2-5.1,7.2-6.3,11.8c-2.8,10-14.8,14.2-24.1,9
		c-0.7-0.4-1.6-1.3-2-1.1c-11.1,4.9-24.6-1.7-34.8,8.6C489.6,326.1,479.2,325.1,469.5,324.7z"/>
	<path class="st5" d="M187.7,436.5c3.6-0.3,6.9,0.6,9.8,2.9c-4,8.7,0.6,13,6.5,19.6c10.9,12.3,27.2,16.4,37.7,28.9
		c8,9.6,8.5,21.3,11.5,32.2c1.1,4-2.6,7-7.4,5.7c-13.2-3.6-25.9-1.3-38.5,2.8c-10.7,3.4-21.9-0.8-32.6,2.3
		c-9.2-0.5-16.3-6.2-24.3-9.7c-3.8-1.7-3.7-5.2-4.4-8.4c-0.6-1.6-0.5-3.2,0.2-4.8c0.3-3.2,0.6-6.3,0.8-9.5c0.5-1.1,1-2.1,1.5-3.2
		c0.3-3.2,0.7-6.4,1-9.6c0.3-1.2,1.2-2,1.6-3.2c0.3-3.2,0.6-6.4,1-9.6c0.9-1.8,0.9-3.9,1.7-5.7c1.1-6,2.2-12,3.4-17.9
		c1.3-1.7,1-3.9,2-5.6c0.3-2.4,0.6-4.7,1-7.1c0.5-1,1.1-1.9,1.8-2.7c0-0.8,0.1-1.5,0.4-2.3c5-4.2,10-4,15.1-0.2l-0.1,0
		c1.3,1.9,3.7,1.3,5.2,2.6c0.8,0,1.6,0.2,2.3,0.5C185.7,435.2,186.7,435.9,187.7,436.5z"/>
	<path class="st6" d="M243.3,192.6c-2.8,0.5-5.6,1-9.1,1.7c4-37.2,10.6-73.1,26.2-107.8c5.4,1.8,7.8,5.2,10.2,8.4
		c8.4,11.1,15.8,22.8,22.9,34.7c5.4,9,5.4,9,15,3.8c1.1-0.6,2.3-1.1,3.4-1.6c6.7,9.3,13.4,18.6,20.1,27.9c-9.2,7-10.7-6.9-18.2-6.4
		c-4.6,5.9,0.2,11.4,1.9,18.2C291.6,178.4,267.4,185.5,243.3,192.6C243.2,192.6,243.3,192.6,243.3,192.6z"/>
	<path class="st7" d="M169.5,397.7c52.5-1.9,105-6.1,157.9-3.2c-0.8,5.2-4,3.6-5.9,3.7c-9.7,0.4-19.4,0.8-29.1,0.5
		c-41-1.4-81.8,2.9-122.7,3.3c-7.8-0.8-15.7,0.9-24.6-1.8C153.8,396.6,161.8,398.9,169.5,397.7z"/>
	<path class="st7" d="M22.8,401.9c52.5-1.9,105-6.1,157.9-3.2c-0.8,5.2-4,3.6-5.9,3.7c-9.7,0.4-19.4,0.8-29.1,0.5
		c-41-1.4-81.8,2.9-122.7,3.3c-7.8-0.8-15.7,0.9-24.6-1.8C7.1,400.9,15.1,403.1,22.8,401.9z"/>
	<path class="st8" d="M182.3,364.7c9.4,1.6,18.7,3.9,28.3,3c16.1,2.5,32.2,5.6,48.4,7.4c17.5,1.9,34.6,6.2,52.3,6.7
		c-14.4,3.5-28.6,0.3-42.7-1.7c-19.5-2.7-38.8-7-58.6-7.1c-10-0.1-20.1-1.8-30.1-2.8c-4.6-3.8-10.8-0.7-16.4-3.8
		C169.4,360.3,176.3,366.3,182.3,364.7z"/>
	<path class="st8" d="M66.5,350.7c9.4,1.6,18.7,3.9,28.3,3c16.1,2.5,32.2,5.6,48.4,7.4c17.5,1.9,34.6,6.2,52.3,6.7
		c-14.4,3.5-28.6,0.3-42.7-1.7c-19.5-2.7-38.8-7-58.6-7.1c-10-0.1-20.1-1.8-30.1-2.8c-4.6-3.8-10.8-0.7-16.4-3.8
		C53.7,346.3,60.6,352.3,66.5,350.7z"/>
	<path class="st9" d="M644.8,374.1c-31.4,2.2-62.5,7.1-93.5,12.7c-0.1-1-0.3-1.9-0.4-2.9c31.4-5.3,62.9-10.6,94.3-15.9
		c10.1,1.1,20.2-1.1,33,1.2C665.3,371,655,372.6,644.8,374.1z"/>
	<path class="st9" d="M746.6,360.4c-31.4,2.2-62.5,7.1-93.5,12.7c-0.1-1-0.3-1.9-0.4-2.9c31.4-5.3,62.9-10.6,94.3-15.9
		c10.1,1.1,20.2-1.1,33,1.2C767.1,357.4,756.8,358.9,746.6,360.4z"/>
	<path class="st10" d="M667.3,406.5c-5.7,4.2-12.3,3.1-18.3,2.3c-38.2-4.6-76.5-5.5-114.9-5.2c-7.3,0.1-13.8-4-21.2-4.6
		c2.9,0,5.9-0.5,8.7,0.1c18.4,3.8,37.1,1.8,55.6,1.8c25.4,0,50.6,0.6,75.7,5c1.6,0.3,3.4-0.1,5-0.2
		C661,405.8,664.1,406.2,667.3,406.5z"/>
	<path class="st11" d="M462.7,159.7c-0.6,1.8-1.2,3.6-1.9,5.4c-2.8-1.2-1.2-3.9-2.1-5.8c1.3-9.6-4.2-19-1.1-30.2
		C462.9,139.7,461.3,150,462.7,159.7z"/>
	<path class="st11" d="M469.5,161.6c-3.6,1.9-1,6.5-4,9c-2.2-3.5-0.6-7.3-1.3-10.7c3.8-2.1,1.6-6.9,4.4-10.2
		C470.9,154,468.4,158,469.5,161.6z"/>
	<path class="st10" d="M673,410.7c0.7-0.7,1.5-1.4,2.2-2c5.8,0.1,11.6,0.3,17.4,0.4c0.1,0.6,0.1,1.3,0,1.9
		C686.1,416.4,679.5,416.6,673,410.7z"/>
	<path class="st4" d="M517.9,126.7c-0.7,0.8-1.5,1.6-2.2,2.4C515.9,127.9,516.7,127.1,517.9,126.7z"/>
	<path class="st4" d="M520.4,124c-0.8,0.9-1.6,1.8-2.3,2.6C518.8,125.7,519.6,124.9,520.4,124z"/>
	<path class="st4" d="M533.1,108.7c-0.8,0.9-1.6,1.7-2.3,2.6C531,110,531.8,109.1,533.1,108.7z"/>
	<path class="st4" d="M535.6,106.1c-0.8,0.9-1.7,1.7-2.5,2.6C533.9,107.9,534.8,107,535.6,106.1z"/>
	<path class="st2" d="M189.5,337.4c-0.7,1-1.3,1.9-2,2.9C188.1,339.3,188.8,338.3,189.5,337.4z"/>
	<path class="st4" d="M538,103.4c-0.8,0.9-1.7,1.8-2.5,2.7C536.4,105.2,537.2,104.3,538,103.4z"/>
	<path class="st2" d="M604,215.6c-0.7-0.9-1.5-1.8-2.2-2.8C602.6,213.8,603.3,214.7,604,215.6z"/>
	<path class="st4" d="M522.8,121.2c-0.8,0.9-1.6,1.9-2.4,2.8C521.2,123,522,122.1,522.8,121.2z"/>
	<path class="st12" d="M697.9,655.5c-9.2,1.3-18.3,1.9-26.7-3.1c-2.6-1.5-4.4-1.1-6.9,0.2c-10.7,5.4-10.7,5.2-19.5-3.6
		c-2.4-2.4-5-4.6-7.8-6.5c-3.3-2.3-6.8-0.3-6.8,3.7c0,1.6,0.9,3.2,1.1,4.9c0.6,4,4.6,7.9,1.6,12c-3.5,4.9-8.9,9.5-14.4,9.5
		c-16.1,0.1-30.1,7.6-45.1,11.4c-4,1-8.5,1.6-11.5,5c-3.2,3.7-6.8,4.4-11.3,2.4c-2.3-1-4.8,0-7.3,1c-8.3,3.4-8.3,3.3-12.8-6.6
		c3.5-15.3,2.3-30.8,0.6-46c-1.4-13.4-2.1-26.7-1.6-40.1c0.3-11.1-2.1-19.9-13.3-24.4c-1.9-0.8-3.4-2.5-4.1-4.6c1-4,4.4-5.1,7.7-5.1
		c17.2-0.4,33.5-6.2,50.5-8c2-0.1,3.9-0.9,5.9-1.3c3.2-0.8,6.4-0.9,9.6-1.7c11.7-3.2,23.8-5,35.4-8.9c6.1-1.4,12.2-2.8,18.2-4.7
		c5.9-2,12-2.9,17.7-5.3c6.6-2.5,13.3-5,19.7-8.1c3.6-1.7,7.2-4.7,11.5-1.5c9,6.8,4.4,16.4,4.6,24.7c0.3,9.6,1.1,17.1,14.5,16.5
		c-10.1,0.7-13,6.1-11.6,13.9c1.4,7.6-5.4,18.4,9.7,21.9c-6.8,1.6-10.5,4.1-9.9,10.8C696.8,627.8,699.8,641.5,697.9,655.5z"/>
	<path class="st13" d="M678,792.5c1.8-11.1,4.2-22,12.8-30.3c64.5,29.1,62.3,101.1,17.8,139.6c-7.6,0.7-10.1-7-14.9-8.8
		c1.5,1.5,4.5,3.1,6.3,5.9c1.2,1.9,2.1,4,1.1,6c-2.9,5.6-8.5,8.3-13.8,10.6c-4.8,2.1-7.7-2.1-10.2-5.6c-3.6-5.2-7.2-10.4-9.7-16.3
		c0.5-4.8,4.5-7,7.5-9.9c5.8-5.7,11.2-11.6,15.9-18.1c15.3-21.2,13.2-46.2-5.9-64.2C682.1,798.7,680,795.7,678,792.5z"/>
	<path class="st14" d="M667.6,893.9c7.5,1.5,7.9,9.3,11.7,13.9c5.6,6.7,5.2,7,12.6,2.4c2.9-1.8,6-3.2,7.7-7.3
		c-5.1-5.5-10.3-11.2-15.6-16.9c9.8,3.1,17,9.6,24.5,15.8c0,0-0.2,0.2-0.2,0.2c-0.8,0.7-1.6,1.5-2.3,2.3l-0.2,0.2
		c-0.8,0.7-1.6,1.4-2.4,2.2l-0.3,0.3c-0.7,0.8-1.5,1.6-2.3,2.2l-0.3,0.3c-0.6,0.9-1.3,1.5-2.2,1.9c-1.7,1.1-3.3,2.2-5,3.4
		c-0.8,0.6-1.7,1.3-2.5,1.9c-1.7,1.1-3.4,2.2-5.1,3.3c-0.9,0.5-1.7,1.1-2.5,1.8c-0.8,0.3-1.6,0.6-2.4,0.9c-1,0.4-1.9,0.9-2.7,1.5
		c-0.9,0.3-1.7,0.5-2.6,0.8c-0.8,0.6-1.7,1.1-2.5,1.6c-0.8,0.3-1.7,0.6-2.5,0.9c-0.8,0.6-1.7,1.1-2.5,1.6c-0.9,0.2-1.8,0.5-2.7,0.7
		c-1.4,1.4-3.5,0.8-5,2c-0.9,0.2-1.8,0.4-2.7,0.6c-1.3,1.4-3.6,0.8-4.9,2.2c-0.9,0.2-1.7,0.3-2.6,0.5c-2.3,1.8-5.4,0.1-7.7,1.9
		c-1.6,0.3-3.1,0.5-4.7,0.8c-1,0.5-2,1-3,1.4c0,0,0,1,0,1c-17.7-0.9-35.1,3.7-52.9,2.2c-5.1-0.4-8.1,2.3-9,8.2
		c-0.9,5.7,0.5,13.5-8.1,15.2c-9.4,1.8-18.6,2.3-25.2-8.1c-3.9,7.8-10.2,10-17.7,10.2c-13.7,0.2-17.1-3.1-17-16.7
		c0-6.3-0.1-12.6-0.2-18.9c0.1-10,8.2-11.1,14.9-11.9c19.8-2.4,38.6-8.6,57.7-13.5c10.2,1.7,10.2,1.7,10.4,12.5
		c0.8,0.1,0.9-0.5,1.4-1.5c2-4.6,1-13.2,8.7-11.2c6.1,1.6,2.7,8.6,2.5,13.5c-0.1,2.8-2,5.8,0.9,8.3c3.9-1.7,3.7-5.4,4.3-8.6
		c0.6-2.9,0.6-5.9,1.8-8.7c1.1-2.4,2.6-4.6,5.5-4.5c3.2,0.2,3.5,3.1,4.3,5.5c1.8,5.5-1.5,11.7,1.8,17.7c5.1-2,4.2-6.2,4.6-9.7
		c0.3-2.9,0.1-5.9,0.9-8.8c0.6-2.1,1.5-4.4,3.7-4.7c2.8-0.3,4.6,1.8,5.7,4.2c1.9,3.9,1.4,8.3,2,12.5c0.3,2.1,0.7,4.7,3.3,4.7
		c3.5,0,3.6-3,3.5-5.5c-0.1-3.4-1.6-6.6-2.1-9.9c-0.4-3-0.9-6.6,2.2-7.9c3.9-1.6,5.9,2,7.9,4.7c2.7,3.7,2.5,9,7.3,13.1
		c2.8-8.3-3.7-14-4-20.6c0-1.2,0.4-2.3,1.1-3.3c12.1-2.3,10.7,10.4,16.4,14.9c-2.3-5.9-7.6-11.1-5.1-18.5
		C666.8,894.8,667.2,894.3,667.6,893.9z"/>
	<path class="st15" d="M688.4,526.2c-10.4,3.5-19.5,10.5-30.6,12.2c-9.2-0.5-14.6-7-15.3-14.4c-1.6-18.3-9.8-35.1-11-53.3
		c-0.9-12.7-2.4-25.6,8.2-35.6c10.9-3.9,21.1-2.7,30.5,4.2c0.1,1.5,0.3,3,0.4,4.5c1,1.7,0.7,3.8,1.8,5.5c0.4,1.8,0.9,3.7,1.3,5.5
		c0,0.6,0,1.2,0,1.8c0.1,8.1,3,15.5,6,22.9c5.5,13.7,7.4,28.3,10.7,42.5C691,523.8,689.9,525.3,688.4,526.2z"/>
	<path class="st16" d="M765.5,451.9c-10.1-1.1-20.1-2.2-30.2-3.3c-6.2,1.5-12.4,2.7-17.2-3.2c-21.6-5-43.4-8.1-65.2-11.7
		c-1.7-0.3-3.2-1-4.1-2.5l-0.1,0.2c10.6-1.1,20.5,2.9,30.9,3.7c17.5,1.3,34.6,5.6,52.2,6.1c11.4-2.5,22.1-1,32.2,4.8
		C766.4,447.5,767,449.4,765.5,451.9z"/>
	<path class="st17" d="M662.8,418.8c1.6,2.6,3.2,5.2,4.7,7.8c0.4,2.3,0.8,4.6,1.2,6.9c-11,0.1-21.5-3-32.2-4.8
		C644.3,422.8,654.7,423.7,662.8,418.8z"/>
	<path class="st18" d="M673.8,456.7c-0.3-0.6-0.4-1.2,0-1.8c1.6-0.2,3.3-0.4,4.6,0.8C677.1,457,675.5,456.8,673.8,456.7z"/>
	<path class="st13" d="M642.4,937.2c2.1-2.5,4.8-2.6,7.7-1.9C647.8,937.2,645.3,937.7,642.4,937.2z"/>
	<path class="st13" d="M652.7,934.7c1.2-1.7,2.8-2.6,4.9-2.2C656.4,934.2,654.8,935.1,652.7,934.7z"/>
	<polygon class="st16" points="675.2,438.1 675.1,437.7 676.3,437.9 	"/>
	<path class="st18" d="M672.5,449.4c-1.7-1.5-2.2-3.3-1.8-5.5C672.2,445.4,673,447.2,672.5,449.4z"/>
	<path class="st13" d="M660.3,932c1.2-1.8,2.9-2.4,5-2C663.9,931.4,662.4,932.5,660.3,932z"/>
	<path class="st13" d="M706.1,904.4c0.2-1.3,1-2.1,2.3-2.3C708.2,903.3,707.4,904.1,706.1,904.4z"/>
	<path class="st13" d="M703.5,906.8c0.3-1.3,1.2-2,2.4-2.2C705.6,905.9,704.9,906.7,703.5,906.8z"/>
	<path class="st13" d="M700.9,909.3c0.2-1.3,1-2,2.3-2.2C703.1,908.5,702.4,909.2,700.9,909.3z"/>
	<path class="st13" d="M698.4,911.5c0.2-1.2,1-1.9,2.2-1.9C700.4,910.8,699.8,911.6,698.4,911.5z"/>
	<path class="st13" d="M690.8,916.7c0.4-1.2,1.2-1.9,2.5-1.9C692.9,916,692.3,916.9,690.8,916.7z"/>
	<path class="st13" d="M683.2,921.8c0.4-1.2,1.2-1.9,2.5-1.8C685.3,921.2,684.6,922,683.2,921.8z"/>
	<path class="st13" d="M678.1,924.3c0.5-1.2,1.4-1.8,2.7-1.5C680.4,924.1,679.5,924.7,678.1,924.3z"/>
	<path class="st13" d="M673,926.7c0.4-1.2,1.2-1.8,2.5-1.6C675.1,926.4,674.4,927,673,926.7z"/>
	<path class="st13" d="M667.9,929.3c0.5-1.2,1.3-1.8,2.5-1.6C670,928.8,669.3,929.5,667.9,929.3z"/>
	<path class="st13" d="M634.7,939.4c0.7-1.2,1.6-1.7,3-1.4c-0.1,0.7-0.3,1.4-0.4,2.1C636.5,939.9,635.6,939.6,634.7,939.4z"/>
	<path class="st19" d="M579.1,909.3c-19.7,7.8-40,13-61,15.1c-6.1,0.6-10.4,2.9-13.3,8c-3.6,0.4-7.4-0.7-10.7,1.8
		c-8.9-2.5-6.9-9.3-5.3-15.2c2.6-9.7,8.2-18.3,11.1-28c0.5-1.6,1.4-3,1.5-4.7c0.4-1.4,1.7-2.3,2.1-3.7c-0.8,1.1-1.2,2.4-2,3.5
		c-3.4,7-3.7,15.5-10.7,22c-7.1-13.1,3.9-21.9,5.1-32.1c-1.4,2.3-1.1,6.5-4.8,8.6c-7.3-6.8-0.6-14.5-2.3-20.2
		c-3,17.8,2,37.4-4.9,56.1c-5.3,14.5-8.6,16.8-24.5,14.7c-25.2-0.7-50.4,1.5-75.5-2c-1-0.1-2.1,1.1-3.2,1.7
		c-15.8,0.5-21.3-7.2-20.1-28.4c-0.8,3.4-0.8,8.9-3.9,7.7c-7.8-2.9-2.1-11.3-5.1-15.4c-0.1,7.2-0.1,7.2-5.2,5.4
		c-0.4-1.4-2.2-2.4-1.2-4.2c-1.2,1.8,0.8,2.7,1.1,4.1c1.8,5.6,6.1,10,7.2,15.8c0.5,2.5,1.5,5.2-0.8,7c-2.7,2.1-4.5-0.6-6.2-2.2
		c-2.7-2.5-5.6-5-6.9-7.6c1.2,5.7,11.3,7,9.9,15.4c-4.7,0.8-9.4,1.5-14.2,2.3c-6-6.6-13.3-9-22.4-9.1c-16-0.2-30.8-8.6-47-8.3
		c-17.3-4.8-31.5-15.1-45.8-25.3c-4.3-3.1-9.3-5.8-12.4-10.5c-2.3-6.9-7.4-13.2-3.1-21.5c1.4-2.7-2.1-5-4.7-6.7
		c-7.5-5-13.3-11.7-17.9-19.4c-3.2-5.5-2.1-7.6,4.1-8.2c11.5-1.2,22.7,1.1,33.9,3.5c10.5,2.2,20.9,2.1,31.4,0
		c8.4-1.7,16.8-1.9,25.1,0.1c2,0.5,4.2,1.2,6.2,1c25.8-1.7,51.4,3.6,77.2,2.8c4.6-0.2,9.2,0.1,13.8-1.5c4.9-1.7,10.2-2,15-0.3
		c5.9,2.1,11.7,1.2,17.3,0.2c5.2-0.9,10-1.7,14.4,1.9c0.6,0.5,1.6,1.4,2.2,1.2c9.6-3.1,19.6,1.5,29.1-1.5c2-2.5,4.8-3.7,7.8-3.7
		c19.9,0.3,39.5-3.5,59.2-5.4c5-0.5,10.2-0.4,14.2,3.7c17.6-1.4,35.1-2.8,52.7-4.2c4.6-0.4,9.2-0.6,13.9-0.8
		c8.8-0.2,17.7,0.9,26.4-2c3-1,6.7-0.3,10.1-0.1c3.3,0.2,5.4,2.2,6.1,5.5c0.7,3.3-0.4,5.8-3.4,7.4c-3.4,1.8-6.8,3.4-10.1,5.4
		c-2.8,1.6-4.9,4.4-2.9,7.3c2.1,3.1,6.1,6.1,9.5,2.4c4.9-5.2,12.7-7.4,15.5-14.5c2.4-6.1,7.1-6.5,12.4-6.2c1.5,1.9,1.6,4,0.6,5.9
		c-16.2,30-36.8,55.7-68.3,70.9C590.1,907.3,583.9,905.7,579.1,909.3z"/>
	<path class="st20" d="M265.8,917.3c6.4-5.4,13.6-3.9,20.4-1.5c11.2,3.9,22.5,6.1,34.5,6c11.5-0.1,11.5,0.7,14.5,13
		c-0.3,1.1-0.6,2.3-1,3.4c-1,2.1-0.9,4.2-0.1,6.3c0,3,0.1,6,0.1,9l-0.5,1.1c-5.9,10.5-14.7,13.9-26.3,11.1c-6.4-1.6-5.3-6.7-6.8-12
		c-4.1,6.8-6.2,14.6-15.8,14.7c-9.2,0.1-13.1-1.9-15.7-10.9c-2.6-8.6-2.8-17.5-2.8-26.4C266.2,926.6,266,922,265.8,917.3z"/>
	<path class="st21" d="M459.4,935.2c1.4-0.9,3-2.6,4.3-2.5c13,1.6,14.9-7.9,17.2-17c2.1-8.6,4.2-17.2,3.5-26.2
		c-1-12.3,4.1-23.9,3.9-36.2c2.8,9.4,0.7,18.9,1.6,28.5c4.6-3.5,4.5-8.8,6.3-13.3c3.2,12.8-4.3,24-5.5,37c4.9-7.4,5.5-16,11.4-21.8
		l0.7,0.6c-1.5,12.4-7.3,23.6-11.1,35.3c-1.9,5.9-1.9,10.2,2.2,14.5c1.2,5.4,1,10.9,0.1,16.2c-1.8,10.7-7.5,15.2-18.1,14.9
		c-0.8,0-1.7-0.2-2.5-0.3c-14.9-1.3-19-6.7-16.4-21.4C457.6,940.8,458.6,938,459.4,935.2z"/>
	<path class="st22" d="M349.3,932.5c-2.4-6.6-10.7-9.1-12.3-18.8c5.5,4.7,9.4,8.1,14.4,12.3c-2.1-8.8-6.5-15.9-6.4-24.1l-0.1,0.1
		c1.4-2.7,4.6,7.4,5.2-0.7c0.2-2.4,0-4.9,1.5-7.6c1.6,6.2,3.2,12.5,5.1,20c1.5-5.5,2.6-9.8,3.8-14.1c0.5-0.1,1.1-0.1,1.6-0.2
		c0.4,3.7,1.1,7.4,1,11c-0.3,12.7,3.6,22.2,17.6,24.5c0,0-0.1-0.1-0.1-0.1c0.8,0.9,1.5,1.7,2.3,2.6c4.3,8.7,1.3,16.5-4.5,22.8
		c-6.3,6.9-14.9,3.2-22.5,2.5c-3.2-0.3-4.9-3-5.1-6.2c-0.5-6.5-3.4-13.1-0.2-19.7C351.5,935,350.6,933.7,349.3,932.5z"/>
	<path class="st19" d="M382.9,937.4c-1.4-0.2-2.2-1.1-2.3-2.6C382.1,935,382.7,936,382.9,937.4z"/>
	<path class="st19" d="M333.8,954.6l-0.3-0.8c0,0,0.8-0.4,0.8-0.4c0,0,0.2,0.8,0.2,0.8L333.8,954.6z"/>
	<path class="st23" d="M512.5,571.2c3.6,1.1,7.5,1.7,10.9,3.4c5.9,3,10.1,7.4,9.7,14.9c-0.4,9.3-0.1,18.6-0.6,27.9
		c-0.1,2.5-0.5,5,0.2,7.5c3.9,12.8,2.8,25.9,2.8,39c0,1.7-0.6,3.8,0.1,5c4.7,7.7,0.2,12.4-5.2,16.9c-16.7,0-33.3,1.3-50,3.2
		c-15.7,1.8-31.7,2.6-47.7,2c-10.1-0.4-20.2-0.6-30.2,2.3c-7.2,2.1-14.5,2.3-22.3,0.6c-7.7-1.7-16-0.1-24-0.5
		c-6.7-0.3-11.1,0.6-12.4,8.7c-1,6.4-6.1,11-11.7,14.3c-3.7,2.2-5.9,5-4.1,9.3c2.2,5.5,1.4,10.4-4.1,12.8c-5.5,2.4-8.3-2.1-10.8-6.2
		c-0.4-0.6-1.4-0.9-2.1-1.3c-3,1.4-3.4,4.6-4.8,7c-5.1,8.4-9.1,8.6-14.9,0.7c-1-1.3-1.7-2.9-2.6-4.4c-3.2-0.2-2.1,2.9-3.4,4.1
		c-3.7,3.6-7.3,3.2-8.4-1.5c-1.4-5.7-2.4-11.5-2.9-17.4c-0.6-6.1,4-8.8,8.6-11.3c4.8-2.6,10.2-4.2,14-8.4c5.9-6.6,5.1-9.7-1.8-15
		c-7.3-5.7-15.5-4.2-23.2-3.6c-12,0.9-20.1-4.7-27.3-13.1c-1.7-1.9-3.8-3.9-2.6-6.6c3.5-7.6-2.3-8.9-7.1-10
		c-9.3-2.1-17.2-6.8-24.4-12.6c-10.1-8.1-9.9-8.3-20.3-2.7c-3.2-4.6,1.7-7.1,3.3-9.6c4.7-7.6,9.1-15,9.9-24.3
		c1-11.3,6-21.8,7.6-33.1c1.2-8,7.3-11.8,15.3-12.9c6.4-0.8,7.6-4.5,4.4-9.8c7.3-5.6,14.3-0.2,21.4,0.9c4.9,0.7,9.8,2.1,14.5,3.7
		c1.7,0.6,3.3,1.5,4.9,2.5c1.9,1.2,3.7,2.4,5.7,3.3c2.9,1.3,5.9,1.6,9,1.8c1.6,0.1,3.1,0.4,4.6,0.9c1.4,0.4,2.8,1.1,4.2,1.6
		c1,0.3,1.9,0.6,2.9,0.8c3.6,0.3,7.2-1,10.8-0.7c2.3,0.1,4.4,0.7,6.4,1.9c5.1,5.7,14-3.2,18.6,4.8c0.5,27.5-0.5,55,0.5,82.4
		c1,29.3,5.2,33.9,34.1,34.6c11.8,0.3,23.7,0,35.6,0c9,0,14.7-4.4,16-13.1c2.3-15.1,8.7-27,22.2-35.2c7-4.2,5.4-11.5,4.2-18.6
		c-4.7,3-7.3,7.5-11.5,10.4c-4.4,3-9.5,6.2-14.1,3.5c-12.4-7.1-25.6-3.9-38.5-4.3c-7.5-0.2-15.1-0.1-17.5-9
		c-2.5-9.3,0.2-17.6,7.5-24.1c3.9-3.4,8.8-5.2,13.9-5.8c16.8-1.7,31.4-9.5,46.2-16.9c2.8-1,5.8-1.2,8.7-1.7
		c18.5,1,36.8-2.9,55.3-2.7C501.6,567.4,507.8,566.5,512.5,571.2z"/>
	<path class="st24" d="M268.6,553.9c-10.6-0.2-20.4-4.6-30.6-6.8c-2.5-0.5-4.9-1.1-7.4-1c-3.2-2.2-6.9-2.4-10.6-3
		c-15.6-2.3-31-5.4-45.3-12.3c2.7-6,8.2-6,13-4.9c9.6,2.2,18.3-0.5,27.1-3.1c11.6-3.5,23.1-3.5,34.9,0.5c2.3-2.7,2.1-6.5,0.2-9.1
		c-3.9-5.6-8.7-10.5-5-18.1c0.2-0.5-0.3-2.1-0.7-2.2c-10.9-2.4-12.1-19.4-26.2-17.2c-1.5,0.2-4.1-1.8-5-3.5
		c-4.4-8.1-11.8-12.9-19-18.2c-7.5-5.5-7.1-6.9,1.3-12.7c1-0.7,1.5-2,2.3-3c6.4-1.6,12.3,1.5,18.3,2.5c16.7,2.9,33.8,3.2,50.2,7.6
		c2,19.7,1.6,39.8,11.8,57.9c4.4,7.7,0.2,17.5,3.8,25.2c2.5,0.6,3.7,0,4.4-1.1c9.4-14,10.9-12.3,22-0.1
		c11.3,12.4,21.7,30.2,44.9,22.2c13.7-4.7,26.5,0,36.3,11.4c1.8,2,1.8,3.6-0.1,5.3c-1.1,0.7-2.3,1.2-3.6,1.5
		c-4.6,0.8-9.3,0.6-13.8-0.3c-3.7-1-7.3-2-11.2-1.7c-1.9,0-3.8,0-5.6,0c-3.2-0.1-6.3-0.4-9.4-1.1c-3-0.9-6.2-1.4-9.3-1.8
		c-1.9-0.6-3.7-1.4-5.7-1.8c-5.3-1.3-10.9,2.8-16.1-1c-2.6-0.2-5.2-0.4-7.7-0.6c-3.1-2.3-6.5-0.5-9.7-0.5c-1,0-1.9,0-2.9,0
		c-0.8-0.3-1.6-0.8-2.3-1.3c-1.8-0.2-3.7-0.5-5.5-0.7c-0.6-0.8-0.6-1.5,0-2.1c-0.6,0.3-0.9,0.7-1.5,0.9c-2.8,0-5.5,0.5-8.1-0.6
		c-2.3-0.3-4.6-0.6-5.7-3.1C271.2,554.2,269.3,554.7,268.6,553.9z"/>
	<path class="st25" d="M533,828c-14.7-0.3-29,2.5-43.5,4.7c-12.3,1.9-25.1,0.6-37.7,0.7c-1-0.7-2.7-1.3-3-2.2
		c-2.6-8.1-7.7-12.5-16.3-13.4c-4.3-0.4-5.1-2.5-3.2-7.1c3-7.3,1.4-9.7-6.8-10.3c-4.7-0.3-9.1-1.6-13.6-2.7
		c-8.3-2.1-9.4-5.2-5.6-12.6c3.1-6,8-7.9,14.5-7.9c17.3,0.2,34.7-0.9,51.9,0.3c11.5,0.8,21.1-4.6,31.7-6.5c5.4-1,9.8-0.9,14.5,1.5
		c6.9,3.4,13.7,4.2,21.8,2.8c18.7-3.3,26.6,7.2,20,25.1c-0.7,1.9-2,4.3-3.6,4.9C543.5,809.7,540,820.5,533,828z"/>
	<path class="st25" d="M299,774.9c7.5,0.3,15.1-1.3,22,3.9c3.3,2.5,7.3,0.4,10.9-1c9.8-3.7,19.6-3.9,29.8-1.5c5.7,1.3,11.8,1,17.7,1
		c7.1,0,12.6,1.4,12.9,10.1c0.2,4.4,6.7,6.9,3.7,12.6c-3.5,6.4-8.7,10.1-15.6,11.9c-3.7,0.9-7.3,2-10.9,3.5
		c-13.5,5.5-24.5-0.9-35.8-6.8c-4-2.1-3.9-6.3-5.9-9.4c-3.1-4.7-5-4.7-8.2-0.1c-6.8,10-8,10.3-19.7,6.8c-9-2.7-17.7-5.5-24.7-12.3
		c-3.5-3.4-7.1-6.4-5.7-11.7c1.2-4.6,5.9-3.8,9.4-5.1C285.5,774.3,292.2,775.1,299,774.9z"/>
	<path class="st26" d="M388.1,568.9c1.1-4.3-2.4-2.2-3.8-2.5c-2-0.5-5.2,0-5.1-2.5c0.2-9.8-6.8-7.7-12.3-7.7
		c-6.3,0-12.5-0.2-18.8,1.6c-4.7,1.4-10.1,1-15.1,0.7c-8.6-0.6-11.5-3.1-13.4-11.8c-0.9-4.1-2.1-6.1-6.6-5.2c-6,1.2-8.7-1.7-8.8-7.5
		c0-2.6-0.7-5-2.5-7c-1.8-1.9-3.6-3.8-6.4-3.5c-3.3,0.4-3.5,3.1-3.7,5.7c-0.2,1.7-0.2,3.5-0.9,4.9c-2.2,4.5-6.7,5.3-10.8,4.8
		c-3.4-0.4-3.5-4.3-3.5-7.3c0-5.5-0.1-11,0-16.5c0.1-4.4-0.7-9.1-4.3-11.4c-6.7-4.3-6.9-10.7-5.5-16.7c1.4-6.2,0.7-11.4-2.5-16.7
		c-4.7-7.4-3.4-14.4,2-20.9c8.5-1,16.7,1.9,25,2.8c28.4,3,56.7,5.6,85.2,7.8c20.2,1.6,40.4,0.7,60.6,2.1c14.6,0.4,13.1,14.4,18,22.5
		c4.2,6.8-3.9,10.7-8.4,14.9c-8.7,8.2-7.4,15.6,3.6,20.5c8.4,3.7,12.1,10.7,12.6,18.9c0.5,8.8-7.1,11.6-13.9,14.2
		c-15.8,6.1-15.8,6.1-9.7,20.5c-2.6,0.2-5.2,0.3-7.9,0.5c-1.6,1.1-3.4,1.6-5.4,1.6c-2.6-0.5-5.2-0.4-7.8-0.5
		c-9.7-0.8-19.7,2-29.1-2.6C387.7,571.7,387.4,570.4,388.1,568.9z"/>
	<path class="st27" d="M439.1,573.6c-2.1-1.3-4.9-2.1-6.3-3.9c-5.3-6.9-3.3-13,4.8-16.6c5.7-2.6,12.3-2.7,17.7-6.3
		c4.6-3,6.3-6.3,3.8-11.6c-3.1-6.6-6.1-12.9-14.8-13.4c-2.9-0.1-5.6-1.4-8.8-2.2c-1.6-4.9,5.4-8.7,1.7-14.1c-1.6-2.3,1-4.5,3.2-6
		c3.2-2,6.3-4.2,9.4-6.4c4.1-3,5.3-6.5,0.9-10.4c-3.9-3.4-6.4-6.8-5.1-13c1.1-5.4-6.7-3.9-8.8-7.4c6.7-0.1,13.3-0.3,20-0.4
		c3.1-2.3,7.3,0.5,10.3-2.3c27.5-0.2,54.5-4.4,81.3-9.8c0.7,9.1-7.9,9.1-13.2,13.5c8.2-3.8,14.6-8.9,20.9-14
		c11.9-2.3,23.1-7.8,35.5-7.7c4.3,0.1,10,0.2,10.9,4.6c3.3,16.4,31.1,13.3,27.2,35.5c-1.1,6.1-1.1,12.4-3.5,18.3
		c-4,9.6-2.6,16.8,7.6,21.9c9.2,4.7,12.6,12.1,6.3,21.8c-5.5,2.8-11.3,4.9-17.6,4.7c-1-0.7-2.6-1.4-2.8-2.5
		c-2.3-15.3-11.9-19.7-26.1-18.3c-3.2,0.3-6.7-0.9-9.9-2.1c-5.1-1.9-8.7-5.3-9.5-10.9c-0.7-5.7,1.7-10.4,7-12.2
		c10.6-3.7,6-9.2,1.8-14.1c-9.5-11-31.5-15.3-44.7-9.4c-3.6,1.6-6.3,4.1-8.4,7.4c-10.7,16.9-8.5,46.4,4.6,61.3
		c3.1,3.5,6.3,5.4,11,4.5c10.6-2.1,21,1.1,31.6,0.9c3.5-0.1,9.1-1.2,9.2,5.5c-3.3,0.1-6.5,0.2-9.8,0.3c-0.9,0.7-1.8,1.5-2.7,2.2
		c-7.7-0.6-14.8,2.1-22.1,3.6c-9.8,2.1-19.4,4.7-29.6,4.2c-3.3-0.2-6.8-0.5-9.4,2.3C488,569.7,463.7,575.7,439.1,573.6z"/>
	<path class="st18" d="M639.9,543.6c0-2.5-0.2-5.1,0-7.6c0.6-6.7-3.2-9.9-8.8-12.1c-10.8-4.2-13.8-11.4-9.7-22.2
		c0.6-1.6,1.3-3.1,2.1-4.6c5.3-9.8,1.5-19.6-0.2-29.3c-0.8-4.7-4.4-7.5-9.3-3.8c-4,3-6.2,0.7-8.2-2.2c-0.9-1.3-1.5-3-1.8-4.6
		c-1.2-7.7-5.8-12.5-12.6-15.6c10.5-2.9,21-5.8,31.5-8.7c5.5,2.4,11.8,0.5,17.2,3.2c-9.5,22-5.3,43.5,2.7,64.8
		c1.2,3.2,2.7,6.4,2.1,9.8c-2.3,12.4,4.2,20.6,12.9,27.8C652.2,541.5,646.3,543.3,639.9,543.6z"/>
	<path class="st28" d="M454.5,329.4c1.5,0.3,2.7,1.2,3.3,2.7c-4.5,3.2-8.5,7.5-13.5,9.3c-18.5,6.6-17.5,21.2-15.6,36.1
		c1.3,10.2,5.2,19.5,10.9,28c-0.4,0.4-0.7,0.8-1.1,1.2c-6.5-3.6-8-10.4-11.2-17.2c-6.8,11.1-10.9,25.1-28.5,23.7
		c21.8-12.7,30.6-34.3,25-59.5c-0.5-2.5-2-3.5-3.8-4.5c-9.2-5-18.5-10-27.7-14.9c-0.3-0.7-0.7-1.1-1.4-1.3c0,0-0.5-0.6-0.5-0.6
		c0.7-3,3.4-2.3,5.4-2.8c0.4-0.2,0.8-0.5,1.1-0.5C416.2,329.9,435.4,332.1,454.5,329.4z"/>
	<path class="st18" d="M555.9,449.3c-2.6,10.4-12.9,12-20,17.2c-2.4,1.8-6.5,1.4-8.9-2.9c6.6-5.4,17.2-4.9,21.3-13.7
		C550.8,449.6,553.4,449.4,555.9,449.3z"/>
	<path class="st16" d="M553.6,418.7c-11.9,1.8-23.1-3.8-34.9-3.4c12-2.7,23.4,0.1,34.8,3.6C553.5,418.9,553.6,418.7,553.6,418.7z"/>
	<path class="st28" d="M439.6,405.5c3.5,2.2,7,4.3,11.6,7.2c-6.8,1-10.3-1.4-12.7-6C438.9,406.3,439.3,405.9,439.6,405.5z"/>
	<path class="st26" d="M467,459.6c-2.8,3.5-6.7,2.3-10.3,2.3C459.6,458.7,463.4,459.6,467,459.6z"/>
	<path class="st24" d="M187.7,436.5c-0.9-0.7-1.9-1.4-2.8-2.1C185.8,435.1,186.7,435.8,187.7,436.5z"/>
	<path class="st3" d="M391,333c1,0,1.4,0.4,1.4,1.3C391.6,334.2,391.1,333.8,391,333z"/>
	<path class="st29" d="M548.3,195.2c0-0.8,0-1.7,0-2.5c0.1-18.9,0.1-18.9-20.3-19.8c-4-3-8.6-2.9-13.3-3.4
		c-4.4-0.5-8.8-2.1-14.1-3.5c14.2-25.1,34.4-44.7,50.2-67.4c11.8-9.9,12.3-9.9,16.6,4.6c7,23.5,13.3,47.1,14.7,71.7
		c0.2,4,1.4,7.1-4.5,8c-7.7,1.2-1.3,9.1-5.5,13.1c-0.9-7.8,0.4-16.4-11.2-17.6c-6.9-0.7-10.7-1-10,7.4c0.3,3.3,0.4,6.9-2.4,9.5
		C548.5,195.3,548.3,195.2,548.3,195.2z"/>
	<path class="st30" d="M365.3,279c-1.7,0-3.4,0.1-5,0c-3.8-0.4-6.5-0.5-6,5c0.4,3.8-1.5,7.7-6,8.4c-5.3,0.9-7.3-2.8-8.9-7
		c-1-2.7-3.2-5.2-3.5-7.9c-0.4-3.7,7.5-8.8,10.4-6.3c5.7,4.9,13.2,4.2,19,8.1L365.3,279z"/>
	<path class="st31" d="M454.5,329.4c-6.7,0.1-13,1.6-18.8,5.3c-4.3,2.7-9.2,4.4-13.9,0.5c-7.7-6.4-16.7-6.3-25.9-5.7
		c2-1.8,4.5-2.4,7-2.4c15.7,0.1,31.3,0.2,47,0.5C451.4,327.7,453,328.8,454.5,329.4z"/>
	<path class="st30" d="M365.1,279.2c7.7,0.1,13.8,3.7,18.9,9.2c-6.7-2.3-13.1-5-18.7-9.4C365.3,279,365.1,279.2,365.1,279.2z"/>
	<path class="st6" d="M243.2,192.6c5.1,5.4,1.2,11.6,1.9,17.3C242.5,204.3,243.6,198.4,243.2,192.6
		C243.3,192.6,243.2,192.6,243.2,192.6z"/>
	<path class="st32" d="M487.9,284.4c3.2-1.5,1.8-5.2,3.8-7.5c3-3.4,8.4-4.5,9.6-1.5c3.7,9,13.6,8.1,18.9,13.9l0.2-0.2
		c-2.5,0-4.9-0.5-7.4-1.5c-3.8-1.6-6.3-1.2-8.8,3.5c-4,7.4-5.9,7-13,0.3c0.2-0.9-0.2-1.4-1.1-1.6c-0.2-1.7-1.2-2.8-2.8-3.3
		c-0.2-0.4-0.4-0.9-0.6-1.3C487,284.9,487.5,284.7,487.9,284.4z"/>
	<path class="st3" d="M482.2,290.6c-2.9,2.9-6.1,5.2-12.2,5.5c4.3-4.9,8.3-7.3,12.8-9.1C483.4,288.4,483.2,289.6,482.2,290.6z"/>
	<path class="st29" d="M548.5,195.3c-0.1,3.3-0.3,6.6-0.5,12.1c-2.4-5.7-2.5-9,0.4-12.2C548.3,195.2,548.5,195.3,548.5,195.3z"/>
	<path class="st32" d="M482.2,290.6c0.2-1.2,0.4-2.4,0.6-3.6c0.8,0.3,1.5,0.1,2.1-0.5c0.9-0.8,1.8-0.7,2.5,0.2c0,0-0.2-0.3-0.2-0.3
		C485.6,287.9,483.9,289.2,482.2,290.6z"/>
	<path class="st32" d="M520.1,289.4c0.9,0.4,1.7,0.7,2.6,1.1c-0.3,0.1-0.8,0.4-0.9,0.3c-0.5-0.5-1-1.1-1.5-1.6
		C520.4,289.1,520.1,289.4,520.1,289.4z"/>
	<path class="st3" d="M490.1,289.8l1,0.5c0,0,0.1,1.1,0.1,1.1C490.5,291.1,490.1,290.6,490.1,289.8z"/>
	<path class="st3" d="M487.4,286.8c-0.8-0.1-1.7-0.2-2.5-0.2c0.6-1.3,1.6-2,3-2.2C487.8,285.2,487.6,286,487.4,286.8z"/>
	<path class="st33" d="M586.2,558.6c-2.5-3.2-6.1-2.3-9.4-2.4c-7.5-0.4-15.2,1.1-22.6-1.7c-1.1-0.4-2.5-0.3-3.7-0.1
		c-5.7,0.9-12.7,7.2-16.7-1.1c-2.6-5.5-10.2-8.3-8.6-16c0.2-0.7-0.2-1.8-0.7-2.4c-16.3-17.8-3.4-34.9,2.5-51.1
		c4.3-11.8,17.8-11.4,28.7-11.1c11.2,0.3,21,5.1,29.6,12.1c4.6,3.7,6,9.8,7.9,14.9c1.3,3.4-2.9,6.1-6.7,5.2
		c-6.9-1.5-9.6,2.2-9.9,7.9c-0.3,5.9,3.5,9.8,9.2,10.1c6.1,0.4,11.7,3.1,18.5,1.2c8-2.2,14.8,5.4,15.6,14.5c0.3,3.3,1.5,6.5,2.3,9.7
		C611,554.4,597.8,553.8,586.2,558.6z"/>
	<path class="st23" d="M550.9,605.1c0-2.2-0.1-3.5,0-4.8c0.6-4.6-2-12.2,5.1-12.2c7.5,0,7.7,7.5,7.6,13.6c0,0.4,0,0.8,0,1.3
		c-0.6,6.6-2.8,15-9.1,14.8C547.1,617.5,552.8,608.7,550.9,605.1z"/>
	<path class="st33" d="M573.6,561.1c0.9-0.7,1.8-1.5,2.7-2.2C575.4,559.6,574.5,560.3,573.6,561.1z"/>
	<path class="st13" d="M594.7,903.9c17.4,3.2,34.5,1.2,51.5-3.1c2.9-0.7,5.5-2.1,8.6-1.7c2.6,5.3,5.5,10.5,7.6,16
		c3.7,9.8,3.4,9.9-8.4,12.8c-3.5-7.3-3-16.5-10.6-23.1c-1.5,6.8,2.3,11.4,3.2,16.5c0.7,4,2.3,8.3-3.1,11c-7.7,3.8-10.8,2.3-11.2-6.3
		c-0.2-3.8,0.1-7.6,0-11.4c-0.1-2.5-0.3-5.2-4.3-5.8c-2.2,6-0.6,12.3-0.9,18.4c-0.2,5.2-1.9,7.9-7.5,7.7c-6.1-0.1-7.6-1.4-6.4-7.5
		c1.3-6.2,2-12.2,0.2-18.5c-5.3,1.5-4.3,5.4-4.2,8.5c0,4.8-1,9.2-2.6,13.6c-1.6,4.3-4.9,4.3-8.3,3.6c-4.1-0.8-3.6-3.7-2.9-6.9
		c1.4-6.4,3.6-12.7,2.7-21.4c-5.5,6.4-5.8,12.6-6.8,18.5c-0.4,2.2-1.1,4.3-3.7,4.2c-2.6-0.2-3.4-2.3-3.3-4.6
		c0.1-2.9-0.2-6.1,0.8-8.8c2.3-6.4-2.2-5.9-5.9-6.5C582.6,902.7,588.2,902,594.7,903.9z"/>
	<path class="st13" d="M655,899.1c3.5-3.4,7.9-4.5,12.5-5.1c-0.4,7.7,4.4,13.3,8,19.4c1.7,2.9,2.8,5.5-0.7,7.4
		c-3.6,2-5.3-0.8-6.5-3.7c-1.6-3.8-3.4-7.6-4.9-11.6C662,901.5,659.1,899.5,655,899.1z"/>
	<path class="st22" d="M348.9,889.8c-1.4-7.8-1.3-12.9,0-18.1C349.8,876.8,350.3,881.9,348.9,889.8z"/>
	<path class="st21" d="M502.2,883.8c0.1-3.1,0.3-6.2,4.3-8.2c-0.2,3.9-0.6,6.8-3.5,8.8C502.9,884.4,502.2,883.8,502.2,883.8z"/>
	<path class="st22" d="M345,901.9c-0.6-0.8-1.1-1.7-1.7-2.5c2.5-0.3,0.9,1.8,1.5,2.7C344.9,902,345,901.9,345,901.9z"/>
	<path class="st34" d="M388.4,571.2c10.9,0.2,21.9,0.3,32.8,0.5c1.5,1.3,3.8,0.7,5.2,2.1c1.6,0.1,3.2,0.2,4.8,0.3
		c-12.6,9.5-26.5,16-42.3,17.5c-14.4,1.4-19.7,5.8-22,19.5c-1.5,9.3,2.2,12.6,11.4,12.4c8.7-0.2,17.3,0.5,26-1.3
		c3-0.6,5.8,0.8,8.5,2.1c4.4,2.1,8.2,7.5,13.7,4.8c5.3-2.5,10.1-6.2,13.3-11.3c1.8-2.9,3.5-5.8,6.9-7.1c2-0.8,4.1-1.7,5.8,0.1
		c1.4,1.5,0.6,3.2-0.6,4.5c-2.9,3.3-2.6,6.7-1.1,10.6c2.4,6.4-0.7,11.1-6.2,13.5c-14.8,6.4-19.7,18.3-21.1,33.3
		c-0.9,10.1-7.6,15.4-17.8,15.4c-24,0-48.1,1-72.5-4.1c2.6-7.1,0.5-13.9-2-20.6c-3.2-8.6-0.8-17.5-1.3-26.3
		c-0.9-18.2-0.1-36.4-0.4-54.6c-0.1-5.7,1.4-10.8,2.8-16.1c0.4-0.4,0.7-0.9,1.1-1.3c1.7-0.2,3.3-0.2,5-0.2c2.2,0.1,4.5-0.4,6.5,1
		c3.4,0.2,6.8,0.4,10.2,0.6c2.1,1.4,4.4,0.8,6.7,0.9c2.9,0.2,5.8-0.6,8.6,0.9c5.1,0.3,10.1,0.6,15.2,0.8
		C386.7,569.9,387.6,570.5,388.4,571.2z"/>
	<path class="st34" d="M477.5,599c13.1,4.1,26.6,2.5,40,3c2,0.1,4.1,0.9,6,1.6c3.1,1.2,4.6,3.6,4.2,6.9c-0.5,3.9-2.8,6.1-6.6,6.3
		c-2.1,0.2-4.3,0.2-6.2-0.4c-11.2-3.3-22.6-2.8-33.7-0.9c-8.3,1.4-13.4-3.6-19.5-6.7c-2.2-1.1-1.5-3.7,0.4-5.3
		C466.5,599.9,471.8,598.9,477.5,599z"/>
	<path class="st26" d="M314.4,564.2c6,0,12-0.1,18.1-0.1c0.7,0.5,1,1,0.7,1.6c-0.2,0.5-0.5,0.8-0.7,0.8c0,0-0.1,0.1-0.1,0.1
		c-5-0.7-9.4,0.8-14,2.5C313.3,571,315,566.4,314.4,564.2z"/>
	<path class="st26" d="M296.9,563.1c3.4-2.6,6.6-2.8,9.7,0.5C303.5,562.3,300,567.1,296.9,563.1z"/>
	<path class="st26" d="M286.5,558.7c-0.1,0.8-0.2,1.5-0.3,2.3c-3.3,0.1-6.8,1.2-9.5-1.8C280,559,283.2,558.9,286.5,558.7
		L286.5,558.7z"/>
	<path class="st26" d="M268.6,553.9c1.1,0.1,2.2,0.2,3.2,0.3c-0.3,0.6-0.5,1.2-0.8,1.8C270.2,555.4,269.4,554.7,268.6,553.9z"/>
	<path class="st26" d="M291.8,561.7c0.8,0.5,1.5,0.9,2.3,1.3C292.9,563.3,292.2,562.7,291.8,561.7z"/>
	<path class="st26" d="M286.5,558.7c0.3-2.1,0.9-4,3-5c1.9-0.9,3.9-1.9,5.5,0.4c0.4,0.6,0.6,1.6,0.5,2.2c-0.5,2.1-2.4,2-4,2.2
		C289.8,558.7,288.2,558.7,286.5,558.7C286.5,558.7,286.5,558.7,286.5,558.7z"/>
	<path class="st26" d="M370.5,568.5c-3.4,0.1-6.7,0.1-10.1,0.2c-0.9-0.4-1.3-0.8-1.1-1.4c0.2-0.6,0.5-0.9,0.8-0.9
		C363.7,566.4,367.5,565.4,370.5,568.5z"/>
	<path class="st26" d="M345,566c-2.5,0.1-5.1,0.1-7.6,0.2c-0.9-0.4-1.2-0.9-1-1.4c0.2-0.6,0.5-0.9,0.7-0.9
		C340,563.7,342.9,563.5,345,566z"/>
	<path class="st23" d="M337.2,564c0.1,0.8,0.2,1.5,0.3,2.3c-1.7,0.1-3.3,0.1-5,0.2c-0.1-0.8-0.1-1.6,0-2.4
		C334,564,335.6,564,337.2,564z"/>
	<path class="st23" d="M360.1,566.4c0.1,0.8,0.2,1.5,0.3,2.3c-2.1,0.2-3.9-0.2-5.2-2C356.8,566.6,358.5,566.5,360.1,566.4z"/>
	<path class="st23" d="M388.4,571.2c-0.9-0.6-1.8-1.3-2.7-1.9c0.8-0.3,1.6-0.4,2.4-0.4C388.2,569.7,388.3,570.5,388.4,571.2z"/>
	<path class="st27" d="M428,542.6c-1.8-0.5-2.9-1.7-2.7-3.4c0.2-1.8,1.6-2.8,3.3-2.6c2,0.1,2.5,1.7,2.5,3.4
		C431.1,541.9,429.7,542.6,428,542.6z"/>
	<path class="st23" d="M426.4,573.9c-2.1,0.1-3.9-0.4-5.2-2.1C423.4,571.5,425.2,572,426.4,573.9z"/>
	<path class="st23" d="M353.5,613.3c-3.1,2.6-5.5,5.3-9.2,3c-1.8-1.1-1.3-3-0.2-4.3C347.1,608.5,349.9,610.6,353.5,613.3z"/>
</g>
</svg>
