<?xml version="1.0" encoding="utf-8"?>
<!-- Generator: Adobe Illustrator 27.4.0, SVG Export Plug-In . SVG Version: 6.00 Build 0)  -->
<svg version="1.1" id="Layer_1" xmlns="http://www.w3.org/2000/svg" xmlns:xlink="http://www.w3.org/1999/xlink" x="0px" y="0px"
	 viewBox="0 0 720 720" style="enable-background:new 0 0 720 720;" xml:space="preserve">
<style type="text/css">
	.st0{fill:#2C2E3D;}
	.st1{fill:#A2ABAE;}
	.st2{fill:#A5ABAC;}
	.st3{fill:#8F989C;}
	.st4{fill:#D8E0D9;}
	.st5{fill:#BABDBC;}
	.st6{fill:#B8D1CC;}
	.st7{fill:#8E9F9E;}
	.st8{fill:#35373A;}
	.st9{fill:#5C5E60;}
	.st10{fill:#3B3234;}
	.st11{fill:#3D3335;}
	.st12{fill:#BCD1CD;}
	.st13{fill:#4C4248;}
	.st14{fill:#687077;}
	.st15{fill:#B0B4B3;}
	.st16{fill:#453C3E;}
	.st17{fill:#211F23;}
	.st18{fill:#42373A;}
	.st19{fill:#1F1D20;}
	.st20{fill:#151114;}
	.st21{fill:#687177;}
	.st22{fill:#0E1117;}
	.st23{fill:#8B9093;}
	.st24{fill:#70787F;}
	.st25{fill:#C55D77;}
</style>
<rect x="0" y="-0.5" class="st0" width="720" height="720"/>
<g>
	<path class="st1" d="M549.4,356.4c-2.1,0.1-4.3,0-5.3,0c3.5-1.1,11.1,2,11.3-5.8c0.2-6.9-6.6-7.8-10.1-8.4c8.1-6,20.7,4.3,30.4-5.2
		c-5-14.1-18.3-16.7-29.8-17.6c-15.1-1.2-30.7,2.4-44.2-7.7c-2.1,0.6-4.1,1.7-6.4,1.5c-1.5-0.4-2.8-1.1-4.2-1.8
		c-1.3-0.7-2.7-1.5-4-2.1c-0.9-0.5-1.8-0.9-2.7-1.3c-1.3-0.6-2.6-1.3-3.9-2c-0.8-0.5-1.7-0.9-2.6-1.3c-1.3-0.7-2.6-1.5-3.9-2.2
		c-0.9-0.5-1.8-1-2.8-1.5c-1.5-0.7-3-1.4-4.6-1.8c-2.3-0.5-4.6-0.5-6.9,0.1c-2.8,0.9-4.7,3-6.3,5.4c-0.6,0.9-1.2,1.7-1.8,2.6
		c-1.1,1.1-2.4,1.6-3.9,1.9c-3.2,0.4-6.8-1.5-9.4,1.9c-1.3,0.9,0.4,3.8-2.4,3.5c-0.4,0-0.3-1.7-0.1-2.6c0.8-4.1,1.5-8.3-2.1-11.6
		c-2.5-1.5-5.1-1.6-7.9-1.1c-5.3,1.1-10.1,3.9-15.7,3.5c-7.8,1.2-14.9,0.8-21.2-5.4c-7.7-7.5-15.9-8.8-25.7-1.8
		c-9.3,6.6-13.5,4.8-15.6-6.5c-1.8-9.8-7.3-12.2-15.2-9.3c-9,3.4-17.5,3-26.7,1.5c-6.9-1.1-14.9-1.6-16.6,8.6
		c3.9,4.8,9.1,8.4,12.9,13c-6.6,9-13.4-0.4-19.5,0c5.4-2,8.6-5.8,5.5-12.6c-3-6.1-8.8-6.8-14.6-7.1c-13.1-0.9-25.5,0.9-37.6,6.9
		c-15.6,7.7-24.3,6.2-35.7-5.5c-6.7-6.9-12.4-5.4-18.7-0.1c-4.1,12.6-8,25.2-12.4,37.7c-6.3,17.8-13.4,35.4-19.5,53.3
		c-1,2.9-2.3,5.1-3.9,6.7c-0.3,2.3-0.5,5.1-1.1,7.7c3,0.3,5.9,0.6,8.8,1c-3-0.1-6.1,0.1-9.2,0.6c0,0.1-0.1,0.2-0.1,0.3
		c-0.5,1.6-1.4,2.9-2.7,3.8c-1.9,4.8-3.9,9.6-4.2,15c4.5,5.4,10.6,3.3,16.1,3.3c1.9,0,3.9,0,5.8,0c-8.7,0.2-17.6,0.5-26.4,1.1
		c-7.8,6.1-8.1,16-11.6,24.1c-0.3,0.7-0.6,1.4-1,2.1c1.1,2.1,1.2,4.9,0.1,7c0.1,0.1,0.3,0.3,0.4,0.4c-0.2,0-0.4,0-0.6-0.1
		c-0.4,0.7-0.9,1.4-1.5,1.9c-1.4,8.6-4.4,16.3-4.6,25.1c0,1.1-0.3,2.1-0.7,2.9c0,1,0,2.1,0,3.1c17.5,1.6,33.8-5,50.6-7.8
		c8.9-1.4,17.7-3,26.5-4.6c-0.4,0.3-0.7,0.6-1.1,0.9c-1.7,9.1,5.5,9.9,11.2,11.3c12.6,3,25,6.3,36.6,12.3c3.5,1.2,7.2,1.7,10.8,2.4
		c2.1,0.5,4.3,1.1,6.4,1.6c9.3,2.9,18.9,3.7,28.6,4.1c3,0.1,5.9,1.1,8.8,1.6c9.8,1.9,19.9,0.3,29.7,1.6c2.2,0.3,4.5,0.7,6.7,1.1
		c4.4,0.8,8.8,1.2,13.3,1c5.8,1.6,13.5-3.7,17.4,5.1c7.4,16.8,29.1,21,42.8,8.4c3.3-3,6-6.4,4.5-11.2c-1.6-5.1-5.4-8-10.7-7.7
		c-5,0.2-9.4-0.7-13.5-3.5c-7.4-3-15.1-1.8-22.7-2.1c-4.3-0.2-8.6,0-12.5-2.3c-17.9-10.4-30.5-37.5-26.3-58.2
		c2.2-10.6,2-20.8-0.6-31.2c-1.4-5.7-5.4-13.9,2.5-16.3c8-2.4,18.3-8.8,25.5-0.8c10.5,11.6,17,5.7,24.3-2.5c0.3-3.6,0.7-7.2,1-10.9
		c0,0.3,0.1,0.6,0.1,0.9c0.4,3.4,0.5,7,4.3,8.3c3.8,1.3,6.5-1.2,8.6-3.8c4.8-5.8,9.1-9.8,18.2-7.3c19.9,5.6,34.2-4.5,35.4-25.4
		c0.6-10.4,5.7-14,14.3-13.5c10.5,0.5,21.2,0.5,31.4,3.3c19,5.1,24.6,16.4,17.4,34.2c-2.2,5.4-4.7,11.2,0.8,15.9
		c5.4,4.6,12.5,6.6,18.8,3.1c8.3-4.6,16.2-6.6,25.9-5.1c8.7,1.4,17.4-7.2,17.5-15.4C566.1,357.8,558.6,355.8,549.4,356.4z
		 M242.9,408.8c0.1-0.2,0-0.5-0.2-0.9C241.7,406.4,244.2,407.7,242.9,408.8z M234.5,409.6c-2.6,0.1-5.3,0-7.9-0.8
		c-0.1,0-0.2-0.1-0.3-0.1C229,409.1,231.7,409.5,234.5,409.6z M133.8,449.6c16.5-0.3,33.1-0.8,49.6-1.6
		C166.9,449.4,150.4,450.4,133.8,449.6z M181.2,396.4c5.1,1.2,10.1,2.6,15.2,3.9c-1.4-0.3-2.7-0.7-4.1-1
		C188.6,398.5,184.9,397.4,181.2,396.4z M192.3,413.9c15.8,0.1,30.6,0.5,42.9,1.7C222.2,414.9,207.7,414.2,192.3,413.9z
		 M236.2,444.2c10-0.9,19.9-2,29.9-3.3C256.2,444.3,246.1,444.2,236.2,444.2z M269.2,439.8c-0.2,0.1-0.3,0.1-0.5,0.2
		c0-0.1-0.1-0.2-0.2-0.4C267.2,438.1,270.4,439.5,269.2,439.8z M387.1,346c-7.5,4-11.6,9.4-13.1,15.9c-0.3-12-4.3-23.3-19.7-32.2
		c15.7-1.5,27.1-0.8,38.4-0.7c4.8,1.3,10.7,0.4,13.4,7.2C400,340,393.3,342.7,387.1,346z"/>
	<path class="st2" d="M574.8,336.2c-11.3-9.3-24.1-14.4-38.8-14.4c-3.8,0-7.4-0.2-10.2,3.4c-5.1,6.6-8.8,2.7-12-2.1
		c-3.3-5-5.6-11.6-13.8-7.6c-0.7,1.1-1.6,1.5-2.9,1.2c-2.6-2.3-5.3-4.6-8.7-5.9c-1.8-1.6-4.2-2.1-6.3-3.3c-3.3-3-7.6-3.9-11.5-5.7
		c-10.4-1.2-20.1-9.3-31.3-3.7c-1.7,1-3.5,1.7-5.5,1.9c-2.6,0.3-5.2,0.1-7.7,0.3c-4.8,3-11,3.1-15.4,7.1c-0.4,0-27-9.2-27.4-9.6
		c-6-5.7-11-5.1-17.1,0.8c-8.7,8.3-13.8,7.8-20.7,1c-3.3-3.3-3-6.1-2.2-10.2c1.3-6.6-2-9.8-7.5-7c-10.6,5.4-20.7,5.4-31.8,2.4
		c-5.3-1.4-11.8-1.4-13.6,6.6c-0.6,1.4-1.7,2.1-3.2,2.1c-1.3-2.6-3-5.3-6-5.5c-14.1-0.7-28.9-3.6-41.3,5.3
		c-10,7.1-20.7,5.5-31.4,5.4c-4.1-0.1-8.1-2.7-8.8-6.2c-2.4-12-10.3-9.5-18.2-7.9c5.8-20.1,12.6-39.9,16.6-60.4
		c1-5.1,2.1-10.2,5.5-14.4c5.9-4.6,11.2-10.5,19.8-9c3.9,7.2,0.9,14.9,1.9,22.3c-0.6,3.8,1.4,8.1,0.5,9.2c0.5-1-0.8-5-0.4-8.7
		c0-7,0-13.9,0-20.9c0.1-2.7,1.6-4.4,3.7-5.9c2.1-1.2,4.4-1.8,6.8-1.9c12.1,0,8.7,9.7,10.1,16.3c0.8,1.1,1.6,2.2,2,3.4
		c0.5,1.2-0.1,2.7,0.6,3.9c-0.2-1.3-0.2-2.7-0.6-4c-0.4-1.3-1.3-2.3-2.1-3.4c0.1-6.1-2.4-12.5,1.3-18.3c1-1.1,2.2-1.9,3.6-2.4
		c2.1-0.6,4.3-0.6,6.4,0c1.3,0.5,2.4,1.3,3.4,2.3c1.6,2.2,1.9,5,2.5,7.6c-0.2-3.1-1.6-6.1-0.7-9.4c0.6-1.2,1.5-2.2,2.6-2.9
		c7.9-2.7,10.7,2.7,12.5,6.7c-0.7-1.4-1.7-4.6-3.3-7.6c-0.3-1.4-0.4-2.7-0.3-4.1c1.5-6,1.4-12.8,7.7-16.6c2.8,3.9,5.7,7.9,8.5,11.8
		c15.3,14.1,13.9,33.2,13.2,51c-0.4,10.8-12.4,16.2-20.1,23.2c-4.4,4.1-11.5,6.2-9.4,14.4c2.3,8.8,9.8,7.9,16.3,8.4
		c25.6,2.2,49.6-2.9,71.2-17.1c10.4-6.9,20.8-13.3,33.6-15.4c9.5-1.6,29.7-28.7,29.4-38.1c-0.3-8.3-4.1-15.5-12.5-17.3
		c-8.2-1.7-9.5,6.1-11.6,11.9c-0.5,1.3-0.8,2.8-1.5,4c-1.6,2.9-2.8,6.9-6.8,6.3c-4.2-0.6-4-4.7-4.1-8.1c-0.1-2.9,0.4-5.7,1.1-8.5
		c-0.3-1.4,0-1.2-0.4,0.4c-1,4-0.2,9.4-5,11.2c-6.1,2.2-9.5,7.7-14.2,11.6c-8.7-13.8-7.9-39.2,1.2-49.6c1,0,1.9,0.1,2.9,0.1
		c4.8,4.9,4,11,3.7,16.8c3-4.6-1.7-13.7,8.3-14.7c5.6,0.4,11.2,0.7,16.8,1.1c1.8,1.3,4.2,0.8,6,2.2c8.9,0.5,17.9-0.4,26.6,2.6
		c10.6,3.7,13.1-6.4,18.4-11.5c2.4-0.1,4.5,0.5,6.3,1.9c0.8,0.8,1.3,1.8,1.5,2.9c0,1.6-0.5,3.1-1,4.6c-0.2,0.9-0.4,1.9-0.5,2.8
		c0.4,1.6,1.4,2.5,2.8,3.3c6.4,2.5,16.1-1.6,19.2,3c5.2,7.6,8.8,2.8,13.8,1.8c21-4.1,35.7,9,34.9,23.7
		c-0.8-32.3-6.3-70.3-17.3-108.2c-10.3,5.3-10.7,18.1-20.6,22.1c-5.2,0.6-6.1-3.1-6.9-6.9c6.9-14.8,17.3-27.1,27.9-40.1
		c7.3,5.9,7.6,13.8,9.8,20.7c14.2,43.2,19.8,88.3,30.9,132.3c7.5,29.7,19.1,58,28.2,87.1c1.4,4.5,2.5,9.1,3.8,13.7
		C583.4,332.1,582.1,338.2,574.8,336.2z"/>
	<path class="st3" d="M574.8,336.2c3.7-2.8,7.4-5.6,11.1-8.4c6,17,12,34.1,17.9,51.1c-11.3,9.4-25.8,8.7-39,12.1
		c-16.9,4.5-33.3,10.8-50.5,14.3c-7.3,0.8-14.2,4.7-19.2,3.9c5.5-0.3,13.2-1.8,20.7-4.9c14.4-0.6,27.1-7.5,40.7-11
		c13.7-3.5,27.8-5.2,41.2-10c3.3-1.2,6.5-0.8,8.9,2.3c1.9,7.4,3.7,14.7,5.6,22.1c-10.8,5.2-22.5,6.1-34.2,6.2
		c-17.4,0.2-34.9,0.5-52.2,2.8c-9.2,2.9-18.3,1-27.5,1.4c9.8-0.3,19.7,2.5,29.3-2.5c24.2-1.6,48.5-0.1,72.5-4.2
		c4.9-0.8,10.6-1.6,14.9,2.7c2.6,9.5,4.1,19.3,8.4,28.3c-2,2.5-4.7,3.1-7.7,2.9c-32.9-2.9-65.9-0.9-98.8-1.2
		c-15.4-0.1-30.6-4.3-44.2,0.2c27.1,0.8,55.7,4.6,83.3,13.9c3.7,8-3.7,8.1-7.6,9.7c-15.2,6.4-30.9,11.4-46.7,16
		c-6.2,1.6-12.6,2.6-18.8,4.5c-5.9,1.3-11.8,2.9-17.8,3.9c-1.3,0.2-2.6,0.4-3.8,0.6c-1.9,0.4-3.7,0.9-5.6,1.3
		c-3.2,0.7-6.4,1.1-9.6,1.8c-2,0.6-4,1.1-6,1.7c-1.4,0.5-2.9,0.8-4.4,1.1c-17.8,2.8-35.6,6.3-53.6,2.1c-10.1-0.2-20.1-0.4-30.2-0.6
		c-3.3-0.1-6.9,0.8-9.5-2.1c-12.7-14.7-25.9-29.1-28.6-49.8c-0.6-4.2,0.6-7.7,1.7-11.1c3.8-11.4,3.3-22.6-0.4-33.8
		c-0.9-2.7-1.9-5.5-2.3-8.3c-1.2-8.8,1.7-12.2,10.8-12.8c6.1-0.4,12.4,0.7,17.7-4c3.3-2.9,6.1,0,8.7,2.3c3.4,3,1.8,8.6,6.4,11.4
		c5.3-0.1,7.3-7.3,13.1-6.9c6.2,12.8,1.3,23.7-6,34.1c-0.9,1.8-2.1,3.4-3.5,4.7c-0.7,1.2-1.5,1.5-2.5,0.3c0.7,1.4,1.4,1.2,2.2,0
		c1.4-1.3,2.6-2.8,3.5-4.5c7.5-11.5,7.4-11.4,15.9-1.5c4.3,5.1,8.6,10.3,14,12.2c-10.7-7.1-19.9-16.1-20.8-31.8
		c-1-15.3-1.1-30.6-0.5-45.8c0.5-13.7,10.7-21.6,21.4-28.3c9.4-0.1,15.6,5.3,21.7,11c-1.9,4.5-5.3,5.6-8.4,5.9
		c-7.1,0.7-12.4,4.5-18,8.3c-14.5,9.8-15.2,11.5-10.2,31.3c4.5-2.6,6.4-7,9.1-10.6c4.8-6.2,8.8-7,16-3.7c17.2,8.1,33-2.1,32.7-21.1
		c-0.1-4-3.2-8.4,1.2-12.1c4.6-3.9,10.9-6.8,15.7-5.5c12.1,3.4,24.7,1.1,36.8,4.7c9.8,2.9,13.6,12.5,22.4,16.3c3.1,1.3,2.2,8,0.2,12
		c-1.7,3.4-4.4,6.4-5.8,9.8c-1.7,4-6.6,8.1-2,12.9c3.9,4.1,15,5.5,18.5,1.4c6.7-8.1,13.6-8,22.6-4.6c7.4,2.8,16.8-4.7,16.8-12.5
		c0-6-3.4-8.5-9.1-8.7c-6.2-0.2-12.4-0.2-18.6-0.6c-1.8-0.1-3.7-1-4.5-4c6.6-4.4,15.4,0.9,22.8-3.7c-6-9.3-15.5-4.1-25.8-8.2
		c14.7-4.5,26.3-8.7,39.2-6C570,337.6,572.5,339.3,574.8,336.2z"/>
	<path class="st4" d="M462.9,489.2c6.7-0.5,12.8-4,19.6-3.6c3.3-2.2,6.6-0.5,9.6,0.4c10.2,3.2,11.6,7.9,4.9,16.5
		c-1.4,1.9-3.6,3.2-4,5.7c0.3,1,0.8,1.9,1.8,2.1c20.1,5.2,20.1,5.2,21.5,26.9c0.2,2.9,0.8,5.7,1.3,8.5c1.9,9.2-2.5,22.1,6,26.9
		c12,6.8,24.7,13.2,39.3,15.7c14.3,2.4,21.1,1.8,27.2-14.2c5.5-14.3,22.8-22.1,34.9-32.6c4.9-4.3,10.8-9.4,18.2-10.7
		c3.2,1.2,4.7,3.2,3.8,6.7c0,1,0,1.9,0,2.9c3.2,6.1,3.6,13.2,6.3,19.5c3.5,2.5-5.7,4.1-0.5,6.7c-0.1,8.6-0.3,17.2-0.4,25.8
		c-1.9,1.8-3.3,4.2-5.6,5.6c-3.6,2.4-7.5,3.1-11.6,1.9c-12.9-5.8-23.3,1-33.6,7.2c-3.5,2.1-5.9,6-9.3,8.4
		c-17.1,7.4-35,12.3-53.2,16.1c-2.3,0.6-4.6,1.2-6.9,1.7c-35.3,8-71.2,11.5-107.1,14.9c-6.6,0.6-13.3,0.6-19.8-0.8
		c-3.8-0.8-7.3-2.7-10.3-4.9c-12.9-9.7-25.1-9.8-37.6,0.9c-6,5.1-12.4,3.8-18.2-1.2c-5.9-5-10.6-10.9-14.3-17.8
		c-9.7-18.3-5.5-29.2,14.9-33.4c10.3-2.1,18.6-5.6,25.8-13.5c6.9-7.6,17-10.7,26.7-13.2c31-7.9,52-29.1,71.7-52.3
		c3.5-4.2,4.6-8.1,0.8-12.8C462.5,496.4,459.3,493.3,462.9,489.2z"/>
	<path class="st5" d="M370.6,166.5c-6.3,15.1-1.5,30.7-2.1,46.8c2.1-9.1,6-14.7,16.4-10.9c0.3-6.3,0.5-11.5,0.9-16.7
		c0.3-3.6,2.9-4.8,6.1-4.3c4.2,0.7,3.3,3.5,2.6,6.5c-1.4,6.3-5.8,12.2-2.6,19.3c6.1-3.8,4.5-10.4,6.5-15.6
		c4.7-12.1,14-14.3,22.8-4.8c12.6,13.8,10.5,24.7-3.1,39.8c-4,4.5-10.2,6.6-10.6,14.2c-0.3,5.2-5.2,6.5-9.8,6.2
		c-10.3-0.8-18.4,3.9-26.4,9.4c-11,7.7-22.7,14-35.5,18.3c-19,6.5-38.4,5-57.8,3.8c-9-0.6-6.9-8.9-9.3-14.1c-2.4-5.2,0-8.4,4.6-10.1
		c10.7-4.1,15.8-15.1,25.4-20.6c2.7-1.5,3.5-4.8,2.3-7.7c-2.9-6.9-2-14.1-1.9-21.3c0-5.5-1.3-10.5-4.6-14.8
		c-2.7-3.6-4.5-7.3-4.2-11.8c21.7-3.2,43.4-6.1,65-9.8C360.2,167.4,365.4,166.8,370.6,166.5z"/>
	<path class="st6" d="M500.2,480.5c19.4-6.2,38.8-12.2,57.6-20c1.8-3,4.7-3.1,7.7-3c2.9,0.4,5.7,1.3,8.7,1.3
		c5.3,0.2,10.6,0,15.8,1.3c14.2,4,30.2,1.4,42.7,11.6c-2.7,6.5,3.8,11.2,3.3,17.3c-2.8,4.2-10.5,5.7-9.4,11.3
		c1.3,6.4,2.9,12.9,5,19.1c1.3,4.1,5.9,1.4,8.9,1.9c1.3,0.3,2.5,0.8,3.7,1.6l0.3,0.5c1,2,1.4,4,0.2,6.1c-9.2,5.2-18.9,6-29.2,4.4
		c-8-1.3-14-0.5-10,10.3c2.2,6,1.2,11.6-4.8,15c-6.5,3.6-13.1,2.2-19-1.5c-5.7-3.6-10.2-9.3-7.2-15.6c6.2-13,4.4-27.3,7.9-40.6
		c1.7-6.7,1.1-12.1-6.3-13.1c-7.4-1-16.4-5.2-21.2,5.3c-7.9,17.4-21.6,19.7-34.8,5.4c-3.6-4-7.3-7.4-12.3-9.4
		C503.7,487.9,499.3,486.3,500.2,480.5z"/>
	<path class="st1" d="M221,201.6c-5.4,3.5-9.9,9.1-17.4,8c4.6-44,8.9-88.1,23.3-132c20.3,28.3,37.2,58.6,54.6,88.6
		c-1.7,5.8-2.1,12.1-5.1,17.5c-6.9-3-8.5-10-11.5-15.7c-10.8-20.6-20.5-41.8-33.4-62C218.4,137.1,217.4,169,221,201.6z"/>
	<path class="st7" d="M628,463.1c-1.8-1.3-3.3-3.2-4.4-6c-1.5-3.7-1.9-5.9-0.5-7.3c-0.5-1.9-0.9-3.8-1.2-5.7c-0.3,0-0.6,0-0.9,0
		c-34.4-3-68.8-0.8-103.2-1.3c-5.2-0.1-11.4-1.9-15.7,5.5c12.5,2.2,24.2,3.3,35.6,5.8c17,3.6,34.4,4.5,51.2,9.4
		c13.8,5.4,28.6,5.1,42.8,8C630.6,468.7,629.2,465.9,628,463.1z"/>
	<path class="st8" d="M626.7,443c-10.4,4.8-21.4,2.9-32.2,2.9c-28.2,0-56.5-0.4-84.7-0.5c-1.2,0-2.5,0.6-3.7,1.4
		c28.6,1.8,56.2,9.6,84.4,13.6c0.4,0.1,1,0.3,1.1,0.6c0.6,2.1-1.5,1.7-2.4,2.4c-5.5-0.4-11.1-0.8-16.6-1.2c-2-1-4.3-0.8-6.3-1.7
		c-2.8,0-5.6-0.1-8.3-0.1c-19.3-3.3-38.5-6.7-57.8-10c-11.7-2-23.4-3.7-35.2-5.6c0.4-3,2.7-1.9,4.1-2.5c3.9-1.8,11.5,5.3,12.1-5
		c0-0.2,4.6-0.6,6.8-0.1c15.1,3.4,30.5,2,45.8,2.1c18.7,0.1,37.3,0,56-0.1c11.5-0.1,22.9,0.8,34.2,3
		C624.8,442.6,625.7,442.8,626.7,443z"/>
	<path class="st9" d="M59.9,413.9c-1.8-0.8-3.6-1.5-5.5-2.3c27.6-2.5,55.3,1.7,82.9-1.1c41.4,0.1,82.8,1.5,124.1,6.4
		c-43.3-0.2-86.6,0.1-129.8,0.3c-4.1,3.9-9.4,4.4-14.6,4.3C97.6,420.8,78.1,422.3,59.9,413.9z"/>
	<path class="st10" d="M526.1,416.9c9.7-6.2,21-3.5,31.4-4.8c18.2-2.3,36.7-2.1,55-4.5c14.9,0.7,29.4-2.4,44-4.2
		c6.7-0.8,13.2-1.2,21.1-0.9c-4.8,5.2-10.2,5.2-15.5,6.2c-15.4,2.9-31.4,0.7-46.7,5.3c-29.8,2.6-59.6,3.5-89.5,2.6L526.1,416.9z"/>
	<path class="st10" d="M595.4,443c10.5-4.7,21.3-0.4,31.8-0.3c18.3,0.3,36.6,3.2,55.1,3.4c14.6,2.8,29.4,1.9,44.1,2.2
		c6.7,0.1,13.3,0.7,21,2.2c-5.5,4.5-10.8,3.6-16.2,3.9c-15.7,0.7-31.2-3.8-46.9-1.5c-29.8-1.7-59.5-5-88.9-10.1L595.4,443z"/>
	<path class="st11" d="M606.9,385.5c-23.2,4.4-46.5,8.1-69.1,15.2c-7.6,2.4-15.1,5.8-23.4,4.4l0.2,0.2c17-8.3,35.7-11.3,53.6-17.2
		c11.7-3.8,23.8-6.2,35.8-9.3c8.5-0.3,16.8-2.4,25-4.3c5.2-1.2,10.2-1.9,15.4-0.5l-0.3-0.3C631.7,377.7,619.3,381.6,606.9,385.5z"/>
	<path class="st12" d="M641.8,522.6c-4.2,2.3-8.4,4.5-14.2,4c-2-9.1,1-19.9-7.9-27.4c-2.2-1.8,0.6-4.4,2.8-5.3
		c4.4-1.8,8.9-3.3,13.4-4.9c0.8,9.7,5.5,18.7,5.3,28.5C642.6,519.1,642.5,520.8,641.8,522.6z"/>
	<path class="st13" d="M134.9,385.5c37.2,4,72.3,17.3,109.6,24.4c-12.2,3-23-0.5-33.7-3.5c-22.4-6.3-44.9-11.9-68-14.8
		c-3.5-0.4-7.1-0.8-10.6-1.2c-2.1-1.1-4.4-1-6.6-1.7c-3.6-0.4-7.1-0.8-10.7-1.2c-2-1.1-4.4-0.9-6.5-1.9c-3.4-0.3-6.9-0.7-10.3-1
		c0-7,4.9-2.8,7.7-3.3c3.9,0.4,7.8,0.9,11.7,1.3c1.7,1.2,3.7,1.1,5.5,1.5C127.1,384.6,131,385.1,134.9,385.5z"/>
	<path class="st13" d="M36,416.2c36.9-5.9,74.3-2.2,112.2-5.1c-11,6.1-22.3,5.5-33.4,5.4c-23.2-0.2-46.4,0.2-69.5,3.5
		c-3.5,0.6-7,1.1-10.6,1.7c-2.3-0.5-4.5,0.2-6.8,0.1c-3.5,0.6-7.1,1.1-10.6,1.7c-2.2-0.5-4.5,0.3-6.8-0.1c-3.4,0.6-6.8,1.2-10.2,1.7
		c-1.8-6.7,4-4,6.6-5.2c3.9-0.6,7.8-1.2,11.7-1.8c1.9,0.8,3.8,0.1,5.8,0C28.2,417.4,32.1,416.8,36,416.2z"/>
	<path class="st14" d="M460.7,166.5c-3,0.1-5.6-0.8-7.4-3.3c9-14.1,18.1-28.3,27.1-42.4c0.6-1.2,1.4-2.2,2.3-3.2
		c0.9-1.1,1.7-2.2,2.6-3.3c2,2,4,4.1,5.9,6.1c2.1,3.4,0.7,6.5-1,9.4c-7.1,11.8-16.6,22.1-23.3,34.1
		C465.7,165.9,463.3,166.9,460.7,166.5z"/>
	<path class="st5" d="M385.5,168.8c-3.9,2.4-3.6,6.4-3.7,10.2c-0.1,3.3,0,6.7-0.6,10c-0.5,2.5-2.5,4.2-5.2,3.7
		c-2.6-0.4-2.1-2.8-2.1-4.6c-0.2-7.2-0.2-14.3-0.4-21.5C377.5,166.9,381.9,165.9,385.5,168.8z"/>
	<path class="st13" d="M105.9,381.3c-2.5,1.2-6,0.3-7.7,3.3c-5.4-0.9-10.7-1.8-16.1-2.7C90.2,378.1,98.1,377.7,105.9,381.3z"/>
	<path class="st5" d="M408.3,172.1c-2.4,0.3-4.5-0.2-6-2.2C404.7,169.5,406.7,170.1,408.3,172.1z"/>
	<path class="st2" d="M482.8,117.5c0,1.6-0.9,2.6-2.3,3.2C480.4,119,481.3,118.1,482.8,117.5z"/>
	<path class="st15" d="M537.5,626.9c9.1,0,17.7-3,26.2-5.6c9.5-2.9,18.9-6,28.3-9c13.3-8.1,27.5-13.5,43.2-14.2
		c4.2,0.3,7.9-1,11.4-3.1c2-1.2,3.9-1.5,5.6,0.4c1.7,4.9-2.7,11.4,5.2,14.8c3.6,1.5-1.4,3.1-2.3,4.6c-2.7,4.5-3.6,8,3.1,9.3
		c6.6,1.2,1.5,2.7,0.2,4.5c-4.5,6.6-4.5,7,1.9,13.5c1.1,1.1,2.1,2,0.8,3c-6.7,4.8-2.5,11.3-2.7,17c-0.1,4,5,7.8,0.4,12.1
		c-0.5,0.5-0.1,1.8-0.2,2.8c-0.8,5.7,9.3,4.5,6.9,6.7c-4,3.5-4.4,6.8-4.4,11c0,4.3,0,8.6,0,12.9c0,2.4,0.1,4.8-0.1,7.2
		c-0.5,5.9,3.5,7.1,10.1,7.9c-7,3.2-10.6,7-10,13.8c0.6,6.6,1.8,14-0.3,19.9c-2.1,5.8,9.2,6.7,2.8,12.5c-4.9,4.5-1,11.1-3,16.2
		c-3.7,9.5-0.2,20.2-5.8,29.2c-1.9,2-3.6,4.3-6.2,5.6c-6.5,3.3-13.5,5.3-20.4,7.8c-38.7,9.1-77.6,17.3-117.3,20.7
		c-4.8,0.4-9.5,1.5-14.2-0.2c-4.1-0.9-3.3-7.6-8-7.3c-21.6,1.3-26.2-15.5-32.6-30.4c-0.6-1.3-1-2.7-3.1-3.9c-7.6,10-14.2,6-19.6-2.6
		c-4.6-7.3-10.6-13.6-14.9-21c-1.4-2.4-2.6-5.6-6.1-5.2c-7.4,0.9-12.7-1.2-12.6-9.5c0.1-7.3,4.6-11.2,12.7-12.1
		c-11.1,1.2-15.7-6.3-22-12.5c-7.1-7-8.2-14.2-7.1-23.2c1.3-11.4,2.9-22.8,5.5-33.9c2.4-10.1,7.4-19.7,1.2-30.3c-2.3-4,1-8.2,4-11.5
		c2.4-2.1,5-2.7,7.8-0.8c28.9,0.6,57.4-4,86-7.5c15.5-1.9,30.5-6.9,46.2-6.9C535.6,628.7,536.6,627.8,537.5,626.9z"/>
	<path class="st12" d="M652.4,595.3c-1.9-0.1-3.7-0.2-5.6-0.4c1.4-1.9,3.4-2.5,5.6-2.4C652.5,593.4,652.5,594.3,652.4,595.3z"/>
	<path class="st12" d="M402.3,643.8c-2.4,0.4-4.6,0.9-5.9,3.3c-4.4,2.4-8.9,4.3-14.1,3.9c-5.7,0.3-11.3,0.4-17,0.2
		c-6.3-0.6-12.7-0.1-19-0.6c-1.6-0.1-3.1-0.4-4.6-0.7c-6.6-2.5-13.4-2-20.2-1.7c-4.6,0-9.3,0-13.8-1.2c-1.5-0.5-2.8-1.2-4-2.2
		c-4.9-9.3-6.4-19.9-12.1-28.9c-3.9-6.3-7.7-10.1-14.2-3.1c-0.6,0.7-1.4,1.4-2.2,1.9c-4.6,2.8-41.3-5.1-47-10.8
		c-8.8-8.7-4.9-18.5-1.4-28c1.3-3.6,3.2-6.9,4.8-10.4c8.6-18.5,5.7-23-14.3-22.8c-13.8,0.1-17.8-3.2-20.7-16.3
		c-2.3-10.4-2-19.5,7.6-26.9c10.4-8.1,19.7-17.4,33.9-8c3.8,0.1,7.6,0.2,11.5,0.3c1,0.9,2,1.8,3,2.6c10.6,0.2,20.8,4.4,31.5,3.1
		c1.6,1.7,4.2,1.1,5.9,2.7c11.5,0.1,22.9,0.3,34.4,0.4c1,0.9,2,1.7,3,2.5c4.7,0.1,9.4,0.2,14.1,0.4c5.6,6.8,5,15.1,5.6,23.1
		c1.3,16.3,10.2,23.8,26.3,21.9c13.6-1.6,27-4.8,41-4.9c14-0.1,26.5-19.8,24.5-35.1c-0.6-4.5-3.7-9.1,0.5-13.5c1-0.1,2-0.3,3-0.4
		c0.7-0.9,1.6-1.7,2.6-2.2c3.9-0.2,7.8-0.4,11.7-0.7c0.8-0.9,1.7-1.6,2.7-2.3c1.1,0,2.2-0.1,3.2-0.1c-0.2,5.3,4.1,7,7.6,9.5
		c4.3,3.1,5,7.7,1.1,11c-13.5,11.4-22.4,27-36.6,38c-12.4,9.7-26.7,14.5-40.9,19.8c-13.5,5.1-27.2,9-34.8,22.9
		c-1.6,2.9-4.7,5.2-8.5,3.3c-5.6-2.7-10.4,0.5-15.1,2.1c-13.9,4.9-15.7,10-8.9,23.5c2.1,4.2,4.3,8.7,7.3,12.2
		c3.7,4.3,7.2,9.3,12.6,11.4c6.9,2.7,9.7-4.6,14.5-7.2c10-5.4,19.6-10.5,29.7,0.4C393.8,639.6,400.2,638.6,402.3,643.8z"/>
	<path class="st6" d="M293.1,610.3c-6-11.5-9.9-11.6-17.4-0.6c-3.7,5.5-7.6,7.2-12.9,2.8c-6.6-5.5-14.9-6.2-22.7-8.1
		c-13.2-3.3-16.1-6.7-12.2-19.4c3.1-10,8-19.3,13.1-28.4c3.7-6.5,2.9-11-3.3-14.2c-5-2.6-10.4-4.7-16.4-4.5
		c-5.4,0.1-10.6,5-16.2-0.1c-5.5-5-3.5-11.5-4.8-17.4c-0.4-1.9-1.3-3.6-1.7-5.5c-0.6-2.5,0-5.2,2-6.5c11.7-7.6,19.8-23.5,37.8-16.6
		c-11-9.4-24.9-11.3-38.3-14.1c-4.4-0.9-8.4-1.3-10.8-5.6c-3-3.8-6.8-2.5-10.6-1.9c-14.6,2.3-29.5,3.5-43.6,8.4
		c-7.9,2.7-17.7-0.1-23.9,7.8c-3.6,3.5-1.9,8.6-3.4,13.1c0.2,0.7,0.2,1.6,0.1,2.5c-0.6,5.3-1.2,10.5-1.8,15.8c0,0.6-0.1,1.2-0.2,1.8
		c-0.6,5.9-1.2,11.9-1.9,17.8c2.1,4.5,0.7,10.1,1.7,15c-0.1,0.9-0.1,1.7,0,2.6c-1.7,5.1-3.7,10.4,2.9,13.4c3.8,1.7,9,0.9,10.2-2.7
		c5.1-15.3,24.5-21.8,24-40.8c-0.1-5.9,2.4-14.9,11.1-14c7.8,0.8,13.8,6.7,16,14.7c2,7.3,0.2,13.8-5.5,19.6
		c-8.6,8.8-8,13.3,1.7,20.5c3.4,2.6,7.5,4.3,10.5,7.4c2.4,2.4,4.2,4.8,2.7,8.8c-6,16-14.1,20.6-32,18c-3.3-0.5-6.6-1.4-10-1
		c-6.5,0.7-11.2,3.1-9.3,11c3.7,5.6,9.7,7.4,15.6,9.5c45.5,16.2,92.6,24.4,140.5,28.8c7,0.6,14.5,2.3,20.1-4.3
		C306.2,630.6,298.5,620.7,293.1,610.3z"/>
	<path class="st6" d="M439.7,494.9c0.2,1.9-0.3,4.5,0.7,5.6c8.2,9,3.4,18.3-0.2,26.6c-4.3,9.7-12.2,16.9-22.3,21.1
		c-1.3,0.5-3,1-4.2,0.6c-15.5-4.8-29.8,3.2-44.7,4.6c-6,0.6-10,0.2-13.9-4c-2.9-3.2-6.1-6.1-9.1-9.2c-2-2.1-4.7-4.6-3.6-7.4
		c3.9-10-2.4-19.7-0.5-29.5c3.8-0.1,7.6-0.3,11.4-0.2c9.7,0.1,9.7,0.1,9,10.3c-0.3,3.9,1.6,6.1,4.8,7.9c8.6,4.9,26,3,33.5-3.8
		c2.5-2.3,5.2-4.8,2.7-8.5c-1.9-2.9-4.1-4.7-8.3-4c-4.6,0.8-10.6,3.9-12.4-4.2C401.6,498.8,420.7,496.9,439.7,494.9z"/>
	<path class="st16" d="M189.3,471.8c-26.9-0.1-52.1,8.9-78,14.3c-13.4-2.1-26.3,3.9-40.6,2.3c7.2-6.6,16.6-4.1,23.7-8.1
		c3.6-3.4,7.4-3.5,11.5-0.9c1.9,0,3.7-0.1,5.6-0.1c57.8-11.6,116.5-18.3,177-27.9c-10.7,6.7-20.8,6.7-30.4,8.4
		c-21.1,3.8-42.3,6.6-63.5,10C192.8,470.1,191.1,471.1,189.3,471.8z"/>
	<path class="st17" d="M361.5,422c5.1-11.8,11.8-23.2,8.6-37c0.1-7.6-0.4-15.3,0.5-22.8c1.3-10.9-3.4-18-11.9-23.9
		c-3.7-2.6-8.6-4.4-10-10.9c14.9-3.8,30-2.5,45-2.8c-0.1,0.5,0,1.1-0.3,1.4c-26.5,21.1-20.2,50.1-17.4,77.5
		c1.7,16.8,15.7,25.1,29.7,32c-16-0.3-24.7-11.3-33.1-23.2c-5.4,1.6-5.2,8.7-10.2,10.7L361.5,422z"/>
	<path class="st18" d="M60.1,451.6c14.1-4.8,28.7-3.2,43.2-3.5c5.6-0.1,11.2-0.2,16.9-0.3c50.9-1.2,101.7-3.3,152.5-7.3
		c-12.7,3.9-25.6,5.7-38.8,5.5c-13.3-0.2-26.6,2-39.9,3.2c-32.4,2.8-64.9,2.7-97.3,3.2c-2.8,0-5.6,0.9-8.4,1.3
		c-7,0.2-14,0.6-21.1,0.7C64.5,454.4,61.4,455.2,60.1,451.6z"/>
	<path class="st19" d="M437.8,296.5c6.8-8.2,6.8-8.2,16-2.4c5.5,3.5,12.8,2.6,17.9,7.1c-0.1,0.5-0.2,1-0.3,1.4
		c-1,0.2-1.9,0.2-2.9,0.1c-2.6-0.6-5.2-1.1-7.9-1.7c-6-1.6-4.6,3.6-5.9,6.4c-0.2,1-0.4,2-0.7,3c-1,0.8-1.9,1.8-2.8,2.8
		c-4.5,0.9-8.1-0.7-11.3-3.8c-3.5-1.4-3.4-5.7-6.1-7.6c-2.9-0.1-5.7-0.1-8.6-0.2c-0.7-0.8-0.9-1.4-0.4-1.9c0.4-0.4,0.7-0.5,1.1-0.5
		c2.6-0.2,5.3-0.5,7.9-0.7C435.1,297.7,436.2,296.6,437.8,296.5z"/>
	<path class="st20" d="M287.3,293.4c1.1-0.7,2.2-1.4,3.2-2.1c7.8-2.4,10.2,3.2,11.9,8.6c0.8,2.5,7.7,0.3,3.8,4.2
		c-12.7,12.5-14.4,12.9-18,5.5c-3.2-6.5-8.2-4.6-13.1-6.8C282.5,303.3,286.1,299.7,287.3,293.4z"/>
	<path class="st2" d="M433.9,301.8c7.6-2,5,4.3,6.1,7.6c-0.1,1.9-0.2,3.8-0.1,5.7c0.1,2.5,2.3,6.2-2.6,6.1c-3.1-0.1-5.7-2.4-5.6-5.5
		C431.9,311.1,433.1,306.5,433.9,301.8z"/>
	<path class="st3" d="M426,299.2c-0.2,0.8-0.4,1.6-0.7,2.4c-3.9,4.3-9.4,4.9-14.7,5.9C413.7,300.8,420.5,301.3,426,299.2z"/>
	<path class="st19" d="M471.7,301.3c4.7,0.3,9,1.4,11.1,6.2c-0.4,0.4-0.8,0.8-1.2,1.3c-0.5-0.2-1.1-0.5-1.6-0.7
		c-0.7-0.5-1.5-0.8-2.4-0.8c-1.1-0.7-2.2-1.4-3.3-2c-0.9-0.2-1.9-0.4-2.8-0.7c-0.7-0.6-0.9-1.2-0.7-1.9c0.2-0.6,0.4-1,0.7-1
		L471.7,301.3z"/>
	<path class="st3" d="M454.7,307.4c1.3-2.8-3-10.7,5.9-6.4C458.7,303.2,456.7,305.3,454.7,307.4z"/>
	<path class="st19" d="M488.5,310.4c4.5,0.1,6.9,3.8,10.3,5.7c-1.4,1.1-2.9,1.2-4.4,0.4c-1.9-1.1-3.8-2.2-5.7-3.4
		c-0.4-0.4-0.8-0.9-1.2-1.3C487.8,311.4,488.2,310.9,488.5,310.4z"/>
	<path class="st19" d="M482.8,307.5c2.7-0.6,4.9-0.2,5.7,2.9c0,0,0.2-0.2,0.2-0.2c-0.8,0.9-1.8,1.3-3,1c-0.7-0.7-1.5-1-2.5-1
		c-0.9-0.6-1.2-1.2-1-1.8c0.2-0.7,0.5-1,0.8-1L482.8,307.5z"/>
	<path class="st3" d="M494.4,316.5c1.5-0.1,3-0.2,4.4-0.4c0,0,1.2-0.6,1.2-0.6C498.7,319.6,496.7,319.2,494.4,316.5z"/>
	<path class="st6" d="M290.3,500.1c-2.4,0.1-4.5-0.4-5.9-2.7C286.7,497.4,288.8,498.1,290.3,500.1z"/>
	<path class="st6" d="M327.7,503c-1-0.8-2-1.7-3-2.5C325.7,501.4,326.7,502.2,327.7,503z"/>
	<path class="st6" d="M252.9,494.4c-1-0.9-2-1.7-3-2.6C250.9,492.7,251.9,493.5,252.9,494.4z"/>
	<path class="st3" d="M485.7,311.2c1-0.3,2-0.7,3-1c0,1,0,2,0,3C487.7,312.5,486.7,311.9,485.7,311.2z"/>
	<path class="st3" d="M451.3,313.2c0.9-0.9,1.8-1.9,2.8-2.8C453.7,311.9,452.8,312.9,451.3,313.2z"/>
	<path class="st3" d="M482.9,307.3c0.1,1,0.2,1.9,0.3,2.8c-1.1-0.7-2.2-1.4-3.2-2.2C481,307.8,482,307.5,482.9,307.3z"/>
	<path class="st3" d="M474.2,305.2c1.7-0.2,2.6,0.7,3.3,2C476.4,306.5,475.3,305.9,474.2,305.2z"/>
	<path class="st3" d="M471.3,301.7c0,0.9,0,1.9,0.1,2.8c-1-0.6-1.9-1.2-2.9-1.8C469.5,302.4,470.4,302.1,471.3,301.7z"/>
	<path class="st21" d="M304.5,643.6c-33.4,0.2-66.3-4.9-98.8-11.9c-26.3-5.7-52.7-11.9-77-24.3c-6.9-7.4-15.2-11.1-25.5-9.5
		c-3.7-0.1-6.5-4.5-11.3-1.9c-1.7,9.8-3.7,20.2-2.9,30.6c0.2,3.3-0.2,6.2-1.2,8.9c0,3.4,0.1,6.8,0.1,10.3c1,1.7,1,3.9,1,6.2
		c-0.2,6.2,1.5,13.6-0.2,18.8c0.2,5.2,0.4,10.4,0.6,15.6c0.6,1.5,0.8,3,0.2,4.5c1.3,27.5,2.9,55,3.7,82.5c0.1,3.3-1.7,5.4-4,6.4
		c1.1,5.8,4.7,11.5-0.3,17.3c-1.4,1.6,0.3,2.5,1.3,3.2c5.7,4.2,3.6,10.4,4.3,15.9c0.6,5.1-1.4,10.6,2.8,15c3.8-5,9.5-7.7,14.3-11.5
		c7.4,1.5,12.9-6.6,20.5-4.2c5.8,1.8,11.2,2,16.3-2.1c3.4-2.7,6.2-1.4,8.4,1.8c1.1,1.6,1.9,3.3,3.1,4.8c3.6,5,6.7,11.3,14.5,5
		c2.4-1.9,5.3-0.2,5.4,2.3c0.8,11,8.4,9.6,15.6,9.1c5.6-9.1,3.5-14.9-8.4-19.4c-9.2-3.4-17.7-7.2-23.2-15.7c-3.4-5.3-4-10.7,0.2-16
		c3.9-4.8,8.6-4.8,14.2-2.9c12.4,4,15.6,1.5,12.9-11.8c-2.7-13.5,2.2-26.5,1.1-39.9c-0.4-5.1,2.7-10.1,7-13.7c2.4-2,5.3-2.2,7.9-0.3
		c2.8,2.1,2.7,4.8,1.2,7.6c-1.1,2.2-2.9,3.8-4.4,5.6c-2.8,3.5-5.2,7.1-2.1,11.6c3.4,4.8,8.2,6.6,13.8,5.3
		c5.9-1.3,10.4-5.2,13.5-10.1c7.1-11.4,18.2-18.1,29.3-24.1c11.8-6.4,19.4-15.3,21.3-28.6c1.2-8.5,5.4-14.8,12.2-20.2
		c6.5-5.2,13.9-10.2,15.3-19.6C306.2,644.2,305.3,643.9,304.5,643.6z"/>
	<path class="st12" d="M193.5,574.4c-6.5-4.6-13-8.7-21.3-11.6c-9.8-3.4-9.6-8.6-0.3-13.2c6.5-3.2,9.3-7.8,10.5-13.2
		c3.2-13.5-9.7-28.4-27.6-32.3c-4.1-0.9-7.7-0.8-9.7,2.3c-4.6,6.9-11.5,13.3-11.3,21.4c0.2,8.5-0.8,15.4-13.9,17.8
		c-4.8,0.9-7.8,4.7-8.8,8.9c-0.5,2.4-1.1,4.8-2.2,7.1c-1.7,3.2-4.3,5.9-9.5,5.7c-0.6,11.9-3.8,24.3-0.1,35.5
		c7.6,2.2,15.1,4.4,22.7,6.5c2.3-3.8,6-7.5,11.5-5.8c10.1,3.2,21.5,0.6,31,5.3c8.2,4,12.4,1.1,15-5.4c2.5-6.3,3.9-13.2,13.5-16.6
		C201.8,583.6,200.1,579.1,193.5,574.4z"/>
	<path class="st12" d="M105.8,520.1c-0.8,1-1.6,2.1-2.5,3.1C104.2,522.2,105,521.2,105.8,520.1z"/>
	<path class="st22" d="M460.7,166.5c9.3-16,22.2-29.5,30.6-46.1c7.6-10.1,11.9-22.7,23-33.2c12.4,44.8,23.1,87.9,15.6,131.2
		c0-4.3-0.1-10.6,0-17c0.1-3.8-1.1-6.7-4.9-7.7c-8.7-2.4-17.4-5.2-26.2-6.7c-9.7-1.7-9.8-1.2-11.5,10.5c-1.8-3.9,0.7-8.5-2.2-11.5
		c-3.3-3.4-8.2-2.3-12.3-2.3c-6.9,0-13.3-0.7-18.6-5.5c0.9-1,1.5-2.1,1.9-3.3c0.4-0.8,0.7-1.6,0.9-2.4c0.9-1,1.6-2.1,2.2-3.3
		C459.7,168.2,460.2,167.4,460.7,166.5z"/>
	<path class="st22" d="M221,201.6c-4.7,0.3-6.9-1.7-6.9-6.6c0-30.6,2-61,10-90.7c0.9-3.4,2.1-6.5,6-7.1c4.2-0.6,5.9,2.9,7.2,5.8
		c12.2,27.3,27.6,53.1,39.1,80.8c-0.4,0.9-0.7,1.8-1.1,2.6c-3.2,3.7-8.1,0.1-11.5,2.7l0-0.2c-1.1,1.9-1.4,5.5-5,2.5l0.3,0.4
		c-2.2-0.8-4.4-1.5-6.4,0.4c-1,0.2-1.9,0.4-2.9,0.6c-4.5,3.5-10.2,3.5-15.4,4.9c-1.6,0.3-3.2,0.6-4.7,0.9c-1,0.6-1.9,1.4-2.5,2.3
		c-2,7.3-1.6,14.6-0.6,22c-0.5,0.8-1,1.6-1.5,2.3c-0.2-0.9-0.4-1.8-0.6-2.7C223.8,215.5,229,207.5,221,201.6z"/>
	<path class="st1" d="M263.8,189.1c3.1-3.9,7.5-2.4,11.5-2.7c4.4,5.1,6.7,10.8,5,19.6C275.2,198.4,275,187.7,263.8,189.1z"/>
	<path class="st1" d="M234.3,197.8c5.1-1.6,10.2-3.2,15.4-4.9c-4.1,6.1-2.5,12.9-2.7,19.6l-0.4,0.3c-1.7-1.8-2.6-3.9-2.5-6.4
		C244.6,199.3,240.2,197.8,234.3,197.8z"/>
	<path class="st1" d="M258.7,191.5c1.7-0.8,3.3-1.7,5-2.5c1.1,6.8,2.2,13.5,3.6,22.3C259.6,205.1,262,197.1,258.7,191.5z"/>
	<path class="st1" d="M224.3,222.6c0.6,0.6,1.3,0.8,2.1,0.4c0.1,4,1.2,8.1-1,13.1C222.8,231.1,224.3,226.8,224.3,222.6z"/>
	<path class="st1" d="M247,212.5c2.8,2.3,3.6,5.1,1,10c-0.6-4.1-1-6.9-1.4-9.7C246.6,212.8,247,212.5,247,212.5z"/>
	<path class="st1" d="M252.5,192.3c2-1.6,4-4.1,6.4-0.4C256.8,192,254.7,192.2,252.5,192.3z"/>
	<path class="st14" d="M459.2,169.1c0.3,1.7-0.7,2.7-2.2,3.3C456.9,170.7,457.7,169.7,459.2,169.1z"/>
	<path class="st14" d="M456.1,174.8c0.2,1.6-0.6,2.6-1.9,3.3C453.9,176.5,454.6,175.4,456.1,174.8z"/>
	<path class="st3" d="M437.8,296.5c-0.9,1.4-2.1,2.4-3.9,2C434.8,297,436.1,296.4,437.8,296.5z"/>
	<path class="st1" d="M227,201c-0.1-1.8,0.7-2.7,2.5-2.3C228.7,199.4,227.9,200.2,227,201z"/>
	<path class="st12" d="M643.7,529c0.1,0.9,0.1,1.9,0.1,2.8c-15.5,10.9-28.1,25.3-44.3,35.4c-7.6,4.7-9.5,12.2-10.7,20.7
		c-1.5,11.1-4.5,12-14,6.1c-3.3-2-6.5-3.4-10.7-2.4c-9,2.1-16.9-1.2-23.9-6.7c-2.7-2.1-5.3-4.5-8.9-4c-12.9,1.7-16.6-7.6-16.3-16.6
		c0.5-13.7-6.8-27-1.5-41c1.7-4.6-1.2-8.4-7.1-7.4c-1.9,0.3-4.2,1.7-5.5,1c-4.8-2.6-12.7,0.2-14.7-6.6c-2.1-7,5.1-7.9,9.1-10.8
		c5-3.7,4.8-5.9-1.1-9.2c-3.7-2.1-7.5-4.3-11.9-4.7c5.4-3.5,11.7-3.9,17.7-5.1c1.2,2.1,2.7,4.4,5.2,4.6c9.1,0.6,14.8,5.1,18.6,13.3
		c2.1,4.5,18.1,8,22,5.5c4-2.5,5.7-5.7,4-10.9c-2.2-6.9,2-10,8.2-10c8,0,16.2-1.7,24,2.1c5.6,2.7,9.2,7.5,5.9,12.5
		c-4.4,6.7-3.6,13.2-4.1,20.3c-0.5,7.3,0.3,15.1-5.6,21.7c-4.8,5.4-1.2,10.7,4,14.5c6.1,4.4,15.2,4.9,18.6,0.9
		c3.7-4.3,3.2-8.8-0.6-12.8c-2.2-2.3-6.8-4.2-2.8-7.7c3.7-3.3,8.6-9.5,13-6.9C622,534.5,632.8,528.8,643.7,529z"/>
	<path class="st10" d="M526,416.7c-9.1,5.6-18.8,2.3-28.3,2c9.4-2.9,18.9-1.8,28.5-1.8C526.1,416.9,526,416.7,526,416.7z"/>
	<path class="st11" d="M514.4,405.2c-6.9,4.5-14.5,5.6-24.6,5.8c9.1-4.8,16.6-6.4,24.7-5.6C514.6,405.4,514.4,405.2,514.4,405.2z"/>
	<path class="st6" d="M445.2,492.3c-0.9,0.7-1.7,1.5-2.6,2.2C443.5,493.7,444.4,493,445.2,492.3z"/>
	<path class="st6" d="M459.7,489.3c-0.9,0.8-1.8,1.5-2.7,2.3C457.8,490.8,458.7,490.1,459.7,489.3z"/>
	<path class="st17" d="M359.6,425.9c-0.5,1.1-1.3,2.8-2.5,1.5c-1.2-1.2,0.4-2,1.6-2.5L359.6,425.9z"/>
	<path class="st17" d="M358.7,425c0.3-1.6,1.2-2.6,2.8-3c0,0,1,1,1,1c-0.3,1.6-1.2,2.6-2.9,2.9C359.6,425.9,358.7,425,358.7,425z"/>
	<path class="st12" d="M635.3,598c-13.4,7.7-28.4,10.7-43.2,14.2c7.3-13.8,21.7-15,34.3-19.3C630.6,591.5,633.4,594.4,635.3,598z"/>
	<path class="st12" d="M355.5,616.9c-3.5-0.9-5.9-2.5-6-5.6c-0.1-2.8,2.2-4,4.6-4.3c3.1-0.4,6,0.7,6.2,4
		C360.5,614.3,357.5,615.5,355.5,616.9z"/>
	<path class="st12" d="M551.1,607.1c-0.3,0.1-0.9,0.4-1,0.2c-0.2-0.3-0.3-0.7-0.4-1.1c0.3-0.1,0.9-0.4,1-0.2
		C551,606.3,551,606.8,551.1,607.1z"/>
	<path class="st12" d="M537.5,626.9c-1,0.9-2,1.8-3,2.7C535.5,628.6,536.5,627.7,537.5,626.9z"/>
	<path class="st7" d="M566.1,460.6c2.4-0.4,4.6-0.3,6.3,1.7C570,463.1,567.9,462.6,566.1,460.6z"/>
	<path class="st23" d="M382,647.3c4.8,0,9.6-0.1,14.5-0.1c-2.2,3.9-6.5,7.4-0.8,12.2c4.7,3.9,4.2,9.1,1.8,14.4
		c-8.2,18.2-8,38.1-11.2,57.2c-0.2,1.5,16.6,21.2,18.1,21.4c2.1,0.3,3.6-0.9,5.2-2c2.5-1.9,5-2.9,7.6-0.2c2.8,2.9,2.1,6,0.6,9.3
		c-1.6,3.5-3.5,3.8-6.7,1.8c-4.4-2.9-5.8,0.8-7.4,3.8c-1.7,3.3-1.7,6.7,1.3,9.1c3.6,2.9,6.1,0.4,8.3-2.5c0.6-0.7,1.4-1.2,2.9-2.6
		c7.1,15.5,17.5,28.4,27.5,41.3c6.8-3.2,2.8-13.2,10.1-12.2c6.1,0.9,5.1,8.1,6.6,12.9c2.4,7.9,7.3,14.5,11.8,21.3
		c2,3.1,5,4.2,8.6,4.3c5.7,0.2,11.4,0.1,16.5-2.3c3.9,5.4-2.1,7.1-2.5,10.5c-9.5,8.3-20.5,8.5-32,6.1c-5.8,0.1-11.5,0.1-17.3,0.2
		c-8.5,2.9-18.1-5.9-26,2.7c-7.7-0.1-15-4.4-22.9-2.7c-1.6,1.7-4.3,1.1-5.9,2.6c-3.7,0-7.4,0-11.1,0c-7.8-1.6-15.6-3.8-23.3,0.1
		c-3.8,0.1-7.6,0.2-11.5,0.3c-7.6,0-15.3,0-22.9,0c-4,1.2-7.2,0.2-9.7-3.2c-1.4-3.5-0.4-6.9,2.1-9.2c8.5-7.9,4.8-12.6-4.3-14.5
		c-9.5-1.9-16.8-6.3-22.6-13.9c-2.6-3.4-6.3-5.8-10.1-8c-4.8-2.7-9.1-1.9-13.3,1.3c-4.7,3.5-4.5,7.2-2.7,12.5
		c4.1,12.3,1.5,14.9-11,11.5c-9.3-2.5-18.5-3.6-28.3-3.7c-28-0.4-38.6-11.4-28.7-35.8c3.2-7.9,1.5-16,1.2-24.1
		c-0.5-14.9,3.3-19,17.7-19.5c4.8-0.2,9.5-1.5,14.3-1.1c11.6,0.9,20-1.9,23.9-14.9c2.6-8.8,9.3-15.9,20.7-13.6
		c8.7,1.7,10.5-4.6,11.9-11c2.6-11.6,7.6-21.6,16.8-29.4c3.2-2.7,6.6-5.3,9.8-8.1c9.7-8.4,21.8-8.7,32.2-5.2
		C361.2,670.9,373.4,664.4,382,647.3z"/>
	<path class="st23" d="M410.4,723.8c-1.2,5.4-4.4,6.8-8.6,6.7c-5.1-0.1-8.2-3.1-7.9-8c0.3-4.7,3.7-8.2,8.3-8.1
		C408.4,714.4,408.3,720.5,410.4,723.8z"/>
	<path class="st24" d="M382,647.3c-1.2,18-12.8,26.7-29.7,23c-14.1-3.1-28.6-7.9-42,2.6c-4.3,0-10.1-2-8.2,6.2
		c-7.6,9.6-14.5,19.3-16,32.3c-1.1,9.3-4.7,15.7-17.4,10.4c-11.5-4.8-15.6,8.7-16.1,14.7c-1,11.9-8,13.1-16.1,13.8
		c-8.5,0.7-17.2,0.5-25.8,0.2c-9.2-0.4-14,3.6-12.6,12.7c2.1,13.9,0.2,26.9-4.5,40.3c-4,11.3,8.9,22.6,25.1,20.4
		c13.4-1.7,25.3,0,37.2,5.5c1.3,0.6,2.8,1,3.9-0.4c1.4-1.6,1.5-3.7,0.3-5.3c-2.8-3.8-6-7.3-8.7-10.7c0.7-4,3.9-4.5,6.1-6.2
		c13.9-10.7,23.5-9.6,34.3,5.5c4.6,6.4,9,11,17.3,10.1c4.8-0.5,7.9,2.8,11.5,5.1c7.3,4.7,10.7,9-0.4,13.3c-4.1,1.6-6.9,5.1-6.8,10.1
		c-5,3.9-8.7,1.3-12.1-2.5c-6.6-0.1-13.2-0.1-19.8-0.2c-0.9-1-2-1.8-3-2.8c-17.3,1.4-34.3-2.2-51.5-3.3c-3.3-3.6-8.4,1-11.7-2.5
		c-7,1.1-13.1-3-19.9-3.3c4.4-11.3-3.7-15.5-11.6-16.4c-9.2-1-14.7-6.9-20.6-11.9c-9.4-8-9.3-18.9-1.6-27.6c5.7-6.4,14.1-5.8,25,1.9
		c4.1-3.1,1.4-6.6,1.1-10.3c-1.9-18.1-2.6-36.3,4.8-53.6c2.2-5.2,5.1-9.3,11.7-8.2c4.3,0.7,9,1.6,10.4,6.3c1.7,5.6-1.1,10-5.4,13.8
		c-3.1,2.8-10.1,4.7-4.4,10.8c4.7,5,10.2,4.6,15.2,0.1c1.8-1.6,4-3,5-5.1c7.5-15.3,21.7-21.9,35.9-28.9c8.1-4,13.4-11.6,14.3-20.3
		c1.2-11.8,4.7-20.7,15.8-26.8c6.4-3.5,9.1-12,16-15.8c4.9,0,9.7,0,14.6,0.1c6.6,2.7,13.9-0.8,20.4,2.2c0.9-0.1,1.8,0,2.7,0.3
		c6.7,1.9,13.4,3.2,20,0C370.5,647.1,376.3,647.2,382,647.3z"/>
	<path class="st21" d="M215.2,839.7c3.4,0.1,6.5-1,9.7-1.7c4.7-1.1,2.2,2.4,2,4.3C222.9,842.3,218.5,843.7,215.2,839.7z"/>
	<path class="st21" d="M278.5,845.5c1,0.9,2,1.8,3,2.8C280.4,847.4,279.5,846.4,278.5,845.5z"/>
	<path class="st24" d="M390.6,853.9c1.5-2,3.6-2.7,5.9-2.6C395.2,853.6,393,854,390.6,853.9z"/>
	<path class="st21" d="M364.8,647c-6.7,7.5-13.4,3.1-20,0C351.5,647,358.1,647,364.8,647z"/>
	<path class="st23" d="M342.1,646.7c-6.9-0.2-14,2.3-20.4-2.2C328.6,644.5,335.7,642.7,342.1,646.7z"/>
	<path class="st25" d="M355.8,328c8.5-1.5,14.9-1.3,22.1-0.6c0,5.7-3.2,9.7-7.4,10.6C364.2,339.5,360.7,334.1,355.8,328z"/>
	<path class="st21" d="M302,679.1c-5.3-1.2-8.3-4.3-4.2-9c4.9-5.6,9.3-2.7,12.4,2.8C308.7,676.5,305.9,678.5,302,679.1z"/>
	<path class="st21" d="M272.5,743.4c-0.1,3.2-1.6,5.6-3.9,5.4c-4-0.4-6.8-3.2-6.5-7.5c0.2-2.9,2.3-5.3,5.6-4.7
		C271.4,737.3,272.3,740.6,272.5,743.4z"/>
</g>
</svg>
