<?xml version="1.0" encoding="utf-8"?>
<!-- Generator: Adobe Illustrator 27.4.0, SVG Export Plug-In . SVG Version: 6.00 Build 0)  -->
<svg version="1.1" id="Layer_1" xmlns="http://www.w3.org/2000/svg" xmlns:xlink="http://www.w3.org/1999/xlink" x="0px" y="0px"
	 viewBox="0 0 720 720" style="enable-background:new 0 0 720 720;" xml:space="preserve">
<style type="text/css">
	.st0{fill:#618FAF;}
	.st1{fill:#FDA6A1;}
	.st2{fill:#FBF6ED;}
	.st3{fill:#E6CFC6;}
	.st4{fill:#CAB6AF;}
	.st5{fill:#34434E;}
	.st6{fill:#FCCE60;}
	.st7{fill:#FDD768;}
	.st8{fill:#FD8A88;}
	.st9{fill:#FCBB34;}
	.st10{fill:#202027;}
	.st11{fill:#323C49;}
	.st12{fill:#505A65;}
	.st13{fill:#334450;}
	.st14{fill:#718087;}
	.st15{fill:#FDDC84;}
	.st16{fill:#FC9E1B;}
	.st17{fill:#FCC33F;}
	.st18{fill:#FCC12E;}
	.st19{fill:#FFFFFF;}
</style>
<rect x="0" y="-0.5" class="st0" width="720" height="720"/>
<path class="st1" d="M139.3,350.8c4.6-9.1,5.7-19.4,9.3-28.8c3.7-3.2,8.2-4.1,12.1-1.6c19.7,12.4,43.1,13.5,64.1,22
	c13.8,5.6,26.6,13.7,41.7,15.9c6.6,1,13,1.8,19.9,1.7c23.6-0.2,46.7,4.8,69.8,9.1c-3.4,13.7,2.5,23.8,11.7,33.5
	c5.5,5.8,1.9,13.6-0.5,20.4c-0.1,1.2-0.8,2.2-1.5,3.2c1.3-0.1,0.4-1.7,1.4-2c2.5-13.3,6.5-25.5,18.6-33.8c6.2-4.2,4.2-13.8,10-18.8
	c23.3-10.1,47.2-15.4,72.8-11c12.7,2.2,24.6-3.2,36.3-7.6c8.6-3.2,16.9-5.1,26.6-3.7c11.5,1.7,22.7-2.5,33.6-6.4
	c6.8-2.4,13.4-5.5,20.9-2.9c8.1,4.4,10.8,11.5,10.4,20.3c-8.6,8.1-20.9,4.5-28.2,8.4c-4.2,1.5-1.3,4-2.3,2.3c-0.1-0.2,0-0.5,0.6-0.7
	c9.8-3.1,19.4-7.6,30.2-4.6c4.7,7.6,7.6,15.3,1.5,23.6c-23.7,5-47.7,3.3-71.6,5.5c-1.9-1.8,0.3-0.8,0.5-0.2c1.2,2.8,4.2,1.5,6.1,1.3
	c22.3-3.3,44.9-3.2,67.4-5.3c5.8,5.4,7.7,11.5,3.8,18.9c-26.5-2.7-53.1-4.8-75.7-7.4c6.7,1.8,17.6,2.7,28.7,2.8
	c17.2,0.3,34.1,2.6,50.3,8.9c4.6,7.7,4.9,16.5,5.7,24.9c2.1,20.4,7.2,40.4,9.7,60.7c-0.8,2.6-2.7,3.9-5.3,4
	c-11.7,0-20.1,5.3-25.9,15.4c-2.7,4.7-7,7.9-12.2,9.7c-4.1,1.4-8.7,2.5-11.2,6.2c-6.2,9.4-15.1,12.7-26.4,12
	c2.5,4.2,6.5,3.4,9.3,4.9c6.7,3.7,9,9.2,4.4,15.4c-4.8,6.4-8.4,14-15.3,18.8c-15.4,3.5-31.3,1.1-46.8,3.6c-3.3,0.5-6.6-0.7-8.9-3.5
	c-0.2-8.4,7.4-8.9,12.4-11.8c15.5-9,16.6-24,2.1-34.8c-7.5-5.6-16.1-9.1-25.4-9.7c-11.1-0.7-22-2.2-33-3.9
	c-12.5-2-23.5,7.1-36.2,8.2c-16.4,1.4-30.6,8.1-44.8,17.4c-18.9,12.3-40.6,19.4-64.3,17.5c-11-0.9-16.5-6.9-19.4-16.4
	c-1.9-6.1-1.1-12.4-0.4-18.7c1.5-11.9-3.5-18.7-15.3-22.4c-20.3-6.4-40.9-11.3-62-14.4c-21.5-3.2-42.7-8.7-61.9-19.7
	c-8.4-4.8-11.9-2.9-13.5,6.4c-1.8,10.2-0.7,20.2-0.4,30.4c0.1,4.7,3.1,8.1,7.6,9.7c5.5,2,10.6,4.7,15,8.6c5.8,5.1,12.1,5.6,18.9,2.4
	c15.7-7.6,33.4-9.9,48.5-18.9c3.9-2.3,8.5-3.2,12.6-1.6c11.6,4.7,22,11.8,33.8,16.2c4.8,1.8,5.9,7.5,6,12.5
	c0.1,13.5,1.7,27-0.2,40.4c-3.1,3-6.8,3.1-10.7,2.7c-2.2-0.3-4.4-0.7-6.6-1.1c-5.7-0.9-11.6-0.5-17.3-1.8c-2.8-0.6-5.6-1.4-8.6-1.5
	c-10-2.1-20.9-1.9-27.9-11.3c1.8-4.2,10.7-6.2,3.4-13.1c-5.7-5.3-10.8-5.8-16.4-0.4c-3.1,3-5,7.3-9.7,8.4
	c-14.1,0.3-25.7-7.5-37.3-13.3c-10.2-5.1-19.6-12.8-28.4-20.6c3-28.9,5.5-57.9,10.6-86.5c1-5.5,2-11.4,6.1-15.8
	c10.5-7.5,23.9-6,35.2-11.4c9.5-2,19-3.6,28.5-5.4c4.3-3.3,10.1,0.4,14.4-2.8c3.3-2,6.7-1.9,8.2-1.5c-1.9-0.2-5.7-0.7-9.2,2.2
	c-4.7,1.8-10.2-1.1-14.4,2.9c-9.7,0.6-19,2.7-28.3,5.3c-8.8,2-17.3,5.6-26.5,5.9c-8.7-12.6-4.4-24,3.3-35.1c0.4-0.6,0.8-1.1,1.3-1.6
	c16.2-2.8,32.5,0.1,48.5,1.3c7.9,0.6,15.8,1.4,23.7,2.2c-23.5-4.5-47.9-0.9-71.2-7.7c-3.2-5.1-2.7-9.9,0.9-14.6
	c0.1-1.8,0.2-3.6,0.3-5.4c1-2,1.8-4.1,4.4-4.6c22.8,4.7,45,11.8,62.5,15.7c-13.8-3.9-33-8.3-51.9-13.7c-4.3-1.2-11,0.6-12.6-6.5
	C139.3,352.8,139.3,351.8,139.3,350.8z"/>
<path d="M136.2,382c26.5,2.7,53,5.3,79.5,8c-0.1,1.2-0.2,2.3-0.3,3.5c-26.8-3.9-53.8-4.3-80.7-6.5c-10.1-1.6-20.2-1.1-30.4-0.3
	c-2.7,0.9-5.8-0.3-8.4,1.6c-5.1,0.1-10.3,0.1-15.2,2c-0.9-0.2-1.5,0.1-1.8,1c-3.1,0.5-6.3,0.9-9.4,1.4c-1,0.3-1.8,0.8-2.6,1.4
	c-2,0.4-4,0.9-5.9,1.3c-1,0.4-2,0.9-2.8,1.6c-4.5,0.3-8.2,2.8-12.1,4.6c-2.2-0.7-3.4-1.9-2.6-4.3c1.1-0.4,2.2-0.8,3.4-1.1
	c1.1-0.2,1.9-0.8,2.4-1.8c1.1-0.3,2.2-0.7,3.4-1c1.1-0.3,2.1-1,2.9-1.8c1,0.1,1.9-0.1,2.8-0.6c3.5-6,10.4-2.1,14.9-5.1
	c2.8-0.4,5.6-0.7,8.4-1.1c2.1-0.5,4.3-0.6,6.2-1.8c3.7-0.3,7.3-0.6,11-0.9C111.4,377.3,123.8,382.3,136.2,382z"/>
<path d="M139.4,353.7c24.1,9.1,49.7,13.4,74.2,21.1c-0.2,0.9-0.4,1.8-0.6,2.7c-24.4-5.8-48.7-11.6-73.1-17.4
	c-1.1,0.6-2.2,0.5-3.1-0.5L136,359l-1,0.1c-1.5,0.1-2.4-1.2-3.8-1.5c-4-0.4-8-0.8-11.9-1.2c-2.5-2.1-5.6-0.7-8.3-1.7
	c-8.7-0.9-17.4-0.8-26.1,0.1c-1.6,2-3.4,3.7-6.2,2c-4,0.3-7.9,0.6-11.9,0.9c-1.1,0.4-2.1,0.9-3.2,1.5l-0.9-0.2l-0.8,0.3
	c-1.2-0.5-1.6-1.3-1-2.5c2.5-2.5,5.9-3.1,9.2-3.8c1.4-0.5,2.5-1.7,4-1.8c4.5-0.4,8.9-0.8,13.4-1.1c8.6-1.1,17.2-1.1,25.9,0
	c4.5,0.4,9,0.7,13.5,1.1c1.5,0,2.4,1.4,3.9,1.5C133.7,353,136.5,353.4,139.4,353.7z"/>
<path d="M125.5,429.7c-5.4,0.2-10.2,2-14.5,5.2c-1.2,0.3-2.3,0.7-3.5,1c-1,0.4-2,1-2.8,1.7c-1,0.4-2,0.7-3,1.1c-1.1,0.5-2,1.1-3,1.8
	c-0.9,0.3-1.9,0.7-2.8,1c-1.1,0.6-2.1,1.2-3.2,1.9c-1,0-1.9,0.4-2.6,1.1c-1.1,0.6-2.1,1.2-3,1.9c-0.9,0.4-1.9,0.8-2.8,1.1
	c-1,0.5-2,1.1-2.7,1.9c-1.1,0.5-2.1,1-3.2,1.5c0,0-1.3,0.2-1.3,0.2l-0.3,1.2l-1,0.6c-1.1,0.6-2.1,1.4-3,2.1
	c-1.9,1.2-3.9,2.5-5.8,3.7c-2.6,0.2-3.7-0.9-2.8-3.5l0.1-0.1c1.1-0.8,2-1.9,3-2.8l-0.1,0.1c0.9-1.1,2.1-2.1,3.4-2.9
	c1.8-1.2,3.6-2.3,5.4-3.5c1.1-0.8,2.2-1.6,3.3-2.3c0.9-0.4,1.7-0.8,2.6-1.2c1.1-0.3,1.9-0.9,2.5-1.9c1.1-0.4,2.2-0.8,3.4-1.2
	c1.1-0.1,1.9-0.7,2.2-1.7c1.2-0.4,2.4-0.8,3.6-1.2c1.1-0.1,1.9-0.7,2.3-1.7c1.2-0.4,2.3-0.7,3.5-1.1c1.1-0.3,2-0.8,2.6-1.8
	c1-0.2,2.1-0.5,3.1-0.7c1.2-0.6,2.3-1.3,3.5-1.9c1.8-0.5,3.5-0.9,5.3-1.4c1.1-0.3,2-0.9,2.8-1.8c0.9-0.2,1.9-0.4,2.8-0.7
	c3.2-3,6.5-5.3,11.1-3.1c9-1.2,17.2-6.3,26.6-5l-0.1-0.1C147.7,424.5,135.2,423.4,125.5,429.7z"/>
<path d="M43.6,397.2c-0.7,2.4-0.4,4.1,2.6,4.3c-1.2,0.7-2.4,1.6-3.7,2.1c-2,0.8-4.5,3-5.9-0.3c-0.9-2.2,1.8-3,3.3-4
	C41.1,398.5,42.4,397.9,43.6,397.2z"/>
<path d="M64.1,455.3c-0.3,2.2,0.9,3.2,2.8,3.5c-1.7,2-4.3,3.3-5.9,1.3C59.1,457.5,62.3,456.5,64.1,455.3z"/>
<path class="st2" d="M95.7,434.9c-0.8,0.6-1.5,1.2-2.3,1.7C94.2,436.1,95,435.5,95.7,434.9z"/>
<path d="M101.9,432.1c-0.9,0.6-1.8,1.2-2.6,1.8C100.1,433.3,101,432.7,101.9,432.1z"/>
<path class="st2" d="M49.4,394.3c-0.8,0.6-1.6,1.2-2.4,1.8C47.8,395.5,48.6,394.9,49.4,394.3z"/>
<path class="st3" d="M358.3,371.5c-4.2-0.5-8.3-1.1-12.7-1.2c-8.2-0.2-16.3,0-24.9-3.3c-10.3-4-22.7-4.3-33.9-3.4
	c-17,1.5-32.2-3.2-46.8-10c-16.6-7.7-33.5-14.4-51.6-17.1c-9.5-1.4-17.2-6-25-10.6c-4.8-2.9-9.4-4.6-14.9-3.9
	c6.7-21.5,13.2-43.2,20.1-64.6c4.7-14.6,10-29.1,15-43.6c23.8-13.8,48.9-24.1,76-29.5c20.7-1.9,20.7-1.9,20.7,18.4
	c0,8.2,0.1,16.4-0.1,24.6c0.2-11.3,0.2-22.6,0.1-33.9c0-5.5,0-11.2,6.5-12.9c6.1-1.6,12.5-1.8,17.9,2.4c5.1,4,6.9,9.4,4.4,15.5
	c-3.2,8.1-4.9,16.8-8.7,24.5c-4.9,10.2-4.3,19.4,1.7,28.7c2.6,4,5,8.2,6,15c2.1-17.2,7.5-22.3,22.4-20.3c10.9,1.5,21.1,0.5,31.2-3.3
	c12.3-4.6,14.3-6.9,12.6-19.9c-1-7.8,2.9-10.7,9.1-12.1c10.8-2.6,21.8-4.5,33-3.2c20.1,2.3,40.1,5.4,60.4,5.8
	c2.9,0.1,5.9,0.5,8.5,1.8c9.1,4.4,16.9,4.1,25.3-2.8c7-5.7,10.9-4.1,17,3.3c1.8,2.1,2.3,5.4,6.6,6.2c4.5-3.2,2.9-12.2,10.6-13.5
	c5.9-1,11.5-1.3,16.6,2.4c3.6,3.6,5.4,8.2,5.8,13c3.5,35.2,15.3,68.6,20.9,103.4c0.9,5.3,2.4,10.4-2.1,14.9c-4.4-0.1-8.7-0.2-12.7,2
	c-9,4.8-18.8,6.6-28.6,8.7c-6.6,1.4-12.7,4.4-19.2-0.2c-3-2.1-6.2-1.4-9.5,0.4c-10.2,5.5-21.4,8.2-32.5,11.3
	c-5.7,1.6-11.8,2.1-17.2,0.2c-15.6-5.6-30.8,0.2-45.6,2.4c-8.8,1.3-18.4,4.6-27.4,7.6C381.4,379.9,369.8,376.5,358.3,371.5z"/>
<path class="st4" d="M410.2,162.4c0,14.1,0,14.1,13.5,13.9c2.1-1.3,4.2-1.3,6.1,0.3c5.6,5.7,11.1,3,16.7-0.2
	c28,0.6,54.7,8.6,81.7,14.3c9.8,2.1,19.6,4.5,29.5,6.2c3.7,4.4,2.5,9.6,2.5,14.6c-5.8,0-11.5,0-15.8,0c-4.9,3.4-2.2,6.2-2,8.9
	c0.3,5.5-2.8,7.9-7.7,8.4c-4.7,0.5-8.8-0.3-9.1-6.4c-0.1-1.9-0.2-4-0.9-5.7c-2.3-5.4-8.3-6.9-11.4-2.1c-7.9,12.3-16.9,12.1-27.8,4.7
	c-1.9-1.3-4.6-1.8-6.9-1.8c-20.8,0.2-41.1-3.2-61.6-5.7c-13.7-1.7-27.4,0.7-40.4,5.3c0.1,1.4-0.1,2,0.2,2.4
	c8.7,13.5,5.1,22.2-10.9,27c-12.4,3.7-24.4,7.1-38,3.4c-11.6-3.2-17.5,4.6-15.5,17c0.1,0.5,0.4,0.9,0.5,1.4c0.5,3.2,2.5,7.5-2.3,8.3
	c-4.3,0.8-5.4-3.5-5.4-6.9c-0.1-9.9-7.6-16.4-11.3-24.7c-2.8-6.3-3.6-11.8,0.3-17.6c6.4-9.8,5.2-22.6,12.6-32.1
	c1.9-2.5,0.4-5.5-1.5-7.9c-4.7-5.9-11-5.6-17.2-4.2c-6.1,1.4-6.2,6.6-6.2,11.6c0,12,0,24,0,36c-1,0.1-2,0.1-3,0.2
	c0-5.6,0-11.2,0-16.9c0-6.3,0.2-12.6-0.1-18.8c-0.3-9.6-0.5-9.5-10-7.9c-3.3,0.6-6.7,0.6-10,0.8c8.3-13.2,21.4-12.1,34.3-11.6
	l1.1-0.3c1.4,2.8,3.3,1.6,5.1,0.6c16.4-2.1,32.9-4.2,49.3-6.2c4.5-0.5,5.4-3.4,4.9-7c-0.6-5.2-2.4-10.2-1.8-15.5
	c6.7,0.4,4.8,5.8,5.8,9.7c1.2,4.4-3,12.5,5.5,12.3c9.4-0.2,4.5-8.6,5.7-13.5c0.8-3.4-1.2-7.6,3.7-11.2c3.4,6.7,1.8,13.4,2.1,19.7
	c0.3,6,2.5,9,8.7,8.4c5.6-2.2,3.9-7.6,5.1-11.7c0.8-4.6-0.7-9.4,2.5-16.1c2.5,7.8,1.4,14,1.6,19.9c0.1,5.1,1.5,8.1,7.3,8
	c5.2-0.1,6.4-3,6.4-7.4c0-3.3,0.3-6.7,0.5-10C412.1,156,410.8,159.4,410.2,162.4z"/>
<path class="st5" d="M293.1,176.7c-10.8,5.7-23.8,5.1-34.3,11.6c-15.8,4.9-31.7,9.8-47.5,14.8c-2.2,0.7-4.8,1.7-6.2,3.4
	c-5.7,6.9-13.2,7.9-21.4,7.3c0.3-0.5,0.3-1,0-1.5c1.9-3.9,0-8.3,1.8-12.3c6.6-49.7,15.5-98.9,27.1-147.6c1.2-5.1,2.9-10.2,5-15
	c1.6-3.5,4.7-3.1,6.8-0.3c1.7,2.2,2.7,5,3.8,7.7c16,37.7,32.7,75,52.4,110.9C284.6,162.8,288.9,169.7,293.1,176.7z"/>
<path class="st3" d="M185.5,200c0.2,4.2,0.7,8.5-1.8,12.3C182.9,207.9,182,203.6,185.5,200z"/>
<path class="st3" d="M299.4,177c-2,2.2-3.9,3.2-5.1-0.6C296,176.6,297.7,176.8,299.4,177z"/>
<path class="st6" d="M83.2,717.1c35.6,0.3,71.1,1.8,106.7,1.9c3.3-12.3,0.4-27.2-9.2-34.3c8.2-3.6,12.5-10.4,15-18.6
	c3.2-10.6,10.4-13.1,20.3-9.8c2.7,0.9,5.5,1.8,8.3,2.7c9.6,3.1,19.1,6.7,29.5,6.6c3.8,0,8.6,0,10,4.2c1.9,5.5-3.7,7-6.9,9.6
	c-1.9,1.5-4.1,2.6-5.8,4.3c-7.1,7.1-5.6,13.2,4.2,15.5c7.1,1.7,14.5,0.3,21.7,1c21.8,2.1,34.8-9.5,43.3-27.7
	c2.2-4.6,5.3-6.5,9.7-7.6c4.2-1.1,8.5-2.1,12.4-4c11.4-5.5,14.7-14.8,9.9-26.4c-1.5-3.7-6-6.5-4.4-11.5c7.3-2.2,14.7-0.1,21.8-1.5
	c10.8-2.1,18.9,1.7,25.5,9.7c3.5,3.3,5.6,9,12.2,6.9c3.6-7,10.3-13.6,3.7-22.1c-9.9-12.7-9.9-12.8,5.5-20.2c3.6-1.7,10.4-1.8,5.9-9
	c-22.4-4.7-44.7,0.7-67.1,1c-1.8,0-3.4,1.7-4.8,3.1c-3.1,6.1-2.8,16.2-14.6,11.6c-2-0.8-4.1,2.2-5.7,3.9c-4.2,4.3-9.5,4.7-14.8,4
	c-23.9-2.9-48.1-3.7-72-6.7c-21.9-2.8-24-2.2-23.9,17.5c-1.2-16.6-6.2-22-18.6-21.3c-5.8,0.3-8.5,2.1-9.8,4.6
	c0.1-12.5-2-24.3-6.5-35.9c-1.7-7.6-8.4-4.5-12.9-5.9c-10.6-1.1-18.9-8.6-29-11.1c-7.1-1.8-12.9-5.2-17.5-11.3
	c-4-5.3-9.4-9.3-16.9-6.9c-2.1,23-5.4,45.8-10.2,68.3c-1.8,8.4,1.5,17.6-4.4,25.1c-2.1,0.7-2.1,1.7-0.2,2.7
	c1.4,21.7-4.8,42.6-7.3,63.9C85.1,701.2,84.2,709.2,83.2,717.1z M219.8,626.7c0.1,0,0.1,0,0.2,0C221.7,626,219.9,628.5,219.8,626.7z
	 M190.4,616.3c0.1,2.3-0.1,4.6-0.9,6.7C189.9,620.8,190.2,618.5,190.4,616.3z"/>
<path class="st7" d="M645.5,653.5c-2.9-7.9-2.3-16.3-3.7-24.4c-1.7-4.1-1-8.4-1.6-12.6c-2.8-19.6-2.5-39.8-10.3-58.5
	c-4.2-4.1-9.4-8.9-14.3-2.8c-4.7,5.7-10.7,5.4-16.4,7.3c-18.7,6.4-38.5,10.1-55.9,20.2c-16.8,1.2-33.8-1.7-50.4,2.9
	c-2.8,0.8-5.8,0-8-2.3c-3.8-2.2-6.8-0.4-9.7,2c-5.1,7.4-8,16.7-17.3,20.5c-7.6,3.1-11.7,8.2-14.1,16.6c-5,17.2-14.3,21.2-31.4,16
	c-1.8-0.6-3.6-1.2-5.5-0.3c-4.6-1.2-5.2-6.5-8.8-8.7c-15.6,3.3-12.2,16.2-12.6,26.5c-0.5,11.8,0.9,23.1-15.1,26.6
	c-6.7,1.5-10.6,9-8.7,16.4c2.1,8.1,9.1,9,16.3,8.5c11-0.8,20.3-4.7,24.2-14.9c5.7,2.1,7.2,16,12,5.6c7.1-15.6,17.5-13.3,29.6-12.2
	c16,1.4,29.7,5.5,33.6,23.8c22.7,1.3,45.3,0.1,64.6-2.1c-4.2,1.6-8.4,5.3-6.4,12.6c0.6-0.2,1.2-0.4,2-0.4c25.9,0,51.9,1.1,77.7-1.1
	c1.6-0.1,2.8,0.4,3.6,1.2c9.5-2.6,18.8-6.6,27.5-13.3C652.4,688.8,644.2,671.2,645.5,653.5z"/>
<path class="st8" d="M484.8,583.3c-2.8,0.9-5.7,1.8-8.5,2.7c-2,2-4.4,2.5-7.1,2.3c-3.2-0.4-6.3-0.4-9.4,0.4c-3.3,0.7-6.7,0.9-10,1.1
	c-4.4-0.3-8.5,0.9-12.7,1.9c-4.7,0.6-9.4,1.2-13.1-2.8c-16.2-0.7-32.3,0.9-48.3,2.6c-8,0.9-16-3.8-23.9,0.2c-27.2,4-53.9-1-80.6-4.8
	c-2.8-0.4-5.3-2-6.8-4.7c-3.3-4.7-2.9-10.1-2.8-15.4c0-8.7,0-17.4,0-26.1c0-5.5-2.2-9.7-8.2-9.9c-8.4-0.2-14.3-4.7-20.5-9.6
	c-8.6-6.9-12-6.7-21.6,0.3c-4.1,3-8.7,4.2-13.3,5.5c-10.6,3.1-21.1,6.1-30.9,11.2c-9.4,4.9-18.3,5.6-25.5-4.3
	c-2.9-4-7.1-5.9-12.4-6.5c-7.6-0.9-12.2-6-11.5-13.7c1.5-15.9-2.1-32.5,6.8-47.6c0.8,0.1,2.4,0,3.5,0.8c28.6,19,61.1,24.8,94.3,29
	c7.6,1,15.1,2.7,22.3,5.8c6.2,2.7,12.5,4.8,19.3,5.9c12.7,1.9,19.8,12.5,16.8,25.2c-1.9,8.3-2.9,16.2,1.3,23.9
	c4.1,7.7,7.8,9.3,16.5,7.7c1.4-0.3,3-1.6,4.1-1.2c12.4,3.8,22.6-1.7,34-5.7c13.5-4.8,25.9-10.1,36.1-20.2c2.5-2.4,5.6-5.3,8.7-4.6
	c9.7,2.4,17.8-3.2,26.6-4.3c8.2-1,16.2-0.7,22.5-7.5c2.8-2.9,7.3-2,11-0.3c9.5,4.3,19.6,4.2,29.8,4.5c14.5,0.4,27.4,5.6,37.4,16.3
	c11.1,11.8,7.2,29.3-7.6,35.7C495.7,579.4,490.2,581.3,484.8,583.3z"/>
<path class="st9" d="M264.3,582.3c25.4,3.2,50.9,6,76.5,6.6c3.9,0.1,7.4,1.4,10.9,3c-0.1,4.8-0.2,9.6-0.4,14.5c-0.1,3-1.1,6.2-4.1,7
	c-4.1,1.2-4.1-2.9-5.3-5.3c-0.9-1.8-2.3-3-5.3-3.7c-4.4,15.7-17.3,11.3-27.7,9.9c-18.5-2.5-37.2-3.2-55.8-4.8
	c-6.3-0.5-12.2-2.5-18.4-3.1c-11.7-1-13.4,0.4-13.7,12.1c-0.1,5.2,0,10.5,0,18.3c-4.6-7.8-2.4-13.7-3-19.3
	c-1-10.3-12.4-17.4-22.1-13.6c-3.4,1.3-3.9,4-3.9,6.9c-0.1,6.1,0,12.3,0,21.4c-4.2-7.5-3.4-12.5-2.8-17.1c1.2-9-6.7-17.3-1.2-26.9
	c1.4-2.4-4.1-6-6.7-8.7c-4.7-4.8-3.6-8.4,2.1-11.1c3.7-3.2,7.3-3.3,10.8,0.2c9.3,4.8,18.9,8.5,29.6,8.7c1.6,1.6,3.9,1.1,5.7,2.1
	c6.9,0.2,13.7,0.4,20.6,0.6c0.7,1,1.6,1.8,2.7,2.2C256.7,582.2,260.5,582.3,264.3,582.3z"/>
<path class="st8" d="M626.8,557c-2.4,1.9-11.1-7.9-8.4,4.4c0.1,0.3-5.7,2.2-8.9,2.9c-15.6,3.4-30.7,8.2-45.3,14.6
	c-6.3,2.8-13.9,2.6-21,3.8c-1.3-6.8,3.4-10.5,7.4-14.7c7.6-8.2,6.7-11.8-3.8-14c-5.2-1.1-13.2-1.8-12.7-6.9
	c0.7-7.8,9.2-4.5,14.3-4.5c7,0,12.2-1.5,14.8-8.6c1.9-5,6.6-7.8,11.2-8.3c8.9-1,13.3-6.2,17.2-13.4c6-11.1,17.1-14.7,29.1-10.5
	c0.3,3.8,0.5,7.5,0.8,11.3c1.4,1.8,1,4.2,2.2,6.1c0.3,4.6,0.7,9.2,1,13.8c1.3,2.6,4,4.4,4.9,7.3c1.4,5.2,1.9,10.4-1.1,15.4
	C628,556.1,627.4,556.6,626.8,557z"/>
<path class="st10" d="M358.3,371.5c11.9,0.2,23.7,1.1,35.4,3c4.1,6.6,1.2,12-3.3,16.9c-3.6,3.9-7.2,8-11.6,10.7
	c-4.9,3-7.8,6.9-5.5,11.7c4.1,8.4-3.2,9.4-7,12.7l0.2,0.3c-0.1-1.9-0.8-4-0.2-5.7c3.2-9.3,1.9-16.8-7.1-22.3
	c-3.7-2.3-5.6-6.6-7.3-10.6C347.9,379,348.7,377.2,358.3,371.5z"/>
<path d="M598.6,388c25.9,0,51.8,0.1,77.8,0.1c2.1-1.5,4-1.3,5.9,0.4c2.9,1.4,6.5,1.6,7.9,4.5c-29.7-1.9-59.6-2.1-89.6-0.2
	c-19,2.9-38.5,0.6-57.5,4.2c-6,1.1-12.4,1.6-20.3-1.3C549,390.5,574,391.4,598.6,388z"/>
<path class="st8" d="M194.2,568.6c-3.6-0.1-7.2-0.1-10.8-0.2c-2.6-4.5-9.1-1.4-11.7-5.9c3-1.9,3.7-5.5,5.6-8.2
	c6.1-8.9,17.8-8.9,23.4,0.1c2.5,4,4.4,8.3,6.6,12.5C202.8,569.5,198.4,568,194.2,568.6z"/>
<path d="M595.8,360.2c27.7-5.4,55.2-11.9,83.9-7.7c-13.8,2-27.7,2.2-41.4,4.4c-14.6,2.4-29.4,3.7-43.3,9.1
	c-10.6,1.8-21.3,3.5-31.9,5.3C573,364.1,585.3,365,595.8,360.2z"/>
<path d="M618.5,414.6c-4.1,0.1-8.2,0.1-12.3,0.2c-16.6-5.1-33.6-8-50.9-8.5c-11-0.3-22.1-0.1-32.5-5.2c27.2,1.4,54.4,1.7,81.3,7.5
	C607.9,413,615.2,409.2,618.5,414.6C618.4,414.7,618.5,414.6,618.5,414.6z"/>
<path d="M186,411.6c-9.1,4.7-18.8,6.2-28.9,5.9c0,0,0.1,0.1,0.1,0.1c9-5.5,18.9-6.1,29-5.8L186,411.6z"/>
<path d="M186.1,411.8c4-5.1,9.6-2.2,14.5-2.9l-0.1-0.2c-4,5.3-9.6,2.4-14.5,2.9C186,411.6,186.1,411.8,186.1,411.8z"/>
<path d="M200.6,408.9c3.4-3.7,7.4-3.3,13.9-1.7c-6,2.5-10.1,1.5-14,1.6C200.5,408.7,200.6,408.9,200.6,408.9z"/>
<path class="st8" d="M229.5,579.4c-2.3,0.5-4.3,0-5.7-2.1C226,577.2,228,577.6,229.5,579.4z"/>
<path class="st8" d="M252.8,582.2c-1.5,0-2.2-0.9-2.7-2.2C251,580.7,251.9,581.4,252.8,582.2z"/>
<path class="st10" d="M366.3,426.5c-0.3,0.3-0.6,0.7-1,0.9c-0.2,0.1-0.5,0-0.8-0.1c0.2-0.9,0.9-1.1,2-0.6
	C366.5,426.8,366.3,426.5,366.3,426.5z"/>
<path class="st11" d="M328.6,323.3c-0.9,0.3-1.9,0.9-2.7,0.7c-13.8-3.1-20.8,2.4-26.3,15.6c-6.3,15.1-21.9,20.3-40.5,17.3
	c-15.2-2.5-27.1-13.7-28.8-29.8c-0.7-7-3.4-9.1-9.7-9.5c18.3-4.1,35.8,2,53.6,1.3C292.5,318.3,310.3,324.5,328.6,323.3z"/>
<path class="st12" d="M416.2,323.4c27.3-0.9,53.7-2.6,80.1-1.2c-1.6,21-10.9,32.5-28.7,35.7c-16.7,3-32.8-6.2-40.5-23.1
	C424.8,329.7,424.6,322.9,416.2,323.4z"/>
<path class="st13" d="M557.8,196.9c-4.5,6.1-10.5,2.6-15.6,2c-4.6-0.6-9-2.9-13.4-4.8c-10.5-4.6-22-2.1-32.8-5.4
	c-11.5-3.5-23.1-7.4-35.7-6.7c-4.5,0.2-10.5-0.5-13.7-5.6c11-26,22-52,33.1-78c1.3-1.7,0.7-4.3,2.6-5.7l0,0
	c9.7,3.7,15.7,11.8,21.5,19.5c4.3,5.8,6.2,9.1,13.9,3c9-7.1,16.2-3.8,19.9,6.2C544,146.7,549.5,172.2,557.8,196.9z"/>
<path class="st14" d="M537.5,121.5c-6-7.7-15.7-6.9-20.9,2.1c-2.4,4.1-5,4.1-8.2,2c-2.9-1.9-5.1-4.5-5.8-8
	c-1.1-5.1-4.5-9.1-8.6-11.1c-6.3-3-8-9-11.7-13.8c6.6-22.7,17.9-43.3,28.6-64.2c1.2-2.4,2.9-5.6,6.4-4.6c3,0.9,4.1,4,4.6,6.8
	c2.7,14.2,5.2,28.3,7.6,42.5C532.2,89.3,534.8,105.4,537.5,121.5z"/>
<path class="st3" d="M429.9,176.6c-2-0.1-4.1-0.2-6.1-0.3c1.2-5.1-1.5-11,3.4-16.6C431.4,165.7,429.3,171.4,429.9,176.6z"/>
<path d="M618.4,414.7c6.1-1.2,11.1,1.6,15.9,4.9C628.9,418.7,622.9,419.3,618.4,414.7C618.5,414.6,618.4,414.7,618.4,414.7z"/>
<path class="st3" d="M410.2,162.4c-0.6-2.3-1-4.7-3.5-5.9c0.6-1.9,1.5-3.8,3.6-3.6c2.6,0.3,2.2,2.7,1.9,4.4
	C412,159.1,410.9,160.7,410.2,162.4z"/>
<path class="st14" d="M482.2,92.7c0.6,2.6-0.4,4.4-2.6,5.7C479.1,95.9,480.2,94.1,482.2,92.7z"/>
<path class="st1" d="M623.7,519.1c-2-1.6-2.4-3.7-2.2-6.1C623.7,514.6,624.2,516.7,623.7,519.1z"/>
<path class="st15" d="M188.3,698.2c-2.8,6.7-1.8,13.9-2.9,20.8c21.8,0.1,43.6,0.6,65.4,1.1c20.4,0.5,40.8,0.9,61.2,0.9
	c20.2-0.1,40.5-1.4,60.6-2.8c19.9-1.4,40.2-3.6,60.2-2.9c15.1,0.6,30,2.5,45.1,3.4c-1.6-2.7-2.3-6.4-1.9-11.2
	c0.2-21.5,0.2-21.6-20.7-22.9c-4-0.2-7.6-1.1-11.1-2.9c-10-5.1-19.9-0.2-29.3,1.8c-5.6,1.2-0.5,10.6-4.1,15.5
	c-3-3.4-0.9-7.6-2.1-11.2c-1-3-2.6-5.2-5.9-5.5c-3.9-0.3-5,2.4-5,5.5c-0.2,11.7-8,13.3-17.4,14.9c-7.1,1.2-15.2,3.5-16.5-5.1
	c-1.1-7.8,4.4-15.2,14.3-13.9c9.4,1.2,10.7-4,10.7-11.1c0-8.2,0-16.4,0-24.6c0-7.6,1.6-14.4,8.7-18.7c-7.7-10.4-13-15.1-17.9-13.6
	c-10,3.2-20.1,1.4-30.2,2.1c-3.7,0.3-8.5-1.9-10.7,2c-2.5,4.5,2.9,6.3,4.9,9.3c1.4,2,3.2,3.7,4.4,5.7c5.9,10.2,2.9,18.9-8.3,23
	c-4.5,1.6-9.1,3-13.9,3.7c-9.3,1.3-10.3,3-10.2,13.1c0,2.6,0.1,6-2.3,6c-8.4,0-11.6,4.7-13.4,11.9c-0.6,2.3-3.5,3.3-6,3.3
	c-13.5,0-27,0-40.6-0.2c-2,0-3.9-1.2-4.5-3.1c-0.6-2,0.6-3.9,2.2-4.9c4.8-3.2,10-5.8,14.6-9.3c2.9-2.2,6.9-4.6,6-9.2
	c-0.9-4.4-5.3-5.3-8.7-6.8c-1.7-0.7-3.8-1.2-5.6-1c-14.5,1.5-27.3-4.7-40.3-9.3c-14.4-5-21-1.9-25.4,13.2
	c-2.4,8.1-5.4,15.7-15.7,16.3c-2.2,0.1-5-0.3-5.7,3.5c3.5,3.4,8.3,4,12.7,5.6C186.6,692.1,189.7,694.9,188.3,698.2z"/>
<path class="st16" d="M619.8,721.3c0.7-1.8,2.2-3.2,4.5-3.2h21.1c-0.3-3.4-0.7-6.7-1.2-10.1c-3.3-3.9-6.6-7.6-11.2-1.6
	c-6.7,8.6-16.1,13.2-26.3,12.7c-1.7-0.1-3.4-0.1-5.1-0.1C607.6,719.7,613.7,720.6,619.8,721.3z"/>
<path class="st17" d="M472.8,719c21.4-0.1,43.1-1.8,64.3,1.4c-0.6-6.6,5.9-10,9.8-15.6c-13.3,0-24.9,0.7-36.4-0.2
	c-11.7-0.9-22.7,4.2-34.4,2.9c-7.8,1.7-4.9,6.6-3.5,11.2C472.7,718.7,472.8,718.9,472.8,719z"/>
<path class="st18" d="M424,589c4.8-0.1,9.6-0.2,14.4-0.3c3.4-2.7,7.8-0.2,11.4-2.1c4.1-0.1,8.1-0.2,12.2-0.4
	c1.9-0.2,3.8-0.2,5.7-0.1c2.9,0,5.8-0.1,8.7-0.1c-1.2,10.1-5.8,18.3-15.1,22.6c-7.5,3.5-16.3,4.9-12.8,16.5
	c-6.2,7.1-9.3,18-18.6,20.7c-7.9,2.3-16.9-0.6-23.1-7.7c-1.2-6.5,1.9-12,4.7-16.5c-1.2-3.3-3.3-3.4-4.9-4.2
	c-11.6-5.9-11.4-12.9-1-21.3C411.3,591.4,418.8,593.7,424,589z"/>
<path class="st7" d="M449.8,586.6c-3.3,3.5-7.5,1.9-11.4,2.1C441.7,585.2,445.8,586.2,449.8,586.6z"/>
<path class="st7" d="M467.6,586.1c-1.9,2.5-3.8,2.8-5.7,0.1C463.8,583,465.7,583.2,467.6,586.1z"/>
<path class="st19" d="M267.7,336.1c-1.2,3.7-3.8,6.1-7.4,5.4c-4.3-0.9-6.2-4.5-5-8.8c1-3.7,3.8-5.6,7.7-4.4
	C266.7,329.4,268,332.4,267.7,336.1z"/>
<path class="st19" d="M453.2,330.6c5.7,1,8.4,3.9,8.4,9c0,3.3-1.9,5.5-5.3,5.4c-5-0.1-8.3-2.8-8.6-7.8
	C447.4,333.2,450.4,331.5,453.2,330.6z"/>
<path class="st6" d="M241.3,716.5c-0.5,1.4-0.2,3.3-2,2.5c-0.7-0.3-0.7-2.4-0.7-3.6c0-0.7,0.8-1.4,1.3-2.1
	C240.4,714.4,240.9,715.6,241.3,716.5z"/>
<path class="st6" d="M215,785.3c-0.3-0.3-0.6-0.5-0.9-0.8c0.4-0.2,0.7-0.6,1.1-0.5c0.3,0,0.6,0.5,0.9,0.7
	C215.8,784.9,215.4,785.1,215,785.3z"/>
</svg>
