<?xml version="1.0" encoding="utf-8"?>
<!-- Generator: Adobe Illustrator 27.4.0, SVG Export Plug-In . SVG Version: 6.00 Build 0)  -->
<svg version="1.1" id="Layer_1" xmlns="http://www.w3.org/2000/svg" xmlns:xlink="http://www.w3.org/1999/xlink" x="0px" y="0px"
	 viewBox="0 0 720 720" style="enable-background:new 0 0 720 720;" xml:space="preserve">
<style type="text/css">
	.st0{fill:#1A2A33;}
	.st1{fill:#FCADA6;}
	.st2{fill:#FBC0BC;}
	.st3{fill:#FCCBC2;}
	.st4{fill:#EC8373;}
	.st5{fill:#7F6867;}
	.st6{fill:#7C615F;}
	.st7{fill:#7B6663;}
	.st8{fill:#7E5757;}
	.st9{fill:#856E6A;}
	.st10{fill:#FDE1DE;}
	.st11{fill:#7E6866;}
	.st12{fill:#7C5F5E;}
	.st13{fill:#B44736;}
	.st14{fill:#FCC3B6;}
	.st15{fill:#FCA18B;}
	.st16{fill:#E95867;}
	.st17{fill:#221A1B;}
	.st18{fill:#EA6377;}
	.st19{fill:#140A0D;}
	.st20{fill:#040203;}
	.st21{fill:#FDD1CE;}
	.st22{fill:#FDD8D2;}
	.st23{fill:#FCC510;}
	.st24{fill:#EFB348;}
	.st25{fill:#ECDDCE;}
	.st26{fill:#FCA58B;}
	.st27{fill:#FCD35B;}
	.st28{fill:#F76249;}
</style>
<rect x="0" y="0.5" class="st0" width="720" height="720"/>
<path class="st1" d="M567.4,332.9c3,13.1,8.1,25.7,8.8,39.4c-3.2,4-7.8,2.5-11.3,2c-26.9-4.3-54.1-1.7-79.9-2.7
	c-3,0.2-1,3.2-1.3,1.4c0,0,0.1,0,0.4-0.1c21.5-2.3,43.1-1.8,64.6-0.2c9.8,0.7,19.9,0.7,29.5,4c4.9,3.4,6.4,7.6,3.5,13
	c-16.8,1.3-33.1-3.5-49.7-4.9c-18.1-1.5-36.2-3.7-54.3-5.4c35.5,3.5,71.1,5.7,106.1,13.1c3.2,2,5.1,5.1,6,8.7
	c5.5,20.4,12.3,40.4,17.5,60.9c0.9,3.5,1.4,7.1,0.2,10.6c-3.9,6-8.3,10.7-16.5,8.4c-9.8-2.8-12.9-7.4-19.1-30.4
	c-4.1,11.8-0.4,21.7,0.3,31.5c0.8,10.6-8.5,30.4-17.6,35.2c-5.8,3.1-9.8,0.6-11.7-4.9c-1.8-5.1-2.6-10.5-5.3-15.3
	c-1.9-5.6-6.7-7.8-11.2-11.1c-14.5-10.5-31.4-19.8-27-42.8c1.7-8.9-5.7-11.7-13-12.4c-7.2-0.7-14.7-0.2-21.8,1.1
	c-18.3,3.3-34.4-1.7-49-12c-14.3-10-29.1-10.7-45.5-6.6c-8,2-12.2,6.9-16.8,12.3c-5.6-1.4-4.5-6-4.7-9.9
	c-0.7-10.9,2.2-21.6,1.4-32.4c-0.5-6.6,5.2-7.6,9.3-10.2c2.3-1.4,4.8-3.1,4.3-6.3c-0.5-3-3.1-4.2-5.8-5.1c-3.5-1.1-7.1-1.2-10.7-0.7
	c-4,0.5-9.2,0.5-10.7,4.5c-2,5.3,4.1,5.8,7,8c1.8,1.3,3.9,2.4,5.1,4.4c3.6,5.8,0.2,38.4-4.6,44.9c-7.3-8.3-17.3-9.6-27.3-9.4
	c-8.2,0.2-15.4-1.7-21.8-6.4c-9.2-6.8-20.6-6.8-30.9-10.3c-4.3-1.5-9.3-2.3-9.9-8c-0.6-5.7,4-7.8,8.3-9.5c5.8-2.3,9.2-5.6,7.5-12.4
	c-1.9-8,5.3-13.3,6.3-20.4c0.8-1.6,2.1-2.9,3.1-4.4c10.3-16.5,24.8-19.1,42-12.9c-14.7-5.1-29.6-1.2-44.4-1.3
	c-8.3,0.3-16.6,0.6-23.9-4.4c-4.5-5.1-10.3-9.1-13.7-15c-4.5-7.7-2-12.9,6.6-15c3.5-0.9,7.2-0.9,10.8-1.3
	c15.8-1.9,26.3-9.7,28.7-26.1c3.7-24.2,22.7-33.4,41.4-42.9c27.7-1.1,55.3-0.6,82.6,4.1c4.7,0.8,8-0.1,10.2-4.4
	c13.1-3.5,26-4.9,39.1,0.3c10.3,4.1,20.8,7.2,32.4,6.6c6.1-0.3,12.4,2,18.2,4.9c7.6,3.8,15.8,8.7,19.8-4.8c0.8-2.7,4.5-4.6,7.8-1.4
	c1.4,23.6,10.3,45.2,17.7,67.1c0.9,2.5,1.9,5,2.9,7.7c4.9,1.5,8.1-2.9,12.3-3.7c1.6,1.3,1.7,2.6,0.1,4c-11.3,7.7-11.2,15.5,0.5,23.6
	c-0.2,2-1.3,3.1-3.3,3.6c-28.6,6.5-57.3,12.9-86,19.1c-1.5,0.3-3.6,1-3.8,0.2c11.2-0.3,22.1-4.6,33.3-6.6
	c14.2-2.5,28.2-6.2,42.3-9.6C557.6,332.6,562.5,330.2,567.4,332.9z"/>
<path class="st2" d="M343.4,422.7c-1-4,1.4-10.7-5.1-10.8c-7.7-0.2-15.4-4.6-22.6-2.3c-6.4,2-11.1-0.1-15-3.3
	c-8.4-7-18.3-8.9-28.4-11.3c-5.5-1.3-14.4-0.4-15.2-6c-1.2-7.6,8.3-5.9,13.1-8.2c4.5-2.2,8.5-4.2,4.7-9.9c-3.9-6-2.8-11,2.5-15.5
	c2.3-2,3.1-4.4,0.2-6.8c-3.1-2.1-6.2-0.4-9.2,0.3c-1.9,0.5-3.7,1.1-5.6,1.3c-22.7,4.3-36.4,0.6-41.6-14.7c-3-8.8-7.8-12.6-14.1-14.2
	c8.6,1.8,17,4.7,25.9,4.1c6.8-0.4,14.1,1.4,19.8-4.3c0.2-4.1-2.1-6.9-5.2-9c-4.2-3-9-6.6-7.3-11.9c2-6.3,8.6-3.1,13.2-3.5
	c22.6-1.8,30-8.5,35.7-30c3.2-12,6.7-23.8,20.8-29.9c5.7-2.4,15.7-3.9,16.9-13.7c-9.5-2.2-18.5,2.1-27.8,2.5
	c-8,0.3-13.6-1.3-16.6-9.6c-1.6-4.4-3.5-9.2-7.8-12.3c-6.8,2.9-8.3,7.5-3.3,16.2c-3.8-6-9.7-13.5-10.8-7.5
	c-1.9,10.6-10.3,9-15.1,11.3c-6.7,3.1-13,10.7-22.5,5.9c-3-1.5-6.9,1.3-8.7,5c-0.6,1.2,0.6,4.2-2.5,3.2c-12.6-4.1-23.9,7.9-36.9,2.6
	c-3.7-1.5-6.2,2.9-6,7.1c0.1,2.4,1.8,5.6-3,5.1c-6.2,22.6-7.7,46.3-17,68.1c1.3,2.3,3,3.9,4.9,5.1c-2-0.3-4.1-0.1-6.4,0.7
	c-5.4,4-5.7,10.2-6.7,16c2.4,5.9,8.2,4.8,12.8,5.8c1.3,0.3,2.6,0.6,4,0.9c-5.8-1.2-11.7-1.9-17.7-2c0.1,1.7-0.5,3.4-2,4.9
	c-1.9,1.8-2.6,4.8-3.6,7.1c-0.7,1.6-1.6,3.2-2.6,4.5c10.1-1,20.2,0.1,30.3,1.4c-10-0.9-20.1-1.4-30.3-1.3c-0.9,1.2-2,2.3-3.2,3.2
	c-0.2,0.1-0.3,0.2-0.5,0.3c-1.2,3.5,0.7,7.7-0.3,11.3c0,0.7-0.1,1.4-0.4,2.1c2.3,3.3,5.7,1.9,8.7,2c2,0.1,4,0.1,6,0
	c-5.6,0.9-11.1,2.2-16.7,4.1c-0.2,0.9-0.3,1.8-0.5,2.7c-1.1,0.8-1.8,2-2.6,3c0,0.8,0,1.6-0.1,2.5c-1.7,1.5-1.1,4.1-2.6,5.7
	c0,2.7-0.1,5.3-0.1,8c-1.5,1.9-1.5,4-0.3,6.1c7.1,5,14.2,1.2,20.9-0.5c9.1-2.3,18.1-4.8,27.1-7.2c-3.8,6,0.2,7.7,4.9,8.8
	c2.7,0.6,6.8-1.7,6.8,3.7c0.8,1.8,2.2,3,4.1,3.7c2.7,0.6,5.3,0.1,7.9-0.4c15.8-4.3,31.5-14.1,47.3,0.3c-4.1,13.2-2.3,16.4,12.5,20.6
	c7.5,2.1,15.4,2.5,22.9,1.2c19.8-3.3,39.7-2.1,59.6-2C341.1,438.7,347.6,433.6,343.4,422.7z M197.1,319.8c1.9,0.1,3.8,0.3,5.7,0.6
	c-1.7-0.2-3.4-0.3-5.2-0.4c-0.8,0-1.2,0.2-1.1,0.8C196.8,322.6,195.3,319.7,197.1,319.8z M194.5,341.8c-2.3-0.9-4.7-1.9-7-2.8
	C189.9,339.9,192.2,340.8,194.5,341.8z M164.6,330.3c3.1,1.3,6.2,2.4,9.4,3.6c-0.9-0.3-1.9-0.5-2.8-0.7c-2.6-0.6-5-1.9-7.4-3.2
	C164,330.1,164.3,330.2,164.6,330.3z M198.7,359.2c-9.3-1.4-18.7-4.3-28.3-6.8C180.1,354.8,189.6,357.3,198.7,359.2z M184.8,379.8
	c-7.3,0.6-15.3,0.7-23.6,1.1C169.6,379.8,177.6,378.9,184.8,379.8z M185.1,402.2c9.1-2.3,18.3-4.3,27.6-5.8
	C203.6,398.6,194.3,400.2,185.1,402.2z M213.7,396.1c-0.1,0-0.1,0-0.2,0.1c0.3-0.1,0.5-0.2,0.4-0.4
	C213.2,394.1,215.6,396.3,213.7,396.1z M185.5,368.3c14.2,1.9,27.9,4.3,39.4,8.2C212.4,373.3,199.2,370.5,185.5,368.3z"/>
<path class="st3" d="M537,228.3c-5.7,0.5-7.5,2.9-6.4,9c1.1,6.5-1.3,7.9-7.4,6.3c-10-2.7-19.4-6.8-29-10.5c-0.8-0.3-2-1.4-2.3-1.1
	c-6.4,4.2-12.5,7.2-16.9-2.5c-1.2,0.5-2.5,0.9-3.4,1.7c-1.8,1.6-5.1,3.1-5.7,1.1c-2-6.8-9-3.9-12.6-7.3c-4.4-4.2-9.2-5.3-13.5,0.8
	c-1.1,1.5-4.1,2.5-4.7,1.2c-3.5-7.8-10.9-0.4-15.2-4.2c14.7-34.8,32.1-68.2,50.8-101c6.6-11.5,17.4-19.6,24.9-30.5
	c3.4-5,8.9-6.5,14.6-4.6c5.4,1.8,7.2,6.9,7.8,11.9c3.8,31.9,10.2,63.3,15.9,94.9C535.7,204.6,538.1,216.5,537,228.3z"/>
<path class="st4" d="M274.6,203.7c-6.2,7.1-1,15.5-1.5,23.6c-5.6-1.6-4.3-6.4-6.3-9.2c-1.4-1.9-0.4-6.3-4.7-4.8
	c-3.2,1.1-3.2,4-2.1,6.9c1,2.6,1.7,5.2,0.2,9.2c-3.6-1.5-5.1-8-10.1-5.8c-4.7,2.1-0.4,7.9-3.8,10.5c-4.3,1.6-3.6-6.8-10.1-3.7
	c-6.1,2.9-2,7.5-4,10.3c-5.7-0.8-4.3-11.4-12.5-8c-6.6,2.8,0,8.3-3.6,12.9c-3.6-1.1-5.3-6-10.1-6.5c-8.3-0.9-4.4,5.7-6,8.8
	c-5.3,0.6-4.8-6.4-9.2-6.9c-5.2,1.6-2.2,7.3-4.5,10.2c-3.5-0.1-4.8-2.7-6.5-4.7c-1.7-2.1-3.1-5.1-6.4-3.6c-3.4,1.6-2,4.5-1,7.1
	c0.8,2.1,1.8,4.1,0,6.3c-3.4,0.9-4.6-2.2-6.8-3.6c-1.5-5.1,1.2-9.7,1.7-14.5c4.6-38.6,14-76.3,20.1-114.7c0.9-5.7,3.1-11.4,5.6-16.6
	c2.3-4.7,6.7-6.2,11.2-2.3c4.1,3.6,8.3,7.1,11.7,11.3c20.9,25.7,41,51.9,56.1,81.5C273.3,199.3,273.8,201.5,274.6,203.7z"/>
<path class="st5" d="M704,416.2c-1,1.8-2.9,3.1-5.6,3.1c-3.8,0-6-2.5-6.5-5.4c-2.7-0.4-5.4-0.8-8.1-1.5c-1.1-0.3-2-0.9-2.7-1.6
	c-0.4,0.1-0.9,0.1-1.3,0.1c-3.4-0.2-6.3-1.4-9.4-2.9c-2.2-1.1-4.3-1.4-6.7-2c-6.2-0.4-11.7-3-17.8-3.6c-6.7-0.7-12.9-1.8-19.5-3.4
	c-14-3.3-28.6-4.6-42.4-8.4c-1.4-0.4-2.5-1.1-3.2-1.9c-26.8-3-53.5-6-80.2-9.2c-8.7-1-17.2-0.7-25.7,0.1c21.6,3.1,43.3,4.8,64.8,7.8
	c14.7,2.1,29.9,2.2,44.1,7.9c20.8,9.5,43.9,9,65.5,15.1c1.3,0.5,2.6,0.9,4,1.1c9.1,2.1,18.8,2,27.3,6.6c8.7,4.8,17.6,4.7,26.7,1.5
	c0-1.1-0.2-2.1-0.5-2.9C705.9,416.6,704.9,416.5,704,416.2z"/>
<path class="st5" d="M676.4,395.8c0.5-0.1,1-0.2,1.6-0.1c3.4,0.2,6.8,1.1,10.2,0.7c1.8-0.2,3.5-0.6,5.2-0.9c0.2-0.9,1.2-1.2,2.8-1.7
	c6.8-1.9,14-3.4,18.5-9.8c-0.9-1-1.8-2.1-2.7-3.1c-5.1,1.9-10.2,3.7-15.2,5.7c-7.5,3.1-14.6,7.2-23.4,4.6
	c-31.8-9.3-64.6-14.1-97.3-19c-32-2-64-3.5-96.1-0.1c11.2,1.1,22.4,1,33.7,1.1c21.7,0.2,43.4,0.7,64.6,5.7c0.7,0.4,1.4,0.8,2.1,1.1
	c1.4-2.2,4-3.5,7.2-2.6c13,3.6,26.7,4.7,39.9,7.8c7,1.6,13.5,2.9,20.6,3.7c5.6,0.6,10.9,3.4,16.5,3.5c0.3,0,0.6,0,1,0.1
	c0.4,0,0.8,0.1,1.2,0.2c2.8,0.7,5.3,1.1,8,2.3C675.3,395.2,675.9,395.5,676.4,395.8z"/>
<path class="st6" d="M140.5,342.5c14.1,5.1,29.1,6.9,43.5,10.9c7.2,2,14.9,2.7,23.7,9.4c-24.8-5.2-46.9-9.8-68.9-14.4
	c-16.6,0.1-32.4-3-47.2-10.6l-1.1-0.6l-1.2,0c-2.6-1.8-5.8-0.4-8.5-1.8c-1.9-0.3-3.7-0.5-5.6-0.8c-2.3-2.1-5.5-0.5-8.1-1.8
	c-2.6-0.3-5.2-0.7-7.8-1c-2.7-1.6-5.9-0.5-8.7-1.8c-2.8-0.3-5.6-0.5-8.4-0.8c-3.2-2.6-7.4-0.1-10.8-2c-3.6-0.2-7.2-0.5-10.8-0.7
	c-0.4-0.5-0.8-0.9-1.2-1.4c0.4-1.3,1.2-2.1,2.5-2.3c3.1,0,6.2-0.6,9.2,0.7c5.4,0.3,10.8,0.5,16.1,0.8c1.7,1.2,3.8,1.2,5.7,1.7
	c4.2,0.4,8.5,0.8,12.7,1.2c1.4,0,2.4,1.3,3.7,1.5c3.6,0.4,7.1,0.7,10.7,1.1C100.3,333.9,120.4,338.2,140.5,342.5z"/>
<path class="st7" d="M148.7,320.7c17.8,9.8,37.9,14.2,55.6,24.5c-20.1-2.9-37.7-13.8-57.1-18.7c-22.1-12.3-45.8-21-68.5-31.9
	c-15-7.2-30.2-14.1-44.5-22.6l-0.1,0.2c10.6,1.2,19.7,6.5,29.1,10.7C91.5,295.8,119.6,309.4,148.7,320.7z"/>
<path class="st8" d="M567.4,332.9c-30.9,6.4-61.5,14.8-93.2,16.8c32.1-7.6,64.3-15.2,96.4-22.7c20.3-3.7,39.6-11.4,60.7-12.1
	C609.9,320.9,588.7,326.9,567.4,332.9z"/>
<path class="st9" d="M570,303.4c0-1.3-0.1-2.7-0.1-4c15.1-7.6,30.1-15.2,45.2-22.8C601.8,288.9,585.7,295.7,570,303.4z"/>
<path class="st10" d="M166.8,408.1c2.4,5.4,5.4,7.8,10.2,5c4.2-2.4,8.7-3.3,12.7,1.1c-0.5,6.9-6.2,4.3-7.7,8.8
	c-22.1,19.4-46.4,29.2-72.1,33.9c-0.4,0.1-0.9-0.6-1.4-0.9c-0.3-9.5-0.7-18.9-1-28.4c0.4-1,0.7-1.9,1.1-2.9c1.6-2.5,3.6-4.1,6.1-4.5
	c14.3-3.9,28.2-10.1,42.6-13.1C160.4,406.4,164,402.2,166.8,408.1z"/>
<path class="st11" d="M34.1,401c-4.5-0.6-8.7,1.1-13,1.6c-3.6,0.5-7.9,3-10.7-1.8c11.6-2.3,23.2-4.6,34.8-6.9
	c1.1-0.4,2.3-0.9,3.4-1.5c3.4-0.4,6.9-0.8,10.3-1.1c1.3-0.3,2.2-1.4,3.5-1.6c4.3-0.4,8.6-0.9,12.9-1.3c1.1-0.4,2.3-0.9,3.4-1.4
	c4.5,0.8,8.7-0.5,13-1.2c1.4-0.2,2.3-1.5,3.7-1.4c5.2-0.5,10.3-0.9,15.5-1.4c1.3-0.1,2.3-1.4,3.6-1.4c4.1-0.3,8.2-0.6,12.3-0.9
	c16.9,1.4,33.5-3,50.4-2.3c5.4,0.2,10.9-1,18,1.9c-24.6,2.4-47.6,2.8-70.3,6.5c-3.9,0.2-7.7,0.4-11.6,0.6c-2.9,1.1-6.1,0.2-8.9,1.6
	c-3.4,0.4-6.8,0.8-10.2,1.1c-1.9,0.7-4,0.6-5.7,1.7c-2.8,0-5.7-0.1-8.1,1.9c-0.3,1.7-1.3,2.9-2.7,3.8l0.1-0.2c-1.7,2-3.5,2-5.2,0
	l0.2,0.2c-1-0.7-2-1.4-3-2.2c-1.9,0.1-3.8,0.1-5.7,0.2c-2.8,1.3-6.1,0.2-8.8,1.8c-2.5,0.3-5.1,0.7-7.6,1c-2.6,1.4-5.8-0.1-8.3,1.8
	C37.6,400.4,35.9,400.7,34.1,401z"/>
<path class="st12" d="M165.5,409.2c-16.8,2.5-33.1,6.8-49.4,11.2c-1,0.4-2,1-2.8,1.7c0,0-0.2-0.4-0.2-0.4c-2.7,0.5-5.4,1.1-8,1.6
	c-0.9,0.3-1.7,0.7-2.4,1.4c-1.9,0.4-3.8,0.8-5.7,1.1c-1,0.4-1.9,0.9-2.9,1.5c-1.8,0.4-3.5,0.7-5.3,1.1c-1.2,0.5-2.2,1.6-3.6,1.6
	c-1.5,0.4-3,0.7-4.6,1.1c-1.2,0.5-2.4,0.7-3.6,0.5c-1.2-0.6-1.7-1.6-1.5-2.9c1.7-0.6,3.5-1.2,5.2-1.9c2.8-3.6,6.4-5.4,11-4.3
	c1.8-0.4,3.7-0.7,5.5-1.1c1.1-0.5,2.2-1,3.2-1.7c1.7-0.4,3.4-0.8,5.1-1.2c1.1-0.2,1.9-0.8,2.5-1.7c1.9-0.2,3.8-0.4,5.7-0.7
	c1.8-0.6,3.6-1.4,5.6-1.3c28.1-6.1,56.3-12.3,84.4-18.3c6.1-1.3,12.2-2.3,18.6-2.7C203.9,401.7,183.9,402.8,165.5,409.2z"/>
<path class="st2" d="M130.5,365c-0.1,0.1-0.1,0.2-0.2,0.3c34-0.2,67.1,7.8,100.6,12.2c-1.4-1.6-3.1-2.1-4.8-2.6
	c-2.6-0.8-5.2-1.6-7.8-2.3c-28.8-7.1-58-10.7-87.5-11.3C131.3,362.5,131.2,363.7,130.5,365z"/>
<path class="st13" d="M248.5,1019.2c0.4-0.6,0.9-0.8,1.6-0.7c-0.1,0.7-0.4,1.2-0.9,1.6c0,0-0.8-0.1-0.8-0.1L248.5,1019.2z"/>
<path class="st14" d="M91.5,534.4c0-1.8,0.1-3.6,0.1-5.4c1.8-2.5,0-6.1,2.6-8.3c0-1.8,0.1-3.6,0.1-5.4c1.2-1.7,1.9-3.8,4.1-4.5
	c16.8,1.2,31.9,9.3,48.3,12.4c23.6,4.5,23.5,4.9,26.9-18.2c0.5-2.1,1.4-4,2.5-5.9c1.3-1.8,3.2-4.1,5.2-2.9c4.3,2.7,3.8,7.4,3.3,11.8
	c-0.3,2-0.9,3.9-1.3,5.9c-0.4,4.9-0.8,9.9-0.9,14.8c5.3,7.1,13.9,3.1,20.4,6.1c11.4,4.5,23,4.4,34.9,2.8
	c32.9-4.4,65.9-8.2,98.7-13.4c30.1-4.8,60-11,90-16.5c6.6-1.2,12-4.5,15.5-10.2c4.3-6.8,10.2-11.6,17.3-15c2.5-1.2,4.8-2.6,6.8-4.5
	c5.9-5.5,7.6-12.4,5.8-20c-1.6-6.9-6.9-11-13.6-11.8c-15.3-1.8-30.1-5.6-45.9-5.7c-14.9-0.1-29.8-1.1-44.8-0.6
	c-5.4,0.6-9.1-2.1-12-6.2c-1.1-1.6-1.9-3.3-2.4-5.2c-0.2-1.3,0.1-2.4,0.9-3.5c0.7-12.1,0.8-11.8,12-14.2c9.2-2,17.8-4.6,27.7-3.8
	c7.3,0.5,12.6,2.5,18.2,6.1c9.6,6,18.9,12.2,30.3,14.7c12.8,2.9,25.1-1,37.6-1.2c4.6-0.1,8.9-0.3,13.1,1.2
	c11.1,3.7,13.5,7,10.1,18.2c-2.6,8.8-0.5,14.9,6,20.5c4.5,3.9,8.4,8.3,12.6,12.5c1.9,1.9,3.5,4.7,6.6,4.4
	c9.6-0.9,11.5,5.1,11.8,12.7c5.2,11.4,1.7,20.5-8.9,25.8c-9.1,4.6-12.4,13.8-19,20.3c-7.5,4.7-15.8,7.5-24.3,8.8
	c-40.9,6.3-81.7,13.7-123.2,15.1c-15.6,0.9-30.2,5.8-44.5,11.8c-2.5,1-5.1,2-7.8,2.6c-12.1,2.5-16.9-1.2-18.2-14.4
	c-0.1,1.8-0.1-0.6-0.1,0.1c0,16.2-7.3,21.8-21.3,12.9c-9-5.7-17.2-5-25.9-1.9c-10.9,3.9-22,5.6-33.5,4.8
	c-14.6-1.1-21.4-1.4-19.3-21.4c0.4-3.6,1.9-7,2.1-10.6c-0.7,4.2-2,8.3-2.2,12.7c-0.7,12-9,22.6-20.1,26.2c-3.1,1-6.5,1.9-9.4,0.7
	c-16.8-6.8-34.7-3.7-52-5.9c-11.1-1.4-11.1-1-10.9-12.5c-2.3,8.9-3.7,9.8-10.8,6.9c-2.5-1.1-4.6-2.9-6.2-5.2
	c-3.6-8.3,0.2-15.1,4.1-22c0-0.9,0.1-1.8,0.1-2.7C88,543.2,88.9,538.6,91.5,534.4z"/>
<path class="st15" d="M512.5,539.6c2.2-7.4,4.2-15.1,12.4-18c12.2-4.4,16.1-13.2,15.2-25.3c4.7,3.8,5.4,9.1,5.7,14.7
	c0.1,2.4,1.1,4.8,3.6,5.1c2.9,0.4,6.1-1.1,6.3-3.9c0.6-7,4.9-10.2,10.5-12.9c4.7-2.3,5-6.9,3.4-10.6c-3.8-9.1-0.8-18.9-4.2-28
	c-2.5-6.7,3-11.7,5.6-18.2c6.1,4.5,7.7,9.9,7.2,15.9c-0.8,9.5,3.4,15,12.1,18.7c4.9,2.1,8.1,4,10.4-2.6c0.7-2.1,3.1-0.8,4.7-0.2
	c0.1,1.8,0.2,3.6,0.3,5.3c0.8,0.9,1.6,1.9,2.2,2.9c0.2,1.8,0.3,3.6,0.5,5.4c0.8,0.8,1.5,1.8,2,2.8c0.4,0.9,0.7,1.9,1.1,2.8
	c2.9,3.3,0.7,7.6,2.2,11.2c0.2,1.8,0.5,3.6,0.7,5.3c1,2.3,1,4.4-0.6,6.5c-19.3,7.7-39,14.1-59.1,19.4c-9.7,2.5-19.7,3.3-29.4,5.6
	C520.9,542.5,516.3,543.7,512.5,539.6z"/>
<path class="st16" d="M465.7,313c10.3,0,20.6,0,31,0c0.3,6.3-0.7,10.1-6.8,10.8c-5,0.6-9.9,3-12.6,7.3
	c-8.5,13.7-22.3,14.9-35.8,14.3c-12.2-0.6-24.1-4.2-32.6-14.4c-6.5-7.9-14.3-13.6-24.8-15.2c-2.7-0.4-5.6-1.7-4.4-5.3
	c1-3,3.5-1.5,5.7-1.4c19.9,0.4,39.9,0.5,59.9,1c5.3,0.1,11-1,15.8,2.4c-8.2,7.3-18.3,2.9-27.4,4.2c-3.4,0.5-8.1-0.9-9.2,3.8
	c-1.1,4.6,2.6,7.5,6.2,9.7c12,7.4,27.2,2.1,32.1-11.2C463.4,316.9,464.2,314.8,465.7,313z"/>
<path class="st17" d="M356.7,430.8c1.6,3.7,4.4,6.3,8,8.2c0.7,0,1.3,0,2,0.1c1.3,0.2,2.6,0.6,3.8,1.1c5.6,2.9,11.4,5.5,17,8.4
	c3.2,1.6,7.3,3.4,5.5,7.9c-1.9,5-6.6,4-10.5,2.7c-9.9-3.4-18.5-9.2-26.5-16c-2.3-2-3.4-5.4-7.7-6.1c-7.4,11.3-17.3,20.2-31.1,23.7
	c-4.3,1.1-8.6,3.5-12.8-0.2c-0.7-1.1-1-2.2-1-3.5c0.2-1.2,0.8-2.2,1.7-3c1.8-1.3,4-1.9,6-2.7c0.9-0.4,1.9-0.8,2.8-1.1
	c1.3-0.6,2.7-1.2,4-1.8c0.8-0.5,1.7-0.9,2.5-1.3c0.8-0.4,1.6-0.8,2.5-1.2c0.8-0.4,1.6-0.8,2.4-1.1c0.7-0.4,1.5-0.8,2.3-1.2
	c0,0,1.1-0.7,1.1-0.7c0.7-0.5,1.4-0.9,2.3-1.2c0,0,1.3-0.2,1.3-0.2c6.7-4.5,10.4-10.7,11.3-18.6c4.1-12.6,3.9-25.7,4.4-38.7
	c0.1-3.7-1.3-6.1-4.9-7c-1.3-0.3-2.7-0.5-4-0.9c-5.1-1.6-11.8-2.8-11.6-9.3c0.2-5.8,6.7-6.5,11.3-8.1c8.9-3,17.8-2.9,26.5,0.7
	c3.5,1.5,6,4.1,6,8.3c0,4.3-2.9,6.3-6.3,8.1c-0.4,0.2-0.9,0.3-1.2,0.5c-3.4,2.7-10-1-11.5,4.8c-1.1,4.3-0.7,9-0.3,13.5
	c0.9,10.2-2.7,20.7,2.2,30.7c0.2,0.8,0.5,1.7,0.7,2.5C355.2,428.8,355.9,429.8,356.7,430.8z"/>
<path class="st18" d="M277.5,348.5c-2.7,1.1-5.5,2.1-8.2,3.2c-1,0.6-2,1.4-2.9,2.2c-10.7,0.3-21,4.6-32.1,0.2
	c-10.3-4.1-17.2-11.1-19.3-21c-1.6-7.7-5-9.1-11.5-10c-3.7-0.5-8.1-0.3-11.4-4c13.6-3.1,26.3,3.5,39.3,2.2c2,8.1,1.9,17.1,11.8,21.1
	c9.9,4.1,19.4,1.9,26.3-7.1c2.8-3.5,4.1-8,7.4-11.2c15.7-0.1,31.6-2,48.5,4.4c-8.8,1.7-16,1.7-22.9,0.4c-5.6-1.1-9,0.6-11.2,5.1
	C288.4,340.3,282.3,343.7,277.5,348.5z"/>
<path class="st19" d="M277.1,324.1c1.4,20.7-21.5,30.4-38.9,20c-8.6-5.2-10.7-12.5-6.6-22.9c7-0.1,14-0.1,21.1-0.2
	C260.6,323.6,269,322.6,277.1,324.1z"/>
<path class="st20" d="M465.7,313c3.4,13.7-0.6,19.2-16.7,24.1c-12.4,3.8-25.8-3.2-30-14.3c-3.3-8.8-2.3-10.7,6.8-10.8
	c11.7-0.1,23.4,0.3,35.1,0.5C462.5,312.7,464.1,312.9,465.7,313z"/>
<path class="st21" d="M321.2,449.1c-0.5,0.7-1.2,0.9-2.1,0.7c-1.3,0.4-2.2,1.4-3.4,1.9c-0.9,0.2-1.7,0.4-2.6,0.6
	c-1.6,1.5-3.8,1.2-5.6,2c-0.7,0.6-1.5,0.9-2.4,0.9c-0.8,0.4-1.2,0.9-1.1,1.6c0.1,0.7,0.2,1,0.5,1c11.9,3,20.7-3.4,29.2-9.9
	c6.2-4.7,10.3-11.3,14.8-19.3c5.8,7.5,11.3,14.4,19.1,18.8c7.4,4.2,14.3,10,23.9,8c-7.7-5.2-17.2-7.1-23.8-14
	c-1.1-0.8-1.6-2.3-3.1-2.4c0,0,0.1,0,0.1,0c12-3.9,24.2-5.9,36.7-3c5.3,1.2,10.2,3.1,15.8,0.7c3.7-1.6,8-0.7,12.1,0.2
	c9.3,2.1,18.4,4.4,28.1,4.9c9.9,0.5,18.4,8,19.7,16c1.8,11-3,22-11.7,26.6c-8.3,4.3-17.1,7.4-20.9,17.8c-2.1,5.8-8.7,10.1-15.3,10
	c-11.6-0.1-22.2,4.3-33.4,6.1c-26.3,4.2-52.6,8.7-78.9,13.4c-29,5.2-58.4,6.9-87.4,11.3c-10.1,1.5-19.8,0.2-28.5-5.6
	c3.7-6,9.9-5.8,15.7-6.3c12.9-1.2,24.7-6.3,35.9-12.2c4.4-2.3,8.4-6.2,7.8-11.9c-0.6-5.8-6.1-5.9-10.3-7.2c-1.7-0.5-4.1-0.5-5-1.9
	c-8.1-12.1-17.6-23.5-23.6-36.6c-3.6-7.7,6.9-10.1,12.2-14.2c-4.3-7.4-11.1-8.9-18.2-11.1c-10.2-3.1-22.6-3.2-28-15.3
	c10.2-3.7,20.4-7.5,31.1-9.9c4.1-1,7.2-0.9,9.7,2.3c4,5,8.4,6.6,14,2.7c1.1-0.8,2.7-0.7,3.7,0.4c1.6,1.6,1.3,3.5,0,4.9
	c-3.3,3.7-6.7,7.3-8.7,12.6c12.6,9.3,27,9.7,41.3,7c16.8-3.1,33.5-1.4,50.2-1.2c1.1,0,2.2,1.4,3.3,2.1l0,0c-0.8,0.9-1.7,1.8-2.7,2.5
	l-0.2,0.2c-0.5,1-1.3,1.6-2.3,1.9c-0.5,0.9-1.3,1.2-2.3,1.1C323.3,447.6,322.4,448.5,321.2,449.1z"/>
<path class="st22" d="M187.5,420.4c8.6,5.8,18.1,11.7,27.9,11.9c12.6,0.3,18.1,7.9,25.7,15.8c-3.1,1.2-5.2,2-7.1,2.9
	c-13.3,6.2-14,13.5-1.2,21.7c5.4,3.5,9.5,7,8.5,13.5c-1,6.2,2.6,8,7.2,9.6c0.8,0.3,1.8,0.2,2.7,0.3c6.1,0.5,12.9,1.5,14.5,7.9
	c1.9,7.4-3.5,13.4-9.3,16.9c-11.2,6.8-23.6,11.7-36.7,13.2c-6.3,0.7-12.5,1.6-18.7,3c-15-0.2-15-0.2-21.9-5.5
	c6.6-12.6,5-27.3,10.3-40.3c1.2-2.9,0.6-6.9,2.3-9.1c12-14.4,6-28.8,1.3-43.5c-1.2-3.8-2.8-6.3-6.1-8.3c-3-1.8-6.6-3.5-5.2-8.2
	c0,0,0.1-0.4,0.1-0.4C183.7,421.3,185.6,420.9,187.5,420.4z"/>
<path class="st1" d="M266.4,353.9c0.6-1.3,1.4-2.1,2.9-2.2C268.4,352.4,267.4,353.1,266.4,353.9z"/>
<path class="st23" d="M627.8,613.7c-0.2-3.5-0.4-7-0.5-10.5c-3-6.3,0.4-13.2-2.1-19.5c-0.2-2.6-0.4-5.2-0.6-7.8
	c-2.7-4.4,0.2-9.6-2.2-14c-0.2-2.6-0.4-5.1-0.7-7.7c-2.2-3.5-0.1-7.9-2-11.5c-0.3-2.5-0.5-5-0.8-7.5c-0.9-2-1-4.1-1.8-6.1
	c-0.3-2.6-0.6-5.2-0.9-7.8c-1.2-1.6-0.5-4.1-2.6-5.2c-10.2,1.6-20.6,2.1-30.3,6.4c-22.5,10.2-47,12.4-70.8,17
	c-19.1,5.8-38.7,8.7-58.2,12.4c-30.4,5.7-61,7.4-91.7,10c-6.5,6.7-7.7,15-7.7,23.9c-0.2,28.1,1.1,56.3-2.5,84.3
	c-1,7.6-1,15.4,1.7,23c17.4,5.7,34.9,10.5,53.4,11c1.7,0,3.7-0.9,4.8-2.4c2.1-2.7,2.8-2.5,5.3,0.2c4.6,5,11.2,5.5,17.8,5
	c5-0.4,10.2-1.2,14.8,1.2c12.4,6.5,25.7,4.9,38.8,5c9.6,0.1,17-2.5,18.9-13.5c0.7-4.1,3.7-7.2,6.5-10.3c1.9-2.1,4.3-3.7,7.2-2.2
	c2.8,1.5,2.8,4.4,2.5,7.2c-0.5,4.9-3.7,9.5-1.5,14.6c3.1,3.6,7.3,4,11.3,3c9.1-2.3,16.4-2.5,20.9,7.9c4,0,8.1-0.1,12.1-0.1
	c0.2,0,0.4,0,0.6,0c8.4-11,19.5-21.2,11.5-38.6c8.6,5.7,22.5,6.2,26.3,0.9c9-12.4,18.7-24.4,23.7-39.2
	C627.4,633.3,631.4,623.3,627.8,613.7z"/>
<path class="st24" d="M555,713.6c-2.8-8.6-3.2-8.9-12.7-6.8c-6.2,1.4-12.2,3.3-18.6,2.7c-2.4,1.6-3.7,4.1-4.3,6.7
	c-0.3,1.2-0.6,2.2-0.9,3.3l38.9,0.3c-0.4-0.4-0.7-0.8-1.1-1.2C555,717.1,555.5,715.2,555,713.6z"/>
<path class="st24" d="M557.8,720.2c0.4-0.1,0.8-0.2,1.2-0.2c1.7,0,3.4,0.1,5.1,0.1c0-0.1,0.1-0.2,0.1-0.3l-6.7-0.1
	C557.5,719.9,557.6,720,557.8,720.2z"/>
<path class="st24" d="M630,699.1c-2.1-10.6-1.4-21.3-0.4-32c0.6-7.1,2.1-14.3-2.3-20.8c-12.8,9.2-15.9,25.4-27.3,36.6
	c-3.2,0.3-7-5.3-11.6-1.2c-6.8,6.1-6.6-2.7-10.2-6.2c0,3.9,0.1,6.1,0,8.4c-0.5,10.5,1.8,22-11,27.8c-2.1,0.9-2.3,3.7-2.6,6
	c-0.1,0.7-0.2,1.5-0.4,2.2l66.4,0.5c0-1.8,0.1-3.7,0.1-5.5C630,709.6,629.1,704.4,630,699.1z"/>
<path class="st1" d="M607.9,482.4c-0.7-1-1.5-1.9-2.2-2.9C606.9,480.1,607.8,481,607.9,482.4z"/>
<path class="st1" d="M610.3,490.6c-0.7-0.9-1.3-1.9-2-2.8C609,488.7,609.7,489.7,610.3,490.6z"/>
<path class="st10" d="M181.7,422.2c7.7,6.7,8.6,8.1,15.4,25.1c1.6,4,4.5,6.5,8,8.8c4.8,3.2,5.3,7.1-0.1,10.6
	c-7,4.5-9.4,11.1-10.5,19.3c-1.6,12-8,22.9-7.6,35.5c0.2,5-3.8,7.9-8,10.1c0.1-6.4,0.3-12.8,0.4-19.1c0.7-1,1.4-1.9,2.3-2.8
	c-0.1-3.4,0.9-7.4-0.5-10.1c-1.2-2.4-1.8,0.9-2.4,2c-0.8,0.9-1.6,1.8-2.4,2.7c-0.6,6.7,0.3,13.5-1.8,20.3c-1.9,6.1-5.4,8.1-11.1,6.7
	c-11.9-2.8-23.8-5.6-35.5-8.9c-10.4-2.9-20.7-6.5-31-9.9c-2.2-17.3,2.4-33.4,8.1-49.3c3.1-4.9,2.8-10.4,2.8-15.9
	C132,437.3,156.5,428.7,181.7,422.2z"/>
<path class="st25" d="M182.5,993.4c-1.5,0.2-2.7-0.4-3.5-1.7C180.5,991.6,181.7,992,182.5,993.4z"/>
<path class="st26" d="M115.7,720.1c4.3-2.8,8.8-5.5,12.8-8.8c3.7-3,8.6-3.1,13.1-1.6c17.5,5.7,36,4.7,53.8,7.9
	c4.4,0.8,9.6,2.1,10.4-4.9c0.7-6.7,2.1-13,10.2-14c8.2-1,12,5.1,15.9,10.8c1.3,1.9,2.3,3.9,3.5,7.1c3.5-14.2,15.5-12.5,25.4-15.4
	c-49.1-3.9-94.5-23.4-142.4-32.2c-14.5-2.7-31.1-2.7-43.1-14.4c1.4-13.3,2.8-26.6,4.3-39.8c1.2-10.2,2.7-20.3,3.6-30.6
	c0.4-4.1,0.8-8,3-11.5c4.4-0.6,6.9,4,10.3,4.4c4.6-2.6,1.1-7.6,4.6-10c2.5,2.6,1,5.9,1.6,8.8c0.6,3.3,2.4,4.7,5.7,4.2
	c12.6-2.1,25.1,1.2,37.6,1.6c4.4,0.2,9.9-2.1,14.9,3.5c2.8,3.2,12.3,3.1,17.1-3.1c1.7-2.2,3.6-4.1,6.1-5.3c6.1-2.9,8.6-8.1,8.2-14.4
	c-0.5-7,2.6-13.1,3.4-22.5c3.4,6.8,2.6,11.1,1.3,15.1c-1.2,3.5-1.7,7-1.7,10.7c0.1,8.2,2,11.7,9.7,12c12.1,0.4,24.4,2.7,36.2-3.1
	c5.2-2.5,11.2-3.6,17-4.4c5.8-0.8,11.7-1.2,15.6,5.3c2.1,3.6,5.6,6.1,10.4,4.4c5-1.7,7.1-5.1,6.8-10.4c-0.3-4.6,1.4-8.8,4.7-14.7
	c0.3,5.5,0.5,9.2,0.8,12.9c0.8,8.9,5,12.1,13.6,9.9c4.4-1.1,8.5-3.2,12.6-5c12.7-5.7,26-8.8,39.8-10.6c-3.6,11-3.2,22.3-3,33.6
	c0.5,28.5-0.7,56.9-2.7,85.3c-0.3,4.9,0.1,9.9,0.2,14.9c4.1,7.8,6.2,15.7,5.9,24.4"/>
<path class="st1" d="M356.7,430.8c-1.3-0.6-2.3-1.3-2-3C355.3,428.8,356,429.8,356.7,430.8z"/>
<path class="st22" d="M176.4,504.3c0.8-0.9,1.6-1.8,2.4-2.7C178,502.5,177.2,503.4,176.4,504.3z"/>
<path class="st22" d="M181.7,509.7c-0.8,0.9-1.5,1.8-2.3,2.8C180.2,511.6,181,510.6,181.7,509.7z"/>
<path class="st2" d="M307.6,454.3c1.4-1.9,3.4-2.2,5.6-2C311.7,454.1,309.7,454.5,307.6,454.3z"/>
<path class="st1" d="M364.6,438.9c1,0.8,2.1,1.6,3.1,2.4C366,441.4,365,440.6,364.6,438.9z"/>
<path class="st2" d="M329.3,443.9c0.9-0.8,1.8-1.7,2.7-2.5C331.8,442.9,330.9,443.8,329.3,443.9z"/>
<path class="st2" d="M326.7,446c0.8-0.6,1.6-1.3,2.3-1.9C328.8,445.2,328.1,446,326.7,446z"/>
<path class="st2" d="M321.2,449.1c1.1-0.7,2.2-1.4,3.2-2.1C323.8,448.4,322.9,449.3,321.2,449.1z"/>
<path class="st2" d="M315.8,451.8c1.1-0.6,2.3-1.3,3.4-1.9C318.5,451.2,317.4,452,315.8,451.8z"/>
<path class="st2" d="M304.5,457.8c-1-0.5-1.3-1.3-0.6-2.1c0.3-0.3,0.8-0.3,1.2-0.5C304.9,456,304.7,456.9,304.5,457.8z"/>
<path class="st22" d="M338.6,491.4c5.5,1.9,4.5,6.1,6.9,8.2c2,1.8,6.8,2.9,4,7c-2.6,3.8-6.9,6.1-11.6,5.3c-4.8-0.9-6.7-4.6-4.5-9.1
	C335.1,499.1,338,496.2,338.6,491.4z"/>
<path class="st22" d="M363.2,505.8c-0.3,0.2-0.7,0.5-1,0.5c-0.3,0-0.6-0.4-0.9-0.7C362.1,504.8,362.7,504.8,363.2,505.8z"/>
<path class="st2" d="M289.1,478.6c-0.4,0.1-0.7,0.2-1.1,0.3c-0.1-0.3-0.3-0.9-0.2-0.9C288.7,477.3,289.2,477.6,289.1,478.6z"/>
<path class="st27" d="M359.4,720.3c1.3-1.4,1.8-3.2,0.4-4.9c-5.1-6-2.4-13-2.6-19.7c4.6,0.1,8.9-1.4,13.4-2.1
	c6.5-1,12.9-1.8,18.6,4.6c6,6.7,16.3,4.9,25.2-2.4c2.1-1.8,1.7-1.5,4.1,2.2c3.2,4.9,9.1,6.8,14.1,5.5c10-2.6,17.9,1,27.1,4.2
	c12.3,4.3,26.1,2,39.2,1c3.4-0.3,4.8-3,4.7-7c-0.3-8.4,8.4-18.3,15.5-20.5c5.4-1.7,7.7,0.4,9.2,4.8c1.4,4,1.3,8-0.3,12
	c-1.5,3.8-4.1,7.2-4.2,11.4c-0.1,2.3-0.1,4.5-0.3,6.8c-0.1,1.4-0.3,2.6-0.6,3.8"/>
<path class="st28" d="M270.7,700.8c-0.2-3.2-2.9-4.5-5.7-4.8c-2.7-0.3-5.5-0.4-8.2-0.2c-9.7,0.7-19-0.9-28.3-3.3
	c-17-4.4-34.1-9-51.1-13.4c-33.9-8.8-68.5-14.6-102.2-24.3c-0.8,20.7-1.1,41.3-0.8,62c9.5-0.5,19.3-0.7,27.6,3.2
	c0.2,0,0.5-0.1,0.7-0.1c6.9,0,13.8,0.2,20.7,0.3c0.1-0.1,0.2-0.2,0.3-0.4c8.6-9.4,9.6-9.4,22.3-4.1c2.1,0.8,4.3,1.7,6.5,1.7
	c10.1,0.1,20.1,1.2,30,2.7c0.8-1,2.1-1.7,3.8-1.7h23.9c0-1.3-0.2-2.8-0.5-4.7c-0.8-4.8-1.3-9.5,4.2-11.5c4.8-1.8,8.3,0.3,11.6,4.5
	c3.2,4.1,5.4,8.7,7,13.5c2.2-0.3,4.4-0.3,6.7-0.2c1-9.6,2.9-11.7,12.8-13c4-0.5,8.2-0.1,12.3-0.5
	C267.8,706.2,270.9,704.8,270.7,700.8z"/>
</svg>
