<?xml version="1.0" encoding="utf-8"?>
<!-- Generator: Adobe Illustrator 27.4.0, SVG Export Plug-In . SVG Version: 6.00 Build 0)  -->
<svg version="1.1" id="Layer_1" xmlns="http://www.w3.org/2000/svg" xmlns:xlink="http://www.w3.org/1999/xlink" x="0px" y="0px"
	 viewBox="0 0 720 720" style="enable-background:new 0 0 720 720;" xml:space="preserve">
<style type="text/css">
	.st0{fill:#106D9B;}
	.st1{fill:#FAC7AB;}
	.st2{fill:#C3D2CD;}
	.st3{fill:#3D4854;}
	.st4{fill:#3D4753;}
	.st5{fill:#656B6A;}
	.st6{fill:#655A5A;}
	.st7{fill:#6F5A5D;}
	.st8{fill:#6E6765;}
	.st9{fill:#746968;}
	.st10{fill:#FAF4EE;}
	.st11{fill:#FADDC8;}
	.st12{fill:#F6B09F;}
	.st13{fill:#FA9F79;}
	.st14{fill:#D1D5CC;}
	.st15{fill:#FCD788;}
	.st16{fill:#645557;}
	.st17{fill:#706766;}
	.st18{fill:#D8DBD2;}
	.st19{fill:#92A6AA;}
	.st20{fill:#F2ECE7;}
	.st21{fill:#F8F7F4;}
	.st22{fill:#3F3A3C;}
	.st23{fill:#F2F0EB;}
	.st24{fill:#3D383A;}
	.st25{fill:#5B5858;}
	.st26{fill:#F3EFE8;}
	.st27{fill:#69605F;}
	.st28{fill:#F09E8F;}
	.st29{fill:#5F4542;}
	.st30{fill:#FAD1A3;}
	.st31{fill:#F7B063;}
	.st32{fill:#FABE4F;}
	.st33{fill:#9D6878;}
	.st34{fill:#865752;}
	.st35{fill:#605D5C;}
	.st36{fill:#7B5654;}
	.st37{fill:#E6E3DC;}
	.st38{fill:#F7803A;}
</style>
<rect x="0" y="0.5" class="st0" width="720" height="720"/>
<path class="st1" d="M623.7,668.4c-16.1-3-21.7,1.8-19,17.4c2.2,12.7,10.2,24.9,0.9,37.5c0.5-0.2,1.1-0.3,1.7-0.3
	c10,0,20.1,0,30.1,0.5c-0.5-3.3-0.7-6.6-0.5-9.9c1.3-25.2-2-50.1-3.2-75.2c-1.2-25.4-4.8-50.6-7.3-75.9c-3.1-1.5-6.2-2.6-9.4-3.5
	c2.4-0.1,4.8-0.5,7.2-1.4c-0.1-3.4,0.5-7-0.5-10.2c-8.2-28.1-11.1-57.4-18.7-85.7c-2.2-8.1-4.1-16.5-4-25.1c0.7-1.3,0.6-2.7-0.6-3.2
	c-4.2-1.6-8.3-3.3-12.5-5c3.5,1.1,7.1,1.9,10.9,2.2c-3.5-11.8-7.1-23.5-10.6-35.3c-7.7-10.3-19.1-9.5-30-10.1
	c-13.2,2.6-26.2,6.5-40,4.5c-4.1-0.6-8.5-0.2-11.4,3.9c0,1.9,0.5,3.1,1.4,3.9c-6.6-3.7-12.7-8.4-21-6c-12.2,3.9-24.6,6.4-37.4,4.2
	c-8.8-1.5-17,0.6-24.3,5.3c-13.8,8.9-28.2,9.9-43.8,5.9c-12.3-3.1-25-4.6-37.3,0.4c-6.7,16.1-2.7,29.6,12.6,42.5
	c0.6,0.4,1.1,0.5,1.7,0.7c-4-0.8-5.9-5.6-10.2-6.1c-8.9-1.1-16.9,6.8-26.1,2.8c-1.2-0.3-2.5-0.6-3.8-0.7
	c-7.3,0.8-16.2-0.4-13.9,11.9c8,4.2,16.6,1.8,25,2.6c3.7,0.3,9.1-0.5,10.1,3.6c3.1,12.1,11.6,23,7.6,36.8c-5,17-3.9,19.2,13.6,22.6
	c32.4,6.2,65.1,10.6,98.2,11.4c16.7,0.4,19.3,3.1,18.1,19.7c-0.8,10.4-1.9,22.3,6.1,29.1c11.6,9.9,11.6,21.4,10.8,34.4
	c-0.5,8.1-3.7,12.8-11.7,14.2c-5.8,1-12.7,1-14.6,8.1c-2,7.4,1.9,13.5,7.7,17.7c6.1,4.5,7.9,9.7,4.9,16.6c-5,11.6-3.1,22.5,2.8,33.1
	c8.2,2.3,7.9-5.1,10-9.4c3.8-7.7,4-17.1,11.4-23c6.9-4,14.4-4.3,22.1-4.4c22.7-0.4,45.3,4.2,68.3,0.4
	C603.9,670.4,612.2,662.6,623.7,668.4z M510.7,398.8c1.9,0.6,4,1,5.6,2.2C514.3,400.5,512.5,399.7,510.7,398.8z M548.7,413.5
	c2.2,0.7,4.3,1.5,6.5,2.3C553,415,550.9,414.3,548.7,413.5z M557.7,416.8c1,0.3,1.9,0.7,2.9,1c4.5,1.4,8.8,3.2,13.1,5.1
	C568.4,420.8,563.1,418.7,557.7,416.8z M593.3,556.2c-3.1-0.1-6.2-0.1-9.4-0.1c2.7-0.1,5.3-0.2,8-0.3c2.6-0.1,5.2,0.2,7.8,0.6
	C597.5,556.3,595.4,556.2,593.3,556.2z"/>
<path class="st2" d="M569.4,326c-1.3-0.8-2.6-1.2-4.1-1.4c-8.4,0.6-16.8,1.3-25.2,2.1c7.7-0.9,15.5-1.8,23.2-2.7
	c1.3-0.6,2.3-1.6,2.9-2.9c-0.2-1.5-0.3-3-0.5-4.5c0.1-10.5-5.1-19.1-10-27.9c-0.9-2.5-1.8-5.1-2.8-7.6c-1.7-6.2-3.6-12.4-7.3-17.8
	c-0.2-0.8-0.3-1.6-0.4-2.5c-4.6-12.3-10.4-24.1-14.3-36.6c-5.2-5-11.1-8.6-18.3-9.8c-9.2-0.5-18.1,2.7-27.5,1.2
	c-7.2-1.2-11,3.4-9.6,10.9c1.1,6.3,1.1,12.1-3,17c-12-9.8-18.7-21.9-19.9-36.9c-0.3-3.4-2.1-6.3-4.4-8.9c-3.3-3.3-7.6-4.3-12-5
	c-2-0.1-3.8,0.4-5.3,1.8c-3.4,0-6.7-0.1-10.1-0.1c-7.1,4-18.4,2-26.3-2.5c-0.6,0-1.2,0-1.8,0c-5.6-3.6-11.5-4-17.8-2.3
	c-3.4-0.1-6.8-0.2-10.1-0.4c-2.5-1.8-4.2-4-4.5-7.2c-0.2-1-0.4-2.1-0.7-3.1c-0.2,0-0.5,0-0.7,0c-0.2,1-0.4,1.9-0.7,2.8
	c-1.2,3.4-3.5,6.5-7.2,7.5c-7.7,2.1-12.7-5.9-12.5-12.6c0-0.4,0.1-0.7,0.1-1c-8.8,14.6-31.7,19.6-44.7,10.3c-1.2-0.1-2.4-0.1-3.6,0
	c-6.1,5-14.1,6.5-22.7,5.7c-2.4-0.2-4.1-1.5-5.1-3.2c-1.5-0.2-3.1,0-4.7,0.9c-5.6,3-11.6,5.3-17.8,6.6
	c-21.3,4.5-41.6,11.4-60.4,22.7c-1,0.6-2.2,0.8-3.4-0.2c-1.7,5.9-5.9,8.1-11,11.7c-12.3,22.4-21.8,46-30.2,70.1
	c-2.7,7.8-7.5,15.2-6.7,24.1c0,1.6,0,3.3,0,4.9c4,4.5,9.5,5.5,14.9,5.9c12.2,0.8,24.5,0.4,36.7,1c5.2-9.5,13-14.8,23.9-15.2
	c0.7,0,1.4-0.7,2.1-1.2c0.9-0.8,1.6-1.7,2.2-2.8c0.2-0.6,0.3-1.1,0.5-1.7c0.2-3.2,1.2-6,4-7.8c0.8-0.6,1.6-1.1,2.3-1.8
	c0.8-0.5,1.5-1.1,2.3-1.6c0.8-0.4,1.7-0.7,2.5-1c1.4-0.2,2.8-0.2,4.2-0.4c3.1-0.7,5.9-1.8,6.7-5.4c0.3-4.5,3.5,0.5,4.6-1.5
	c1.1-0.2,2.1-0.4,3.2-0.8c9-0.5,18.1-1.2,27.1,0.4c1.1,0.4,2.1,0.7,3.2,0.9c5.9,1.5,11.3,3.9,16.1,7.6c0.4,0.3,0.8,0.6,1.3,1
	c0.8,0.7,1.6,1.3,2.5,1.9c0.8,0.6,1.6,1.2,2.5,1.7c1.6,1,3.2,2,4.7,3.1c0.7,0.5,1.4,1.1,2.2,1.5c1.6,1.3-1.1,1.9-0.4,3
	c0.5,2.2,1.7,3.9,3.4,5.3c1.4,1.1,3,1.9,4.6,2.5c8.8,4.8,18,5.9,28.1,4.5c10-1.3,20.3-2.3,30.4-1.6c8.7,0.7,12-3.4,14.3-10.8
	c5.4-17.4,5.6-17.4,23.6-15.9c6.6-0.4,11.5-4.7,17.2-7.3c22.8-10.4,51.7-3.8,66.7,15.5c0,2.2-1.6,3.3-3,4.6c-2.4,1.8-5,3.4-7.8,4.7
	c-2,0.9-4,1.8-6,2.7c-9.5,4.6-19.4,7.2-30,4.4c-1.7-0.3-3.4-0.3-5.1,0c-4.6,1.1-9.3,2-14,0.6c-1-0.3-2-0.4-3.1-0.5
	c-0.7-1.4-4.5,2.9-3.3-1.8c-0.8-2.1-2.5-2.9-4.6-3c-1.4,0-2.8,0.2-4.1,0.2c-0.9-0.1-1.7-0.3-2.6-0.5c-1.2-0.4-2.4-1-3.6-1.6
	c-0.8-0.4-1.6-0.9-2.4-1.2c-1.3-0.7-2.6-1.3-3.9-1.8c-1-0.3-2-0.6-3-0.7c-1.7-0.1-3.3,0.1-4.9,0.7c-5.8,2-9.3,6.1-8.7,12.2
	c0.5,5.4,4.5,9.8,9.7,10.2c15.3,1.1,27,8,36.6,19.5c18-1.6,35.8-4.1,53.8-6.1c3.9-0.4,7.3-2,10.9-3.3c6.5,5.5,6.6,5.6,13,5.7
	c8.8,0.2,17.6,1.3,26.4,1.9c16.3,1.1,32.7,2.8,48.9-1.4C581.2,342.8,575.7,334.3,569.4,326z M431.3,346.3c0.7,0.5,2.1-1.9,3.9-2.6
	c0.2,0,0.3,0,0.5-0.1C433.7,344.2,432.3,346.8,431.3,346.3z M463.8,338.2c4.4-1,8.9-1.9,13.3-2.8c7.5-1.4,15-2.6,22.5-3.7
	C487.7,333.6,475.7,335.9,463.8,338.2z M489.2,346.7c1.5-0.5,3.1-1,4.7-1.3c2.6-0.4,5.1-0.8,7.6-1
	C497.6,345,493.4,345.8,489.2,346.7z"/>
<path class="st3" d="M462,146.5c12.4-16,20.8-34.6,33.1-50.8c2.7-3.6,4.6-7.9,9.1-10.9c9.6,10,9.4,23.6,15.3,34.5
	c0.3,1.4,0.6,2.8,0.9,4.2c1,1.7,0.8,3.8,1.9,5.5c-0.4,0.8-0.3,1.5,0.3,2.1c2,2.3,0.4,5.6,2.1,8l-0.2-0.2c5.5,4.7,0.2,11.1,2.7,16.3
	c0.1,1.3,0.3,2.6,0.4,3.9c4.9,6.7-1.2,14.6,2.2,21.4c-0.7,1.4-0.5,2.7,0.3,4c1.3,1.6,2.6,3.3,3.1,5.4c1,4-1.4,29.9-3.3,35
	c-7.1,0.6-10.5-7.6-17.5-7.4c-22.5-4.2-44.6-9.7-66-18c-2.8-2.7-7.6-1.3-10.1-4.7c-1-0.7-1.5-1.7-1.4-2.9c0.3-1.7,0.9-3.3,1.6-4.9
	c3.6-8.5,8.6-16.1,15-22.7l-0.1,0.1c0.7-0.9,1.3-1.8,1.9-2.7c0.8-0.3,1-0.9,0.8-1.7c0.2-1.4,1.1-2.4,1.9-3.4c0.7-0.4,0.9-1,0.7-1.7
	c0.3-1.4,1.2-2.4,2.1-3.5l0.1-0.2c0.9-0.5,1.4-1.2,1.7-2.2C461.1,148.2,461.6,147.4,462,146.5z"/>
<path class="st4" d="M261.2,189.6c-0.2,3.6-2.5,4.9-5.6,5.7c-8.1,2.2-16.1,5.2-24.3,6.7c-19.4,3.7-36.8,11.6-53,22.7
	c-1.7,1.2-3.3,2.8-6.6,1.7c-2.6-13.7,1-27.9-0.3-42c-3.2-4.3-3.1-8.5,0.3-12.6c0.1-1.4,0.2-2.9,0.3-4.3c3.1-5-2.2-11.3,2.5-16
	l0.6-0.7l-0.3-0.8c0.2-8.2-1.9-16.9,5.1-23.6l0,0.1c1.1-2.5-0.8-5.9,2.1-7.9c0.6-0.5,0.7-1.2,0.3-1.9c1-1.8,0.9-3.9,2-5.7
	c0.1-0.8,0.3-1.6,0.4-2.5c1.4-1.4,1-3.6,2.1-5.1c0.7-0.4,0.9-1,0.7-1.8c1.9-3.5,4.7-2.6,7.5-1.3l0.4,0.4c0.4,1,1.1,1.7,2.1,2.1
	l0.4,0.4c0.5,1,1.2,1.7,2.2,2.2l0.3,0.3c0.6,1,1.3,1.8,2.2,2.4l0.1,0.2c0.8,0.9,1.6,1.8,2.3,2.7l0,0c5.9,2,8.2,7,10.4,12.2l0.2,0.3
	c4.4,3.4,8.3,7.2,8.9,13.2c0.4,0.7,0.9,1.5,1.3,2.2c0.7,1,1.3,1.9,1.9,2.9c0.3,2.1,1.8,3.5,3.3,4.7c0.5,1,1.1,1.8,1.9,2.6
	c0.2,2.2,1.7,3.7,3.3,5c0.4,0.9,1.1,1.7,1.9,2.3l0.1,0.1c0.8,1,1.8,1.7,2.2,2.9l-0.2-0.2c1.4,0.7,2.4,1.8,2.6,3.5
	c-0.1,0.8,0.3,1.3,1,1.5c0.5,0.9,1.1,1.7,1.9,2.4l0,0.1c3.4,1.2,3.1,5,5.2,7.1l0.2,0.4c0.6,1,1.3,1.9,2,2.8c0.3,2.2,1.8,3.7,3.4,5
	c0.4,0.9,1,1.8,1.7,2.5l0,0C259.7,185.8,262,186.7,261.2,189.6z"/>
<path class="st2" d="M586.4,382.6c-0.1,2.3-0.1,4.7-0.2,7c-13.1,0.7-25.3-5.1-38.2-5.8c-25.8-6.5-51.8-11.7-78.2-14.8
	c-13.4-1.6-27,0.3-40.3-3c-2.8-0.7-5.9-0.6-8.5-2.2c-2.1-2.3-4.9-4.5-0.9-7.5c52-9.1,104.1-2.8,156.1-1.2
	C585,362.3,587.4,371.8,586.4,382.6z"/>
<path class="st5" d="M578.6,357.8c-45.4-4.8-91-2.7-136.5-2.3c-7.9,0.1-15.7,3.5-23.8,1.7c0,0-0.8-0.7-0.8-0.7c0,0,0-1,0-1
	c0,0,0.8-0.6,0.8-0.6c18.8-4.9,38.4-4.5,57.3-8.5c18.5-3.9,37.3-4.3,56.2-6.3c-4,4.1-8.9,4.8-13.8,4.6c-9.7-0.4-18.9,2.1-30.2,4.4
	c30.8,1.2,59.3,3.3,88,3c4-2.2,7.1,0,10.2,2.1c7.4,0.3,14.9,0.5,22.3,0.8c0.5,0.4,0.9,0.8,1.4,1.2c-0.4,1.2-1.2,2-2.5,2.2
	c-3.6-0.1-7.3,0.6-10.8-0.5c-4.3,0-8.6-0.1-12.9-0.1C581.9,358.9,580.3,358.9,578.6,357.8z"/>
<path class="st6" d="M128.6,329.3c17.6,3.3,35.7,1.2,53.3,4.4c3.4-2.4,7.2-2.5,11.1-1.7c2.4,0.4,4.7,1.3,7.1,1.5
	c2.9,0.3,5.8,0.6,8.6,1.3c1.7,0.4,3.3,0.8,4.9,1.2c2.7,0.5,5.4,0.9,8.1,1.5c1.6,0.4,3.1,0.8,4.7,1.1c2.6,0.5,5.3,0.8,7.9,1.4
	c1.5,0.4,3,0.8,4.5,1.2c2,0.4,4,0.9,6,1.5c1.5,0.4,3,0.8,4.4,1.2c2,0.4,4.1,0.9,6.1,1.5c1.6,0.4,3.1,1,4.6,1.6
	c1.6,0.7,3,1.6,3.8,3.2c-0.1,2-1.2,3.1-2.9,3.9c-2.2,0.8-4.5,0.8-6.8,0.3c-1.6-0.3-3.2-0.8-4.8-1.2c-2.1-0.5-4.2-0.9-6.3-1.5
	c-2-0.6-4.1-1.1-6.2-1.4c-2.1-0.2-4.2-0.6-6.3-1.1c-1.6-0.4-3.1-0.8-4.7-1.1c-2.7-0.5-5.4-0.8-8-1.4c-1.6-0.4-3.2-0.7-4.9-1.1
	c-2.8-0.5-5.7-0.8-8.5-1.4c-2.3-0.6-4.7-1-7.2-1c-4-0.2-8-0.4-11.9-1.3c-14.7-1.1-29.5-2-44.2-3.5c-5.4-0.5-11.1,0-15.2-4.8
	c-0.9-1.4-0.9-2.7,0.2-4C127.2,329.8,127.9,329.7,128.6,329.3z"/>
<path class="st7" d="M601,436.1c-18.4-9.7-38.7-14.8-57-24.9c18.7,5.1,36.8,11.9,54.8,19.1c6.5,3.5,14,5.1,20.9,10.4
	C612,442.4,607.3,435.5,601,436.1z"/>
<path class="st8" d="M550.4,380.4c11.9,3.1,23.9,6.2,35.8,9.2c12.4,3.8,25,6.7,37,11.8c-2.1,3.4-4.7,1.6-7.1,1
	c-9.3-2.5-18.1-6.8-27.9-7.2c-9.6-3.8-19.4-6.5-29.7-7.5c-4-0.2-8.6,1.4-11.2-3.5C547,381.9,549,381.4,550.4,380.4z"/>
<path class="st8" d="M628.6,401.3c11.9,3.1,23.9,6.2,35.8,9.2c12.4,3.8,25,6.7,37,11.8c-2.1,3.4-4.7,1.6-7.1,1
	c-9.3-2.5-18.1-6.8-27.9-7.2c-9.6-3.8-19.4-6.5-29.7-7.5c-4-0.2-8.6,1.4-11.2-3.5C625.2,402.7,627.2,402.2,628.6,401.3z"/>
<path class="st9" d="M121.3,349.6c-1-0.2-2-0.3-3-0.5c0,0,0.1-1.3,0.1-1.3c0.9-0.2,1.7-0.5,2.6-0.7c1.1-1,2.4-1.8,3.7-2.5
	c17.4-2.7,34.9-1.3,52.4-0.9c1.4,0.1,2.7,0.4,4.1,0.8c2.6,0.7,5.1,1.5,7.8,1.5c5.3,0.5,10.9-0.5,15.7,3.1c0.8,1.4,0.7,2.6-0.3,3.9
	c-2.9,2.6-6.6,2.7-10.2,3.1c-5.1,0.4-10.2-0.1-15.3-0.1c-12.6,0.1-25-3.9-37.7-2.3C134.2,353.6,127.1,354.9,121.3,349.6z"/>
<path class="st9" d="M37.6,327.9h77.7c2.5,0,4.2,1.2,5.2,2.8c0.1-0.6-0.1-1.3-0.5-2c-4.7-3.6-10.3-2.5-15.7-3.1
	c-2.7,0-5.3-0.7-7.8-1.5c-1.3-0.4-2.7-0.7-4.1-0.8c-17.5-0.4-35-1.8-52.4,0.9c-1.3,0.7-2.5,1.5-3.7,2.5c-0.9,0.2-1.7,0.5-2.6,0.7
	c0,0-0.1,1.3-0.1,1.3c0.2,0,0.4,0.1,0.7,0.1C35.1,328.3,36.3,327.9,37.6,327.9z"/>
<path class="st10" d="M619,324.2c0.8-0.6,1.6-1.1,2.4-1.7C620.6,323.1,619.8,323.7,619,324.2z"/>
<path class="st10" d="M460.6,149c-0.6,0.7-1.1,1.4-1.7,2.2C459.5,150.5,460,149.8,460.6,149z"/>
<path class="st11" d="M498.1,603.6c3.3-8.4,1.2-14.5-7-19c-6.3-3.4-8.9-8.9-9.8-16.4c-0.9-7.2-0.2-13.9,0.3-20.9
	c0.8-9.9-2.5-19.2-16.6-17.8c-14.8,1.5-29.5-0.3-44.1-2.6c-17-2.6-34.4-2.8-51.2-7c-6.5-1.6-13.2-2.5-19.7-4.3
	c-3.4-0.9-6.2-3-3.1-7.3c8.1-11.1,8-22.3-0.1-33.4c-1.6-2.2-2.2-4.4-2.2-7c0-10.5-0.6-11.2-10.3-11.5c-10.2-0.3-20.3-0.2-30.5-0.3
	c-10.3-7-22.2-3.2-33.3-4.3c-29-2.9-58-5.2-87-8.8c-13.2-1.6-34.2,23.7-31.1,36.2c0.2,0.8,0.4,1.9,1,2.3
	c11.1,7.6,20.8,16.5,26.9,28.8c0.1,0.1,0.2,0.2,0.3,0.3c-2.8,0.2-5-1.5-7.5-2.5c-3.3-1.3-7.5-1.8-9.3,1.4c-5.2,9.5-2,13.3,5.8,13.7
	c-0.3,0-0.5,0-0.8,0c-18.8-1.8-0.7,15.3-9.7,19c-1.6,0.7-1,4.7,1.7,6.3c2.6,1.7,5.5,1.8,8.5,2.1c3.7,0.3,7.7-0.9,11,2
	c3.9,6.3,4.7,16.5,16.5,12.7c5-2.3,9.6-3.7,9.4,4.5c8.6,16.5,20.2,21,37.4,14c6.8-2.8,13.1-2.8,19.6,0.2c6.2,2.8,12.7,4.7,18.8,7.7
	c4.4,2.2,8.6,1.8,11.3-2.2c5.2-7.7,12.2-7.4,20.2-6.4c12.6,1.6,25.2,3.3,37.7,5.3c5,0.8,10.4,0.9,14.4,4.3c4.7,3.9,9.6,9.2,1.2,13.8
	c-10.2,5.6-15.7,14.5-22.1,23.5c-5.8,8-9,15-4.9,24.2c1.7,3.7,1.6,6.1-3,7.5c-4.8,1.5-4.8,6.3-6.1,10.3c-5,15.5-3.1,31.7-4.5,47.6
	c12.7-0.1,25.5-0.3,38.1,1c0.4,0,0.8,0.1,1.1,0.2c0-0.3-0.1-0.6-0.1-0.9c-0.2-1.7-0.4-3.3-0.1-5c1.3-9.5,9.8-18.6,16.7-16.4
	c10.9,3.5,22.1,4.2,33.2,6.3c10.2,1.9,19.9,5,28.4,12.4c11.4,9.8,34.6,1.3,40.7-13.5c-0.1-3.4,1.1-7.6-0.6-9.9
	c-5.3-7.4-2.5-14.3,0.1-21.3c1.4-3.9,3.4-7.6,3.1-12c-0.4-6.2-5.7-6.4-9.6-8.6c-5.4-3-7.4-8.7-6.9-14c0.7-6.2,6.9-4.5,11.4-4.8
	c0.4,0,0.8,0,1.3,0c11.6-1.2,16.6-7.1,14.9-18.5C497.4,610.9,496.7,607.3,498.1,603.6z M173.4,523.5c-0.1,0-0.3-0.1-0.4-0.1
	c0.3,0,0.7,0,1-0.1C174.3,523.3,173.7,523.4,173.4,523.5z M181.5,510.7c0.1-0.1,0.1-0.2,0.2-0.4
	C181.9,508.7,182.9,511.3,181.5,510.7z"/>
<path class="st12" d="M339.9,404.8c-3.6-2.7-7.8-3.1-12-2.6c-12.7,1.6-24.8-2-37-4.4c-24.5-4.6-48.6-11-73.3-14.4
	c-11.5,1.1-23.1,1.7-33.8,7c-10,9.1-19.7,17.8-9.2,33.3c3.6,5.3-3.9,16.4-10.4,15.6c-20.6-2.6-42.1-2.4-59.7-15.6
	c-8.3,7.7-12.7,15.6-14.5,27c-2.3,15.2-3.6,30.5-8.1,45.3c0,0.1,0,0.3-0.1,0.4c-3.8,25.8-4.7,52-7.6,77.9c-1.1,9.7-3.6,20,0.9,29.8
	c9.3-2.1,17-8.3,27-8.7c10.9-0.4,14.1,2.5,12.2,13.1c-2.7,14.4-2.4,15.2,12,18.5c9.8,2.3,15.3,8,17.3,17.8
	c1.8,8.7,3.9,17.3,7.5,25.5c1.8,4.1,4.6,7.4,9.8,6c4.5-1.2,6.9-4.6,7.8-9.1c0.5-2.5-0.1-5-0.8-7.5c-3.1-11,1.1-17.5,12.3-18.8
	c5.5-0.7,11,0.1,16.4,1c5,0.8,10.1,1.7,14.4-2.3c4.5-10.4,10.1-20.5,10-32.4c-0.1-14.8-3.6-19.5-18.4-22.4
	c-8.3-1.6-15.5-4-18.3-13.2c-1.4-4.5-5.7-5.9-9.6-7.6c-4.9-2-10.2-3.4-14.1-8.2c8.2-3.4,17.1,1.1,23.7-5.1c0.1-0.4,0.4-0.8,0.3-1.2
	c0-0.3-0.4-0.8-0.7-0.9c-7.6-1.6-15.5,0.5-22.7-1.5c-0.6-8.4,6.2-8.1,11.7-10.9c-2.9-0.5-4.1-0.9-5.3-1c-3.2-0.2-6-0.9-5.9-4.9
	c0-4,2.9-4.4,6-4.9c3.6-0.6,7.8,1.8,11.3-2.6c-3.9-0.2-7.2-0.3-10.5-0.7c-4.7-0.5-4.8-4.1-4.4-7.6c0.5-4,3.3-4.6,6.5-3.5
	c5.4,1.9,10.6,2,16.6,0.8c-2.7-3.9-10,0.4-8.5-6.2c2.2-9.2-3.2-13.2-9.6-17c-3.3-1.9-6.6-3.8-10.1-5.3c-4.5-2-4.4-4.7-3.3-9.1
	c1.6-6.4,7.1-10.1,9.1-16.4c3.4-10.7,8.2-13.1,19.5-11.3c14.5,2.3,29.1,3.8,43.7,5.2c25.1,2.4,50.2,5.2,75.5,4.5
	c3.7-7.8,10.7-7.8,17.8-7.6c13.4-1.1,22.4-7.3,22.1-17.1C343.5,422.6,343.7,413.3,339.9,404.8z"/>
<path class="st13" d="M499.8,723c-0.6-0.3-1.3-0.6-2-0.9c-8.3-18.2-4-35.3,4.2-52.2c15.8-9.1,33.4-6.3,49.5-4.2
	c18.9,2.5,36.8-1.4,55.1-2.4c6.7-0.4,13.2-1,22.4-0.3c-3.6,1-4.7,1.6-5.8,1.7c-13.7,1-19.4,10.3-14.1,23.2
	c2.1,5.1,4.2,10.1,6.3,15.2c1.8,4.3,1.8,8.1-2.8,10.9c-4.5,2.7-5.8,5.7-4.7,8.7"/>
<path class="st14" d="M339.3,405.6c-7,0.4-14.1,1-20.9,1c-9.1,0-18.4-2.4-27.2-6c4.4-5.3,12.4-1.4,17.1-6.7c-0.6-4.5-7-4.4-7.5-8.9
	c2.3-4.4-2.3-2.1-3.3-3.3c-3.9-2.4-5.7-5.7-5-10.3c2-1.5,1.9-2.8-0.4-3.9c-1.6-2.3-2.2-5.2,0.1-6.8c11.5-8.4,9.7-20.3,8.6-32
	c-0.3-1.1-0.4-2.3-0.3-3.5c0.4-1.1,1-2.1,1.9-2.8c0.6-0.2,1.1-0.3,1.7-0.5c1.6-0.4,3.9-1.6,4.7-1c14.7,10.8,30.8,1.2,46.1,2.8
	c3.8,0.4,7.8-1.5,12.1,0c4.9,1.7,8.5-0.2,8.1-6c-0.5-7.2,4.1-12.6,5.8-19.1c0.8-3.1,3.8-5.5,6.7-4.1c5,2.4,11.1,0.1,15.5,4.2
	c0,0.5-0.1,1.1-0.1,1.6c-0.4,1-0.9,2-1.5,2.8c-0.3,0.4-0.7,0.8-1,1.3c-0.7,0.9-1.5,1.7-2.2,2.5c-3.1,3.3-6.4,6.5-9.7,9.6
	c-1.9,1-3.8,1.9-5.7,2.9c-3.3,1.7-6.1,4.3-4.5,8c1.8,4.1,4.5,9.1,10,7.9c7-1.5,12.3,0.1,17.2,5.1c1,1.1,3,1.3,4.6,1.7
	c9.8,2.5,9.8,2.4,8.3,13c0,0,0,0,0,0c-0.7,0.5-1,1-0.7,1.6c0.2,0.5,0.5,0.8,0.7,0.8c0,0,0-0.1,0-0.1c0.8,1.7,1.6,3.4,2.5,5.1
	c-0.4,0.8-1.1,1.3-2,1.3c0.5,0.3,1,0,1.5,0.1c1.5,0,2.9,0.2,4.3,0.7c3.6,1.1,7.5-0.2,11,1.7c0.9,0.7,1.6,1.6,1.9,2.8
	c0.2,1.8-0.2,3.4-1.6,4.7c-3.6,2.1-7.4,1.6-11.2,0.8c-0.7-0.2-1.3-0.6-2-0.6c-1.7-0.2,0.7,0.1-0.9,0.2c-0.8,0-0.6,0.6,0.6,0
	c0.9,0.2,1.8,0.5,2.6,0.8c2.4,0.5,4.8,0.3,7.3,0.4c2.1,0.1,4.3-0.1,6.3,0.5c2.7,0.8,5.4,1.2,8.2,1.3c2.4,0.1,4.7,0.5,7,1
	c2.4,0.6,4.8,1.3,7.3,1.4c7.1,1.1,13.8,3.6,20.4,6.1c3.4,1.3,8.9,1.5,8,7.7c-11.6,7-24.7,9.4-37.4,6.6c-10.2-2.3-18.5-0.2-26.1,5
	c-12.8,8.6-26.2,10.8-40.7,6.3c-13.2-4-26.6-2.8-40-2.9c-6.8-9.8-1.6-20.9-3.2-31.2c-0.2-4.9,3.7-9.1,2.6-14.2c0-3,0.9-5.7,2.5-8.2
	c0.8-1.4,1.7-2.8,2.5-4.2c1.5-2.7,3-5.4,4.6-8c0.4-0.8,0.7-1.7,0.9-2.5c-0.1-0.8-0.5-1.4-1.1-1.9c-1.2-0.5-2.5-0.5-3.7-0.5
	c-3.5,0.1-6.9,0.1-10.3,0.3c-1.4,0.3-2.7,0.6-3.9,1.2c-1,0.7-1.9,1.6-2.4,2.7c-0.2,0.8-0.2,1.6-0.1,2.4c0.3,0.8,0.5,1.6,0.9,2.3
	c0.7,1.2,1.4,2.3,2.2,3.3c1.2,1.6,2.3,3.2,3.3,5c0.9,1.5,1.5,3,2,4.6c0.5,1.8,0.8,3.6,0.9,5.5c0.1,5.3-1.3,10.5-0.8,15.8
	c0,3.5,0,7,0,10.5C341.4,396,343.7,401.5,339.3,405.6z"/>
<path class="st15" d="M361.3,723.3c-0.8-9.5,3.9-17.6,9.2-25.9c1.8-2.8,4-5.3,7-3.1c5.7,4.2,13.5,1.7,18.7,6.8
	c1.2,1.2,3,1.8,4.7,1.2c12-4.5,21.9,4,32.9,5.5c4.6,0.7,9,2.4,10.3,8c0.7,2.7,2.9,3.2,5.9,3.3c13.6,0.5,25.4-2.8,34.3-13.7
	c7.5-8.4,8-19.9,12.6-29.6c1.3-2.8,1.6-5.6,5.2-5.9c0.6,4.3-1.5,8.1-2.6,12.1c-2.7,10-4.8,19.9-0.7,30.2c1.3,3.3,0.7,7.4,0.9,11.1"
	/>
<path class="st2" d="M436,373.5c0.1-2.1,0.3-4.2,0.4-6.2c27.1-3.5,53.3,2.7,79.6,7.7c10.6,2,21.6,3.2,31.4,8.2
	c3,3.2,8.1,1.4,11.2,4.6c-12,3.7-23.8,8.4-36.9,5.7c-4.7-1-9.9-1.5-14.5,1.3c-9.4,1.8-16.2-5.1-24.4-7.3c-13.6-3.7-26.7-9.1-41-10.1
	C439.3,377.1,436.5,376.7,436,373.5z"/>
<path class="st16" d="M345.2,372.5c-0.4,11.9-1.2,23.8,0.1,35.7c-0.8,8.5-0.2,16.8,2.3,25c2.4,7.7,6.4,13.7,14.8,15.7l-0.2-0.2
	c-5.6,5.9-8.9-1-13.1-2.4c-3.6-4.2-7-2.2-11-0.1c-5,2.7-10.2,6-16.3,2.5c0,0-0.2-0.1-0.2-0.1c0.7-1.8,2.3-1.9,4-2.4
	c12.3-4,16.1-9.3,15.5-22c-0.3-6.2-1.2-12.4-1.9-18.7c0.3-5.2,0.6-10.3,0.9-15.5c1.1-3.8,0.4-7.6,0.6-11.5c0-5.3-0.1-10.6,0.1-15.9
	c0.3-1.6,0.8-3,2.8-2.9c1.4,0.1,1.7,1.4,2.1,2.5C346.6,365.8,346.9,369.2,345.2,372.5z"/>
<path class="st17" d="M436,373.5c25,2.7,47.7,13.2,71.1,21.2c4.1,3.6,10.2,3.2,14.6,7.4c-4.4,3-7.7-0.7-11.1-1.7
	c-7.1-2.1-13.4-6.3-21-7.1c-9.5-5.7-20.1-8.3-30.8-10.4c-1.2-1.5-3.1-1.3-4.8-1.9c-2.4-0.3-4.7-0.7-7.1-1c-2.5-1.5-5.6-0.6-8.2-1.7
	c-2.4-0.3-4.8-0.6-7.1-0.9c-2.5-1.7-5.7-0.3-8.1-2c-0.7-0.3-1.5-0.5-2.3-0.4c-0.7-0.5-1-1-0.7-1.5c0.2-0.5,0.5-0.8,0.7-0.8
	C426.1,372.9,431,373.2,436,373.5z"/>
<path class="st12" d="M321.9,448.8c9.2,0.6,16.5-2.5,21-11.1c4.6,1.2,4.2,5.9,6.3,8.6c-5.2-0.3-9.7,2.4-14.5,3.7
	C330.2,451.3,325.8,453.1,321.9,448.8z"/>
<path class="st16" d="M362.4,448.9c1.1-1.1,2.3-2.1,3.4-3.2c1,3.6-2.2,2.3-3.6,3C362.2,448.7,362.4,448.9,362.4,448.9z"/>
<path class="st18" d="M301.2,383.2c2.7,5.6,10,4,13.7,8.5c-2.9,6.7-7.9,9.4-15,8.9c-2.9-0.2-5.9,0-8.8,0c-9.7,0.6-19-1.3-28-5.1
	c-2.3-1-4.8-2.4-7.1-2.2c-13.7,1.5-25.7-6.2-39-6.7c2.1-4.4,6.7-2,9.7-3.7c14.1-1.2,28.1-2.1,37.7-1.4c-7.6,0.4-19.8-1.1-31.9,1.2
	c-3.4,0.1-6.9-0.1-10.2,1c-3.4,0.1-6.8,1-10.2-0.2c-2.7-2.7-4.4-5.5-2-9.3c4.5-2.6,9.8-1.2,14.4-2.9c15.5-1.9,31-1,46.5,0
	c1.1-1,2.1,1.6,3.2,0.1c0.3-0.4-0.4-0.6-1.4-0.2c-4.9-0.2-9.9,0.3-14.8-0.3c-7.9-1.4-15.8-1.5-23.6,0.2c-5.4,0.3-10.8-0.3-16,1.3
	c-3.9,0.3-7.9-0.2-11.8,0.9c-2.6,0.2-5,1-7.5,1.7c-4.5,0.9-9,1.1-13.4-0.1c-1.9-0.6-3.5-1.5-5.1-2.6c-2-1.7-3-3.8-3.1-6.4
	c1.5-4.3-1.7-9.2,2-13.2c5.1,0,10.1,0.1,15.2,0.1c3.5,1.2,7,0.8,10.5,0.2c3-0.7,5.8,0.9,8.8,0.6c2.8,1,5.7,1.2,8.6,1.2
	c2.3,0,4.5,1.1,6.7,1.3c2.7,1,5.5,1.2,8.3,1.2c2.2-0.1,4.3,0.9,6.4,1.3c1.6,0.3,3.1,0.9,4.6,1.2c2.1,0.2,3.9,1.3,6,1.4
	c1.4,0.4,2.7,1,4,1.5c1.1,0.6,2.3,0.9,3.6,1c0,0,0.7,0.7,0.7,0.7s-0.1-1.1-0.2-1.1c0,0-1.2,0.2-1.2,0.2s-1.1-0.3-1.1-0.3
	c-1.2-0.5-2.4-1-3.6-1.5c-1.3-0.7-2.7-0.7-4-1.1c-1.4-0.5-2.8-0.8-4.3-1c-2-0.5-3.9-1.2-5.9-1.5c-1.5-0.5-3.1-0.8-4.7-0.9
	c-3.4,0.3-6.6-0.8-9.9-1.5c-1.7-0.5-3.3-1-5.1-1.1c-4.2,0.4-8.2-1.5-12.3-1.4c-2.4-0.7-4.5-1.6-6.2-3.5c-5.9-0.3-11.9-0.6-17.8-0.9
	c-1.7-0.7-3.6-0.6-5.1-1.6l-0.1,0c-2.5-6.3-1.8-10.2,6.4-8.3c3.9,0.3,7.8,0.6,11.7,1c1.8,0.8,3.9,0.7,5.6,1.7
	c3.2,0.4,6.4,0.7,9.6,1.1c1.1,0.5,2.1,0.9,3.2,1.4c3.2,0.4,6.3,0.8,9.5,1.1c1,0.4,2,0.9,3,1.5c2.4,0.3,4.8,0.6,7.2,0.8
	c1.8,0.8,3.9,0.7,5.6,1.7c2.3,0.3,4.7,0.6,7,0.9c1.2,0.5,2.2,1.5,3.6,1.6c2.2,0.3,4.4,0.7,6.7,1c1.3,0.3,3.1,0.5,3.6-0.2
	c0.9-1.2-1.2-1.7-1.7-2.7c-1.6-0.4-3.2-0.7-4.7-1.1c-0.9-0.5-1.9-1-2.8-1.5c-2.5-0.4-5-0.8-7.5-1.2c-0.9-0.3-1.7-0.8-2.4-1.4
	c-2.6-0.4-5.2-0.8-7.8-1.2c-0.9-0.4-1.9-0.8-2.8-1.2c-3.3-0.5-6.6-0.9-9.9-1.4c-0.9-0.3-1.8-0.8-2.7-1.2c-3.4-0.5-6.7-1-10.1-1.5
	c-0.9-0.3-1.8-0.6-2.7-1.1c-3.3-0.4-6.6-0.7-9.9-1.1c-1.7-0.7-3.7-0.6-5.3-1.4c-4.1-0.4-8.1-0.8-12.2-1.2
	c0.4-13.8,0.4-13.9,13.8-14.3c4.3-0.1,8.2-0.8,12-2.8c0.7-0.7,1.6-0.9,2.6-0.7c1.4,0.4,2.6,1,3.9,1.7c1.2,0.6,2.3,1.4,3.4,2.2
	c1,0.7,2.1,1.5,3.2,2.1c0.7,0.3,1.5,0.8,2.2,1.2c1.1,0.6,2.1,1.2,3.2,1.7c0.8,0.3,1.5,0.7,2.2,1.1c1.1,0.5,2.2,1.1,3.3,1.6
	c0.8,0.3,1.5,0.6,2.3,1c1.2,0.4,2.4,0.8,3.7,1.2c1.4,0.3,2.7,0.7,4,1.1c1.9,0.5,3.8,0.9,5.8,1.2c1.6,0.2,3.1,0.5,4.7,0.9
	c5.9,1.5,11.8,1.4,17.7-0.1c2.1-0.6,4.2-0.9,6.2-1.2c1.5-0.3,2.9-0.7,4.4-1.1c1.4-0.4,2.8-0.8,4.2-1.2c1.3-0.4,2.7-0.9,4-1.3
	c1.3-0.5,2.6-0.9,3.9-1.3c0.8-0.4,1.6-0.8,2.4-1.2c0.4-0.3,0.8-0.5,1.2-0.7c0.8-0.5,1.7-0.9,2.6-1.1c1-0.1,1.8,0.1,2.6,0.8
	c3.8,4.7,6.5,9.4,3.2,15.8c-1,2-0.5,4.9-0.4,7.4c0.3,6.3-0.4,11.6-8.2,13.1c-4,0.8-3.5,4-2,6.9c0.6,0.6,0.8,1.2,0.6,1.8
	c-0.2,0.6-0.4,0.9-0.6,0.9c0.4,4,1.9,7.4,4.9,10.2C299.6,381.2,301.4,381.3,301.2,383.2z"/>
<path class="st19" d="M446.4,199.4c15.9-0.5,30.5,5.6,45.2,10c6.9,2,14.8,3,20.8,8.1c-9.5-0.1-18.6,5-28.5,0.8c-4.1-1.7-8,3-5.6,6.6
	c6.1,9.1-2.2,15.9-2.4,23.8c-0.1,1.7-1.7,3-3.4,3.2c-2.1,0.3-3-1.3-3.2-3.1c-0.3-3.6-1.6-6.8-4.5-8.7c-11.5-7.5-13.7-19.5-14.9-31.6
	C449.6,204.8,447,202.6,446.4,199.4z"/>
<path class="st20" d="M438.1,326.9c-1.6,0.1-3.3,0.3-4.9,0.4c-5.1,1-10.1,1.8-15.1-0.6l0.3,0.2c-1.3-1.7-4.1-0.8-5.3-2.8
	c-1.2-1.8-2.8-2.6-5-2.2c-1.8,1.3-3.6,1.3-5.3-0.3l0.3,0.2c-1.5-1.5-3.9-1.1-5.3-2.7l0.3,0.2c-1.5-1.5-3.9-1.1-5.3-2.7l0.2,0.2
	c-3.5-8.5,5.1-9.7,8.4-14.1c9.9-7.3,20.2-13.5,32.7-15.3c9.6-1.3,12.8,0.7,10.7,9.4C442.5,306.8,445.3,318,438.1,326.9z"/>
<path class="st21" d="M221.9,301.1c3.2-0.6,6.3-1.5,8.4-4.4c1-2.3,3.8-1.3,5.1-3l-0.3,0.2c0.3-0.2,0.7-0.7,1-0.7
	c30.8-2.4,23.8-0.3,22.8,21.6c-0.1,2.1-0.4,4.2-0.6,6.2c-1.4,13.3-2.4,14-15.7,10.4c-10.2-2.8-19.2-8.2-28.3-13.3
	c-2.4-1.2-4.9-2.4-7-4.2l0.2,0.3c-1-6.1,4.4-7.4,7.6-10.3l-0.3,0.2c0.9-1,1.8-1.9,2.8-2.8l-0.3,0.3
	C218.7,300.1,220.3,300,221.9,301.1z"/>
<path class="st22" d="M438.1,326.9c1.5-12,0.1-24.3,5.8-36.8c-17.6-2.6-30,6.6-42.8,14.6c-0.5-0.1-1-0.2-1.5-0.2c-0.2-1-0.1-2,0.2-3
	l0.6-0.5c1-0.4,1.8-1,2.3-2c0,0,0.3-0.2,0.3-0.2c31.5-19.6,61.5-18.2,84,4.3c2,2,7.8,4.1,2.4,8.6c-0.6-0.1-1.2-0.2-1.7-0.3
	c-8.9-4.8-16-12.6-26.1-15.3c-5.4-1.5-8.4-1-7.3,5.5c0.1,0.8,0,1.7,0.1,2.5c0.9,5.8-5.2,12.5-0.7,16.9c3.9,3.8,10.2-2.8,15.7-0.9
	c1.1,0.5,2,1.2,2.7,2.3c-9,6.8-19.6,7.5-30.3,7.6C440,329.9,438.9,328.4,438.1,326.9z"/>
<path class="st23" d="M298.8,314.1c0.8,1.6,1.7,3.1,2.5,4.7c-9.1,11.8-23.2,12-35.8,15.1c-3.8,0.9-6.3-2.5-5.7-6.4
	c1.7-10,1.8-20,1.8-30c0-3.9,2.5-6.2,6.8-3.5l-0.3-0.2c7,3.1,14.3,5.8,20.6,10.4l-0.3-0.2c1,0.9,1.9,1.8,2.8,2.8l-0.2-0.2
	c2.6,1.9,5.4,3.3,7.9,5.3l-0.3-0.3c0.7,0.5,0.9,1.1,0.7,1.7C299.2,313.8,299,314.1,298.8,314.1z"/>
<path class="st24" d="M268.5,293.9c-2.5,0.4-5.6,0.5-4.1,4.3c4.2,11.1,1.2,21.6-3.3,33.4c15.2-0.5,28.3-4.8,40.3-12.8
	c1.5,0.4,2.7,1.1,2.6,3c0,0-0.1,0-0.1,0c-1,0.7-1.7,1.7-2.8,2.4c0,0,0,0,0,0c-0.8,0.4-1.6,0.7-2.4,1.1c-1,0.2-1.8,0.8-2.3,1.7
	l-0.2,0.1c-1.1,0.8-2.1,1.8-3.5,2.1c-1.4,0.4-2.8,0.8-4.2,1.2c-1,0.3-2,0.8-2.8,1.6c-1.6,0.3-3.2,0.6-4.8,1
	c-1.1,0.4-2.1,0.9-3.2,1.4c-2.3,0.3-4.7,0.6-7,0.9c-6.8,0.9-13.5,1.2-20.3-0.2c-1.6-0.2-3.1-0.4-4.7-0.6c-1.6-1.2-3.8-0.9-5.5-2
	c-1.4-0.3-2.7-0.5-4.1-0.8c-1.4-0.1-2.4-1.1-3.6-1.7c-0.6-0.5-1.4-0.7-2.2-0.6c-0.9-0.7-1.9-1.3-2.9-1.8c-0.6-0.6-1.2-0.8-2-0.8
	c-1.2-0.5-2-1.4-3.1-2c-0.4-0.5-0.9-0.8-1.6-0.6c-1.4-0.3-2.5-1.2-3.5-2.2c-1.3-1.3-2.6-2.8-4.8-2.7c-0.4-0.3-0.8-0.7-1.1-1
	c0.3-0.4,0.5-0.9,0.8-1.3c12.2,4.2,23.1,11.9,36.2,14c1.7,0.3,3.2,0.9,5.2-0.3c1-11.7,0.4-24,4.3-35.9c-7.8-2.5-15.4-0.1-22.9-0.7
	C244.2,290.1,258.8,290.1,268.5,293.9z"/>
<path class="st25" d="M565.3,322.3c1,1.4,2.9,2.3,2.7,4.4c-37,1.6-73.4,7.5-109.7,14.5c-8.2,1.6-16.3,4.4-24.8,3.5l0.1,0.2
	c6.7-5.8,15.5-5.3,23.3-7.1c31.9-7.2,64.3-12.2,97.1-13.9C557.9,323.6,561.6,322.8,565.3,322.3z"/>
<path class="st25" d="M698.1,301.1c1,1.4,2.9,2.3,2.7,4.4c-37,1.6-73.4,7.5-109.7,14.5c-8.2,1.6-16.3,4.4-24.8,3.5l0.1,0.2
	c6.7-5.8,15.5-5.3,23.3-7.1c31.9-7.2,64.3-12.2,97.1-13.9C690.6,302.5,694.4,301.6,698.1,301.1z"/>
<path class="st24" d="M288.8,304.1c-7.3-2.6-14.2-6.1-20.6-10.4C276.1,295.1,283.3,297.8,288.8,304.1z"/>
<path class="st22" d="M401.2,304.6c-1.7,4.7-9.8,5.2-8.2,12.1c-1.5-0.1-3.1-0.3-4.6-0.4c0.6-6.3,6.9-8.6,9.7-13.3
	c0.5,0.1,1.1,0.1,1.6,0.2C400.2,303.7,400.7,304.2,401.2,304.6z"/>
<path class="st24" d="M215.1,303.9c-2.1,3.8-6.5,5.8-7.6,10.3c-2-0.4-3.1-1.9-1.7-3.3C208.4,308.1,210.3,304,215.1,303.9z"/>
<path class="st22" d="M418.1,326.7c5,0.2,10,0.4,15.1,0.6C428,330.9,423,330.2,418.1,326.7z"/>
<path class="st24" d="M298.9,311.7c-3.8-0.1-5.9-2.5-7.9-5.3C294.9,306.3,297.4,308.3,298.9,311.7z"/>
<path class="st22" d="M484.2,313.9c-0.5,4.2-3.5,5.3-7.1,5.6c-0.3-0.5-0.6-1.1-0.9-1.6c0.7-3.5,2.8-5.3,6.4-5
	C483.1,313.3,483.6,313.6,484.2,313.9z"/>
<path class="st25" d="M433.6,344.6c-1,0.6-1.9,1.5-3,1.9c-1.1,0.4-2.4,0.4-2.8-1.1c0.8-0.1,1.5-0.4,2.3-0.4c1.2-0.1,2.4-0.1,3.6-0.2
	C433.7,344.8,433.6,344.6,433.6,344.6z"/>
<path class="st22" d="M413.2,324.1c1.9,0.6,4.2,0.6,5.3,2.8C417.2,325,412.7,329.3,413.2,324.1z"/>
<path class="st24" d="M235.5,293.7c-0.9,2.4-3.4,2.1-5.1,3c-1.7-1.2-1.8-2.3,0.5-2.7C232.3,293.8,233.9,293.8,235.5,293.7z"/>
<path class="st24" d="M221.9,301.1c-1.5,0.2-3,0.3-4.6,0.5C218.6,299.3,220,297.5,221.9,301.1z"/>
<path class="st22" d="M489.5,311.5c-1.1,2.3-2.7,3.5-5.3,2.4c0,0,0.1,0.2,0.1,0.2c0.2-4.2,2.3-4.4,5.3-2.4L489.5,311.5z"/>
<path class="st24" d="M207.2,313.9c2.5-0.4,4.4,0.1,5.1,2.9c0,0,0.2-0.2,0.2-0.2c-0.7,0.9-1.6,1.1-2.6,0.7c-0.6-0.6-1.3-0.9-2.1-0.8
	C207.6,315.6,207.4,314.8,207.2,313.9z"/>
<path class="st22" d="M392.8,316.5c2.1,0.3,4.1,0.8,5.3,2.7C396.1,318.8,393.3,319.9,392.8,316.5z"/>
<path class="st22" d="M397.9,319.1c2.1,0.4,4.5,0,5.3,2.7C401.2,321.4,398.4,322.5,397.9,319.1z"/>
<path class="st22" d="M477,319.5c-0.8,2.5-2.9,2.7-5,2.7c-0.3-0.4-0.6-0.7-0.9-1.1c0.5-3,2.4-3.6,5-2.6
	C476.5,318.9,476.7,319.2,477,319.5z"/>
<path class="st22" d="M402.9,321.6c1.7,0.1,3.5,0.2,5.3,0.3C406.2,325.4,404.5,324.6,402.9,321.6z"/>
<path class="st24" d="M298.8,314.1c-0.1-0.9-0.1-1.7-0.2-2.6c0.9,0.3,2.2,0.3,2,1.7C300.5,313.6,299.4,313.8,298.8,314.1z"/>
<path class="st24" d="M291.3,306.7c-1.6-0.3-2.9-0.8-2.8-2.8C290.2,304,291.4,304.6,291.3,306.7z"/>
<path class="st24" d="M217.6,301.3c0.2,2.1-1.2,2.5-2.8,2.8C214.7,302.2,216.2,301.7,217.6,301.3z"/>
<path class="st26" d="M692.8,692.9c-0.8,0.9-1.7,1.7-2.5,2.6C691.1,694.6,692,693.7,692.8,692.9z"/>
<path class="st27" d="M547.3,383.1c-19.2-2.6-37.7-8.3-56.9-11c-18-2.5-35.9-5-54-4.9c0,0-0.2,0.1-0.2,0.1
	c-3.9-2.7-8.8,0.4-12.8-2.2c-1.6-0.1-3.1-0.2-4.7-0.3c-0.8-0.5-1.1-1-0.8-1.5c0.3-0.5,0.5-0.7,0.8-0.7c0.7,0.1,1.4,0.1,2.1-0.3
	c43.8,2,87.1,6.7,129.6,18.1C549.4,381.3,548.4,382.2,547.3,383.1z"/>
<path class="st28" d="M187.1,373.9c-5.6,1-11.2,1.9-16.8,2.6c3.9-0.8,7.7-1.7,11.4-2.9c1-1.1,1.1-2.3,0.3-3.6
	c-2.2-1.1-2.5-3-2.3-5.2c-1.1-6.7-7.1-6.1-11.6-7.4c-8.9-2.5-18.2-3.2-26.7-7c-6.7-0.3-13.4-0.6-20.1-0.8c-3.4,9.7-6.9,19.3-10,29.1
	c-0.2,0.8-0.5,1.5-0.7,2.2c-0.2,7.3-1.9,14.3-3.6,21.4c-0.5,2.3-1.9,3.7-3.6,4.2c-0.2,2.9-0.5,5.7-0.7,8.6
	c5.8,4.2,10.3-1.6,15.5-1.9c1.2-0.4,2.4-0.9,3.5-1.5c23.6-10.8,49.6-14.7,73.5-24.8C193.1,382.2,193,376.2,187.1,373.9z M148,379.6
	c-5.2,0.7-10.4,1.5-15.5,2.4c1.2-0.4,2.4-0.7,3.6-0.9C140.1,380.5,144.1,380,148,379.6z"/>
<path class="st28" d="M177.1,418.5c-7-3.6-5.6-8.7-2.2-13.7c2.8-4.1,6.3-7.8,9.5-11.7c-3.5-3.2-7.1-0.8-10.5,0
	c-19,4.3-37.4,10.8-55.6,17.6l0.2-0.1c-4.8,1.4-8.8,5.5-14,5.8c-0.7,1.9-1.7,3.6-2.8,5.2c-0.6,0.8-1.1,1.7-1.7,2.5
	c-0.1,0.1-0.1,0.2-0.2,0.2c0,0,0,0.1,0,0.1c-0.1,0.1-0.1,0.3-0.1,0.4c3.5,6.4,10.6,6.8,16.8,8.5c5.4,1.5,9.8,7.3,14.6,6.6
	c11.3-1.7,21.4,2,32.1,3.5c5,0.7,9.2-0.3,11.5-5.5c1.5-3.5,3.2-6.9,5.1-10.2C182,423.7,181.3,420.6,177.1,418.5z"/>
<path class="st29" d="M118.4,410.6c-5.2,4.6-10.1,9.8-18,5.2c0.8-0.2,1.5-0.5,2.2-0.8C108.1,414.3,112.3,409.1,118.4,410.6z"/>
<path class="st2" d="M418.4,357.3c-1-0.3-1.4-0.9-1-1.7c0.2-0.3,0.7-0.4,1-0.7C418.3,355.7,418.3,356.5,418.4,357.3z"/>
<path class="st2" d="M188,339.2c-5.3,0.3-6.3,3.9-6.4,8.3c-19.4-0.2-38.8-0.4-58.2-0.6c0.9-5,1.9-10.1,2.8-15.1
	c3.7,2.3,7.8,2.7,12,3c15,0.9,30.1,1.9,45.1,2.9C184.9,337.8,186.5,338.7,188,339.2z"/>
<path class="st2" d="M255.3,347.5c0.9,0.5,1.8,1,2.8,1.5C257.1,348.5,256.2,348,255.3,347.5z"/>
<path class="st2" d="M245.4,344.8c0.8,0.5,1.6,0.9,2.4,1.4C247,345.8,246.2,345.3,245.4,344.8z"/>
<path class="st2" d="M230.7,347c-1-0.5-2-1-3-1.5C229,345.3,230,345.8,230.7,347z"/>
<path class="st2" d="M234.8,342.5c0.9,0.4,1.9,0.8,2.8,1.2C236.6,343.3,235.7,342.9,234.8,342.5z"/>
<path class="st2" d="M218.2,344.4c-1.1-0.5-2.1-1-3.2-1.4C216.3,342.8,217.4,343.2,218.2,344.4z"/>
<path class="st2" d="M222.2,339.9c0.9,0.4,1.8,0.8,2.7,1.2C224,340.7,223.1,340.3,222.2,339.9z"/>
<path class="st2" d="M209.4,337.4c0.9,0.4,1.8,0.7,2.7,1.1C211.2,338.1,210.3,337.7,209.4,337.4z"/>
<path class="st2" d="M179.7,364.8c-8.3-5.3-18.2-4.6-27.3-7.2c-4.7-1.4-8.3-3.4-11.1-7.2c12.8-1.2,25.4,0.9,38.1,2.3
	C179,356.7,184.4,360.7,179.7,364.8z"/>
<path class="st30" d="M248.6,723.5c-0.1-6.6-2-12.4-7.2-17.7c-3.6-3.7-4-8.5-1.2-12.8c3.9-6.1,4.8-12.4,3.2-19.3
	c-0.6-2.5,0.4-5,1-7.4c2.7-9.9,2.6-9.9-6-14.3c-6-3.1-12.1-6-18.7-7.5c-3.6-0.9-7.5-1.6-9.9-5c-0.4-4.7,0.2-9.4,2.9-13.4
	c5.4-7.9,5.1-16.8,4.6-25.7c-0.4-7.5-3.4-10.7-10.6-11.6c-3.8-0.5-7.4-1.2-11.1-1.8c-7.9-1.4-13.8-4-13.8-13.3
	c0-3.7-2.4-4.8-5.7-5.5c-7.1-1.6-13.2-5.5-19.4-9c-2.1-1.2-4.5-3.2-4-5.9c0.7-3.2,3.9-2.5,6.3-2.6c8.4-0.1,16.9-0.1,25.3-0.1
	c-0.3,3.8,1,7.1,2.7,10.4c2.5,4.9,5.9,4.8,9.9,2c4,1,8.1,1.6,10.6,5.5c3.7,5.6,6.4,11.9,13.6,14.3c7.3,2.5,14.1,5,21.2-1.2
	c4.7-4.1,11.5-4.8,16.9-2c9.3,4.8,20.2,5.8,28.4,13c5-4,6.1-11.2,11.7-13.4c5.3-2.1,10.6,1.7,16.1,2c15.9,1,31.7,3.5,47.3,7.1
	c6.5,1.5,13.2,9.8,13.3,15.9c0.1,2.6-1.7,3.6-3.5,4.7c-4.4,2.6-8.7,5.2-13,7.8c-3.8,2.3-6.9,5-7.3,9.7c-0.2,3.7-2.3,6.2-4.8,8.6
	c-8.4,8.1-9,13.2-3.2,23c1.5,2.4,4.8,3.8,4.1,7.7c-0.9,0.4-2.1,1.4-3.1,1.3c-9.5-1.4-8.8-1.2-11.2,8.1c-3.4,13.1-4.6,26-2.8,39.4
	c0.3,2.3-1,4.9-1.9,7.3"/>
<path class="st1" d="M467.5,581.9c3,6.7,7.8,11.6,6.8,19c-0.7,5-2.8,8-8,7.8c-5.3-0.2-7.6-3.7-7.1-8.5
	C459.8,593.6,461.1,587,467.5,581.9z"/>
<path class="st1" d="M462.7,540.5c4,7.9,4.4,16.5,3.7,25.2c-0.1,1.7-0.5,3.5-2.5,3.9c-2.2,0.4-4-0.8-5.7-2.2c-1.5-1.2-2-3.9-1-4.5
	c8.9-4.9,3.8-12.5,4.2-19.1C461.5,542.7,461.2,541.3,462.7,540.5z"/>
<path class="st12" d="M207.6,568.5c-4.5,0-8.6-0.6-10.6-5.4c2.9-3.2,6.7-2.8,10.1-1.8C212.5,562.9,211.7,565.7,207.6,568.5z"/>
<path class="st31" d="M164.6,723.3c-0.1-7-3.8-8.7-10.2-10.2c-12.3-3-24.1-7.8-36.7-9.5c-2.5-0.3-5-1-7.5-1.4
	c-4.8-0.8-10.1,4.2-14.4-0.7c-4.7-5.4,3.7-9.8,2.3-13.7c-5-14.3-2.9-29.1-3.9-44.6c-7.5,7.1-7.5,7.1-5.6,16.5
	c2.6,13.2,0.8,15.7-13.2,17.9c-1-14.8-1.2-29.6,1.2-44.3c1.6-9.7,0.3-19.4,0.8-29.1c2.7-6.7,6.5-11.1,14.9-10.9
	c6.1,0.2,12.2-2.9,18.7-2.1c2.5,0.3,5.9,0,6.3,2.9c0.9,5.7,3,11.4,0.8,17.2c-1,2.5-5.6,3.8-3.2,7.3c2.2,3.3,5.8,5.6,9.7,4.5
	c6.5-1.9,10.5,1.6,14.4,5.4c4.4,4.2,8.5,7.7,8.1,15.7c-0.4,7.5,4,15.3,6.3,22.9c1.1,3.6,2,8.2,7.1,6.4c4.3-1.5,6.4-5.5,5.6-10.2
	c-0.3-1.6-1.2-3.1-2-4.5c-5-8.2-3.6-7.2,1.3-14.3c8.3-11.8,19.2-7.5,29.4-6.8c4.9,0.4,9.9,1.8,14.9,1.6c14.1-0.6,25.5,7.6,37.9,12.1
	c5.2,1.9,7.1,7.2,2.4,12.4c-0.9,0.9-2.4,1.9-2.4,2.8c-0.2,11.4,2.1,23.1-6.7,33c-1.3,1.4,2.8,3.7,4.6,5.3c5,4.7,7.6,9.9,7.5,16.1"/>
<path class="st29" d="M184.3,393.1c-17.9,2.2-34.7,8.7-51.7,14.2c-4.7,1.5-9.1,4.6-14.4,3.4c18.1-11.2,38.7-15,58.7-20.6
	c6-1.7,12.5-1.6,18.1-4.6c5.2-4.9,11.3-5,17.7-3.1c3.3-0.1,6.7-0.3,10-0.4c1.6-0.6,3.2-0.6,4.8,0c0.6,0.6,0.8,1.2,0.7,1.9
	c-0.1,0.7-0.3,1-0.5,1c-3.5,0.6-7.1,1.2-10.6,1.8C206.2,388.8,194.8,388.9,184.3,393.1z"/>
<path class="st29" d="M64.2,425.2c-17.9,2.2-34.7,8.7-51.7,14.2c-4.7,1.5-9.1,4.6-14.4,3.4c18.1-11.2,38.7-15,58.7-20.6
	c6-1.7,12.5-1.6,18.1-4.6c5.2-4.9,11.3-5,17.7-3.1c3.3-0.1,6.7-0.3,10-0.4c1.6-0.6,3.2-0.6,4.8,0c0.6,0.6,0.8,1.2,0.7,1.9
	c-0.1,0.7-0.3,1-0.5,1c-3.5,0.6-7.1,1.2-10.6,1.8C86,420.8,74.7,420.9,64.2,425.2z"/>
<path class="st32" d="M-719.7-315.1c0.7,1.1,1.6,2.1,2,3.3c0.8,2.3,1.9,4.7,4.7,4c3.2-0.8,3.4-3.5,2.6-6.4c-0.3-1.1-1.3-2.4,0.2-3.4
	c0.3,0.2,0.7,0.3,0.8,0.5c2.8,7,2.2,11.4-1.9,12.7c-4.4,1.5-7.8-2.1-10-10.5C-720.7-314.9-720.2-315-719.7-315.1z"/>
<path class="st33" d="M345,362.5c-1.1-2-2.2-2.1-3.3-0.1c-1.1,0.8-1.7,0.6-1.9-0.8c-0.4-1.5-0.9-2.9-1.3-4.4c-0.1-1-0.6-1.6-1.5-1.9
	c-1.1-1.9-2.2-3.8-3.4-5.7c-0.3-1-0.9-1.8-1.7-2.4c-0.3-0.9-0.7-1.8-1-2.7c-0.3-1.1-0.8-2-1.4-2.9c1.4-2.1,2.7-4.4,5.1-5.7
	c1-0.1,1.6-0.6,2-1.5c6.1,0,12.3,0,18.4,0c0.5,0.9,1.3,1.6,2.3,2l0.5,0.5c0.6,1.6,0.7,3.3,0.2,4.9c-2,3.5-3.9,6.9-5.9,10.4
	c-0.8,0.7-1.5,1.5-1.9,2.5c-1.5,2.2-3.5,4.1-3.5,7C346.7,363.3,346.1,363.6,345,362.5z"/>
<path class="st2" d="M316.1,370.1c3.5,0.2,8.3-0.7,9.7,4.9c0.5,1.9-8.1,9.2-10.8,9.4c-2.9,0.2-10.4-7.2-10-9.9
	C305.4,371.3,308.7,370,316.1,370.1z"/>
<path class="st2" d="M339.8,361.6c0.6,0.2,1.3,0.5,1.9,0.8c-0.1,5.8-0.2,11.6-0.2,17.4c-0.1,1.2-0.6,1.5-1.7,0.8
	C339.7,374.3,339.8,368,339.8,361.6z"/>
<path class="st2" d="M345,362.5c0.6-0.3,1.2-0.5,1.8-0.7c2.3,4,3.8,7.9-1.6,10.8C345.1,369.2,345,365.8,345,362.5z"/>
<path class="st2" d="M423.4,365.1c4.4-0.2,9.1-1.9,12.8,2.2C431.9,367.1,427.2,369,423.4,365.1z"/>
<path class="st33" d="M339.7,380.7c0.6-0.3,1.1-0.6,1.7-0.8c0.5,3.6,1.4,7.1-1.2,10.3C340,387,339.9,383.9,339.7,380.7z"/>
<path class="st2" d="M438.8,378.3c2.9-0.2,5.8-0.8,8.2,1.7C444,380.2,441.1,380.7,438.8,378.3z"/>
<path class="st2" d="M423.5,375.5c3-0.4,5.9-0.5,8.1,2C428.7,377.7,425.7,378.2,423.5,375.5z"/>
<path class="st2" d="M358.1,341.9c-0.1-1.7-0.1-3.3-0.2-5C359.7,338.6,360,340.2,358.1,341.9z"/>
<path class="st2" d="M301.2,383.2c-0.9-0.9-1.7-1.9-2.6-2.8C300.1,380.8,303.9,379,301.2,383.2z"/>
<path class="st2" d="M454,380.9c1.9-0.2,3.7-0.1,4.8,1.9C457,382.8,455.3,382.4,454,380.9z"/>
<path class="st2" d="M421.1,372.7c-0.3,0.8-0.3,1.6,0,2.3C419.2,374.3,419.2,373.5,421.1,372.7z"/>
<path class="st2" d="M293.8,370.1c0-0.9,0-1.8,0-2.7C295.5,368.3,295.5,369.2,293.8,370.1z"/>
<path class="st2" d="M418.7,362.6c-0.3,0.7-0.3,1.5,0,2.3C416.6,364.1,416.7,363.3,418.7,362.6z"/>
<path class="st2" d="M337,355.3c0.5,0.6,1,1.3,1.5,1.9C337.8,356.7,337.3,356.1,337,355.3z"/>
<path class="st2" d="M350.3,354.7c0.6-0.8,1.3-1.6,1.9-2.5C351.6,353.1,350.9,353.9,350.3,354.7z"/>
<path class="st2" d="M331.9,347.2c1.1,0.4,1.7,1.2,1.7,2.4C333,348.8,332.5,348,331.9,347.2z"/>
<path class="st2" d="M329.5,341.6c0.5,1,1,2,1.4,2.9C330.4,343.5,330,342.5,329.5,341.6z"/>
<path class="st2" d="M357.4,336.4c-0.8-0.7-1.5-1.3-2.3-2C355.8,335.1,356.6,335.7,357.4,336.4z"/>
<path class="st2" d="M336.6,334.4c-0.7,0.5-1.3,1-2,1.5C335.3,335.4,335.9,334.9,336.6,334.4z"/>
<path class="st2" d="M402.7,298.8c-0.8,0.7-1.5,1.3-2.3,2C401.2,300.1,401.9,299.5,402.7,298.8z"/>
<path class="st34" d="M189.2,376.2c-24.4,3.2-48.7,6.4-73.1,9.6c-0.1-0.8-0.3-1.6-0.4-2.4c11.9-2,23.8-3.8,35.6-6.1
	c10.3-2,20.9-1.6,31-4.9l0.8-0.9l1.1,0.4c5.2,0,10.4,0,15.6,0c1.8-0.6,3.8-0.6,5.5-1.5c4.1,0,8.2-0.1,12.3-0.1
	c0.8,1.4,0.5,2.5-0.9,3.3c-4.2-0.3-7.9,1-11.1,3.8C200,379,194.4,379.8,189.2,376.2z"/>
<path class="st34" d="M89.4,388.4c-24.4,3.2-48.7,6.4-73.1,9.6c-0.1-0.8-0.3-1.6-0.4-2.4c11.9-2,23.8-3.8,35.6-6.1
	c10.3-2,20.9-1.6,31-4.9l0.8-0.9l1.1,0.4c5.2,0,10.4,0,15.6,0c1.8-0.6,3.8-0.6,5.5-1.5c4.1,0,8.2-0.1,12.3-0.1
	c0.8,1.4,0.5,2.5-0.9,3.3c-4.2-0.3-7.9,1-11.1,3.8C100.2,391.3,94.7,392,89.4,388.4z"/>
<path class="st12" d="M189.3,375.7c5.8-0.1,11.5-0.2,17.3-0.4c1.3-1.1,2.4-1,3.4,0.4c0.9,2.4,1.7,4.8,2.6,7.1
	c-5.6,2.9-11.8,1.8-17.8,2.4C189.5,384.2,185.3,382.3,189.3,375.7z"/>
<path class="st9" d="M204.7,352.2c1.7-0.3,3.5-0.5,5.2-0.8c4.9,0.4,9.8,0.8,14.7,1.1c1,0.5,1.9,1,2.9,1.5c4.1,0.4,8.1,0.7,12.2,1.1
	c1,0.5,2,1,3.1,1.5c2.4,0.3,4.8,0.7,7.3,1c0.9,0.5,1.9,1,2.9,1.5c1.7,0.3,3.5,0.6,5.2,0.9c0.3,0.4,0.7,0.8,1,1.2
	c-0.2,0.5-0.4,1-0.6,1.5c-0.9,0.7-1.9,0.9-2.9,0.6c-2.3-0.4-4.5-0.8-6.8-1.2c-1.3-0.1-2.2-1.2-3.4-1.6c-2.5-0.2-5-0.5-7.5-0.7
	c-2.2-2.1-5.3-0.6-7.7-1.8c-2.4-0.3-4.8-0.6-7.1-0.9c-2.5-1.6-5.6-0.5-8.1-1.8c-3.2-0.3-6.5-0.5-9.7-0.8
	C204.9,353.8,204.7,353,204.7,352.2z"/>
<path class="st35" d="M217.4,372.5c0-0.7,0.1-1.4,0.2-2.2c5.9-0.2,11.9-0.5,17.8-0.7c7.6-1.1,15.2-1.3,22.7,0.2c6,0.1,12,0.2,18,0.3
	c0.6,0.9,0.6,1.7,0,2.5c-17.9,0-35.7-0.8-53.6,0.6C220.7,373.9,218.9,374.1,217.4,372.5z"/>
<path class="st36" d="M227.7,384.9c-0.1-0.7-0.1-1.3,0-2c0.2-1.6,1.7-1.7,2.7-2.4c14.3-0.3,28.7-1,44.7,0.4c-5.4,2.7-9.5,2-13.3,1.9
	C250.3,382.3,239.1,384.4,227.7,384.9z"/>
<path class="st2" d="M276,372.6c0-0.8,0-1.7,0-2.5C277.8,370.9,277.8,371.8,276,372.6z"/>
<path class="st2" d="M253,359.1c-1.3,0.2-2.2-0.4-2.9-1.5C251,358.1,252,358.6,253,359.1z"/>
<path class="st2" d="M227.6,354.1c-1.4,0.3-2.3-0.4-2.9-1.5C225.6,353.1,226.6,353.6,227.6,354.1z"/>
<path class="st2" d="M285.8,331.8c0.9-0.5,1.9-1,2.8-1.6C287.7,330.8,286.8,331.3,285.8,331.8z"/>
<path class="st2" d="M296.5,326.9c0.8-0.6,1.5-1.1,2.3-1.7C298,325.8,297.3,326.4,296.5,326.9z"/>
<path class="st37" d="M476.2,318.5c-1.9,0.4-4,0.4-5,2.6c-7.8,1-14.8,6.1-24.3,5.3c3.2-12.3,6.3-24.3,1.9-38.1
	c16.7,4.8,31.2,9.7,40.8,23.3c-2.4-0.5-4.4-0.5-5.3,2.4C480.9,314.2,478.4,316.1,476.2,318.5z"/>
<path class="st38" d="M78.2,723.5c-0.4-5.9-0.7-11.9-0.8-17.8c-2.5-5.7,0.5-12-1.8-17.8c0-3.4-0.1-6.8-0.1-10.3
	c1-0.7,2.1-1.5,3.1-2.2c9-5.7,9-5.7,5.2-16.8c-1.5-4.3,1.9-17.2,5.3-20.1c1.8-1.5,3.9-1.8,6-1c3.2,1.2,4.5,4,3.9,7.1
	c-1.7,8.4-0.4,16.9-0.9,25.3c-0.2,4.8,0.1,9.3,4,12.8c4.2,3.8,3.6,7.2-1.4,10c-1.4,0.8-2.8,2-3.7,3.3c-0.6,0.9-0.5,2.5-0.1,3.5
	c0.8,1.7,2.8,2.5,4.2,1.2c5.3-5.2,10.3-3,16-0.8c5,1.9,10.7,2.5,16.1,2.8c5.3,0.3,10,1.8,14.1,5c2.9,2.3,5.9,2.8,9.5,2.4
	c8.6-0.9,12.1,2.4,12,10.8"/>
</svg>
