<?xml version="1.0" encoding="utf-8"?>
<!-- Generator: Adobe Illustrator 27.4.0, SVG Export Plug-In . SVG Version: 6.00 Build 0)  -->
<svg version="1.1" id="Layer_1" xmlns="http://www.w3.org/2000/svg" xmlns:xlink="http://www.w3.org/1999/xlink" x="0px" y="0px"
	 viewBox="0 0 720 720" style="enable-background:new 0 0 720 720;" xml:space="preserve">
<style type="text/css">
	.st0{fill:#212121;}
	.st1{fill:#FABE4F;}
	.st2{fill:#F5E1C1;}
	.st3{fill:#F7EEDD;}
	.st4{fill:#E7E3CC;}
	.st5{fill:#F8D695;}
	.st6{fill:#37B4B9;}
	.st7{fill:#DBD6C2;}
	.st8{fill:#EDD5AD;}
	.st9{fill:#F9F2E1;}
	.st10{fill:#9ACCC9;}
	.st11{fill:#DDD8C4;}
	.st12{fill:#FDF5E6;}
	.st13{fill:#D0D7C2;}
	.st14{fill:#AFC0AE;}
	.st15{fill:#798B77;}
	.st16{fill:#7DB282;}
	.st17{fill:#81C6AB;}
	.st18{fill:#F2A795;}
	.st19{fill:#FDF5E7;}
	.st20{fill:#1F333A;}
	.st21{fill:#E88986;}
	.st22{fill:#339B95;}
	.st23{fill:#E0D9C2;}
	.st24{fill:#B0D8BA;}
	.st25{fill:#61B9B8;}
	.st26{fill:#203C45;}
	.st27{fill:#35A69B;}
	.st28{fill:#FBF4E5;}
	.st29{fill:#D3CEB7;}
	.st30{fill:#1A1F3B;}
	.st31{fill:#A3AA91;}
	.st32{fill:#A9AF97;}
	.st33{fill:#EFBE7F;}
	.st34{fill:#B5D4C5;}
	.st35{fill:#52B1C2;}
	.st36{fill:#5BB18A;}
	.st37{fill:#B3D9BB;}
	.st38{fill:#3F9FB7;}
	.st39{fill:#ED8E87;}
	.st40{fill:#F1E4CC;}
	.st41{fill:#F5D38F;}
	.st42{fill:#EE6E52;}
	.st43{fill:#F3D4A6;}
	.st44{fill:#E4E7CA;}
	.st45{fill:#E3E6CA;}
	.st46{fill:#D9E3E0;}
	.st47{fill:#BEBC99;}
	.st48{fill:#D4DFDD;}
	.st49{fill:#FBF3E4;}
	.st50{fill:#D9D1B9;}
	.st51{fill:#A8AB92;}
	.st52{fill:#ABB096;}
	.st53{fill:#E7E5CD;}
	.st54{fill:#6D8377;}
	.st55{fill:#F3A99D;}
	.st56{fill:#EEC789;}
	.st57{fill:#98A580;}
	.st58{fill:#C26E4C;}
</style>
<rect x="0" y="0.5" class="st0" width="720" height="720"/>
<path class="st1" d="M453.2-32.6c0.5,0.8,1.2,1.5,1.4,2.4c0.6,1.7,1.4,3.4,3.4,2.9c2.3-0.6,2.5-2.6,1.9-4.6c-0.2-0.8-1-1.7,0.2-2.5
	c0.2,0.1,0.5,0.2,0.6,0.4c2,5.1,1.6,8.3-1.4,9.2c-3.2,1.1-5.7-1.5-7.2-7.6C452.5-32.5,452.8-32.5,453.2-32.6z"/>
<path class="st2" d="M2.1,541.2c4.1-6.1,7.4-12.7,12.4-18.2c15.6-17.3,34.6-27,58.4-25.4c5.6,0.4,11,1.9,15.2,6.2
	c3.1,3.2,3,5.1-0.5,7.7c-1.4,1.1-3.1,1.9-4.6,2.8c-14.3,8.3-22.8,20.5-25.5,36.9c-0.6,4-1,7.9-0.7,11.9c1,1,1.4,2.3,1.4,3.6
	c0.1,8,2.1,15.6,4.5,23.1c0.5,1.5,1,3,0.4,4.6c-0.4,0.8-1.1,1.6-1.9,1.5c-4.5-0.3-8.6,1.4-12.9,2.2c-2,0.3-4,0.6-6.1,1
	c-2.1,0.5-3.4,1.5-3.7,3.8c-0.5,3.9-3.1,5.9-6.8,5.8c-8.4-0.4-16.4,1.4-24.4,3.4c-1.8,0.4-3.6,0.5-5.1-1
	C2.1,587.8,2.1,564.5,2.1,541.2z"/>
<path class="st3" d="M2.1,611.1c3.7,0.5,7.3-0.6,10.7-1.7c5.9-2,11.9-2,17.9-2c4.9,0,6.1-1,6.3-5.7c0.1-1.9,0.9-3.1,2.6-3.4
	c3.1-0.6,6.1-2.5,9.5-1.3c0.3,0.1,0.9,0.2,1,0c2.8-4.4,7-1.6,10.6-2.1c0.6-0.1,1.1-0.4,1.7-0.6c1.1,0.1,1.7,0.9,2.1,1.8
	c3.3,7.2,7.2,14.1,10.9,21.1c0.4,0.7,0.7,1.5,0.6,2.4c-0.6,1.5-1.9,2.2-3.1,2.9c-7.5,4.1-13.6,10.1-20.3,15.1
	c-2.1,1.6-2.1,3.1-0.9,5.2c3.6,5.9,7.6,11.5,12.1,16.8c3.7,4.4,3.7,5.2-0.3,9.4c-2.9,3.1-6.1,5.9-9.4,8.5c-5.7,4.4-9,11.1-14.8,15.3
	c-9.2-7.2-16.9-15.9-23.6-25.5c-5.2-7.4-9.3-15.5-13.5-23.5C2.1,633,2.1,622.1,2.1,611.1z"/>
<path class="st4" d="M560.6,304.4c1.2,2.7,0.4,6,2.7,8.3c-0.5,0.9-0.2,1.9-0.2,2.9c-2.3,11.2-7.3,21.3-12.5,31.4
	c-1.5,1.6-2.1,3.7-3.4,5.4c-3.2,2.2-4.9-1.1-7.2-2c-7-4.5-14.4-8.2-20-11.5c5.3,3,12.2,7,19.1,10.9c1.6,1.8,4.9,1.9,5.2,5
	c-3.5,5.2-7.8,9.6-13.6,12.4c-3.7-0.6-6.3-3.3-9.5-5.1c-7.7-4.3-15.4-8.5-23.3-12.4c-2-1.4-4.3-2.2-6.4-3.4c2.3,1.4,4.8,2.2,6.9,3.8
	c9.2,4.2,18.1,9.2,26.8,14.5c1.5,0.9,3.4,1.5,3.7,3.7c-0.2,2.1-1.8,3.1-3.2,4.2c-17.8,14.1-37.3,24.7-59.5,30.4
	c-17.4,4.4-34.8,9-52.6,11.2c-3.5,0.4-7,0.4-10.5,0.7c-25.4,2.3-50.6,0.6-75.4-5.6c-4.9-1.2-8.4-5.1-12.9-7.2
	c-2-0.9-1.9-3.2-0.7-5.1c1.3-2,3-3.8,4.2-6c0.7-1.3,1.2-2.8,0.2-4.1c-1-1.2-2.4-1.6-3.9-1c-2.1,0.8-4,0.4-5.9-0.6
	c-3.7-2-7.5-2.6-11.5-0.7c-0.8,0.4-1.6,0.5-2.5,0.6c-1.9,0.2-3.8,0-4.7-2c-0.8-1.9,0-3.5,1.2-5c1-1.2,4.1-2.1,2.3-4
	c-1.4-1.5-3,1.4-4.6,1.8c-4.9,1.5-6,5.7-7.7,9.7c-1.7,4.1-4,4.9-7.8,2.7c-9.2-5.3-17.4-12-25.4-18.7c-2.8-2.3-2.3-4.5,1.1-6.6
	c6.2-3.8,12.5-7.3,19-10.7c6.9-3.6,13.5-7.6,20.2-11.6c4.1-2.4,7.8-2.7,11.7,0.3c2.5,1.9,2.8,3.4,0.3,5.5c-3.2,2.7-6.9,5-9.1,7
	c4.5-2.8,8.8-8,15-10.3c3.1-0.2,5.9,1,8.8,1.9c3,0.9,3.4,2.6,1.2,4.7c-3.3,3.2-6.6,6.2-9,8.7c2.6-2.8,6.2-6,9.7-9.3
	c2.4-2.3,5.1-3.6,8.5-3.5c2.2,0,4.4,0,6.5,0c6.5,0,12.4-1.8,17.8-5.3c6.6-4.3,12.7-9.3,19.7-13c6.1-3.3,8.6-8.5,8.6-15.2
	c0-1.9-0.4-3.9,1.2-5.5c0.5-0.2,1.1-0.2,1.6,0c1.4,1.5,1.2,3.4,1.1,5.2c-0.2,6.7,1.9,11.8,8.3,15.2c6.9,3.6,12.9,8.6,19.3,12.9
	c5.8,3.9,12.1,5.5,19.1,5.8c8.8,0.4,17.1-1.6,25.5-3.3c0.8-0.2,1.7-0.4,2.3-0.9c9.1-7.5,16.1-16.4,16.7-28.8
	c0.6-13.1-9.1-27.7-21.8-32.9c-3.8-1.6-7.8-2.7-11.8-3.6c-1.2-0.3-2.8-0.2-3.1-2c0.8-1.2,2-1.3,3.2-1.3c8.7-0.1,15.1-4.3,20.3-10.9
	c0.7-0.8,1.4-1.4,2.3-1.8c1.6-0.5,3.1-0.3,4.6,0.2c19.5,5.7,33.5,17.4,40.2,36.9c1.3,3.8,3.1,5.3,7.1,5.6
	c13.6,0.9,27.2,1.9,40.9,0.6C557.2,303.3,559.1,303.1,560.6,304.4z"/>
<path class="st5" d="M430.2,143c5.4-0.5,10.8,0.1,16.2,1c1,0.2,1.9,0.3,2.8-0.2c12.7,4.4,26.2,7.1,37.4,15.3
	c9.1,6.6,17.8,13.8,25.1,22.4c1.1,1.3,2,2.7,3.2,3.9c2.8,2.8,4.8,6,5.5,10c1.1,3.8,3.8,6.7,5.9,9.9c8.9,13.3,15.9,27.6,21.1,42.8
	c-1,1.5-2.5,2-4.1,2c-11.5,0.1-22.9,1.3-34.5,0.3c-11.6-1-23.3-0.2-34.9-0.2c-3.2,0-6.3-0.1-9.4-0.8c-1.4-0.1-2.1-1.1-2.8-2.1
	c-7.4-10.9-15.3-13.8-27.9-10.4c-1.4,0.4-2.8,1-4.2,0.7c-2.2-2.3-2.2-4.4,0.5-7.4c3.3-3.6,6-7.6,8.9-11.4c8.8-11.4,18.6-22,28-29.2
	c-2.2,1.9-6.4,5.5-10.5,9.2c-4.2,3.9-7.7,8.4-11.4,12.6c-4.2,4.7-7.9,9.8-11.6,14.9c-0.8,1-1.6,2.6-3.1,2.2
	c-1.7-0.4-1.6-2.3-1.6-3.7c-0.1-9.8-3.3-18.8-7.1-27.7c-1.7-3.9-5.6-6.3-8.1-9.8c-0.6-0.8-1.3-1.4-1.9-2.2c-2-2.8-1.7-4.5,1.2-6.3
	c0.4-0.3,0.8-0.6,1.3-0.7c4.9-0.9,6.8-4.5,8-8.8c0.7-2.4,3.2-3.9,3.2-6.8c0-1.1,1.7-0.6,2.5-0.4c2.5,0.8,3.3-0.6,3.5-2.7
	c0.4-4.2,0.1-8.2-1.4-12.2C429.8,145.8,429,144.4,430.2,143z"/>
<path class="st6" d="M463.8,248.3c3.3,0,6.5,0.1,9.8,0.1c22.3,0.1,44.7,1.4,67,0.1c2.3-0.1,4.6-0.4,6.9-0.6
	c3.6,7.8,5.8,16.1,7.6,24.4c2.4,10.6,4.7,21.2,5.5,32c-16.7,1.9-33.4,0.7-50.1-0.4c-2.3-0.1-2.7-1.4-3.3-3.1
	c-2.4-8.1-6.2-15.6-11.8-21.9c-8.8-9.9-20-15.8-33-18.3C461.8,256.5,462.5,252.4,463.8,248.3z"/>
<path class="st7" d="M520.5,195.3c-2.6-4-5.3-7.9-8.3-11.6c-4.5-5.6-9.9-10.2-15.2-15c-8.5-7.7-18-13.7-28.8-17.6
	c-4.1-1.5-8.4-2.3-12.5-3.7c-2.4-0.8-4.9-1.5-6.5-3.6c4.8-5.4,10.7-9.7,16-14.6c9.4-6.5,18.5-13.2,28.5-18.8
	c3.7-2.1,7.5-4.1,11.5-5.5c4.7-1.7,6.6-1,8.9,3.4c5.1,9.6,7.2,20,8.7,30.6c2.3,15.8,2.2,31.6,0.1,47.4
	C522.4,189.4,521.5,192.3,520.5,195.3z"/>
<path class="st8" d="M593.3,343.3c6,8.2,11.9,16.4,16.9,25.2c2,3.6,4.4,7,5,11.1c-4.4,3-4.5,3-2.6,8.5c3.9,11.6,7.5,23.3,10.3,35.2
	c1.3,5.3,1.9,10.7,2.7,16.1c0.6,3.9-1.3,5.7-5.2,5.4c-9.7-0.7-19.3-0.5-29-0.1c-1.2,0-2.4,0.1-3.4-0.8c-0.8-1-1.1-2.2-1.1-3.4
	c-0.1-14.1-1.7-28-3.2-41.9c-1.2-11.3-3.7-22.4-5.9-33.6c-0.9-4.6-1.5-9.3-2.8-13.9c-0.3-1.6,0-3.2-0.8-4.7
	c-2.4-9.4-4.8-18.9-8.9-27.8c-0.3-0.7-0.5-1.4-0.5-2.1c0.1-0.6,0.3-1.1,0.8-1.5c9.1,8.1,17.7,16.7,25.5,26
	C591.8,341.8,592.6,342.5,593.3,343.3z"/>
<path class="st9" d="M565.6,314.9c0,0.5,0,0.9,0,1.4c-1.7,0.7-2.6-0.5-3.6-1.4c0-1,0-2,1.3-2.2C564.1,313.4,564.9,314.1,565.6,314.9
	z"/>
<path class="st10" d="M224.8,243.3c5-14.4,12.3-27.5,20.7-40.1c0.7-1.1,1.4-2.3,2.1-3.4c0.7-1,1.5-2.1,2.2-3.1
	c1.8-7.8,6.9-13.5,12.1-19.1c8.9-9.8,19.6-17.3,31.9-22.5c5.8-2.5,11.4-5.4,17.3-7.7c3.7-1.5,7.4-3.1,11.5-2.9
	c7.3-1.4,14.6-2.4,22-1.4c0.8,0.7,1,1.6,1.1,2.6c0.8,7.5,2.9,14.7,5.8,21.7c1.8,4.3,1.2,5.4-3.4,6.2c-7.4,1.4-14.7,3.1-20.8,8
	c-1.6,1.3-3.1,1.1-4.3-0.8c-0.7-1-1-2.2-1.9-2.8c3.7,4.7,3.7,4.7,0.9,9.6c-2.3,4-3,8.4-3.9,12.8c-0.2,1.1-0.3,2.6-1.8,2.8
	c-1.2,0.2-1.9-0.9-2.5-1.8c-1.7-2.7-4.5-4.4-5.9-6.5c1.2,1.7,3.4,3.4,5.3,5.5c3.3,3.8,5.4,8.1,6.5,13.1c1.5,6.7,5.1,12.5,9.1,18.1
	c1.1,1.5,2.7,3,1.2,5.2c-1.4,0.6-2.6-0.1-3.8-0.4c-11.2-3.5-20.6-0.2-27.1,9.8c-0.8,1.2-1.4,2.7-3.2,2.4
	c-10.2-2.5-20.7-3.5-31.1-4.7c-5.9-0.7-11.8-0.6-17.7-0.7c-5.8-0.1-11.6,0.1-17.3,0.9C227.8,244.6,226,245,224.8,243.3z"/>
<path class="st11" d="M322.4,144.6c-16.7,6.2-33.5,12.4-48,23.2c-9.8,7.3-17.8,16.3-23.5,27.2c-0.3,0.6-0.8,1.2-1.2,1.8
	c-0.9-5.2-2-10.4-2.5-15.7c-1.5-13.8-2-27.7-0.1-41.5c0.8-6,1.6-11.9,3-17.8c1-4.4,2.5-8.6,4.3-12.7c2.4-5.3,4.7-6.3,10-4
	c9.7,4.1,18.1,10.2,26.5,16.3c9.4,6.8,18.7,13.8,27,22C319.4,144.7,320.9,144.4,322.4,144.6z"/>
<path class="st12" d="M329.8,236.6c0.2-1.2-0.6-2-1.2-2.9c-5.3-7.3-9.5-15-11.3-24.1c-0.8-4.4-4.1-7.6-7-10.9c-2-2.3-4-4.5-5.6-7.1
	c4.2,3.4,7.9,7.2,11.6,11.8c1.3-7.2,2.1-13.8,6.6-19.1c0.9-1.1,0-2.3-0.6-3.3c-1.3-2-2.6-3.9-3.7-6.1c2.3,1.3,3.2,3.7,4.7,5.5
	c0.7,0.9,1.4,2.2,2.9,0.8c6.3-6,14.5-7.5,22.6-8.9c3-0.5,2.8-1.6,1.9-3.7c-3.5-8.1-6.4-16.4-6.2-25.5c12.4-0.1,24.7-0.2,37.1-0.3
	c16.2,0,32.5,0,48.7,0.1c1.7,4.8,3.5,9.5,2.9,14.7c0,0.4,0,0.7,0,1.1c-0.3,5.3-1.5,6-7.1,3.5c1.1,2.2,1.7,4-1,4.9
	c-1,0.3-1.1,1.4-1.4,2.4c-1.3,3.9-2.1,8.3-7.4,8.9c-0.9,0.1-1.7,0.9-2.6,1.2c-2.7,1.1-2.3,2.7-0.8,4.5c1.3,1.5,2.5,3,3.8,4.3
	c10.3,10.4,12.7,23.7,13.5,37.5c0,0.5,0.1,1,0.2,1.7c1.9-0.4,2.7-1.9,3.6-3.3c5.9-8.7,12.4-17,19.9-24.4
	c5.5-5.4,11.4-10.5,18.2-14.4c-2.9,2.8-5.7,5.7-8.8,8.3c-9,7.5-16.1,16.7-23.6,25.5c-3,3.6-5.9,7.4-8.6,11.2
	c-1.2,1.8-3.3,3.5-1.6,6.1c0,1-0.6,1.6-1.3,2.1c-7.3,5.2-11.7,12.4-14.8,20.7c-1.4,3.7-1.4,3.8,2.3,5.3c0.6,0.2,1.1,0.4,1.7,0.6
	c5.5,2.3,10.8,5,16.4,6.9c1.1,0.4,2.4,0.7,2.8,2.1c5,0.9,9.8,2.3,14.6,4c13.6,5,24.6,21.9,23.3,35.7c-0.5,5.4-1.9,10.5-5.1,14.9
	c-1.2,1.7-1.1,3.9-3.1,5.2c-1.8,1.2-3.5,2.7-4.8,4.4c-2.7,3.6-6.2,4.9-10.6,6c-7.8,1.8-15.4,2.5-23.3,2.5c-6.5,0-12.3-1.9-17.8-5.4
	c-8-5.2-15.5-11.1-23.8-15.9c-4.5-2.6-4.8-6.9-5.3-11.3c-0.3-2.5-0.1-5.1-0.1-7.6c-1.1-1.5-0.2-2.8,0.3-4.1c1.3-2.7,2.7-5.4,4.2-8
	c1.7-3,4-5.1,7.7-5.3c1.6-0.1,3.1-0.7,3.6-2.5c0.5-1.7-0.3-3-1.5-4.2c-1.3-1.3-2.9-2.3-4.7-2.6c-6.6-1.2-13.2-1.8-19.8-0.1
	c-2.4,0.6-4.7,1.3-6,3.6c-1.5,2.6-0.8,4.7,2.2,5c3.5,0.4,5.7,2.3,7.3,5.2c1.5,2.8,3.4,5.3,4.9,8.1c0.8,1.5,1.8,3,0.5,4.7
	c-0.4,3.5-0.2,7-0.7,10.5c-0.5,4.4-2.8,7.1-6.1,9.3c-7.6,5.2-15.2,10.3-22.9,15.3c-5.5,3.6-11.7,5.8-18.2,4.9
	c-8.3-1.1-14.2,2.6-19.5,8.1c-2.4,2.5-4.5,5.3-7.3,7.4c-0.6-2.1,0.6-3,1.6-4c3.2-3.2,6.3-6.4,9.5-9.5c1.2-1.2,1.6-2.1-0.6-2.6
	c-2.9-0.6-5.9-1.5-8.8-2.2c-2.2,0-3.7-1.4-5.6-2.2c-13.7-6.1-18.4-18.5-22.3-31.3c-2.9-9.2-1.8-18.4,1.3-27.4c1-4.4,4-7.4,7.2-10.2
	c4-3.5,8.7-5.7,13.5-7.8c1.7-0.3,2.7,1.1,3.9,1.8c9.5,7.3,19.5,7.6,30,2.1c2.6-1.4,5.3-2.3,8-3.6c5.5-2.2,5.5-2.1,3.2-7.6
	c-3-7.4-7.4-13.7-13.9-18.5C330.7,238.5,329.7,237.9,329.8,236.6z"/>
<path class="st13" d="M39.2,692.9c0.1-0.6,0-1.4,0.3-1.7c6-6.1,11.1-13,17.9-18.2c2.7-2.1,4.9-4.7,7.4-7c1.9-1.8,0.1-3-0.8-3.9
	c-3.1-3.1-5.3-6.9-8-10.3c-2.4-3-4.3-6.4-6.4-9.7c-0.9-1.4-1.4-2.7,0.4-4c7.7-5.6,14.5-12.5,23-17c0.8-0.4,1.5-1.2,2.6-1.2
	c2.2-0.4,2.8,1.5,3.8,2.7c4,5,7.7,10.2,12.2,14.8c10.3,11.1,21.6,20.9,34.7,28.6c1.4,0.9,3,1.6,3.7,3.3c0.5,2-0.7,3.5-1.8,4.9
	c-5,6.3-11.4,11.1-17.5,16.3c-9.7,8.3-20.4,15.5-30.1,23.8c-1.7,1.4-3.1,3.5-5.8,3.2C61.7,711.2,49.6,703.2,39.2,692.9z"/>
<path class="st14" d="M74.9,717.5c6.3-5.1,12.1-10.9,18.9-15.2c7.2-4.6,13.3-10.5,19.9-15.7c5.1-4,10.3-8.1,14.1-13.5
	c0.8-1.1,1.6-2.1,1.8-3.5c1.3-1.1,2.6-0.2,3.7,0.3c7.4,3.7,15.2,6.4,22.8,9.4c4.1,1.6,4.8,3.2,3,7.2c-2,4.4-5.4,7.7-8.9,10.9
	c-2.3,2.1-2.4,3.4,0.4,5.1c5.4,3.3,11.2,5.7,17.3,7.3c5.2,1.4,5.8,3.1,2.8,7.7c-2.6,4-6.5,6.9-9.4,10.6c-1.6,2-3,3.8-1.2,6.4
	c0.6,0.9,0.5,1.9-0.7,2.4c-28.8,0.6-56-6-82-18.1C76.4,718.6,75.7,718,74.9,717.5z"/>
<path class="st15" d="M195.3,730.8c-4.1-8.2-4.8-16.4-0.3-24.7c0.6-1.2,1.4-2.3,1.2-3.7c-0.9-1.9-2.8-2.2-4.4-2.9
	c-7.5-3.2-14.2-7.4-20.3-12.6c-4.8,0.5-9.6,0.7-14.4,0.7c-0.2,0.4-0.5,0.8-0.8,1.2c-2.4,3.6-5.5,6.4-8.6,9.3c-1.8,1.7-2,2.7,0.3,4.3
	c6.4,4.4,13.4,7.1,20.8,9.1c3.4,0.9,3.4,1.2,1.6,4.3c-2.6,4.6-6.9,7.8-10.2,11.7c-2.5,3-3.8,5.1-0.6,8.2c0.2,0.2-0.2,0.9-0.3,1.3
	c4.4,0,8.8,0,13.2,0c2.6-0.5,5.3-0.6,8-0.6c5.4,0,10.9,0,16.2-1.6C197,733.2,195.9,732.1,195.3,730.8z"/>
<path class="st16" d="M125,424.7c2.4-5.8,4.2-12,7.3-17.6c3.5,0,6.9,0.9,10.3,1c1.3,0.1,2.6,0.5,3.4,1.7c0.7,1.4,0.4,2.8,0.1,4.2
	c-2.6,9.7-4.5,19.4-5.9,29.3c-2.2,21.6-2.1,43.3-1.6,65c0.2,8.9,2.2,17.8,3.1,26.7c0,4.2,2.3,8.5,0,12.7c-1.7,1.5-3.8,1.1-5.9,1.3
	c-8.4,0.8-16.8,1.2-25.2,2.2c-0.4-2.7-1-5.5-1.2-8.2c-1-18.7-1.2-37.5,1.6-56.1c3-20.7,6.9-41.2,13.9-61
	C124.9,425.7,124.9,425.2,125,424.7z"/>
<path class="st17" d="M110.5,551.5c0.1-1.7,1-2.3,2.6-2.2c9.4,0.5,18.7-2,28.1-1.5c1.8,0,1.9,1.5,2.4,2.7c1.2,3.4,2.2,6.8,3,10.3
	c3.3,13.3,7.7,26.2,13.1,38.7c0.8,1.8,2.3,4-0.1,5.9c-4.1,1.3-8.4,0.8-12.6,1.2c-7.2,0.7-14.5,0.2-21.8,0.2c-1.4,0-2.6-0.5-3.6-1.5
	c-4.8-14-7.9-28.4-10.3-42.9C110.9,558.7,110.7,555.1,110.5,551.5z"/>
<path class="st18" d="M636.3,426.9c2.7,9.5,5.7,19,7.7,28.7c2.2,10.4,3.8,20.9,5.6,31.3c2.2,12.6,2.6,25.3,3.2,37.9
	c0.5,11.6-0.3,23.2-1.6,34.8c-0.5,4.8-1.3,9.6-1.9,14.4c-1.3,1.7-3.2,2.2-5.1,2.6c-3.7,0.8-7.4,1.4-11.1,1.8
	c-6.1,0.6-11.6,2.2-15.6,7.3c-8.5,3.3-17.1,5.8-26,7.8c-10.2,2.3-20.5,4.4-31,5.5c-1.4,0.1-2.9,0.4-4.2-0.4c-1.3-1.3-0.8-2.7-0.2-4
	c2.7-6.4,4.7-13.1,7.2-19.6c9.8-21.8,14.6-45,18.4-68.5c1.8-11.4,2.5-22.8,3.5-34.3c1.2-7.8,1.8-15.5,1.5-23.4c0-1.8-0.2-3.7,1.5-5
	c10.9-1.2,21.7-1.2,32.6-0.1c3.2,0.3,4-0.8,3.5-4.1c-2.6-18.3-7.9-35.9-13.9-53.3c-2.1-6.2-1.8-6.7,4.7-6.6c3.8,6,6.6,12.5,9.4,19
	C628.8,408,631.6,417.8,636.3,426.9z"/>
<path class="st19" d="M562.1,314.8c1.5-0.2,2.5,0.8,3.6,1.4c4.3,8.5,6.6,17.6,9,26.7c0.3,1,0.3,2.1,0.5,3.2c0.1,1.6-0.1,3.2,0.4,4.8
	c0.8,5.6-1.8,10.5-3.1,15.6c-0.3,1.4-0.8,2.7-1.4,4.1c-0.5,1.1-1.3,2.1-1.5,3.4c-1.3,4.3-2.9,8.5-5.1,12.4c-1.3,2.4-0.9,3.9,0.9,5.7
	c2,2,4.6,3.6,5.6,6.5c-0.1,1-0.7,1.6-1.7,1.9c-2.9-0.3-4.5-2.7-6.5-4.3c-1.9-1.5-3-1.3-4.3,0.7c-14.9,22.5-34.1,40.6-56.5,55.4
	c-8.8,5.8-17.7,11.5-27.4,15.8c-17.7,7.7-35.6,14.6-54.8,17.4c-23.9,3.4-47.7,3.6-71.5-0.6c-0.6,0-1.2,0-1.8,0
	c-12.9-2.7-25.7-5.9-37.9-10.8c-20.2-7.1-37.4-19.4-54.4-32c-0.3-0.2-0.6-0.4-0.8-0.6c-0.8-0.9-1.6-1.6-2.6-2.2
	c-0.9-0.7-1.7-1.5-2.5-2.2c-0.9-1.3-2.4-2-3.7-2.8c-1.6-1.4-2.9-3.1-4.5-4.5c-4.4-5.1-9.4-9.5-13.8-14.6
	c-5.9-6.8-11.3-13.9-15.6-21.7c-0.4-1.3-1.2-2.4-2-3.5c-1.4-2.8-3-5.4-3.8-8.4c0-1.4-0.5-2.5-1.4-3.5c-0.8-1.1-1.2-2.4-1.5-3.7
	c0-1.5-0.6-2.9-1.1-4.3c-0.1-0.3-0.2-0.6-0.3-1c-0.3-2.3-1-4.5-2.4-6.4c-1.4-2.2-1.5-4.9-2.3-7.3c-0.4-1.5-2.5-0.9-2.9-2.4
	c2.4-13.4,5.8-26.5,11.5-38.8c0.6-1.3,1.5-2.5,2.9-3.2c2.5-0.3,2.8,1.6,3.3,3.3c0,5.7,2.8,10.7,4.9,15.7c2.6,6.2,6.4,11.9,8.7,18.3
	c1,2.8,2.4,5.2,6.1,3.6c0.8-0.3,1.7-0.2,2.3,0.6c0.7,1,0.2,1.9-0.5,2.6c-1.3,1.4-2.5,2.6-1.4,4.7c1.6,2.9,3,5.9,5.8,7.7
	c1.1,0.6,2.3-0.5,3.3-1.1c1.5-1,2.8-2.4,4.7-2.5c0.4,0,0.7,0.1,1.1,0.3c1.5,2.2-0.2,3.3-1.6,4.5c-4.2,3.7-4.4,4.2-0.6,8.6
	c8,9.1,17.4,16.4,27.3,23.4c14.7,10.4,31.3,16.3,48.3,21.5c18.4,5.7,37.1,8.7,56.5,9c26.4,0.5,52.5-1.5,78-8.9
	c22.7-6.6,44.3-15.9,62.6-31.4c5-4.2,9.8-8.7,14.1-13.6c3.2-3.7,3.3-4.1-0.5-7.4c-0.6-0.5-1-1.1-1.3-1.7
	c-8.6-5.8-17.7-10.6-26.9-15.3c-1.3-0.6-2.5-1.4-3.7-2.2c-0.4-0.5-0.5-1,0-1.5c11.6,4.6,22,11.5,32.8,17.5c0.6,0.3,1.2,0.2,1.8,0.4
	c4.9,1.9,5,1.9,7.6-2.5c1.8-3,3.8-5.9,3.8-9.7c-1.1-2.2-3.6-2.7-5.1-4.4c0-1.3,0.6-1.2,1.5-0.7c2.3,0.4,3.7,3.6,6.5,2.2
	c1.2-1.6,1.7-3.5,2.9-5.1c2.9-6.6,6-13.2,8.8-19.9C560.1,323.1,561.2,319,562.1,314.8z"/>
<path class="st9" d="M528.5,368c0.2,0,0.5,0,0.7,0.1c6.6,3.2,7,4.5,2.2,9.8c-13.3,14.8-29.3,25.9-47.2,34.4
	c-3.8,1.8-7.8,3.3-11.8,4.8c-12.6,4.6-25.4,9-38.7,11.1c-9.3,1.4-18.6,2.9-28,3.4c-7.3,0.4-14.7,1-22,0.9c-7.5,0-15.2-0.1-22.8-0.9
	c-7.2-0.7-14.4-1.5-21.5-3c-16.4-3.6-32.3-8.5-47.8-14.9c-10.2-4.3-19.5-10.3-28.3-17c-6.7-5-13-10.4-18.8-16.5
	c-1.7-1.8-3-3.8-4.5-5.6c-1.9-2.3-1.2-3.9,1-5.4c1.1-0.7,2.3-1.4,3.3-2.2c0.8-0.6,2.1-1.2,0.9-2.6c-0.3-2.2,1.5-2.9,2.8-3.7
	c5.2-3.4,10.6-6.3,16.2-9c7.2-3.5,14.3-7.2,21.2-11.1c4.5-2.6,4.7-3.7,1.7-7.9c-8-11.4-11.9-23.9-11.1-37.9c0.2-3.3,1-6.4,2.2-9.5
	c0.5-1.2,0.9-2.6,2.7-2.5c-1.1,5.4-3.3,10.6-2.9,16.3c1.1,14.4,5.5,27.5,16.5,37.5c3.4,3.1,7.9,5,11.9,7.4
	c-7.3,3.4-12.9,9.3-20.2,14.1c1.5-3.6,4.2-4.8,6.3-6.6c2.1-1.8,4.5-3.2,6.7-4.9c2.2-1.8,2.8-3-0.3-5c-3.4-2.2-6.3-1.9-9.5-0.2
	c-13.1,7.5-26.3,15-39.4,22.6c-3.9,2.3-3.9,2.5-0.4,5.3c7.9,6.4,15.7,12.9,24.5,18c3.5,2,4.3,1.7,5.9-2c0.8-1.9,1.6-3.8,2.3-5.7
	c0.7-1.8,0.5-4.7,4-3.2c0.4,0.2,1.5-1.1,2.2-1.7c1.1-1,2-2.1,3.5-2.4c1.2-0.3,2.9-1.3,3.3,0.7c0.3,1.6,1.4,4-1.4,4.9
	c-1.2,0.4-2.2,0.8-2.8,2c-0.5,1-0.9,2-0.3,3.1c0.6,1.2,1.8,1.2,2.9,1c1-0.1,2-0.2,2.8-0.7c4.9-2.7,9.4-1.3,13.7,1.3
	c1.2,0.7,2.3,1.1,3.3,0.2c2.8-2.5,5.1-0.3,6.5,1.3c1.4,1.5,0.6,4.1-0.8,5.9c-1.3,1.8-2.4,3.7-3.9,5.2c-2.5,2.6-0.8,4.1,1.4,4.8
	c2.9,0.9,5.2,2.4,7.4,4.3c2.6,2.2,6.1,2.2,9.3,2.8c16.2,3.4,32.6,5.9,49.2,5.4c22.8-0.6,45.3-2.9,67.4-8.8
	c16.7-4.5,33.5-8.5,48.9-17c9.9-5.5,19.2-11.8,28-18.8C527.6,369.4,528,368.6,528.5,368z"/>
<path class="st20" d="M417,266.3c-6.9-2.4-6.9-2.4-3.9-9.2c3.6-8.3,8-16,16.4-20.4c6.9-2.5,13.9-3.6,21.2-1.3
	c6.6,2.1,10.6,6.7,13.1,12.9c0.6,4.3,0.1,8.4-1.4,12.4c-0.5,0.6-1,1.2-1.4,1.8c-2.8,0.1-4.5-2.1-6.8-3.2c-4.3-2-4.8-1.9-6.7,2.4
	c-0.2,0.4-0.4,0.9-0.6,1.3c-3.5,7-8.3,7.5-12.9,1.1c-2.5-3.5-2.2-4.1-7.8-2.2C423,263.1,420.2,265,417,266.3z"/>
<path class="st21" d="M379.4,306.6c-0.6-3.6-3-6.3-4.8-9.3c-0.8-1.4-1.9-2.6-2.5-4c-0.9-2.2-2.3-3.2-4.7-3.2c-2.2,0-4.8-0.1-5.2-2.8
	c-0.4-2.7,0.7-5.2,3.3-6.8c3.2-2,6.8-2.3,10.4-2.7c4.8-0.6,9.7,0.2,14.4,0.8c2.4,0.3,4.4,1.7,6.2,3.5c1.6,1.7,2.1,3.6,1.5,5.6
	c-0.7,2.3-2.8,3.2-4.9,3c-3.4-0.3-5,1.4-6.5,4.1c-2.2,3.9-4.6,7.7-6,11.9C380.3,306.7,379.8,306.7,379.4,306.6z"/>
<path class="st22" d="M417,266.3c-0.2-1.2,0.6-1.7,1.5-2.2c2.2-1.1,4.3-2.3,6.5-3.2c6-2.4,6.1-2.3,9.9,2.8c4.1,5.5,7.7,5.2,10.7-1
	c0.4-0.8,0.8-1.5,1.1-2.3c2-5,2-5,7-2.8c2.7,1.2,5.1,2.8,7.2,4.8c-4.2,7-10.7,10.2-18.5,11.5c-1.9,0.3-3.8,0.1-5.7,0.2
	C429.7,272.7,423.5,269.2,417,266.3z"/>
<path class="st9" d="M543.8,354.9c1.8,0.9,1.5,2.2,0.7,3.7c-1.5,3-3,6.1-4.9,8.9c-2.3,3.3-3,3.4-6.4,1.2c-0.9-0.6-2-1-2.5-2.1
	C535.6,363.2,539.3,358.6,543.8,354.9z"/>
<path class="st9" d="M540.2,349.7c-0.5,0.2-1,0.5-1.5,0.7c-4.8-1.8-9-4.7-13.3-7.3c-3.1-1.9-6.7-3.3-9.2-6.3
	C524.6,340.5,532.9,344.1,540.2,349.7z"/>
<path class="st9" d="M498,349c0,0.5,0,1,0,1.5c-3.3-1.8-7-3-9.5-6.1C491.8,345.5,495.1,346.9,498,349z"/>
<path class="st9" d="M549.7,346.8c-0.5,2-1.1,3.9-2.9,5.1C547.3,350,547.9,348.1,549.7,346.8z"/>
<path class="st7" d="M475.5,161.6c-13.6,11.6-27,23.5-37.1,38.4C447.2,183.9,460.1,171.6,475.5,161.6z"/>
<path class="st23" d="M475.4,467c9.9-5.8,19.9-11.5,29.4-17.9c13.7-9.2,25.9-20.3,37.1-32.4c6.1-6.6,11.8-13.8,16.4-21.6
	c1.3-2.2,2.4-2.7,4.4-0.7c2,2.1,4.4,3.8,6.6,5.6c3,0.1,4.2,2.8,6,4.1c-1.5-1.6-3.8-2.9-4.6-5.5c-2.8-2.7-6.4-4.9-8.1-8.2
	c-1.8-3.6,2.8-6.5,3.5-10.2c0.4-2.2,1.6-4.3,2.4-6.4c3.2-1.2,3.1,2.7,4.9,3.1c-1.1-1.8-4.2-2.8-3.5-6c1.6-6.8,4.3-13.4,5.2-20.4
	c0.2-0.4,0.4-0.4,0.7,0c2.9,7.3,3.6,15,4.9,22.6c1.4,7.5,3,14.9,4.1,22.4c0.6,4.2,0.8,8.4,1.2,12.6c0.7,7.8,1.5,15.6,2,23.4
	c0.3,4.1,0.2,8.2,0.2,12.3c0.2,9.7-0.1,19.4-1.5,29.1c-4.3,6.8-7.8,14.2-12.7,20.7c-9.4,12.6-21.8,21.9-34.3,31.1
	c-20.9,15.4-45.4,22.5-69.4,30.8c-1.7,0.6-3.5,1.1-5.2,1.5c-17,4.7-34.3,7.2-51.8,9.1c-12.4,1.3-24.9,1.5-37.4,1.5
	c-4.1,0-8.2-0.8-12.3-0.9c-1.2,0-2.4-0.4-3.3-1.3c-1.6-3.7-0.9-5.3,2.9-5.8c2.1-0.2,4-0.8,5.6-2.3c4.5-4.3,7.3-4.5,12.4-0.7
	c2.7,2,5.2,1.7,7.8,0.2c3.5-2.1,5.1-5,4.5-8c-0.4-2.1-1.2-2.5-2.8-1c-0.7,0.7-1.5,1.3-2.4,1.6c-2.6,0.9-4.8-0.7-4.4-3.4
	c0.4-2.6,1.4-5.1,4-6.1c4.9-1.9,5.2-5.9,5-10.2c0-1.3-0.3-2.6-0.3-4c0.1-5.5,2.7-8.3,8.2-8.3c9.1,0,18.2-0.4,27.1-2.2
	c1.7-0.3,3.3-0.7,5-1.2c8.6-2.5,10.1-4.6,10.6-13.6c0.2-4.2,0.8-8.4,1.3-12.7c0.8-6.5,4.1-10.5,10.5-12.5
	C462.2,473.2,468.9,470.3,475.4,467z"/>
<path class="st9" d="M575.8,350.4c-0.2,0-0.5,0-0.7,0c-0.9-1.5-0.9-2.9,0-4.4C576.3,347.4,575.7,349,575.8,350.4z"/>
<path class="st4" d="M281,282.8c-2.3,3.3-3.3,7.1-3.6,10.9c-1,14.4,2.8,27.4,11.5,39c3.1,4.1,3,5.4-1.4,8
	c-9.4,5.7-19.5,10.2-29.2,15.4c-4.6,2.4-9.3,4.7-13.1,8.3c-0.2,0-0.5,0-0.7,0c-5.3-1-8.4-5.1-11.1-9.1c-1.6-2.3,0.8-4,2.7-5.1
	c6.6-3.6,13.2-7.2,19.9-10.5c0.8-0.4,1.6-0.8,2.4-1.2c-7.6,3.7-15.2,7.5-22.7,11.4c-4.2,2.2-6.2,1.7-9.5-2.1
	c-5.7-6.6-9.6-14.2-13-22.1c-1.5-3.5-2.8-7.2-3.7-10.9c-0.1-1.6-0.2-3.2-2.2-3.6c-0.6,0.4-0.7-0.1-0.7-0.5c4.8-2.8,3.7-7.7,4.3-11.9
	c2.4-18.5,5.9-36.8,13.1-54.2c0.2-0.4,0.4-0.8,0.7-1.2c7.8-0.7,15.6-1.4,23.4-1.4c12.5,0.1,24.8,1.4,37,3.5c2.4,0.4,4.8,0.6,7.1,1
	c1.5,0.3,3.2,0.1,4,1.9c1.4,5.6,2.6,11.3,4.3,16.9c-0.2,1.7-1.6,1.9-2.8,2.4c-6.2,2.6-11.5,6.4-15.4,12
	C281.8,280.5,281.1,281.5,281,282.8z"/>
<path class="st24" d="M206.7,310.7c0.2,0.2,0.5,0.3,0.7,0.5c-6.2,11.7-9.5,24.3-12.2,37.1c-0.4,1.8-1.3,3.3-1.8,5.1
	c0,1.2-1,1.9-1.8,2.6c-8.1,6.5-14.7,14.3-20.8,22.5c-0.7,1-1.6,1.8-2.8,2.2c-0.8,0.5-1.6,1-2.5,1.4c-3.7,1.5-5.8-0.1-5.3-4
	c0.2-1.1,0.2-2.1-0.1-3.2c-0.3-2.5,1.1-4.4,2.1-6.5c1.7-3.5,3.2-7.1,5.3-10.3c1.6-2.6,1.6-4.2-1.6-4.9c-0.6-0.1-1-0.6-1.3-1.2
	C176.3,335.8,190.3,322,206.7,310.7z"/>
<path class="st25" d="M164.6,352c7.1,1.1,7,1,3.8,7c-2.7,5.1-5.5,10.1-7.6,15.5c0.1,1.4-0.3,2.6-0.8,3.9
	c-4.4,9.3-8.1,18.9-11.7,28.5c-0.5,1.3-0.5,3.2-2.7,3.3c-3.3-1.3-6.9-0.5-10.4-1.4c-1.2-0.3-2.5-0.1-2.9-1.6
	c5.3-13.3,12.1-25.8,19.8-37.9C155.9,363.3,159.9,357.4,164.6,352z"/>
<path class="st26" d="M300.7,265.2c-3.7-5-5.7-10.5-4.3-16.9c4.7-10.1,12.7-14.8,23.7-14.4c3.5,0.1,6.5,1.5,9.7,2.7
	c10.1,5.4,14.6,14.9,18.7,24.9c0.7,1.8,0.2,3-1.7,3.5c-1.3,0.3-2.6,0.6-3.8,0.9c-3.7-1.1-7.1-2.9-10.7-4.4c-1.9-0.8-3.2-0.4-4.2,1.3
	c-0.6,1.1-1.2,2.1-2.1,3c-2.5,2.6-5.7,2.6-8.3,0.1c-0.6-0.6-1.2-1.2-1.6-2c-1.4-2.8-3.2-2.6-5.6-1.1c-2.3,1.5-4.5,3.2-6.7,4.8
	C302.8,266.8,301.7,266,300.7,265.2z"/>
<path class="st27" d="M303.8,267.6c0.2-1.6,0.9-2.9,2.4-3.7c2.1-1.2,4.2-2.3,6.2-3.6c1.7-1.1,2.6-0.8,3.3,0.9c0,0.1,0.1,0.2,0.2,0.3
	c4,7.7,8.3,7.2,11.7-0.2c1-2.2,2.2-2.4,4.3-1.3c2.6,1.3,5.4,2.2,7.9,3.4c1.2,0.6,3,0.7,3.1,2.6c-6.1,3.6-12.5,6.8-19.5,7.9
	C316.1,275,309.4,272.5,303.8,267.6z"/>
<path class="st28" d="M328.3,745c-9.5,0.9-18.9,1-28.4,0.1c-2.3-0.9-2.6-3-2.7-5.1c-0.2-3,0.2-6-0.3-9.7c-1.6,3.7-2.1,7-2.8,10.2
	c-0.3,1.4-0.1,2.9-1.5,3.9c-7.3,0-13.9-1.4-18.1-8.2c-2.1-1.1-2.6-3-2.9-5.1c-0.9-6.8-1-13.5-0.7-20.3c0.8-6.7,4.8-11.4,10.4-14.5
	c22.1-11.9,43.9-10.8,65.1,2.2c4.4,2.7,8.3,6.5,12.5,9.7c2.4,8,1.9,15.9-0.2,23.8c-0.4,1.5-1.1,3-2.8,3.5c-4.5,7.3-12,8-19.5,8.7
	c-1.8-1.5-1.4-3.8-1.8-5.7c-0.4-2.2-0.2-4.6-1.2-7.5c-0.8,3.3-1.2,6-1.8,8.7C331.1,741.8,330.8,744.1,328.3,745z"/>
<path class="st29" d="M196.6,734.8c-7-8-8-21.1-2.3-30.1c0.5-0.8,1-1.7,1.4-2.5c3.5-3.7,7.4-6.8,12.1-8.8c2.7-1.1,5.3-2.2,8-3.4
	c2.9-1.3,4.6-3.7,6.2-6.3c1-0.5,1.9-0.3,2.7,0.3c7.5,5.5,16,9.3,23.6,14.6c0.8,0.5,1.6,1.1,2.2,1.8c7.5,8.9,8.8,18.7,4.4,29.4
	c-1,2.4-2,5-5.2,5.4c-4.3,2.5-9,3.2-13.9,3.5c-5.6,0.3-11.1,1.2-16.7,0.8C211.4,738.8,203.7,738.5,196.6,734.8z"/>
<path class="st30" d="M249.7,735.1c7.8-8.1,8.6-21.4,2-31.3c-0.7-1.1-1.5-2.1-2.3-3.2c1-0.9,2.1-0.6,3.1-0.1
	c6.2,3,12.4,6.1,18.9,8.4c0.4,0.4,0.6,1,0.7,1.5c-0.4,7.2,0.3,14.4,0.9,21.6c0.1,1.6,1.4,2.7,1.5,4.2
	C266.2,736.8,258,735.9,249.7,735.1z"/>
<path class="st31" d="M292.6,744.4c-0.1-5,1-9.8,2.8-14.4c0.4-1,0.6-2.7,2.2-2.4c1.3,0.3,0.8,1.8,0.8,2.9c0.1,3,0.1,6,0,9
	c0,2,0.4,3.8,1.5,5.5C297.5,744.9,295,745.4,292.6,744.4z"/>
<path class="st32" d="M328.3,745c2.9-4.2,2.3-9.3,3.6-13.9c0.3-1.1,0.2-2.4,1.8-3.4c2.2,5.4,2.2,11,2.7,16.5
	C333.8,745.3,331,745.3,328.3,745z"/>
<path class="st33" d="M222.1,683.8c1,4-2.5,5.1-4.8,6.7c-2.2,1.6-4.9,2.5-7.5,3.4c-4.1,1.4-7.5,3.7-10.6,6.7c-1,1-2,1.7-3.5,1.7
	c-14.4-4.8-26-13.8-35.9-25c-7-7.9-13.3-16.3-18.6-25.4c1.2-2.5,3.6-2.1,5.7-2.1c13.2,0.1,26.3-1,39.5-1c2.6,0,4.2,1.7,5.7,3.5
	c8.6,10.4,17.8,20.1,28.3,28.6C221.4,681.6,222.4,682.4,222.1,683.8z"/>
<path class="st34" d="M187.9,649.7c-1.5,0.4-3,0.8-4.6,0.8c-12.7,0.2-25.4,0.5-38.1,0.7c-1.3,0-2.7,0-3.9,0.7
	c-3.7-4.1-4.9-9.6-8.1-14c-3.5-9.2-7.3-18.3-10.3-27.7c-0.5-1.6-1.3-3.1-1.3-4.9c12.9,0.4,25.7-0.3,38.6-0.7c1.9-0.2,2.4,1.4,3,2.6
	c6.8,13.4,14.4,26.3,23.7,38.2C187.7,646.6,188.9,647.9,187.9,649.7z"/>
<path class="st35" d="M140.5,535.4c-1.3-4.9-1.4-10-2.2-15c-2.5-15.9-1.7-31.9-1.3-47.8c0.2-8.9,0-17.9,1.3-26.7
	c0.1-0.9,0.5-1.9,0.7-2.8c1.5-1.1,3-0.5,4.5-0.1c8.2,2.1,16.2,4.5,24.5,6.2c4,1.6,8.4,1.8,12.5,3c1.4,0.4,2.8,0.8,4,1.4
	c0.4,0.1,0.7,0.3,1.1,0.5c0.3,0.3,0.5,0.6,0.7,0.9c0.4,1.7,0.5,3.5,1.1,5.2c0.4,3.2,0.3,6.5,0.8,9.8c0.5,9.2,2.3,18.2,3.5,27.3
	c1.4,9.8,3.5,19.6,5.8,29.2c0.6,2.4,1.6,4.9-0.3,7.3c-1.4,1.2-3,1.6-4.7,1.6c-15.5-0.4-30.9,0.5-46.3,1.5
	C144.2,537,142.1,537.1,140.5,535.4z"/>
<path class="st36" d="M140.5,535.4c17.6-0.2,35.1-2.3,52.6-1.5c1.4,0.1,2.9-0.4,4.3-0.7c1.9,0.2,2.2,1.8,2.5,3.1
	c3.1,12.4,7.3,24.5,11.5,36.5c2,4.9,3.8,9.8,5.5,14.8c0.5,1.5,1.2,2.9,0.3,4.5c-1.3,0.9-2.5,0.2-3.8-0.3c-13-4.9-26.1-9.8-39-15
	c-9.2-3.8-18-8.4-26.4-13.8c-0.9-0.6-1.6-1.4-2.4-2.2c-1.5-4.4-2.9-8.7-4.4-13.1C141.7,543.6,140.1,539.6,140.5,535.4z"/>
<path class="st37" d="M168,450.3c-9.9-1.5-19.3-4.7-29-7.2c0.6-8.7,2.7-17.1,4.6-25.6c0.6-2.5,1.2-4.9,1.8-7.4
	c4.3-10.8,8.1-21.8,13.3-32.3c0.6-1.2,1.3-2.3,2-3.4c1.1,1.1,0.9,2.5,0.6,3.7c-0.2,1.2-0.9,2.4,0.5,3.2c1.2,0.7,2.3,0.1,3.3-0.6
	c0.9-0.6,1.9-1.1,3-1.1c1.4,0.1,1.9-1.1,2.7-1.9c0.8-0.7,1.6-0.9,2.2,0.3c0.1,0.5,0.3,1,0.1,1.4c-4,5.8-1.9,12.9-3.9,19
	c-2.1,6.7-2.3,13.8-5,20.3c-1.6,3.8-1.8,8-2.1,12.1c-0.1,2.5,0.9,3,3.1,2.1c1.7-0.7,3.1-1.9,4.8-2.5c2.7-0.9,4.1-0.2,4.3,2.6
	c0.3,3.9,0.8,7.7,1.3,11.5C176.4,449.4,174,451,168,450.3z"/>
<path class="st38" d="M145.6,560.9c4.7,0.9,8,4.4,12,6.5c15.9,8.4,32.6,14.5,49.4,20.5c3.4,1.2,6.7,2.8,10,4.3
	c1.7,0.1,2.1,1.5,2.6,2.7c12.3,29.6,29.1,56.9,42.6,85.9c3.6,7.8,6.5,15.9,9.4,24c0.6,1.6,0.9,3.3-0.2,4.9
	c-6.5-1.4-12.4-4.6-18.3-7.5c-1.2-0.6-2.4-1-3.6-1.6c-9.1-5.6-18.2-11.2-27.3-16.8c-9-7.3-17.4-15.2-25.1-23.9
	c-3-3.4-5.5-7.4-9.1-10.2c-2.8-5.4-6.9-9.8-10.3-14.8c-5.6-8.4-10.5-17.3-15.1-26.3c-0.7-1.4-1.6-2.7-2.3-4
	c-4.3-11.1-9-22.1-12.2-33.5C146.9,567.7,145.8,564.4,145.6,560.9z"/>
<path class="st39" d="M626,649.6c-0.8,0.2-1.7,0.1-2.2,0.9c-1.3,0.9-2.7,1.5-4.4,1.5c-11.9,0-23.7,0-35.6,0c-0.9,0-1.7-0.1-2.5-0.4
	c-2.9-1.6-1.3-3.4,0-5c4.8-5.7,9.8-11.4,13.7-17.8c7.7-12.5,14.8-25.2,19.5-39.2c0.6-1.7,1.2-3.4,2.7-4.6c1.7-5,6.2-6.3,10.5-7.1
	c7.2-1.3,14.4-2,21.5-3.9c-1.5,7.9-2.7,15.9-4.7,23.7c-2.2,9-5,17.8-8.2,26.5c-2.7,7.3-5.6,14.6-9.5,21.3
	C626.2,646.8,625.1,648,626,649.6z"/>
<path class="st40" d="M413.7,708.7c-0.1-0.2-0.1-0.5-0.2-0.7c-0.8-1.2-0.8-2.5-0.7-3.9c1.3-13.8,3-27.4,6.5-40.9
	c0.3-1.1,0.8-2,1.1-3.1c2.1-9.2,5.1-18.1,9.2-26.6c0.8-1.7,1.6-3.6,3.6-4.4c5.5-0.9,11.1-0.6,16.6-0.1c1.1,0.1,2.2,0.3,3.2,0.3
	c5.7-0.1,6.4-0.6,8.4-6c3-7.9,5.4-16.1,9.1-23.7c1.2-2.4,2.3-4.8,3.6-7.1c2.4-4.2,5.9-6.3,10.6-7.4c14.9-3.7,30-5.4,45.1-7.6
	c9.7-1.4,19.3-3.2,29-4.4c2-0.2,5-1.7,5.3,2.4c-2.1,7.7-5.5,15-8,22.6c0.8,2.2-0.5,4-1.3,5.8c-6.6,14.1-14.4,27.5-21.5,41.3
	c-3.7,7.2-7.8,14.3-11.3,21.6c-8,13-14,26.9-19.7,40.9c-0.5,0.9-1.3,1.4-2.3,1.4c-1.6-0.4-2.2-1.8-2.9-3c-2.2-3.9-5.5-6.7-9.5-8.7
	c-23-11.7-50.1-7.1-68.2,9.1C417.8,707.8,416.3,709.7,413.7,708.7z"/>
<path class="st41" d="M564.3,575.5c-0.9-2.3-2.8-1.5-4.3-1.2c-7.3,1.2-14.5,3.3-21.8,3.8c-10.1,0.6-19.8,3.2-29.8,4.1
	c-9.1,0.8-18,3.4-27,5.2c-1.7,0.4-3.1,1.7-4.2,3.3c-4.5,6.4-7.2,13.7-10,20.9c-2,5.2-3.8,10.5-5.5,15.8c-0.6,1.8-1.5,2.6-3.6,2.9
	c-8.3,0.9-16.6-0.6-25-0.2c-1.6-2.6,0.4-4.3,1.5-6.3c14-19.3,23.5-40.7,29.2-63.8c0.4-1.6,0.9-3,2.1-4.1c6.8-2.4,13.7-4.9,20.6-7.1
	c22.6-7.4,43.7-17.4,62.6-32.3c13.8-10.9,25.4-23.4,33.6-39c1-1.9,2.3-3.4,4.1-4.5c-1.4,4.2-0.9,8.7-1.2,12.9
	c-0.8,11.7-2.6,23.3-4.7,34.7c-2.7,14.7-6.4,29.3-11.4,43.4C568,567.9,566.6,571.9,564.3,575.5z"/>
<path class="st42" d="M521.3,666.4c4.9-11.4,11.4-22.1,17.1-33.2c6-11.7,12.5-23.2,17.9-35.2c16.1-1.8,32-4.6,47.5-9.3
	c4.5-1.4,9-2.9,13.6-3.8c-3.3,12.3-9.3,23.3-15.2,34.5c-5.7,10.7-13,20.4-21.2,29.3c-0.4,0.4-0.5,1.1-0.8,1.6c-2,4.6-5.5,7.8-10,9.9
	c-11.7,3.7-23.6,6-35.6,8.3c-3.2,0.6-6.5,1-9.7,0.6C523.2,669,521.3,668.9,521.3,666.4z"/>
<path class="st43" d="M187,469.9c-1.1-3.3-0.7-6.7-0.8-10c-0.8-1.7,0.3-3.6-0.7-5.2l-0.1,0.1c-1.4-2.2-1.7-4.7-1.7-7.2
	c-0.1-9.1,0.2-18.3-0.1-27.4c-0.3-2.2-0.4-4.3,0.4-6.4c2.8-1.9,4.6-1.4,6.5,2c2.5,4.4,4.2,9.2,6.7,13.7
	c8.1,14.3,18.5,26.5,30.6,37.5c21.3,19.4,46.9,30.7,73.4,40.6c2.3,0.8,3,0.1,3.2-2.2c0.5-8.8,0.9-17.7,1.5-26.5
	c0.1-2.3-0.1-4.7,2.7-5.8c11.8,4.3,23.9,7.7,36.2,10.2c0.6,0.1,1.1,0.4,1.7,0.7c1.2,0.7,1.6,1.6,1.4,3c-1.3,9.7-1.3,19.5-2.1,29.2
	c-1.1,12.8-0.8,25.6-0.8,38.5c0,2.9,0.6,5.9-1.5,8.4c-0.8,0.9-1.9,1-3,0.8c-11.4-1.5-22.8-2.8-33.6-6.8
	c-18.2-5.3-35.8-11.8-52.3-21.4c-14.8-8.6-28.9-18.2-41.5-29.8c-10-9.2-17.7-20.2-24.5-31.9C187.8,472.7,188,471,187,469.9z"/>
<path class="st44" d="M475.4,467c-0.5,1.1-1.5,1.6-2.5,2c-4.8,2-9.5,4.3-14.4,5.9c-11.3,3.7-11.7,7.3-12.9,17.6
	c-0.4,4.1-0.9,8.1-0.9,12.3c0,4.5-2.7,7.3-6.7,9c-6.1,2.5-12.5,3.6-19,4.3c-6.7,0.7-13.5,0.8-20.3,0.8c-2.8,0-4.7,2.5-4.8,6.1
	c-0.1,3.3,0.8,6.6,0.1,10.1c-0.5,2.8-1.7,4.6-4.1,5.3c-3,0.9-4.1,3-4.9,5.7c-0.3,0.9-0.6,1.6,0.3,2.3c0.8,0.6,1.6,0.9,2.6,0.2
	c1-0.7,1.9-1.4,2.6-2.4c0.7-1,1.8-1.8,3.1-1.5c1.4,0.4,0.6,1.9,1,2.8c2,5.3-1.6,8.2-5.1,10.8c-3,2.3-6.9,1.7-9.7-1.1
	c-2.8-2.8-7.7-2.6-9.7,0.7c-1.5,2.4-3.8,3.3-6.1,3.1c-3.4-0.4-4.1,0.9-3.7,3.8c-1.1,1.2-2.3,1.1-3.6,0.6c-1.7-1.8-3.5-3.2-5.9-4
	c-3-1-4.8-3.4-4.9-6.6c-0.4-9.4-1.5-18.7-0.5-28.1c0.7-6.8,1.9-13.5,1.4-20.4c-0.6-7.4,1-14.8,1.3-22.3c8.2,0.8,16.3,1.6,24.5,2.4
	c8.2,0.8,16.4,0.7,24.6,0c6.1-0.5,12.3-0.9,18.4-1.6c17.7-2.1,34.4-7.4,50.9-14.1C469.3,469.3,472,467.2,475.4,467z"/>
<path class="st44" d="M308.7,472.9c-0.9,1.6-1.4,3.2-1.5,5.1c-0.4,9.6-0.9,19.3-1.4,28.9c-0.2,2.8-0.9,3.2-3.8,2.1
	c-6.4-2.4-13-4.6-19.3-7.5c-13.1-6-26.2-11.9-38.2-20.1c-6.3-4.3-12-9.3-17.8-14.3c-6.8-5.9-12.9-12.4-18.4-19.4
	c-6.4-8.3-12.2-17.1-16.5-26.8c-1.4-3.2-1.9-7.7-6.9-7.8c-0.8-0.9-0.4-1.8,0-2.7c0.6-0.9,1.7-1.4,1.7-2.7c0-4.1,2.5-6,6.1-6.8
	c2.2-0.5,3.7-2.9,6.3-2.1c1.5,1.6,0,2.4-0.9,3.1c-1.1,0.9-2.4,1.6-3.1,2.4c1.6-1.7,4.1-2.9,5.8-5.1c0.7-0.9,1.9-1.5,3.2-0.6
	c0.9,2.6-0.5,4.2-2.5,5.4c-2.9,1.8-5.6,3.9-8.3,6c-1.3,1-1.6,2-1.1,3.4c2.1,6.2,4.4,12.3,8.2,17.7c2.8,3.9,5,8.2,8,12
	c4.7,6.1,10,11.5,15.7,16.6c1.5,1.4,2.6,3.1,4,4.6c-1.3-1.4-2.5-3-3.1-4.8c-0.8-2.5,0.7-4,3.2-3.3c5,1.3,7.9-0.7,9.7-5.5
	c1.6-4.5,4.2-6.7,8.7-5.4c3.7,1.1,7.1,2,10,4.8c1.7,1.7,4,2.1,6.8,1.5c-2.5-2.8-5.9-4.2-8.1-6.8c-0.9-1.1-2.6-2-1.5-4
	c5,3.5,10,7.1,15.1,10.5c11.6,8,23.3,15.8,36.9,20.3C307,471.9,307.8,472.4,308.7,472.9z"/>
<path class="st45" d="M254.1,440.8c0.8,2.9,3.5,4.1,5.5,5.9c1.9,1.8,4.2,3.2,6.4,4.8c-3.3,2.4-6.8,2.7-9.5-0.1
	c-3.3-3.4-7.5-4.1-11.6-5.2c-2.2-0.6-6.2,3.1-5.9,5.6c0.3,3.2-1.2,4.6-4.1,5.1c-2.6,0.5-5.2,3.2-7.8-0.1c-0.3-0.4-0.9,0.1-1.1,0.5
	c-0.4,1-0.3,1.9,0.4,2.7c1.6,2.1,3.1,4.3,4.9,6.6c-1.9,0.1-2.8-0.9-3.7-1.8c-8.5-7.7-17-15.6-23.4-25.2c-5.1-7.7-10-15.6-12.7-24.7
	c-1-3.2-1.2-4.9,2.1-6.7c2.8-1.5,5-4,8-5.4c1.9-0.9,1.8-2.7,2.3-4.3c0.7-3.7,4.7-6.6,8-5.8c3.3,6,7.2,11.7,11.5,17
	c1.3,1.6,2.5,3.2,3.8,4.8c3.6,5.8,8.5,10.3,13.8,14.6c1.5,1.5,2.9,2.9,4.4,4.4c0.8,1.4,2.3,2,3.6,2.9c1,0.5,1.7,1.2,2.2,2.2
	C252,439.4,253.1,440,254.1,440.8L254.1,440.8z"/>
<path class="st45" d="M199.4,399.3c-3.6,0.9-6.5,3.4-10.1,4.3c-1.2,0.3-1.4,2.4-1.5,3.9c-0.1,1.6-0.8,2.7-2.2,3.5
	c-2-1.8-1.5-4.2-1.4-6.4c1.2-15.6,3.3-31.1,6.9-46.4c1.6-3.6,2.9-4.4,6.1-3.9c0.6,2.7,0.5,5.6,2.2,8c0.7,2.4,1.5,4.8,2.2,7.3l0,0
	c0.6,1.4,0.6,3,1.5,4.4c0.3,1.3,0.5,2.6,1.4,3.6c0.7,1.1,0.8,2.5,1.5,3.6c1.2,2.9,2.4,5.8,3.7,8.7c0.1,0.2,0.2,0.5,0.1,0.7
	C207.4,394.6,203.8,397.4,199.4,399.3z"/>
<path class="st9" d="M209.6,314.8c2.4,5.5,4.6,11.1,7.2,16.6c2.9,6.2,7,11.5,11.4,16.7c1.7,2,3.7,2.7,6.6,1
	c8.3-4.8,16.9-8.9,25.8-12.5c0.5-0.2,1.1-0.3,1.7-0.5c0.2,2-1.3,2.1-2.3,2.6c-7.6,4.1-15.2,8.1-22.7,12.1c-4.4,2.4-4.4,2.7-0.9,6.4
	c2.5,2.6,5.4,4.8,8.2,7.1c-2,1.4-4.1,2.9-6.1,4.3c-1.4,1-2.5,0.7-3.4-0.5c-1.9-2.6-3.9-5.2-5.4-8.1c-1.2-2.4-1.1-4.1,1.4-5.3
	c0.7-0.4,1.5-0.8,1.4-1.9c-0.7-0.8-1.3-0.2-2,0.1c-3.8,1.6-4.9,1.5-6.4-2.4c-2.3-5.9-5.2-11.4-7.9-17c-2.4-5.1-5-10.2-6.2-15.8
	C209.8,316.7,209.8,315.7,209.6,314.8z"/>
<path class="st23" d="M348,483.8c2,5.6-0.6,11.3-0.1,16.9c0.3,3.4-0.7,7,1.2,10.3c0.2,0.4,0.3,1,0.1,1.4c-3.2,6.8-1.4,14.4-3.3,21.4
	c-0.3,1.1,0,2.4,0.2,3.6c0.7,3.3,1.5,6.5,0.5,10c-0.8,3,0.2,6,0.8,9c0.5,2.1,2.2,3.7,4.7,3.9c2.7,0.2,4.2,1.7,4.6,4.3
	c-3.3,1.9-10.4,1.1-13.9-1.5c0.6-1.9,0.8-3.8,0.7-5.7c0-7.6-0.3-15.3,0-22.9c0.6-13.7,1-27.4,2.7-41.1c0.4-3.1,1.2-6.4,0.2-9.6
	C347,483.8,347.5,483.8,348,483.8z"/>
<path class="st9" d="M197.3,354.1c-2.6-0.1-3.7,1.9-5.1,3.5c-0.6,1.3-1.5,2.4-2.6,3.4c-4.4,4.3-9,8.4-12.9,13.2
	c-1.1,1.4-2.2,3-4.3,3c-1.1,1-2.1,1.9-3.2,2.8c-0.7,0.6-1,0.4-1-0.5c4-4.8,8.1-9.6,12.1-14.4c3.8-4.6,8.1-8.6,13.1-11.9
	C194.8,353.4,196.4,352,197.3,354.1z"/>
<path class="st9" d="M199.4,399.3c3.3-3.3,7.4-5.6,10.2-9.5c1.3,0.6,1.6,1.8,2.2,2.9c-3.6,0.6-5.8,3.3-8,5.8
	c-4.1,2.2-6.9,6.1-11.4,8.9C193.6,403.1,197.6,402.1,199.4,399.3z"/>
<path class="st44" d="M240.9,429.1c-1.5,0.1-2.5-0.6-3.4-1.6c-2.9-3-5.8-5.9-8.8-8.8c-1.2-1.2-1.7-2.5-1.6-4.2
	C231.7,419.4,236.3,424.3,240.9,429.1z"/>
<path class="st9" d="M570.7,398.6c3,2.2,5.6,4.8,7.9,8.7c-4.1-2-6.4-5-9.4-7.3C569.8,399.5,570.3,399.1,570.7,398.6z"/>
<path class="st9" d="M570,370.9c0.9,3.3,3.8,5.2,6.2,8.3c-3.5-1.3-4.5-4.9-7.6-5.4C568.7,372.7,569.1,371.7,570,370.9z"/>
<path class="st9" d="M201.6,369.4c-1.3-2.2-2.2-4.6-2.2-7.3C200.8,364.4,201.6,366.8,201.6,369.4z"/>
<path class="st44" d="M249,436.4c-2,0-3.3-0.8-3.6-2.9C246.8,434.2,248.2,434.9,249,436.4z"/>
<path class="st9" d="M203.1,373.8c-1.4-1.2-1.5-2.7-1.5-4.4C202.7,370.7,203,372.2,203.1,373.8z"/>
<path class="st44" d="M254.1,440.8c-1.3-0.2-2.7-0.5-2.9-2.2C252.6,438.7,253.4,439.6,254.1,440.8z"/>
<path class="st9" d="M206,381.1c-1.1-1-1.5-2.2-1.5-3.6C205.7,378.4,206,379.7,206,381.1z"/>
<path class="st46" d="M434.5,241.2c1.9,0.3,2.9,1.2,3,3.1c0.1,2.3-1.4,3.3-3.3,3.4c-2,0.1-3.1-1.1-3.1-3.1
	C431,242.4,432.8,241.8,434.5,241.2z"/>
<path class="st47" d="M342.9,563c4.6,0.3,9.2,1.6,13.9,1.5c1.2,0,2.4,0,3.6,0c4,1.3,8.1,1.2,12.2,1.4c7.6,0.4,15.3,0.5,22.9,0
	c12.8-0.7,25.5-1.7,38.1-4c9.9-1.8,19.8-3,29.4-6c0.9-0.3,1.9-0.1,2.9-0.2c-1.7,10.2-5.1,19.8-8.9,29.4
	c-5.4,13.4-11.9,26.1-20.4,37.8c-0.3,0.5-0.8,0.9-1.2,1.3c-5.5,2.4-11.4,3.2-17.2,4.4c-6.5,1.5-13,2.8-19.4,4.7
	c-7.3,2.1-14.6,2.1-21.9,0.6c-11.5-2.4-23-4.7-34.3-8c-1.7-0.5-3.5-1-5.3-1.1c-2.1-0.4-3.1-2.2-4.2-3.7c-9-12.3-15.2-26.1-20.8-40.2
	c-2.7-6.6-5-13.4-6.3-20.4c-0.3-1.6-0.9-3.3,0.6-4.8c7.1,1.5,13.9,3.7,21.1,4.7C332.7,561.3,337.8,562.2,342.9,563z"/>
<path class="st48" d="M317.8,247.7c-1.9-0.4-3.3-1.2-3.2-3.1c0.1-2.1,1.3-3.3,3.5-3.3c1.9,0,2.9,0.8,2.9,2.8
	C321,246.5,319.5,247.2,317.8,247.7z"/>
<path class="st49" d="M413.7,708.7c3.7-0.9,5.7-4.1,8.3-6.3c9.2-7.5,20.1-10.7,31.4-12.5c12.8-2.1,24.9,1.4,36.4,7.1
	c5,2.5,7.8,7,10.4,11.7c1.3,1,1.3,2.5,1.4,4c0.1,6.6-0.7,13-1.8,19.5c-0.3,1.7-1.1,3.2-2.5,4.2c-3.1,5.8-8.6,7.4-14.6,8.1
	c-4.1,0.4-4.2,0.3-5.1-3.6c-0.7-3.3-1.3-6.6-2.9-10.6c-0.2,3.6,0,6.4-0.2,9.2c-0.2,2.2-0.3,4.4-2.7,5.6c-9.5,1.2-19,0.8-28.5,0
	c-1.8-0.8-2.2-2.3-2.7-4c-0.8-3.1-1.3-6.3-2.1-10.1c-1.1,2.6-0.9,4.9-1.3,7c-0.4,2.2,0,4.6-1.8,6.4c-4.3-0.4-8.6-0.9-12.6-2.7
	c-2.6-1.1-4.4-3.3-6.2-5.3C412.4,727.5,412.3,718.2,413.7,708.7z"/>
<path class="st50" d="M565.2,703c6.8,8.7,8.2,19.5-0.3,31.7c-4.2,4-9.9,3.7-15,4.4c-13.1,1.7-26.1,1-38.8-2.9
	c-3.1-0.8-4.8-3.1-5.9-5.9c-3.1-8.7-3.2-17.3,1.9-25.4c3.4-4.2,8.1-6.8,12.5-9.6c5.1-3.2,10.3-6.2,15.5-9.2c1.3-0.8,2.7-1.7,4.4-1
	c2.6,3.7,6.4,5.6,10.5,7.3c4.7,2,9.2,4.3,13,7.8C564,701,565.1,701.6,565.2,703z"/>
<path class="st51" d="M471.8,745.1c2.2-4.3,1.2-9,1.4-13.5c0-1.4-0.7-3.6,0.9-3.8c1.8-0.3,2,2,2.4,3.4c1,3.3,2.1,6.7,2.4,10.1
	c0.2,2.8,1.3,3.5,3.8,3.2C479,745.7,475.4,744.9,471.8,745.1z"/>
<path class="st52" d="M435.3,744.3c0.2-4.8,0.6-9.6,1.7-14.2c0.2-0.8,0.2-2.2,1.5-2.1c0.8,0.1,1,1.2,1.2,2.1
	c1.1,5,1.4,10.2,3.5,14.9C440.6,745,437.9,745.6,435.3,744.3z"/>
<path class="st53" d="M271.4,709.7c0.3-1.7-0.6-3-1.1-4.5c-6-18.9-15.3-36.2-24.3-53.8c-10-19.6-20.8-38.7-29-59.2
	c-2.2-6.3-4.4-12.6-6.6-18.9c1-1.2,2.3-1.2,3.7-1c22.9,3.8,46.2,4.9,69,9.5c7.2,1.5,11.4,5,13.7,11.7c2.9,8.7,6.4,17.3,9.2,26
	c2.1,6.5,2.8,6.8,9.8,5.8c7-1,14-1.1,20.9,0.1c2,0.7,2.8,2.5,3.7,4.3c5.2,10.2,9.2,20.8,11.5,32c3.9,14,6.3,28.2,7.2,42.7
	c0.1,1.3,0.2,2.7-0.9,3.7c0,0-0.2-0.1-0.2-0.1c-3.7-0.8-6.4-3.1-9-5.7c-5.6-5.5-12.9-8-20.2-10.2c-4.3-1.2-8.7-2-13.1-2.9
	c-3.3-0.7-6.5,0.4-9.7,0.7c-8.7,0.8-17.2,3.1-24.7,7.8c-4.6,2.9-8.6,6.7-9.3,12.7C271.9,710.2,271.7,709.9,271.4,709.7z"/>
<path class="st54" d="M358.4,708.1c-1.5-11-1.8-22.2-4.5-33c-1.1-4.5-2.5-9-3-13.7c0.5-2.3,2.3-1.7,3.7-1.6c3.7,0.3,7.4,1.3,11.1,2
	c10.8,2,21.6,2.7,32.4,0.1c6.4-1.5,12.9-1.7,19.4-2.9c1.4-0.3,2.9-0.3,4,1c-1.4,6.8-3.2,13.6-4.3,20.4c-1.3,8.2-2.1,16.5-3.1,24.8
	c-0.1,1-0.4,1.9-0.6,2.8c-15.6,2.2-31.3,2.8-47,1.3C363.8,709.1,361,709.2,358.4,708.1z"/>
<path class="st55" d="M337.1,626.4c-8.8-0.6-17.6-0.2-26.3,0.8c-2.4,0.3-3.7-0.6-4.5-3c-3.2-9.4-6.6-18.7-10-28
	c-0.3-0.8-0.5-1.6-0.8-2.4c-1.9-6.1-5.6-9.4-12.3-10.4c-13.2-2.1-26.4-5-39.7-6c-11.1-0.8-22-2.8-33-4c-4.9-11.8-8.5-24-11.8-36.4
	c-0.3-1.3-0.9-2.5-1.3-3.7c-1.9-9-3.9-17.9-5.5-26.9c-2.1-12.1-4.3-24.2-4.8-36.5c3.1,3.4,5,7.6,7.5,11.5
	c7.1,10.9,15.4,20.7,25.6,28.9c8,6.5,16.1,12.8,24.9,18.1c14.3,8.7,28.9,16.8,45,21.8c5.5,1.7,11,3.7,16.5,5.6
	c0.7,7.3,2.9,14.2,5.4,20.9c4,10.9,8.7,21.5,14.3,31.6c3.1,5.6,6.7,10.9,10.6,15.9C337.7,624.9,337.7,625.6,337.1,626.4z"/>
<path class="st24" d="M172.5,377.3c6.1-7,12.1-14.1,19.7-19.7c-1.3,7.9-2.6,15.9-3.9,23.8c-1.6,9.8-2.6,19.6-2.6,29.4
	c-0.2,0.7-0.5,1.5-0.7,2.2c0,2.2-0.1,4.4-0.1,6.6c-1.2,2.1-1.2,4.4-1,6.7c0.4,6.8,0.6,13.7-0.1,20.5c-0.3,2.8,2,4.9,1.2,7.7
	c-5.6-1.5-11.4-2.3-16.9-4.3c7.1-0.9,7.5-1.8,5.6-9.2c-0.6-2.4-0.4-5-0.3-7.6c0.1-2.8-1.2-2.8-3-1.8c-2.2,1.2-4.2,2.7-6.7,3.4
	c-2.3,0.6-2.8,0.3-2.8-2.3c0.1-6.7,1.4-13.1,3.9-19.4c0.4-1.1,0.6-2.3,0.8-3.5c1.4-6.5,2.7-13,4-19.6c0.2-1.1,0.4-2.8-0.2-3.5
	c-1.7-2.1-0.6-3.3,0.8-4.6C171.5,381,172.6,379.5,172.5,377.3z"/>
<path class="st37" d="M184.9,454.6c-3.7-6.1-1.1-12.7-1.5-19c-0.1-2.3,0-4.5-0.3-6.8c-0.5-3.1-1.4-6.6,1.8-9
	c0.3,11.7-0.4,23.4,0.6,35C185.3,454.7,185.1,454.6,184.9,454.6z"/>
<path class="st44" d="M185.6,454.6c1.4,1.6,0.6,3.5,0.7,5.2C185.4,458.2,185.7,456.4,185.6,454.6z"/>
<path class="st56" d="M565.2,703c-6.2-5.1-13.2-8.8-20.6-11.8c-2.7-1.1-4.7-2.9-5.2-6c-0.2-1.6,1.1-2.3,2.2-3.1
	c9-6.5,18.3-12.6,25.9-20.9c0.9-1,2.3-1.3,3.4-2c3.1-3,6.2-5.9,9.3-8.9c14.6,0,29.1,0.1,43.7,0.1c-3.2,6.4-7.8,11.8-12.2,17.4
	c-9.3,11.6-20.2,21.3-32.9,29.1C574.4,699.5,569.9,701.3,565.2,703z"/>
<path class="st57" d="M337.1,626.4c-0.1-0.7-0.1-1.4-0.2-2c1.9-1.7,3.8-0.3,5.5,0.2c13.1,3.8,26.5,6.5,39.9,9c5.5,1,11-0.1,16.5-1.5
	c10.6-2.7,21.4-5.1,32.1-7.6c1.5-0.3,3.1-0.9,4.6-0.2c-0.9,1.9-2.2,3.6-2.3,5.7c-4.9,8.8-8.4,18.2-10.8,28c-0.2,0.7-0.2,1.4-0.8,1.9
	c-8.6,1.2-17.2,2.1-25.7,3.8c-11.5,2.4-22.8,0.7-34.1-1.2c-3.6-0.6-7.1-2.4-10.8-1.1c-2.1-8.1-4.6-16.1-8.1-23.8
	C341.1,633.7,339.4,629.9,337.1,626.4z"/>
<path class="st58" d="M570.9,659.2c-8,9.4-18,16.4-28,23.4c-1.2,0.8-2.3,1.7-3.4,2.6c-10.6,6.3-21.9,11.6-31.2,19.9
	c-2.6-0.5-4.1,2-6.4,2.2c2.3-8.3,6-15.9,9.7-23.6c2.8-6,5.9-11.8,9.7-17.3c3.5,2.8,7.6,1.9,11.1,1.1c11.8-2.5,23.8-4.2,35.2-8.1
	C568.6,659.1,569.8,659.3,570.9,659.2z"/>
<path class="st23" d="M374.2,524.8c0,4.4-0.6,4.7-4.4,3c-2.1-1-3.9-2.3-5.4-4c-1.3-1.4-1.3-2.5,0.8-3.1c2.1-0.7,4.3-0.7,6.4-0.2
	C374.1,520.9,374.4,522.9,374.2,524.8z"/>
<path class="st23" d="M353.6,543.7c0.3,0.2,0.9,0.5,1.2,0.9c0.3,0.5-0.3,0.8-0.8,0.8c-0.7,0-1.1-0.4-1.3-1
	C352.6,544,352.9,543.8,353.6,543.7z"/>
<path class="st44" d="M209.6,433.7c-1.5-1.3-4.3-0.3-4.2-3.1c0-0.6,0.5-1.1,1.2-1C208.6,430.2,209.7,431.4,209.6,433.7z"/>
<path class="st44" d="M221.8,449.6c0.8,0.1,1.4,0.4,1.4,1.3c0,0.5-0.3,1-0.8,1c-0.8-0.1-1.3-0.6-1.4-1.4
	C220.8,450,221.2,449.7,221.8,449.6z"/>
<path class="st44" d="M210.9,434.6c-0.2,0.3-0.4,0.6-0.5,0.6c-0.6-0.1-0.7-0.6-0.7-1c0-0.1-0.4-0.8,0.2-0.5
	C210.3,433.8,210.6,434.3,210.9,434.6z"/>
</svg>
