<?xml version="1.0" encoding="utf-8"?>
<!-- Generator: Adobe Illustrator 27.4.0, SVG Export Plug-In . SVG Version: 6.00 Build 0)  -->
<svg version="1.1" id="Layer_1" xmlns="http://www.w3.org/2000/svg" xmlns:xlink="http://www.w3.org/1999/xlink" x="0px" y="0px"
	 viewBox="0 0 720 720" style="enable-background:new 0 0 720 720;" xml:space="preserve">
<style type="text/css">
	.st0{fill:#231B15;}
	.st1{fill:#FABE4F;}
	.st2{fill:#EEEADA;}
	.st3{fill:#F3E4CC;}
	.st4{fill:#E08487;}
	.st5{fill:#F6CEB4;}
	.st6{fill:#EEAEA9;}
	.st7{fill:#CF2616;}
	.st8{fill:#BA6E81;}
	.st9{fill:#A53048;}
	.st10{fill:#931404;}
	.st11{fill:#F79787;}
	.st12{fill:#FDF6E4;}
	.st13{fill:#50ADAC;}
	.st14{fill:#54B1AD;}
	.st15{fill:#E17A79;}
	.st16{fill:#C6C3A6;}
	.st17{fill:#E47A7B;}
	.st18{fill:#CC5F6B;}
	.st19{fill:#FBF4E2;}
	.st20{fill:#DDDCCE;}
	.st21{fill:#EB806C;}
	.st22{fill:#FDF5E3;}
	.st23{fill:#DCCBC4;}
	.st24{fill:#82B6B5;}
	.st25{fill:#F4E7D0;}
	.st26{fill:#D5B6B4;}
	.st27{fill:#E1C256;}
	.st28{fill:#C1BE9B;}
	.st29{fill:#F6DEBC;}
	.st30{fill:#DBCBC3;}
	.st31{fill:#CE606C;}
	.st32{fill:#131708;}
	.st33{fill:#131808;}
	.st34{fill:#ECDDC1;}
	.st35{fill:#FCCF96;}
	.st36{fill:#F9B9AF;}
	.st37{fill:#F9BCB0;}
	.st38{fill:#DAB798;}
	.st39{fill:#C89B7B;}
	.st40{fill:#925B38;}
	.st41{fill:#F38D7B;}
	.st42{fill:#F7EFDD;}
	.st43{fill:#F2ECDB;}
	.st44{fill:#FBBA6A;}
	.st45{fill:#CC9BA1;}
</style>
<rect x="0" y="0.5" class="st0" width="720" height="720"/>
<path class="st1" d="M453.2-32.6c0.5,0.8,1.2,1.5,1.4,2.4c0.6,1.7,1.4,3.4,3.4,2.9c2.3-0.6,2.5-2.6,1.9-4.6c-0.2-0.8-1-1.7,0.2-2.5
	c0.2,0.1,0.5,0.2,0.6,0.4c2,5.1,1.6,8.3-1.4,9.2c-3.2,1.1-5.7-1.5-7.2-7.6C452.5-32.5,452.8-32.5,453.2-32.6z"/>
<g>
	<path class="st2" d="M258.9,105.5c3.6,2.1,7.2,4.3,10.9,6.4c2,1.2,4.3,1.5,6.6,1.5c31.6,0.5,63.1,0.5,94.7,1
		c11.9,0.2,22.1-2.6,31.3-9.7c3.9-3,8.8-4.6,11.8-8.6c5.5-2.6,9.5-7.2,14.4-10.7c5.3-3.9,10-8.9,17.1-9.4c8.8-0.6,12.8-0.1,16.6,7.9
		c5.4,11.4,7.6,23.6,2.2,35.9c-2.4-2.7-1.1-5.9-1.4-8.9c0.5-1.8,0.3-3.6-0.3-5.3c-0.9-7.7-1.9-15.3-5.6-22.2
		c-0.3-1.8-0.6-3.6-3.1-3.4c-1.2-0.1-2.3-0.4-3.4-0.8c-1.2-0.6-2.4-0.6-3.7-0.1c-4.3,1.1-7.9,3.6-11.3,6.3
		c-11.3,9.3-21.4,19.6-30.1,31.2c-2.2,3-4.1,6.1-5.3,9.7c2.1,1.8,8-4.7,7,3.6c7.9-5.5,16.2-10,25-13.5c3.3-1.3,6.6-2.4,10-3.1
		c1.7-0.4,3.5-0.8,4.8,0.7c1.2,1.5,0,2.9-0.7,4.3c-0.3,0.5-0.5,1.1-0.6,1.6c0.5,1.2,1.5,0.4,2.3,0.6c2.4,0,4.8,0.3,7.1,1.2
		c1.3,0.5,3,1,2.8,2.8c-0.1,1.5-1.7,1.9-3,2.2c-2.2,0.5-4.4,1.1-6.7,1.3c-1.9,0.3-3.6,1.1-5.5,1.4c2.3-0.5,4.6,0.2,6.9-0.2
		c1.9-0.1,3.8-0.2,5.6,0.5c2.6,1.7,1.3,3.3-0.4,4.5c-2.4,1.8-5,3.3-7.7,5.8c3.6-1,6.4-2.6,9.4-3.8c1.7-0.7,3.7-1.6,5,0.1
		c1.3,1.7-0.5,3-1.6,4.3c-3.3,3.9-6.2,8.2-10.4,11.4c-2.1,1.6-0.9,2.2,0.8,2.6c1.8,0.4,3.6,0.7,5.3,1.2c2.3,0.6,3.1,1.8,1.2,3.8
		c-0.5,0.6-1.7,1.1-0.8,2c1.3,1.3,3.1,2,4.9,1.9c1.2-0.1,0.8-1.3,0.8-2.1c-0.6-9.5,1.2-19,0.7-28.6c-0.2-1.4-0.1-2.8,1.2-3.7
		c1.8,0.3,2,1.6,2.2,3.1c1.2,7.1,0.6,14.2,0.6,21.3c-0.1,9.4,1.4,18.6,3.7,27.7c0.4,1.7,1,3.4,0.8,5.2c0.4,1.8-0.4,3.3-1.5,4.6
		c-7.7,8.9-16.4,16.5-28.1,19.9c-2.1,0.6-4.2,1-6.4,0.4c-0.6-0.1-1.1-0.2-1.7-0.2c-2.6,0.1-5.3-0.2-7.9,0.2
		c-6.3,0.1-11.9-2.4-17.8-3.9c-4.8-1.2-9.4-2.9-14.4-1.7c-8.6,1.1-15.8,4.9-21.6,11.3c-2.5,1.9-4.1,4.6-6.1,7
		c-0.8,1-1.5,2.1-2.8,2.6c-2,0.4-4,0.9-6.1,1c-5,0.1-9-1.5-11.3-6.3c-0.3-0.5-0.5-1.1-0.8-1.6c-1.9-3.1-2.2-7.6-6.1-8.9
		c-5.7-1.9-11.7-3.1-17.8-2.1c-2.9,0.5-4.9,2.4-6.4,4.9c-0.9,1.5-1.6,3.2-2.5,4.8c-3.5,6.3-10.6,6.8-14.9,0.9
		c-2.1-2.8-3.3-6.1-4.3-9.4c-0.9-3.2-2.9-5.1-5.9-6.7c-4.6-2.4-9-5.1-14.4-5.3c-1,0-2.3-0.8-2.8-0.1c-2.9,3.5-7.2,4-11.2,5.2
		c-0.5,0.2-0.3,0.9-0.6,1.3c-0.3,0.5-0.8,0.9-1.3,1.1c-5.4,1-10.6,2.9-16,3.9c-4.5,0.8-9,1.3-13.6,0.6c-8.2-1.2-15.2-5.1-21.9-9.6
		c-5.7-3.9-11.1-8.3-15.3-13.9c-1.3-1.7-2.3-3.3-1.3-5.5c2.3-6.7,3-13.7,3.8-20.7c1.3-4,0.3-8,0.6-12.1c0.1-1.2-0.5-3.1,1.4-3.1
		c1.7,0,1.8,1.7,1.9,3c0.2,4.2,0.1,8.3,0.1,12.5c0,4.8,0.6,5.2,5.3,3.4c0.8-0.3,1.6-0.5,2.2-1.2c0.1-0.2,0.1-0.5-0.1-0.6
		c-1.3-1.1-3.8-1.4-3.1-3.8c0.6-2.2,2.9-2.3,4.7-2.7c2.4-0.6,5-0.6,7.7-1.8c-2.6-2-5.3-3.6-7.3-6c-1-1.2-2.1-2.3-2.9-3.7
		c-0.9-1.6-2.7-3.4-1.3-5.2c1.4-1.8,3.4-0.3,5,0.2c2.7,0.8,5.3,1.5,8.5,2.3c-3.1-2.8-6.1-4.8-9.1-7.1c-0.9-0.7-1.8-1.5-1.5-2.6
		c0.3-1,1.4-1.2,2.4-1.4c3.6-0.9,7.2-0.8,10.8-0.6c-4.6-1.6-9.4-3-14.1-4.4c-1.1-0.3-2.7-0.6-2.7-2c0-1.6,1.6-2,2.8-2.3
		c2.3-0.7,4.7-1.2,7.1-1.3c2.4-0.1,2.6-1.1,1.8-3c-0.5-1.2-1.9-2.6-0.4-3.9c1.2-1.1,2.8-0.5,4.2-0.1c11,3.8,21.3,9,30.9,15.7
		c1.8,1.3,3.4,2.7,5.8,1.4c0.7-0.4,1.6,0.1,2.5,0.3c1.1,0.3,2.4,1.6,3.2,0.2c0.7-1.1-0.4-2.2-1-3.2c-5.6-9.7-12.9-18.1-21.2-25.7
		c-6.1-5.6-12.1-11.4-18.6-16.6c-2.3-1.8-4.6-3.5-7.4-4.5c-5.3-2.1-8.6-1-11.7,3.8c-3.5,5.6-4.4,11.8-4.7,18.2
		c-0.1,3.7-0.8,7.3-0.9,11c0,1.2-0.2,2.7-1.7,2.7c-2,0-1.2-1.8-1.2-2.8c0.1-5.6-0.4-11.2,0.2-16.8c0.3-5.4,1.8-10.5,4.7-15
		c3.8-5.8,9.4-7.6,16-5.3c6.2,2.2,11.6,5.9,16.9,9.6C238.2,92.4,248.1,99.5,258.9,105.5z"/>
	<path class="st3" d="M435.1,210.2c3.1,1,5.9-0.4,8.7-1.4c11.7-4.4,20.5-12.2,27.2-22.4c10.3,11.3,19,23.7,25.2,37.6
		c3.7,8.4,7.7,16.6,10.2,25.4c1,0.4,1.5,1.2,1.8,2.1c1.6,6.2,3.5,12.4,3.4,18.9c-0.9,1.6-1.2,3.4-1.3,5.1
		c-1.2,14.4-6.4,27.6-12.6,40.4c-3.8,8-9.6,15-15.2,22c-2.2,2.7-4.6,1.9-6.4-0.1c2.3,1.7,3.5,3.9,1.2,6.7c-3.1,3.9-4.9,4.5-7.8,2.5
		c2.2,3.2-0.1,5-2.3,6.8c-2.3,1.7-4.7,2.6-7.2,0.2c-2.9-2.7-5.9-5.3-8.5-7.4c2.1,1.5,4.5,3.7,6.9,5.8c4.2,3.6,4.1,4.9-0.4,8.1
		c-13.6,9.6-28.8,15.4-45,18.8c-14.4,3-28.8,6.1-43.4,8.1c-18.9,2.5-37.8,5.1-56.9,1.4c-1.7-0.3-3.5-0.4-4.9-1.2
		c-4.8-2.8-9.8-2.3-15.1-1.9c-12.7,0.9-25-1.9-36.9-6.2c-1.4-0.5-2.6-1.3-3.6-2.4c-1.1-1.2-2.6-1.9-4.2-1.8
		c-4.9,0.1-9.3-1.6-13.5-3.6c-5.5-2.6-10.9-5.1-16.5-7.4c-1.5-0.6-3.7-0.9-3.3-3.5c2.5-1.2,4.7,0.2,7,0.8
		c15.2,4.1,30.1,9.2,45.5,12.1c11.3,2.1,22.8,2.7,34.3,3.1c7.2,0.2,14,1.2,19.9,5.4c6.9,4.9,14.6,5.1,22.6,4.6
		c26.2-1.7,51.7-7.2,77-13.6c11.6-3,22.8-7.3,31.8-15.8c0.8-0.7,2.6-1.1,1.8-2.6c-0.8-1.3-2.4-1.5-3.9-1.2c-1.1,0.2-2.2,0.6-2.7,1.6
		c-2,3.6-5.8,4.9-9.1,6.9c-1.7,1.1-3.2,0.9-4.4-0.7c-1.2-1.6-2-3.3-0.5-5.2c0.9-1.2,2.6-1.9,2.7-3.9c-1.4-0.2-2.5,0.7-3.6,1.2
		c-5.7,2.6-11,6.1-17.2,7.6c-5.3,1.3-6.5,0.2-5.5-5.1c-2.2-0.4-4.3,0.2-6.4,0.4c-15.4,1.4-30.5,0.4-44.6-6.7
		c-6.8-3.4-12.6-7.8-16.6-14.5c-3.1-5.1-3.3-4.9-9-3.2c-5.5,1.6-11,2.9-16.8,1.8c-1.7-0.3-3.5-0.6-4.1-2.4c-0.7-2,1.1-2.7,2.4-3.4
		c2.3-1.3,0.9-2.3-0.2-3.2c-3.2-2.9-5.4-6.5-6.6-10.5c-1.4-4.4,0.1-6.5,4.6-7.3c0.6-0.1,1.3,0,1.8-0.3c8.3-5,16.6-1.9,24.9-0.3
		c2.4,0.5,4.5,0.6,6.6-0.8c1.7-0.7,3.2,0,4.8,0.7c2,0.8,4.1,1.6,6.1,0.1c2.6-0.5,5,0.6,7.4,1.1c6.4,1.6,12.8,2.3,19.3,0.6
		c5.3-1.4,10.8-2,16.2,1.6c-0.3-4.6,2-6.1,5.9-6.9c2.9-0.6,4.7-3.3,4.9-6.4c0.2-2.6,0.4-5.2,0.7-7.8c0.6-5.3,1.8-6.2,5.1-5.7
		c-2.2-0.2-5.3-2.3-7.2-6.2c-1.4-2.9-3.4-5.5-5.4-8.1c-1.8-2.4-3.6-4.9-3.5-8.1c0-1.5-0.8-2.4-1.8-3.4c-1.1-1.1-2.2-2.2-3-3.5
		c-1.7-2.7-2-5.3,1.2-7c2.2-1.2,0.3-1.7-0.2-2.5c-0.1-2.1,1.7-2,3-2.3c5.6-1.3,10.5-3.7,14.6-7.7c6.8-4.4,11.9-10.3,15.7-17.3
		C431.4,214.2,432.3,211.5,435.1,210.2z"/>
	<path class="st4" d="M447.7,127.2c3.2-0.8,6.5-1.6,10.2-2.4c-3.5-3-7.5-2.4-11-3.4c-1,0.2-2.2,1.1-2.8-0.7c0.2-1.3,0.9-2.4,1.6-3.5
		c0.6-0.8,1.4-1.7,0.8-2.6c-0.7-1-2-0.6-3-0.4c-5.3,1.2-10.4,3.1-15.4,5.2c-7.5,3.2-14.4,7.3-21,11.9c-0.5,0.3-1,0.5-1.8,0.9
		c-0.4-2.1,0.9-3.7,1.4-5.6c-1.7-0.2-2.9,0.5-4.2,1c-1.3,0.5-2.9,1.8-3.9,0.7c-1-1.1,0.4-2.6,0.9-3.9c1.9-4.6,4.7-8.6,7.9-12.4
		c8.7-10.3,17.9-20.3,28.8-28.6c3.2-2.4,6.4-5,10.7-5.4c1.2-0.3,2.4-0.4,3.6,0.1c1.2,0.3,2.4,0.6,3.6,0.9c1.8,0.6,2.9,1.8,3.6,3.5
		c4.5,7,5.5,14.9,5.9,22.9c0.8,1.6-0.2,3.4,0.6,4.9c0,3.1,0,6.3,0.1,9.4c-0.7,3-1,6.1-0.7,9.2c0,1.5-0.1,2.9-0.1,4.4
		c-3.8,3-5.3,2.4-7.8-2.8c-2.3-0.1-4.5-0.2-6.8-0.3C447.7,129.8,446.8,128.9,447.7,127.2z"/>
	<path class="st5" d="M147.5,262.9c3.3-21.9,11.7-41.8,24.4-59.9c4.7-6.7,9.5-13.4,14.3-20.1c0.7-0.8,1.4-1.5,2-2.3
		c1,5.1,5,8.3,8.5,11.5c8.5,7.7,18.1,13.7,29.4,16.6c1.6,0.7,2.3,2.1,3,3.4c3.9,6.8,7.7,13.8,13.8,19.1c0.6,0.6,1.2,1.2,2,1.6
		c2.8,2.1,5.5,4.3,8.6,5.9c1,0.5,1.9,1,2.1,2.3c-0.3,3.5-3,5.3-5.5,7.1c-2.4,1.8-4.9,3.4-7.1,5.5c-4.5,4.4-7.2,9.7-7.7,16
		c-0.2,2.2-0.3,4.3-2.8,5.3c-12.5,4.2-24.7,8.9-36.5,14.6c-3.1,1.5-6.3,1.8-9.8,1.7c-8.9-0.1-17.8-1.2-26.8-0.9
		c-2.3,0.1-4.6,0.2-6.5-1.6c-3.7-6.8-4.5-14.3-5.1-21.8C147.8,265.5,147.9,264.2,147.5,262.9z"/>
	<path class="st6" d="M190.4,96.2c0,6.2,0,12.5,0,18.7c0.4,0,0.8,0,1.2,0.1c0.3-4,0.8-8,1-12c0.3-6.5,1.1-12.8,4.2-18.6
		c3.7-7,8.1-8.5,15.4-5c3.3,1.6,6.1,3.9,8.8,6.2c12.4,11.1,25.4,21.7,34.6,35.8c1.4,2.2,2.8,4.5,4,6.8c0.6,1.1,1.8,2.2,0.4,3.5
		c-1.2,1.2-2.6,0.5-3.7,0c-1.8-0.7-3.4-2.9-5.2,0.4c-0.7,1.3-1.9-0.7-2.8-1.4c-10.8-8.3-22.9-13.9-36.6-18.5c1,2.1,1.6,3.4,2.2,4.7
		c1.2,2.5,1.2,3.9-2.3,3.7c-3.6-0.2-7,0.8-11.1,2.2c7.1,2.4,13.7,3.8,19.9,6.9c-5.1,1.4-10.5,0-15.8,2.1c4.4,3.4,9.1,6.3,12.8,10.5
		c-5.4-0.1-10.4-1.9-16.1-3.9c2.1,5.9,5.8,9.7,10.5,12.7c1.3,0.8,3.6,1.1,3.4,2.8c-0.2,1.6-2.6,1.2-4.1,1.6
		c-2.7,0.7-5.4,1.1-8.2,1.5c-0.9,0.2-1.8,0.3-2,1.2c-0.2,1.3,1.1,1.3,1.8,1.8c1.2,0.7,3.6,0,3.6,1.7c0,1.8-2.3,2.2-3.8,2.8
		c-7.5,3.1-7.9,2.8-7.9-5.3c0-4.6,0-9.2,0-13.8c-0.5,0-0.9,0-1.4-0.1c0,3.3,0,6.6,0,9.9c0,1.6,0.5,3.4-1.3,4.5
		c-0.5-7.1,0-14.3-0.6-21.4c-1.1-12.7-2.3-25.4-1.7-38.1C189.9,99,189.6,97.5,190.4,96.2z"/>
	<path class="st7" d="M673.5,446.1c7.4,10.4,13,21.6,18.4,33c6.3,13.3,8.1,27.5,9.5,41.9c1.5,15.2-0.1,30.4,0,45.7
		c-1.1,7.4-2.7,14.6-6,21.3c-2.4,2-4.6,0.4-6.7-0.6c-4.3-2.2-8.5-4.4-12.8-6.5c-9.7-4.7-19.8-8.8-29.1-14.5
		c-1.1-0.7-2.3-1.3-3.5-1.9c-4.2-2.2-8-2.5-12,0.8c-2.8,2.2-6.1,3.8-9.4,5.3c-5.2,2.4-8,1-8.9-4.6c-0.5-3.3-1.1-6.6-1.8-9.8
		c-1.2-5.4-5.5-8.3-10.7-6.2c-6,2.5-10.2-0.9-14.9-3.2c-1.2-0.5-1.5-1.8-1.6-3c-0.1-1.5,0-3.1-0.1-4.6c0-0.6-0.2-1.2-0.3-1.8
		c0-17.9,0.3-35.8-2.2-53.6c0.9-5,1.2-5.4,5.5-4.8c15,1.9,29.4-0.5,43.4-5.6c14.6-5.3,27.5-13.3,38.4-24.2
		C670.1,447.7,671.2,446.1,673.5,446.1z"/>
	<path class="st8" d="M661.4,656.9c-5.2,8.5-12.7,14.9-20,21.5c-11.9,10.8-25.9,18.5-40.5,25.1c-1.8-2.5-1.4-5.5-1.6-8.3
		c-0.6-8-2.5-15.6-6-22.7c-6.9-14.1-15.3-27.1-27.7-37.2c-1-0.8-2.1-1.6-2.6-2.9c-0.3-1.5,0.4-2.8,1-4.1
		c6.7-16.7,11.6-33.9,14.8-51.5c0.2-1.2,0.3-2.4,1.5-3.1c5.4,3.9,11.5,6.3,17.5,9c14.3,6.3,26,15.8,36.1,27.5
		c9.8,11.4,18,23.6,24.4,37C659.6,650.3,661.3,653.3,661.4,656.9z"/>
	<path class="st9" d="M661.4,656.9c-0.4-0.4-1-0.8-1.2-1.3c-5-13.9-12.6-26.4-21.7-38c-12.2-15.7-26.7-28.7-45.8-35.9
		c-3.5-1.3-6.7-3.4-10.1-4.8c-1.7-0.7-2-1.8-2.1-3.3c-1.3-1.2-1-2.8-0.8-4.3c1.2-8.9,3-17.7,3.2-26.7c0-1.4,0.1-2.9,2-3.4
		c-0.9,5,1.6,7.4,6.2,9c2.9,1,5.2,2.2,8.4,0.4c3.6-2,7.3,0,10.7,1.4c1,0.4,1.2,1.5,1.4,2.4c0.9,4.2,1.7,8.4,2.5,12.6
		c0.2,0.9,0.3,1.9,0.6,2.8c1,3,2.4,3.6,5.2,2.3c4.6-2.1,9.1-4.5,13.1-7.5c2.3-1.7,4.4-1.9,7-0.9c3.3,1.2,6.3,2.8,9.3,4.6
		c8.3,5.1,17.5,8.6,26.2,13c4.8,2.4,9.7,4.6,14.4,7.3c1.6,1,3.5,1.6,5.5,1.3c-1.1,7-4.3,13.3-6.6,19.9
		c-6.2,17.2-15.8,32.7-26.2,47.8C662.4,656.2,661.8,656.5,661.4,656.9z"/>
	<path class="st10" d="M563.4,632.5c5.9,3.3,10.3,8.2,14.4,13.3c8.5,10.6,15.8,21.9,20,34.9c2.4,7.4,3.2,15.1,3.1,22.8
		c-0.2,0.1-0.3,0.3-0.4,0.5c-7.5,2.7-14.8,5.7-22.6,7.4c-12.2,2.7-24.5,4.1-36.9,4.9c-12.2,0.8-24.3,2-36.4,3
		c-1.2,0.1-2.4-0.1-3.6-0.2c0.2-1.2,1.1-1.9,2-2.4c10.7-5.9,18.4-15,26.2-24c11.7-13,20.2-27.8,26.4-44c0-1.1,0.5-2.1,0.9-3.1
		c1.9-3.2,2.8-6.7,4.3-10C561.4,634.3,561.7,632.8,563.4,632.5z"/>
	<path class="st11" d="M651.3,423.4c1.4,1,2.8,1.9,4.1,2.9c5,5.5,11.2,9.8,15.4,16c0.9,1.3,1.7,2.6,2.6,3.8c-13,14-28.6,24-47,29.8
		c-11.4,3.6-23,5.6-34.9,4.8c-1.9-0.1-3.9-0.3-5.7-0.7c-2.7-0.7-3.3,0.6-3,2.9c-1.1,0.1-1.6-0.8-1.6-1.6c-0.5-4-1.1-8,0.3-11.9
		c0.9-1,2.2-0.8,3.4-0.8c26.2-0.5,46.1-11.7,59.5-33.9c1.6-2.7,2.4-5.7,3.7-8.5C648.7,424.8,649.1,423,651.3,423.4z"/>
	<path class="st12" d="M232.7,273.8c1.2-0.7,1.4-1.8,1.4-3c0.2-10.5,6-17.6,14.5-23.1c2.8-1.8,5.1-3.9,6.6-6.8c0.8-1,1.9-1.1,3-0.8
		c7.2,1.8,14.1,0.5,21.1-0.9c0.7-0.1,1.4-0.2,2.2-0.2c2.4,0.4,4.8,0,7.2,0c4,0,5.6-1.7,5.8-5.7c0.2-3.3-0.8-6.4-2.6-9.1
		c-1.4-2.1-2.8-4.2-4.6-6c-5.7-8-13.5-12.4-23.3-13.5c-1.3-0.5-2.7-0.4-4,0c-0.9,0.1-1.9,0-2.6-0.7c-0.6-0.2-1.4-0.3-1.6-0.6
		c-0.5-0.9,0.5-1.2,1.1-1.4c1.7-0.5,3.5-0.8,5.3-1.3c2-0.6,4.3-0.5,5-3.4c0.2-1.1,1.8-1.3,3.1-1.3c7.6,0.4,13.7,4.6,20.2,7.7
		c1.6,0.8,2,2.6,2.5,4.2c1.3,3.6,2.4,7.2,4.4,10.5c1.8,2.9,4.5,3.8,7.6,4c3.2,0.1,4.3-2.2,5.4-4.5c0.8-1.6,1.6-3.2,2.4-4.8
		c2.1-3.7,5.2-5.5,9.6-5.9c5.1-0.4,9.7,1.3,14.6,1.7c2.8,0.2,4.7,2.3,5.8,4.8c1,2.3,2.1,4.6,3.2,6.8c2.5,5,6.4,6.9,11.8,5.8
		c1.6-0.3,3.1-0.4,4.7-0.4c1.2,1.3,0.3,2.7,0.1,4.1c-0.3,1.5-0.8,3-0.5,4.6c0.4,2.6,1.5,4.3,4.6,4.5c2.9,0.2,5.8,0.6,8.7,0.7
		c2.2-0.4,4.3,0.2,6.4,0.7c3.9,0.9,7.7,1.9,11.7,2c1.2,0,2.4,0.2,3.2,1.3c1.5,0.5,3,0.8,4.7,0.5c-0.1,2-1.5,2.2-2.7,2.7
		c-4,1.7-4.4,2.8-1.8,6.4c0.6,0.9,1.3,1.7,2.2,2.4c2,1.6,3.2,3.2,2.7,6c-0.4,2.3,1.7,4.2,3,5.9c1.8,2.3,3.8,4.4,4.8,7.1
		c2,5.2,6.5,6.9,11.9,8.4c-1.9,1.3-3.5,0.9-4.9,0.8c-2.9-0.1-3.9,1-3.8,3.8c0.1,3.3-1.1,6.6-0.6,9.9c0.2,1.4-4.4,6.4-5.8,6.7
		c-5.7,1-6.1,1.6-4.1,7.1c-0.8-0.2-1.6-0.2-2.1-0.5c-5.9-4-12.3-2.7-18.5-1.1c-5.1,1.3-10.1,0.5-15-0.6c-3.3-0.7-6.6-1.5-9.9-2.2
		c-1,0.9-2.1,0.6-3.1,0.2c-7.3-2.4-14.1-5.6-19.5-11.3c-2.8-2.9-3.8-6.2-3.9-10.4c-0.2-6,1.1-11.4,4-16.7c1.6-2.8,3.3-4.9,6.6-5.5
		c1.7-0.3,3.3-0.7,4.7-1.7c2.1-1.4,3.8-3.2,3.1-6c-0.7-2.6-2.6-4.3-5.4-4.7c-1.9-0.3-3.9-0.1-5.8-0.2c-5.1-0.1-10.2,0.2-15.2-0.4
		c-1.9-0.3-3.9,0.2-5.7,0.8c-2.6,0.9-4.5,2.7-4.5,5.5c-0.1,2.7,1.4,4.7,4.1,5.8c1.2,0.5,2.5,0.8,3.8,1.2c2,0.6,3.8,1.6,5.1,3.3
		c4.5,5.8,6.6,12.3,5.2,19.7c-0.8,4.5-3.3,7.9-6.8,10.7c-5.4,4.3-11.5,7.5-18.1,9.7c-13.2,4.6-26.7,5-40.5,3
		c-0.6-0.1-1.2-0.3-1.8-0.2c-8.9,1.1-12.2-6.2-17.1-11c-0.5-0.5-0.5-1.3-0.4-2c0.1-0.7,0.4-1.5,0.2-2.1c-2.3-7.6,0.9-14.4,3.3-21.4
		c-4.1,0.6-7.8,1.6-11.6,2.3C235.8,275.6,233.6,276.6,232.7,273.8z"/>
	<path class="st13" d="M396.8,243.7c-7.4,0.9-14.3-2.2-21.5-2.9c-3.7-2.9-5.6-6.8-6.3-11.2c-0.7-4.5-0.2-8.9,1.7-13.1
		c5.6-6.7,12.6-10.7,21.4-11.4c8.7-1,16.2,1.3,21.8,8.3c4.1,5.1,4.8,15.9,1.5,21c-4.2,5-10,7.3-16.2,8.7
		C398.4,243.2,397.6,243.4,396.8,243.7z"/>
	<path class="st14" d="M263.9,203.5c10.1,1.1,18.5,5.1,24.1,13.7c3.6,6.4,1.8,12.5-1.1,18.4c-1,2-2.5,3.5-4.6,4.3
		c-4.3,0.8-8.5,1.6-12.8,2.3c-4.9,0.7-9.5-0.7-14.3-1.4c-4-1.9-7.6-4.4-10.9-7.3c-4.6-8.5-2.9-19.1,3.9-25.2c2.5-2.3,5.7-3.1,8.8-4
		c0.2-0.2,0.3-0.3,0.4-0.5c1-0.1,1.9-0.2,2.9-0.2C261.5,203.1,262.7,203.2,263.9,203.5z"/>
	<path class="st15" d="M415.4,234.3c0.1-3.9,1-7.7,0.6-11.7c-1-10.3-10.9-17.1-20.2-17.4c-1.2,0-2.4-0.1-3.6-0.1
		c4.1-1.2,8.1-0.5,12.1,0.3c7,1.4,13.7,4.3,20.9,4.8c3,0.5,6,0.4,9,0c0.3,0,0.6,0,1,0.1c-3.3,5.3-5.8,11-9.9,15.7
		C422.3,229.2,419.2,232.1,415.4,234.3z"/>
	<path class="st16" d="M455.9,130.7c0.2,0.1,0.6,0.1,0.7,0.2c1.2,3.9,4.1,3.5,7.1,2.6c0.8,8-0.7,15.9-0.6,23.9c0,1.1,0,2.1,0,3.2
		c0.3,5.6,0.3,5.6-5.1,3.5c-0.5-0.2-0.9-0.4-1.3-0.6c-3.9-2-3.9-2.2-0.3-4.6c0.4-0.3,0.8-0.5,2-1.3c-4-0.9-7-1.5-10.1-2.2
		c-2.1-0.5-3.4-1.5-0.9-3.1c5.5-3.5,8.6-9.3,13-13.8c0.5-0.5,1.2-1.1,0.6-1.8c-0.5-0.6-1.4-0.4-2-0.1c-2.3,1-4.7,1.9-6.9,3
		c-2.3,1.1-4.6,1.8-8.2,2.1c3.3-3.6,6.6-5.9,10-7.9C454.9,133.1,456.6,132.7,455.9,130.7z"/>
	<path class="st17" d="M257,204.3c-1.2,1.6-3.4,1.4-5,2.6c-8,5.8-10.4,13.5-8.2,22.8c0.3,1.3,0.3,2.6,0.5,3.9
		c-5.8-4.2-9.7-9.8-13.1-15.8c-1.7-3-3.3-6-5-9c8.9,0.7,17.3-1.7,25.8-3.8C253.7,204.5,255.3,204,257,204.3z"/>
	<path class="st18" d="M370.7,216.4c-0.1,2.1,0.2,4.3-0.2,6.4c-1.1,5.5,0,10.3,3.5,14.7c0.8,0.9,1.4,2,1.3,3.2
		c-3.2-0.2-6.5-0.5-9.7-0.5c-2.7,0-3.7-1.4-4.4-3.7c-1.2-3.9,0.5-7.2,1.5-10.7C365.1,222.5,367.6,219.2,370.7,216.4z"/>
	<path class="st16" d="M447.7,127.2c0.5,1.1,0.9,2.1,1.4,3.2c-2.9,0-5.9,0.8-9.1-0.9C442.8,128.4,445,127.1,447.7,127.2z"/>
	<path class="st3" d="M434.2,210.2c-3,0.8-6,0.8-9,0C428.1,210.1,431.1,210.2,434.2,210.2z"/>
	<path class="st16" d="M457.8,82.7c-1.4-0.9-2.6-2.1-3.6-3.5C456.8,79,457.9,80.2,457.8,82.7z"/>
	<path class="st16" d="M464.4,110.6c-1.1-1.5-0.6-3.3-0.6-4.9C465,107.1,464.4,108.9,464.4,110.6z"/>
	<path class="st16" d="M444.1,120.7c0.8,0.8,1.9,0.5,2.8,0.7C445.8,121.8,444.6,122.9,444.1,120.7z"/>
	<path class="st16" d="M450.6,78.3c-1.2,0-2.4-0.1-3.6-0.1C448.2,77.3,449.4,77.3,450.6,78.3z"/>
	<path class="st19" d="M549.8,353.2c2,4.7,4.5,9.2,5.3,14.4c-2.7,1.5-3.8-1.1-5.6-2c0.7,3.3,4,5.8,3.3,9.6c-1.6,2-3.3,0.8-4.9,0.2
		c-2.2-0.8-4.3-2.1-6.8-2.3c-0.5,1.5,0.5,2.4,1,3.4c2.7,4.8,5,9.8,7.1,14.9c0.6,1.4,1.6,3.1,0.1,4.3c-1.3,1.1-2.8-0.1-4-0.8
		c-4.3-2.4-8.3-5.4-12.5-8c-1-0.6-2.1-1.6-3.3-0.9c-1.4,0.7-0.9,2.1-0.7,3.2c1.6,11.2,2.1,22.5,2.7,33.8c0.1,1.4,0.5,3.2-1,3.9
		c-1.7,0.9-2.9-0.7-3.9-1.8c-1.2-1.3-2.4-2.6-3.7-3.8c1,1.2,3.4,2.5,1.8,4.1c-2,2-3-1.4-5-1.8c-0.7,4.7-1.2,9.4-2.9,13.9
		c-0.8,2.2-1.7,4.5-2.9,6.5c-0.7,1.3-1.6,2.6-3.3,2.3c-1.6-0.3-1.7-1.9-2-3.1c-0.5-2.6-0.7-5.2-1.1-7.8c-0.7-3.9-1.9-7.6-3.8-12.1
		c-0.3,3.1-0.2,5.1-0.2,7.2c0,4.1-0.6,8.1-2,12c-1.6,4.3-2.3,8.8-3.9,13c-0.7,1.9-1.4,4.8-4,4.3c-2.7-0.5-1.9-3.4-2.1-5.5
		c-0.1-1.5,0.1-3.1-0.5-5.6c-2.2,4.2-5.8,6.1-8.9,8.6c-1.7,1.4-2.1,3.7-2.6,5.8c-0.2,0.7-0.3,1.4-0.5,2.1c-0.7,1.8-0.8,4.5-3.2,4.7
		c-2.6,0.2-1.9-2.8-3.1-4.5c-2,1.5-3,3.7-4.5,5.5c-1.2,1.4-2.1,2.9-3.3,4.2c-0.8,0.9-1.6,1.9-3,1.5c-1.3-0.4-1.8-1.6-2-2.8
		c-0.6-2.8-0.7-5.6-2.1-9c-0.9,2.9-1.6,5.2-2,7.4c-1.4,7.8-6.7,13-12.2,18.1c-0.8,0.7-1.7,1.3-2.8,1.6c-2.8,0.8-4.5-0.6-4.1-3.5
		c0.5-3.3,1.9-6.3,2.5-10.1c-6.5,4.5-9,11.5-14,16.4c-3,0.4-3,0.4-4.5-4.9c-1.8,2.1-2.9,4.6-4.8,6.4c-1.7,1.7-3.5,3-6.1,1.8
		c-1.4-0.7-2.6,0-3.7,0.6c-3.1,1.6-6.4,2.8-9.6,4.1c-1.4,0.6-3.2,1.3-4.5,0.1c-1.9-1.9-3.1-0.8-4.5,0.5c-1.4,1.2-2.5,2.6-3.7,4
		c-1.7,2.1-3.4,3.5-6.4,4c-3.7,0.7-6.4,4.1-9.9,5.8c-2.7,1.4-5,2.1-8.2,1c-4.7-1.6-9.1,0.3-11.7,4.6c-2.8,4.6-6.6,7.7-11.8,9.5
		c-4.2,1.4-8.1,1.4-11.7-1.4c-1.9-1.5-3.7-1.8-5.8-0.1c-2.4,1.9-4.9,0.7-7-0.9c-2.8-2.1-5.1-3.8-9-1.6c-2.3,1.3-4.9-0.5-7-2
		c-2.2-1.6-4.1-2.1-6.6-0.4c-2.4,1.6-5.1,1-7.6-0.1c-4.7-2.2-9.1-5-13-8.4c-1.5-1.3-2.8-2.7-5-0.9c-1.3,1-2.8,0.4-4.1-0.2
		c-6.7-2.8-13.3-5.8-19-10.4c-2.9-2.4-6.2-3.6-10-3.3c-4.2,0.3-8.1-1.2-12-2.5c-4.4-3.3-7.2-8-11.3-11.6c-1.1-0.9-1.9-2.2-3.5-2.9
		c-0.8,1.5-0.2,3-0.1,4.5c0.1,1.6,0.7,3.7-1.3,4.4c-2,0.7-3-1.1-3.9-2.5c-4-5.7-7.2-11.9-10.5-18c-0.1-0.3,0-0.2,0,0.2
		c0.1,2.1,0.5,4.9-1.9,5.6c-2.5,0.7-3.4-2.1-4.6-3.8c-1.1-1.6-2-3.3-2.9-4.9c-4.3-7.8-8.1-15.9-11.7-24.1c-0.1,1.9,0.9,4.5-1.3,5.1
		c-2.7,0.7-2.9-2.3-3.7-4c-2.1-4-3.4-8.4-5.6-12.9c-1.1,2-1,3.9-1.7,5.5c-0.8,1.6-2.5,2.5-3.1,0.6c-2.4-7-5.2-14-4.5-21.6
		c0.2-0.1,0.6-0.2,0.7-0.1c2.4,5.3,9.2,5.1,12.3,9.7c0.3,0.4,0.5,0.9,1,1c6,1.1,6.8,6.3,8.5,10.6c3.3,8.3,3.3,8.6,12.4,7.6
		c6.7-0.7,13.4-1.6,20-3.3c6.5-1.7,13.4-1.9,20.2-1.3c2.2,0.2,4.3,1.1,6,2.5c5.1,4.1,11.1,5.5,17.5,5.9c6.3,0.4,8.6,3.3,7.8,9.4
		c-0.6,5.5-0.3,4.9,5,6.7c5.6,1.9,11.4,2,16.9,3.6c3.2,1,6.3,0.8,9.1-0.9c4.4-2.7,8.3-2.8,12.1,1.1c1.4,1.4,3.1,2.1,5.3,1.4
		c1.4-0.5,3-0.4,4.1,0.6c2.3,2.1,4.9,2.3,7.7,1.3c1.1-0.4,2.5-0.6,3.6-0.3c4.5,1.5,8-0.6,11.4-2.9c4.4-2.9,8.9-5.7,13.1-9.1
		c3.6-2.9,7.6-5.2,12.7-3.6c0.9,0.3,2.1,0.5,2.7-0.4c0.7-1.1-0.3-2-1-2.8c-1.1-1.1-2.3-2.2-3.7-2.9c-6.5-3-9.6-8.9-13-14.5
		c-1.9-3.2-3.6-6.5-5.6-9.6c-1.4-2.3-2.9-4.3-5.3-5.8c-1.6-0.9-2.9-2.5-2-4.5c0.9-2,2.9-2.1,4.7-1.6c2.2,0.7,4,0.2,5.8-1
		c2.6-1.6,5.5-2.4,8.6-2.6c1.1-0.1,2.3-0.3,3,0.8c0.8,1.3-0.1,2.5-0.9,3.2c-1.7,1.7-2.5,4.1-4.3,5.8c-1.7,1.6-1.1,3.1,0.7,4
		c5.1,2.7,5.2,2.6,2.9,8.1c-0.1,0.3-0.3,0.6,0.1,1.2c2.3-0.8,4.5-1.9,6.9-2.8c1.5-0.6,2.1-1.8,1.1-3.1c-1.3-1.9-2-4.2-4.8-5
		c-3.2-0.9-2.4-4-2.4-6.5c0-2,0.5-4.1,2.9-4.3c3.6-0.3,2.6-3,2.8-4.8c0.2-2.2-1.6-3-3.6-3.1c-3.5-0.2-7-0.9-10.5-0.9
		c-1.6,0-3.4-0.1-4-1.8c-0.9-2.5,0.5-4.7,1.8-6.6c1-1.5,2.5-1.1,3.9-0.5c1.2,0.5,2.3,0.5,3.5,0.2c8.3-1.6,16.4-4.2,24.4-6.7
		c4-1.2,8.1-1.2,12.1-2.1c2.4-0.5,3.5,1.1,3.3,3.5c-0.4,4.2-3.8,5.4-7.1,6.9c9.3-0.4,18.2-2.2,26.2-6.9c7.1-4.2,14.9-6.3,22.9-7.5
		c6.7-1,8.8,1.3,7.4,7.8c-0.3,1.2-0.8,2.1,1.1,2.6c5.6,1.7,10.9,10.6,9.7,16.3c-0.6,2.9,0.1,3.9,3.1,3.9c3-0.1,5.4,1.9,8.2,2.6
		c0.8,0.2,1.4,0.9,1.6,1.8c1.2,5.1-2.6,10.5-7.9,11.3c-5.4,0.8-7-0.1-8.9-5.1c-0.3-0.7-0.7-1.3-1.2-1.7c-2-1.7-2.1-3.6-0.8-5.7
		c1.3-2.2,0.6-4-1.5-4.6c-3.8-0.9-7.7-1.2-11.3,1.1c-2.3,1.4-2.6,3.8-0.6,5.7c1.1,1.1,2.2,2.5,3.5,3c3.3,1.5,5.4,5.1,9.4,5.2
		c1.1,0,1.8,0.7,2.1,1.7c0.3,1.2-0.2,2.1-1.1,2.8c-1.6,1.2-3.4,1.7-5.3,2.2c-4.4,1.1-8.6,2.3-12.1,5.4c-1.5,1.3-3.4,1.8-5.4,1.7
		c-1.1-0.1-2.4-0.1-2.7-1.3c-0.4-1.2,0.7-2,1.6-2.5c2.1-1.1,3.9-2.4,5.2-4.3c1.4-2.2-0.2-9.2-2.5-9.8c-2.5-0.7-4.4,1.6-6.6,2.4
		c-1.5,0.6-0.8,1.8-0.5,2.8c1.1,3.2-0.9,4.8-3.4,5.8c-3.5,1.3-7.1,2.1-10.6,3.7c-2.1,0.9-3.9,0.1-5-2.1c-2.8-5.5-9.8-6.5-14.2-1.9
		c1.5,0.1,2.4-0.9,3.5-1.6c1.1-0.7,2.3-0.8,3.3,0.3c1,1.2,0.5,2.3-0.4,3.2c-2,1.9-4.1,3.6-7.1,3.9c-2.5,0.3-3.3,2.5-1.4,3.7
		c3.7,2.3,4.3,6.2,6.4,9.2c2.2,3.1,5.1,4.3,8.7,5.6c4.6,1.8,7.1,0,9.8-2.6c0.2-0.2,0.4-0.3,0.6-0.4c1.9-1,11.4,0.9,12.5,2.7
		c1.6,2.6,3.5,1.9,5,0.3c1.6-1.6,3.1-2.2,5.2-1.4c2.1,0.8,3.2-0.4,4-2c1.5-3,3.8-4.2,7.2-4.3c5.1-0.1,10.3-4.5,11.5-9.2
		c0.6-2.2,1.9-3.5,4.1-4.1c2-0.6,4.1-0.6,6.1-0.9c2.6-0.4,4.5-0.2,3.7,3.2c-0.3,1.1,0.5,1.8,1.3,2.3c1.4,1,3,1.6,4.7,1.9
		c5.5,1.1,7.5-0.6,7.1-6.1c-0.3-4.2-0.2-8.3-0.6-12.5c-0.5-5.6,2.5-9.5,6.7-12.7c3.2-2.4,6.2-5,7.8-8.8c0.3-0.8,0.9-1.5,0.9-2.3
		c-0.3-6,3.7-8.6,8.4-10.8c3.3-1.6,4.3-1.1,4.7,2.4c0.6,4.7,0.6,9.5,2.1,14.1c1.8,5.7,4.9,8.4,10.9,9c0.5,0,1.3,0.2,1.3-0.1
		c-0.5-4.6,6.5-3.9,6.1-8.9c-0.3-3.7,1.5-7.5,0.1-11.3c-0.7-2.1-0.2-4,0.8-5.9c1.6-2.8,1.6-5.4-0.7-7.9c-0.3-0.3-0.6-0.8-0.8-1.2
		c-1-1.7-2.6-3.6-1-5.5c1.5-1.8,3.4-0.3,5,0.3c2.1,0.9,3.3,0,5-1.3c4.6-3.4,4.5-7.3,3.9-12.4c-0.6-5.1-1.5-10.1-2.2-15.2
		c-0.6-4.8-2.5-9.2-6.9-12.1c-0.7-0.5-1.6-1.1-1.6-1.8c-0.1-4.8-4.1-5.7-7.3-7.4c-2.6-1.5-5.3-3-7.7-4.8c-0.6-0.4-1.2-1-1.1-1.7
		c0.1-1,1.1-1.4,1.9-1.3c5.6,0.3,8.7-1.6,7.6-7.8c-0.3-1.8,1.4-3.2,2.7-4.5c1.3-1.3,1.5-2.7,0.7-4.2c-1.9-3.3-4.1-6.5-7-9.1
		c-1.7-1.5-2.9-1.5-3.7,0.9c-1.9,5.4-4.2,10.7-6.2,16.1c-0.9,2.4-1,4.3,1.9,5.5c1.4,0.6,2.3,1.9,1.8,3.5c-0.4,1.4-1.8,1.9-2.9,1.4
		c-5-2.2-7.6,1.9-9.3,4.6c-4.5,7.3-10.1,13.7-15.5,20.2c-3.8,4.6-7.7,9.6-13.7,12c-1.1,0.5-2,1.3-2.9,2.1
		c-6.4,5.3-13.1,10.1-21,13.2c-12.2,4.8-24.5,8.7-37.5,11c-14.7,2.6-29.2,5.5-44,7.2c-18.8,2.2-37.7,3.4-56.5,2.3
		c-13.8-0.9-27.5-3.8-41-7.5c-16.3-4.5-32-10.7-48-16.1c-4.3-1.5-7.5-4.4-9.6-7.8c-2.6-4.2-7.1-6.9-9.1-11.5
		c-0.5-1.1-1.9-1.4-2.9-2.1c-2.3-1.6-4.5-3.3-4.5-6.5c1.5-2.1,2.9-2.1,4.4,0.1c3,4.2,3.9,4.2,7.9,0.9c6.7-5.5,13.6-10.6,20.9-15.3
		c1.4-0.9,3.6-2.7,4.7-0.9c1.2,1.9-1.5,2.8-2.9,3.8c-6.5,4.5-13,9.1-19.2,14c-4.8,3.8-4.8,4.1,0.1,8c2.7,2.2,5.4,4.4,8.4,6.2
		c0.9,0.5,1.9,1.1,2.2,2.3c2,2.3,5.1,2.7,7.7,3.7c5.8,2.3,11.2,5.8,17.2,7.7c2.9,0.9,5.6,2,8.8,1.6c1.9-0.2,3.6,0.8,5.2,2.5
		c2.6,2.9,6.8,3.4,10.4,4.4c7.1,2,14.4,2.8,21.7,3.9c2.1,0.3,4.3,0.3,6-0.3c8.1-2.6,14.9,2.1,22.3,3.3c12,1.9,23.9,1.9,36,0.7
		c13.9-1.3,27.7-3.4,41.4-6.1c17.4-3.4,35-6,51.1-14.1c5.7-2.9,11.1-6.2,16.4-9.7c2.2-1.5,2.1-2.5,0.3-4c-3.9-3.5-7.7-7.1-11.4-11
		c4.4,2.1,7.7,5.6,11.6,8.5c4,3,5,3,8.7-0.5c3.2-3.1,0.3-4.8-1.4-6.8c-0.3-0.3-0.5-0.7-1.2-1.5c2.8,0.8,3.6,3.6,5.9,4
		c2.6,0.5,3.9-1.9,5.1-3.4c3.5-4.4-2.1-5.9-3.2-8.8c0.3-0.4,0.7-0.2,0.9,0.1c5.6,4.8,5.6,4.8,10.1-1c2.3-2.9,5-5.7,6.4-9
		c1.7-4,5.1-6.6,6.8-10.5c1.8-4.3,3.6-8.6,5.2-12.9c1.6-4.4,2.9-8.8,4.3-13.3c1.6-5.3,1.8-10.8,2.7-16.1c0.1-0.8-0.2-1.9,1.3-1.4
		c4.6,8.9,9.3,17.7,13.7,26.7c1.7,3.5,4.1,6.6,4.8,10.5c-0.2,1.1,0.5,1.7,1.3,2.2c0.7,1.4,1.4,2.9,2.1,4.3c-0.4,0.5-0.6,1-0.3,1.6
		c3.4,7.6,7,15,10.4,22.6c0.4,0.8,0.9,1.7,1.7,2.3c0.5,1,1.1,1.9,1.6,2.8c0.1,0.5,0.2,1,0.3,1.4
		C546.2,348.6,547.2,351.2,549.8,353.2z"/>
	<path class="st20" d="M214.5,361.2c-6.2-2.4-10.6-7.3-15.8-11.1c-1.7-1.3,0-2.3,0.8-3.1c6-5.5,12.7-10.2,19.4-14.8
		c2.2-1.5,4.4-3.1,6.4-4.8c-4.3,1.3-7.8,4.1-11.2,6.8c-5,3.8-10.2,7.2-14.8,11.4c-3,2.8-7.1,1.7-8.3-2.5c-0.7-2.6-1.9-0.8-2.8-1.1
		c-2.8-0.6-4.3-2.8-5.9-4.9c-1-1.3-0.2-2.4,0.6-3.5c0.5-0.5,1.2-0.8,1.6-1.3c-0.5,0.5-1.1,0.8-1.6,1.3c-1.4,2-3,1.3-4.3,0.1
		c-3-3.1-5.8-6.3-8.4-9.7c-1.2-1.6-0.9-3,0.7-4.3c2.5-1.8,4.9-3.6,7.5-5.2c-2.3,1.5-4.6,3-6.8,4.7c-1.8,1.5-3.4,1.7-4.9-0.3
		c-4.7-8.4-9.8-16.5-13.1-25.5c-0.6-1.6-1.8-3.2-0.4-5c0.9,0.2,1.9,0.7,2.8,0.7c7.5-0.2,15-0.1,22.4,0.9c10.2,1.3,19.1-2.1,27.9-6.2
		c8.4-3.9,17.1-7.1,26.1-9.6c1.3,1.1,2.7,0.7,4.1,0.4c4.6-1,9.1-2.1,14.5-3.3c-1.9,3.8-1.8,7.9-3.8,11c-1.9,3-1.4,5.7-0.8,8.5
		c0.5,2.1,0.7,4.2,0.2,6.3c-0.1,0.4-0.7,0.9-0.1,1.2c3.3,1.7,4.6,5.2,7.5,7.5c3.1,2.4,5.9,2.4,9.2,2.8c7.8,1,15.5,1.8,23.4,1.2
		c4.8-0.3,9.5-1.5,14.2-2.8c1.4-0.4,2.7-1,4.2-0.8c1.7,0.9,3-0.2,4.4-0.7c5.8-2,11.3-4.7,16.1-8.6c3.2-2.6,3.9-2.5,7.2,0
		c3.4,2.7,7.1,4.8,11.1,6.6c1.3,0.6,2.9,0.8,2.9,2.7c-1,1.4-2,2.6-4.1,2.2c-4.2-0.9-8.6-1.3-12.7-2.6c-3.6-1.1-6.8-1.3-10.2,0.4
		c-2.6,1.3-5.3,2.3-8.3,2.3c-3.5,0-3.1,2.8-2.5,4.7c1.3,4.5,3.5,8.6,7.5,11.5c1,0.7,2.4,1.1,2.1,2.6c-0.2,1.3-1.7,1.5-2.8,1.9
		c-1.1,0.4-2.9,0.5-2.7,1.9c0.2,1.4,2,1.5,3.3,1.7c6.5,1.1,12.7-0.1,18.7-2.6c3.1-1.3,5.3-0.9,6.9,2.2c4.5,8.6,11.6,14.3,20.5,17.8
		c7.6,3,15.4,5.5,23.8,5.5c8,0,15.9,0.4,23.8-1.3c0.7-0.2,1.6-0.3,2,0.4c0.6,0.8-0.3,1.5-0.4,2.3c-0.2,1.2-2.3,2.1-1.1,3.3
		c0.9,0.9,2.5,0.2,3.8-0.1c7.1-1.6,13-5.8,19.5-8.6c1.4-0.6,3.2-3,4.3-1.1c0.9,1.5-0.1,4.4-2.3,5.4c-3.2,1.4-2,3-0.9,5
		c0.8,1.4,1.4,1.7,2.7,0.5c3.1-2.7,7.4-3.5,9.6-7.7c1.1-2.2,4.4-2.1,6.9-0.9c1.2,0.6,2.4,1.4,2.6,2.8c0.2,1.6-1.4,1.7-2.5,2.1
		c-1.8,0.7-2.4,2.6-3.9,3.6c-11.3,8.1-24.2,12.5-37.5,15.5c-15,3.4-30.2,6.2-45.4,9c-4.9,0.9-10,1.4-15.1,1.7
		c-7.7,0.4-15.4,1.8-23.1,0.2c-4.6-1-8.2-4-12.2-6.1c-3.3-1.8-6.7-3.1-10.3-3.1c-11.5-0.1-22.8-1.5-34.3-2.4
		c-8.2-0.6-16.2-2.5-23.9-5.5c-4.8-1.8-9.8-2.5-14.7-3.9C227.7,364.9,221.1,363,214.5,361.2z"/>
	<path class="st21" d="M346.9,306c-5.7-3-12-5.1-16.6-9.8c-1-1-1.7-0.3-2.4,0.3c-5.5,5-12.2,8-19.2,10.2c-1.4,0.4-2.8,1.4-3.5-0.8
		c7.3-2.7,14-6.3,19.5-11.8c5.2-5.1,6.1-14.9,2.3-21c-0.7-1.1-1.3-2.3-1.8-3.5c-1.1-2.8-3.3-4.3-6.1-5c-0.9-0.2-1.9-0.4-2.8-0.7
		c-4-1.4-6.2-4.4-5.9-8c0.3-3.1,3.4-5.9,7.2-6.5c2.3-0.4,4.5-0.5,6.8-0.2c4.4,0.6,8.9,0.3,13.4,0.2c1.7,0,3.4-0.1,5.1,0.1
		c3.7,0.3,7.1,3.3,7.4,6.6c0.3,2.8-2.3,7-5.6,7.5c-5.5,0.8-8.2,3.6-10.8,8.5c-2.9,5.6-2.9,10.9-2.4,16.5c0.3,3.8,3.2,6.4,6.1,8.6
		c5.7,4.5,11.9,8.1,19.1,9.6c0,2-1.2,1.6-2.4,1.3C351.9,307.4,349.4,306.7,346.9,306z"/>
	<path class="st22" d="M544.5,341.1c-2.2-0.5-3-2.4-3.6-4.1c-2.3-6.8-6.6-12.8-8.9-19.6c-0.4-1.1-1.2-2.2,0.7-2.8
		C536.6,323.4,540.5,332.3,544.5,341.1z"/>
	<path class="st22" d="M530.5,310.3c-1.1-0.3-2.6-0.5-1.3-2.2C529.7,308.8,530.1,309.6,530.5,310.3z"/>
	<path class="st19" d="M153.5,288.1c2.4,6.7,5,13.2,8.8,19.3c2.1,3.3,3.8,7.2,5.7,10.8c-2.2,1.2-3.1-0.6-4-1.9
		c-1.5-2-2.4-4.4-3.5-6.6c-0.5-1.1-1.4-2.2-2.7-2.1c-1.3,0.1-1.5,1.4-1.8,2.4c-1.4,5.3-3.8,10.3-5.2,15.6c-0.9,3.3-2.5,5.9-6.4,6.3
		c-1.3,0.1-2.5,0.8-3.5,1.8c-1.8,1.9-3.9,2.1-6.3,0.7c0.6,0.6,0.9,1.3,0.8,2c-1.5,7.9-3.9,15.3-12.6,18.5c-1.8,0.7-3.6,1.4-5.2,2.6
		c-1.3,1-2.5,2.2-0.2,3.4c0.8,0.4,1.3,1.1,1.5,1.9c1.2,5,4.8,8.4,7.9,12.2c1.4,1.8,2.6,3.7,3.7,5.7c4,7.8,8.3,15.3,12.4,23
		c1.6,3,2.5,6.2,3.4,9.4c0.4,1.3,0.4,2.6-0.6,3.7c-2.6,0.1-2.5-2.1-3.1-3.6c-3.2-7.5-3.3-7.8-9.2-2c-8.4,8.3-14.5,18.1-19.3,28.8
		c-1.3,2.9-2.7,5.8-4.3,8.7c-0.8,1.4-1.6,3.9-3.3,3c-2-1-0.5-3.2,0.2-4.7c1.3-2.8,2.6-5.6,3.8-8.5c3.5-6.4,6.6-13,10.9-19
		c0.6-0.8,0.9-1.7,0.7-2.7c-2-10.5-0.9-21.2-1.2-31.8c0-0.5,0-1-0.6-1.9c-4.2,3.6-7.9,7.6-11.8,11.4c-1.6,1.6-3,5-5.5,3.7
		c-2.7-1.4-0.3-4.3,0.1-6.4c1.6-8.8,3.2-17.6,5.1-26.5c-1.6,0.5-2.4,1.8-3.9,1.8c-1.7-0.2-2.8-1.2-3.6-2.6c-0.4-1.5,0.2-2.8,0.7-4.1
		c3-8,6.7-15.8,9.4-23.9c0.5-1.4,1.3-2.5,2.5-3.4c4.7-10.7,9-21.5,14.3-31.9c5.5-10.6,10.7-21.3,16.9-31.5c1.3-2.2,1.9-4.6,2.8-6.8
		c1.2,0.6,1.5,1.7,1.6,3C149.4,273.5,151.3,280.9,153.5,288.1z"/>
	<path class="st23" d="M424.5,494.3c4-5.8,7.5-12,12.9-16.7c0.7-0.6,1.4-2.1,2.6-1.4c0.9,0.6,0.6,2,0.3,3c-0.8,3-1.7,5.9-2.5,8.9
		c-0.2,0.9-1.2,2.1,0.2,2.9c1.1,0.6,2.2,0.2,3.1-0.4c2.8-1.9,4.9-4.6,7.3-6.9c5.6-5.3,5.9-12.5,8-19.1c0.2-0.7-0.2-1.9,0.9-2.1
		c1.2-0.2,1.5,1.1,1.8,1.9c1.1,2.9,1.7,5.9,1.8,9c0,0.9,0.2,2.1,1.2,2.4c1,0.3,1.3-0.9,1.8-1.5c2.5-3.2,4.9-6.5,7.3-9.8
		c0.6-0.8,1.1-1.7,2.3-1.4c1.1,0.3,1,1.4,1.2,2.4c0.2,1.3-0.8,3.5,1.1,3.6c1.5,0.1,1.4-2.2,1.9-3.5c0.6-1.6,0.8-3.2,1.2-4.8
		c0.8-2.7,2-5,4.9-6.3c2.7-1.2,4.6-3.4,6.1-5.9c0.5-0.8,0.9-2.1,2-1.7c0.9,0.3,1,1.5,1,2.5c0,2.4,0,4.8,0,7.2c0,0.9-0.3,2.2,0.8,2.5
		c1.3,0.4,1.4-1,1.8-1.8c1.6-2.6,1.6-5.7,2.7-8.4c3.2-8.3,4.7-16.7,4.1-25.5c-0.1-0.9-0.3-2.1,1-2.3c1-0.1,1.2,1,1.5,1.8
		c2.5,5.5,4,11.2,4.6,17.2c0.2,1.9,0.5,3.7,1.1,5.8c3.1-1.6,3.4-4.9,4.5-7.4c2-4.7,2.9-9.8,3.1-14.9c0-0.9-0.4-2.2,0.8-2.5
		c1-0.3,1.5,1,2.3,1.5c1,0.8,1.2,2.4,3,2.8c-0.4-2.9-3.6-3.7-4.5-6.5c2.5,0.3,3.9,1.7,5.3,3.2c1.4,1.6,2.7,3.3,4.4,5.3
		c1.8-3,0.3-4.8,0.4-6.7c0.3-11.2-1-22.3-2.7-33.3c-0.2-1.4,0.5-2.2,1.4-3c1.1-1,2.1-0.2,3,0.3c4,2.5,7.9,5.1,11.8,7.6
		c1.7,1.1,3.5,2.1,5.6,3.4c0-3.5-1.7-6-2.9-8.6c-2-4.2-4.4-8.2-6.5-12.4c-0.5-0.9-1.5-1.9-0.6-2.9c0.9-1,2-0.3,3,0.1
		c2.3,0.9,4.5,1.8,6.7,2.6c1.2,0.4,2.3,1.7,3.6,0.4c2.1,1.1,1.2,2-0.2,2.9c-3.1,2-3.9,3.9-3.2,7.7c0.5,2.6,1.7,5,2.4,7.5
		c0.7,2.5,0.7,4.9-2.5,5.6c-1.8,0.4-1.8,1.8-1.7,3.1c0.8,6.9,1.9,13.7,3.6,20.4c1,4,1.6,4.1,6.7,3.9c-3.2-2.5-3-9.9,0.4-12.1
		c1.8-1.1,3-0.1,4.1,1c4.3,4,6.1,9.3,8.2,14.5c0.3,0.8,0.3,1.6,0.9,2.3c-1.6-7.2-3.1-14.3-5.5-21.3c-1.3-3.8-2.6-7.7-3.5-11.6
		c-0.4-1.7-0.9-3.6,1.2-4.7c0.7,0.1,1.4,0.1,2.1,0.2c2,1.8,3,4.3,4.7,7c0.7-2.5,1.4-4.9,4.3-4.1c3.1,0.7,3.8,3,3.6,5.8
		c-0.1,1.4,0.4,2.6,1,3.7c0.9,1.7,2.1,3.5,1.9,5.3c-0.7,6.6,5.1,8.8,8.2,13.4c1-3,0.6-5-1.2-6.7c-1.4-1.3-2.2-2.8-1.9-4.8
		c0.3-1.6,1-3,2.6-3.6c1.7-0.7,3.1-0.2,4.3,1c0.4,0.4,0.7,0.9,1.6,1.2c1.3-1.3,0.7-3.3,1.5-4.8c0.5-1,1.1-2,2.3-2
		c1.3,0,1.8,1.1,2.1,2.2c3.1,11.6,1.7,21.4-7.9,31.2c-0.7,0.7-1.4,1.3-2.3,1.8c-3.2,1.8-5.3,0.8-5.7-2.9c-0.2-1.4,0-2.9-0.5-4.2
		c-0.3-0.9-0.8-1.8-2-1.7c-1.2,0.1-1.6,0.8-1.8,1.9c-0.3,2.7-1.4,5.3-0.1,8.1c0.4,0.7,0.6,1.7,0.1,2.4c-2.2,4-0.7,7.9-0.1,11.8
		c0.7,4.4,2.3,8.8,1.9,13.4c-0.1,4.5-0.8,9,0.5,13.5c2.3,16.7,2.7,33.5,2.4,50.3c0,1.7-0.2,3.3-0.3,5c-1.1,1.8-2.9,2-4.8,2
		c-23.1,0-46.2,0-69.3,0c-1.2,0-2.4-0.1-3.5-0.6c-2.5-1.8-1.5-4-0.5-6.1c2.4-5.2,4.8-10.4,7.4-15.5c1.3-2.5,2.5-5.2,3.3-7.9
		c1.4-4.8-0.6-6.9-5.5-5.8c-8.6,2-17.3,3.4-26,4.4c-9.3,1.1-18.4,0.3-27.4-1.1c-10.4-1.6-20.6-4.1-30.4-7.9
		C425.8,498.8,422.9,497.9,424.5,494.3z"/>
	<path class="st24" d="M506.6,538.7c24.7,0,49.3,0,74,0c1.4,0,2.9,0.2,4.3-0.6c0,0.4,0.1,0.8,0.1,1.2c-0.6,5.5-1,11-1.7,16.5
		c-0.8,6-1.7,11.9-2.6,17.9c-1.5,7.6-2.7,15.2-4.9,22.6c-3.6,12.2-6.8,24.6-12.3,36.1c-1.9,4.6-3.8,9.1-5.7,13.7
		c-2.7,1.8-5.9,1.1-8.8,1.5c-26.4,3.6-51.1-1.9-74.5-14c-2.8-1.4-5.8-2.5-8.6-3.7c-1.5-0.7-3.2-1.2-4.2-2.6c-0.8-1.6-0.1-3,0.6-4.4
		c6.2-12.1,11.2-24.7,15.5-37.6c1-2.9,3.3-5.2,4.4-8.2c5.5-3.3,7.4-9.2,10.2-14.4c3.7-6.8,7.5-13.6,10.9-20.5
		C503.8,540.8,504.4,539,506.6,538.7z"/>
	<path class="st25" d="M482.7,577.5c-0.4,2.1-0.8,4.2-2.7,5.6c-0.6,0.5-0.9,1.4-1.1,2.2c-4.4,14.4-10.4,28.1-17.3,41.5
		c0.2,1.5-0.7,2.7-1.4,4c-3.6,7-7.6,13.8-9.3,21.5c-2,6.6-4.2,13.1-5.9,19.8c-0.7,2.9-0.7,5.4,0.4,8.3c2.3,5.8,3.6,11.8,3.6,18
		c0.2,6.6-1.7,12.8-3.8,19c-0.9,2.5-1.9,4.9-4.7,5.9c-4.7,4.9-10.6,6.3-17.3,6c-3.4-0.2-6.9,0.1-10.3,1.2c-0.9,1.4-2.4,1.5-3.9,1.5
		c-11.5,0.2-23,0.1-34.4-1.3c-4.4-0.6-8-2.5-11-5.7c-7.2-10.9-9.1-23.1-8.5-35.8c1.2-3.6,0.5-7.3,1.4-11c3.5-15,8.2-29.7,13-44.3
		c0.9-1.5,1.2-3.4,1.9-4.9c-0.2-0.3-0.3-0.3-0.6-0.1c-1.5,0.8-2.6,3.2-4.6,1.9c-1.7-1.2-0.6-3.3-0.3-5c3.9-18.8,11.6-36.3,20-53.5
		c1.7-3.5,3.5-7.1,5.2-10.6c1.2-1.3,1.5-3,2.4-4.4c2.3-3.9,4.4-4.6,8.3-2.3c3.1,1.9,6.3,3.6,9.5,5.3c9.5,5.3,19.7,8.5,30.6,9.1
		c5.8,0.3,11.6-0.3,17.3-1.5c4.2-0.9,8.3-1.5,12.6-0.6c1.6,0.3,3.4,0,5.1-0.2c5.9-0.7,8.4,2.2,6.9,7.9
		C483.6,575.8,483,576.6,482.7,577.5z"/>
	<path class="st26" d="M440.5,723.3c5-7.6,7-16.1,7.4-25c0.9-0.3,1.7,0.1,2.4,0.4c13.9,5.3,28.3,5.1,42.8,4.4
		c11.3-0.6,21.3-4.6,31.3-9.3c1.7-0.8,3.7-2.1,5.7-0.3c-4.5,4.9-8.9,9.9-13.6,14.6c-4.5,4.5-9.8,8-15.5,10.9
		c-7.6,3.3-15.7,4.3-23.8,5.2C464.9,725.4,452.7,724.1,440.5,723.3z"/>
	<path class="st27" d="M530.2,693.4c-5.1,0.7-9.5,3.3-14,5.5c-6.2,3.1-12.7,4.3-19.4,5.1c-10.2,1.2-20.4,1.1-30.7,0
		c-5.5-0.6-10.9-2.1-16.1-3.9c-1-0.3-1.6-1.1-2.1-1.8c-0.6-6.8-1.6-13.4-4.6-19.6c-0.7-1.4-0.9-2.7-0.5-4.1
		c2.3-7.6,4.2-15.4,7.1-22.8c2.2-1.8,4.4-0.7,6.5,0c9.9,3.6,20.2,5.9,30.3,8.6c10,2.7,20.1,2.5,30.2,1.2c4.6-0.6,9.1-1.1,13.6-2.1
		c7.2-1.7,13.6-4.9,19.6-8.9c1.9-1.2,3.8-3.2,6.5-1.7c-5.4,14.3-12.5,27.7-22.5,39.5C532.9,690.1,531.5,691.7,530.2,693.4z"/>
	<path class="st28" d="M556.7,648.9c-3,0.4-5.3,2.3-7.6,3.9c-8.8,6.1-18.8,8.9-29.4,9.8c-4.4,0.4-8.8,1-13.3,1.3
		c-11.9,0.8-23-3.1-34.3-5.9c-5.7-1.4-11.3-3.2-16.8-5.3c-1.7-0.6-3.5-1.1-5.3-1c-0.1-3.4,1.7-6.2,3-9c2.5-5.5,4.7-11.2,8.7-15.9
		c15.5,6.5,30.3,14.7,47.1,18c13.4,2.6,26.7,3.6,40.2,1.5c2.8-0.4,5.8-0.1,8.7-0.1C556.6,646.8,557.1,648,556.7,648.9z"/>
	<path class="st29" d="M582.3,469.4c-2.5-5-2.3-10.6-3.6-15.9c-0.8-3.1-2.1-6.5,0.8-9.4c0.2-0.2,0.3-1.1,0-1.3
		c-3.4-3.4,0.4-7.3-0.7-10.9c-0.5-1.5,1.7-1.2,2.7-1.6c1.6-0.6,2.8,0,3.5,1.6c0.8,1.7,0.7,3.5,0.7,5.3c0,1.1-0.5,2.6,0.8,3.2
		c1.5,0.7,2.8-0.3,3.9-1.2c5.1-4,7.6-9.7,9.7-15.6c1.3-3.7,0.7-7.3-0.2-10.9c-0.5-2.1,0.3-4.6-1.6-6.6c-2.1,1.4-1.7,3.5-1.8,5.4
		c0,1.3-0.4,2.5-1.7,2.9c-1.5,0.5-2.2-0.7-2.6-1.8c-0.8-2.1-2.3-2.7-3.9-1.3c-1.7,1.4-2.6,4-0.8,5.3c2.9,2,3.2,4.6,3.5,7.6
		c0.1,1,0.4,1.9-0.6,2.5c-1,0.6-2.1,0.2-2.5-0.6c-2.7-4.7-9.7-6.9-8.3-14.1c0.3-1.4-0.8-3.2-1.7-4.6c-1.1-1.8-2-3.4-1.2-5.7
		c0.6-1.7-0.7-3.3-2.6-3.7c-1.8-0.4-3.3-0.1-2.4,2.4c0.4,1,1.3,2.1-0.3,2.7c-1.3,0.5-2.5-0.4-3-1.5c-1-2.5-2.8-4.7-3.2-7.5
		c0.5,0,1,0,1.5,0c2.2,1.3,4.3,0.9,6.5,0.1c6.9-0.4,13.6,0.8,20.3,2.1c0.2,0.2,0.3,0.3,0.4,0.5c0.5,1.1,0.1,2.9,1.8,3.1
		c1.5,0.2,1-2,2.2-2.4c4.5,0.1,8.6,2.3,12.9,3c1.8-0.1,3.5,0.3,5.2,1c6.9,2.9,13.8,5.8,20.2,9.6c1.6,0.9,3,1.9,3.8,3.7
		c3.7,2.8,7.8,5.1,11,8.5c-2,0.8-2,2.9-2.6,4.5c-4.2,11.2-11.2,20.4-20.9,27.6c-11.2,8.3-23.7,13.1-37.6,14.4
		C587.6,470.2,584.9,470.1,582.3,469.4z"/>
	<path class="st30" d="M563.4,393.9c-1.3,3.8,0.6,7.3,1.8,10.6c3,8.4,4.9,17.1,7.3,25.7c0.4,1.6,1.2,4.3-0.6,4.7
		c-1.7,0.4-2.2-2.4-2.7-4.1c-1.6-6-4.3-11.5-8.6-16.1c-1.2-1.3-2.2-1-2.8,0.3c-1,2.3-1.7,4.7-1.8,7.2c0,1.5,0.5,2.6,2.4,2.1
		c1.2-0.3,2.3,0,2.4,1.4c0,1.4-1.2,1.2-2.2,1.2c-1.6,0.1-3.1,0-4.7,0.5c-1.4,0.5-2.3-0.2-2.9-1.5c-0.6-1.4-1.5-2.8-1.8-4.3
		c-1.3-6.9-2.5-13.8-3.5-20.7c-0.3-2.1-0.8-4.9,3.3-3.8c1.6,0.4,1.8-1.3,1.5-2.5c-0.5-1.7-0.9-3.5-1.7-5.1
		c-1.8-3.6-1.6-7.3-0.9-11.1c0.3-1.7,1.4-1.6,2.7-1.7c1.4-0.1,3,0,1.7-2.1c-1.7-3.7-3.4-7.5-5.3-11.5c3.7,0.1,4.7,4.3,8,4.3
		C557.9,376.3,560.6,385.1,563.4,393.9z"/>
	<path class="st23" d="M598.2,397.6c0,0.4,0,0.7,0,1.1c0,1.2,0.2,2.8-0.9,3.2c-1.4,0.5-2.3-1.3-3.6-1.8c-1.8-0.8,0.2-1.7,0.1-2.6
		c0-0.3,0-0.7,0-1.1C595.3,396.6,596.8,396.6,598.2,397.6z"/>
	<path class="st22" d="M549.8,353.2c-3.7-1.1-5.5-5.2-3.3-7.8C547.6,348,548.7,350.6,549.8,353.2z"/>
	<path class="st23" d="M573.4,394.2c-2.2,1.8-4.4,2.7-6.5-0.1C569.1,394.1,571.3,394.1,573.4,394.2z"/>
	<path class="st31" d="M282.3,240c6-6.6,7.3-14.3,5.8-22.8c4.3,4.5,8,9.3,7.7,15.9c-0.2,5.2-1.7,6.8-6.9,6.8
		C286.6,240,284.5,240,282.3,240z"/>
	<path class="st2" d="M263.9,203.5c-1.2,0-2.4,0-3.6,0C261.5,202.6,262.7,202.7,263.9,203.5z"/>
	<path class="st32" d="M401.9,224c-0.1,3.8-0.8,8-3.4,11.6c-2.3,3.1-5.5,3.6-8.3,1c-5.1-4.8-5.4-11.1-5.4-17.5c0-1.3,1.3-1.2,2-1.7
		c1.8-1.2,3.1-2.5,0.7-4.4c-0.4-0.3-0.9-0.6-0.7-1.1c0.9-2.3,2.6-4.1,4.7-5.2c1.7-0.9,3.5-0.3,5,0.9c2.3,1.9,3.3,4.6,4.1,7.4
		C401.4,217.8,401.9,220.6,401.9,224z"/>
	<path class="st33" d="M257.3,223.6c0-6.2,1.3-11.1,4.9-15.1c4.2-4.6,8.5-3.8,10.8,1.9c2.9,7.3,2.2,14.5-1.1,21.5
		c-1.3,2.7-3.1,5.4-6.7,5.2c-3.5-0.2-5-3-6.3-5.7C257.5,228.7,257.2,225.8,257.3,223.6z"/>
	<path class="st22" d="M145.5,417c0.3-4-1.1-7.6-2.8-10.9c-3.7-7.4-8.2-14.5-11.8-21.9c-2.5-5.2-6-9.7-9.8-14
		c-1.5-1.7-2.4-3.8-2.9-6.1c-0.3-1.4-0.6-3.2-3-2.5c-1.5,0.4-1.5-0.6-1-1.7c0.8-2.1,2.2-3.6,4.4-4.5c4-1.6,7.8-3.5,11-6.7
		c1.9-1.9,2.7-3.8,2.8-6.2c0.1-1.5,0.3-2.8,1.1-4.1c1.1-1.7,2.6-3.5-1.3-3.4c-0.5,0-0.8-0.5-0.8-1c0.1-0.6,0.6-0.7,1.1-0.7
		c1,0.1,1.9,0.4,2.8,0.6c2,0.5,4,0.8,5.2-1.7c0.6-1.3,2.3-1.4,3.5-1.4c3.5,0,4.7-2.3,5.6-5c1.8-5.4,3.5-10.8,5.3-16.2
		c0.5-1.5,0.4-3.9,2.6-3.8c2.2,0.1,4.1,1.6,4.6,3.9c0.6,2.5,2.3,4.4,3.3,6.7c0.5,1,1.4,1.6,2.6,1.7c1.3,2.2,2.6,0.9,3.9,0.1
		c3.2-2.2,6.2-4.7,10.8-6.6c-3,3.1-6.1,4.5-8.8,6.4c-4.1,2.9-4.1,3.1-1,6.9c2,2.4,4,4.8,5.9,7.2c1.2,1.4,2.5,2.3,4.3,1.1l0,0
		c-0.8,1.9-0.2,3.2,1.3,4.5c1.4,1.2,2.6,2.7,3.8,4c0.3,1.8,1.3,3.9,2.8,4.4c5.6,2,6.6,8.5,11.6,11.1c0.4,0.2,0.6,0.7,0.8,1.1
		c2.9,6.2,7.9,9.7,14.6,11.6c6.7,1.9,13,5.1,19.6,7.2c15.8,5.1,31.5,10.1,48,12.8c12.7,2.1,25.4,3.3,38.2,2.5
		c10-0.6,20-0.6,29.9-1.8c14.6-1.7,29.1-4.1,43.5-6.7c5.6-1,11.3-1.5,16.7-3.1c8.8-2.6,17.6-5.2,26-8.7c8.4-3.5,15.7-8.2,22.2-14.3
		c0.9-0.8,2-1.4,3.1-1.7c0.8-0.2,1.7-0.4,2.3-0.9c3.4-3.2,7.5-6.1,9.7-9.9c2.1-3.6,5.4-5.9,7.8-9.2c2.4-3.3,5-6.5,6.8-10.1
		c1.6-3.2,5.5-4.2,7.1-7.4c0.4-0.8,1.5-0.1,2.2,0.4c0.7,0.5,1.4,1,2.2,1.2c0.8,0.2,1.8,0.3,2.2-0.7c0.3-0.8-0.2-1.4-0.8-1.9
		c-0.2-0.2-0.4-0.3-0.6-0.4c-1.4-0.6-3.3-0.4-3.9-2.2c-0.6-2,0.7-3.7,1.3-5.4c2-5.6,4.2-11.2,6.4-16.7c1.1-2.9,1.7-3,4-1.1
		c3.8,3.1,6.5,6.9,8.9,11.1c1.1,2,0.9,3.6-1,5c-2.3,1.7-3.3,3.6-2.6,6.7c1,4.1-0.5,5.6-4.9,5.9c-1.6,0.1-3.3,0-5.1,0.7
		c3.5,2,6.9,4.1,10.5,5.9c1.8,1,3.6,1.9,5.2,3.2c0.5,0.4,1.2,0.9,0.9,1.4c-2,3,0.8,3.6,2.4,4.7c4.3,3,5.5,7.6,6.3,12.3
		c0.4,2.6,1,5.1,1.4,7.7c0.7,4.8,0.5,9.7,1.6,14.4c0.2,0.9,0.2,2.3-0.7,2.6c-2.9,0.9-4.2,3.2-5.9,5.3c-1.8,2.1-3.7,0.2-5.6-0.3
		c-1.1-0.3-2.1-2.3-3.4-0.8c-1,1.3,0.4,2.4,1,3.5c0.2,0.4,0.4,0.9,0.7,1.2c3.9,3.3,3.5,6.9,0.9,10.8c-0.7,1-1.2,2.2-0.6,3.4
		c1.7,3.2,1.2,6.4,0.6,9.7c-0.5,2.9-1,5.8-1.9,8.8c-0.8-0.3-1.5-0.6-2.2-0.7c-1.5-0.3-2.6,0-1.8,1.8c0.5,1.2,0.7,2.3-0.5,3.2
		c-1,0.8-2,0.1-3-0.4c-0.8-0.4-1.8-0.7-2.7-0.9c-5.1-0.8-7.6-4.1-8.9-8.7c-1.5-5.2-1.9-10.5-2.1-15.8c0-1-0.3-2.1-1.1-1.4
		c-3.1,2.5-7.8,3-9.3,7.3c-0.1,0.2-0.3,0.4-0.3,0.6c0.9,7.5-4.5,11.2-9.4,15.1c-4.3,3.5-6.6,7.5-5.9,13.5c0.6,5.1,1.4,10.3,0,15.5
		c-0.6,2-1.7,2.9-3.9,2.9c-4-0.1-7.7-0.6-10.8-3.4c-1.3-1.2-2.7-2-0.2-3.3c0.5-0.2,0.6-0.8,0.3-1.2c-0.2-0.2-0.7-0.5-0.9-0.4
		c-2.3,1.7-5.1,0.5-7.6,1.2c-2.3,0.6-3.8,1.5-3.5,4.1c0.1,1.4-0.4,2.7-1.4,3.6c-3.6,3-7,6.5-12.5,6c-2.2-0.2-3.4,0.7-4.5,2.7
		c-2.6,4.7-2.3,5.5-7.2,3.2c-1.3-0.6-1.7-0.2-2.1,0.9c-1.2,2.9-3.7,2.6-6.2,2.4c-0.9-0.1-1.6-0.6-1.5-1.6c0.4-3.2-1.5-2.8-3.4-2
		c-1.8,0.7-3.4,0.6-4.6-0.8c-1.2-1.5-2.3-1.1-3.3,0.1c-1.5,1.9-4,2.7-5.3,4.8c-0.9,1.5-2.2,1.6-2.7-0.5c-0.4-1.6-1.6-2.3-3-1.7
		c-2.5,1-4.6-0.5-5.9-1.7c-2.7-2.7-5.9-5.2-6-9.5c0-1.4-1.4-1.6-2.3-2c-2.3-1-3.6-2.7-3.1-5.1c0.5-2.5,2.6-2.5,4.9-2.4
		c2.8,0.1,4-2.8,6.1-4c0.5-0.3,0.1-1.1-0.4-1.5c-0.7-0.5-1.6-0.4-1.9,0.3c-1.1,2.9-3.9,1.7-5.9,2.4c-0.8,0.3-1.5,0.1-1.8-0.7
		c-0.2-0.7,0.5-1,1.1-1.1c1.4-0.5,2.6-1.3,3.3-2.7c0.1-0.2,0.3-0.5,0.5-0.5c3.6-1.3,7.3-0.2,10.9,0c1.4,0.1,3,2.2,3,4.5
		c0.1,2.6,2.2,2.9,3.9,1.9c3.1-1.9,6.5-2.5,9.8-3.4c3.3-0.9,3.9-2.5,2.4-5.5c-0.9-1.7-0.6-3.1,1.5-3.5c1.9-0.4,3.6-1.3,5.2-2.5
		c2.2-1.8,3.5-0.7,4.4,1.4c0.4,0.9,0.5,1.9,1,2.7c3.1,5.2,1.5,9.6-4.4,12c-0.9,0.3-1.9,0.5-2.5,1.8c2.6,0.6,5.2,0.8,7-1.2
		c3.5-3.7,8.1-4.5,12.6-5.7c1.5-0.4,3-1,4.4-1.5c1-0.4,1.7-1.1,1.2-2.2c-0.5-1.2-1.4-1.1-2.3-0.5c-0.7,0.5-1.8,0.9-2.3,0.2
		c-1.6-2.1-2.6-4.9-6.1-3.8c-0.4-3.8-5.5-3.8-6.2-7.7c-0.4-2.3,0.3-3.6,1.9-4.7c4.1-2.8,8.8-2.2,13.3-1.7c2.8,0.3,4.1,4.1,2.2,6.3
		c-1.8,2.2-2,3.7,1,4.8c1.4,0.5,1.4,1.5,1.2,2.9c-0.4,2.4,0.8,3.6,3.3,3.5c1.1,0,2.2,0.1,3.2,0.1c3.5,0,6-2.3,6.4-5.7
		c0.1-0.8,0.4-1.6,0.8-2.3c1.5-2.4,0.5-2.8-2-3.6c-3.3-1.1-6.4-2.2-10-2.1c-1.9,0.1-1.6-1.5-1.1-2.6c2.8-7.2-1.9-11.8-5.8-16.8
		c-0.6-0.8-1.4-1.3-2.5-0.6c-0.7,0.5-1.5,1.1-2.2,0.3c-0.8-0.9-0.6-2.1-0.2-3.1c0.5-1.3,1.2-2.5,1.3-4c0.1-2.7-0.9-4.1-3.8-3.8
		c-9.1,0.8-17.7,3.1-25.6,7.8c-7.5,4.4-15.8,6.1-24.4,6.9c-2.1,0.2-4.4-1-6.7-1.9c2.9-0.8,5.8-0.7,8.4-2.7c1.9-1.5,2.1-3.2,2.2-4.9
		c0.1-1.7-1.4-1.3-2.7-1.1c-5.9,1-11.8,2.2-17.5,4c-6,1.8-11.9,3.7-18.1,5c-1.9,0.4-3.5,0.9-5-0.5c-1.4-1.3-2.1-0.5-2.6,0.8
		c-0.3,0.7-0.5,1.4-0.7,2c-1.5,3.6-1.2,3.9,2.9,4c3.7,0.1,7.5,0.4,11.2,0.7c3.1,0.3,4.7,2.8,3.6,5.6c-0.4,1,0.4,1.9-0.1,2.8
		c-0.5,0.9,0.5,1.9-0.4,2.8c-1.5,0.2-2.8-2.3-4.5-0.5c-0.6,0.7-0.9,6.8-0.4,7.7c0.1,0.2,0.3,0.5,0.5,0.5c3.7-0.6,4.4,2.5,6,4.7
		c2,2.7,1.8,5-1.4,6c-2.7,0.8-5.2,1.9-7.6,3.2c-0.8,0.4-1.5,1-2.2,0.1c-0.7-0.8-0.2-1.6,0.3-2.3c1.1-1.5,1.9-3,2.4-4.8
		c0.6-2.1-0.2-3.2-2.3-2.6c-2.9,0.9-3.2-1.4-4-3c-0.9-1.6,0.1-2.5,1.3-3.6c2.4-2.1,3.3-5.3,5.9-7.4c-4.3,0.1-8.2,0.2-11.6,3.1
		c-1.4,1.2-3.4,1.8-5.4,0.4c-1.5-1.1-3.3-0.9-4.1,0.7c-0.6,1.4,0.7,2.9,2.1,3.3c2.3,0.7,3.3,2.4,4.6,4.2c4.6,7.1,8,14.9,13.4,21.5
		c1,1.2,2.2,1.8,3.5,2.4c2.9,1.3,5.4,3.2,7.4,5.6c0.8,0.9,1.7,2.2,0.8,3.6c-0.8,1.2-2.1,0.9-3.3,0.9c-0.4,0-0.8,0-1.1-0.1
		c-5.5-2.5-9.2,0.8-13,3.8c-5.7,4.5-11.8,8.2-18.1,11.9c-1,0.6-1.9,0.9-3.1,0.3c-2.7-1.4-5.4-1.1-8.1,0c-2.4,1-4.4,0.8-6.2-1.3
		c-1.3-1.6-2.8-2.1-4.7-0.8c-2.5,1.7-4.3-0.4-5.7-1.8c-5.3-5.2-6.2-3.3-11-0.8c-2.9,1.5-5.8,2.3-9,0.9c-3.7-1.7-7.9-1-11.7-1.9
		c-3.1-0.7-5.6-3.2-9.3-2c-1.4,0.4-2.8-1.6-2.8-3.5c-0.1-1.8,0.1-3.5,0.5-5.3c0.9-4.1-1.5-7-5.8-7.2c-7-0.2-13.5-1.6-19.1-6.2
		c-4.2-3.4-9.4-2.5-14.3-2.2c-1.3,0.1-2.6,0.5-3.9,0.5c-3.5,0-6.8,0.3-10.2,1.8c-3,1.3-6.6,1.4-9.9,1.7c-4.7,0.5-9.3,1.1-14.1,0.9
		c-2-0.1-3.3-0.5-4.1-2.6c-1.4-3.9-3.3-7.7-4.8-11.6c-0.9-2.3-2.1-4-4.9-3.8c-1.5,0.1-2-0.6-2.4-2c-0.7-2.9-3.3-4.3-6.1-3.2
		c-1.8,0.7-1.8-0.2-2.2-1.1c-0.8-2.1-1.2-4.4-3.3-5.8C144.8,419.2,144.6,418.3,145.5,417z"/>
	<path class="st34" d="M482.7,577.5c0-1.8-0.1-3.6,0.1-5.3c0.3-3.2-0.7-4.2-4.1-4.2c-11,0.1-21.9,1.8-32.9,2.7
		c-8.7,0.7-17.2-1.5-25.4-4.7c-6.9-2.7-13.2-6.3-19.5-10.1c-3.4-2.1-4.2-1.9-6.1,1.6c-0.9,1.6-1.3,3.6-3.1,4.7
		c-1.4-0.9-2.2-0.1-2.9,1c-1.4,2.2-2.6,4.6-4,6.8c-1.1,1.8-2.5,3.3-4.9,3c-2-0.2-3.2,1-4.3,2.2c-2.6,2.6-5.8,3.8-9.3,4.6
		c-1.2,0.3-2.7,0.6-3.4-0.4c-2-2.9-3.5-1.1-5.2,0.2c-3.3,2.6-7.1,4.5-11.2,5.7c-2.7,0.8-5.2,1.3-7.4-0.9c-0.7-0.6-1.6-0.5-2.4-0.5
		c-1,0.1-2,0.4-2.9,0.2c-4.5-0.9-8.9-1.7-11.8,3.2c-0.3,0.5-1.3,0.7-2,0.7c-7.6,0.1-15.3,0.5-21.7-4.7c-1.7-1.4-3.3-2.1-5.3-0.1
		c-1.1,1.1-2.7,0.8-4.1,0.3c-2.1-0.7-4.1-1.6-5.8-2.9c-2.8-2.2-5.3-4.8-9.3-5.1c-1.7-0.1-2.8-1.9-3.7-3.2c-2.7-4.1-6.6-6.9-10-10.3
		c-0.3-0.3-0.7-0.6-1.6-0.3c0.1,2.2,1.2,4.2,2.1,6.2c5.4,12,10.4,24.2,13.6,36.9c0.4,1.7,1.3,3.4-0.1,5.1c-4.2,2.2-8.1,4.6-10.1,9.2
		c-1.1,2.4-3.2,4.3-5.5,5.5c-10.3,5.7-20.4,11.8-32.4,13.7c-10.9,1.7-21.6,1.1-32.2-2c-2.3-0.7-4.6-1.6-6.9-2
		c-2.1-0.7-2.7-2.6-3.5-4.3c-6.1-13-12.1-26.1-18.4-39.1c-2.5-6.3-4.6-12.8-6.7-19.2c-0.6-1.8-1.5-4.1,0.7-5.1
		c2.7-1.3,5.9-0.5,7.7,1.6c2.6,3,6,3.8,9.5,4.5c16.5,3.4,32.6,1.9,48.6-2.9c8.7-2.6,17-6.2,25.2-10c1.9-0.8,2.9-1.7,1.8-4
		c-6.6-14.7-14.2-28.9-23.7-42.1c-2.7-3.7-5.5-7.2-8.4-10.8c-0.9-1.1-2.2-2-1.6-3.7c4.8,1.3,9.5,2.7,14.6,2.2c2.3-0.3,4.3,0.7,6,2.1
		c6.3,5.3,13.7,8.9,21.3,12.1c1,0.4,2.1,1.2,2.8-0.2c1.6-3.2,3.2-1.5,4.7,0c4,4,8.7,6.7,13.7,9.2c2.9,1.5,5.7,2.1,8.2-0.7
		c1-1.1,2.1-1.1,3.3-0.4c1.3,0.8,2.6,1.8,3.9,2.5c2.4,1.3,4.8,3,7.4,0c1.4-1.6,2.9-0.7,4.2,0.2c1.3,0.9,2.4,2,3.7,2.9
		c2.3,1.6,4.4,3,6.7-0.4c1.2-1.7,3.2-0.8,4.5,0.2c2.8,2.1,5.5,4.1,9.2,3.1c4.9-1.4,9.8-2.9,12.5-7.7c1-1.7,2.6-3.1,3.1-5.2
		c0.2-1,1.1-2.1,1.9-1.9c3.7,0.6,7.6-1.8,11.2,0.4c0.7,0.4,1.4,1.2,2.3,0.6c4.1-2.9,9-4.6,12.5-8.3c0.5-0.5,1.1-1.5,1.7-0.7
		c2,2.9,2.9,0.2,3.6-0.8c2.1-2.8,4.5-5.3,7.1-7.5c1.5-1.3,2.8-2.3,3.5,0.6c0.5,1.9,1.8,1.3,2.8,0.8c4.1-1.8,8.4-3,12.2-5.4
		c0.9-0.6,2-1.8,3-0.2c1.3,2,2.6,1.1,3.9,0c1.9-1.6,3.2-3.6,4.4-5.6c0.5-0.9,1.1-1.8,1.8-2.6c0.4-0.4,1-0.9,1.5-0.8
		c0.9,0.1,0.8,1,0.8,1.7c0,1.2,0,2.4,0.1,3.6c0.1,1.4,0.7,2,2.1,1.4c-0.1,2,1,3,2.8,3.7c11,4.1,22.2,7.1,33.9,8.5
		c4.2,0.5,8.4,1.3,12.5,1.4c13.2,0.3,26.1-2.1,38.9-5.1c4.8-1.1,7.6,1.7,6.5,6.5c-0.7,2.8-1.8,5.4-3.1,8c-2.9,5.9-5.7,11.8-8.6,17.7
		c-0.6,1.2-0.9,2.5-0.8,3.8c-3.7,6.8-7.4,13.6-11,20.4c-2.3,4.3-4.7,8.5-6.9,12.9C487.3,574.6,485.9,576.9,482.7,577.5z"/>
	<path class="st35" d="M218.2,499.3c11.8,13.1,20.8,27.9,28.9,43.4c2.4,4.6,3.8,9.8,6.8,14.2c1,1.5,0.5,2.5-1.2,3.3
		c-13.6,6.6-27.7,11.9-42.6,14.6c-13.3,2.4-26.6,1.6-39.7-2.1c-1.3-0.4-2.9-0.6-3.3-2c-0.7-2.3-2.2-2.6-4.3-2.9
		c-4.5-0.6-4.5-0.7-3.4,3.7c-2.2,4.1-4.3,4.2-7,0.2c-6.9-10.3-12.4-21.3-17.8-32.4c-4.6-9.4-8.4-19-11.4-29
		c-1.9-6.5-5.4-12.5-8.2-18.7c-1.4-3.2-4.4-3.9-7.4-4.3c-6.4-0.8-7.9-2.2-8.1-8.6c-0.1-1.8-0.8-2.8-2.3-3.6c-1-0.5-2.8-0.6-2.2-2.6
		c1.4-1.3,3.1-1.4,4.8-1.2c5.7,0.9,11.3,0.3,16.9,0c9.9-0.5,19.7-0.3,29.6-0.9c8.5-0.5,17.1-0.1,25.7,0.1c2.4,0.1,4.8-0.9,7.2,0
		c2.2,2.8,3.3,6.3,6.2,8.9c2.1-2.8,0.3-6.1,1.7-9.5c3.4,7.3,7.2,13.8,11.3,20.1c0.9,1.3,1.5,4.1,3.5,3.3c1.5-0.6,0.1-3,0-4.6
		c-0.1-1.9-1.2-4.6,0.7-5.6c1.5-0.8,2.8,1.8,4,3C210.3,490.7,214.2,495,218.2,499.3z"/>
	<path class="st36" d="M178.9,470.7c-1.9,1.2-4,1.5-6.2,1.4c-8.7-0.3-17.5-1-26-0.2c-11.8,1.1-23.6-0.2-35.3,1.5
		c-3,0.4-6.2,0.3-9.4-0.3c-2.4-0.5-5-0.9-7.4,0.4c-0.7,1-1.7,1.3-2.8,1.4c-5.6,0.5-11.1-0.2-16.6-0.9c-0.7-0.1-1.3-0.5-1.7-1.2
		c0.8-12.7,3.2-25.1,6.1-37.4c1.3-5.4,2.4-10.9,4.3-16.1c2.7-2.1,4.9-4.7,7.9-6.6c2.1-1.3,3-3.9,3-6.6c0-2-0.2-4.1,0.5-6
		c0.5-1.3,1.2-2.5,2.7-2.6c1.8-0.1,2,1.5,2.3,2.7c0.5,2.7,1.5,5.2,3.3,7.5c1.1,1.4,2.4,2.1,4.3,2c2.8-0.1,5.5-0.2,8.3-0.2
		c3.7-0.1,4.5,0.9,5.5,4.4c1.6,5.5-1.9,9.3-4.3,13.4c-2.3,3.9-4.4,7.9-6,12.1c-0.8,4.3-4,7.8-4.2,12.4c1.8-3.6,3.8-7.1,5.3-10.7
		c4.5-10.9,11.1-20.5,18.8-29.4c2-2.2,4.5-4,6.6-6.1c1.6-1.6,2.4-1,3.1,0.7c1.5,3.6,3,7.2,4.5,10.8c-0.1,1,0.2,2,0.8,2.9
		c1.7,7.3,3.4,14.5,5.2,22.7c2.2-3.7,1.6-7.2,3.5-10.5c4,6.4,5.3,13.5,9.3,19.7c1.3-1.4,0.7-2.9,0.5-4.3c-0.1-1.2-1.3-2.9,0.3-3.4
		c1.3-0.4,1.7,1.5,2.1,2.5C170.7,454.8,174.9,462.7,178.9,470.7z"/>
	<path class="st5" d="M200.3,287.6c4-1.7,8-3.6,12.1-5.2c5.5-2.2,11-4.3,16.5-6.2c1.3-0.5,3.4-2.2,4.3,0.2c0.8,2.1,0.4,4.6-1.9,6
		c-3.2,1.9-6.7,3-10.4,3.9c-6.7,1.6-13.5,1.8-20.2,2.4C200.5,288.3,200.4,288,200.3,287.6z"/>
	<path class="st22" d="M183.3,333.2c0.9-1.4,2.1-2.5,3.6-3.2C186.1,331.5,185.2,332.9,183.3,333.2
		C183.2,333.2,183.3,333.2,183.3,333.2z"/>
	<path class="st37" d="M111.4,439.2c-0.2-3.7,2.1-6.5,3.6-9.5c1.3-2.5,2.8-5,4.4-7.3c2.4-3.5,1.2-7.1,0.5-10.7
		c-0.2-1.2-1.4-1.2-2.3-1.2c-3.7,0.1-7.4,0.3-11,0.5c-1.2,0.1-2-0.1-2.8-1.1c-2.3-2.9-4.5-5.9-4.7-9.8c-0.1-0.8,0.3-1.9-0.8-2.1
		c-1.2-0.1-1.6,1.1-1.7,1.9c-0.3,1.6-0.5,3.3-0.3,5c0.5,3.4-1.2,5.9-3,8.5c-0.5,0.7-1.1,1.5-1.9,1.5c-2.6,0-3.5,1.8-4.3,3.7
		c-0.8,1.9-1.8,1.5-3,0.5c0.4-1.9,0.8-3.8,1.3-5.8c-0.6-1.4-0.5-2.6,0.8-3.6c3.6-10.8,7.2-21.7,10.9-32.5c0.8-2.3,1.4-4.8,2.8-6.9
		c1.5-1.2,2.1-3.5,4.4-3.6c1.7-1.5,3.4-2.9,6.1-5.1c-2.3,12.7-4.2,24.4-7.3,37.1c6.7-6.4,11.8-13,18.7-18c1.2,1.2,0.6,2.5,0.7,3.6
		c0.4,10.9-1,21.9,1.3,32.7c0.1,0.6-0.1,1.5-0.4,2C118.4,425.5,115.3,432.6,111.4,439.2z"/>
	<path class="st22" d="M147.7,293.1c0-0.9-0.1-1.6,0-2.3c0.2-1.6,0.5-4.1,2.1-4c2.2,0.2,1.6,3.1,2.2,4.8c0.3,0.9-0.6,1.2-1.4,0.8
		C149.4,291.7,149,293.2,147.7,293.1z"/>
	<path class="st22" d="M104,366.8c-1.4,1.4-2,3.5-4.4,3.6c0.1-2.1,1-3.9,1.7-5.8C102.7,364.9,103.4,365.8,104,366.8z"/>
	<path class="st22" d="M130.9,327.4c-0.1,0.6-0.2,1.1-0.8,1c-0.2,0-0.4-0.5-0.4-0.8c0-0.5,0.2-1,0.8-0.9
		C130.7,326.8,130.8,327.2,130.9,327.4z"/>
	<path class="st19" d="M543.9,448.5c-6.5-6.3-10.6-14.5-18-20.6C529.5,428.4,538,438.3,543.9,448.5z"/>
	<path class="st38" d="M274,609.6c-3-14.3-8.6-27.7-14.5-41c-0.9-2-1.8-3.9-2.6-5.9c-0.5-1.2,0-2.6,0.8-3.3c1.2-1,1.9,0.5,2.5,1.2
		c4,3.9,8.6,7.3,11.6,12.1c1,1.6,2.2,2.8,4.5,2.2c1.9-0.5,3.2,0.9,4.2,2.2c2.2,2.5,5.1,4,8.1,5.3c1.9,0.8,3.6,1.4,4.7-1.2
		c0.8-1.9,2.3-1.2,3.5-0.2c2.9,2.4,6.2,4.1,9.8,5.3c2.3,0.8,4.5,1.5,7,0.3c0.8-0.4,2.2-0.2,3.2,0.1c3.6,1.2,5.8-0.2,7.2-3.4
		c0.9-2,2.2-2.7,4.3-1.4c2.7,1.6,5.5,1.4,8.4,0.7c1.5-0.4,2.8-0.6,3.6,1.3c0.6,1.4,1.8,1.4,3.1,1.1c5.8-1.5,11.2-3.7,15.6-7.9
		c1.7-1.6,3.1-2.7,3.8,0.7c0.3,1.3,1.1,1.6,2.4,1.3c3.9-1,7.7-2.1,10.4-5.3c1.3-1.5,2.7-3.1,5.2-1.6c1.1,0.7,1.9-0.6,2.4-1.6
		c1.8-3.1,3.6-6.2,5.6-9.2c0.5-0.8,0.7-2.4,2.1-1.9c1.2,0.4,0.6,1.9,0.8,2.9c0.1,1.6-0.8,3-1.5,4.3c-5.9,11.4-11.4,23.1-16.1,35
		c-3.6,9.2-5.7,19-8.1,29.3c3-1.8,4.6-4.1,7.5-5.3c-0.7,3.1-1.5,5.7-2.9,8.2c-4.8-1-8.7,0.5-12.4,3.4c-2.3,1.9-5,2.9-8,2.5
		c-0.7-0.1-1.5-0.1-2.1,0.2c-4.1,2.3-8.5,2-13,2c-3,0-5.3-1.4-7.9-2.2c-2.9-0.9-4.2,3.2-7.3,3c-2.3-0.2-4.5-0.6-6.6-1.6
		c-3-1.3-5.8-2.9-8.8-4.2c-2.8-1.2-5.4-2.8-8.4-0.5c-0.7,0.6-1.9,0.3-2.8,0.1c-1.1-0.2-2.1-0.5-3.1-1.1c-4.4-2.5-8.9-4.1-14.1-2.6
		c-3-2.6-3-3.6,0.3-5.4c1.4-0.8,0.7-1.7,0.5-2.4c-0.9-3.5-2.1-6.8-3.1-10.2C273.4,613.2,272.5,611.4,274,609.6z"/>
	<path class="st39" d="M276.2,632.5c4.2-2.3,8-1.6,11.9,0.8c1.6,1,3.5,1.6,5.3,2.3c1.6,0.7,3.1,0.5,4.2-0.9c0.8-1.1,1.5-1.6,3-0.8
		c4.3,2.2,8.7,4.2,13,6.3c5.4,2.6,6.9,2.4,11.3-1.8c1.3-1.2,2.1-0.4,3.1,0.2c6,3.7,12.2,3.2,18.5,0.9c1.2-0.5,2.3-1.4,3.7-0.9
		c2.9,1.1,5.1-0.4,7.3-2c2.7-1.9,5.2-4.1,8.9-4.3c1.9-0.1,3.3,0.1,4.3,1.7c-5.2,18.3-12.4,36.1-14.4,55.2c-1.3-1.9-2.2-2.4-4.5-0.6
		c-2.5,1.9-5.9,3.9-9.3,0.9c-0.8-0.7-1.3,0.1-1.8,0.5c-1.5,1-2.9,2.2-4.6,2.8c-1.4,0.5-3,1-4.1-0.2c-1.8-2.1-3.6-1.2-5.6-0.4
		c-0.4,0.2-0.9,0.3-1.3,0.6c-5.2,4-9.7,3-13.9-1.6c-0.2-0.3-0.6-0.5-0.9-0.6c-0.1,0-0.2,0-0.4,0c-1.9,4.8-3,5.3-8,3.4
		c-4.4-1.7-8.7-3.6-12.2-6.8c-1.4-2.1-1.1-4.6-1.5-6.9c-2.4-14.2-7.2-27.7-11.7-41.3C275.9,636.9,274.5,634.7,276.2,632.5z"/>
	<path class="st40" d="M290.8,686.9c4.3,2.7,8.7,5.1,13.6,6.7c2.9,0.9,4.1,0.3,3.9-2.8c-0.1-0.9-0.4-2.2,0.6-2.6
		c1.2-0.5,1.7,1,2.6,1.5c0.2,0.1,0.3,0.3,0.5,0.5c5.4,5,5.4,5,11.9,1.9c1.8-0.9,3.8-1.6,5.7-2.3c1-0.3,2.3-0.7,2.6,0.8
		c0.6,3.1,2.6,1.6,3.8,1c2.6-1.4,5-3.2,7.9-5.2c-1.1,4.1-0.1,3.6,3.1,2.9c2.6-0.6,4.3-1.7,6.1-3.2c0.8-0.7,1.4-2.1,2.6-1.6
		c1.2,0.5,0.4,1.9,0.6,2.9c0.1,0.6,0.1,1.2,0.2,1.8c-0.1,12.3,1.3,24.2,8.1,34.9c-27,1-53.9,0.9-80.9,0.6c-0.5-1.1-0.1-2.1,0.4-3.1
		c4.2-9.1,5.2-18.9,5.5-28.7C289.5,690.8,288.9,688.6,290.8,686.9z"/>
	<path class="st41" d="M165.9,590.9c3.8,5.9,6.2,12.5,9.2,18.7c4,8.1,7.8,16.3,11.6,24.4c1.7,0.6,2.1,2.2,2.8,3.6
		c5.7,11.5,9.8,23.6,14.5,35.5c0.9,2.2,0.6,4.4-0.4,6.6c-3.4,7.9-5,16.1-4.6,24.8c0.3,6.2,2.2,11.7,6.3,16.4c1,1.1,2.4,2.1,1.8,4
		c-7.3,0.4-14.6-0.4-21.9-0.8c-7.1-1.1-13.5-4.1-20-6.8c-1.7-0.7-3.4-1.4-4-3.3c-0.4-1.9,0.5-3.5,1.7-4.9
		c8.6-9.4,16.6-19.3,25.2-28.6c2.3-2.5,5.1-4.4,7.5-7.1c-2.5-1.2-4.9-0.8-7.2-0.7c-13.3,0.8-26.6,0.7-39.9,0c-6.6-0.4-13.3,0-20-0.1
		c-6.2-0.1-12.3,0.4-18.5-0.4c-1.9-0.5-2.9-2.1-3.9-3.6c-7.5-12.3-13.6-25.3-19.3-38.4c-0.6-1.4-0.4-2.8-0.6-4.2
		c-2.2-6.9-5-13.6-6.8-20.6c-1.2-5-3.1-9.7-3.4-14.9c3.4-2.8,7.4-1.5,11.1-1.3c2.6,0.1,5.3,0.4,8,0.4c21.5,0,43.1,0,64.6,0
		C162.1,589.5,164.2,589.3,165.9,590.9z"/>
	<path class="st42" d="M207.2,724.8c-2-3.1-5-5.3-6.7-8.8c-4-8.5-3.3-17.1-1.6-25.8c0.7-3.6,1.9-7.2,3.4-10.5c1.3-2.7,1-4.8,0-7.4
		c-4.8-12.1-9-24.6-15-36.2c-0.3-0.6-0.4-1.4-0.6-2c1.2-1.4,2.5-0.5,3.6,0c8.6,3.8,17.8,4.1,26.9,4c8.5,0,16.9-1.7,24.5-6.2
		c3.5-2,7.4-3.3,11-5.3c4.9-2.7,10.1-5.1,11.3-11.4c3.5-1.6,5.2-6.2,9.9-5.5c0.6,5.5,3.2,10.4,4.4,15.6c0.3,1.5,1.6,3.2,0.4,4.4
		c-1.3,1.4-2-1.7-3.8-0.9c-0.3,1.4,0.4,2.6,1.1,3.8c3,9.6,5.9,19.2,9,28.8c2.5,7.8,4.2,15.8,5,23.9c0.1,0.6,0.4,1.1,0.6,1.6
		c0,9.2-0.3,18.4-2.7,27.5c-1,3.7-2.4,7.2-4.5,10.3c-4.8,4.5-10.8,5.6-17,5.6c-16.5,0.1-33,0.5-49.5-1.3
		C213.3,728.6,210.1,727,207.2,724.8z"/>
	<path class="st43" d="M162.1,714.4c6.2,3,12.6,5.4,19,7.8c1.5,0.5,3,0.8,4.2,1.9c-7.7,0.9-15.4,0.7-23.1,0.1
		c-8.1-0.7-16.2-1-24.2-1.5c-1.2-0.1-2.4-0.4-3.6-0.7c0.3-1.5,2.5-1.6,2.5-3.5c-4.9-0.6-9.7,0.7-14.6,0.7c-9.1,0.7-16-4.5-23.6-8.4
		c2.1-2,5.2-1.4,7.4-3.5c-7.6-2.3-14.7-5-21-10.1c2.5-0.8,4.6-1.5,6.3-2c-1.4-1.7-2.5-3.7-4.2-5.1c-9.3-7.6-12.7-17.6-13-29
		c-0.1-2-0.2-4.1-0.1-6.1c0-1.3-0.6-3.3,2.2-2.9c0.9,0.1,0.7-1,0.9-1.7c2.8-8.3,5.9-16.5,9.3-24.7c5.1,11.4,10.1,22.9,16.1,33.8
		c2.2,4,4.3,8,7.2,11.5c1.6,0.7,2.7,1.9,3.7,3.3c12.1,16.1,28,27.8,45.6,37.5C160.3,712.5,161.5,713,162.1,714.4z"/>
	<path class="st44" d="M165.9,590.9c-24.9,0-49.8,0.1-74.7-0.1c-4.9,0-9.9-0.7-14.8-0.5c-1.2-6-2.4-12-3.6-18
		c-3.7-19.4-4-39-3.4-58.6c0.4-13.4,1.7-26.8,3.7-40.1c0-0.3,0.3-0.6,0.5-0.9c7,0.1,14,1.2,21.1,0.7c4.9,0.6,5.8,1.6,5.8,6.3
		c0.1,4.7,1.9,6.4,6.6,6.3c4-0.1,7.3,2.1,9.1,5.6c6.1,11.2,9,23.6,13.9,35.2c6.6,15.6,14.3,30.7,23.4,45c2.4,3.8,3.9,0.6,5.8-0.2
		C161.7,578,164,584.4,165.9,590.9z"/>
	<path class="st19" d="M445.5,401c-1.7-0.9-2.3-1.8-1.8-3.4C444.7,398.3,445,399.4,445.5,401z"/>
	<path class="st45" d="M162.1,714.4c-10.5-3.7-18.9-10.8-27.6-17.3c-9.6-7.3-18.2-15.6-24.6-25.9c14.4,0,28.8,0.1,43.2,0
		c3.8,0,7.4,0.7,11.2,0.8c9.7,0.3,19.3-1.2,28.9-0.8c1,0,1.9,0,2.9,0c0.9,0,1.6,0.4,1.9,1.3c0.3,0.9-0.2,1.6-0.9,2.2
		c-13.1,9.8-21.5,24-33.1,35.2C162.7,711.1,162.2,712.6,162.1,714.4z"/>
</g>
</svg>
