<?xml version="1.0" encoding="utf-8"?>
<!-- Generator: Adobe Illustrator 27.4.0, SVG Export Plug-In . SVG Version: 6.00 Build 0)  -->
<svg version="1.1" id="Layer_1" xmlns="http://www.w3.org/2000/svg" xmlns:xlink="http://www.w3.org/1999/xlink" x="0px" y="0px"
	 viewBox="0 0 720 720" style="enable-background:new 0 0 720 720;" xml:space="preserve">
<style type="text/css">
	.st0{fill:#D30D25;}
	.st1{fill:#A3B5A7;}
	.st2{fill:#DCC9A9;}
	.st3{fill:#C9D2C9;}
	.st4{fill:#BEB8A7;}
	.st5{fill:#FBF4E5;}
	.st6{fill:#6B8E8A;}
	.st7{fill:#52B09F;}
	.st8{fill:#F7E4D1;}
	.st9{fill:#FDF8EC;}
	.st10{fill:#FDF8EE;}
	.st11{fill:#9FB4A6;}
	.st12{fill:#AAC0B5;}
	.st13{fill:#B5B4A8;}
	.st14{fill:#CED5CA;}
	.st15{fill:#F0E5CF;}
	.st16{fill:#FAF3E5;}
	.st17{fill:#1E516C;}
	.st18{fill:#DFC6A2;}
	.st19{fill:#9A9294;}
	.st20{fill:#DDDFD2;}
	.st21{fill:#A7A497;}
	.st22{fill:#948A90;}
	.st23{fill:#97978C;}
	.st24{fill:#547474;}
	.st25{fill:#C38F45;}
	.st26{fill:#F9EDD6;}
	.st27{fill:#EFDCBE;}
	.st28{fill:#D6DCD0;}
	.st29{fill:#FDF8EF;}
	.st30{fill:#E5D3B8;}
	.st31{fill:#F0AC3C;}
	.st32{fill:#F1E7D5;}
	.st33{fill:#FBCDC8;}
	.st34{fill:#FBCAC6;}
	.st35{fill:#FBD671;}
	.st36{fill:#C08C47;}
	.st37{fill:#C68529;}
	.st38{fill:#A06B25;}
	.st39{fill:#A57321;}
	.st40{fill:#2C211A;}
	.st41{fill:#302A25;}
	.st42{fill:#F6CA4F;}
	.st43{fill:#642A2A;}
	.st44{fill:#4E2C26;}
	.st45{fill:#342123;}
	.st46{fill:#191615;}
	.st47{fill:#191514;}
</style>
<rect x="0" y="0.5" class="st0" width="720" height="720"/>
<g>
	<path class="st1" d="M573.3,335.9c0.2,0,0.5,0,0.7,0c5.8,8.5,11.7,17,17.4,25.5c3.9,5.9,7.9,11.9,10.9,18.4c0.7,1.4,1.7,2.2,2.8,3
		c1.8,1.2,3.5,2.4,5.7,3.9c-1.8,0.8-2.6-0.9-4.2-0.3c8.2,12.1,14.3,25.2,21,38c2.9,6.9,5.8,13.8,8.6,20.7c0.4,0.9,0.6,1.9,0.8,2.9
		c0.9,2.3,0.4,4.5-0.7,6.6c-2.3,4.6-5.6,8.3-10.3,10.4c-3.3,1.5-6.2,4.1-10.1,4c-0.7-0.9-0.7-1.9-0.4-2.9c2.3-8.4,3.4-17,5.8-25.4
		c2.4-8.2,1.1-15.4-5.1-22.2c-4.5-5-10.4-8.5-13.9-14.3c-0.7-1.2-2.1-1.4-3.3-1.7c-2.4-0.5-4.8-0.9-7.1-1.8c-2.3-0.9-4.1-0.8-5.1,2
		c-0.4,1.2-1.4,2.2-3,1.8c-2.4-2.3-1.5-5.3-1.8-8c-0.8-8.7-2.1-17.4-2.8-26.2c0.1-1.1-0.6-2-1-2.9c-0.3-0.8-0.3-1.7-0.3-2.5
		c-2-8.2-3.2-16.5-5.4-24.7C572.4,338.8,572,337.2,573.3,335.9z"/>
	<path class="st2" d="M616.4,469c1.8-1.6,3.9-2.7,6.1-3.6c7.9-3.2,13.3-8.6,14.6-17.4c4.1,8.4,7,17.2,10,26
		c5.8,17.3,10.5,34.8,14,52.7c1.1,1.1,1.8,2.4,2,4c0.8,7.7,1.7,15.4,2.4,23.1c0.2,1.8,0.2,3.6-0.6,5.2c-1.2,1.8-2.1,0.7-2.9-0.4
		c-0.7-0.9-0.6-2.2-2-3.3c-3,5.1-5.9,9.9-5.9,16.2c0,9.1-4,17.1-8.8,24.6c-2.8,4.4-5.6,9-8.9,13c-9.1,10.7-19.4,20-32.5,25.6
		c-6.5,2.8-12.4,2-18-3.2c-7.5-7-14.2-14.3-17.2-24.4c-2-6.6-5.8-12.6-5.2-19.8c0.3-6.3,2.4-12.1,3.8-18.2c0.2-1,0.7-1.9,0.7-2.9
		c0.2-0.8,0.4-1.6,0.4-2.4c-0.1-1.3,0.6-2.4,0.7-3.6c2-9.8,4.5-19.5,5.9-29.3c0.1-0.6,0.2-1.3,0.3-1.9c1.2-7.1,1.2-7.1-5.8-7.7
		c-2.3-0.2-4.6-0.5-6.9-0.9c-2.7-0.5-5.3-0.5-8,0.4c-1.3,0.5-2.7,0.9-4,0c-1.1-1.6-0.9-3.3,0.2-4.6c1.9-2.3,1.6-4.7,0.9-7.2
		c-1-4-2.4-7.8-3.7-11.7c-0.9-2.7-1.9-5.7,0.4-8c2.4-2.4,5.6-1.3,8.3-0.4c4.8,1.6,8.8,4.6,13.2,7c7.6,4.1,7.8,4.1,10.2-4.1
		c1.1-3.6,1.5-7.3,1.5-11c0-12,2-23.9,1.7-35.9c0-1.4,0.1-2.8,1.2-3.9c1.3-0.8,1.8,0.4,2.4,1.1c2.4,3,5.2,5.5,8.1,8.1
		c5.3,4.8,8.5,11.1,11.3,17.5c0.8,1.9,1.6,3.7,2.5,5.6c0.9,1.9,1.9,2.1,3.4,0.4C613.5,471.9,614.3,469.8,616.4,469z"/>
	<path class="st3" d="M106.6,677.3c-4-10.3-8.2-20.6-11.1-31.3c-3.6-13.4-6.2-27-7.5-40.9c-1.2-12.9-1.5-25.8-1.3-38.7
		c0-1.5-0.3-3.1,0.6-4.5c1.3,0.8,1.4,2.1,1.4,3.4c-0.4,4.6,0.2,9.2,0.1,13.8c0,1.7,0.8,2.8,2.2,3.7c8.3,5.4,15.4,12.2,21.8,19.8
		c3,3.5,6.4,6.7,9.7,9.8c5.7,5.4,12.9,6.4,20.3,6.6c1.5,0,3.1-0.3,4.6,0.2c3.7,2.8,7.8,4.8,11.9,6.9c7.7,3.9,14.2,9,18.4,16.8
		c0.7,1.3,1.6,2.3,3,2.9c4.3,1.8,7,5.4,9.8,8.9c6.9,8.6,9.6,18.8,11.2,29.4c0.3,1.7,0.2,3.3-0.6,4.9c-1.7,3.2-5.3,3.1-7.6-0.3
		c-2-3-4-3.6-6.6-2.2c-1.4,0.7-1.9,1.6-0.9,3c1.5,2.1,3.2,3.6,6.1,3c2.2-0.4,4.5-0.8,6.9-0.8c2.2,0,4.1,0.7,5.2,2.7
		c1.1,2.1-0.2,3.7-1.5,5.1c-4.1,4.6-8.7,8.7-14.5,11.1c-12.9,5.5-26.2,9.5-39.8,12.7c-1.4,0.3-2.8,0.3-4.2,0.3
		c-6.1-2.7-10.6-7.5-15.1-12.1c-3.8-3.9-7.5-8-10.3-12.7C114.2,692,110.3,684.7,106.6,677.3z"/>
	<path class="st4" d="M199.7,738.9c-12.8-0.4-25.4-2-37.8-5.7c-4.6-2.7-10-3.8-14.5-7c-1.1-0.8-2.4-1.4-3.3-2.6
		c1.2-1.3,2.9-1.4,4.5-1.8c13.3-3.1,26.4-7.2,39-12.4c5.6-2.3,9.9-6.3,13.9-10.6c1.1-1.1,2.9-2.2,1.7-4.1c-1-1.6-2.8-2.2-4.8-1.9
		c-2.4,0.3-4.8,0.8-7.1,1.2c-2.7,0.5-8.1-3.6-8.2-6.2c0-0.9,0.7-1.3,1.3-1.8c4.1-3.1,7.8-2.3,10.2,2.3c0.7,1.2,1.4,2.2,3,1.9
		c1.3-0.2,2.4-0.8,2.7-2.3c0.1-0.9,0.5-1.8,0.4-2.6c-1.7-12.3-5.4-23.8-13.8-33.3c-1.9-2.1-3.7-4.2-6.7-4.9
		c-1.7-0.4-2.8-1.7-3.5-3.3c-3.3-7.2-9.4-11.6-15.9-15.5c-2.9-1.8-6.2-3-9.2-4.7c-1.7-1-3.9-1.6-4.3-4c-1.3-1-1.4-2.4-1.4-3.8
		c0-3.3-0.4-6.6-0.7-9.9c-0.5-5.5,1.4-7.4,6.9-6.6c5.4,0.8,10.5,0.1,15.5-1.7c5.3-1.8,6.1-3,5-8.5c-2.5-12.7-3.2-25.6-5-38.4
		c-0.8-5.9,1.2-11.4,3.3-16.8c0.4-0.9,0.9-2,2.1-1.9c1.2,0.1,1.7,1.3,1.7,2.3c0.1,6.7,4.6,12.8,2,19.8c-0.7,1.7,0.3,4,1.5,5.4
		c4.1,4.6,6,10.3,8.1,15.8c3.6,11.5,6.3,23.2,9.7,34.7c6,20.4,13,40.4,21.5,59.9c1.1,2.6,2.6,5,3.8,7.5c3.6,9.4,8.1,18.4,12.1,27.6
		c0.8,1.9,1.9,3.7,1.3,5.8c-1.4,2.6-4.2,2.6-6.5,3.4c-2.4,0.7-5,1.1-7.5,1.3c-1.4,0.1-3.2,0.1-3.7,1.4c-0.6,1.5,1.2,1.9,2.2,2.7
		c1.7,1.3,1.6,2.7,0.4,4.2c-1.2,1.4-2.7,2.4-4.1,3.4c-5.3,3.5-10.8,6.8-15.2,11.4C200.1,738.8,199.9,738.8,199.7,738.9z"/>
	<path class="st5" d="M452.4,765.5c-5.3,2.4-10.4,2.5-15.2-1.3c-3.4-0.8-3.1-3.8-3.3-5.4c0.2,1.1,0.1,2.9-2.2,3.7
		c-4.2,5-9.6,4.1-15.1,2.9c-1.1-0.3-2.1-0.7-3.2-1.1c-3,0.1-4.9-2-7.1-3.6c-6.3-6.5-8-14-5.6-22.6c0.2-1.3,0.6-2.5,1.1-3.6
		c1-3.4,2.2-6.9,4.2-9.9c2.9-4.4,3-9,2.5-14c-0.9-10.2-0.4-20.4,2.4-30.4c5.2-7.6,12.7-12,21.2-14.9c4.2-1.4,8-0.4,11.9,1.3
		c4,1.7,7.8,3.7,12.3,4.1c10.8,1,21.1-1.2,31.3-4c9.3-2.5,18.5-5.2,28.1-5.6c4.4-0.2,8.7,0.2,12.8,1.7c3.3,1.2,6.3,2.9,7.8,6.4
		c0.3,4.1-2.2,7.2-3.5,10.7c-2.4,4.3-3.9,9-6.2,13.3c-2.7,7.6-6.4,14.7-9.2,22.2c-2.2,6.4-5,12.5-6.6,19.1c-0.4,1.5-0.9,2.9-0.7,4.5
		c0.1,5.8-0.9,11.5-3.2,16.8c-2.3,5.1-5.7,9.2-12,9.3c-1.1,0.2-2.2,0.5-3.4,0.6c-6.9,0.6-8.6-0.5-11.2-7.7c-1.9,6.3-5.7,9.3-12,9.3
		c-6,0.1-10.9-1.4-12.9-8.6C454.7,761.7,454,763.8,452.4,765.5z"/>
	<path class="st6" d="M516.3,714.9c1.3-5.3,4-10,6.1-15c1-2.4,2.1-4.8,3.1-7.2c3.1-1.4,6.6-2.2,9.5-4.1c2.5,1.1,2.6,3.6,3.1,5.8
		c0.9,3.5,1.6,7,3,10.3c2.1,4.7,4,5.3,8.3,2.5c4.6-2.9,8.2-6.9,12.1-10.6c5-4.9,10.2-9.3,17.6-10.1c0.9-0.1,1.7-0.5,2.5-1
		c8-2.4,16-4.3,24.1-6.4c6-1.6,11.2-4.3,15.6-8.5c7.6-7.2,16.7-12.1,26-16.7c1.6-0.8,3.5-2.1,5.1,0.2c0.7,2,0,3.8-0.5,5.6
		c-3.8,11.5-8.5,22.7-14.2,33.4c-0.7,1.4-1.5,2.7-3,3.4c-4.5,6.1-8.3,12.8-13.6,18.4c-8.7,8.9-18.6,15.8-30.3,20.1
		c-0.5,0.2-0.9,0.5-1.3,0.8c-3.6,0.8-7.2,1.6-10.8,2.4c-1,1-2.2,1.1-3.5,0.7c-4.5-2.6-9.7-3.9-14-7c-5.3-3.8-10.1-7.8-13.3-13.5
		c-1.4-2.6-3.3-3.4-6.3-2.6c-4.3,1.1-8.6,2.4-12.9,3.6c-1.7,0.5-3.5,0.9-5.3,0.9C519.2,720.1,517.6,718.9,516.3,714.9z"/>
	<path class="st7" d="M101.2,691c-0.3,0.2-0.5,0.3-0.8,0.5c-0.1-0.2-0.4-0.5-0.3-0.6c0.2-0.3,0.5-0.5,0.7-0.7
		C100.9,690.5,101,690.7,101.2,691z"/>
	<path class="st8" d="M87.5,565.9c-0.1-1.3-0.1-2.6-0.2-3.9c0.1-5.1,0.1-10.2,0.8-15.3c-1.7-1.6-1-3.5-0.9-5.4
		c2.3-26.4,10.3-51.3,19.3-76c3.9-10.7,8.5-21.1,13.1-31.5c0.8-1.8,1.4-3.9,3.8-4.5c3.1,0.5,4.7,2.9,6.4,5.1c1.1,1.4,2,3,3.4,4.1
		c1.6,1.3,3,1.5,4-0.6c0.9-1.9,2.2-3.3,4.5-2.7c2.6,0.6,5.2,1.9,5.7,4.6c0.7,3.8,2.9,7.5,0.5,11.8c-1.5,2.7,2.8,10,5.6,10.9
		c5.9,1.8,7.4,3.8,6.6,10.1c-0.8,6.6-1.5,13.3-2.6,19.8c-2.7,15.3-4,30.7-4.2,46.2c-0.1,7.2-1.1,14.3-3.5,21.4
		c-3,8.7-3.2,18.1-4.8,27.2c-0.4,2.5-0.5,5.1-1.1,7.6c-0.7,3-2.6,4-5.5,2.8c-3-1.2-5.4-3.2-7.7-5.6c-5.4-5.8-10.3-12.1-15.8-17.8
		c-2.5-2.6-5-4.2-8.8-2.2c-1.8,1-4,0.5-6.1,0.1c-1.8-0.3-3.5-0.9-5.3-1C89.1,570.9,89.1,570.9,87.5,565.9z"/>
	<path class="st9" d="M573.3,335.9c1.9,8.7,3.8,17.5,5.7,26.2c0.2,1,0.2,2,0.3,3c-3.6,0.8-5.1-0.1-6-4.2c-0.4-1.8-0.8-2.8-3-2.4
		c-8.8,1.7-17-0.5-24.9-4.4c-0.3-0.2-0.7-0.2-1.1-0.3c1.6,0.4,2.9,1.1,3.7,2.6c1.2,2.3,0,4.5-2.5,3.9c-2-0.5-2.3-0.2-1.9,1.6
		c0.1,0.7-0.5,1.2-1.2,1.4c-3.1,0.6-3.4,3.3-3.8,5.6c-1.1,7.5-4.1,13.9-9.3,19.4c-1.6,1.7-2.4,3.9-3.6,5.9c-5,8-10.7,15.5-17.6,21.7
		c-8.4,7.6-18.5,12.2-30,13.4c-8,0.9-15.3,3.6-22.6,7.4c-27.6,14.3-56.7,19.7-87.4,11c-9.9-2.8-19.7-5.5-29.4-9
		c-9-3.3-17.4-7.6-24.7-13.8c-2.1-1.8-4.4-2.4-7.1-2.1c-11.4,1.5-22.7-0.6-34.2-1.6c0.7,1.5,2.1,2.5,3.5,3.4
		c6.3,3.8,10.6,9.3,13,16.1c2.1,6,6.5,7.8,12.1,8.2c5.1,0.4,10.2-0.6,15.3-0.7c16.6-0.5,32.7,2.4,48.5,6.8
		c9.4,2.6,18.9,3.6,28.4,3.8c17.8,0.4,35.6-0.3,53.2,3.3c4.5,0.9,9-0.4,13.1-2.3c5.4-2.5,11.4-2.9,17-4.8c2.5-0.8,4.3,0.7,6,2.5
		c3.2,3.8,10.3,3.5,13.3-0.6c1.1-1.4,2.3-2.4,4-2.8c4.3-0.9,8.2-3.2,12.6-4.3c3.8-1,6.5-5.1,9-8.6c1.4-2,2.8-4.5,6.1-3.5
		c1.1,2.3-0.4,4-1.7,5.5c-5.4,6.5-11.4,12.5-17,18.8c-1.3,1.4-3.1,2.2-4.8,3.1c-6,3.1-12.2,5.9-17.9,9.7c-3.3,2.2-7.1,3-10.8,3.8
		c-10.1,2.2-20.1,5-30.1,7.9c-14.5,4.3-29.5,6.3-44.3,9.5c-1.4,0.3-3,0.1-4.1,0.9c-4.9,3.7-10.1,2.3-15.4,1.3
		c-13.9-2.8-27.6-1.7-41.6,0.2c-11.9,1.6-24.6,1.9-36-3c-12.6-5.4-25.6-9.7-38.3-14.6c-17.5-6.8-31-18.2-38.9-35.7
		c-6-13.2-17.3-21.3-28.2-29.9c-3.7-2.9-6.7-6.3-9.9-9.6c-0.9-0.9-1.6-2-1.3-3.4c2-1.8,3.4-0.2,4.5,1c10.2,10.5,22.9,18.2,32.1,29.6
		c2.1,2.7,4.4,3.5,7.6,2c2.1-1,4.4-1.4,6.5-2.2c4-1.5,5.7-3.5,4-7.3c-3.5-7.7,1.2-12.3,4.8-16.9c-1.8,1.8-3.7,4.3-6.1,6.3
		c-2.7,2.3-4.3,2.1-6.3-0.8c-2-3-3.8-6.1-4.9-9.6c-0.7-2.3-1.2-4.8-2.4-6.9c-1.1-2.1-1.3-3.7,0.4-5.6c1.9-2.2,1.1-3.9-1.2-5.3
		c-8.1-4.9-16.2-9.7-24.8-13.9c-0.9-0.4-1.8-1-2.7-1.5c-2.3-1.4-5-2.7-5-5.8c0-3.1,3-3.8,5.2-5c0.9-0.5,1.9-0.8,3-2.3
		c-3.6,1.3-6.7,2.4-9.8,3.2c-2.9,0.7-5.2,0.3-7.1-2.3c-1.5-2.1-3.8-4.6-6-4.2c-2.1,0.4-1.4,4-2.1,6.1c-3.9,11.8,1.7,21.7,6.4,31.7
		c0.8,1.7,2.7,3.3,1.1,5.5c-2.9,0-3.7-2.4-4.9-4.3c-4-6.8-5.9-14.4-8.3-21.8c0.7-11.1,1.6-22.1,4.9-32.8c0.3-1,0.2-2,0.3-3
		c0.4-3.8,3.2-6.5,4.1-10.1c2.2-5.5,2.3-11.5,4-17.1c2-2.4,3.5-0.9,4.5,0.9c2.9,5.1,6.4,9.9,8.9,15.2c4.1,8.7,10.7,15.3,18.1,20.6
		c3.9,2.8,6.3,6.7,10.1,9.3c7,4.7,14.5,8.7,21.7,13c1.8,1.1,3.3,2.1,4.2,4.2c2.1,4.5,6.4,7.3,9.1,11.3c0.9,1.3,2.6,0.8,4,0.7
		c2.7-0.2,4.3,0.8,3.9,3.7c-0.5,3.4,1.3,5,4.1,5.9c2.9,1,5.9,1.6,8.9,2.2c8.6,1.6,15.2,6.5,21.2,12.3c10,9.7,21.2,16.7,35.3,18.7
		c5.5,0.8,10.9,2.7,15.3,6.7c0.4,0.4,0.9,1.1,1.5,0.2c1.6-2.3,4-1.6,6-1c10.4,3,20.9,0.7,31.3,0.4c7.3-0.2,14.5-1.7,21.8-0.6
		c3.5,0.5,6.9-0.4,10-2.1c17.6-9.6,35-19.8,53.2-28.5c3.3-1.6,6.5-3.5,9.3-6c2.1-1.9,2.4-3.6,0.5-5.9c-2.8-3.4-6.1-6.5-8.4-10.5
		c-0.5-1-1.7-2.1-0.8-3.1c1.1-1.3,2.3-0.1,3.4,0.4c4.3,2.3,7.4,5.8,11,8.9c2.2,1.9,3.8,1.6,5.4-0.4c0.4-0.5,0.8-1,1.2-1.5
		c6.1-7.7,6.1-7.7-1.2-14.2c-3.5-3.1-3.5-4.6-0.2-5.9c3,0.5,5.3,2.4,7.8,4c1.6,1,3.3,2.1,4.8,0.3c4.8-5.7,12.1-7.5,17.9-11.6
		c4.5-3.2,8.9-6.5,13.1-10c6.6-5.5,9.8-13.3,12.5-21.3c1.7-4.8,2.7-5.7,7.7-5.5c1.8,0.1,3.6-0.1,5.3,0.7c2,1.7,4.3,2.5,6.9,2.9
		c5,0.8,10,1.9,15,3.1c1.5,0.4,3.3,0.5,3.9,2.5c-0.2,0.2-0.3,0.4-0.5,0.6c-1.8,1.5-3.6,0.6-5.5,0.3c-5.3-1.1-10.6-2.4-16.1-2.9
		c-0.5,2.1,1.4,3.7,0.4,5.5C572.4,333.9,572.9,334.9,573.3,335.9z"/>
	<path class="st8" d="M188.1,402.1c2.6,4.8,6.8,8.2,10.8,11.6c8.3,6.9,17.2,13.2,23.9,21.9c3.6,4.7,5.9,10.1,8.7,15.3
		c7.7,14.3,20.3,22.5,34.6,29c6.7,3.1,14,4.1,20.7,6.8c4.4,1.8,8.7,3.8,12.9,5.9c7.5,3.7,15.5,4.9,23.8,4.9c3.8,0,7.7-0.3,11.5,0.6
		c1.7,0.4,3.5,0,5.3-0.5c13.7-3.5,27.5-3.2,41.4-0.6c2.5,0.5,5.1,0.6,7.5,1.7c0.8,0.4,1.9,0.5,2.6-0.1c4.3-3.7,9.7-3.6,14.8-4.5
		c21.4-3.9,42.3-9.5,63.3-15.2c1.1-0.3,2.3-0.4,3.4-0.7c5.9-1.3,11.5-3.1,16.6-6.5c4.4-3,9.4-5.1,14.2-7.5c2.6-1.3,4.6-3,6.5-5.2
		c3.9-4.7,8.2-9.1,12.4-13.6c2.1-2.2,3.8-4.5,5.1-7.1c-0.6-1.2,0.3-2,0.8-2.9c1.2-1.3,2.1-2.8,3-4.3c0.5-0.7,1.1-1.4,1.7-2
		c2-1.9,4.1-3.8,5.8-6c0.3-0.4,0.7-0.8,1.1-1.1c3.4-2.5,6.7-5,9.6-8.2c1.6-2.1,3.8-3.6,5.7-5.4c1.6-0.7,2.9-1.9,3.9-3.3
		c0.4-0.4,0.8-0.7,1.4-0.9c4.5-2.8,6.3-7.6,8.1-12.2c2.5-6.3,4.9-12.6,6.6-19.2c0.6-2.4,1.4-5.3,5.2-3.7c1.1,11.4,2.9,22.7,3.4,34.1
		c0,0.5,0.4,0.9,0.6,1.4c1.2,0.8,1.5,2.1,1.5,3.3c0.5,9.5,1.2,19.1,0.8,28.6c-0.1,1.5-0.2,3.1-1.7,4.1c-0.9,1.2-0.6,2.7-0.6,4.1
		c-0.1,14.9-1.5,29.8-2.4,44.7c-0.2,3.1-1.4,6.1-2.2,9.2c-0.7,2.5-2.3,2.2-4.2,1.5c-5.3-2-10.1-4.9-14.9-7.8
		c-2.9-1.8-5.9-2.9-9.3-3.1c-2.4-0.1-3.2,0.9-3.1,3.2c0.2,4.6,2.8,8.4,3.7,12.8c0.4,1.7,1,3.4,1.4,5.2c0.5,2.5,0.7,4.8-1.8,6.5
		c-1.4,1-0.9,2.5-1,3.9c-1.8,3.2-5,3.3-8,3.5c-4.2,0.4-8.5,0.4-12.7,0c-26.8-2.4-48.1,9-67.3,26c-12,10.6-20.6,23.7-28,37.7
		c-0.8,1.5-1.5,3-2.8,4.1c-9.7,4.8-18.1,11.5-27.2,17.3c-4.7,3-9.7,5.1-15.1,6.4c-14.2,3.4-28.3,4-42.6,0.6
		c-7.9-1.8-13.2-7.1-18.2-12.7c-3.5-3.9-7-7.8-11.5-10.7c-1.3-0.9-2.6-1.7-3.8-2.6c-4.2-3-4.2-3-8.7,0c-13.9,9-26.8,19.2-38.2,31.3
		c-4.7,5-7.1,10.5-7.4,17.1c-0.8,13.4,0.4,26.5,5.4,39.2c1.7,4.3,3,8.7,4,13.2c0.3,1.6,0.6,3.3,0.5,4.9c-0.3,3.4-1.9,5.3-5.2,4.7
		c-17-2.9-32.9-7.8-43.7-22.7c-5.2-7.7-8-16.5-11.4-25c-9.6-24.3-16.4-49.6-23.2-74.8c-0.2-0.7-0.1-1.5-0.1-2.3
		c-2-3.2-2.3-7-3.3-10.5c-3.2-10.6-6.2-21.3-7.7-32.4c-2.2-15.9-4.4-31.8-5.3-47.9c-1-16.2-1.8-32.4-2.5-48.6
		c-0.5-11.7,0.4-23.5,0.8-35.2c0.3-8.5,2.6-16.7,3.5-25c0.1-1.3,0.4-2.5,1.5-3.4c3.2,6.1,4.1,13.1,7.6,19c1.3,2.3,2.3,4.8,4.7,6.4
		C186.7,399,187.8,400.2,188.1,402.1z"/>
	<path class="st10" d="M561,405.1c-0.3,0.3-0.5,0.5-0.8,0.8c-1.4,0.9-2.4,2.2-3.8,3.1c-1.2,2.4-4.1,3.1-5.4,5.4
		c-3.7,2.4-7.4,4.8-10,8.4c-0.3,0.3-0.5,0.5-0.8,0.8c-2.3,1.8-4.6,3.6-6.1,6.2c-0.5,0.5-1,1-1.5,1.5c-1.2,1.4-2.1,3-3.1,4.6
		c-0.5,0.8-1,1.5-1.5,2.3c-1.7,0.3-3.1,1-4,2.6c-2.6,4.5-6.8,7.6-10.3,11.3c-0.6,0.6-1.9,3.1-2-0.4c0-1.1-0.9-0.3-1.4,0
		c-3.5,1.9-7,3.5-11,4.3c-0.6,0.1-1.3,0.5-1.6,0.9c-0.6,1.1,0.7,3.3-1.4,3.4c-3.9,0.1-7.5,3.2-11.8,1.2c-1.4-0.6-1.9-1.5-2.5-2.6
		c-1.3-2.6-3-2.9-6-2.2c-8.9,2.1-17.3,6.4-26.4,7.2c-4.8,0.4-9.8-1.4-14.7-2c-4.9-0.6-9.9-1.2-14.8-1.4c-12.4-0.4-24.8,0.6-37.2-0.9
		c-5.7-0.7-11.3-1.1-16.9-2.9c-10.5-3.4-21.4-4.6-32.2-6.3c-10.5-1.7-20.9,0.1-31.3,0.1c-8.3,0-11.3-2.1-14.5-9.7
		c-2.7-6.5-6.7-12-13.1-15.3c-2.5-1.3-3.3-4.2-5.7-5.5c0.8-1.4,1.9-1.1,2.8-0.8c9.2,2.6,18.7,2.1,28.1,2.9c0.8,0.1,1.6,0.2,2.3,0
		c7-2.3,12,0.8,17.1,5.2c5.6,4.8,12.4,7.6,19.3,10.1c12.6,4.6,25.5,8.4,38.7,11.1c21.6,4.5,42.4,1.7,62.7-6.2
		c7.7-3,15.5-5.9,22.3-10.9c2.8-2.1,6.4-1.7,9.6-2.1c6.5-0.9,12.8-1.8,19-4.3c5.9-2.3,11.7-5.2,16-9.6c3.9-3.9,8.1-7.7,11.2-12.4
		c4.9-7.3,9.9-14.5,14.9-21.7c2.3-3.2,3.3-6.9,3.9-10.7c0.3-1.8,0.8-3.5,1.2-5.2c0.6-2.5,1-5,4.6-2.4c0.2-2.6-2.5-3.8-1.5-6.3
		c1.5,0.2,2.1,1.6,3.1,2.3c1,0.7,2.2,1.3,3,0.2c0.8-1.1-0.1-2.3-1-2.9c-1-0.7-2.4-1-3.5-1.5c-0.8-0.4-2.6,0.2-2.2-1.4
		c0.4-1.5,1.8-1,2.9-0.6c2.5,0.8,5.1,1.6,7.6,2.6c6.7,2.7,13.5,3.4,20.5,1.7c0.8-0.2,1.8,0,3.1,0c-1.1,2.3-0.7,4.5,0.3,6.5
		c0.8,1.4,2.6,1.4,4.1,1.9c0.1,0.7,0.2,1.5,0.3,2.2c-2.2,1.9-3.5,4.1-4.3,7.2c-2.1,8-4.9,15.7-8.4,23.2
		C565.7,400.8,563.6,403.2,561,405.1z"/>
	<path class="st11" d="M585.5,440.5c0.7-12-0.6-24-0.7-36c0.5-1,1.4-2,1.5-3c0.3-3.6,2.2-3.4,4.8-2.5c2,0.7,4.1,1.4,6.3,1.8
		c6,1,7.1,2,9.9,8c0.3,0.6,0.5,0.8,1.1,0.8c3.4,0.1,5.2,2.5,6.3,5.2c1,2.3,2.8,3.7,4.5,5.1c4.1,3.3,4.4,7.8,4.9,12.4
		c0.6,5.4-1.4,10.3-2.8,15.4c-1.2,4.5-2.3,8.9-2.6,13.5c-0.2,2.9-2.3,5.2-2.3,8.1c-0.7,2.9-3.1,4.6-4.5,7c-0.9,1.4-1.8,0.9-2.8-0.1
		c-1.1-1.1-1.4-2.5-1.8-3.8c-4-10.8-10.1-20-19.1-27.2C586.7,443.8,585.4,442.5,585.5,440.5z"/>
	<path class="st9" d="M561,405.1c7.4-7.9,9.2-18.5,12.9-28.1c0.5-1.2,1-2.3,0.9-3.7c-0.1-3.3,1.9-5.1,4.8-6c0.4,0.5,0.8,1,1.2,1.6
		c-3.3,0-3.7,2.6-4.4,4.9c-2.2,8.2-5,16.3-8.8,23.9C566.2,400.8,564.7,404,561,405.1z"/>
	<path class="st12" d="M318.1,591.9c4.6,1.6,7.7,5.2,10.4,8.8c7.2,9.8,16.7,14.6,28.7,15.9c13.7,1.5,26.9-0.4,39.8-4.8
		c5.5-1.9,10.1-5.5,14.8-8.8c6.4-4.5,12.5-9.3,20-11.9c1.5,3.2-1.7,6-0.8,9.6c3.7-1.5,6.9-3.5,9.9-5.9c6.5-5.1,13.4-9.4,21.2-12.1
		c3.3-1.2,5.7-3.4,6.9-6.7c1.6-4.2,4.6-5.9,9-5.5c2.2,0.2,4.3,0.3,6.5,0.7c3.9,0.6,7.3-0.4,10-3.5c1.5-1.7,3.2-3.4,5-4.8
		c2.4-1.9,4.9-3,7.7-0.9c1.5,1.1,2.7,0.3,3.9-0.4c9.9-6.1,21.3-8.6,31.9-13.1c1.9-0.8,4-1,6-0.9c2.4,0.1,4.3,1.1,4.8,3.6
		c0.9,3.9,3.4,5.2,7,4.8c4-0.4,7.3,0.6,9.4,4.4c-0.3,1.1-0.5,2.1-0.8,3.2c-1.1,0.7-1.4,1.5,0,2.2c-1.4,7.2-4.1,14.2-4.6,21.6
		c-0.8,7.3-3,14.3-5,21.4c-0.5,2-0.9,4.3-3.3,5.2c-2-0.1-2.8-1.6-3.8-2.9c-2.3-3-5.3-4.4-8.9-5.5c-16.8-5-33.1-2.6-49.4,2.1
		c-15.6,4.6-31.1,9.3-46.4,14.6c-6.6,2.3-12.7,5.4-18.7,8.8c-3.2,1.9-5.1,5-7,7.9c-0.9,1.3-1.4,3.1-3.5,3.1c-1.6-1.6-1-3.6-0.7-5.4
		c1.1-5.4,2-10.8,3.1-16.2c0.7-3.4,0.2-4-3.2-3.5c-9,1.3-17.3,4.4-24.4,10.3c-4.9,4.1-10,8-15.1,11.8c-10.6,8.1-22.6,8.7-35,7.6
		c-6.4-0.6-11.8-2.9-16.1-7.8c-2.1-6.3-3.2-12.9-4.9-19.3c-1.4-5.3-2.7-10.6-4.8-15.8c-1.2-2.9-1.1-6-1.3-9.1
		C316.2,593.6,316.2,592,318.1,591.9z"/>
	<path class="st13" d="M556.3,613.5c3.3-5.2,3.3-11.3,5.4-16.9c1.1-3.1,2.1-6.2,3.1-9.3c-0.7,8.8,4.4,15.9,6.9,23.7
		c3.3,10.1,11.7,16.2,19.4,22.7c1.6,1.4,4,1.4,6.3,1.1c8.3-1.2,15-5.6,21.2-10.9c4.2-3.6,8.3-7.1,12.6-10.6c1.4-1.1,2.3-2.4,3.2-3.8
		c6.9-10.7,15.5-20.5,18.2-33.5c0.4-1.8,0.7-3.4,0.3-5.2c-1-4.5,1.6-8.2,3.3-11.9c1.1-2.4,2.1-6.1,4.5-6.2c2.2-0.1,1.3,4.1,2.6,6
		c0.2,0.3,0.5,0.6,0.7,0.9c1.2,5.1,0.5,10.2,0.9,15.4c-0.1,4.3-0.2,8.7-0.2,13c-0.5,1.2,0,2.5-0.4,3.8c-2.2,21.2-5.9,42.1-12.3,62.4
		c-1.4-1.2-2.4,0-3.4,0.5c-10.8,5.2-20.8,11.4-29.5,19.6c-2.2,2-4.7,3.6-7.6,4.4c-9.8,3-19.6,5.6-29.6,7.8
		c-7.3,1.4-14.7,1.5-22.1,1.5c-6.4,0-7.7-1.9-4.8-7.6c4-8,7.9-16.1,9.9-24.9c0.9-4,0.7-7.8-0.4-11.7c-2.5-8.4-6.4-16.1-9.5-24.2
		C554.5,617.4,554.5,615.2,556.3,613.5z"/>
	<path class="st14" d="M570.2,560.4c-0.5,0-1.3,0.1-1.5-0.2c-2.3-3.8-6.1-3-9.5-2.8c-4,0.2-6.2-1.7-6.6-5.3
		c-0.3-2.9-1.9-3.2-4.2-3.2c-5.7,0.2-10.5,3-15.6,4.9c-8,3.1-16.4,5.1-23.4,10.4c-0.8,0.6-2.2,1.4-2.9-0.3c-1.5-3.6-3.8-1.9-5.5-0.7
		c-2.1,1.5-4,3.3-5.5,5.3c-3.4,4.4-7.9,4.6-12.8,3.8c-1-0.2-2-0.4-3-0.4c-7.3-0.3-7.3-0.3-10.2,6.4c-1.3,3-3.7,4.6-6.5,5.6
		c-7.9,2.7-14.8,6.9-21.2,12c-3.2,2.5-6.9,4.4-10.3,6.6c-0.7,0.4-1.3,0.9-2.1,0.2c-0.8-0.7-0.8-1.6-0.6-2.5c0.9-3.1,1.9-6.1,2.9-9.1
		c8.1-16.7,18.2-32.2,32.5-44.2c14.4-12.2,30.4-21.7,49.6-24.2c8.3-1.1,16.5-0.1,24.8,0c4.3,0,8.4-0.6,12.3-2.4
		c5.2-3.4,10.8-2.3,16.3-1.3c2.3,0.4,4.5,0.6,6.8,0.2c3-0.6,4,1.1,3.6,3.7C575.7,535.6,573.4,548.1,570.2,560.4z"/>
	<path class="st14" d="M569.4,565.8c-0.8,0.3-1.2,1.4-2.2,0.9c-0.6-0.3-0.7-1-0.4-1.6c0.5-1.1,0.9-2.5,2.6-1.5
		C569.4,564.3,569.4,565.1,569.4,565.8z"/>
	<path class="st15" d="M172.7,372.9c0.3,6.6-1.7,12.9-2.5,19.3c-0.5,4.4-1.1,8.8-1.3,13.3c-0.3,8.1-0.3,16.3-0.6,24.4
		c-0.4,9.3,0.8,18.6,1.2,27.9c0.2,3.7-0.2,7.5,0.2,11.1c1.8,15.3,1.6,30.7,4,46c1.7,10.4,2.4,21,5.1,31.2c2.6,9.9,4.5,19.9,6.9,29.8
		c-2.1-0.7-1.6-2.7-2.1-4.2c-1.1-3.2-1.8-6.2-4.9-8.5c-2.7-2-3-6.1-4-9.3c4.6-7.3-2.9-13.8-1.4-21c-2.6,5.7-5.5,11.4-4.3,17.6
		c1.6,8.2,1.3,16.5,2.8,24.6c1,5.4,1.4,10.9,2.7,16.2c0.7,3.1-0.3,4.8-2.7,5.9c-5.9,2.9-12.1,4.6-18.8,3.4c-5.8-1.1-7.2,0-6.3,5.6
		c0.7,4.5,0.5,8.9,0.6,13.4c-9.8,1.7-18.9,0.3-26.2-6.8c-6.2-5.9-11.8-12.3-17.8-18.4c-4.2-4.3-8.8-8.1-14.1-10.9
		c-1.6-0.8-1.8-2-1.8-3.5c0-4.7,0-9.5,0.1-14.2c0.4,0.3,1,0.6,1.1,1c0.6,2.9,2.2,3.6,5,2.8c1.9-0.5,3.8,0.3,5.6,0.8
		c3.1,0.8,6.1,1.4,9.1-0.9c1.8-1.4,3.9,0.1,5.5,1.5c4.2,3.8,7.5,8.3,11.4,12.4c4.2,4.4,7.4,9.7,13.1,12.7c3.3,1.8,4.2,1.3,4.7-2.3
		c1.5-11,3.2-21.9,4.8-32.9c0.2-1.4,0.8-2.7,1.5-3.9c1.6-3,1.9-6.2,2.2-9.6c1-13.2,0.2-26.6,2.4-39.7c1.9-11.3,2.8-22.7,5-34
		c0.3-1.6,0.3-3.3,0.2-5c-0.1-2.6-1.1-4.1-4-4.6c-5.7-0.9-5.7-1.1-6.7-6.8c-0.1-0.7-0.4-1.5-0.9-2c-1.7-2-1.7-3.8-0.1-5.8
		c1.5-1.9,1.8-3.9-0.4-5.7c-1.1-0.9-1.3-1.6-0.3-2.8c1.4-1.6-0.3-2.2-1.3-2.8c-1.7-1-3.1-2.9-5.5-1.9c-0.4,0.2-0.5,1.1-0.7,1.7
		c-1.2,3.9-3.6,4.5-6.7,1.6c-2.9-2.7-4.3-6.6-7.6-9c-0.4-0.3-0.8-0.6-1.2-0.9c0.8-2,1.6-4,2.4-6c-0.8-1.6,0.2-3,0.8-4.3
		c4.6-9.2,9.1-18.5,14.7-27.6c-2.3,0.8-3.9,2.7-6.3,2.3c-0.6-0.2-0.9-0.6-1.1-1.2c1.1-3.5,4.5-4.1,7.1-5.7c3.3-2,6.1-4.4,7.8-7.9
		c8.1-13.4,15.5-27.2,24.7-39.9c1.1-1.6,1.9-3.7,4.4-3.7c0.7,4.6-1.6,8.7-2.2,13.1C174.8,356.8,173.8,364.8,172.7,372.9z"/>
	<path class="st16" d="M340.4,763.7c-6,2.8-11.9,4.2-17.7-0.4c-2.4-0.7-2.8-2.5-2.7-4c-0.2,0.8,0,2.6-2,3.2c-3,3.3-6.6,5.1-11.1,4.7
		c-4.6-0.4-7.9-2.6-9.1-8.7c-2,7.4-6.7,8.8-12.6,8.8c-6.3,0-10.3-2.9-12.5-8.9c-0.8,2.9-1.4,5.6-4.4,6.7c-3.6,1.2-7.1,0.6-10.5-0.6
		c-1.8-0.6-3.4-1.6-5.1-2.5c-4-0.2-5.5-3.4-6.7-6.3c-2.1-5.2-3.2-10.6-3.1-16.3c0.4-1.5,0.1-3,0.3-4.5c1.8-8.1,7.1-13.3,14.2-17
		c11.2-5.8,23.2-8.3,35.7-9.1c10.9-0.7,21.7,0,32.4,1.7c6,0.9,11.6,2.8,16.5,6.6c5.7,5.9,8.4,13.3,10.2,21.1
		c1.8,7.7,1.4,15-4.5,21.1C345.3,760.8,343.9,764,340.4,763.7z"/>
	<path class="st17" d="M431.7,762.4c0.6-1.5,1.3-3,2.1-4.8c1.3,2.3,1.8,4.8,3.5,6.6C434.7,765.6,433.3,763.7,431.7,762.4z"/>
	<path class="st17" d="M318,762.6c0.6-1.6,1.2-3.2,1.8-5c1,2.1,2,3.9,2.9,5.8C320.9,764.7,319.3,764.6,318,762.6z"/>
	<path class="st18" d="M341.8,718.1c-10.8-6.7-22.8-7.3-35-7.9c-13.2-0.6-26.2,0.4-38.8,4.7c-6.6,2.3-13.1,5-18.2,10.2
		c-2.8,2.9-3.9,6.5-5.7,9.9c-1.4-0.1-1.9-1.2-2.3-2.2c-2.8-6.2-4.9-12.7-7.4-19.1c-0.3-0.9-0.2-1.7,0-2.6c-3-9.4-8-17.9-11.6-27
		c-0.8-2-1.9-3.9-2.1-6.1c4.3,2.2,6.8,6.5,10.8,9.2c10.1,6.8,21.3,10.4,33.1,12.4c2.6,0.4,3.8-0.7,3.8-3.4c0-4.1-1.3-7.8-2.4-11.6
		c-2.1-7.1-5.2-14-6.3-21.3c-2-12.3-3.5-24.8,1.9-36.9c0.5-1.1,1.3-2.2,2.1-3.2c12.8-14.3,27.9-25.9,43.9-36.2
		c1.9-1.2,3.5-1.4,5,0.5c1.6,1.9,4.2,2.4,5.7,4.5c-0.4,4.4-0.2,8.7,1.4,12.9c4.1,11,6.6,22.5,8.6,34c0.9,1.5,1.7,3.1,2.1,4.9
		c2.8,12.7,6.3,25.3,8.3,38.2c3,10.3,4,21,4.8,31.6C343.4,715.2,343.4,717,341.8,718.1z"/>
	<path class="st19" d="M234.2,711.1c4.1,7.6,6,16.1,9.8,23.9c0,1.6,0,3.1,0,4.7c-0.8-2.2-1.8-4.2-4.6-2.2c-0.4,0.3-1,0.3-1.5,0.3
		c-12.8,0-25.5,1.7-38.3,1c1-2.9,3.4-4.6,5.8-6.3c4-2.7,8.1-5.3,12-8.1c3-2.2,2.9-2.6-0.3-4.4c-1.2-0.7-2.8-1.2-2.5-2.9
		c0.3-1.5,1.9-2,3.3-2.2c3.9-0.7,7.8-0.6,11.6-2C231.1,712.1,232.7,711.7,234.2,711.1z"/>
	<path class="st20" d="M556.3,613.5c0.4,2.1-0.6,4-0.8,6.1c0.8,3.8-1.2,7-2.3,10.4c-4,12.3-8.9,24.2-14.4,36
		c-0.7,1.5-0.9,3.6-3.3,3.8c-2.9-4.5-7.4-6.2-12.3-6.9c-6.6-0.9-13.2-0.3-19.7,1.2c-9.1,2.1-18,4.6-27.1,6.7
		c-7.6,1.7-15.4,2.3-23.1,1.1c-4.6-0.7-8.5-3.5-12.8-5.1c-2.9-1.1-5.6-1-8.5,0c-8.1,2.6-14.8,7.2-20.2,13.8
		c-1.5-1.1-1.3-2.7-1.1-4.2c1.3-9.7,2.4-19.4,4.9-28.9c0.5-2.1,0.8-4.3,3.1-5.4c0.9-1.5,1.9-3,2.7-4.6c3.5-7,10.3-9.9,16.8-12.6
		c14.5-6.1,29.5-10.9,44.7-15c7.8-2.1,15.3-5,23.2-6.5c13.6-2.6,27.1-2.5,40.5,1.5C551.5,606.1,553.6,610.1,556.3,613.5z"/>
	<path class="st21" d="M418.8,642c-3.9,12.5-5.5,25.5-6.9,38.5c-2,9.9-2.9,19.9-1.9,30c0.5,5.3,0.5,10.3-2.8,14.9
		c-2,2.9-3.1,6.4-4.6,9.6c-1.9,0.3-3.2-0.8-4.5-1.8c-9.7-7.2-17-16.1-20.7-27.8c-0.3-0.9-0.6-1.7-0.9-2.5c-1.8-4.6-2-4.7-6.2-3.3
		c-5,1.7-9.8-0.3-14.3-2.7c-4.2-2.2-7.9-5.2-11-8.9c-2.1-2.6-4.5-4.8-7.7-6c-1.9-8.5-3.8-17.1-5.7-25.6c-1.3-5.8-3.3-11.5-3.6-17.5
		c7.3,5.8,15.8,6.9,24.8,7c12.1,0.1,21.8-5.1,30.8-12.3c7.3-5.9,14-12.6,23.4-15.5c4-1.3,8.1-2.2,12.2-2.9c3.1-0.5,4.2,1,3.5,4.3
		C421.3,626.9,419.5,634.4,418.8,642z"/>
	<path class="st22" d="M337.4,682c3.2-1.4,5,0.6,6.7,2.8c5.2,6.5,11.3,11.8,19.8,13.6c2.9,0.6,5.6,0.8,8.2-0.8
		c2.6-1.6,3.7-0.6,4.7,2c2.8,7.4,5.2,15,10.4,21.3c4.5,5.5,10.1,9.7,15.6,14.1c0.2,1.2-0.4,2.2-1,3.2c-2.1,1.8-4.6,2.1-7.2,2.2
		c-13.2,0.2-26.3,0-39.4-0.8c-1.4-0.1-2.8-0.3-3.8-1.4c-2.2-7.1-5-14-9.4-20.1c0.1-11.5-1.7-22.7-4.1-33.9
		C337.5,683.5,337.5,682.7,337.4,682z"/>
	<path class="st23" d="M535.6,669.7c7.6-15.8,14-32.1,19.2-48.8c0.1-0.5,0.4-0.9,0.7-1.3c0.4,0.3,1,0.6,1.1,1
		c3.7,9.2,8.5,18,10.2,28c0.7,4-0.8,7.8-1.9,11.6c-2.1,7.7-5.8,14.7-9.4,21.8c-2.2,4.3-1.7,5.3,3,4.9c6.7-0.6,13.5,0.6,20.2-0.9
		c1-0.2,2.1-0.2,2.8,0.8c-5.1,2.1-10.8,2.6-15,6.9c-4,4-8.3,7.8-12.4,11.7c-8.7,8.1-12.1,7.1-15.7-4c-1.3-4.1-1.2-8.6-3.7-12.3
		c-2.7-2.5-3.1-5.9-3.2-9.3C533,676.2,534.3,673,535.6,669.7z"/>
	<path class="st24" d="M574.9,737.9c-20.4,0.6-40.8,1.3-61.2,0.1c-1.6-0.1-3.3-0.4-4.8,0.8c-0.3-3.8,1.1-7.3,2.3-10.8
		c1.6-4.4,3.4-8.7,5.1-13.1c3.2,4.9,7.5,4.4,12.4,2.8c4.7-1.6,9.6-2.5,14.3-3.9c1.8-0.5,3.2-0.5,4.2,1.3c5.9,10.5,14.9,17.1,26,21.2
		C574.1,736.7,574.7,737.1,574.9,737.9z"/>
	<path class="st24" d="M531.7,679.5c1.8,2.9,2.5,6.1,3.2,9.3c-1.4,2.8-5.7,4.6-9.3,3.8C527.5,688.2,529.2,683.7,531.7,679.5z"/>
	<path class="st25" d="M664.2,591.9c-0.1-1.3-0.3-2.6,0.4-3.8C664.7,589.4,665.1,590.7,664.2,591.9z"/>
	<path class="st26" d="M359.7,150c2-0.1,4-0.1,6-0.2c6.4-0.5,12.8-0.4,19.2,0c10.6,0.4,21.1,2,31.7-0.4c5.5-1.3,10.3-3.7,14.4-7.6
		c7.5-7.1,14.9-14.3,22.4-21.5c8.8-8.5,17.5-17,27.6-24c0.6-0.4,1.1-1.1,1.6-1.6c5.8-3.5,11.3-7.4,17.7-9.7
		c7.7-2.7,12.3-1.3,15.9,5.7c4.8,9.4,7.3,19.5,9.5,29.7c3.8,18,3.3,36.3,3.2,54.5c0,2.5-1.9,4.9,0,7.4c-0.8,13.9,4.6,25.8,12,37.1
		c3.8,5.9,7.9,11.6,10.5,18.1c2.6,9.8,1.8,19.9,2.5,29.9c0.8,10.1-3.6,18.9-7.7,27.7c-0.4,0.9-1,1.8-1.5,2.7c-1,1.7-1.1,2.8,1.4,3
		c1.4,0.1,3.6,0,3.4,2c-0.1,1.8-2.1,2.2-3.6,2.1c-4.8-0.6-8,1.7-10.6,5.4c-1,1.4-2.5,2.5-3.9,3.6c-1.6,1.3-4.1,2.1-1.2,4.8
		c1.1,1-0.3,1.8-1.3,2.1c-2.2,0.6-4.3,0.1-6.3-0.9c-1.7-2.4-4.6-1.3-6.2-1.9c1.1,0.1,3,0.2,4.7,0.8c0.8,2.6-1.6,2.9-2.9,3.6
		c-5.7,3.2-11.9,5.3-17.9,7.7c-1.2,0.5-2.5,0.6-3.4,1.6c-0.1,0.3-0.1,0.5,0.1,0.8c0.6,1,2.6,1.4,1.6,2.9c-0.8,1.2-2.3,0.8-3.5,0.5
		c-2.2-0.6-4.4-1.2-6.5-2.3c-0.5-0.3-1-0.7-1.3-1.2c-3-2.9-7.2-3.1-10.7-5c-2.8-1.5-5.3-3.1-6.9-5.9c-1.9-3.4-0.7-5.8,3.2-6.1
		c4.7-0.4,9.5,0.2,14-0.5c-6.5-1.2-13.3-1.3-19.9-2.9c-4.1-1-8.1-2.3-12.5-1.3c-0.9,0.2-1.8,0-2.7-0.3c-1.9-0.6-3.8-1.4-3.5-3.9
		c0.3-2.4,2.3-3.5,4.5-3.3c9.1,1.1,18-2,27-1.7c-3.4,0.4-6.7,0.3-10.1-0.1c-5.9-0.6-11.7-0.6-17.6,0.1c-6.8,0.8-9.3-0.7-11.8-7
		c-0.7-1.7-2.4-2.6-3.5-4c-2.9-3.6-7.5-5.8-8.8-10.8c2.2-2.2,4.6-0.6,6.8-0.1c8.6,1.8,16.8,1.2,24.5-3.3c5.7-3.3,9.3-8.3,12-14.1
		c0.8-1.5,1.3-3.2,1.8-4.9c2.1-8.6,6.5-11.9,12.8-11.3c-4.9,0.2-10.9-2.7-17.2-4.7c-3.7-2-8.3-2.1-11.6-5.2
		c-1.4-3.6-4.9-3.5-7.7-3.4c-5.6,0.3-11,1.6-16.6,2.1c-1.6,0.1-2.6,0.9-2.9,2.5c-0.2,0.5-0.5,1-0.9,1.2c-6.1,3.6-11.2,8.1-14.9,14.2
		c-0.3,0.5-0.9,0.8-1.6,0.9c-1.8-0.5-2.2-2-2.4-3.6c-0.3-1.9-0.6-4,0.1-5.7c4-8.5-0.2-14.9-4.9-21.4c-3.9-5.4-7.5-11-10.9-16.7
		c-2.4-3.9-4.6-3.9-6.8,0.2c-2.5,4.7-3.5,9.9-4.1,15.1c-0.5,4.5-1.5,8.8-2.7,13.1c-0.4,1.5-0.9,3.3-2.7,3.3
		c-1.9,0.1-2.3-1.8-2.8-3.2c-2.1-6.3-3.8-12.7-6.3-18.9c-1.6-3.9-4.3-6.9-6.7-10.2c-1.3-1.7-2.3-1.2-3.8-0.2
		c-6.8,4.7-10.3,11-10.5,19.3c-0.1,5.6-1.4,11.2-3.4,16.5c-1.1,2.9-1.8,5.8-1.9,9c-0.1,2.3-0.4,4.6-2.5,6.2c-1.1,0.4-1.7-0.2-2.1-1
		c-3.3-6.9-8.5-12-15.2-15.6c-0.7-0.4-1.2-0.9-1.6-1.6c-0.7-1.9-2.3-2.6-4.1-3.1c-6.9-2.1-13.9-1.5-20.9-0.4c-1.3,0.2-2.3,1-2.8,2.3
		c-1.8,1.9-4,2.6-6.5,2.4c-2.8-1.7-5.7-1.2-8.4,0c-4.7,2-9.3,0.4-14,0.3c-1.4,0-2.2-1.1-2.7-2.5c0.6,3,0.5,5.9,0,8.8
		c0,0.4,0.1,0.7,0.2,1c0.3,1,1.1,1.3,2.1,1.3c3.8-0.1,7.2,1.5,10.7,2.6c3.1,2.2,3,5.9,4.5,8.9c0.4,1,0.5,2-0.3,2.9
		c-1.5,0.7-3,0.1-4.5-0.3c-11.8-2.8-23.5-6.3-34.6-11.2c-10.1-4.5-20.1-8.6-31-10.4c-2.9-0.5-6.1-1-8.4-3.4
		c-0.2-0.3-0.3-0.7-0.2-1.1c1.8-1.8,2.3-4,2.4-6.4c0.3-1.1,0.9-2,2-2.6c1.2-0.3,2.5-0.7,3-2c2.8-6.7,9-8.8,15.1-10.9
		c0.9-0.3,2-0.3,3-0.6c4.6-1.2,4.3-1.4,4.5-6.2c0.2-3.7,0.4-7-2.9-9.6c-1.3-1-2.1-1.7-3.5-0.4c-1.1,1-2.4,2.2-4,0.6
		c-1-2.7,0-5.2,1.1-7.6c1.1-3.4,1.5-6.9,2.2-10.3c0.4-2.3,0.7-4.6,3.1-5.8c2.4,0.6,2.4,2.8,3,4.5c2.9,8.5,4,9.1,12.5,6.4
		c5.3-1.7,10.4-3.7,14.6-7.5c8.8-8.1,19.8-11.5,30.9-14.6c4.1-1.2,8.1-2.3,12-3.9c4-1.7,4.5-2.6,2.9-6.7
		c-3.6-9.4-8.8-17.9-15.9-25.1c-3.8-3.8-7.6-7.6-11.4-11.4c-1.1-1.2-2.5-2.2-2.4-4.2c2.1-1.7,3.6-0.1,5,1
		c5.7,4.3,10.6,9.5,15.3,14.8c1.8,2.1,3.5,4,6.5,4.1c2.6,0.1,4,3.2,6.8,3.1c5.2,3.5,10.1,7.3,14.4,12c0.3,1.5,1.2,2.8,1.7,4.3
		c1.8,5.2,1.4,10-2.2,14.4c-2.4,2.9-4.7,5.8-7.3,8.4c-1.8,1.7-1.7,3.3,0.4,4.7c2.8,2,5.2,4.6,7.5,7.1c1,1.1,2.7,2.6,1.4,3.9
		c-1.4,1.5-2.8-0.3-3.8-1.3c-2-1.8-4-3.6-6.2-5.2c-1.6-1.2-3.2-2.9-5.3-0.7c-2,2.2-2.4,5.7-0.5,7.7c1.5,1.6,3.5,2.6,5.3,3.7
		c0.5,0.3,1.1,0.6,1.6,1.1c1.3,1.1,3.7,2.3,2.5,4.1c-1.3,1.9-3.2,0-4.7-0.9c-1.4-0.8-2.5-2.2-4.4-2.2c-0.8,1.3-0.1,2.5,0.4,3.6
		c5.1,12.4,13.8,22.1,24.2,30.2c3.5,2.7,4.6,2.3,5.3-2c1.9-11.4,7.1-21.2,13.4-30.7c4.1-6.2,5.9-13.6,8.6-20.5c0.8-2,0.2-4-0.4-6
		c-1.4-5.5-3.4-10.7-4.8-16.2c-0.4-1.6-1.1-3.3,1-4.3l0-0.2C355.9,149.8,357.9,150.8,359.7,150z"/>
	<path class="st27" d="M522.5,319c2.3,0.1,4.6,1.5,7.2,0.4c-4.9-2.5-5-2.6-0.2-6c2.5-1.8,4.9-3.8,6.6-6.3c1.8-2.7,4-3.6,7.1-3.4
		c1.8,0.1,3.8,0.5,5.9-0.8c-1.6-1-3-0.6-4.2-0.6c-4-0.1-4.3-0.6-2.1-4.1c3.7-5.9,6.2-12.3,8.1-18.9c1.5-4.9,2.4-9.9,1.1-15.1
		c-0.3-1.2-0.2-2.5-0.1-3.8c0.3-7-0.3-14-1.3-20.9c-0.1-0.8,0.1-1.5,0.7-2c6.1,11.8,9.5,24.4,12.1,37.3c1.1,5.5,2,11,2.4,16.6
		c-0.4,3.2,0.4,6.4,0.5,9.6c0.1,2.4,1.8,2,3.3,2.1c8.6,0,17.2,0,25.7,0c1.3,0,2.5,0,3.8,0c0,0.2,0,0.5,0,0.7c-5.3,0-10.7,0-16,0
		c-4.2,0-8.4,0-12.7,0c-4.1,0-4.1,0-4.2,4.3c-0.1,4.5,0.5,8.9,1.1,13.3c-0.6,0.1-1.3,0.3-1.9,0.2c-7.9-2.2-9.3,3.7-11.1,9
		c-2.4,7-5.9,13.5-11.8,18c-7.8,6-15.3,12.6-24.8,16c-2.3,0.8-3.1,2.9-4.6,4.4c-2.9,2.9-4.1,3.1-7.2,0.6c-2.2-1.8-4.6-3.2-7.1-4.4
		c-5.5-4.2-11-8.6-18.1-10c-5.2-1.9-9.8-5-14.5-7.8c-2.3-1.4-3-3.6-1.1-5.5c6.3-6.4,14.2-9.1,23.1-9.5c0.2,0,0.5,0.2,0.7,0.4
		c3.2,0,5.9,2.3,9.2,2.2c-0.8-2.1-4.5-0.9-4-3.4c0.4-1.9,3.1-1.8,4.9-2.5c7.5-3.2,15.4-5.5,22.2-10.1
		C521.5,318.6,522,318.6,522.5,319z"/>
	<path class="st28" d="M481,354.4c7.3,1.3,13.3,4.6,17.7,10.8c-3.4,0.4-1.3,2.1-0.5,2.9c2,1.8,4.2,3.3,6.3,5
		c2.3,1.8,3.3,3.5,0.8,6.3c-2.6,2.9-4.4,6.6-7.3,9.3c-1.2,1.2-2.5,1.8-4,0.3c-4.4-4.4-9-8.5-14.8-12c2.7,5.3,6.6,9.2,10.2,13.3
		c2.3,2.6,2.3,4.3-0.3,6.6c-3.3,2.9-7,5.2-10.9,7.1c-18,8.6-35.3,18.6-52.7,28.3c-3.6,2-7.6,3-11.5,2.1c-6.4-1.4-12.7,0.2-19,0.4
		c-11.7,0.5-23.3,2.6-35-0.5c-1.2-0.3-4-2.3-3,1.8c0.2,0.7-1.7,1-2.7-0.1c-5.3-6-12.8-6.9-20-8.3c-9.6-2-18-6.5-25.4-12.7
		c-5-4.2-9.6-8.9-14.8-12.9c-4.3-3.3-9.9-3.9-15.1-5.3c-2.5-0.7-5-1.2-7.4-2.1c-3.1-1.2-4.9-3.2-3.5-6.8c0.9-2.2-0.1-3-2.2-2.4
		c-3.6,1.2-5.7,0-7.4-3.3c-1.1-2.1-3.2-3.6-4.8-5.4c-1.3-1.4-2.9-2.6-2.8-4.8c0-1.1-0.8-1.6-1.8-2.2c-8.8-4.4-17.1-9.6-25.4-14.9
		c-0.1-0.1-0.3-0.1-0.3-0.2c-4.1-7.7-13.1-10.2-18.2-17c-3-4-5.7-8-8.2-12.3c-3.2-5.3-6.4-10.6-9.4-16.1c-0.4-0.7-1.1-0.5-1.7-0.2
		c0.6-4-0.5-5.8-5.1-5.8c-10.3-0.1-20.6-0.9-30.9-1.5c11-0.8,21.9,0.6,32.9,0.5c2.3-2.5,3.4-5,2.5-8.9c-1.2-5.1-0.1-10.4,0.6-15.6
		c1.7-12.8,5.1-25.1,10.5-36.8c0.8-1.7,1.2-4,3.9-4.1c6,3.2,12.7,4.2,19.3,5.3c3.3,0.6,6.5,1.2,9.5,2.9c13.9,8,29.3,11.7,44.4,16.2
		c1.7,0.5,3.4,1,5.1,1.5c2.9,0,2.6,3,4.2,4.3c5.6,7.7,12.6,12.9,22.4,13.8c2,0.2,4.1,0.3,5.8,1.7c0.9,1.9-0.5,3-1.6,3.9
		c-6,5-11.2,10.9-16.8,16.3c-1.8,1.7-3.6,3.4-6.4,2.4c-2.9-0.4-5.8-0.6-8.3-0.7c2-0.2,4.3,0.5,6.7,0.5c2.2,0,2.9,1.7,1.6,3.1
		c-3.8,4.1-6.6,9.9-14,8.9c-3.2-0.5-6.6,0.7-9.4,0.7c2.4-0.1,5.3-0.5,8.2-0.7c1.2-0.1,2.7-0.4,3.4,1c0.6,1.2,0,2.3-0.7,3.2
		c-3.4,4.3-6.3,9-9.4,13.5c-2.1,3.1-2.1,4.9,0.9,7.1c2.5,1.9,5.5,2.6,8.6,2.9c3,0.3,7.3-1.3,8.7,2.3c1.2,3.1-3,4.5-4.7,7.1
		c2.5,2.1,5.9,3.5,7.7,6.1c3.5,5.2,9.2,5.7,14.1,7.9c8.3,3.7,16.9,5,25.8,2.5c3.8-1.1,6.7,0.9,9.4,3.2c8.1,7,17.1,12.1,27.8,13.9
		c8.2,1.4,16.3,0.8,24.5,0.7c9.6-0.2,18.4-2.6,26.6-7.7c2.4-1.5,5.2-2.1,8-2.6c5.2-0.2,10.4-0.9,15.5-2.1c6.8-1.6,12.5-5.1,17.5-9.8
		c1.7-1.6,3.4-3.1,5.2-4.5c1.2-4.2,5.2-4.3,8.3-5.8c2.3-0.8,4.3-2.4,6.5-3.4C477,352.5,478.6,355,481,354.4z"/>
	<path class="st29" d="M188.1,402.1c-1.4-1-2.8-1.9-3.1-3.8c-2.4-5.3-5.5-10.4-7.2-16c-1.1-3.5-2.4-7-3.4-10.5
		c-0.9-2.9,1.4-5.3,1.6-8.2c0.1-3.4,0.8-6.8,2.1-10.1c0.6-1.6,1.2-2.4,2.5-0.5c2,3,6.3,3.5,7.6,7.3c0.3,1,1.8,0.5,2.8,0.3
		c3.5-0.8,7-1.5,10.2-3.3c1.2-0.7,2.7-1.2,3.5,0c1,1.6-0.7,2.5-1.9,3.2c-2,1.1-4.1,2-6.1,3.1c-1.8,1-1.8,2.3-0.4,3.7
		c1.1,1.1,2.2,2.1,3.6,2.8c8.4,4.6,17.2,8.3,24.9,14.1c1,0.7,2.3,1,3.5,1.5c3.1,1.5,3.8,5,1,7.1c-2,1.5-1.5,2-0.3,3.8
		c1.3,1.9,1.7,4.5,2.3,6.8c0.9,4,3.3,7.1,5.3,10.6c1.1,1.9,2.1,1.8,3.6,0.4c2.8-2.9,5.6-5.6,8.4-8.5c0.6-0.6,1-1.8,2.1-1
		c1.2,1,0.2,1.8-0.5,2.6c-1.1,1.2-2.3,2.4-3.3,3.7c-3.1,4.2-5.7,8.1-2.7,14.1c2.2,4.5-0.2,7.3-5.1,8.8c-3.3,1-6.7,1.7-9.7,3.4
		c-1.1,0.6-1.8,0.5-2.6-0.5c-6.2-7.1-12.7-14-20.3-19.7C199.7,412.8,194.8,406.4,188.1,402.1z"/>
	<path class="st9" d="M541,422.8c1.6-4.8,5.7-6.8,10-8.4C548,417.6,544.5,420.2,541,422.8z"/>
	<path class="st9" d="M534.1,429.8c0.5-3.6,3.4-4.8,6.1-6.2C538.5,426,536.4,428,534.1,429.8z"/>
	<path class="st9" d="M529.5,435.9c0.3-2,1.2-3.6,3.1-4.6C532,433.2,531,434.7,529.5,435.9z"/>
	<path class="st9" d="M556.4,409c1-1.4,1.9-2.8,3.8-3.1C559.3,407.4,558.3,408.8,556.4,409z"/>
	<path class="st9" d="M478.3,430.4c3.3-0.2,5.9,2.4,9.2,2.1c0.2,0,0.6,0.5,0.6,0.8c0,0.3-0.4,0.7-0.6,0.8c-1.2,0.5-2.5,0.3-3.8,0
		c-3.6-0.7-4.7,0.1-5,3.6c-0.1,1.6,0.9,4-0.8,4.4c-1.7,0.4-2.2-2.4-3.6-3.5c-1.1-1-1.7-2.3,0.9-2.1c0.9,0.1,1.9,0,1.8-1.3
		c-0.1-1-0.9-1.5-1.9-1.5c-1.1,0.1-2.6,1-2.8-0.7c-0.3-1.8,1.6-1.6,2.7-1.9C476.1,430.8,477.2,430.6,478.3,430.4z"/>
	<path class="st9" d="M494.6,427.8c-1,1-1.4,2.9-3.3,3c-0.9,0.1-2.4-0.7-2.1-1.7c0.5-1.9,2.7-2.1,4.3-2.7
		C494.1,426.2,494.6,426.8,494.6,427.8z"/>
	<path class="st9" d="M518.4,444c-0.2,0.2-0.5,0.6-0.8,0.7c-0.4,0.2-0.6-0.2-0.5-0.6c0.1-0.3,0.3-0.7,0.6-0.8
		C518,443.1,518.3,443.3,518.4,444z"/>
	<path class="st30" d="M319.6,147.6c1,0.3,2,0.6,3,0.9c2.6,1.4,5.4,2.4,8.4,2.2c1.7,0.9,3.7-0.2,5.5,0.7c1.8,0,3.6,0,5.4,0
		c3.1-0.8,6.3,0.3,9.4-0.6c1,0,2,0,3,0.1c-1.2,2.8,0.8,5.2,1.3,7.7c0.6,2.9,1.4,5.8,2.6,8.4c3,6.4,1.2,12.2-1.1,18.4
		c-3,8-6.9,15.4-11.8,22.3c-5,7.1-5.8,15.5-8.1,23.4c-0.9,3.1-1.6,4.1-4.7,2c-12.5-8.9-22.2-19.9-27.5-34.5c-0.4-1.1-1.3-2.6,0-3.5
		c1.4-1,2.6,0.1,3.9,0.8c2.1,1.1,3.6,3.2,6.7,4.1c-2-3.4-5.3-4.4-7.9-6.1c-4.8-3.2-5.4-7.5-1.8-11.9c1.4-1.7,2.8-2.3,4.9-0.8
		c3.7,2.8,7.2,5.9,10.8,8.8c-2.8-3.6-5.7-7-9.4-9.6c-3.6-2.6-3.7-3.2-0.6-6.4c2.1-2.2,4.1-4.6,6.2-6.8c4.8-5,5.5-10.4,2.7-16.5
		C319.9,149.6,319.8,148.6,319.6,147.6z"/>
	<path class="st31" d="M384.9,149.8c-6.4,0-12.8,0-19.2,0C372.1,148.6,378.5,148.8,384.9,149.8z"/>
	<path class="st31" d="M351.2,150.7c-3.1,1.2-6.2,0.7-9.4,0.6C344.9,150,348.1,150.8,351.2,150.7z"/>
	<path class="st31" d="M359.7,150c-1.8,0.8-3.7,0.7-5.6,0.6C355.9,149.4,357.8,149.9,359.7,150z"/>
	<path class="st31" d="M336.5,151.4c-1.9,0.1-3.8,0.5-5.5-0.7C332.9,150.8,334.8,150.2,336.5,151.4z"/>
	<path class="st15" d="M135,393.8c-4,2.6-8,5.1-12,7.7c-0.2-0.4-0.5-0.8-0.7-1.2c3.9-2.5,7.9-5,11.8-7.4
		C134.4,393.2,134.7,393.5,135,393.8z"/>
	<path class="st5" d="M286.5,304.5c1.3,0,2.6,0,3.6-1c7-6.9,14-13.7,21-20.6c0.7-2.2,2.7-2,4.4-2.3c8.4-1.6,15.4-5.6,20.7-12.5
		c1.4-2.4,2.2-5,2.2-7.8c0-1.2-0.2-2.5,1-3.4c1.7-11.8,6.7-22.9,7.2-35c0.2-5.5,1.8-11.1,7.6-14.2c2.4-1.3,3.6-5.3,6.4-5
		c2.6,0.2,3.3,3.9,5,6c4.8,5.4,6.3,12.4,8.5,19c1.1,3.3,2.1,6.7,3.6,10.1c2.4-5.1,3.5-10.3,4.2-15.7c0.7-5.9,1.9-11.6,4.7-16.9
		c1-1.8,2.5-3.6,4.7-3.4c2,0.1,3.2,1.7,3.9,3.7c0.4,1.3,1.5,2.3,2.3,3.5c4.4,6.7,8.9,13.4,13.2,20.2c2.5,4,3.4,8,1.5,12.7
		c-1.6,3.8-2.1,7.9,0.4,11.7c1.4,1.3,0.5,2.8,0.3,4.2c-0.6,3.5-0.5,6.7,2.1,9.5c2.4,4.2,6.3,6.6,10.2,9.1c1.2,0.8,2.9,1.2,3,3.1
		c3.3,4.4,7.4,8.1,11.4,11.8c1.6,1.4,2.6,2.6,2.4,4.8c-0.2,2.2,1,3.1,3,3.6c3.3,0.8,6.5,0.4,9.8,0.1c9.6-0.8,19.1,1,28.7,0.8
		c0.3,0,0.6,0.3,1.7,1c-4.7,0.7-8.6,1.4-12.5,2c-4.6,0.7-9.4,0.1-13.9,1.9c-1.6,0.7-3-0.3-4.4-0.7c-1.5-0.4-3-0.8-4.3,0.5
		c-1.4,1.3-1.6,2.7,0.5,3.6c1,0.4,2.4,1.1,3.3,0.8c6.1-2.4,11.4,1.1,17.1,1.8c7,0.9,14.2,1.1,21.1,4.2c-3,0.4-6,0.9-9,1
		c-3.4,0.2-6.9,0-10.4,0.1c-3,0.1-3.7,1.3-2.2,3.8c1.5,2.4,3.5,4.3,6.3,5.4c3.1,1.2,6.1,2.6,9.2,3.8c1.2,0.5,2,1,2.1,2.4
		c-0.5,0.4-1.1,0.4-1.7,0.4c-5.4,0.2-10.7-0.6-15.8-2.2c-6.2-1.9-12.4-2.7-18.8-0.7c-2.2,0.7-4.6,0.5-6.8,0.9
		c-4.2,0.7-8.2,2.4-12.6,2.9c-2.4,0.3-3.7,3.3-5.7,4.9c-9.1,8.6-19.5,10.9-31.6,7.6c-4.6-1.3-8.6-3-11.9-6.5
		c-3.4-3.2-5.5-7.2-7.4-11.8c-1.6,5.1-4.6,8.9-8,12.5c-8.2,6.7-23.1,9.3-32.9,5.9c-2.5-0.9-5.2-1.4-7.7-2.2c-2.1-0.7-4-0.2-5.9,0.9
		c-1.9,1-3.8,2.2-5.7,3.2c-1.3,0.7-3,1.8-4.2,0.4c-1.4-1.7,0.3-3,1.3-4.3c0.8-1.1,2.1-1.9,2.6-3.6c-3-1.3-5.9-0.6-8.8,0.5
		c-4.6,1.6-8.8,4.1-13.5,5.5c-3.5,1-4.3,0.6-4.4-3.1c-0.1-2-1.1-2.5-2.6-2.5c-4,0-7.5-1.3-11-3.1c-2.3-1.2-4.7-0.8-7.2-0.5
		c-1.3,0.1-2.8,0.2-3.4-1.2c-0.6-1.4,0.7-2.4,1.7-3.1c2.9-2.2,5.7-4.4,9.1-5.7c5-2,9.6-4.6,14.7-8.1c-3.3-1.1-5.9-0.6-8.5-0.9
		c-1.2-0.2-2.9-0.1-3.1-1.6c-0.2-1.5,1.5-1.9,2.5-2.6c0.6-0.5,1.4-0.5,2.2-0.6c6.5-0.6,12.8-2.4,19.3-3.5c-3.8-0.7-7.7-1.2-11.6-1.6
		C288.2,307.9,286.4,307.3,286.5,304.5z"/>
	<path class="st32" d="M286.5,304.5c0.6,1.9,2.1,2.2,3.9,2.3c4.6,0.3,9.1,1,13.7,1.5c0.8,0.1,1.7,0.2,1.8,1.1
		c0.1,0.9-0.9,1.3-1.6,1.4c-1.7,0.4-3.5,0.5-5.3,0.8c-5.6,1-11.2,2.5-16.9,2.8c-1.3,0.1-2.4,0.6-3.7,1.8c4.7,1.3,9.6-0.8,14,2.2
		c-8.2,7.4-19.6,9.3-27.5,16.8c0.3,0.3,0.5,0.7,0.6,0.6c5.3-1.4,10-0.3,14.6,2.6c1.9,1.2,4.3,0.4,6.4,0.7c3.6,0.4,4.1,1.2,3.2,4.6
		c-0.2,0.6-0.7,1.2-0.2,1.8c0.7,0.7,1.4,0.2,2.1-0.1c4.6-1.9,9.3-3.7,13.8-5.8c3.3-1.5,6.7-1.4,10.2-1.3c0.9,0,1.8,0.2,2.2,1.2
		c0.3,0.9-0.4,1.4-0.9,2c-1.8,1.9-3.7,3.8-5.3,6.1c3.1-0.2,5.5-2.2,7.9-3.6c3.2-2,6.1-2.4,9.7-1.1c3.6,1.3,7.2,2.5,10.9,3.5
		c2.3,0.7,4.8,0.5,7.2-0.1c4.3-1.1,8.6-2.4,13-3.2c2.8-0.6,4.5-2.9,6.8-4c5.3-4.7,10.8-4.7,16.5-0.8c12.1,11.1,31.7,10,42.1-0.7
		c1.4-1,2.9-1.8,4.1-3.3c1.6-2,4-3.1,6.8-2.2c3.1,1,6.8,0.1,9.4,2.8c0.3,0.3,0.6-0.4,0.3,0c-0.1,0.1-0.2,0-0.3-0.2
		c-1.5-2.5-1-3.7,2-3.6c4.2,0.2,8.5,0.6,12.4,2.4c4,1.8,7.8,1.9,11.8,0.1c4.6-2.1,9.5-1.3,14.3-1.4c0.5,0,1,0,1.5,0
		c0.3,0.3,0.5,0.5,0.8,0.8c-7.9,1.6-15.7,3.4-22,9c-2.3,2.1-2.5,3.3,0.3,4.8c4.7,2.5,9.3,5.2,14,7.7c0.3,0.8,0.4,1.7-0.8,1.1
		c-1.8-0.8-3.6-1.7-5.3-2.6c-1.8,0.8-3.2-0.2-4.7-0.9c-2.8-1.3-5.5-2.8-8.5-3.5c-2.7-0.7-5,0-7.1,1.8c-0.6,0.5-0.7,1.1-0.2,1.7
		c1.9,1.9,3.7,3.9,6.7,4c1.3,0,2.5-0.4,3.8-0.4c1.4,0,2.8-0.1,3.8,1.2c-0.4,0.3-0.8,0.7-1.3,0.8c-2.8,0.7-5.6,1.3-6.4,4.6
		c-3.1-0.5-5.1-2.9-7.2-4.8c-3.5-3.2-7.2-4.5-11.9-2.5c-3.5,1.5-7.5,1.7-11.3,2.2c-2.7,0.3-4,1.7-4.5,4.3c-0.8,4.5-1.8,9-2.7,13.5
		c-0.3,1.5-0.5,3-1.7,4.2c-6.1,1.2-11.2,4.8-16.8,7.3c-4.3,1.9-8.8,2.4-13.4,2.8c-5.9,0.6-11.7,0.6-17.6,0.7
		c-15.1,0.3-28.3-4.7-39.6-14.8c-3.1-2.8-6.2-4.4-10.7-3c-10.2,3.2-19.6-0.4-28.8-4.6c-2.8-1.3-5.2-2.3-7.9,0.8
		c2.4-2.8,1.2-4.6-1-6.1c-3.7-2.5-6.6-6.3-11.3-7.7c1.9-1.7,3.8-3.4,5.7-5.2c0.6-0.6,1.8-1.1,1.4-2.1c-0.4-1-1.6-1.1-2.7-1.1
		c-2,0-4.1,0.2-6.1-0.1c-4.7-0.8-9.8-1.2-11.5-7.1c-0.2-0.8-1.4-1.3-2.4-2.2c3.8-0.9,5.1-3.8,6.5-6.7c1.7-3.7,4.8-6.3,6.9-9.6
		c0.5-0.7,1.6-1.2,1-2.2c-0.5-0.9-1.6-0.4-2.5-0.6c-3.6-0.5-7,1.4-10.7,0.5c0.8-1.5,2.2-1.2,3.4-1.3c3.8-0.3,7.6-0.6,11.4-0.8
		c1.4-0.1,2.4-0.8,3.3-1.7c1.9-1.9,3.8-3.8,5.7-5.7c0.7-0.7,2-1.3,1.5-2.4c-0.5-1.3-2-0.9-3.1-0.9c-2.3,0-4.6,0-6.9,0
		c-0.8,0-1.8,0.2-2.4-1.1C277.9,302.7,282.2,304.8,286.5,304.5z"/>
	<path class="st33" d="M272.7,112.2c5,5.1,10,10.2,15,15.4c7.3,7.5,12.6,16.3,16.1,26.2c1.7,4.7,1.2,5-3.4,7c-6,2.6-12.4,4-18.6,5.9
		c-9.8,2.9-18.7,7.2-26.5,14c-5.8,5.1-13.1,6.6-20.4,8.2c-2.5,0.6-3.6-1.4-4.7-3.2c-1.9-3.2-2.4-7-3.7-10.4c-1.6-1.2-1.8-3-2-4.8
		c-2.5-22.2-0.4-43.9,7.3-65c1-2.7,2.1-5.2,3.7-7.6c3.3-5,7.3-6.3,12.9-4.2c5,1.9,9.1,5.1,13.4,8.1c2.9,2,5.7,4.4,8.4,6.7
		C271.4,109.5,272.6,110.5,272.7,112.2z"/>
	<path class="st34" d="M524.1,157.6c0,8.9-1,16.9-2.5,24.8c-0.9,5.2-2.6,5.8-6.8,2.8c-3.4-2.4-6.6-5.2-10.4-7.2
		c-1.6-0.9-2.4-2.4-2.9-4.3c-1.7-6.7-3.3-13.3-7-19.4c-4.9-8-12.2-12.4-20.6-15.7c-5.1-2-9.7-1.6-14.6,0.8
		c-3.1,1.5-6.6,2.9-10.3,2.8c-2.4,0-3.1-1-1.9-3.1c2.6-4.6,5.6-8.9,9.3-12.6c8.3-8.5,16.3-17.4,26.2-24.1c5.5-3.7,11.1-7.3,17.7-8.9
		c4.7-1.1,8.7,0.6,10.9,4.8c6.5,12.3,9.7,25.5,11.2,39.2C523.4,144.5,523.9,151.5,524.1,157.6z"/>
	<path class="st35" d="M428.1,279.7c-5.1-3-10.5-5.7-13.9-11c-3.8-8.8,1-16.5,9.4-23.1c2.8-2.2,6.2-3.5,9.3-5.2
		c4.5-1.8,8-1.1,9.9,1.9c1.9,3.1,1.2,7.5-1.6,10.2c-2.1,2-4.4,2.5-7,1.3c-2.5-1.2-3.1-0.1-3.2,2.2c-0.2,4.7,0.9,8.8,4.2,12.3
		c5,5.2,12.3,5.1,17.1-0.4c3.8-4.2,5.1-9.3,4.9-14.9c-0.1-1.8-0.6-3.6,0.6-5.2c6.2-2.2,15.3,4.9,14.9,11.6c-0.1,1.1-0.7,2.2-0.2,3.4
		c-6.2,14.6-21.2,22.3-36.5,18.6C433.2,280.9,430.7,280.3,428.1,279.7z"/>
	<path class="st5" d="M272.7,112.2c-6.3-5.2-12.6-10.4-19.6-14.6c-2.2-1.3-4.4-2.4-6.9-3.2c-4-1.2-6.7,0.3-8.9,3.3
		c-4,5.5-5.7,12-7.4,18.4c-4.2,15.3-5.4,30.9-4.7,46.6c0.2,4.2,1,8.3,1.5,12.5c-2.5,4.4-3.3,9.3-3.2,14.3c0,1.1-0.3,1.7-1.3,1.8
		c0-3.6,0-7.1-0.1-10.7c-0.7-1.2,0-2.7-0.6-3.9c-0.1-1.5-0.1-3-0.2-4.5c-0.7-1.2,0-2.7-0.5-3.9c-0.1-2.5-0.2-5-0.3-7.6
		c-0.4-5.7-0.5-11.5,0-17.2c0.1-2.5,0.2-5,0.2-7.6c0.6-1.5-0.2-3.2,0.5-4.7c0.8-13.5,3.6-26.6,9.3-38.8c4-8.5,8.3-9.8,16.7-5.7
		c3.1,1.6,6.3,3.1,9.4,4.7c1.4,0.2,2.6,0.6,3.8,1.5c8.5,6.6,16.6,13.7,24.3,21.2c1.2,1.2,2,2.6,2.7,4.1c5.1,4.8,10.2,9.6,15.3,14.4
		c1.1,1,2.1,2.2,3.2,3.3c-0.1,0.1-0.2,0.3-0.3,0.3c-4.4-2.7-10.2-2.4-13.9-7.3c-4.4-6-10.2-11-16.1-15.6
		C274.7,112.8,273.6,112.6,272.7,112.2z"/>
	<path class="st36" d="M281.9,267.8c-1.7-1.3-1.7-3.6-3.2-5c-0.2-0.7-0.3-1.5-0.5-2.2c-1.5-6.9-0.9-13.5,2.9-19.6
		c1.3-1.9,3-2.6,5.3-2.1c2.1-0.7,4.2-1.4,6.2-2.1c2.1-2.2,4.6-2.4,7.3-1.5c1.9,1.8,0.2,3.2-0.5,4.9c2.9-0.1,5.7-0.1,7.5,2.7
		c1.9,3,1.5,6.9-1.3,9.8c-2.3,2.4-4.7,2.6-8.2,0.6c-1.1-0.6-2.2-1.2-3.1-2.2c-1-1.5,0.5-3.2-0.3-5c-2,0.8-3.2,2.5-4.1,4.2
		c-2.7,5-5.9,9.8-6.8,15.6C282.9,266.6,282.6,267.3,281.9,267.8z"/>
	<path class="st5" d="M205,228.3c3.2-5.5,6.4-10.9,9.6-16.4c2.4-4.1,4-8.5,5.8-12.8c0.2-0.1,0.6-0.1,0.7-0.3c3.7-5.1,6.5-2.7,9.4,1
		c0.8,1.1,1.5,1.9,1.5,3.3c0.1,2.7-1.6,5.4,0.6,8.2c0.8,1-0.7,2.3-2,2.7c-1.9,0.7-3.9,1.8-5.8,1.8c-6,0.1-9.9,4.3-14.5,7
		c-1.1,0.6-1,2-1.5,3C208,227.3,207.5,229.4,205,228.3z"/>
	<path class="st37" d="M472.4,263c-0.2-0.6-0.6-1.1-0.7-1.7c-0.6-7.6-6.2-12.8-13.9-12.9c-1.2,0.1-1.9-0.8-2.3-1.7
		c-1.7-3.5-4.3-6.1-7-8.8c-0.9-0.8-2.5-1.8-0.7-3.4c3.3-0.8,6.5-0.7,9.2,1.6c3.9,1.6,8.3,2,11.8,4.6c4.4,3.6,5.1,8.6,5.3,13.8
		c0,1.3-0.6,2.5-0.2,3.8C473.4,259.8,472.9,261.4,472.4,263z"/>
	<path class="st38" d="M433.3,241.4c-3.2,2.5-7.2,3.7-10.4,6.4c-6.5,5.5-10,12.2-8.8,20.9c-4-4.6-3.5-9.7-1.7-15
		c3.4-7.3,9.1-12.4,16.3-15.9c1.3-2.2,3.3-2.7,5.7-2.3C436.7,238,434.4,239.6,433.3,241.4z"/>
	<path class="st39" d="M339.5,256.9c0.6,4.4,0.4,8.7-2.6,12.4c-1.5-0.8-1-2.2-0.8-3.4c1.3-9-1.7-14-10.2-17c-1.3-0.5-2.7-0.9-4-1.3
		c-3.6-2.7-5.6-6.9-9-9.9c-0.5-0.5-0.8-1.3,0-2c3.6-1.1,6.4,0.4,9,2.7C330,242.4,336.3,248.1,339.5,256.9z"/>
	<path class="st5" d="M286.5,239c-1.6,0.7-3.1,1.5-4.7,2.2c-1.2,1.8-3.2,2.4-5.1,3.1c-4.4,1.4-8.9,2.1-13.4,3.2
		c-1.1,0.3-2,0.3-2.9-0.5c-0.2-2.1,0.5-4.2,0.2-6.4c-0.1-1,0.2-1.9-0.8-2.6c-0.7-0.5-1.7-1.1-0.9-2.1c0.6-0.8,1.6-0.6,2.5-0.6
		c0.9,0,2,0.3,1.8,1.4c-0.5,2.5,1,2.4,2.6,2.4c2.7,0,5.3-0.2,7.9,0.6c1.6,0.5,2.8-0.8,4.3-1.3C280.9,237.4,283.8,236.5,286.5,239z"
		/>
	<path class="st40" d="M260.5,246.9c7.1-1.9,14.3-3.8,21.4-5.8c0.4,0.6,0.2,1.2-0.1,1.8c-2.3,4.3-3.1,8.8-2.9,13.6
		c0.1,1.3,0.5,2.8-0.5,4c-1.6-2.7-1.8-6-3.9-8.5c-3.4-2-6.9-3.7-11-3.4c-1.2,0.1-2.3-0.2-3-1.3C260.5,247.2,260.5,247.1,260.5,246.9
		z"/>
	<path class="st41" d="M473.9,258.3c-1.1-6-2-12.1-5-17.6c7,1.9,13.8,4.5,21.3,5.8C482.1,247.1,475.3,249.1,473.9,258.3z"/>
	<path class="st5" d="M434.7,236.2c-2,0.6-3.9,1.1-5.9,1.7c-0.2-3,1.3-4.2,4.1-4.1c4.6,0.2,9.1-1,13.5-1.9c4-0.8,7.2,0.3,10.6,1.7
		c2.2,0.9,2,1.8-0.1,2.5c-3.2-0.2-6.4-0.4-9.6-0.7C443.3,237.4,439,237.7,434.7,236.2z"/>
	<path class="st5" d="M321.9,238.3c-3-0.8-6-2-9.2-2.1c-4,1.4-8.1,1-12.1-0.1c-2.7-0.7-5.3,0.5-7.9,0.7c-1.3-1.6,0.1-2,1.2-2.3
		c8-2.3,16.1-2.5,24.1,0C319.8,235.1,321.6,236,321.9,238.3z"/>
	<path class="st5" d="M260.4,247.4c5.2,0,10.5-0.2,14,4.7c-4.1-0.5-7.8-2.6-12-2.4C261.1,249.8,260.5,248.7,260.4,247.4z"/>
	<path class="st5" d="M508,302.3c2.6-1.3,5.1-1.2,7.7-0.2C513.2,303.3,510.6,302.9,508,302.3z"/>
	<path class="st5" d="M260.7,227c0,1.4-0.9,1.3-1.6,1.3c-1,0-2.2,0.3-2.3-1.2c-0.1-1.1,0.7-1.6,1.7-1.6
		C259.7,225.4,260.2,226.3,260.7,227z"/>
	<path class="st5" d="M200.5,236.8c0.5-2.3,1.6-4.3,3-6.2C203.2,233,204.2,236,200.5,236.8z"/>
	<path class="st5" d="M522.5,319c-0.5,0-1,0-1.5,0c-2-0.3-3.9-0.6-5.9-0.9c0-0.3,0.1-0.5,0.1-0.8C517.7,318.1,520.4,316.2,522.5,319
		z"/>
	<path class="st42" d="M322,246.8c11.6,0.9,17.8,9.3,15,20.3c-0.2,0.7-0.7,1.4-0.1,2.1c-5.6,7.5-13.4,11.3-22.4,12.8
		c-1.1,0.2-2.2,0.5-3.3,0.8c-10.8-0.5-20.3-3.6-27.4-12.3c-0.7-0.9-1.8-1.5-1.8-2.8c0.3-8.8,4.9-15.6,10.1-22.2
		c0.5-0.7,1.4-1.1,2.2-1.5c1.5-0.6,2.3-0.2,1.7,1.5c-0.6,1.6-0.4,3.5-1.7,4.9c1.2,2,0.5,4.3,0.6,6.4c0.1,4.5,1.2,8.5,4.5,11.8
		c5.3,5.3,12.3,5.3,17.5-0.2c4.5-4.8,5.9-10.5,5-17C321.6,250,320.8,248.4,322,246.8z"/>
	<path class="st27" d="M421.8,379c0.3-7,2.4-13.8,3.7-20.6c0.4-1.8,1.6-2.3,3.3-2.5c5.4-0.8,10.9-1.3,16-3.4
		c1.9-0.7,3.9-0.8,5.5,0.4c3.7,2.8,7.7,5.5,10.7,9.1c-8.5,9-18.5,15.4-31.2,16.6C427.2,379,424.5,378.9,421.8,379z"/>
	<path class="st27" d="M468.7,356.7c-2.3,0.1-4.5-0.1-6.8,0.5c-2.2,0.6-8.9-3.3-9.8-5.5c-0.4-1-0.2-1.8,0.7-2.3
		c3.2-1.9,6.4-3.9,10.3-2c3.9,1.8,7.8,3.7,11.7,5.5C473.5,355.2,471.2,356.1,468.7,356.7z"/>
	<path class="st32" d="M486.7,358.5c3.1,1.2,5.7,3.3,8.4,5.1c-0.1,0.2-0.3,0.5-0.4,0.7c-2.7-1.7-5.5-3.5-8.2-5.2
		C486.4,359.1,486.6,358.7,486.7,358.5z"/>
	<path class="st33" d="M220.3,143.6c0,5.7,0,11.5,0,17.2c-1.2-5.6-0.2-11.4-0.5-17C220,143.7,220.2,143.7,220.3,143.6z"/>
	<path class="st33" d="M221.1,131.3c0.1,1.6,0.5,3.2-0.5,4.7C220.5,134.4,220.2,132.8,221.1,131.3z"/>
	<path class="st33" d="M220.6,168.4c0.9,1.2,0.6,2.6,0.5,3.9C220.4,171.1,220.4,169.7,220.6,168.4z"/>
	<path class="st33" d="M221.3,176.8c1,1.2,0.7,2.6,0.6,3.9C221.1,179.5,221.2,178.2,221.3,176.8z"/>
	<path class="st26" d="M486.4,332.1c-6.7,0.9-13.3,2.1-19.7,4.5c-1.2,0.5-2.5-0.3-3.7-0.8c-5.5-2.4-11.3-3.5-17.8-3.7
		c0.9,2,2.3,2.8,3.8,4.3c-2.5,0.1-4.1-1.2-5.8-1.8c-2.2-0.8-4.4-1.4-6.6-2.1c-2.9-1-5.3,0.1-6.7,2.3c-1.2,1.8-2.6,2.3-4.3,2.7
		c1.3-1.4,2.5-2.8,3.9-4.1c2-1.9,4.4-2.6,7.1-1.8c1.3,0.4,2.4,0.9,2.6-1.3c0.2-1.5,1.7-1.3,2.8-1.2c4.3,0.2,8.4-0.3,12.5-1.5
		c5.5-1.6,10.6,0.1,15.8,1.4c4.7,1.2,9.3,2.8,14.3,2.5C485.3,331.4,485.8,331.9,486.4,332.1z"/>
	<path class="st43" d="M383.6,338.2c-0.2,0.3-0.6,0.8-0.6,0.7c-5.3-3.5-10.7-2.2-16,0.1c4-4,6.8-8.7,8.5-15
		C377.9,329.6,379.5,334.6,383.6,338.2z"/>
	<path class="st44" d="M391.1,293c-1.8,1.7-3.8,1.4-5.5,1.9c-0.9,0.3-2.2,0.6-2.8-0.5c-0.6-1.1-0.5-2.5,0.2-3.7
		c0.7-1.1,1.9-1.2,3-0.6C387.7,291.1,389.2,291.9,391.1,293z"/>
	<path class="st45" d="M361.8,293.2c1.6-2.1,3.7-2.7,5.7-3.2c1.6-0.4,2.8,0.2,2.8,2c0,1.4-0.3,2.9-2.3,2.7
		C365.9,294.5,363.7,294.7,361.8,293.2z"/>
	<path class="st46" d="M434.7,236.2c4.2-0.9,8.4-1.4,12.7-0.7c4.5,3.4,8.1,7.6,10.3,12.9c1.3,5.5,0.9,10.9-1.4,16.1
		c-3,6.7-9.4,10.5-15.9,9.2c-5.1-1-10.4-7.7-10.9-13.9c-0.1-0.8-0.1-1.5-0.1-2.3c0.1-2-0.8-4.5,0.6-5.9c1.9-2,3.4,0.9,5.1,1.6
		c2.5,0.9,3.9-0.3,5.4-1.7c2.3-2,2.5-4.7,1.8-7.4c-0.5-1.9-2-3.2-4.2-3.4c-1.7-0.1-3.3,0.1-4.9,0.8
		C433.8,239.7,434.2,237.9,434.7,236.2z"/>
	<path class="st47" d="M322,246.8c2.1,6.2,2.1,12.2-0.9,18.1c-3.5,6.7-9.6,10.1-16.2,8.9c-5.7-1.1-10.9-7.3-11.4-14.2
		c-0.2-3-0.7-6.1,0.7-9c2-0.6,2.9,1.3,4.3,2.1c2.1,1.3,3.9,1.7,5.8-0.2c2.4-2.4,3.5-5,2.1-8.3c-1-2.4-3-3.4-5.6-3
		c-1.3,0.2-2.6,0.8-4.1,1.2c0.1-2.9,3-4,3.9-6.3c4-1.3,8.1-0.7,12.1,0.1C316.4,239.3,319.5,242.8,322,246.8z"/>
</g>
</svg>
