<?xml version="1.0" encoding="utf-8"?>
<!-- Generator: Adobe Illustrator 27.4.0, SVG Export Plug-In . SVG Version: 6.00 Build 0)  -->
<svg version="1.1" id="Layer_1" xmlns="http://www.w3.org/2000/svg" xmlns:xlink="http://www.w3.org/1999/xlink" x="0px" y="0px"
	 viewBox="0 0 720 720" style="enable-background:new 0 0 720 720;" xml:space="preserve">
<style type="text/css">
	.st0{fill:#BC1B36;}
	.st1{fill:#F6EFE2;}
	.st2{fill:#FECD53;}
	.st3{fill:#F9D998;}
	.st4{fill:#EBDEC7;}
	.st5{fill:#F1EAD9;}
	.st6{fill:#E0D1BC;}
	.st7{fill:#F3EBD5;}
	.st8{fill:#E2D7C6;}
	.st9{fill:#EFEADE;}
	.st10{fill:#D7A59C;}
	.st11{fill:#D7DDD2;}
	.st12{fill:#D5A59E;}
	.st13{fill:#BAA19E;}
	.st14{fill:#FAD37F;}
	.st15{fill:#BAA19F;}
	.st16{fill:#4D8587;}
	.st17{fill:#3E7B81;}
	.st18{fill:#D7CABF;}
	.st19{fill:#D8CCC1;}
	.st20{fill:#0E0D0D;}
	.st21{fill:#0C0C0B;}
	.st22{fill:#EB7F85;}
	.st23{fill:#F3C1C1;}
	.st24{fill:#318F92;}
	.st25{fill:#326092;}
	.st26{fill:#25416A;}
	.st27{fill:#9BBAB7;}
	.st28{fill:#D9D0B6;}
	.st29{fill:#E8DAC2;}
	.st30{fill:#F1E1C1;}
	.st31{fill:#F1E9D8;}
	.st32{fill:#F1DFBC;}
	.st33{fill:#AE7D6E;}
	.st34{fill:#324E71;}
	.st35{fill:#AFC5B2;}
	.st36{fill:#B5C9C5;}
	.st37{fill:#D4D0B9;}
	.st38{fill:#AFC6C4;}
	.st39{fill:#F7642E;}
	.st40{fill:#669EA4;}
	.st41{fill:#2F7D81;}
	.st42{fill:#A6C1C0;}
	.st43{fill:#EDCFA1;}
	.st44{fill:#F0DFC0;}
	.st45{fill:#DBE1D5;}
	.st46{fill:#69B9B7;}
	.st47{fill:#30507C;}
	.st48{fill:#F3ECDD;}
	.st49{fill:#BDD4CB;}
	.st50{fill:#95B9B9;}
	.st51{fill:#5E8499;}
	.st52{fill:#EDE3C9;}
	.st53{fill:#4F7072;}
	.st54{fill:#52A9AA;}
	.st55{fill:#B6AE83;}
	.st56{fill:#E7D9BA;}
	.st57{fill:#A7AA95;}
	.st58{fill:#29446C;}
	.st59{fill:#B1C7C5;}
	.st60{fill:#E8AE73;}
	.st61{fill:#A1A377;}
	.st62{fill:#EFE4CB;}
</style>
<rect x="0" y="0.5" class="st0" width="720" height="720"/>
<g>
	<path class="st1" d="M323.6,83.9c9.7-0.1,19.3,1,28.9,3c6,1.3,11.5,0.6,16.5-4c11.1-10.2,23.6-18.8,35.5-28.1c0,0,0.1-0.1,0.1-0.1
		c0.7-0.4,1.2-1,1.9-1.4c1-0.7,2-1.3,3.1-2c0.6-0.4,1.2-0.8,1.7-1.3c1-0.6,2.1-1.2,3.1-1.8c0.6-0.5,1.2-1,2-1.3
		c0.5,0,0.9-0.2,1.3-0.4c0.6-0.4,1.2-0.8,1.8-1.2c0.5,0,1-0.2,1.4-0.4c0.7-0.4,1.2-0.9,2-1.2c1-0.2,1.9-0.4,2.9-0.6
		c0.7-0.4,1.3-0.7,2-1c0.8,0,1.6,0,2.5,0c0.7,0.3,1.3,0.7,2,1c6.3,3.1,9.5,8.6,11.8,14.8c2.8,7.6,5.4,15.2,8,22.9
		c3.8,3.1,4.8,7.6,5.5,12.1c1.6,9.7,3,19.5,4.5,29.2c0.1,18.5,8.2,34.3,17.4,49.6c10.7,17.6,18.5,36.4,23.6,56.3
		c0.9,3.4,2.2,6.7,1.5,10.3c-6.5,10-10.2,21.4-15.1,32.1c-2.6,5.6-5,11.4-8.8,16.4c-6.6,8.5-16.9,11.9-24.9,8.2
		c-5.7-2.6-6.5-5.7-1.4-9.2c4.6-3.2,5.9-7.2,5.8-12.4c-0.1-6.7,0.3-13.4,1.1-20.2c1.8-16.9-15.2-45.3-33.5-47.1
		c-12.3-1.2-21.6-10.7-33.2-14.5c-4.3-1.4-8.2-4.2-12.9-4.4c-7.1-0.6-13.8-4.7-21.2-2.4c-0.7,0.3-1.5,0.4-2.3,0.5
		c-6.1,0.7-11.1,4.1-16.4,6.6c-0.6,0.4-1.3,0.8-2,1.1c-0.3,0.2-0.7,0.4-1,0.6c-0.7,0.4-1.4,0.7-2.1,1c-0.4,0.1-0.7,0.2-1.1,0.3
		c-4.6-0.4-3.5-3.2-2.1-5.7c1.3-2.4,3.7-3.9,6-5.4c3.7-2.4,4.7-5.6,3.3-9.8c-1.3-3.8-2.5-7.7-3.7-11.6c-0.5-1.8-1-3.9-3.3-4.2
		c-7.6-1.1-9.6-7.2-11.7-13c-3.4-9.4-6-19-6.2-27.6c-1.9,8-1.9,18.9-6.5,26.7c-6.1,10.4-5,20.1-4.5,30.5c0.1,1.1-0.1-0.3-0.2,0.8
		c-8,10.8-16.7,10.8-26.3,0.1c-1.7-3.7-0.5-7.4,0.1-11.1c1-5.7,3.1-11.6-3.8-15.6c-1.7-1-1.9-3.8-2.3-5.9c-0.8-4.2-1.5-8.5-2.5-12.7
		c-1-4.1-2.3-8.2-3.3-13.3c-0.5,12-2.9,22.7-7.6,32.8c-1.7,3.8-3.2,8.4-8.9,7.9c-2.3-0.2-2.6,1.6-2.9,3.2
		c-1.5,8.3-5.3,16.6-0.9,25.1c-0.2,1.3-0.9,2.2-2,2.8c-5.7,1.6-10.1-2.7-15.3-3.4c-0.8-0.1-1.6-0.3-2.3-0.5
		c-6-2.4-11.8-0.5-17.1,1.8c-5.7,2.5-7.5,8.9-5,15.1c5.4,13.1,13.7,18,28.3,16.7c2.2-0.2,4.3-0.3,6.3,0.7c4.8,5.6,10,7.4,16.7,2.9
		c3.3-2.2,7.6-2.6,11.7-2.9c5.3-0.5,9.7-2.6,13.9-5.9c8.4-6.6,12-7,21-0.8c6.7,4.6,13.7,7,21.8,6.8c3.7-0.1,6.8-0.8,9.8-2.8
		c1-0.6,2-0.9,3.1-1c0.7,0,1.4,0,2.1,0.2c0.6,0.1,1.3,0.4,1.9,0.6c0.6,0.2,1.1,0.5,1.7,0.8c0.8,0.4,1.6,0.8,2.4,1.2
		c0.6,0.2,1.1,0.4,1.6,0.6c1.1,0.4,2.3,0.6,3.5,0.8c1,0.1,1.9,0.3,2.9,0.5c3.3,1.1,6.7,1.2,10.1,0.2c0.7-0.3,1.4-0.5,2.1-0.7
		c1.1-0.3,2.2-0.7,3.4-0.8c0.8-0.1,1.6,0,2.4,0.1c14.7-2.5,24.2,4.5,30.9,16.8c3.2,5.9,7.7,11.2,10.2,17.5c2.7,6.8,0.4,10.1-6.8,9.2
		c-7.5-1-15-2-22.5-2.8c-5.4-0.5-9.5-3.3-13.2-7.3c-5.2-5.6-11.1-10.2-17.9-13.8c-4.7-2.5-9.2-2.7-13.7,0.4
		c-9.6,6.6-19.3,5.4-29.1,0.4c-0.5-0.6-1-1.2-1.3-1.9c-0.1-0.7-0.1-1.4,0-2.1c0.2-0.9,0.6-1.8,0.9-2.6c0.2-0.8,0.2-1.5,0-2.3
		c-0.3-0.4-0.5-0.9-0.9-1.2c0,0-0.6-0.5-0.7-0.5c-0.6-0.3-1.1-0.6-1.6-0.9c-2.4-1.2-4.9-2-7.5-2.7c-3.3-1.4-6.7-1.4-10.1-0.2
		c-1.3,0.3-2.7,0.6-4,0.9c-0.9,0.3-1.9,0.5-2.8,0.8c-1.2,0.5-2.3,1-3.3,1.7c-0.7,0.6-1.2,1.4-1.6,2.2c-0.6,1.8-0.2,3.4,1.3,4.6
		c7.6,3.9,13.5,9.1,14.6,18.4c0.5,4,0.2,7.3-2.8,10.1c-3.1,2.6-6,5.5-9,8.2c-3.8,3.5-6.5,6.6-13.7,3.9c-5.8-2.2-13.6,3.2-19.7,7.2
		c-3.8,2.5-7.1,5.8-11.1,8.1c-3.4,1.9-7,3.4-10.1-0.5c-0.4-0.4,0-1.3-0.6-1.5c-0.2-0.1-0.6,0.7-0.9,1.2
		c-7.4,6.4-15.5,11.7-23.3,17.4c-2,1.5-4.3,2.7-6.8,1.8c-5.2-1.8-10.8,0-15.9-2.2c-1.3-0.6-2.5-0.6-3.9,0
		c-13.7,6.2-26.3,1.6-38.7-4.3c-5.9-2.8-11.1-6.7-16.1-10.8c-4.7-3.9-9.9-6.5-16-7c-8.7-6.1-15.3-13.8-19.5-23.6
		c1.7-18.8,7.7-36.5,12.8-54.4c3.8-13,10.1-25,16.8-36.6c8.7-15.2,11.8-31.6,13.8-48.5c1.8-21.9,4.7-43.5,12.2-64.3
		c1.7-4.6,3.5-9.1,6.9-12.7c2.5-2.6,5.3-4.7,9.3-3.3c9.3,2.9,17.5,8,25.8,12.8c4.4-1.5,7.1,1.5,10.1,3.7
		c9.7,6.9,19.1,14.1,27.9,22.1c4.5,4.1,9.4,5.4,15.6,4.2c13-2.4,26.1-4.7,39.4-3.3C292.4,83.8,308.1,82.8,323.6,83.9z"/>
	<path class="st2" d="M406.4,53.4c-0.6,0.5-1.2,0.9-1.9,1.4C405.2,54.3,405.8,53.8,406.4,53.4z"/>
	<path class="st2" d="M411.2,50.1c-0.3,0.8-0.8,1.3-1.7,1.3C410.1,51,410.7,50.5,411.2,50.1z"/>
	<path class="st2" d="M416.3,47c-0.4,0.8-1.1,1.3-2,1.3C415,47.8,415.7,47.4,416.3,47z"/>
	<path class="st2" d="M419.5,45.3c-0.4,0.8-1,1.2-1.8,1.2C418.2,46.1,418.9,45.7,419.5,45.3z"/>
	<path class="st2" d="M422.9,43.7c-0.7,0.4-1.3,0.8-2,1.2C421.5,44.5,422.2,44.1,422.9,43.7z"/>
	<path class="st2" d="M432.2,43.1c-0.7-0.3-1.3-0.7-2-1C430.8,42.4,431.5,42.8,432.2,43.1z"/>
	<path class="st2" d="M427.7,42.1c-0.7,0.3-1.3,0.7-2,1C426.4,42.8,427.1,42.5,427.7,42.1z"/>
	<path class="st3" d="M274.7,83.8c5.3-2.5,10.9-0.7,16.3-1.7c7.6,0.1,15.1,0.1,22.7,0.2c3.3,0.6,6.9-0.8,9.9,1.6
		C307.3,83.9,291,83.9,274.7,83.8z"/>
	<path class="st4" d="M720.8,463.3c-0.6-2.3-1.3-4.6-2.1-6.7c-1-2.8-2.5-5.4-4.3-7.8c-0.6-0.8-1.2-1.6-1.8-2.4
		c-0.4-0.2-0.8-0.4-1.2-0.6c-1.9-0.9-3.8-1.7-5.8-2.5c-1-0.4-2-0.7-3.1-0.9c-1.8-0.4-3.7-0.4-5.5,0c-1.1,0.2-2.2,0.5-3.3,0.8
		c-1.1,0.3-2.3,0.7-3.3,1.1c-1.1,0.5-2.3,0.9-3.5,1.4c-10.5,6.1-16.7,15.7-18.4,27.2c-1.9,13.5-2.3,27.3,1.1,40.9
		c0.2,3.9,1.2,7.8,1.9,11.6c1,3.4,1.8,6.7,1,10.3c-0.1,2.4,0.3,4.6,1.5,6.7c1.7,2.4,4.3,3.5,7,3.2c9.5-0.8,19.1-0.9,27.2-7.1
		c1.3-3.4,2.9-6.9,2.8-10.5c0-1.3,0.4-2.3,1.1-2.9c0.2-1,0.4-2.1,0.6-3.1c0.8-4.1,1.8-8.1,2.4-12.2c0.6-4.2,1-8.5,1.9-12.6
		c0.9-4.1,2.6-8,2.6-12.2c0-1.2,0.5-2.2,1.2-2.8C720.9,475.9,720.8,469.6,720.8,463.3z"/>
	<path class="st5" d="M46.1,356.6c0.1-0.6,0.2-1.2,0.4-1.7c0.4-0.6,0.8-1.3,1.1-1.9c2.4-10.7,7.2-20.3,11.9-30.1
		c4.8-1.9,8.9,0.7,13,2.3c11.6,4.7,23,9.8,34.4,15.1c2.2,1.4,4.4,2.8,5.1,5.5c-1.1,5.4,0.3,9.9,3.8,14.1c5,6.1,9,12.8,11.9,20.2
		c2.1,5.5,6.1,9.7,11.4,12.2c14.9,6.9,28.9,15.9,44.2,22.1c8,3.3,16.1,6,25.1,5.2c6.6-0.6,13,2.3,19.9,1.9
		c15.9-0.9,31.7-2.2,47.1-6.2c7.9-2,15.9-3.1,23.9-4.1c6-0.8,11.8,1.1,17.6,1.7c7.7,0.8,15.5,2.2,23.1,3.5c3.9,0.7,7.4,0.8,11.1-0.1
		c7.4,0.5,14.3,3.3,21.5,5c10.4,3.6,21.1,4.6,32,3.3c3.7-1.2,7.1-3.3,10.6-5c9.9-3.4,16.3-11.2,23-18.5
		c12.6-13.7,24.8-27.7,36.5-42.1c2.6-3.2,5.7-5.7,9.4-7.5c3.7-1.9,7.8-2.2,10.4,1.2c6.8,8.6,14.9,15.4,25.1,19.5
		c1.9,0.8,2.9,3,5.2,4.9c-7.1-9.1-6.6-11.9,2.3-16.7c7.2-3.8,7.5-6.1,1.6-11.5c-4.3-3.9-4.6-9.4,0.3-12.1
		c5.7-3.1,10.3-7.7,16.2-10.4c0.8-0.1,1.6,0,2.3,0.3c0.7,0.3,1.4,0.8,2,1.3c0.5,0.6,1,1.2,1.4,1.9c0.5,1.1,0.8,2.2,0.7,3.4
		c-0.1,0.8-0.4,1.5-0.9,2.1c-4.5,3.2-6.2,7.1-2.7,12.2c2.9-0.4,3.4-4.2,6.4-4.4c1.2,0,1.9,0.7,2.6,1.7c0.5,0.8,0.9,1.8,1.3,2.7
		c0.3,0.6,0.5,1.1,0.7,1.7c0.4,0.8,0.7,1.7,1,2.5c0.3,0.8,0.6,1.7,0.9,2.5c0.3,0.8,0.6,1.7,0.9,2.5c0.3,0.6,0.4,1.1,0.6,1.7
		c0.2,0.9,0.6,1.7,0.9,2.6c0.3,0.9,0.6,1.7,0.8,2.6c0.3,0.8,0.6,1.7,0.9,2.6c0.2,0.5,0.4,1.1,0.6,1.7c0.3,0.8,0.6,1.7,0.9,2.5
		c0.3,0.5,0.5,1.1,0.7,1.6c0.4,0.8,0.7,1.7,1,2.5c0.3,0.9,0.5,1.8,0.7,2.7c0.2,0.6,0.2,1.3,0.3,1.9c0.2,1,0.2,2.1-0.1,3.1
		c-0.2,0.7-0.6,1.3-1,1.9c-5.7,9.9-17.3,11.7-25.5,18.2c-7,5.5-15.2,9.7-23.2,14c-0.5,0.5-1.1,0.9-1.7,1.2c-0.9,0.5-1.7,1-2.6,1.5
		c-0.5,0.4-1.1,0.8-1.7,1.1c-0.8,0.6-1.7,1.1-2.6,1.6c-2.8,1.4-5.8,2.3-8.7,3.3c-0.9,0.4-1.9,0.6-2.9,0.9c-0.9,0.3-1.8,0.6-2.8,0.9
		c-0.9,0.3-1.8,0.7-2.7,1c-1.8,0.7-3.6,1.4-5.3,2.1c-0.9,0.4-1.8,0.8-2.7,1.1c-1.9,0.8-3.8,1.6-5.7,2.4c-1,0.5-2,1-3.1,1.4
		c-2.3,1.2-4.8,1.4-7.1,2.4c-17.1,5.4-34.5,8.7-52.6,6.8c-11.4-1.2-22.6,0.9-33.9,2c-14.3,1.4-28.1,5.7-42.4,6.5
		c-24.5,1.3-48.8,5.6-73.5,4.3c-4.3-0.2-8.6-0.6-12.7-2.1c-18.5-6.7-37.6-9.9-57.2-9.1c-21.9,0.8-43-3.4-63.6-10.2
		c-0.9-0.2-1.8-0.4-2.7-0.5c-1.3-0.2-2.5-0.6-3.8-1c-27.6-9.2-54.6-19.9-79.9-34.4c-1-0.6-2-1.2-2.9-1.9c-2.8-1.9-5.8-3.3-8.2-5.7
		c-0.7-0.8-1.2-1.8-1.4-2.8c-0.1-0.7,0-1.3,0-2c0.1-0.9,0.5-1.8,0.7-2.7c0.1-0.9,0.4-1.7,0.6-2.6c0.1-0.5,0.3-1.1,0.5-1.6
		c0.3-0.8,0.5-1.5,0.8-2.3c0.1-0.5,0.3-1.1,0.4-1.6c0.1-0.5,0.3-1,0.5-1.6c0.2-0.8,0.4-1.6,0.6-2.4c0.1-0.8,0.3-1.7,0.5-2.5
		c0.1-0.6,0.3-1.1,0.5-1.7c0.3-0.8,0.5-1.7,0.8-2.5c0.1-0.6,0.3-1.1,0.5-1.7c0.4-1.1,0.8-2.3,1.3-3.4c0.3-0.6,0.6-1,1.1-1.5
		C45.1,358.8,45.3,357.5,46.1,356.6z"/>
	<path class="st6" d="M106.1,342c-9.8-2.7-18.6-8.1-28.1-11.7c-6.2-2.3-12.4-5-18.5-7.5c5.3-12.5,10.7-25,16-37.5
		c1.4-9.2,3.9-17.8,12.7-22.8c5.6,7.4,11.2,14.8,17.9,21.2c3.2,1.6,5.5,4.1,7.9,6.7c16.8,17.9,35.3,33.6,57.2,45
		c0.7,0.3,1.4,0.8,2.1,1.3c12.2,5.6,25.3,7.6,38.2,10.3c23.2,4.8,46.4,9.9,69.7,14.5c11.8,2.3,23.4,2.1,35.4,0.6
		c22.6-2.7,44.7-7.2,66.4-13.9c9-2.8,18.6-3.5,27.6-6.2c6.5-2,6.8-2.8,2.2-7.8c-3.5-3.8-7.3-7.2-11.3-10.4c-2.5-2-5-4.1-6.8-6.9
		c-1.1-1.7-2.9-3.8-0.9-5.7c1.9-1.8,4.2-0.4,5.9,0.8c4.6,3.3,8.8,7.1,13.1,10.8c2.2,2,4.3,4.1,6.4,6.2c4.2,4.2,8.3,8.5,14.9,8.9
		c2.4,0.1,4.9,1.1,5.2,4.2c0.3,2.7-1.5,4.5-3.5,6c-1.8,1.3-3.8,2.1-5.9,2.6c-11,2.7-21.6,6.7-32,11.3c-15.1,1.6-28.5,7.2-41.2,15.3
		c-12.4,7.9-26.2,11.7-40.9,6.8c-11.6-3.8-23-2.5-34.2,0.5c-11.4,3-21.9,0.8-32.3-3.7c-6.2-2.7-12.2-5.8-18.2-8.9
		c-12.5-6.4-25.6-9.9-39.7-9.2c-18,0.9-35.4-0.9-52-8.9C128.8,348.9,116.8,347.4,106.1,342z"/>
	<path class="st7" d="M44.7,359.8c-0.1-0.5-0.3-0.9-0.4-1.4c0.6-0.6,1.2-1.2,1.7-1.8C46.1,357.8,45.8,359,44.7,359.8z"/>
	<path class="st7" d="M47.6,352.9c-0.4,0.6-0.8,1.3-1.1,1.9C46.9,354.2,47.3,353.6,47.6,352.9z"/>
	<path class="st8" d="M171,337.1c-2.9,0.3-5-1.3-7.3-2.7c-19.6-12-37-26.6-52.7-43.4c-2.1-2.2-3.6-4.6-4.9-7.3
		c5.3-0.6,9.7,0.7,14.1,4.3c6.2,5.1,12.6,9.9,19.8,13.6c7.6,3.9,15.5,5.6,23.8,6.4c6.4,0.6,11.6-1.3,15.7-6c2.9,0.4-0.9,4.7,3.6,4.5
		c4.8-0.2,10.1-2.7,14.7,1.5c0.8,0.7,2.2-1.1,3.3-1.9c7.4-4.9,13.9-11,21.6-15.5c1.6-1,3.1-2.2,5.1-2.2l0,0c1.5,2.8,3.7,3.8,6.7,2.3
		c1-0.5,2.1-0.8,2.8-1.6c7.9-8,18.1-12.2,28.3-16.4c5.6-2.3,5.5-2.5,7.6,3.8c6.7-3.4,10-10.5,16.3-14.1c3.6,0.1,7-2.6,10.8-0.8
		c4.2,2.1,6.7,6.2,10.3,9c7.3,5.7,14.7,10.8,24.6,10.7c3.8-0.1,7.4,0.4,5.9,6.6c-1.4,5.8,4.4,8,8,10.7c3.7,2.8,6.4,0,9-2.5
		c2.9-2.8,6.3-5.1,10.1-6.6c7.4-3,18.8,2.5,21,10.1c0.5,1.7,0.2,3.2-1.5,4.1c-0.7,0-1.6,0.4-1.9-0.7c-0.2,0.6,0.1,0.9,0.8,0.9
		c2.2,0,4.2,0.6,5.6,2.3c2.3,1.9,0.6-1.9,2-1.4c3.6-2.3,7.4-1.1,11-0.4c10.4,2,20.9,3.3,31.4,2.6c29.2-1.8,52.4-14.7,69.3-38.8
		c1.4-2,2.6-4.1,5.2-4.9c5.4,0.1,6.7,4.7,8.9,8.2c1.8,3,3.6,6,5.2,9.1c3.9,6.7,8.4,13,12.2,19.7c1.7,3,3.6,6,3,9.7
		c-5.9,15.7-19.9,22.9-33.3,29.8c-11.8,6.1-24.1,11.6-37.3,14.3c-1.6,0-3.4-0.3-4.8,0.3c-18.3,7.5-38,4.6-56.9,7.5
		c-3.4,0.5-7,1-9.7-2.1c9.5-5.1,19.3-9.3,30-11.5c3.1-0.6,6.5-1.2,8.7-3.8c1.6-1.9,1.3-4.2-1.3-3.8c-9.1,1.5-13.8-4.8-18.9-10.2
		c-6.1-6.5-13.6-11.4-19.8-17.9c-0.5-0.6-1.3-0.9-2.7,0c2.7,3.7,5.8,6.9,9.4,9.4c6,4.2,10.8,9.8,15.9,14.9c3.4,3.3,2.8,5.4-2,6.5
		c-9.1,2.2-18.3,4.2-27.5,6.2c-12.1,2.6-23.8,6.9-35.9,9.5c-18.1,3.8-36.5,6.7-55,7.3c-14.4,0.5-28.1-4.1-42.1-6.8
		c-22.2-4.4-44.2-9.4-66.2-14.3C183.8,343.6,176.4,342.7,171,337.1c0.6-0.6,1.2-1.1,1.7-1.7c0.6-0.6,1.2-1.2,1.7-1.7
		c0.4-0.4,0.7-0.7,1.1-1.1c0,0,0.5-0.6,0.4-0.6s0.6-0.3,0.6-0.3c0,0-0.3-0.6-0.3-0.6c0,0,0,0.7,0,0.7c-0.4,0.3-0.7,0.6-1.1,1
		c-0.4,0.4-0.7,0.7-1,1c-0.5,0.5-1.1,1.1-1.6,1.6C172.1,336,171.6,336.6,171,337.1z"/>
	<path class="st9" d="M393.3,307.9c-3.4-0.5-5.7-2.8-8.1-4.9l0,0c1.7-0.4,3.5-1.1,2.1-3.1c-2.9-4.4-7.2-7.2-11.8-9.5
		c-1.7-0.8-3.7-0.1-5.4,0.7c-4.6,2.2-8.9,4.7-12.2,8.9c-3.6,4.6-4.3,4.4-9.5,1.6c-4.6-2.5-7.6-6.7-11.3-10.3
		c-1.9-1.8-2.4-3.6,0.8-4.7c1-0.3,2.1-0.7,1.7-2.4c-0.6-0.2-1.3-0.7-2-0.6c-13.5,1.7-22.9-6-32-14.1c-2.4-2.1-4.4-4.7-6.6-7
		c-8.1-2.5-5.2-9.1-4.5-14c1.1-7.2,7.5-11.3,15.9-12c9.6,6.2,19.8,6.4,28.4,0.1c4.9-3.7,9.6-3.9,15-1.1c7.8,4,14.9,8.9,20.4,15.6
		c3.9,4.8,8.6,6.4,14,6.4c6.8,0,13.4,1.2,19.9,2.7c1.6,0.4,3.3,1.1,4.6-0.2c1.8-1.8,0.1-3.6-0.7-5.1c-5.1-9.8-11.1-19.1-17.8-27.8
		c-2.8-3.6-6.3-5.6-11.2-5.3c-4.2,0.3-8.7,0.8-12.6-1.6c-0.9-2.9,1.3-4.4,2.9-6.1c7.1-7.7,12.1-16,7.8-27c-0.3-0.7,0.1-1.6,0.5-2.3
		c11.5,1.5,21.4,7,31.2,12.6c5,2.8,10,5.7,15.6,6.2c10.9,0.9,17.6,7.8,23.7,15.4c6.6,8.1,10.2,17.7,12.1,27.9c0.4,2.1,0.6,4.5,0,6.4
		c-2.1,7.2-1.6,14.5-1.2,21.7c0.3,7-1.8,11.5-8.7,13.5c-0.5,0.1-0.9,0.5-1.4,0.8c-0.2,0.1-0.2,0.4-0.3,0.7c9,6,17.6,4.9,24.6-3.1
		c1.6-1.8,2.9-3.9,4-6.1c5.2-10.1,9.9-20.4,13.7-31.1c1.7-4.8,4-8.8,8.3-11.5c6,2,5.2,8,7.1,12.4c1.4,3.1,2.2,6.5,2.7,9.9
		c0.1,1.3-0.2,2.6-1,3.6c-2.4,1.2-3.1,3.6-4.2,5.7c-5,9.2-11.4,16.7-21.2,21.5c-4.8,2.3-9.4,5.1-13.6,8.6c-5.4,4.3-12,6.3-18.6,7.6
		c-16.8,3.5-33.6,2.9-50.4-0.4C400.8,306.5,396.5,303.1,393.3,307.9L393.3,307.9z"/>
	<path class="st9" d="M281.3,174.9c1.6,1,3.1,2.2,4.7,3.1c8.3,4.8,10.4,4.6,17.6-1.8c0.6-0.5,1.3-0.9,2-1.3c2.1,0.2,3.4,1.5,4.5,3.1
		c3.8,5.3,8.1,10.1,13,14.3c3.7,3.2,4.3,7,2.9,11.7c-2.5,8.4-2.4,8.5,6.3,10.5c2.1,0.5,4.3,0.6,5.7,2.7c-1.1,2.4-3.3,4-5.7,4.2
		c-8.5,0.7-17.2,2.8-24.8-3.3c-2.7-2.2-5.7-4.1-8.7-5.8c-4.8-2.6-7.8-2.3-11.7,1.5c-5.2,5.2-10.9,8.3-18.5,8.5
		c-4.4,0.1-9,1.4-13.1,3.8c-7.8,4.7-9.8,4.2-14.5-3.7c-0.4-0.7-0.4-1.6-0.6-2.3c0.3-4.4,4.6-5.3,6.9-7.9c3.1-3.2,6.4-6.3,4.6-11.5
		c-0.2-0.6-0.4-1.3-0.6-2c-0.4-1.3-1-2.5-1.9-3.5c-1.4-2.3-4.8-3.5-4.1-7c0.6-0.7,1.2-1.4,1.8-2.2c3.9-2.1,6.6,0.6,9.4,2.6
		c6.6,4.6,8.8,4.4,14-1.6c2.1-2.5,3.7-5.2,5.4-8C277.3,176.9,278.1,174.1,281.3,174.9z"/>
	<path class="st10" d="M172.6,119.6c-4.5,1.5-9.2,2.6-13.6,5.1c2.8,2.7,6.5,2.7,8.9,5.5c-0.7,1.9-2.7,2.1-4.3,2.6
		c-7,2-14,3.8-21,5.9c-3.8,1.1-5.7-0.2-6.3-3.9c-0.3-2.1-0.9-4.3-0.7-6.4c1.2-13.1,2.4-26.3,5.3-39.1c0.8-3.4-0.2-7.1,2.2-10.1
		c8.5-7.6,17.2-14.5,29.6-14.1c4.4,0.2,9.1,1.5,7,5.9c-4.3,8.9,0.8,13.4,6,18.5c1,3.5,3.8,5.8,6.1,8.4c1.5,1.6,3.1,3.6,1.6,5.7
		c-1.5,2-4,1.3-6,0.4c-2-0.8-4.1-1.3-5.4-2.4c1.9,1.5,6.4,2.4,5,6.4c-1.3,3.6-5.4,2.8-8.6,2.5c-2.7-0.3-5.3-0.9-8-1.5
		c1.4,1.4,3.3,2.4,4.5,4.1C177.9,116.5,177.2,118.8,172.6,119.6z"/>
	<path class="st11" d="M338.1,217.1c-1.9,0-3.8,0-5.7,0c-12.1-0.5-13.8-3.1-8.6-14.2c1.9-3.9,1.1-6.4-2.4-8.9
		c-6.9-4.9-12.1-11.5-15.8-19.1c-1.2-6.3-3.3-12.5-3.2-19c0-1.9-0.3-4.7,1.4-5.2c7.4-2.2,5.6-8.6,6.7-13.5c1.8-8.7,3.9-17.3,7-25.7
		c0.3-0.7,0.7-1.5,2.4-1.1c0.3,8,1.5,16.1,3.6,24c1.6,6,3.3,12,6.3,17.4c2.8,4.9,3.3,5,9,0.9c2.8,8.8,5.7,17.4,8.3,26
		c0.9,2.9-1.7,4.3-3.6,5.7c-3,2.2-6.9,3.5-9,6.7c-1.9,2.9,0.9,1.9,2.2,2c0.5,0.6,1.2,1.4,0.9,2.1c-2.6,7.9,2.2,14.5,3.8,21.7
		C340.4,217,339.2,217,338.1,217.1z"/>
	<path class="st12" d="M446.6,79.2c4.8,17.7,9.2,35.5,8.3,54.1c-0.3,5.9-0.4,6-6,4.8c-5.8-1.2-11.6-2.5-17.4-3.8
		c-1.6-0.3-4-1-2.9-2.8c3.4-5.3-1.1-5.8-4-7.2c-1.2-0.6-2.5-0.9-3.8-1.4c-2.1-2.2-7.1-1.8-6.7-5.9c0.5-4.7,5-6.4,7.8-8.1
		c-3.1,0.9-7.3,2-11.5,1.9c-2.9-0.1-6.5,0.4-7.5-3.2c-0.8-2.9,1.9-4.6,4-6.3c1.4-1.2,5.4-1.4,2.9-5c-1.2-2.8-0.6-5.4,0.9-7.7
		c2.4-3.5,2.7-7.4,2.9-11.5c0.3-9.6,7.8-13.8,16.4-9.4C436,70.8,441.6,74.7,446.6,79.2z"/>
	<path class="st13" d="M446.6,79.2c-3.1,0.2-5.7-1.1-8.2-2.8c-2.4-1.7-4.9-3.3-7.3-5c-3.6-2.5-7-4.9-11.7-2c-4.8,3-3.8,7.3-2.6,11.4
		c0.9,3.1-0.2,5.3-2.3,7.1c-3,2.5-3.8,5.7-3.4,9.4c-0.8,4.7-5,4.8-8.3,6.2c-1.1,0-2.1-0.3-3-1c-0.4-0.5-0.7-1.1-0.8-1.8
		c0.1-0.7,0.3-1.3,0.6-1.9c0.2-0.3,0.4-0.5,0.5-0.8c0.4-0.5,0.8-0.9,1.2-1.4c0.2-0.2,0.4-0.4,0.6-0.6c0.4-0.4,0.8-0.7,1.2-1
		c0,0,0.6-0.5,0.5-0.5c0.3-0.3,0.6-0.6,0.9-0.8c0,0,0.4-0.3,0.3-0.3c0,0,0.3-0.2,0.2-0.2c-0.1,0-0.4,0.1-0.5,0.2
		c-0.1,0.1-0.4,0.5-0.5,0.5c-3.8,3.1-7.6,6.1-11.6,8.8c-2.7,1.8-6.1,4-9,2.1c-4.1-2.7-8.1-1.8-12.3-1.8c-6.5,0-8.7-3.4-7.3-10.7
		c14.1-13,29.2-24.6,44.7-35.9c4.4-3.2,9-5.9,13.9-8.2c7-3.1,10.5-2.3,14.2,4.1c4.2,7.2,7.6,14.8,8.3,23.4c0.4,0.6,0.8,1.2,1.1,1.8
		C446.5,78.1,446.6,78.7,446.6,79.2z"/>
	<path class="st14" d="M281.3,174.9c-3.4,3.9-4.1,9.3-8,12.9c-1.6,1.4-2.8,3.3-4.5,4.6c-5.9,4.6-6.7,4.6-12.1-0.5
		c-2.8-2.6-5.6-5-9.4-6c-4.2-2.9-5.7-6.3-4.1-11.6c2.2-7.3,3.4-15,5-22.4c3.4,0.3,3.1,3.5,5.3,4.5c0.5-0.3,1.4-0.6,1.7-1.2
		c5.3-9.5,8.6-19.7,9.8-30.5c0.5-4.3,1.1-8.5,1.8-13.6c3.9,3.8,4.8,8.3,5.9,12.5c1.9,7.3,3.3,14.7,4.8,22.1c0.4,2-0.1,4.4,3.7,3.1
		c2.3-0.8,2.5,2.3,2.8,4c1.1,5.5-1,10.7-1.6,16C282.3,170.7,281.7,172.8,281.3,174.9z"/>
	<path class="st15" d="M184,90.3c-0.7-0.8-1.3-1.8-2.2-2.3c-9.2-5.9-9.3-6.2-4.4-15.8c0.8-1.5,1.8-2.8,0.4-4.4
		c-1.4-1.5-3-1.1-4.4-0.2c-2.7,1.5-5.4,1.7-8.5,0.8c-3.8-1-6.4,1.9-9.2,4.2c-3.7,3.1-7.1,6.8-12.5,6.5c0.2-1.6,0.4-3.3,0.5-4.9
		c0.5-0.6,0.9-1.2,1.2-1.8c0.4-6.9,2.9-13.1,5.9-19.1c3.6-7.3,7.6-8.5,15.2-5c3.2,1.5,6.3,3.1,9.2,5.1
		c17.4,11.8,34.4,24.1,49.5,38.8c2.5,5.6-0.7,9.9-5.2,10.5c-10.2,1.2-21.3,4.8-29.3-6C188.4,94.3,185.9,92.6,184,90.3z"/>
	<path class="st16" d="M341.5,216.9c-0.5-0.6-0.9-1.4-1.5-1.9c-6.5-5.5-7.4-12.1-4-19.6c0.3-0.7,0.5-1.5,0.7-2.3c0,0,0-0.2,0-0.2
		c0.3-0.7,0.8-1.3,1.5-1.6l0,0c0.3-0.9,1-1.4,1.9-1.5c5.6-2.7,10.7-6.5,17.2-6.6c2.9,3.2,0.4,6.1-0.5,9c-2,6.4-2.1,12.7,0.8,18.8
		c0.7,1.4,1.3,3.3,3.2,3.2c1.9-0.1,2.4-1.9,3-3.4c2.8-7.7,3.4-15.2-1.3-22.4c-1.2-1.8-2.6-3.5-2.9-5.7c7.7-2.7,14.8-0.1,22.1,2.1
		c6.2,11.7,5.1,18.8-4.8,29.4c-2,2.1-4.2,4.1-6.4,6.1c0,0,0,0,0,0c-0.7,1-2.3,0.6-3,1.7l-0.3,0.1c-4.3,1.1-8.6,1-12.9,0
		c-0.9-0.1-1.8-0.3-2.7-0.4c-1.3-0.5-2.7-0.4-3.8-1.3l-0.4-0.3l-0.5,0c-0.9-0.1-1.6-0.7-2.3-1.2c-0.2-0.4-0.5-0.5-0.9-0.4
		c-1-0.1-1.7-0.7-2.3-1.5L341.5,216.9z"/>
	<path class="st17" d="M245.6,188c1.9,2.4,5.2,3.2,6.6,6.1c0.8,1.2,0.7,2.7,1.4,3.9l0.1,0.7c2.5,6.5-2.6,10.5-5.1,15.4
		c-2.1,2.7-5.5,3.6-8,5.8c-4.7,1-9.3,2.2-14.2,2.4c-4.4,0.1-7.8-1.1-11-3.8c-5.7-4.8-9.7-10.8-12.7-17.4c-2.7-6,0.5-14.7,6.6-16.8
		c6.3-2.2,12.8-3.9,19.6-1.4c-0.3,3.4-2.6,5.8-4,8.7c-3.8,8-3.2,14.6,2.9,23.5c4.5-7.3,6.3-14.4,4.4-22.4c-0.7-3-2.7-6.1-0.5-9.3
		C236.7,183.6,240.9,186.6,245.6,188z"/>
	<path class="st18" d="M184,90.3c4.5,1.4,7.5,4.9,11.2,7.6c2.4,1.7,4.9,3.2,7.5,4.5c1,0.5,2.6,1,2.9,0.2c2.4-6.1,6.6-2.8,10-1.8
		c3.3,1,5.1-0.3,6.6-2.8c1.1-1.8,2.2-3.7,2.4-5.9c3,1.9,5.4,4.5,7.4,7.3c2,2.7,0.9,4.8-2.2,5.2c-4,0.5-8,0.5-12,0.6
		c-2.7,0.1-5.2,0.1-6.8,3.2c-1.5,2.9-4.7,3.4-7.8,3.3c-4.2-0.1-7.9,1.4-11.7,2.7c-2.1,0.7-4.7,1-1.7,4c0.7,0.7-0.1,1.4-0.9,1.4
		c-5.5-0.5-11,3.9-16.4,0c1.4-1.7,4.2-2.7,0.6-5.6c-3-2.4-7.1-3.9-9.5-8.3c7.9-1,14.7,4,23.2,1.9c-4.3-3.5-7.8-6.3-12-9.6
		c4.2-1.5,6.5,1.4,9.2,2.1c2.8,0.7,5.4,1.9,8.7,3.2C190.7,97.7,184.4,96,184,90.3z"/>
	<path class="st19" d="M401.5,102c3.6-0.9,6.9-2.3,9.7-4.8c1.5-0.4,3.1-0.8,5.7-1.5c-3.2,5.7-9.7,6.5-13,11.8
		c8.9,2.5,16.9-1.9,26.1-1.9c-4.9,4.7-10.9,6.7-14.6,11.4c1,2.9,4.6,3,5.6,5.7c-4.8-1.4-10-1.3-14.5-3.5c-0.2-1.7,2.2-2,1.3-4
		c-8.9-1.9-17.9-3.9-26.2-8.6c-5.1-2.9-11.4-2.7-17.3-3.2c-2.6-0.2-5.3,0-8.5,0c0.4-6.1,4.7-8.5,8.4-11.4c0.5,1.5,0.8,3.2,1.5,4.6
		c2.6,5.3,2.7,5.3,8.7,3.6c1.6-0.4,3.1-1.1,4.6-1.4c1.2-0.2,2.9-0.6,3.3,1.2c1.3,5.9,4.6,3.1,7.1,1.5c5.4-3.5,10.7-7.3,16-11
		c1.4-1,2.6-2,4.1-0.2c-0.6,0.6-1,1.2-1.6,1.7l0,0c-0.5,0.6-1.1,1.1-1.6,1.7l0,0c-0.6,0.5-1.1,1.1-1.6,1.6l0,0
		c-0.6,0.5-1.1,1.1-1.6,1.6l0,0c-0.6,0.5-1.1,1.1-1.6,1.6l0,0c-0.6,0.5-1.1,1.1-1.6,1.6l0,0C399.2,102,399.5,102.8,401.5,102z"/>
	<path class="st20" d="M359.6,182.7c6.8,1.9,7.8,7.9,8.8,13.3c1.3,7.4-0.6,14.5-4.4,21c-2.1,3.6-3.6,3.7-5.9,0.4
		c-6-8.5-7.9-17.6-3.1-27.4c1-2.1,2.6-4.1,2.4-6.7C358.2,183.1,358.9,182.9,359.6,182.7z"/>
	<path class="st21" d="M231.7,183.4c6.3,16.4,4.8,27.4-4.7,35.9c-8.9-9-10.9-28.2,2-36.6C229.8,182.9,230.8,183.2,231.7,183.4z"/>
	<path class="st22" d="M310.5,236.5c-2.4,1.6-4.9,3.2-7.3,4.7c-6,3.6-9.2,12.7-6.4,19.2c0.4,0.9,1.5,1.4,2.3,2.1
		c-3.2,0.7-6.4,1.2-9.6-0.1c1.4-0.8,2.7-1.7,2.9-3.5c0.8-6.5-3.3-14.4-9.1-17.9c-2.3-1.3-4.3-3.1-6.4-4.6c-0.4-1.1-0.2-2.1,0.7-2.9
		c6.3-6.1,24.1-6.7,30.9-1.1c1.2,1,2.4,2.2,1.9,4.1C310.3,236.4,310.5,236.5,310.5,236.5z"/>
	<path class="st23" d="M310.3,236.4c-11.1-7.3-22.2-6.2-33.4,0c-3.5-2.5-1.6-5.3-0.4-8c0.6-0.5,1.1-1,1.6-1.6
		c1.6-0.6,3.3-1.2,4.9-1.8c0.6-0.5,1.1-1,1.6-1.5c1.6,0,3.3-0.1,4.9-0.1c3.7-1.1,7.5-1,11.2,0c3.7-0.1,6.7,1.9,9.8,3.4
		c0.5,0.5,1,1.1,1.6,1.5l0.1,0.1c0.5,0.6,1,1.1,1.5,1.6c0,1.1,0,2.1,0,3.2c-0.5,0.5-1,1.1-1.6,1.6
		C311.6,235.4,310.9,235.9,310.3,236.4z"/>
	<path class="st8" d="M193.5,293.9c5.9-4,11.2-8.6,18-10.4c1.6-0.4,3.2-0.9,4.2,0.9c0.9,1.6,0.5,3.2-0.6,4.4
		c-2.5,2.7-4.9,6.3-9.3,4.8C201.6,292.1,197.7,292.5,193.5,293.9z"/>
	<path class="st9" d="M354.4,222.1c4.3,0,8.6,0,12.9,0C363,224.4,358.7,224.4,354.4,222.1z"/>
	<path class="st9" d="M300.7,223.4c-3.7,0-7.5,0-11.2,0C293.2,221.2,297,221.3,300.7,223.4z"/>
	<path class="st9" d="M347.9,220.4c1.4-0.1,2.8,0.1,3.8,1.3C350.2,221.9,348.9,221.7,347.9,220.4z"/>
	<path class="st9" d="M367.5,222c0.7-1,1.7-1.6,3-1.7C369.9,221.4,368.8,221.9,367.5,222z"/>
	<path class="st9" d="M312.2,234.9c0.5-0.5,1-1.1,1.6-1.6C313.3,233.8,312.7,234.4,312.2,234.9z"/>
	<path class="st9" d="M313.8,230.1c-0.5-0.5-1-1.1-1.5-1.6C312.8,229,313.3,229.5,313.8,230.1z"/>
	<path class="st9" d="M312.2,228.4c-0.5-0.5-1.1-1-1.6-1.5C311.1,227.3,311.6,227.9,312.2,228.4z"/>
	<path class="st9" d="M278.1,226.8c-0.5,0.5-1.1,1-1.6,1.6C277,227.9,277.6,227.4,278.1,226.8z"/>
	<path class="st9" d="M284.6,223.6c-0.5,0.5-1.1,1-1.6,1.5C283.5,224.6,284.1,224.1,284.6,223.6z"/>
	<path class="st9" d="M344.6,218.9c1,0,1.8,0.4,2.3,1.2C346.2,219.7,345.4,219.3,344.6,218.9z"/>
	<path class="st9" d="M341.4,217c1,0.1,1.8,0.6,2.3,1.5C342.9,218,342.2,217.5,341.4,217z"/>
	<path class="st8" d="M227.8,288.5c0.1-0.2,0.2-0.4,0.3-0.6C228,288.1,227.9,288.3,227.8,288.5C227.8,288.5,227.8,288.5,227.8,288.5
		z"/>
	<path class="st11" d="M338.3,191.4c-0.1,0.9-0.6,1.5-1.5,1.6C336.9,192.1,337.4,191.6,338.3,191.4z"/>
	<path class="st11" d="M340.2,189.8c-0.4,0.8-1,1.4-1.9,1.5C338.7,190.5,339.3,190,340.2,189.8z"/>
	<path class="st12" d="M446.5,77.5c-0.4-0.6-0.8-1.2-1.1-1.8C445.7,76.3,446.1,76.9,446.5,77.5z"/>
	<path class="st10" d="M144.9,72.4c-0.4,0.6-0.8,1.2-1.2,1.8C144.1,73.7,144.5,73,144.9,72.4z"/>
	<path class="st24" d="M81.7,692.6c-0.9-0.7-1.9-1.4-2.8-2.1C68,682.4,62.7,670.2,56,659.1c-0.5-0.9-0.9-1.9-1.3-2.8
		c-0.3-0.6-0.6-1.2-0.9-1.8c-0.5-0.8-1-1.7-1.5-2.5c-1.1-1.7-2-3.4-2.9-5.2c-0.5-0.9-0.8-1.9-0.9-2.9c0-0.7,0.2-1.3,0.6-1.9
		c-1.6-4.3-3.3-8.5-4.9-12.8c2.2-6.3,6.8-2.8,9.8-1.7c18.9,7.1,38.3,13.1,57,20.5c2.1,0.7,3.5,2.4,4.9,4
		c10.5,13.1,18.9,27.4,25.9,42.5c1.5,3.4,3.3,7-0.6,10.2c-2.6,1.3-5.3,1-7.9,0.5c-14.1-2.6-28.1-5.6-42.2-8.3
		C87.5,696.5,84.9,694,81.7,692.6z"/>
	<path class="st25" d="M111.4,650.1c-2.8,0.2-5.2-1-7.7-1.9c-17.6-6.4-35.3-12.7-52.9-18.9c-2.1-0.7-4.4-2.6-6.6,0
		c-3.8-7.9-7.2-15.9-9-24.5c7-11.3,18.7-17.6,28.2-26.3c5-4.5,10-9,15.4-13.1c2.5-1.9,5-4.3,8.7-3.4c1.2,0.6,2,1.5,2.6,2.7
		c2.8,11.2,3.8,22.8,7,34c3.8,13.8,7.9,27.5,13.6,40.6C112,642.8,114.1,646.3,111.4,650.1z"/>
	<path class="st26" d="M86.8,562.5C71,575,55.5,587.9,40.5,601.4c-1.6,1.5-3,3.1-5.4,3.4c-0.7-1.7-1.3-3.4-2-5.1
		c-2.4-10.8-4.7-21.5-7.1-32.3c-1.9-15-3.7-30.1-4.2-45.2c0.3,0,0.5-0.2,0.6-0.5c5.2-2.1,8.8,1.5,12.5,3.9
		c16.2,10.8,33.2,20.2,49.9,30.1c0.7,0.4,1.3,1,1.8,1.5c0.5,0.6,0.9,1.3,1.1,2.1C87.9,560.5,87.7,561.6,86.8,562.5z"/>
	<path class="st27" d="M616,660.5c5.7-0.2,10.4-3.4,15.4-5.7c5.4-2.5,10.3-5.2,15.2-8.5c4.8-3.2,10.1-6.1,14.7-9.5
		c2.1-1.6,3.9-3.4,5.7-5.4c0.3-3,1-6,2-8.8c-3.1,0.1-6.7-2.1-12.3-6.5c-3-2.3-5.7-4.9-8.6-7.1c-3-2.3-6-4.6-10.1-4.2
		c-4.8,0.9-8,4.8-12.4,6.7c-6.6,4.1-13.9,6.5-21.1,9c-2.9,1-6.3,1.5-7.7,5c-0.5,3.7,1.3,6.8,2.7,10c2.6,5.6,5.9,10.9,9,16.2
		c2.5,4.3,4.3,7.2,6.1,9.2C615,660.6,615.5,660.5,616,660.5z"/>
	<path class="st28" d="M638.3,606.4c20.3-17.1,32.9-38.7,37.1-65c1.9,2,4.4,2.1,6.7,1.7c8.8-1.6,18-1.8,26-6.4
		c0,1.1,0.1,2.2,0.1,3.3c-1,3.8-2.8,7.3-3.1,11.3c-2.5,9.1-5.7,18-6.8,27.5c-3.8,8.7-7.6,17.3-11.3,26c-3.4,7-7.4,13.5-13.1,18.9
		c-2.9,2.7-4.9,3.9-8.8,1.3c-5.6-3.7-11.1-7.3-16-11.8C645.8,610.2,642.7,607.3,638.3,606.4z"/>
	<path class="st28" d="M675.4,535.1c-2.1-3-1.3-6.4-1.3-9.7C676.5,528.4,675.3,531.8,675.4,535.1z"/>
	<path class="st7" d="M132.1,432.8c8.7,0.5,16.8,3.8,25,6.1c8.4,2.3,16.9,3,25.5,3.6c7.3,0.5,14.6,0.2,21.9,0.1
		c10-0.3,19.8,1.6,29.6,3.5c7.9,1.5,15.8,2.7,23.1,6.5c1.6,0.8,3.6,1.4,5.4,1.3c13.4-0.4,26.9,0.9,40.4-1c7.9-1.1,15.9-2.5,24.1-2.2
		c11.9,0.4,23.6-1.8,35.2-4c9.8-1.9,19.6-3.1,29.5-4.2c7-0.8,13.9-1.7,20.9-1.5c3,0.1,5.9-0.1,8.8,0.9c2.3,0.9,4.8,0.9,7.2,0.6
		c14.3-2,28.8-3.3,42.7-8c13.8,10.5,29.7,18.1,42.2,30.4c2.8,2.8,6.6,4.9,5.6,9.8c-0.3,0.8-0.8,1.5-1.4,2.1c-0.9,0.9-2,1.7-3.2,2.3
		c-26.7,8.7-53.7,16.5-81.4,21.4c-10.6,1.9-21.2,4-31.8,6.1c-1.4,0.3-2.9,0.3-4.3,0c-23.6-3.6-47.4-2.2-71.2-2.5
		c-7.8-0.1-15.5,2.8-23.4,1.1c-25.5,0.5-51,1.9-76.4-0.8c-7.5-0.8-15,1-22.5,0.4c-33.5-11.9-69.5-14-102.9-26.1
		c-3.3-1.2-6.8-1.6-9.9-3.2c-0.8-0.4-1.5-1-2.1-1.6c-0.6-0.6-1-1.4-1.3-2.2c-0.8-4.5,2.4-6.7,5.2-9.2c9.8-8.7,20.5-16.2,31.6-23.2
		C126.9,437.5,129.6,435.3,132.1,432.8z"/>
	<path class="st29" d="M398.1,359.8c21.2-3.9,43.3-0.7,64.2-7.5c2.7-0.9,5.8-0.4,8.8-0.6c0.6,3.9-2.7,4.7-5,6.1
		c-3.6,2.2-7.6,3.7-11.3,5.7c-4.3,1.8-8.8,2.4-13.5,2c-11,0.5-19.9,4.9-27.1,13.3c-2.6,3-5.5,5.8-8.8,8.1c-0.9,0.6-1.8,1.2-2.7,1.8
		c-1.1,0.7-2.3,1.4-3.4,2.2c-0.5,0.4-1.1,0.8-1.6,1.2c-0.5,0.5-1.1,0.9-1.6,1.3c-5.7,8.5-8,18.7-14.3,26.9c-2.6,3.2-5.6,5-9.7,2.8
		c-7.4,0-14.1-3.2-21.1-4.9c-3.4-0.4-6.9-0.4-10.2-1.8c-9.3-3.9-18.8-6.2-29.1-4.2c-4.5,0.9-9.1-0.7-13.3-2.6
		c-10.3-4.7-20.1-3.8-30.3,1c-9.2,4.3-18.4,8.8-28.6,10.9c-12.3,2.6-22.9-0.5-32.8-7c-9.7-6.3-19.5-12.6-29.5-18.5
		c-9.8-5.8-17.4-13.6-23-23.4c-3.4-6-8-10-14.5-12.1c-6.9-2.3-13.5-5.5-20.2-8.3c-3.6-1.5-6.8-3.3-8.5-7c-1.7-1-3.7-1.6-4.9-3.3
		c14.4,2.4,28.4,6.3,41.8,12c8.3,3.6,16.7,6.1,25.8,5.8c7-0.2,14.1,0.1,21.1-0.1c12.4-0.3,24,3,35.1,8.3c9.5,4.6,18.5,10,28.7,13.1
		c6,1.8,11.8,2.9,18.1,1.3c7-1.8,14.3-2.8,21.4-4.3c2.2-0.5,4.2-0.2,6.3,0.3c4.4,1.1,9.1,1.6,13.4,3c13.2,4.2,24.9,0.3,36.2-5.9
		c4-2.2,8.1-4.4,11.8-7C375.6,361.8,386.8,360.6,398.1,359.8z"/>
	<path class="st30" d="M571.8,393.9c4.4,10.1,5.4,21,8,31.5c1.1,4.4,2.2,8.8,1.7,13.4c-0.7,3-3.2,4.2-5.5,5.6
		c-15,9.5-29.9,19.2-45.5,27.9c-3.5,2-7.1,4.1-11.4,3.1c-0.3-0.3-0.6-0.5-0.9-0.8c-0.5-1.2-0.7-2.8-1.7-3.5
		c-7.1-5.2-12.5-12.3-20.2-16.9c-7.3-4.4-14.3-9.3-21.4-14c-2.1-1.4-3.7-3.1-3.8-5.8c2.2-0.6,4.3-1.1,6.5-1.7c0.5-0.6,1.1-1,1.6-1.6
		c2.2-0.5,4.3-1.1,6.5-1.6c0.5-0.6,1.1-1,1.6-1.6c2.2-0.5,4.3-1.1,6.5-1.6c0.5-0.6,1.1-1,1.6-1.6c1.1,0,2.2,0,3.2,0
		c0.5-0.6,1.1-1,1.6-1.6c3.8-1.1,7.6-2.2,11.3-3.3c0.5-0.6,1.1-1.1,1.6-1.6l0,0c0.9-1,2.4-0.7,3.3-1.6l0,0c9.1-4.4,17.7-9.7,27-13.7
		c6.7-1.9,12.6-5.3,18.7-8.7C565.3,392.6,568.5,391.1,571.8,393.9z"/>
	<path class="st31" d="M454.9,361.5c4.6-4.5,11.5-5.3,16.2-9.7c17.4-7.3,35.6-12.4,51-24.1c5.6-4.3,11.2-8.5,14.2-15.2
		c0.5-1.1,1.8-1.9,2.8-2.8c3,5.8,6.6,11.3,8.3,17.8c-2,0.1-3.9,0.9-4.8,2.6c-2.2,4.3-6,6-10.3,7c-3.6,0.9-4.6,3.5-4.9,6.6
		c-0.3,3.1,2.6,2.9,4.4,3.7c7.6,3.4,5.9,7.9,0,13.6c-1.5,1.5-3.9,1.7-6,2.3c-4.4,1.3-5,3.1-3.2,7.2c1.3,2.9,3.5,4.7,6.1,6.3
		c1.5,0.9,2.5,2.3,1.2,4c-1,1.4-2.8,1-3.6,0.1c-6.4-7.3-15.9-9.6-23.4-15.1c-3.8-2.8-6.4-7.2-9.3-11c-2.4-3.2-5.1-3.7-8.4-1.6
		c-3.7,2.3-7.1,4.8-9.9,8.3c-9.5,12-19.3,23.7-29.9,34.9c-7,7.4-13.3,15.5-21.7,21.5c-2.5,1.7-4.8,3.4-7.9,3.8
		c-1.3-4.1,2.4-5.9,3.8-8.9c-3.9,5.2-12.2,6-13.5,13.8c-4.1,3.1-9,2-13.3,1.4c-7-1-14.7,0.5-20.8-4.6c3.9,0.3,6.4-1.6,8.1-4.9
		c6-4.9,8.5-12,11.3-18.8c1.3-3.2,1.9-6.6,4.9-8.8l0,0c0.5-0.6,1.1-1,1.6-1.6c1.1-0.5,2.2-1.1,3.3-1.6c0.5-0.5,1.1-1.1,1.6-1.6
		c4.8-3.1,8.5-7.5,12.3-11.6c6.8-7.5,15.3-10.6,25.1-11.1c2,1.3,4.1,2.5,6,3.9c2.5,1.9,5.3,2.9,8.1,1
		C457.2,366.3,454.7,363.7,454.9,361.5z"/>
	<path class="st32" d="M132.1,432.8c0.3,3.4-1.4,5.3-4.2,7.1c-8.5,5.6-17.2,10.9-25.3,17.3c-4,3.1-7.3,7.2-11.8,9.7
		c-1.7,1-2.5,2.8-2.6,4.8c-4.1,3.4-7.7,0.5-11.2-1.1c-14.9-7.1-28.5-16.5-42.3-25.4c-3.1-2-6.8-3.5-8.1-7.5c-0.2-8.9,2.6-17.3,4-26
		c0.4-2.6,1-5.2,1-7.9c0.8-1,0.6-2.3,1.2-3.3c0.1-1.1,0.2-2.2,0.4-3.4c0.9-0.8,0.8-2,1.1-3.1c0.2-1.1,0.4-2.2,0.6-3.2
		c0.3-0.8,0.7-1,1.2-0.2c4,0.4,6.4,3.8,10,5c0.5,0.6,1.1,1,1.6,1.6c26.1,13.5,52.7,26,81.1,34.1c0.5,0.6,1.2,1,1.7,1.6
		C131,432.8,131.6,432.8,132.1,432.8z"/>
	<path class="st7" d="M111,345.3c10.7,5.1,21.6,10,32.8,13.7c4.1,1.4,8,3.4,9.5,7c8.4,19.2,25.9,28.1,42.3,38.3
		c8.4,5.2,16.5,11,25.8,14.9c5.3,2.2,10.2,2.6,15.7,1c11-3.1,21.3-7.8,31.4-12.9c10.9-5.4,21.3-5,31.8,0.1c4.6,2.2,9,3.2,14,1.7
		c6.4-1.9,13-0.7,19.1,1.4c6.1,2.1,11.8,5.1,17.7,7.6c-1.7,0.8-3.5,2-5.4,1.5c-6.1-1.5-12.6-0.3-18.4-2c-7.1-2.1-14.3-2.9-21.4-3.7
		c-9.1-1-18.2,0.8-27,3.3c-8.3,2.4-16.6,4.2-25.4,4.4c-5.3,0.1-10.6,1.2-16,1.7c-8.8,0.8-17.4,1-26.1-1.1c-1-0.3-2.2-0.8-3.1-0.6
		c-11.8,3.2-21.5-3.1-31.5-7.2c-12.7-5.2-24.1-13.1-36.9-18.4c-8-3.3-13.6-9.3-16.2-18c-2.4-8.2-8.6-14.2-13.4-21
		c-3.7-5.2-4-5,0.1-10.2C110.9,346.5,110.9,345.8,111,345.3z"/>
	<path class="st31" d="M544.1,405.2c-7.4,3.4-14.8,6.8-22.2,10.3c-1.7,0.8-3.5,1.1-5.4,1.1c5.4-6.2,13.2-8.8,19.7-13.4
		c10-7,21.8-11.5,30.6-20.3c0.3-0.3,1-0.2,1.5-0.3c0,0,0,0,0,0c0.3,6.8-4.2,10.6-9.2,13.8C554.4,399.5,548.8,401.7,544.1,405.2z"/>
	<path class="st7" d="M406.2,426.3c-4.6-1.3-5.3-2.3-2.6-4.4c5.6-4.6,11.8-8.5,17-13.7c1.2-1.2,3-1.7,4.3-0.1
		c1.2,1.5,0.3,3.1-0.8,4.3c-2.6,3.1-6.1,5.4-8.1,9C412.9,423.3,410.2,426.1,406.2,426.3z"/>
	<path class="st31" d="M550.5,333.9c2,3,3.3,6.5,4.5,9.9c-2.5,1.3-2.4,3.9-3.2,6.2c-1.1,3.1-3.5,3.7-5.5,1.4
		c-3.4-3.9-2.8-9-3.4-13.7c-0.1-1.1,1.2-1.7,2.2-2C547,335.1,548.8,334.5,550.5,333.9z"/>
	<path class="st7" d="M561.5,358.4c0.1,1,0.2,2,0.2,3c-1-0.8-1.3-1.9-1.4-3.1C560.7,358.3,561.1,358.4,561.5,358.4z"/>
	<path class="st7" d="M43.2,364.6c-0.1-1.3,0.3-2.4,1.3-3.3C44.5,362.6,44.2,363.8,43.2,364.6z"/>
	<path class="st7" d="M36.6,384.5c0.4-0.3,0.9-0.5,1.3-0.7c0.1,1.4-0.1,2.7-1.2,3.7C36.6,386.4,36.6,385.5,36.6,384.5z"/>
	<path class="st31" d="M516.6,416.6c-0.8,1.2-1.9,1.5-3.3,1.6C514.1,417.1,515.2,416.7,516.6,416.6z"/>
	<path class="st7" d="M39.8,373.2c0.4-0.2,0.9-0.5,1.3-0.7c0.1,1.4-0.2,2.6-1.3,3.6C39.9,375.1,39.9,374.2,39.8,373.2z"/>
	<path class="st7" d="M41.6,369.6c0.1-1,0.1-2.1,0.2-3.1c0.4,0,0.7-0.1,1.1-0.2C42.9,367.6,42.6,368.7,41.6,369.6z"/>
	<path class="st7" d="M563.6,368c1,0.8,1.5,1.8,1.4,3.1C564,370.3,563.6,369.2,563.6,368z"/>
	<path class="st31" d="M547.4,327.4c0.4,0.5,0.8,1,1.2,1.5C548.2,328.4,547.8,327.9,547.4,327.4z"/>
	<path class="st31" d="M549,330.7c0.4,0.5,0.8,1,1.2,1.4C549.8,331.6,549.4,331.2,549,330.7z"/>
	<path class="st31" d="M555.6,346.6c0.4,0.6,0.8,1.2,1.3,1.8C556.4,347.8,556,347.2,555.6,346.6z"/>
	<path class="st31" d="M557.1,350c0.4,0.5,0.8,1.1,1.2,1.6C557.9,351.1,557.5,350.5,557.1,350z"/>
	<path class="st7" d="M558.9,354.5c0.4,0.7,0.8,1.3,1.2,2C559.7,355.9,559.3,355.2,558.9,354.5z"/>
	<path class="st7" d="M562.1,364.2c0.4,0.7,0.8,1.3,1.2,2C562.9,365.6,562.5,364.9,562.1,364.2z"/>
	<path class="st7" d="M565.2,372.7c0.4,0.5,0.7,1,1.1,1.6C566,373.8,565.6,373.2,565.2,372.7z"/>
	<path class="st7" d="M566.9,377.6c0.4,0.6,0.7,1.1,1.1,1.7c-0.4,0-0.7,0-1.1,0C566.9,378.7,566.9,378.2,566.9,377.6z"/>
	<path class="st7" d="M38.1,379.5c0.4-0.3,0.9-0.6,1.4-0.8c-0.4,0.8-0.7,1.5-1.1,2.3C38.3,380.5,38.2,380,38.1,379.5z"/>
	<path class="st31" d="M566.9,379.3c0.4,0,0.7,0,1.1,0c0.1,0.5,0.2,1,0.3,1.6C567.8,380.4,567.3,379.8,566.9,379.3z"/>
	<path class="st7" d="M47.8,397.1c-0.5-0.5-1.1-1.1-1.6-1.6C46.7,396.1,47.2,396.6,47.8,397.1z"/>
	<path class="st31" d="M513.3,418.2c-0.5,0.5-1.1,1.1-1.6,1.6C512.2,419.3,512.8,418.8,513.3,418.2z"/>
	<path class="st31" d="M500.3,423.1c-0.5,0.5-1.1,1.1-1.6,1.6C499.3,424.2,499.8,423.6,500.3,423.1z"/>
	<path class="st31" d="M495.5,424.7c-0.5,0.5-1.1,1.1-1.6,1.6C494.4,425.8,494.9,425.3,495.5,424.7z"/>
	<path class="st7" d="M487.4,428c-0.5,0.5-1.1,1.1-1.6,1.6C486.3,429,486.8,428.5,487.4,428z"/>
	<path class="st7" d="M130.5,432.8c-0.6-0.5-1.1-1.1-1.7-1.6C129.4,431.8,129.9,432.3,130.5,432.8z"/>
	<path class="st7" d="M479.3,431.2c-0.5,0.5-1.1,1.1-1.6,1.6C478.2,432.3,478.7,431.7,479.3,431.2z"/>
	<path class="st9" d="M385.2,303.1c-0.2-0.1-0.4-0.2-0.5-0.3C384.8,302.9,385,303,385.2,303.1C385.2,303.1,385.2,303.1,385.2,303.1z
		"/>
	<path class="st9" d="M393.3,307.9c0.2,0.1,0.4,0.2,0.5,0.3C393.6,308.1,393.4,308,393.3,307.9C393.3,307.9,393.3,307.9,393.3,307.9
		z"/>
	<path class="st6" d="M179,328.9c0.2-0.2,0.3-0.4,0.5-0.5c0.1,0.1,0.2,0.2,0.3,0.3c-0.2,0.2-0.4,0.3-0.5,0.5L179,328.9z"/>
	<path class="st6" d="M177.4,330.6c0.5-0.5,1.1-1.1,1.6-1.6c0,0,0.2,0.2,0.2,0.2c-0.5,0.5-1.1,1.1-1.6,1.6
		C177.6,330.8,177.4,330.6,177.4,330.6z"/>
	<path class="st6" d="M177.6,330.8c-0.5,0.5-1.1,1.1-1.6,1.6c0,0-0.1-0.1-0.1-0.1c0.5-0.5,1.1-1.1,1.6-1.6
		C177.4,330.6,177.6,330.8,177.6,330.8z"/>
	<path class="st6" d="M176,332.3c-0.5,0.5-1.1,1.1-1.6,1.6l-0.1-0.1c0.5-0.5,1.1-1.1,1.6-1.6C175.8,332.2,176,332.3,176,332.3z"/>
	<path class="st6" d="M171,337.1c0.5-0.5,1.1-1.1,1.6-1.6l0,0C172.1,336.1,171.6,336.6,171,337.1C171.1,337.1,171,337.1,171,337.1z"
		/>
	<path class="st6" d="M174.3,333.9c-0.5,0.5-1.1,1.1-1.6,1.6c0,0,0,0,0,0C173.2,334.9,173.7,334.4,174.3,333.9
		C174.2,333.9,174.3,333.9,174.3,333.9z"/>
	<path class="st1" d="M438.7,285.2c-0.5-0.1-1.1-0.1-1.5-0.3c-0.5-0.3-0.3-0.8,0.4-0.6C438,284.4,438.3,284.9,438.7,285.2
		C438.7,285.2,438.7,285.2,438.7,285.2z"/>
	<path class="st1" d="M438.7,285.2c0.2,0.1,0.3,0.2,0.5,0.3C439,285.4,438.9,285.3,438.7,285.2C438.7,285.2,438.7,285.2,438.7,285.2
		z"/>
	<path class="st33" d="M248.6,214.1c1.2-5.3,5.2-9.6,5.1-15.4C257.9,205.8,253.2,210,248.6,214.1z"/>
	<path class="st33" d="M253.7,198c-1.1-1.1-1.5-2.4-1.4-3.9C253.5,195.1,254,196.4,253.7,198z"/>
	<path class="st12" d="M401.5,102c-0.9,1-2.3,2-3.3,0.9c-1.3-1.4,0.6-2,1.5-2.7C400.3,100.9,400.9,101.5,401.5,102z"/>
	<path class="st12" d="M399.8,100.3c0.5-0.5,1.1-1.1,1.6-1.6C400.8,99.2,400.3,99.8,399.8,100.3z"/>
	<path class="st12" d="M401.4,98.7c0.5-0.5,1.1-1.1,1.6-1.6C402.5,97.6,401.9,98.2,401.4,98.7z"/>
	<path class="st12" d="M403,97.1c0.5-0.5,1.1-1.1,1.6-1.6C404.1,96,403.6,96.5,403,97.1z"/>
	<path class="st12" d="M404.6,95.5c0.5-0.5,1.1-1.1,1.6-1.6C405.7,94.4,405.2,94.9,404.6,95.5z"/>
	<path class="st12" d="M406.3,93.8c0.5-0.6,1.1-1.1,1.6-1.7C407.3,92.7,406.8,93.3,406.3,93.8z"/>
	<path class="st12" d="M407.8,92.2c0.5-0.6,1.1-1.1,1.6-1.7C408.9,91.1,408.4,91.6,407.8,92.2z"/>
	<path class="st34" d="M146.7,723.1c-22.3,0.8-42.1-5.4-58.5-20.9c-1.9-3.4-5.1-5.9-6.5-9.6c15.4,2.2,30.6,5.9,45.9,8.7
		c4.7,0.9,9.4,2.6,14.3,2.3c4.5,0.3,4.3,4.3,5,7.1c0.8,2.8,0.9,5.8,1.3,8.8C148.2,720.9,147.7,722.1,146.7,723.1z"/>
	<path class="st35" d="M26.6,437.7c13.8,7.2,26.3,16.6,39.8,24.3c6.9,4,13.6,8.6,21.9,9.8c0,0,0,0,0,0c0.5,0.5,1,0.9,1.6,1.3
		c14,2.8,27.6,7.1,41.3,11.2c16.3,4.9,33.1,7,49.8,10.3c7.4,1.4,14.9,2.8,20.9,8c0.6,0.7,0.7,1.4,0.5,2.2c-1.9,3.6-5.6,4.9-8.9,6.6
		c-33.6,16.6-66.1,35.1-99.3,52.5c-1.9,1-3.9,0.9-5.9,0.5c-0.5-0.6-0.9-1.2-1.4-1.9c0-1.1,0.1-2.2,0.1-3.3
		c-1.3-4.2-1.5-8.4-1.5-12.8c0.1-17.6,0-35.1,0-52.7c0-1.9,0.1-3.8-0.1-5.7c-0.2-2.9-1.7-3.7-4.4-2.9c-2.9,0.9-5.5,2.3-8.1,3.7
		c-16.3,8.5-33.4,15.4-49.1,25c-0.4,0.3-1,0.1-1.6,0c-0.7-14.6,0.3-29.1,1.2-43.6c0.2-3.2,0.1-6.5,0.1-9.7
		C25.7,453,23.7,445,26.6,437.7z"/>
	<path class="st36" d="M22.1,513.8c1.5-2.1,2.4-4.6,5.1-5.9c18.2-8.7,36.2-17.6,54.4-26.2c6.2-2.9,6.8-2.1,6.7,5.1
		c-0.1,21.3,0,42.6-0.1,63.9c0,2.9,0.8,6-1.4,8.6c0,0-0.2-0.2-0.2-0.2c-0.6-0.4-1.2-0.8-1.8-1.3c-4.6-1.4-8.9-3.7-12.9-6.4
		c-12.8-8.4-26.6-15.2-39.1-24c-3.2-2.3-7-3.8-10.6-5.7C21.6,519.1,21.8,516.5,22.1,513.8z"/>
	<path class="st37" d="M146.5,720.2c-2.5-5.2-1.1-11.6-4.6-16.5c-1.5-9.2-6.6-16.8-11.2-24.6c-5.1-8.8-10.9-17.1-16.5-25.7
		c-0.5-1-0.2-1.9,0.6-2.6c17.3-4.2,34.7-7.6,52.5-8.4c18.3-0.8,36.6-0.5,55,0c1,0.1,1.9,0.5,2.7,1c6.7,16.6,12.5,33.5,8.6,51.9
		c-8.6,1.7-16.7-1.9-25.2-2.1c-10.3-0.3-20.4,0.3-30.5,1.8c-13.5,2.1-24.5,8-28.9,22.3C148.7,718.5,147.8,719.6,146.5,720.2z"/>
	<path class="st38" d="M114.4,651.7c-0.1,0.6-0.1,1.1-0.2,1.7c-0.9-1.1-1.9-2.2-2.8-3.2c-0.7-2-1.1-4.2-2-6.1
		c-10-21.6-16-44.3-20.2-67.7c-0.7-4-1.1-8-1.1-12c1.3-1.8,3.1-1.8,5-1.8c3.4-1.3,6.3,0.4,9.2,1.7c6.1,2.7,12.4,5.3,17.9,9
		c8.8,5.9,18.9,8.3,28.8,11.5c3.7,6.8,10.5,7.7,17.1,9.1c5.7,1.1,11.4,2.4,11.6,10c-0.3,2-1.2,3.7-2.8,4.8
		C154.8,623.1,135.9,639.2,114.4,651.7z"/>
	<path class="st39" d="M56.9,656.5c-0.3-0.5-0.7-1-1-1.5C56.2,655.5,56.6,656,56.9,656.5z"/>
	<path class="st39" d="M55.2,653.3c-0.4-0.3-0.8-0.7-1-1.2C54.6,652.5,54.9,652.9,55.2,653.3z"/>
	<path class="st39" d="M50.7,645.3c-0.4-0.6-0.8-1.3-1.2-1.9C50.3,643.7,50.7,644.4,50.7,645.3z"/>
	<path class="st35" d="M85,557.8c0.6,0.4,1.2,0.9,1.8,1.3C86.1,558.7,85.5,558.2,85,557.8z"/>
	<path class="st40" d="M569.7,662.6c5.7,0,11.4-0.3,17,0.1c5.5,0.5,10.9,1.2,16.4,0.9c3.1-0.2,7.6-0.3,11.1-1.4
		c1-0.5,1.9-1.1,2.9-1.5c-0.8-0.6-1.6-1.5-2.3-2.9c-5.7-10.6-12.2-20.9-17.3-31.9c-1.8-2-4.2-2.4-6.7-2.1
		c-6.2,0.8-12.4,0.3-18.6,0.8c-1.4,0.2-2.5,0.8-3.4,1.9c-4.7,12.4-10.1,24.5-16.4,35.9C558.3,662.4,564,662.6,569.7,662.6z"/>
	<path class="st41" d="M532.6,694.2c-0.2,4.4-5.1,5.8-6.3,9.5c-5.9,2.9-10.6,7.6-16.1,11.1c-9.3,2.5-18.3,6.4-28.1,7.5
		c-5.7,0.6-11.2,1.2-16.9,0.5c-0.8-0.5-1.3-1.2-1.4-2.1c0.3-6.2-0.3-12.7,5.5-17.1c20.2-4.6,40.6-8.1,61.2-11.1
		C531.4,692.8,532.1,693.4,532.6,694.2z"/>
	<path class="st42" d="M589.1,512.3c0,2-0.1,4-0.1,6c-0.3,0.7-0.7,1.4-1.1,2c-2.5,3.4-6.3,5-9.8,7c-18.4,10.2-35,23.2-52.6,34.7
		c-3,2.3-0.6,7.7-5.2,9.2c-2.9-0.6-3.8-3.6-6-5c-34-17.7-68.1-35.1-102.5-52.2c-4.3-2.1-10.1-3.2-10.6-9.7
		c9.8-3.1,19.9-4.7,29.9-6.5c11.7-2,23.3-4.2,34.6-7.8c12.1-3.8,24.4-6.7,36.6-10c4.2-1.1,8.3-2.4,12.4-3.6c0.6-0.5,1.1-0.9,1.7-1.4
		c0.5,0,1-0.1,1.5-0.4c0,0,0.1,0.8,0.1,0.8c5,0.2,9.2,3,13.6,4.9c17.6,7.5,34.3,16.8,51.4,25.2c1.7,0.8,3.3,1.8,4.4,3.5
		C588.3,510.1,588.8,511.1,589.1,512.3z"/>
	<path class="st43" d="M401.4,504.3c3.5,3.5,7.9,5.5,12.2,7.7c21.9,11,43.8,21.9,65.7,32.9c12.5,6.3,24.8,12.9,37.2,19.4
		c0.3,3.3-2.4,3.9-4.5,4.7c-13.3,5-26.5,10.5-39.8,15.5c-2.3,0.9-4.7,1.3-7.1,0.8c-17.3-2.4-34.7-4.5-52.1-6.2
		c-8.8-0.8-17.7,0.9-26.5,1.7c-11,1-22.1,1.7-33.1,1.1c-14.4-0.8-28.3,1.9-42.3,4.7c-3.9-0.8-3.6-3.4-2.3-6.1
		c1.2-2.5,3.2-4.3,5.2-6.1c24.3-21.2,49-41.9,73.1-63.4c3.3-2.9,7.2-4.7,11-6.6C399.2,504.3,400.3,504.3,401.4,504.3z"/>
	<path class="st44" d="M398.2,504.2c-4.9,6.5-11.8,10.9-17.7,16.4c-10.2,9.5-21,18.5-31.8,27.3c-10.9,8.8-20.6,18.9-31.8,27.4
		c-3.3,2.5-7.1,5.2-8.1,9.8c-1.6,1.9-3.5,2-5.7,1.3c-1-0.5-1.7-1.2-2.2-2.2c-1.3-3.6-1.7-7.3-1.7-11.1c0-19.5,0-38.9,0-58.4
		c0-4.3-0.2-8.7,3.3-12.1c20.1-2.2,40.3-1.3,60.5-1.7C374.9,500.6,386.5,502.2,398.2,504.2z"/>
	<path class="st45" d="M302.4,502.6c0,27.5,0,55.1,0,82.6c-0.6,0.5-1.3,0.7-2.2,0.7c-5.2-1.9-9.2-5.5-13.4-8.8
		c-27.2-22-53.2-45.5-80.5-67.4c-1.9-1.5-3.9-3-4.5-5.5c0-0.5,0-1.1,0-1.6c7.2,0,14.3-2.6,21.6-1.6
		C249.7,504.4,276.1,501.7,302.4,502.6z"/>
	<path class="st32" d="M89.9,473.1c-0.5-0.4-1.1-0.9-1.6-1.3C88.8,472.2,89.3,472.7,89.9,473.1z"/>
	<path class="st30" d="M516.7,475.1c-0.6,0.5-1.1,0.9-1.7,1.4C515.6,476,516.1,475.5,516.7,475.1z"/>
	<path class="st7" d="M454.9,361.5c3.9,1,5.4,3.9,4,7.2c-1.4,3.2-5.1,3.6-8.3,3.3c-5.4-0.5-8.5-4.1-10.3-8.9
		C445.3,363.7,450.1,361.9,454.9,361.5z"/>
	<path class="st7" d="M396.5,390.7c-3.6,7.5-5.2,15.8-10.4,22.6c-1.6,2.1-2.6,4.8-5.8,4.9c4.1-6.2,7.5-12.8,10.2-19.8
		C391.6,395.3,392.2,391.5,396.5,390.7z"/>
	<path class="st7" d="M403,385.8c-0.5,0.5-1.1,1.1-1.6,1.6C401.9,386.9,402.5,386.3,403,385.8z"/>
	<path class="st7" d="M398.1,389.1c-0.5,0.5-1.1,1.1-1.6,1.6C397.1,390.1,397.6,389.6,398.1,389.1z"/>
	<path class="st46" d="M588,510.4c-12-5.9-24.1-11.8-36.1-17.8c-8.2-4.1-16.4-8.1-24.8-11.7c-3.1-1.3-6.6-2.4-8.8-5.5
		c19-8.9,36.2-20.8,54-31.7c3-1.8,5.7-4.1,9.1-4.9c1.7,2,1.3,4.6,1.9,7c2,18.3,4.9,36.6,4.9,55.2C588.8,504.1,589.3,507.3,588,510.4
		z"/>
	<path class="st7" d="M544.1,405.2c1.7-3.7,5.2-5.6,8.5-7.2c7.2-3.4,11.9-9,15.9-15.6c1.9,3.5,2.9,7.4,3.3,11.4
		c-5.4-0.1-9.5,3.1-13.9,5.5C553.5,401.8,549,403.8,544.1,405.2z"/>
	<path class="st7" d="M428.7,399c5.8-2.5,8-9.7,14.7-11.5C442.1,394.9,439.7,396.9,428.7,399z"/>
	<path class="st47" d="M292.5,735c-13.5-0.7-26.9-1.3-40.4-2c-4-0.2-8.1,0.3-11.9-1.7c-1.7-2.5-0.7-5.1-0.1-7.6
		c0.8-3.1,0.7-6.2,0-9.3c-0.7-3.7-2.2-7.4,1.5-10.5c2.7-1.6,5.6-1.8,8.6-1.8c16.4,0.4,33-1.7,49.2,2.7c8.8,5.4,10.9,17.9,5.2,30.2
		C300.7,738.1,296.6,737.8,292.5,735z"/>
	<path class="st48" d="M242.7,715c-4-0.3-7.5,0.6-9.7,4.3c-1.3,2.2-3.7,3-5.8,4.2c-4,2.3-7.3,3.8-8.3-3c-0.2-1.1-1.3-10-5.5-1.4
		c-0.5,1.1-2.5,0.3-3.8-0.1c-3.1-1.1-6.4-0.8-9.6-0.7c-6.2,0.2-10.7,5.5-16.2,6.4c-5,0.8-9.6-5.5-15.7-4.1c-2.3,0.6-3.3,1-4.5-2.1
		c-0.8-1.9-2.8,1.5-4,3c-0.6,3.9-2.6,5.4-6.5,4c-2.2-0.8-4.3-1.6-6.5-2.5c0-1-0.1-1.9-0.1-2.9c0-14.2,9.2-21.6,20.9-25.7
		c12.7-4.5,26.2-5.3,39.7-4.2c4.8,0.4,9.7,0.1,14.6,0.5c4.1,0.3,7.7,2.4,11.1,4.6c4.9,1.5,8.1,4.2,7.6,9.8
		C240.9,708.6,243.1,711.5,242.7,715z"/>
	<path class="st49" d="M201.8,504.2c7.9,3.1,13.7,9.4,20,14.7c26,21.7,51.2,44.4,78.1,65.1c0.4,0.3,0.6,0.9,0.9,1.3
		c-3.3,3.6-7.3,2.7-11.3,2c-5.6-1-11-2.7-16.6-3.6c-8.3-1.3-16.6-1.9-25-1.6c-14.6,0.6-29-2-43.6-1.8c-12.2,0.2-24.2,1.4-36,4.2
		c-3.7,0.9-7.3,1.8-11.1,2.1c-2.2,0.1-4.4-0.2-6.6-0.1c-0.9-0.2-1.6-0.5-2.3-1.1c-9,0.7-16.7-2.2-24.3-6.9
		c-7.6-4.6-15.7-8.3-23.8-12c-2.5-1.1-4.7-2.5-7.1-3.8c0.9-1.8,2.4-2.8,4.2-3.7c18.1-9.6,36.2-19,54.2-28.8
		C168.1,521.1,184.9,512.6,201.8,504.2z"/>
	<path class="st50" d="M148.3,585.3c0.5,0,1.1,0,1.6,0c1.3-1.5,3.6-0.1,4.9-1.6c9.9-0.9,19.4-4.1,29.1-5.7c2.4-0.4,4.8-0.6,7.2-0.8
		c23.7-1.1,47.2,2.1,70.9,1.9c9-0.1,18.1,2.2,26.8,4.8c3.9,1.2,7.9,1.6,11.9,1.4c0.5,0,1.1,0,1.6-0.1c0.5,0.2,0.9,0.3,1.4,0.3
		c2.7,2.3,3.4,5.4,3.4,8.7c0.1,15.5,0.2,31.1,0,46.6c0,2.7-0.6,5.3-2.3,7.6c-5.9,4.8-12.6,1.9-18.7,1.3c-16.4-1.6-32.8-3.2-49.3-2.8
		c-4.3,0.1-8.8,0.4-12.1-3.2c-0.6,0-1.2-0.1-1.8-0.1c-3.9-1.6-4.8-5.5-6.5-8.7c-2.7-4.9-4.8-10.2-7.8-14.9
		c-6.6-10.3-14.5-18.1-28.3-14c-1.5,0.4-3.2,0.4-4.5-1c-1.3-6.3-2.5-7.6-8.7-8.2c-4.6-0.5-8.9-1.5-13.2-3
		C149.9,592.4,147.6,589.8,148.3,585.3z"/>
	<path class="st51" d="M224.8,643.7c26.5-0.7,52.8,1.2,79.1,4.8c0.4,0.3,0.8,0.7,1.2,1c1.4,1.8,2,3.8,2,6c0.3,15,0.3,30,0,45
		c0,2.2-0.7,4.2-2.1,6c-1.8,1.6-3.8,1.4-5.8,0.5c-19.6-2.6-39.2-1.8-58.9-1.7c-2.5-3.3-5-6.5-7.6-9.8c0.4-13.5-2.8-26.4-5.8-39.4
		C226,652.1,223.9,648.2,224.8,643.7z"/>
	<path class="st52" d="M175.9,605c0.5-0.1,1.1-0.2,1.6-0.4c14.2-4.7,22.5-2.1,31,10.3c6,8.9,10.7,18.6,14.5,28.7
		c-2.4,2.4-5.6,1.6-8.4,1.6c-12.9,0.1-25.8,0.1-38.8,0c-14.3-0.2-28.4,1.9-42.2,5c-6.4,1.5-12.8,1.5-19.2,1.4
		c3.2-5.6,8.8-8.9,13.8-12.1C144.7,628.9,159.5,615.8,175.9,605z"/>
	<path class="st48" d="M464.8,722.1c0,0,0.4,0.7,0.4,0.7c-0.6,0.7-1.2,1.4-1.8,2.1c-3.7,2.8-7.7,3-11-0.2c-3.3-3.2-6.3-2.2-9.5-0.4
		c-7.1,3.9-13.9,4.9-21.2,0c-4.3-2.9-9.3-1.4-14.1-0.1c-3.9,1.1-8,4.1-11.9-0.1c-0.8-0.8-1.3-0.7-2,0c-4.7,4.3-9.1,1.6-13.4-0.7
		c-4-2.1-9.1-1.7-12.5-5.3c-2.4-4.3-1.5-8.5,0.4-12.7c2.9-5.6,6.9-10.2,12-14c5.6-4,12.3-4.4,18.6-4.7c17.8-0.9,35.7-1.1,52.1,7.7
		C464,701.6,466.7,707.1,464.8,722.1z"/>
	<path class="st53" d="M371.1,705.4c-1.7,4.1-2.8,8.3-2,12.9c3,4,5.1,8.2,3,13.4c-4.9,1.5-10,1.2-15,1.4c-4.8,0.2-9.6,0-14.2,1.4
		c-13,0-26-0.1-38.9-0.1c0-6.4-0.2-12.8,0.2-19.2c0.2-4.1-1.5-6.4-4.9-8.1c1.6-0.1,3.2-0.1,4.8-0.2c6.5-4.9,14.3-4.1,21.7-4.7
		c11.8-0.9,23.6,0.4,35.4-1.3C365,700.4,369.5,700.2,371.1,705.4z"/>
	<path class="st54" d="M519.9,570.9c1.7-1.8,1.4-4,1.5-6.1c0.1-1.8-0.3-3.8,1.5-5.2c14.2,11.6,26.7,25.1,40.4,37.3
		c4.7,4.2,11.5,6.7,12.2,14.3c-0.5,5.1-2.5,9.8-4.2,14.6c-0.4,0.5-0.8,1-1.3,1.4c-1.8,2.4-4.2,4.1-7.1,4.9
		c-18.4,4.8-36,12-54.1,17.9c-2.8,0.9-5.6,2-8.6,1.4c-0.9-0.2-1.6-0.7-2.3-1.3c-1.7-2.9-0.9-5.7,0.1-8.6
		c7.5-21.4,14.7-42.8,18.7-65.2C517.2,574.3,517.9,572.2,519.9,570.9z"/>
	<path class="st55" d="M500.3,650.3c23-8.3,46-16.9,69.8-23c-3.9,17.4-12.5,32.6-21.9,47.4c-4.5,7-8.7,14.3-15.5,19.5
		c-0.5-0.1-1-0.2-1.5-0.4c-1.1-1.1-2.9-1.6-3.9-2.8c-8.3-10.7-18.1-20.3-26.1-31.3C499.2,656.9,497.3,653.7,500.3,650.3z"/>
	<path class="st56" d="M464.8,722.1c1-12.9-5.9-20.7-16.8-25.9c-7.1-3.3-14.4-6.2-22.5-5.5c-3.8,0.3-7.5-1.2-11.2-1.4
		c-11.6-0.7-23.1,0.3-34.1,4.7c-3.8-3.3-3.2-7.8-3-11.9c0.8-12.9,3.4-25.4,8.7-37.2c0.8-1.9,2-3.4,4.1-3.9c33.1-1.2,66-0.8,98.3,8.2
		c2.1,0.6,4.2,1,5.9,2.4c2.5,2.3,1.9,4.9,0.4,7.3c-8.7,14.1-17.3,28.3-23.2,44c-0.4,1-1.5,1.5-2.3,2.2
		C465.9,710.2,467.5,716.7,464.8,722.1z"/>
	<path class="st57" d="M469.3,705c2.2-11.6,7.7-21.8,13.6-31.8c4-6.7,8.3-13.3,12.4-19.9c0-0.3,0-0.6,0-0.9c0.1-0.6,0.4-1.1,0.7-1.6
		c0.7-0.7,1.4-1.1,2.3-0.6c0.7,0,1.3,0.1,2,0.1c0.5,8.9,7.6,13.7,12.7,19.6c5.9,6.8,11.4,14,17.1,21c0.6,0.8,0.7,2,1.1,3
		c-12.4,3.9-25.1,6.4-37.9,7.9C485.2,702.7,477.5,705.8,469.3,705z"/>
	<path class="st58" d="M575.6,611.3c-15.8-15.1-32.8-28.9-48.2-44.5c-2.1-2.1-4.8-3.6-4.5-7.2c5.9-3.6,12.2-6.9,17.7-11
		c14.9-11,30.6-20.7,46.7-29.6c2.6,7.4,1.2,15,0.7,22.5C586.6,565.2,582.5,588.5,575.6,611.3z"/>
	<path class="st59" d="M498.3,650.2c-0.5,0.6-1,1.1-1.5,1.7c-0.5,0.5-1,0.6-1.6,0.4c-0.9-0.3-1.7-0.7-2.4-1.3
		c-0.8-0.6-1.7-0.9-2.6-1.3c-1.5-0.8-2.8-1.9-4.2-2.8c-0.9-0.6-1.8-1.2-2.7-1.8c-17.8-12.2-33.6-27.1-52.4-38
		c-2.5-1.5-5.4-2.8-5.8-6.2c0.3-1.4,1-2.6,2.2-3.2c12.5-5.9,24.7-12.7,38.8-14c13.8-5.3,27.7-10.4,41.4-16c3-1.2,6.4-1.1,8.9-3.4
		c3,1.3,3.3,4,3.4,6.7c-0.7,14.4-4.9,28.1-9,41.7C507.1,625.3,502.6,637.7,498.3,650.2z"/>
	<path class="st60" d="M466.2,583.6c-10.9,5.9-23.1,8.9-34.2,14.4c-2.1,1.1-4.6,1.5-6.3,3.4c-0.8,1.6-2.3,2.3-3.9,2.7
		c-10.1,2.4-15.9,9.6-20.5,18.1c-2.3,4.3-4.3,8.7-6.2,13.1c-1.1,2.7-2.2,5.6-5.4,6.6c-1.1,0.9-1.3,2.1-1.6,3.4
		c-2.3,1.7-5,1.8-7.7,1.7c-22.5-0.6-44.9,1.3-67.3,3.6c-3.3,0.3-6.4,0.6-9.1-1.9c0,0-0.2,0-0.2,0c0-21,0-42,0-63
		c1.7-0.1,3.3-0.3,5-0.4c14-5.2,28.5-7.1,43.5-6.4c18.2,0.9,36.5-0.6,54.6-3c6.5-0.9,12.8,1.1,19.2,1.7
		C439.5,578.8,453.1,579.4,466.2,583.6z"/>
	<path class="st38" d="M154.8,583.7c-1.3,1.6-3.1,1.6-4.9,1.6C151.2,583.6,153,583.7,154.8,583.7z"/>
	<path class="st61" d="M304.1,648.6c24.7-3.6,49.6-5.3,74.6-4.8c3.2,0.1,6.5-0.2,9.5,1.4c-1.7,8.9-5.3,17.3-6.6,26.4
		c-1.1,7.5-1.3,14.9-1.2,22.4c-2.9,3.9-7,6.9-9.2,11.4c-3.4-2.5-7.3-1.8-10.9-1.2c-6.1,1.1-12.3,1.4-18.4,1
		c-12.7-0.8-25.1,2.3-37.7,1.8C304.1,687.5,304.1,668.1,304.1,648.6z"/>
	<path class="st62" d="M389.8,641.8c3.1-8.3,6.4-16.6,10.9-24.3c5.6-9.4,12.8-16.8,25-16.2c13.5,6.7,25.3,15.8,37.1,25.1
		c7.5,5.9,15.3,11.6,23,17.3c0.5,0.5,1,1,1.5,1.5c1.6,1.1,3.3,2.3,4.9,3.4c0.5,0.5,1,0.9,1.5,1.4c0.6,0.5,1.1,1,1.7,1.5
		c0.5,0.4,0.6,0.8,0.4,1.1c-0.2,0.3-0.3,0.5-0.5,0.5c0,0-0.1,0.1-0.1,0.1c-13.4-2.7-26.7-6.4-40.2-7.8c-17.3-1.8-34.8-2.7-52.2-1.9
		c-2.7,0.1-5.4,0-8.1,0C392.9,643.7,391.1,643.4,389.8,641.8z"/>
	<path class="st56" d="M495.4,653.3c0-0.5,0.1-1.1,0.1-1.6c0.4,0.1,0.9,0.1,1.3,0.2C496.3,652.3,495.9,652.8,495.4,653.3z"/>
	<path class="st56" d="M493.8,650.2c-0.5-0.5-1-1-1.5-1.4C492.8,649.2,493.3,649.7,493.8,650.2z"/>
	<path class="st56" d="M487.3,645.3c-0.5-0.5-1-1-1.5-1.5C486.3,644.3,486.8,644.8,487.3,645.3z"/>
</g>
</svg>
