<?xml version="1.0" encoding="utf-8"?>
<!-- Generator: Adobe Illustrator 27.4.0, SVG Export Plug-In . SVG Version: 6.00 Build 0)  -->
<svg version="1.1" id="Layer_1" xmlns="http://www.w3.org/2000/svg" xmlns:xlink="http://www.w3.org/1999/xlink" x="0px" y="0px"
	 viewBox="0 0 720 720" style="enable-background:new 0 0 720 720;" xml:space="preserve">
<style type="text/css">
	.st0{fill:#5A396B;}
	.st1{fill:#FCF4E7;}
	.st2{fill:#FCF3E3;}
	.st3{fill:#BF9F76;}
	.st4{fill:#FBD3BA;}
	.st5{fill:#B66275;}
	.st6{fill:#EEDEC5;}
	.st7{fill:#6BB7A9;}
	.st8{fill:#EA8E84;}
	.st9{fill:#DAC9AB;}
	.st10{fill:#B91B03;}
	.st11{fill:#4E7D6B;}
	.st12{fill:#C8B08A;}
	.st13{fill:#D0B995;}
	.st14{fill:#D0859D;}
	.st15{fill:#FCEFDA;}
	.st16{fill:#DD9E64;}
	.st17{fill:#D37837;}
	.st18{fill:#B7C3AF;}
	.st19{fill:#C6596C;}
	.st20{fill:#E48B22;}
	.st21{fill:#D48B69;}
	.st22{fill:#E79E45;}
	.st23{fill:#FDEFD9;}
	.st24{fill:#B3D9C7;}
	.st25{fill:#F5B1A5;}
	.st26{fill:#F1AE58;}
	.st27{fill:#EDDDC3;}
	.st28{fill:#E3D4B8;}
	.st29{fill:#F1A24C;}
	.st30{fill:#D189A2;}
	.st31{fill:#EF8B7A;}
	.st32{fill:#E8480E;}
	.st33{fill:#FEF7EB;}
	.st34{fill:#FDF1DD;}
	.st35{fill:#F6A99A;}
	.st36{fill:#EFA14D;}
	.st37{fill:#FAD3BC;}
	.st38{fill:#5EAAA9;}
	.st39{fill:#6EB8B3;}
	.st40{fill:#71B7B4;}
	.st41{fill:#FCE0C8;}
	.st42{fill:#DA4958;}
	.st43{fill:#A8BD9A;}
	.st44{fill:#4CA9B0;}
	.st45{fill:#FDD371;}
	.st46{fill:#DDB992;}
	.st47{fill:#D27A89;}
	.st48{fill:#EA7F73;}
	.st49{fill:#D5C6A7;}
	.st50{fill:#F5E4C9;}
	.st51{fill:#F8B1AA;}
	.st52{fill:#FCC4AF;}
	.st53{fill:#F1B263;}
	.st54{fill:#88BDB1;}
	.st55{fill:#F0E4CD;}
	.st56{fill:#F8F1E4;}
	.st57{fill:#FAE9CF;}
	.st58{fill:#FCEED7;}
	.st59{fill:#E4E7DA;}
	.st60{fill:#F9D6BD;}
	.st61{fill:#FBBCB0;}
	.st62{fill:#B9DFCE;}
	.st63{fill:#B4DBD0;}
	.st64{fill:#A0D5CB;}
	.st65{fill:#DC707A;}
	.st66{fill:#E08D94;}
	.st67{fill:#D9D3B5;}
	.st68{fill:#49A7AC;}
	.st69{fill:#AFDACD;}
	.st70{fill:#75C1C0;}
	.st71{fill:#DBDCC6;}
	.st72{fill:#E26F80;}
	.st73{fill:#CFE3D7;}
	.st74{fill:#FEF7EA;}
	.st75{fill:#DCE1CD;}
	.st76{fill:#DED3B9;}
	.st77{fill:#11060B;}
	.st78{fill:#433645;}
	.st79{fill:#C26A83;}
	.st80{fill:#A78264;}
	.st81{fill:#BC6885;}
	.st82{fill:#C8BD9A;}
	.st83{fill:#5D2D3A;}
	.st84{fill:#471D27;}
	.st85{fill:#F7F2E5;}
	.st86{fill:#F39D52;}
	.st87{fill:#F39041;}
	.st88{fill:#FCE3C9;}
	.st89{fill:#11060A;}
	.st90{fill:#383A48;}
	.st91{fill:#47596A;}
	.st92{fill:#9D726D;}
	.st93{fill:#F18EA8;}
	.st94{fill:#CF4161;}
	.st95{fill:#7C96A9;}
	.st96{fill:#57828D;}
	.st97{fill:#82AAB7;}
</style>
<rect x="0" y="0.5" class="st0" width="720" height="720"/>
<g>
	<path class="st1" d="M266,720c-0.5-0.3-1-0.6-1.5-0.9c-5.9-0.1-8-4.5-9.8-9.1c-0.7-1.7-1.5-3.4-1.5-5.3
		c-1.6-16.1,11.5-34.3,28.1-36.2c20.3-2.4,40.9-2.4,60.9,3.3c5.5,1.6,10.3,4.4,14.3,8.5c10.8,12.3,11,27.6,0.5,35.8
		c-4.7,5-10.4,6.9-17.4,6.8c-10.9-0.2-21.7,2.3-32.7,2C293.1,724.5,279.5,722.7,266,720z"/>
	<path class="st2" d="M507.2,719.2c-2.8,1.2-5.6,2.4-8.4,3.7c-0.6,0.1-1.2,0.2-1.7,0.3c-3.9,1.8-8.2-0.4-12.1,1.3
		c-1,0.1-2,0.3-3.1,0.4c-11.2,1-22.4,1-33.6,0c-5.9-1.6-11.8-2.7-17.9-2.5c-5.1,0.2-9.8-1.5-12.8-6.3c-9.9-7.1-11-24.6-2.2-34.2
		c3.4-3.7,7.3-7.5,12.1-8.9c23.6-6.8,47.4-11.6,71.5-1.7c9.7,6.1,17.2,13.7,17.9,26.1c-0.4,2.6-0.2,5.2-0.3,7.9c0,0.9,0,1.7-0.1,2.6
		C515.7,713.6,512.8,717.5,507.2,719.2z"/>
	<path class="st3" d="M498.5,673.3c-17.8-6.5-35.9-4.2-53.9-1.7c-7.7,1-14.9,3-21.9,7.4c-11.9,7.5-11.8,20.8-8.3,31.2
		c0.7,2.1,2,3.9,3.1,5.9c-20.2,0-40.3-0.1-60.5-0.1c5.8-11.5,7.3-22.9-1.7-33.7c-2-2.7-0.1-4.1,1.8-5.3c2.4-1.5,5.2-2.1,7.8-3
		c24.8-8,49.4-16.2,72.5-28.4c2.2-1.2,4.6-2.1,7.1-2.4c0.6-0.1,1.2-0.2,1.7,0c16.4,5.9,32.4,12.8,49.3,17.5c2.4,2.7,4.1,5.7,4.6,9.3
		C500.2,671.4,499.8,672.6,498.5,673.3z"/>
	<path class="st4" d="M154.5,717.5c-5.3-2.6-11.6-1.8-16.8-4.9c-5.5-5.3-12.1-10-8.2-19.3c3.1-2.3,6.7-2,10.3-2.2
		c6.6-0.4,13.1-1.2,19.1-4.1c5,0.2,4.4,4.7,5.8,7.6c2.4,5.6,5.7,10.6,9,15.7c1.6,2.4,4.4,4.5,2.4,8c-1.6,0.7-3.3,0.3-4.9-0.1
		C165.6,718.1,160.1,717.8,154.5,717.5z"/>
	<path class="st5" d="M607.1,648.4c-0.1,0.5-0.2,1-0.2,1.6c-2.2,1.9-4.4,3.8-6.6,5.6c-11,9.9-22.3,19.4-35.2,26.7
		c-7.2,0.3-14.7,1.8-20.9-3.6c4-9.5,8.8-18.6,14.7-27.1c2.3-2,5.2-2.2,8.1-2.2c9.1-1.3,18.2-3.1,27.2-4.7
		C598.7,643.9,604.3,642,607.1,648.4z"/>
	<path class="st6" d="M100.4,699.4c-29-12.9-49.8-33.6-60.2-64c-1.5-4.5-2.8-9.1-3.4-13.8c0-6.6,3.1-12.1,6.5-17.4
		c8.6-12.3,20.5-15.7,34.8-12.9c7.1,8.3,12,17.7,14.5,28.4c-1.5,2.4-4.1,2.6-6.6,3.1c-6.2,1.3-11.4,4.6-15.9,8.8
		c-8.6,7.9-8.7,15.2-0.6,23.6c3.1,3.2,6.4,6.2,9.7,9.2c4.9,4.5,10.8,6.2,17.2,6.7c1.5,2.3,1.9,4.8,1.5,7.4
		c-0.5,5.8,3.5,9.8,5.4,14.7C105,697.8,104.8,698.2,100.4,699.4z"/>
	<path class="st7" d="M100.4,699.4c3.2-0.3,2.6-1.8,1.3-3.8c-3.2-5.1-7-9.9-6.4-16.5c0.4-0.4,0.9-1,1.3-0.9
		c11.3,3.7,23,6.6,32.4,14.6c0.1,0.4,0.2,0.8,0.3,1.3c1.3,6.9,5.5,12.4,8.4,18.5C124.8,709.6,112.6,704.4,100.4,699.4z"/>
	<path class="st8" d="M35.8,620.1c-2.8-13.2-3.9-26.6-2.9-40.1c0.2-2.5-0.2-5.1,1.2-7.4c4.6-0.6,9.4-1.7,12.4,3.4
		c2.5,10.4,2.4,20.6-1.9,30.5c-3,4.9-4,10.7-7.8,15.2C36.4,621.1,36.1,620.6,35.8,620.1z"/>
	<path class="st9" d="M444.7,645.2c-26.5,14.7-55.1,24.1-83.8,33.3c-2.3,0.7-5.3,0.3-5.6,3.8c-10.5-9.4-23.9-10.3-36.8-11.5
		c-10-0.9-20.1-0.4-30.2-0.2c-8.6,0.2-16.8,1.6-21.7,9.9c-0.3,0.5-0.7,0.8-1.2,1.2c-8.2,6.1-11.2,14.3-9.8,24.3
		c-3.1,1.8-6.1,0.7-8.9-0.6c-8.4-3.9-17.2-6.9-23.9-13.8c-0.4-0.8-0.5-1.6-0.5-2.5c1.1-4.6,4.9-6.8,8.5-8.8
		c12-6.8,22.9-15.1,33.5-23.8c4.5-2.6,9.4-3.4,14.4-4.3c22.9-4,45.4-9.5,67.7-16.4c-15.6,2.4-30.8-3.8-46.5-1.5
		c-9.9,1.5-20.6,1.7-29.8-4.7c2-14.6,4.8-28.7,21.6-33.9c2.7-0.8,4.7-3,6.8-4.8c8.1-6.8,16.9-10.8,27.8-7.3c2.6,0.8,5.6,0.1,8.4,0.3
		c13.1,5.2,27.2,6.8,40.6,11c15,4.6,30.8,6.2,46.7,4.2c7.3-0.9,14.6,0.2,21.9-0.1c5-0.1,10.1-0.8,15.1-1
		c17.1-0.6,23.5,2.8,28.9,20.4c0.5,5.3-3.8,7-7.2,9.1c-8,5-16.9,8.3-24.3,14.3C453.1,645.2,448.6,644.1,444.7,645.2z"/>
	<path class="st10" d="M223.5,690.7c10.8,4.8,20.5,12.2,32.1,15.3c0.2,0.9,0.5,1.7,0.7,2.6c-10.9,2.1-21.5,5.1-32.5,6.7
		c-3.6,0.5-7.1,1-10.7,0.6c-11.4-3.4-17.1-11.4-15.5-21.6C205.8,690.2,214.1,686.2,223.5,690.7z"/>
	<path class="st11" d="M544.2,677.7c3.5,2.3,7.7,0.8,11.4,1.8c3.2,0.8,6.7,0.4,9.4,2.9c-14.5,10.3-30.4,18-46.7,24.8
		c-1.2,0.5-2.7,0.3-4.1,0.4c0-0.5,0-0.9,0-1.4c1-2.8,0.7-5.7,0.1-8.5c-1.1-10.8-7.8-18-15.9-24.3c0.1-0.8,0.2-1.7,0.3-2.5
		c0.8-1.2,2-1.6,3.4-1.7c2.2,0.1,4.4,0.5,6.7,0.4c9.1,1.3,18.2,2.9,27.2,4.5C539.2,674.5,542.4,674.6,544.2,677.7z"/>
	<path class="st12" d="M514.4,697.7c1.7,2.9,1.5,5.7-0.1,8.5C513.8,703.3,513.7,700.5,514.4,697.7z"/>
	<path class="st13" d="M444.7,645.2c3.4-1.7,6.8-3.3,10.2-5c18.6-0.8,36.5-6,54.7-9.2c4.4-0.8,8.7-2.4,13.2-0.8
		c4.2,3.7,0.1,5.8-1.8,8.1c-6.9,8.3-7,8.2,2.4,13.3c2.9,1.6,6.4,3.1,4.1,7.6c-10.3,5.1-20.9,7.4-32.1,2.9c-4.9-1.1-9.8-2.5-14.8-3.3
		c-7-1.1-13.5-3.4-19.6-7.1C456,648.8,450.6,646.4,444.7,645.2z"/>
	<path class="st14" d="M495.4,662.2c9.6-0.8,19.2-1.4,28.6-3.4c1.4-0.3,2.6-0.8,3.6-1.9c10.3-3.9,20.6-8.2,31.9-3.3
		c-3,6-6,12-8.9,18c-1.4,2.8-2.8,5.5-6.4,6c-12.6-0.5-24.9-3.3-37.2-5.7c-1.5-0.9-3.5,0-4.9-1.1c-1,0-2.1,0-3.1,0
		C497.4,668.1,494.9,665.8,495.4,662.2z"/>
	<path class="st15" d="M159.5,687.3c-0.1,3.1-1.2,5-4.8,5.3c-8.5,0.8-16.8,2.3-25.4,1.5c0,0-0.3,0-0.3,0c-8.8-12.7-6.1-39.4,5-50.2
		c2.9-2.8,6.4-4.4,10.4-5.1c7.7-0.1,15.5-1.8,22.8,1.9c2.5,2.5,1.6,5.3,0.5,7.8c-4.3,9.7-5.6,19.8-5.3,30.3
		C162.5,682,162.3,685.2,159.5,687.3z"/>
	<path class="st16" d="M159.5,687.3c-0.1-6.4-0.3-12.8-0.2-19.2c0-9.5,4.2-17.7,8.3-26c-0.5-0.7-0.5-1.4,0.1-2.1
		c3.8-0.6,5.4,2.5,7.4,4.6c5.4,5.3,10.6,10.8,16.7,15.3c1.4,2.3,1.9,4.8,2.1,7.4c0.1,8.4,2.5,16.5,2.5,24.9c-1,3.1-3.4,4.6-6.3,4.8
		c-9.2,0.7-18.4,2-27.4-1C160,693.7,162.1,689.7,159.5,687.3z"/>
	<path class="st17" d="M162.7,696c2.3-2.3,5.2-1.6,7.9-1.6c6.1-0.1,12.3,0,18.4,0c2.6,0,5.2,0.1,5.8-3.4c4.2-0.4,2.6,2.9,3.1,4.9
		c2.1,8.9,8.1,14.9,15.2,20c-4.8,1.7-9.9,1.9-14.9,2.5c-7.4-0.3-14.8-0.6-22.1-0.9C170.4,711.1,165.5,704.2,162.7,696z"/>
	<path class="st18" d="M63.1,540.6c-1-9,0.4-17.9,1.4-26.8c0.9-8.1,1.9-16.6,0.1-24.7c-0.9-4.3-2.9-8.5-7.1-10.5
		c-7.7-3.6-17.7,1-23.7,6C24,493,17.8,508,18.7,521c0.6,7.4,3.8,13,8.2,18.7c3.9,5,7.6,10,8.9,16.4c0.1,0.3,0.1,0.6,0.1,0.9
		c0.9,3-1.7,6.2-1.2,9.2c1.5,1.8,3.7,2.8,5.9,2.5c10.1-1.1,20.5-1.2,29.6-6.7c0.1-0.2,0.3-0.4,0.4-0.6
		C65.6,555.9,63.9,547.8,63.1,540.6z"/>
	<path class="st19" d="M671.3,535.7c-4.1,17.4-11,33.6-20.2,48.8c-14.2,10.6-29.5,19.1-46.5,24.4c-6.1,1.9-12.2,4-18.3,6.1
		c-3.1,1.1-6.3,2.5-9.7,0.7c-6.1-7.6-11.9-15.3-15-24.7c-1.1-3.4-2.8-6.7-1.2-10.5c2-3.4,5.4-5,8.9-5.8c11.9-2.7,22.5-8.3,33.1-14
		c3.9-2.1,7.8-4.6,12.6-2.6c4.8,4.6,2.1,10.6,3.5,17c4.7-8.3,10.5-15.1,13.7-23.5c1.1-1.9,2.7-3.3,4.6-4.3
		c9.1-3.5,16.6-10.3,26-13.2C665.6,533.3,669.5,529.5,671.3,535.7z"/>
	<path class="st20" d="M576.5,615c21.3-7.2,43.6-12.1,62.3-25.8c3.6-2.6,7.6-4.8,12.3-4.7c-8,18.4-17.3,36-31.4,50.4
		c-4.3,4.4-7.4,9.9-12.5,13.5c-5.1-2.2-10.2-1.3-15.4-0.2c-8.4,1.8-16.7,4.1-25.3,3.7c-1.9-2-2.9-4.8-1.5-6.8
		c5.7-8.5,4.1-18.6,6.7-27.8C572.7,615.5,574.4,614.7,576.5,615z"/>
	<path class="st21" d="M671.3,535.7c-1.7-2-3.4-1-5.2-0.2c-6.7,3.1-13.5,6.1-19.7,10.3c-2.8,1.9-5.6,3.4-9.1,3.3
		c-1.8-1.8-1.9-4.1-1.3-6.3c4.3-14.2,2.6-28.9,3.2-43.4c0.3-2.5,1.8-4.2,4-4.8c11.7-3.1,22.2-8.8,32.7-14.4c1.5-0.8,3.1-1.1,4.8-0.5
		c0.1,1.7,0.2,3.5,0.3,5.2c-2.4,16-4.1,32.1-8.6,47.8C672.3,533.7,671.8,534.6,671.3,535.7z"/>
	<path class="st22" d="M573.1,616.9c0,3.9-0.2,7.8,0,11.7c0.2,5.2-0.3,9.8-4.2,13.8c-2.4,2.4-2.8,6-2.5,9.4c-2.3,0.5-5-0.2-6.9,1.8
		c-5.6-0.5-10.9,1.3-16.3,2.2c-5.2,0.8-10.3,1.3-15.6,1.1c-3.1-3-7.5-3.4-11.2-5c-6-2.6-6-3.9-2.4-9.6c2.7-4.4,7-6.9,10.4-10.4
		c1.2-3.3,4.2-4.5,7.1-5.2c11.4-2.9,22.5-6.6,33.7-10.2C567.8,615.7,570.6,614.7,573.1,616.9z"/>
	<path class="st23" d="M92.4,619.6c6.8,5.1,13.3,10.8,21.3,14.1c1.5,1.4,1.5,3.4,0.5,4.6c-8.2,9.7-13,21.4-19.1,32.4
		c-1.8,3.9-3.9,5.4-8.2,2.5c-7.5-5-14.2-10.8-20.8-17c-7.6-7.2-8.8-14.1-0.2-24.3C72.5,624,81.4,619.1,92.4,619.6z"/>
	<path class="st24" d="M95.1,670.6c0.6-12.1,7.3-21.2,14.4-30.1c1.7-2.1,4.4-3.6,4.2-6.8c9.7,4.9,20.2,6.6,30.7,8.1
		c-9.3,1.4-12.8,8.8-15,16.1c-3.7,11.9-3.1,24.2-0.4,36.3c-2.2-1.2-4.1-2.9-6.6-3.6c-9.5-2.7-18.2-7.3-27.1-11.4
		C95.2,676.3,95.1,673.5,95.1,670.6z"/>
	<path class="st25" d="M74.6,574.7c1.2,6.1,2.4,12.3,3.6,18.4c-4.7,0-9.3-0.1-14.1,0.7c-8.5,1.5-15,5.5-19.6,12.6
		c0-10.7-0.1-21.4-0.1-32.1c0.9-4.9,5.1-4.6,8.4-4.5c6.6,0.2,13.2,0.7,19.5,2.8C73.3,573.2,74,573.9,74.6,574.7z"/>
	<path class="st26" d="M73.4,574.4c-5.5,0-10.9-0.2-16.3-1.3c-4.1-0.8-8.7-2-12.6,1.2c-2.5,0.2-5,0.2-7.5,0.5
		c-1.9,0.2-2.4-0.9-2.9-2.3c0.2-2.2,0.5-4.3,0.8-6.5c12-0.1,23.4-3.3,35.1-5.5C77.5,563.6,75.9,568.9,73.4,574.4z"/>
	<path class="st27" d="M487.1,620.1c-2.3-1.8-3.1-4.6-4.4-7.1c-5.6-11.1-13-14.7-25.1-12.2c-3.1,0.6-6.1,0.5-9.2,0.6
		c-10.3,0.4-20.7,0.6-31,1.2c-17.6,0.9-35.3-0.3-51.8-7.8c-1.5-0.7-3.2-1.7-4.7-1.6c-10,0.6-18.5-4.2-27.5-7
		c-26.6-9.3-53.4-18.1-78.3-31.7c-6.4-3.5-12.8-7-17.8-12.4c-2.2-2.4-5.2-4.6-3.5-8.6c5-2.1,7.9,1.9,11.1,4.3
		c5.5,4,10.5,5.6,16.7,0.9c6.1-4.6,13.7-4.9,21.1-3.4c9.8,1.9,18.8,0.1,28-3.7c8.2-3.4,9.7-12.2,15.6-17.3c3.3-1.7,6.9-2.4,10.6-2.3
		c5.4,1.4,10.6,3.5,16.3,3.9c5.8,0.4,9.4,3.7,10,9.5c0.6,5.2,3.3,7,8.3,7.2c9.5,0.5,19,0.8,26.7,7.9c2.8,2.6,7.3,2.7,11.2,3.2
		c12.2,1.4,24.1,5.1,36.5,4.8c2.9-0.1,5.4,1.2,7.9,2.6c7.3,3.9,14.5,3.9,21.3-1.2c3.4-2.6,6.5-4.2,10.1,0.1c2.4,2.9,7.3,0.7,10,3.7
		c1.6,4.3-1.8,6-4.4,7.8c-4.4,3-9.3,5.2-14.1,7.4c-12.8,5.8-25.1,12.4-37.7,18.6c-2.2,1.1-4.6,2-6.1,5c9.1,2.8,17.9,2.5,26.8,2.1
		c20.2-1,40.1-4.3,59.9-8c3-0.6,6.1-1.2,9.1,0.3c3,3.8-0.2,6.2-2.2,8.5c-4.2,5-9.4,8.8-14.7,12.5c-5.2,3.7-10.6,7.3-16.1,10.7
		C493,620.2,490.4,622.4,487.1,620.1z"/>
	<path class="st28" d="M233.7,533.9c5.3,7.5,12.3,13,20.5,17c13.9,6.7,27.8,13.4,41.7,20c4.3,2.1,9.1,2.6,13.7,3.7
		c8.7,2.1,17.1,5.2,23.7,11.7c-2.8-0.1-5.8,0.4-8.4-0.4c-9.8-3-17.5,0.9-24.4,7.1c-3.4,3.1-6.6,5.9-11.2,7.1c-5.7,1.5-9,6.4-13,10.3
		c-1.1,1.1-1.6,2.5-0.8,3.8c3.5,5.9-0.5,9.3-3.9,13c-0.4,0.4-0.5,1-0.8,1.5c-2.4,2.9-5.9,3.3-9.2,3c-19.7-1.9-39.5-2.5-59.1-5.5
		c-4.2-0.6-8.2-2-10.1-6.5c0.9-7.6,7.2-7.2,12.1-7.4c11.8-0.6,23.6-0.9,35.3-2.1c5.9-0.6,11.5-1.7,18.3-4.6
		c-9.6-3.5-18.1-4.9-26.7-6c-17.4-2.1-34.2-6.9-51.3-10.1c-2.2-0.4-4.3-1.2-6.2-2.5c-6.8-6.9-13.1-14.3-17.6-23
		c-1.7-3.3-4.5-6.6-1.8-10.7c4.6-3,9.8-1.9,14.7-2.1c5.8-0.2,11.7,0.2,19-3.3c-14.9-6.3-29.7-6.5-43.2-11.4c-8-2-15.8-4.7-23.9-6.4
		c-3-0.6-5.9-1.5-7.2-4.8c-4.7-2.4-5.7-6.5-5.2-11.2c5.7-6.1,13.1-3,19.8-3.7c14.4-1.3,29,1.3,43.3-0.4c13.6-1.6,26.7,0.3,40.1,1.2
		c2.4-0.2,4.6,0.2,6.5,1.9c2.1,5.2,6.2,8.9,10,12.8C230.6,528.1,233.5,530.1,233.7,533.9z"/>
	<path class="st29" d="M192.8,618.2c1.9,3.9,5.8,4.1,9.3,4.8c4.4,0.8,8.9,1.7,13.3,1.8c18.5,0.3,36.8,3.7,55.4,3.8
		c10.3,2.9,20.9,3.8,31.5,2.6c6.5-0.7,12.7-0.8,19.2,0.2c8.3,1.2,16.6,1.7,25,0.5c2.8-0.4,7.3-1.3,7.8,2.6c0.5,3.7-4.1,4.2-6.8,5
		c-17.2,5.1-34.7,8.7-52.1,12.7c-10.3,2.4-21.1,2.8-31.1,6.7c-21.3,4.4-42.8,5.7-64.4,4.8c-3.1-0.1-6.2-0.4-8.4-3.1
		c-3,0.1-5.4-1.1-7.4-3.3c-5.4-5.7-11.3-10.8-16.1-17.1c-4.2-5.5-9.7-9.9-12.4-16.6c0-4.3,3.6-4.8,6.4-5c7.8-0.5,15.4-2,23.1-2.9
		C188,615.6,190.7,615.8,192.8,618.2z"/>
	<path class="st30" d="M487.1,620.1c15.4-8.9,30.8-18,42.2-32.2c2.5-3.3,6.4-3.1,9.9-4c7.6,0.8,14.4-4.8,22.2-2.8
		c1.5,8.1,5.5,15.1,8.9,22.4c0.7,1.4,1.9,3.3,3.3,3.6c5.1,1.3,3.5,4.7,3,7.8c-1.1,0.6-2.2,1.3-3.3,1.9c-16,5.8-32.4,10.3-48.7,15
		c-10.6,0.5-20.7,3.8-31.1,5.5c-9.8,1.6-19.6,3.8-29.4,5.8c-3.6,0.7-6.6-0.2-9-2.9c3.1-4.1,7.7-6.3,12.1-8.5
		C473.9,628.2,480.8,624.7,487.1,620.1z"/>
	<path class="st31" d="M191.5,660.6c10.4,0,20.8-0.3,31.2-0.1c9.1,0.2,17.9-1.3,26.7-2.8c5.1-0.8,10-1.4,14.8,1.1
		c-7.8,9.3-18.2,15.2-28.3,21.4c-4.5,2.8-9,5.4-12.7,9.2c-14.4-2.7-24.3-11.6-31.6-23.7C190.7,664.2,190.3,662.4,191.5,660.6z"/>
	<path class="st32" d="M191.6,665.9c8.8,7.5,17.1,15.7,27.3,21.3c1.4,0.8,2.9,1.6,4.3,2.4c0.1,0.4,0.2,0.8,0.3,1.1
		c-8.8,0.6-17.1,2.9-25.6,5.1c-1-1.6-2.1-3.2-3.1-4.9C190.9,683,190.8,674.5,191.6,665.9z"/>
	<path class="st3" d="M502,670.8c1.8-0.2,3.5-0.3,4.9,1.1C505.2,672.3,503.5,672.1,502,670.8z"/>
	<path class="st33" d="M162.5,251.3c-0.1-0.4-0.1-0.8-0.2-1.2c-0.8-2-0.3-3.9,0.7-5.6c5.4-9.4,9.9-19.4,15.1-29
		c0.7-1.2,1.6-2.3,2.8-3.1c0.8-0.4,1.7-0.6,2.6-0.5c0.9,0.2,1.7,0.6,2.3,1.3c3.4,8.2,2.4,17.1,3.4,25.7c2.2,19,10.6,34,25.8,45.4
		c14.9,11.1,30.4,21,48.3,26.8c28.6,9.3,55.9,5.9,82.1-8c5.2-2.8,10.2-6,16.3-6.5c18.3-6,36.6-4.3,53.1,4.5
		c27.2,14.6,56.4,16.4,85.3,12.9c27.5-3.3,51.2-17.9,70.4-38.5c5.2-5.6,8.4-12.6,10.8-19.8c2.4-8.2,2-16.6,2.2-24.9
		c0.1-4.1-0.4-8.5,3.6-11.5c7.3-0.2,8.1,5.8,10.3,10.5c5.7,18.5,0.6,36.2-3.9,53.9c-2,7.9-4.9,15.6-7.6,23.3
		c-5.5,14.5-14.8,26.3-25.7,37.1c-6.4,6.3-11.9,13.4-18.5,19.6c-20.2,19.1-44.4,31.4-69.6,42.1c-20.5,8.7-41.4,16-62.8,22.1
		c-9.2,2.6-18.7,4-28.2,5.2c-5.2,0.7-10.1-0.7-14.9-2.2c-27.4-8.5-54.1-19-80-31.5c-16.7-8.1-33.7-15.6-48.9-26.5
		c-0.7-0.4-1.3-0.9-1.9-1.4c-0.3-0.2-0.6-0.5-0.9-0.7c-0.6-0.4-1.2-0.9-1.7-1.4c-0.6-0.4-1.1-0.8-1.7-1.3c-0.6-0.4-1.1-0.8-1.7-1.2
		c-0.3-0.2-0.6-0.4-0.9-0.6c-0.6-0.4-1.2-0.8-1.7-1.2c-1.4-1.1-2.8-2.2-4.1-3.4c-0.5-0.4-1-0.9-1.5-1.4c-0.3-0.2-0.5-0.5-0.8-0.7
		c-0.5-0.4-1.1-0.9-1.6-1.3c-0.3-0.2-0.5-0.4-0.8-0.6c-0.6-0.4-1.2-0.8-1.7-1.3c-4.1-3.2-7.6-7.1-11.5-10.5
		c-0.6-0.5-1.2-1.1-1.7-1.7c-0.3-0.3-0.5-0.7-0.8-1c-21.8-20.9-34.4-46.6-39.8-76.1C161.4,261.8,160.8,256.6,162.5,251.3z"/>
	<path class="st34" d="M138.8,298.7c4.1-10,8.2-19.9,12.3-29.9c4.2-5.6,6.5-12.4,11.3-17.5c2.4,10.9,4,21.9,6.9,32.7
		c4.4,16.2,12.7,30.3,22.5,43.7c4,5.4,9.1,9.8,13,15.3c-16.2,3.7-23.3,16.7-29.9,29.8c-3.6,7-5.3,7.6-10.5,1.7
		c-10.4-11.8-15.9-25.8-17.7-41.2c-1.1-9.7-3.5-18.7-9.4-26.5C136.9,304,137.8,301.3,138.8,298.7z"/>
	<path class="st35" d="M102.4,458c-1.5-13.1,0.5-26,1.5-38.9c11.5-5.7,23.4-6.3,35.6-2.6c0.9,0.1,1.8,0.3,2.6,0.7
		c8.4,7.9,11.7,18.7,16.6,28.6c0,0.9-0.2,1.7-0.6,2.5c-5.9,4.1-12.2,7.3-18.6,10.6c-4.1,2.2-8.5,3.4-13.1,3.4
		C118.1,462.1,109.7,462.7,102.4,458z"/>
	<path class="st36" d="M102.4,458c8.4-1.4,16.5,1.9,24.9,1.7c3.9,3,4.8,7.5,5.4,11.9c1.3,9.4,3.4,18.7,5.7,28
		c2.7,11.1,1.8,12.3-9.4,13.9c-6.8,0.2-13.5,0.4-20.3,0.5c-4-9.7-3.6-20.1-5-30.2c-0.5-3.6-0.3-7.2-0.5-10.9c-1-2.1,0.1-4.4-0.9-6.5
		C102.3,463.6,102.3,460.8,102.4,458z"/>
	<path class="st37" d="M140.8,418.9c-12.3-3.5-24.6,0.4-37,0.2c0.7-12.7,3.5-25.1,5.4-37.6c0.3-1.9,1.3-3.7,3-4.8
		c0.3-0.2,0.5-0.4,0.8-0.6c0.3,0,0.6,0,1,0c0.6,0.2,1.2,0.5,1.7,0.8c0.3,0.2,0.5,0.4,0.8,0.6c0.5,0.4,1,0.8,1.4,1.3
		c0.2,0.2,0.5,0.4,0.7,0.7c0.5,0.4,1,0.9,1.4,1.3c0.3,0.2,0.5,0.4,0.7,0.6c0.5,0.4,1,0.8,1.5,1.3c0.3,0.2,0.5,0.5,0.8,0.7
		c3,2.1,6.3,3.6,9.2,5.7c1.3,1,2.6,2,3.4,3.5C138.1,401.2,143.4,409.3,140.8,418.9z"/>
	<path class="st38" d="M113.9,525.2c10.7,2.8,21.7,4.6,32,8.8c8.3,7.7,10.1,13.8,6.1,21.4c-10.6,3.1-21.3,3.4-31.9-0.2
		c-0.4-0.3-0.8-0.7-1.2-1c-3.6-7.9-5.3-16.5-7.5-24.8C110.7,526.8,111.6,525.7,113.9,525.2z"/>
	<path class="st39" d="M117.4,348.3c0.5-0.6,1-1.2,1.5-1.8c0,0,0-0.2,0-0.2c5.5-0.5,8.5,3.3,11.5,7c0.4,0.8,0.7,1.7,0.8,2.6
		c0.5,3.6,1,7.2,0.6,10.9c-1.4,12-3.6,15.2-11.4,16.9l0,0c-0.6-0.6-1.1-1.2-1.8-1.7l0.1,0.1c-0.5-0.7-1.1-1.3-1.8-1.8l0.1,0.1
		c-0.5-0.7-1.1-1.3-1.8-1.8l0.1,0.1c-0.5-0.7-1.1-1.3-1.8-1.8l0.1,0.1c-0.5-0.6-1.1-1.1-1.5-1.9l-0.1-0.1c-1.1-1.1-1-2.2-0.1-3.4
		C112.9,363.6,116,356.1,117.4,348.3z"/>
	<path class="st35" d="M102.3,466.4c1.5,2,1.2,4.2,0.9,6.5C101.7,470.9,102,468.7,102.3,466.4z"/>
	<path class="st40" d="M112,371.7c0,1.1,0.1,2.2,0.1,3.4C110.5,373.9,110.7,372.8,112,371.7z"/>
	<path class="st40" d="M112.2,375.1c0.5,0.6,1,1.2,1.5,1.9c-0.5,0-1-0.1-1.5-0.4C112.2,376.1,112.2,375.6,112.2,375.1z"/>
	<path class="st41" d="M595,230c10.8,13,20.4,26.9,30.5,40.3c0,0,0.7,0.2,0.7,0.2c0.4,0.2,0.7,0.6,0.9,1c0,0,0,0.7,0,0.7
		c3.2,6.6,7,12.9,11.8,18.6c0.1,0.6,0.3,1.1,0.4,1.7c0.4,0.6,0.8,1.2,1.4,1.6l0,0c0.6,0.6,1.2,1.2,1.5,2c0,0.5,0.1,0.9,0.2,1.4
		c0.6,0.6,1.1,1.2,1.5,2c0,0.5,0.1,0.9,0.3,1.4c0.6,0.6,1.1,1.2,1.4,2c1.6,5.8,5.8,10.5,7,16.5c-3.1,7.9-9.8,13-15.4,19
		c-8.6,7.6-17.6,14.9-25.5,23.2c-6.3,4.8-10.2,12.3-17.8,15.5c-6.6,0.7-12.2,3.5-16.6,8.5c-7.3,8.3-17.7,13.4-24,22.8
		c-0.4,0.7-0.8,1.4-1.4,2.1c-0.6,0.6-1.2,1.2-1.9,1.6c-0.7,0.5-1.5,0.8-2.3,1.1c-8.6,3.4-15.5,9.7-23.4,14.3c-4,2.4-8.6,6.4-13,0.3
		c-0.6-4.3,2-7.4,4.2-10.6c8.1-12.4,19.1-21.9,30.6-30.9c7.6-5.9,13.6-13.2,19.8-20.5c2.3-2.7,3.2-5.7,3.1-9.3
		c-0.2-6.1,1.2-12,4.9-16.6c7.6-9.6,8.9-20.8,9.4-32.3c0.9-7.3,4.1-13.9,6.2-20.8c4.2-14.2,7.3-28.6,7.5-43.5
		C596.9,238.6,595.2,234.4,595,230z"/>
	<path class="st42" d="M680.9,479.7c-11.5,7.7-23.3,14.8-37.4,17.2c-1,0.2-1.9,1-2.9,1.5c-1.7,3.8-5.5,4.6-8.9,5.6
		c-10,2.8-19.8,6.1-29.2,10.6c-3.2,1.6-6.7,3.1-10.5,1.4c-2.2-7.2,3.1-11.1,7-15.6c1.3-1,3.6-1.4,4-2.9
		c2.8-10.1,11.1-15.8,17.7-22.9c3.5-3.8,5-7.8,4.2-13c-0.8-4.8-0.8-9.5,2.8-13.5c14.9-8.8,30.8-15.4,46.5-22.5
		c1.8-0.8,3.8-1.1,5.6,0.2c1.1,1.7,1.1,3.7,1.2,5.6C681.7,447.5,682.9,463.6,680.9,479.7z"/>
	<path class="st43" d="M679.9,425.8c-17,7.9-34,15.8-51,23.7c-9.7,6.2-19.6,11.6-31.6,10.9c-2.3-2.5-0.6-4.8,0.6-6.8
		c2.9-4.8,4.8-10,7-15.1c5.1-9.9,6.8-21.1,11.9-31c1.6-3.2,2.9-6.6,4.8-9.7c0.4-0.7,1-1.4,1.7-1.9c6.2-3.3,13.2-4.8,19.4-8.1
		c9.9-4.9,20.2-9.1,28.8-16.5C676,389.3,679.4,407.3,679.9,425.8z"/>
	<path class="st44" d="M671.4,371.5c-0.1,3.6-1.4,6.1-5,7.7c-7.6,3.4-14.9,7.1-22.4,10.7c-0.7-0.6-1.1-1.3-1.1-2.1
		c-0.3-12.6-0.3-12.6-13-13.8c-1.3-0.1-1.9-1.1-2.4-2.1c0.9-12.3,1.2-24.6,8.2-35.5c6-5.3,9.7-12.9,16.8-17.2
		C660.8,336,666.6,353.6,671.4,371.5z"/>
	<path class="st45" d="M645.5,302.8c-0.5-0.7-1-1.3-1.4-2C644.6,301.5,645.1,302.2,645.5,302.8z"/>
	<path class="st45" d="M643.9,299.4c-0.5-0.7-1-1.3-1.5-2C642.9,298.1,643.4,298.8,643.9,299.4z"/>
	<path class="st45" d="M642.1,296.1c-0.5-0.7-1-1.4-1.5-2C641.2,294.7,641.7,295.4,642.1,296.1z"/>
	<path class="st45" d="M640.6,294c-0.5-0.5-0.9-1.1-1.4-1.6C639.7,292.9,640.2,293.5,640.6,294z"/>
	<path class="st46" d="M591.8,515.1c2.6-0.8,5.5-1.3,7.9-2.5c13-6.8,27.1-10.1,41-14.2c2.1,2,1.6,4.6,1.7,7.1
		c0.6,14.8,0,29.5-5,43.6c-1.1,1.1-2.3,2.2-3.4,3.3c-5.2,5-11.3,7.4-18.6,6.6c-7.4,1.1-13.6,5-19.8,8.7c-6.6,4-13.5,6.6-20.9,8.4
		c-4.6,1.2-9.1,2.6-13.3,5.1c-6.9,3.8-14.1,5.7-22,5.1c-1.4-4.1,1.8-6.1,3.9-8.6c15.3-17.9,29.1-36.9,42.1-56.5
		c0.6-0.9,0.7-2.1,1.2-3.1C587.8,516.1,589.3,514.9,591.8,515.1z"/>
	<path class="st47" d="M615.3,559c5.6-3.8,12.2-5,18.6-6.6c0.1,2-0.1,4-1.2,5.7c-4.8,7.5-9.7,15.1-14.6,22.6c-0.2,0.3-1,0.4-2.7,0.9
		C615.3,573.8,615.3,566.4,615.3,559z"/>
	<path class="st48" d="M192.8,618.2c-3.9-0.2-7.6,1.2-11.4,1.6c-6.5,0.8-13,2.5-19.7,1.9c-2.2-0.2-4.4,0.2-6.1,2
		c-11.1-14.7-21.1-30-27.1-47.7c2-2.5,4.8-2.8,7.6-2.4c13.3,1.9,26.6,3.8,38.4,11c1.6,1.5,3.6,1.2,5.5,1.6
		c23.1,5.5,46.5,9.3,69.9,13.4c4.4,0.8,8.8,1.7,12.9,3.5c1.1,0.5,1.9,1.3,1.6,2.6c-0.3,1.2-1.4,1.7-2.4,2.1
		c-6.3,2.2-12.7,4.8-19.4,5.1c-11.5,0.5-22.8,2.4-34.4,1.8C202.8,614.7,197.6,615.6,192.8,618.2z"/>
	<path class="st49" d="M174.5,584.7c-6.9,0.3-13.1-2.9-19.6-4.3c-8.7-1.9-17.4-4.3-26.4-4.3c-3.7-5.1-5.4-11.3-8.1-16.9
		c-0.9-0.9-0.4-2.5-1.5-3.3c0,0,0,0,0,0c0-0.6,0-1.2,0-1.7c11.2,0,22.5-0.1,33.7-0.1c0.8-0.4,1.4-0.3,1.8,0.5
		C159.2,565.7,167,575.1,174.5,584.7z"/>
	<path class="st38" d="M118.8,555.8c1.3,0.8,1.6,1.9,1.5,3.3C119.3,558.3,118.8,557.2,118.8,555.8z"/>
	<path class="st50" d="M607,439.4c-1.5,7.7-5.5,14.1-9.9,20.3c0.4,3.9-2.1,5.7-5,7.2c-10.4,6.3-22.1,9.6-33.5,13.6
		c-20.2,7.1-39.4,16.4-59,24.8c-2.1,0.9-4.1,1.8-5.9,3.2c-3.1,2.4-2.7,4.6,0.4,6.6c3,1.9,6.3,2.3,9.7,2.3
		c12.6,0.3,25.1,2.4,37.8,1.9c3.5-0.2,8.2-0.5,9.5,3.6c1.2,3.8-2.2,6.8-5,9c-11.2,8.7-24.1,14.2-37.1,19.5c-4.3,0-8.6,0.4-12.3,2.8
		c-0.4,0-0.8,0-1.2,0.1c-2.8,0-5.6,0-8.4-0.1c-1.1,0-3.1-0.1-3.2-0.5c-2.5-10.6-5.3-1.8-7.7-0.1c-6.2,4.5-17.2,5.1-23.7,0.3
		c-3.9-2.8-7.3-3.7-11.7-2.1c-1.3,0.5-2.9,0.8-4.1,0.3c-11.3-4.4-23.7-3.6-35.3-6.6c-3.7-1-7.8-1.4-9.4-6c-0.6-1.9-2.5-2.1-4.2-2.1
		c-6.7-0.1-13.2-2.2-20-1.9c-6.2,0.3-7-1-7.5-7.4c-0.6-8.8-0.6-8.7-9.8-9.4c-5.1-0.4-10-1.4-13.9-5.1
		c-36.8-7.3-73.6-14.8-109.6-25.6c-15.8-4.7-32.8-4.8-48.4-10.8c-3.8-0.6-6.1-3.5-8.7-5.9c-3.9-5.1-6.8-10.7-10.4-16
		c-1.5-2.2-3.4-4.5-1.9-7.6c0.1-0.5,0.1-1,0.1-1.6c2.7-4.9,7.9-4.7,12.3-6c7.4-2.2,15.6-1.1,23-5.1c-1.7-3.6-5-3.9-7.7-4.8
		c-9.4-2.9-19-4.7-28.7-6.1c-5.1-0.7-9.8-2-14.1-4.8c-0.5-0.1-1.1-0.2-1.6-0.3c-2.7-8.8-5.7-17.5-6.8-26.8c4.2-3.2,7.8,0.1,11.5,1.1
		c3.2,0.9,6,2.7,9.3,3.2c10.3,2.2,19.4,7.4,28.8,11.7c9.7,4.4,18.7,10.4,29.4,12.4c1.4,0.3,2.4,1.4,3.2,2.6c5,12,12.3,22,24.4,27.8
		c2.6,1.2,4.6,3.1,6.8,4.9c9.6,7.7,15.7,6.8,25.6-0.7c7.7-5.9,17.5-9.1,26.9-4.2c25.4,13.3,52.4,21.3,80.5,26.1
		c3.6,0.6,7.1,1.6,10.8,0.9c32.1-5.9,63.8-13.1,92.4-29.9c7.8-4.6,15.3-9.4,21.2-16.3c1.9-2.2,3.7-5.2,7.6-4.1
		c5.8,3.3,9.3-1.6,13.2-4.1c7.2-4.7,13.9-10.4,22.5-12.7c1,3.1-1.3,5.2-2.3,7.8c-0.7,1.8-1.9,3.8-0.3,5.5c1.6,1.7,3.7,0.8,5.5,0.1
		c8.3-3.4,16.5-7.1,25.1-9.7c3.7-1.2,7.4-2.9,11.5-1.4c4.9,3.2,9.4,6.9,14.5,9.8C608.4,426.4,609.6,432.5,607,439.4z"/>
	<path class="st51" d="M507.3,549.1c14.9-7.3,31.5-11.7,42.8-25.5c-2.2-2.4-4.7-1.6-6.7-1.4c-14.6,1-29.1-2.1-43.7-1.9
		c-1.1,0-2.4-0.1-3.3-0.6c-3.5-1.9-8.9-2.1-9.3-7.4c-0.4-5.7,4.6-7,8.7-8.8c28.5-12.7,57.2-24.8,86.7-34.9c3.2-1.1,5.6-3.9,9.2-3.8
		c2.9,5.2-1.2,8.7-3.1,12.8c-6.7,11-13.9,21.8-20.6,32.8c-1.3,2.1-3.4,4.6-2,6.9c1.7,3,5,1.3,7.7,1.2c4.8-0.2,9.7-3.7,14.5,0.1
		c-0.2,1.4,0.1,3.1-0.7,4.1c-9.9,13.2-18.1,27.7-29,40.2c-6.6,7.6-12.5,15.8-19.2,23.3c-3,2.6-6.7,1.2-10,1.7
		c-14.6,2.5-29.2,5-43.8,7.5c-0.5,0.1-1.1,0.5-1.6,0.5c-17.6,0.2-35.1,4-52.7,0.4c-1.7-0.4-3.5-0.7-4.1-2.4
		c-0.8-2.3,0.9-3.7,2.5-4.8c1.8-1.3,3.9-2.2,5.9-3.2c15.9-7.8,31.8-15.4,47.6-23.4c4.4-2.2,9.3-4,12.5-8.2c0,0,0,0,0,0
		C498.6,550.7,503.4,550.9,507.3,549.1z"/>
	<path class="st52" d="M177.7,475c25.9,5.6,52.3,9.3,77.7,17.3c20,6.3,40.4,11.2,61.4,13.3c6.9,0.7,14.4,2.2,19.8,7.9
		c-3.3,0.8-6.5,2.2-10.1,1.8c-1.7,1.5-3.6,2.8-5.9,3c-20.3,1.8-40.5,5.9-61.2,2.7c-10.5-1.7-21.3-0.6-31.9-2.2
		c-3.3-0.5-6.8-0.4-9.1-3.5c-1.4-1.7-3.3-1.6-5.2-1.7c-13.1-8.8-24.6-19.3-34.3-31.7C177.5,479.9,175.9,477.7,177.7,475z"/>
	<path class="st50" d="M218.5,515.2c15.9,1,31.8,1.9,47.7,3.1c11.7,0.9,23.6,1.7,35.2-1.3c8.3-2.1,16.7-1.7,25.1-1.7
		c-4.8,20.6-26.8,25.8-42.7,23c-9.3-1.6-17.7-1.6-24.8,5.8c-2.7,2.8-6.4,1.9-9.4,0.1c-3.4-2-6.6-4.3-9.7-6.7c-2-1.5-3.5-3.7-6.4-3.7
		c-5.7-4.1-10.1-9.5-15.1-14.4C217.2,518.2,216.8,516.7,218.5,515.2z"/>
	<path class="st53" d="M177.7,475c4.6,7.7,10.1,14.6,17.3,20.2c6.8,5.3,13.2,11.2,18.3,18.3c-7-0.1-13.9,0.1-20.9-1.1
		c-4.1-0.7-8.4-0.5-12.5,0c-10.9,1.5-21.7,1.6-32.6-0.1c-3.1-0.5-6.1-0.2-9.1,0.7c-3,0.9-6.1,0.7-9.2,0.4c8.9-3.2,9.2-3.3,6.4-12.7
		c-4-13.5-5.3-27.4-8.2-41.1c4.2-0.3,8-2,12-3.2c8.3,10.1,20.6,10.5,32,13.2C173.4,471.4,175.5,473.2,177.7,475z"/>
	<path class="st54" d="M154.4,554.4c-0.6-0.2-1.2-0.3-1.8-0.5c-0.4-7.3-4.4-13.4-6.7-20c13.5,3.8,27.6,5.1,40.9,9.8
		c1.1,0.4,2.2,0.4,3.3,0.8c1.3,0.5,2.6,1.3,2.8,2.8c0.3,2-0.9,3.3-2.6,3.9c-4.8,1.8-9.6,2.9-14.8,3
		C168.4,554.2,161.4,554.4,154.4,554.4z"/>
	<path class="st55" d="M316.4,78c8.2,0.6,16.1-1.6,24.1-2.6c6.1-0.7,12.2-1.2,18.3-1.1c4,4.2,4.6,9.6,5.2,14.8
		c1.2,11,5.1,22,1.5,33.3c-3.9,5.4-10.6,7-15.7,11c-6.9,5.3-10.1,11.7-10.1,20.2c0,4.5,0.3,9-1,13.4c-2.2,7.5-7.4,8.9-13.2,3.7
		c-3.2-2.9-5-6.7-6.4-10.8c-1.3-3.7-2.3-7.5-3.6-11.2c-3-8.4-8.7-11.8-17.8-12.4c-20.3-1.2-36.6,6.9-51.4,19.5
		c-2.3,1.9-3.9,4.3-4,7.2c-0.4,10.8-6.3,19.7-9.7,29.5c-3,8.5-10.5,11.2-17.5,6.4c-6.9-4.8-13-10.9-22.1-4.9c-0.8,0.5-2.1-0.5-3-1.2
		c5.8-17.3,15.1-32.9,23.7-48.7c3.2-5.9,7-11.4,10.6-17c2.2-1.9,4.4-3.8,4.6-6.9c1.8-2,2.2-4.4,2.2-7c0.2-19.9,6-39.2,7.1-59
		c0.1-1.1,0.8-2,1.6-2.9c3.8-2.2,5.7,0.9,7.6,3.1c4.7,5.2,9.3,10.5,12.8,16.7c5.7,10,15.7,15,24.8,20.9c3.6,2.3,7.1,0.2,10.3-1.4
		c5.5-2.8,10.5-6.5,16.3-8.6C313.9,81.3,315,79.5,316.4,78z"/>
	<path class="st56" d="M242.1,50.9c-2.7,4.1-2.7,9.1-3.1,13.6c-0.9,10.9-2.5,21.5-4.9,32.1c-1.1,5.1-0.4,10.6-0.5,15.9
		c0,3.5-0.2,6.9-4.7,7.5c-0.5-2.8-0.4-5.6,0-8.4c1.4-3.4-0.3-7.2,1.2-10.5c0.1-1.5,0.3-3.1,0.4-4.6c1.5-2.1-0.2-4.9,1.4-7
		c0.1-1.1,0.2-2.1,0.4-3.2c1.1-1.7,0.2-3.8,1.2-5.5c0.2-2.7,0.3-5.4,0.5-8c1.3-2.2-0.2-4.9,1.2-7.1c0.1-5.9,0.2-11.7,1.8-17.5
		c3-10.9,8.2-14,19.4-11.4c1.4,0.3,2.7,0.5,4.1,0.8c0.4-0.1,0.8-0.1,1.2-0.2c0.8-0.1,1.6-0.1,2.4,0.1c7.4,4.3,16.3,6.5,20.6,15
		c3.4,3.8,7.8,6.3,11.9,9.1c7.1,4.9,13.7,10.5,19.9,16.4c0.6,1.7,2.3,3.3,1,5.2c-1.3,1.9-2.8,0.2-4.2-0.3c-3.4,0-5.5-2.5-7.9-4.4
		c-13.2-10-26.1-20.4-40.3-29C253.6,42.5,252.2,42.9,242.1,50.9z"/>
	<path class="st55" d="M230.1,101.1c0.1,3.6,1.2,7.3-1.2,10.5C228.7,108.1,228.1,104.5,230.1,101.1z"/>
	<path class="st55" d="M231.9,89.5c0.1,2.4,0.6,5-1.4,7C230.3,94,230.2,91.6,231.9,89.5z"/>
	<path class="st55" d="M235.1,65.7c0.2,2.5,0.7,5-1.2,7.1c-0.1-2.2-0.1-4.3-0.2-6.5C234.2,66.1,234.7,65.9,235.1,65.7z"/>
	<path class="st55" d="M233.4,80.9c0.3,2,0.4,3.9-1.2,5.5C232,84.4,232.1,82.5,233.4,80.9z"/>
	<path class="st57" d="M190,192.8c2.3,0,4.3-0.7,6.2-2.2c6.8-5.4,6.8-5.2,12.8,0.2c2.3,2.1,4.8,3.8,7.3,5.7
		c5.5,4.1,12.3,2.4,13.6-4.3c2.1-10.7,10.6-19.4,9.3-31.1c-0.3-2.6,1.8-5.3,4-7.2c17.5-14.4,36.9-23,60.2-20.3
		c11.1,1.3,13.2,10,16.2,18.1c2.2,6,2.6,12.7,7.7,17.4c5.1,4.7,7.4,4.1,8.8-2.8c0.7-3.5,0.6-7.3,0.6-10.9
		c0.1-16.9,10.1-28.8,27-31.9c3.9,0.2,4.4,6.7,8.5,5.3c3.2-1.1,3.1-5.7,5.4-8.1c2.4-2.4,4.4-6.2,8.9-3.5c4.7,13.4,2.6,27.1,1.6,40.6
		c-0.9,11.5-0.5,22.9-0.8,34.4c-0.1,4.9,2.2,6.8,6.9,7.6c8.5,1.4,17.1,2.7,25.5,5.3c0.9,0.2,1.9,0.4,2.8,0.6
		c0.9,0.3,1.8,0.7,2.6,1.1c0.4,0.2,0.8,0.5,1.2,0.8c10.9,8.8,23.9,8,36.7,7.9c17.5,1.2,34.4,4.8,50.5,11.7
		c7.8,3.3,13.7,9.6,19.8,15.4c3.9,3.6,7.8,6.2,13.3,5.7c7.5-0.7,15.1-2.3,22.6-0.8c5.8,1.2,12.6,1.6,14.1,9.4
		c-1.6,10.9-7.9,19.3-15.6,26.2c-13.6,12.2-28.7,22.8-46.1,28.4c-10.3,3.4-20.7,7.9-32.4,6.3c-7.7-1.1-15.7,0-23.6-0.2
		c-13.6-0.3-26.7-2.5-38.9-8.9c-8.9-4.7-18.4-8.7-28.3-10.5c-12.1-2.2-24.3-3.2-36.4,0.9c-2.9-4.5,0.4-7.9,2.1-11.5
		c1.3-2.8,2.7-5.5,4.2-8.2c0.9-1.6,1.9-3,3.3-4.2c12.3-8.5,22.2-1.4,32.3,4.9c4.4,8,10,14.8,17.7,19.8c7.9,5.1,15.1,4.1,20.2-3.6
		c2.6-3.8,5.6-7.6,6.3-12.6c0.8-5.2,4.2-9.3,8.9-11.6c3.7-1.8,6.7-3.8,8-7.9c0.6-1.9,1.9-3.4,4.4-3.1c-3.3-0.8-7.4,1-10.2-2.3
		c-0.9-16.2-13-23.3-24.3-31.8c-22.4-16.8-47.3-21.2-74.1-16.3c-20.7,3.7-36.5,16.4-51.4,30.3c-5.3,4.9-4,12.7-7.9,18.2
		c-4.1,2.6-8.2-0.1-12.4,0.1c-3.4,0.2-6.6,0.5-8.7,1.3c3.8-1.9,8.8-1.3,14.3-0.9c-0.9,4.8-4.3,5.7-7.4,6.6
		c-12.2,3.6-24,8.1-35.9,12.4c-10.3,3.7-13.6,1.9-17-8.3c-1.6-4.6-2.7-9.5-0.8-14c2.5-6,0.4-12.3,1.9-18.3
		c8-10.6,19.7-15.1,31.8-18.3c8.6-2.2,17.4-3.7,26.4-2.8c2.3,0.2,4.4-0.6,6.5-1.1c6.7-0.5,13.6,2.1,20.1-1.3
		c6-0.7,11.3-3.1,16.1-6.6c2.2-1.8,1.8-3.7,0.3-5.7c-3.3-4.7-6.7-9.3-12-12c-0.7-0.4-1.3-0.8-1.9-1.2c-0.7-0.4-1.3-0.8-2-1.1
		c-5-2.8-10.1-5.3-15.6-6.9c-1.5-0.6-3.1-1.3-4.7-1.6c-4.4-0.8-9.4-2.2-13.1-0.2c-4.7,2.6,1.1,7.5-0.7,11.2
		c-1.1,5.1,2.8,10,0.3,15.1c-2,2.8-5.1,3.7-8.2,3.6c-18.6-0.5-37,1.3-55.3,4.5c-3.2-0.7-6.4-1.5-9.8,0.1c-9.8,4.7-19.6,2.6-29.2-0.9
		c-0.6,0-1.1,0-1.7,0c-0.5-0.4-0.7-0.9-0.6-1.4c0.1-0.5,0.2-0.7,0.4-0.7c-0.1-0.5,0-1,0.4-1.3c0.8-1,0.4-2.5,1.4-3.4
		c0.1-0.6,0.3-1.1,0.4-1.7c0.3-0.7,1-1.3,1.1-2.1c-0.1-0.5,0-0.9,0.4-1.2c0.8-1,0.5-2.5,1.4-3.5c0.2-0.6,0.3-1.1,0.5-1.7
		c0.3-0.7,0.9-1.3,1.1-2.1C189.5,193.5,189.6,193.1,190,192.8z"/>
	<path class="st58" d="M512.3,427.5c-1.9,0.8-2.7,2.7-4,4.2c-5.1,6-10.9,11-17.6,15.4c-23.6,15.1-49.7,23.1-76.6,29.2
		c-6.8,1.6-13.6,3.1-20.6,4.2c-4.9,0.8-9.3,0.6-14-0.7c-6.5-1.7-13.2-2.4-19.7-3.9c-19.2-4.5-38.3-9.7-55.1-20.1
		c-9.9-6.1-18.7-3.4-28.1-1c-2.5,0.7-3.3,3-3.9,5.1c-1,3.7-3.6,4.6-7,4.6c-8.4,0.1-16.3-0.9-21.9-8.3c-1.4-1.9-3.4-2.9-5.6-3.5
		c-4.6-1.1-8.1-4-10.9-7.5c-4.2-5.3-9.2-9.9-12-16.1c-0.8-1.7-2.1-3.5,0-5.3c5.1-4.5,11.2-2.3,17-2.5c3.3-0.1,6.6,1.1,12,0.9
		c-14-6.8-24.6-15.5-38.9-18.5c-16.7-3.5-29.8-15.2-43.6-24.9c-7.2-6.2-15.1-11.5-23.5-15.9c-3.8-2-7.3-4.2-9-8.3
		c-0.2-0.4-0.3-0.8-0.3-1.2c-1.5-3.1-2.4-6.3-1.6-9.8c2.9-12.5,4-25.5,11.9-36.3c8.5,4.1,9.2,12.6,9.8,20c1,11.7,4.5,22.4,9,33
		c2.7,6.3,9.1,9.9,10.7,16.6c3.4-0.7,3.5-3.3,3.5-4.8c0-6.4,3.9-10.2,8.1-14c2.9-2.7,5.3-5.7,7.5-9c6-9.1,6.3-9.1,17.2-6.4
		c0,0,0,0,0,0c0.5,0.6,1.2,1.1,1.7,1.7c3.9,3.4,7.9,6.8,11.8,10.1c0.5,0.6,1.1,1.1,1.7,1.7l0,0c0.6,0.6,1.1,1.1,1.7,1.7l0,0
		c0.5,0.6,1.2,1.1,1.7,1.7c1.7,1.1,3.4,2.3,5.1,3.4c0.5,0.6,1.1,1.1,1.7,1.7l0,0c0.5,0.6,1.2,1.1,1.7,1.7c0.6,0,1.1,0,1.7,0
		c0.5,0.6,1.1,1.1,1.7,1.7l0,0c0.5,0.6,1.2,1.1,1.7,1.7c16.9,10.7,34.8,19.5,52.8,28c25.1,11.9,51.1,21.7,77.5,30.5
		c9.1,3,17.7,1.5,26.4-0.2c21-4,41.2-10.8,61-18.6c13.8-5.5,27.7-10.8,40.9-17.8c14.4-7.6,28-16.1,40.3-27.2
		c13.4-12.1,25-25.6,36.6-39.2c4.5-5.2,7.2-11.9,10.7-17.9c3.2,9.8,2.8,19.2-3.4,27.9c-3.1,4.3-6.2,8.6-7.5,14
		c-0.5,2.2-1.5,4.5-0.8,6.6c1.9,5.4-1.2,8.4-4.1,12.4c-10.7,14.8-26.5,24-38.9,36.8C522.1,411.9,516.7,419.3,512.3,427.5z"/>
	<path class="st33" d="M380.1,420.7c-10.4,0.8-19.6-2.6-28.8-6.3c-8.8-3.6-17.5-7.4-26.9-9.4c-5.7-1.2-10.5-5-15.9-7.3
		c-9.5-3.9-18.5-9.3-27.6-14.2c-7.8-4.1-15.5-8.5-23.4-12.5c-3.5-1.8-5.5-3.6-3.9-7.8c1.1-3-0.7-7,2.8-9.3c4.3-2.8,8.9-4.8,14-5.5
		c2.4-0.3,3.7,1.2,3.7,3.5c0,1.7-0.3,3.4-0.8,4.9c-0.9,2.9,0.1,4.9,2.3,6.6c2.7,2.1,5.1,0.4,6.8-1.1c3.2-2.8,7.4-4.3,10.4-7
		c4.1-3.8,9.3-5,14-7.5c3.6-1.9,6.7-1,9.4,1.2c4.3,3.5,9.3,6.4,12.9,10.8c4.4,5.3,10.3,7.9,16.9,8.4c8.4,0.6,16.3,3.6,24.3,5.6
		c4.9,1.2,7.7,6,6.6,11.2c-1.7,7.4,0.8,14.9-1.2,22.3c-0.5,1.9,0.3,3.9,1.2,5.7c2.8,6,5.8,6.8,11.1,2.8c2-1.5,3.7-4.1,5.9-4.6
		c7.7-1.7,8.1-7.2,6.8-13c-1.6-7.5,1.8-11,8.3-12.9c5.4-1.5,10.4-4.1,15.7-5.8c5.1-1.6,8.9-5.9,8.4-12.3c-0.4-5.2,0.5-10,4-14.2
		c0.8-1,1.1-2.6,1.5-3.9c2-5.9,2.8-12.2-2.2-16.5c-4.7-4-10.9-3.3-16.5-1.4c-3,1-5.7,1.4-8.9,1c-5.6-0.6-10.8,2.3-16.3,3.3
		c-6.2,1.1-11.5,1.3-16.1-3.8c-2.7-3-6.3-3.5-10.7-2.8c-8.3,1.3-16.8,1.7-25.1-0.6c-1.3-0.3-3-0.5-3.1-2.3c0-2.1,1.7-3,3.4-2.9
		c7.5,0.5,13.4-3.3,19.5-6.9c3-1.8,6.9-2.4,10.4-3.2c2.5-0.6,5.1-1,7.1-2.5c5.1-3.9,10.4-3.1,16-1.4c12.8,3.9,26.3,6.8,38,13.2
		c9,4.9,17.1,5.8,26.2,3.2c2.3-0.6,3.8,0.4,5.2,1.9c3.3,3.4,7.4,6.2,9.1,10.9c1.4,3.8,5.5,4.8,7.5,7.7c2.3,3.5,5.2,6.5,7.1,10.3
		c3.1,6.4,9.5,6.6,12.8,0.4c1.4-2.5,2.2-5.9,5.2-5.9c3.8-0.1,8,0.5,11.5,2c4.2,1.8,4.8,8.1,1.3,11.5c-3,2.9-6.3,5.6-9.8,7.9
		c-9.3,6.3-19.1,11.4-29.5,15.6c-8.6,3.5-17.1,7.2-25.5,11.1c-5.4,2.5-11.1,3.9-16.4,6.1c-10.1,4.3-20.7,6.5-30.8,10.5
		C398.9,419,389.6,421.5,380.1,420.7z"/>
	<path class="st55" d="M370.3,280.3c-2.3,6.5-6.8,12-8.3,18.8c-5.2,1.2-9.9,3.5-14.5,6.3c-11,6.5-23.1,9.9-35.5,12.4
		c-19.5,3.9-37.9-0.1-56.5-6.5c-16.9-5.8-30.7-16.1-44.6-26.4c-15.1-11.2-22.9-26.9-24.7-45.9c-0.8-8.7-1.5-17.3-1.5-25.9
		c5.1-3.2,10.3,0.1,15.3,0.4c4.9,0.3,9.2,0,13.5-2.1c2.8-1.3,5.6-2.8,8.3,0c0.8,2.6-1.4,3.3-2.8,4.4c-5.7,4.8-6,7.7-2.2,14.1
		c4.7,8,11.6,10,20.2,8.5c1.5,6.9,1.9,13.4-1.1,20.4c-2.7,6.3,2,12.4,4.3,18.3c1.1,2.8,4.3,1.1,6.7,0.2c10.8-4,21.7-7.8,32.5-11.8
		c4.2-1.5,8.8-1.6,13.3-4.4c-7.5-2.6-14.4,2.9-22.6-0.2c11.1-1.2,20.9-3.9,31-2.4c3.4-0.7,5,2,6.9,3.8c4.2,4.1,8.6,7.9,13,11.8
		c5.5,5,11.6,8.7,19.3,8.7c2.5,0,5.1,0.4,6.7,2.8c-0.2,3.1-2.6,2.2-4.3,2.5c7.4-1.7,15-2.5,21.3-7.4
		C366.1,279.5,368.1,278.8,370.3,280.3z"/>
	<path class="st59" d="M583.3,257c-9.1-8.3-20-7.4-31-6.2c-2.2,0.2-4.3,1.6-6.2-0.6c-1-4.2,2.4-5.9,4.7-8.2
		c3.8-3.7,7.6-7.5,10.1-12.2c3-5.8,1.9-9.4-3.9-12.4c-4.6-2.3-9.6-3-14.7-3c-9.3,0-18.4-2-27.4-3.7c-5.3-1-9.6-3.6-10.9-9.2
		c-1.4-5.8,2.2-9.5,6.4-12.7c4.8-3.7,10.4-5.7,16.2-6.5c12.9-1.8,19.7-9.4,22.6-21.5c0.9-3.7,1.9-7.8,6.4-9.1
		c2.5,0.2,4.2,1.8,5.3,3.7c8.3,14.9,17.6,29.4,21.3,46.4c0.2,0.8,0.1,1.7-0.2,2.5c2.1,5.2,4.1,10.4,6.2,15.6
		c-2.5,2.9-1.4,6.3-1.5,9.6c-0.3,8.3,0.9,16.6-1.8,24.7C584.4,255.1,583.8,256,583.3,257z"/>
	<path class="st34" d="M237.1,370.1c-0.6-0.6-1.1-1.1-1.7-1.7C235.9,368.9,236.5,369.5,237.1,370.1z"/>
	<path class="st34" d="M235.4,368.4c-0.6-0.6-1.1-1.1-1.7-1.7C234.2,367.3,234.8,367.8,235.4,368.4z"/>
	<path class="st34" d="M232,366.7c-0.6-0.6-1.1-1.1-1.7-1.7C230.9,365.6,231.4,366.1,232,366.7z"/>
	<path class="st34" d="M230.3,365c-0.6-0.6-1.1-1.1-1.7-1.7C229.2,363.9,229.7,364.4,230.3,365z"/>
	<path class="st34" d="M223.5,359.9c-0.6-0.6-1.1-1.1-1.7-1.7C222.4,358.8,223,359.4,223.5,359.9z"/>
	<path class="st34" d="M221.8,358.2c-0.6-0.6-1.1-1.1-1.7-1.7C220.7,357.1,221.3,357.7,221.8,358.2z"/>
	<path class="st34" d="M220.2,356.6c-0.6-0.6-1.1-1.1-1.7-1.7C219,355.4,219.6,356,220.2,356.6z"/>
	<path class="st34" d="M206.7,344.7c-0.6-0.6-1.1-1.1-1.7-1.7C205.5,343.6,206.1,344.2,206.7,344.7z"/>
	<path class="st55" d="M182.9,210.9c0.1,0.7,0.1,1.4,0.2,2.1c-0.4,0-0.8,0.1-1.3,0.1C181.7,212.2,182.1,211.5,182.9,210.9z"/>
	<path class="st55" d="M188,197.7c0,1.4-0.3,2.6-1.4,3.5C186.5,199.8,187,198.6,188,197.7z"/>
	<path class="st55" d="M184.7,206.2c0,1.3-0.3,2.5-1.4,3.4C183.2,208.2,183.7,207.1,184.7,206.2z"/>
	<path class="st55" d="M186.2,202.4c-0.4,0.7-0.7,1.4-1.1,2.1C185.5,203.8,185.9,203.1,186.2,202.4z"/>
	<path class="st55" d="M189.6,194c-0.4,0.7-0.7,1.4-1.1,2.1C188.5,195.1,188.8,194.4,189.6,194z"/>
	<path class="st60" d="M139.1,307.6c-0.9,8.3-4,16.1-6.2,24.1c-2,7.2-3.2,14.6-4.1,22c-3.3-2.5-6.5-4.9-9.8-7.4
		c4.9-16.5,9.7-33.1,19.8-47.5C138.9,301.7,139,304.6,139.1,307.6z"/>
	<path class="st61" d="M142.4,419.2c17,1.7,33.8,4.5,50,10c2.7,0.9,5.7,1.7,5.5,5.3c-0.2,4.2-3.4,4.4-6.5,4.9
		c-11.3,2-22.7,3.2-33.7,6.6C150.5,438.3,147.7,428,142.4,419.2z"/>
	<path class="st36" d="M171.2,469.6c-0.5,2.8-2.2,3.8-4.8,2.7c-6.6-2.9-13.6-4.3-20.5-6.2c-4.9-1.4-7.7-4.2-6.8-9.7
		c6.1-3.1,11-8.6,18.4-8.8C162.5,454.8,167.3,461.9,171.2,469.6z"/>
	<path class="st62" d="M129.1,354.8c11.4,7,24,12.3,33.6,22c-1.5,7.8-2.1,15.9-8.4,21.9c-5.2,0.1-9.3-3.3-14.1-4.6
		c-2.1-0.6-3.9-2.1-6.3-2c-1.3-0.2-2.5-0.6-3.3-1.7c-0.2-2.3-1.4-4.5-1.1-6.9c0.1-2-0.7-3.9-0.7-5.9c0.8-3.7,1.8-7.3,0.1-11
		C129.1,362.6,129.1,358.7,129.1,354.8z"/>
	<path class="st40" d="M132.3,383.7c-0.2,2.3,0.7,4.9-1.6,6.7c-3.6-2-7.9-2.8-10.2-6.8c5.9-4.1,9.1-9.6,8.5-17c2.7,3.7,1,8.1,1.9,12
		C132.1,380.1,130.9,382.2,132.3,383.7z"/>
	<path class="st40" d="M117,380.2c0.6,0.6,1.2,1.2,1.8,1.8C118.2,381.4,117.6,380.8,117,380.2z"/>
	<path class="st40" d="M115.3,378.5c0.6,0.6,1.2,1.2,1.8,1.8C116.5,379.7,115.9,379.1,115.3,378.5z"/>
	<path class="st40" d="M113.6,376.9c0.6,0.6,1.2,1.2,1.8,1.8C114.8,378,114.2,377.5,113.6,376.9z"/>
	<path class="st40" d="M118.7,381.9c0.6,0.6,1.2,1.1,1.8,1.7C119.9,383,119.3,382.5,118.7,381.9z"/>
	<path class="st63" d="M586.6,414c-10.9,2.9-21.4,6.8-31.6,11.5c-2,0.9-4.1,1.8-6.3,2.4c-5.8,1.7-8.6-0.8-7.5-6.7
		c0.8-4.5,4.5-7,6.8-10.5c0.5,0,1-0.1,1.5-0.2c0.6-0.5,1.1-1.1,1.7-1.6l0,0c1.7-4.6,6.2-6.3,9.4-9.3c6.3-5.9,13.4-11,19.8-16.9
		c3.7-3.4,8.4-5.5,13-7.5c6.5-4.2,10.5-11,16.8-15.4c3.8,12.9,12.9,24.3,11.2,38.8C611,406.5,599.6,412,586.6,414z"/>
	<path class="st64" d="M620.3,398.7c-1.6-6.4-3.3-12.8-4.9-19.3c-0.4-1.6-0.3-3.7-1.8-4.5c-6.4-3.2-5.1-8.3-3.6-13.6
		c0.1-0.5,0-1.1,0-1.7c7.5-8.9,16.8-15.8,25.6-23.2c-2.2,12.3-4.5,24.6-6.7,36.9c1.9,8.7,1.5,16.8-5.1,23.6
		c-0.1,0.6-0.2,1.3-0.4,1.9C622.4,399.7,621.3,399.8,620.3,398.7z"/>
	<path class="st50" d="M593.3,375.1c-4.1,5.4-10.3,8.3-15.4,12.6c-8.7,7.4-17.8,14.1-26.8,21.2c-0.1-2.6,0.5-4.7,2.8-6.5
		c8.3-6.5,16.3-13.2,23.7-20.8C581.8,377.4,587,374.8,593.3,375.1z"/>
	<path class="st50" d="M551.1,408.9c-0.6,0.5-1.1,1.1-1.7,1.6C550,410,550.6,409.4,551.1,408.9z"/>
	<path class="st45" d="M625.6,270.4c0.5,0.6,1,1.2,1.5,1.8C626.6,271.6,626.1,271,625.6,270.4z"/>
	<path class="st65" d="M586.5,476.4c1.6-3.9,4.5-7.3,5.2-11.7c1.8-1.7,3.6-3.3,5.3-5c8.2-2,15.8-5.4,23.7-8.1c2.6-0.9,5.1-2.4,8-2.1
		c-2.3,4.2-2.4,8.7-0.9,13c1.7,5-0.1,8.8-3.3,12.2c-4,4.3-8.3,8.3-12.4,12.5c-2.6,2.6-5.1,5-5.6,9c-0.4,3.3-3,5.2-6.4,5.6
		c-0.6-9-4-16.3-12.2-21C586.5,480,585.7,478.3,586.5,476.4z"/>
	<path class="st66" d="M586.5,476.4c1.2,2.4,3.4,3.6,5.7,4.5c5.1,2,6.6,7.2,10,10.7c1,1.1,0.6,2.6,0,3.9c-0.9,2-2.2,3.9-2.2,6.2
		c-2.8,4.5-5.6,8.9-8.3,13.4c-1.2,1.2-2.4,2.3-3.5,3.5c-5.5,1.1-10.9,2.4-16.5,3.1c-3.2,0.4-7.2,1.7-9.5-1.4
		c-2.4-3.2,0.5-6.5,2.1-9.3c4.1-7,8.5-13.9,12.9-20.7C580.2,485.7,583.4,481.1,586.5,476.4z"/>
	<path class="st67" d="M620.3,398.7c1.1,0.1,2.1,0.1,3.1,0.2c-4.6,10.6-9.2,21.3-12.5,32.4c-0.9,2.9-1.5,6-4,8.1
		c0-3.1-0.7-6.1-1.7-9c-1.1-3.2-2.8-5.6-6.1-6.2c-6.1-1.2-9.4-5.5-12.6-10.2c8-4.8,16.7-8.4,25.3-12
		C614.6,400.8,617.5,399.8,620.3,398.7z"/>
	<path class="st68" d="M623.8,397c2.4-7.7,2.1-16,5.1-23.6c6.2-3.9,8.9-4,13.3-0.5c4.1,3.2,5,8,2.6,14c-0.4,1-0.6,2.1-1,3.1
		C637.7,393.6,631.1,396.1,623.8,397z"/>
	<path class="st69" d="M154.3,398.7c1.9-6.8,3.7-13.5,5.7-20.3c0.3-1.2,1.6-1.3,2.7-1.6c11.2,6.8,21.3,15.4,33.4,20.9
		c4.9,2.2,9.6,4.6,15,5c7.6,0.6,13.9,4,19.6,8.8c3.9,3.3,8.6,5.3,13.3,7.2c2.4,0.9,5.8,1.7,5.2,4.5c-0.7,3.6-4.7,2.7-7.1,2.3
		c-8.9-1.6-17.9-1.5-26.8-1.6c-6.1-2.6-13-2.4-19-5.9C182.9,410.3,168.8,404,154.3,398.7z"/>
	<path class="st27" d="M507.3,549.1c-3.2,3.3-7.7,3.8-11.8,5.1C497.8,548.8,502.5,548.8,507.3,549.1z"/>
	<path class="st70" d="M399,72.3c5.8,0.4,11.5,0.8,17.3,1.2c6.4-0.6,8.6,2.3,7.1,8.5c-3.3,14.2-7.2,28.4-11.3,42.4
		c-1.6,5.3-4.5,10.1-11.1,9.7c-6.4-0.4-7.8-5.6-9.1-10.6c-0.4-1.6-0.8-3.3-1-5c-0.9-7-3.7-5.2-7-1.7c-3,3.6-6.8,6.6-7.4,11.8
		c-0.3,2.4-1.6,4.9-4.7,5.1c-3.3,0.2-5-2.1-6.2-4.8c-0.8-1.8-1.4-3.6-2.1-5.5c0.4-13.5-1.3-26.8-4-40c-0.6-3.1-1.1-6.1-0.9-9.1
		c9.1-2.2,18.4-1.4,27.6-1.8C390.6,72.4,394.8,72.4,399,72.3z"/>
	<path class="st71" d="M242.1,50.9c3.4-9.8,8-11.8,17-7.6c13.1,6.1,24.1,15.4,35.5,23.9c6.5,4.8,13.8,8.7,18.5,15.7
		c-6.7,4.6-13.7,8.6-21,12.2c-3.3,1.6-6.2,1.7-9.3-0.7c-4.4-3.5-9.1-6.4-13.7-9.7c-4.6-3.3-8.7-7-11.2-12.2
		C254,64.3,246.5,58.8,242.1,50.9z"/>
	<path class="st72" d="M260.5,37.6c0.6,0.4,1.3,0.8,1.9,1.3C261.4,38.9,260.8,38.5,260.5,37.6z"/>
	<path class="st73" d="M384,116.8c-0.1-2.5,0-5,1.2-7.4c1.7-3.1,4.8-3.4,6.4-0.3c1.2,2.4,1.8,5.3,2.4,8c0.7,3.3,1.2,6.6,1.8,9.9
		c0.5,2.8,1.9,4.6,4.9,4.9c2.7,0.2,5.1-0.4,6.5-2.9c1.1-1.9,2-4,2.6-6.2c3.8-14,7.4-28.1,11.3-42.1c1.3-4.5-0.3-6.7-4.7-7.3
		c9.6-0.9,18.9,1.3,28.3,3c3.1,2.8,4.4-0.6,6.1-2c12.5-10.3,24.9-20.9,39.1-28.9c4.4-2.5,8.8-5.1,13.7-6.3c4.9-1.2,9.6-1.2,11.9,4.7
		c0.6,3-0.3,5.7-2.1,7.9c-9.6,11.7-16,25.7-26.9,36.5c-6.5,6.5-5.8,8.3,2.6,11.4c10.8,3.9,11,3.9,18.6-4.7c3.1-3.6,6.4-7,10.1-10.1
		c2.6-2.2,5.3-4.6,8.9-1.8c3.5,6.8,3.2,14.3,4.2,21.6c0.3,2.5-1.5,6.2,2.8,7.4c0.2,2.7,0.5,5.5,0.7,8.2c0.4,0.6,0.9,1.2,1.4,1.7l0,0
		c0.6,0.5,1.1,1.1,1.7,1.7l0,0c0.6,0.5,1.2,1.1,1.6,1.8l0,0c0.8,0.5,1.3,1.2,1.6,2.1c0.1,0.5,0.3,1,0.7,1.3c0.2,0.6,0.7,1.1,1.2,1.4
		l0.1,0.2c0.4,0.7,1,1.3,1.3,2c0,0.6,0.3,1.1,0.7,1.5c0.2,0.6,0.6,1.1,1.2,1.4c3.3,5.7,6.5,11.5,9.8,17.2c-2.8,3-3.6,7-4.5,10.7
		c-2.9,13-9.5,19-22.3,21.5c-7.3,1.4-14.9,3.1-20.3,9.2c-5,5.6-3.2,12.8,4.3,13.8c9.7,1.4,19.1,4.4,29.1,3.8
		c5.2-0.4,10.1,0.8,14.9,2.4c9.6,3.1,11.7,9.8,6.3,18.3c-3.6,5.8-8.1,10.7-13.7,14.6c-1.4,1-2.7,1.9-3.5,3.5c-4.3,2.6-8,2-11.2-1.8
		c-4.9-5.9-11.6-9.8-16.9-15.2c-2.1-2.1-4.6-3-7.3-4c-11.6-4.3-23.4-7.7-35.7-9.3c-3.9-0.5-7.7-1.3-11.6-1.9c-0.7-2,0.5-3.3,1.8-4.1
		c10.5-6.2,12-16.5,12.5-27.3c-0.3-2.4,3.2-5.5-1.4-7c-2.5-0.9-5-1.4-7.6-1c-1.1,0.2-2.2,0.2-3.3,0.2c-1.8-0.3-3.6,0.1-5.3,0.8
		c-1.8,0.4-3.5,1-5.1,1.9c-4.1,1.7-8.4,3.2-12.3,5.3c-4.7,3.3-9.3,6.6-13.1,10.9c-2.8,3.5-5,7.4-8.4,10.5c-7.6,0-14.8-2.7-22.2-3.9
		c-3.6-0.6-7.2-1.1-10.8-1.2c-2.7-0.1-4.2-1.5-4.1-4.2c0.2-13.1-0.9-26.3,0.7-39.4c1.6-13.4,0.8-26.8,0.5-40.2
		C385.3,118.2,384.4,117.5,384,116.8z"/>
	<path class="st74" d="M346.8,285.7c-7.5,0-15.3,1.1-21.5-4.3c-8.4-7.2-17.4-13.7-24-22.8c-1.4-11.6,4.2-19.4,13-26.3
		c8-6.3,16.5-11.5,25-17c8.2-5.3,17.5-7.7,27-8.6c24.7-2.3,48.1,0.8,68.3,17c3.9,3.1,8.6,5.4,12.5,8.4c8.6,6.7,16.4,13.9,12.9,26.6
		c1,1.6,0.6,3.2-0.1,4.8c-7.2,15.6-28.9,26.9-45.9,24c-1.2-0.3-2.2-0.9-3.4-1.2c-0.7-0.2-1.5-0.5-2.2-0.9c-1-0.5-2-1.1-2.9-1.8
		c-0.6-0.5-1.1-1.1-1.5-1.7c-5.6-5.2-13.1-7.2-19-12c-2.5-2-4.6-0.7-6.8,0.9c-4,3-8.1,5.8-12.2,8.9
		C360.2,283.3,354.9,288.6,346.8,285.7z"/>
	<path class="st75" d="M237.1,238.4c-1.9,1.1-3.8,2.3-5.8,3.3c-3.4,1.8-6.3,1.2-8.9-1.8c-3.8-4.4-8.8-7.7-10.6-13.7
		c-1.9-6.3-0.9-9.2,4.9-12.2c1.7-0.9,3.9-0.9,5.1-2.6c6.3,0.3,12-2.3,18-3.5c12.5-2.4,25-1.3,37.6-1.6c3-0.1,6.2,0.8,8.7-1.8
		c6.1,3.3,12,6.9,15.2,13.5c-3.3,2.1-7,1.9-10.6,1.8c-7.3-0.2-14.5,1.4-21.6,2.7C257,224.7,246.9,231.3,237.1,238.4z"/>
	<path class="st76" d="M412.2,284.3c11.4,3.6,21.6,1,30.5-6.4c6.7-5.5,12.9-11.6,17.2-19.3c5.2-0.6,9.8,1.6,15.6,2.2
		c-3,2.3-8-0.7-8.7,5.2c-0.4,3.5-1.1,9.8-8.1,7.3c-3.7,3.4-8,6.5-8.6,11.9c-0.3,2.8,0.1,5.2-3,6.9c-1.2,0.6-1.9,2.8-2.1,4.4
		c-0.4,3.8-1,6.8-6,5.2c-1.6-0.5-2.3,1.1-2.7,2.5c-1,4-3.8,3.5-6.6,2.5c-12.7-4.2-21.9-12.2-27.1-24.6c1.2-0.9,2.3-0.9,3.4,0.1
		l-0.1-0.1c0.9,1.1,2.5,0.8,3.5,1.8l-0.2-0.1C410.1,284.8,411.1,284.9,412.2,284.3z"/>
	<path class="st77" d="M306.4,179c6.1,1.3,11.6,3.8,16.6,7.4c0.7,0.3,1.3,0.8,1.8,1.3l0,0c0.6,0.6,0.8,1.2,0.7,2
		c-1.7,3.8-1.5,8.1-3.3,11.8c-0.3,0.7-0.7,1.4-1.1,2c-0.4,0.7-0.9,1.2-1.4,1.8c-0.3,0.3-0.5,0.6-0.8,0.9c-0.5,0.6-1.1,1.1-1.7,1.6
		c-0.3,0.3-0.7,0.5-1,0.7c-0.7,0.5-1.4,0.8-2.2,1.2c-0.8,0.3-1.7,0.5-2.5,0.5c-2.7,0.1-5.4,0.3-8-0.4c-9.2-3.9-11.2-11.2-9.7-20.2
		C295.8,183.5,298.2,177.8,306.4,179z"/>
	<path class="st78" d="M306.4,179c-5.9,1-7.9,5.9-10.3,10.3c-2.2,2.5-5.1,3.6-8.3,4.1c-2.9,0-2.4-2.7-3.3-4.3
		c-0.3-3.9-0.8-7.8-5.6-11.2C289.2,175,297.8,174.6,306.4,179z"/>
	<path class="st79" d="M479.8,186.2c0.8,13.8-3.4,25-16.4,31.7c-10.7,0.9-21.3,1.1-31.3-3.5c-2.7-1.2-5.9-2-7.6-4.9
		c1.3-2.7,2.6-5.4,5.2-7.2c0.8-0.1,1.5,0.1,2.2,0.5c4.5,7.9,11.4,10.9,20.2,10.7c9.6-0.3,15.6-4.5,18.9-13.5
		c1.1-3.1,1.8-6.5,3.5-9.4C475.9,188.7,476.6,186,479.8,186.2z"/>
	<path class="st80" d="M406,282.3c-1.1,0-2.3-0.1-3.4-0.1c-3.4-2.9-7.6-4.3-11.6-6.1c-6.5-2.9-12.7-3-18.7,1.3
		c-2.2,0-4.1,5.4-6.5,0.2c4.4-3.9,8.8-7.8,13.2-11.7c1.4-1.3,3-3.3,4.9-1.2C390.4,271.6,399.1,275.8,406,282.3z"/>
	<path class="st81" d="M284.5,189.2c1,1.4,2,2.8,3,4.3c3.1,0.8,4.4,3.3,5.3,5.9c3.6,9.9,10.6,14.4,20.9,14.3c2.2,0,4.4,0.2,6.5,1.2
		c0.7,0.5,1.2,1.1,1.5,1.9c-6.6,3.4-13.6,2.1-20.5,1.2c-6.3-3.2-11.5-7.5-15.2-13.5C285.6,199.4,283.2,194.5,284.5,189.2z"/>
	<path class="st82" d="M365.7,277.5c2.2,2.2,4.3-0.8,6.5-0.2c-0.6,1-1.3,2-1.9,3c-3.7,0.8-5.8,4.1-9,5.7c-7.3,3.4-14.8,3.5-23.9,2.7
		c3.7-2.2,7.3-0.4,9.4-3C353.9,284.7,359.6,280.5,365.7,277.5z"/>
	<path class="st83" d="M325.1,190c-0.1-0.8-0.1-1.6-0.2-2.3c6.9,3.4,11.3,9.5,16.1,15.1c3.5,4.2,0.9,5.5-2.6,6.8
		c-2.6,1.8-3.9,0.1-5.1-1.8C333.2,200.7,326.6,196.5,325.1,190z"/>
	<path class="st84" d="M429.6,203c0.4,3.8-0.4,6.7-5.1,6.6c0,0,0,0,0,0c-0.5-0.5-1-0.8-1.7-1c-0.5-0.2-1.1-0.4-1.6-0.6
		c-1-5.9,3.9-8.4,6.8-12C432.5,197.4,431.3,200.1,429.6,203z"/>
	<path class="st81" d="M335,206.1c0.1,2.2,1.1,3.5,3.4,3.6c-5,3.6-10.2,6.6-16.5,7.2c0,0-0.4-0.4-0.4-0.4c-0.8-2.5,1.1-3.5,2.5-4.9
		C327.7,209.7,330,205.1,335,206.1z"/>
	<path class="st79" d="M422.9,208.6c0.8-0.1,1.4,0.2,1.7,1C423.7,209.8,423.1,209.5,422.9,208.6z"/>
	<path class="st83" d="M324.9,187.7c-1,0.1-1.6-0.4-1.8-1.3C324.1,186.2,324.6,186.7,324.9,187.7z"/>
	<path class="st69" d="M132.3,383.7c-1.6-1.4-1.6-3.2-1.4-5.1C132.5,380,132.4,381.8,132.3,383.7z"/>
	<path class="st85" d="M514.1,44.2c-2.6-4.4-6.4-3.7-10.4-2.5c-9.6,2.8-17.6,8.6-25.7,14.1c-10.4,7.2-19.8,15.5-29.2,23.9
		c-0.4,0.4-0.8,0.8-1.2,1.2c-1.1,0.8-2.2,2.2-3.6,0.9c-1.3-1.1-0.7-2.5-0.1-3.9c0.2-0.5,0.5-1,0.7-1.5c3.8-2,6.4-5.4,9.5-8.1
		c14.1-12.4,29.7-22.7,46.4-31.3c0.6-0.4,1.3-0.7,1.9-1.1c0,0,0.1,0.1,0.1,0.1c1.7-0.1,3.3-0.3,5-0.3c9.7-0.3,14.9,3.5,17.9,12.8
		c0.7,2.1,0.3,4.5,1.9,6.3c0.2,1.6,0.3,3.1,0.5,4.7c1.3,2.2-0.2,4.8,1.3,7c-0.3,7.3,1.3,14.5,2.4,21.6c0.9,6.1,1.6,12.2,1.4,18.3
		c0.5,1.1,0.5,2.3,0.9,3.5c0,0.7,0,1.4,0.1,2.2c-1.7,1.2-0.4,3.9-3.3,5.4c-1.6-11.6-3.2-22.9-4.7-34.3c-2.6-2.6-2.7-6-3.3-9.3
		C520.6,63.7,519.9,53.2,514.1,44.2z"/>
	<path class="st86" d="M502.4,35.9c-0.3,0.9-1,1.2-1.9,1.1C501.1,36.7,501.8,36.3,502.4,35.9z"/>
	<path class="st73" d="M533.7,109.8c-1-1-1.1-2.2-0.9-3.5c0.5,0.7,1,1.4,1.5,2.1C534.2,108.9,534,109.3,533.7,109.8z"/>
	<path class="st87" d="M544.2,132.3c-0.4-0.7-0.9-1.3-1.3-2C543.3,130.9,543.8,131.6,544.2,132.3z"/>
	<path class="st88" d="M514.1,44.2c4.7,0.6,6.4,4,7.2,8c2.2,10.2,5.3,20.3,4.4,31c-8.2,2.8-12.2,10.3-17.9,15.9
		c-1.6,1.6-2.7,3.5-4.2,5.2c-1.1,1.3-2.6,2.3-4.4,1.6c-6.4-2.2-12.9-3.8-19-6.9c-2.4-1.2-3.5-2.7-1.5-5.2c1.6-2,2.8-4.3,4.6-6
		c7-6.6,12.5-14.3,17.4-22.5c2.7-4.5,5.5-9.2,9.4-12.9C512.2,50.1,513.6,47.3,514.1,44.2z"/>
	<path class="st89" d="M441.4,184.9c4.3-2.5,8.5-5.1,13.5-5.8c6.8-1.2,10.6,2.1,12.9,8.1c0.2,0.8,0.4,1.6,0.5,2.5
		c0.1,1.3,0.3,2.6,0.5,3.9c0.1,12.6-6.2,18.9-16.9,16.9c-5.9-1.1-9.3-4.8-10.9-10.4C440.8,195.1,439.1,189.9,441.4,184.9z"/>
	<path class="st90" d="M466.6,189.3c-2.2-5.4-5.7-9.2-11.7-10.2c1.3-1.6,3.1-1.5,4.8-1.7c1.7-1.2,3.9-0.2,5.7-1.3c0.9,0,1.8,0,2.6,0
		c3,1.4,6.4-0.1,9.4,1.2c2.3,0.3,4.8-0.1,7.2,1.4c-1,3.1-4.6,4.3-4.8,7.5c-1.5,1.7-1,4.6-3.5,5.7
		C472.6,192.9,469.1,192.8,466.6,189.3z"/>
	<path class="st91" d="M441.4,184.9c2.6,4.7,0.8,9.8,1.6,14.6c-1.8,0.1-3.3-4-5.5,0c-1.1,2-3.5,3.6-6.3,3.7c-0.5-0.1-1-0.2-1.5-0.3
		c-0.6-2.3,0.6-5.1-1.6-7.1C431.5,191.1,436,187.3,441.4,184.9z"/>
	<path class="st92" d="M477.4,177.3c-3.2,0.3-6.4,0.6-9.4-1.2C471.3,175.6,474.5,175.6,477.4,177.3z"/>
	<path class="st92" d="M465.4,176.1c-1.7,1.4-3.6,1.6-5.7,1.3C461.4,176.2,463.3,175.6,465.4,176.1z"/>
	<path class="st93" d="M370.7,232.9c-3,0.1-5-1.1-5.2-4.2c-0.1-2.7,2.3-3.5,4.3-4.5c8.6-4.5,17.1-4.2,25.5,0.4
		c1.9,1.1,4.4,1.9,4.1,4.6c-0.2,2.3-2.6,2.7-4.3,3.5c-0.7,0.4-1.6,0.4-2.4,0.6c-1.4-0.3-2.7,0-4,0.3
		C382.6,234.9,376.6,235.6,370.7,232.9z"/>
	<path class="st94" d="M370.7,232.9c0.6-2.8,2.1-4.2,4.5-1.7c1.7,1.8,2.6,3.9,4.2-0.1c1-2.6,2.9-3.5,4.6-0.3
		c1.1,2.1,2.1,1.9,3.8,0.5c2.9-2.5,4.4-0.9,5.1,2.2c-4.6,4.1-6,10.5-10.8,14.9C377,243.7,376.9,236.1,370.7,232.9z"/>
	<path class="st80" d="M412.2,284.3c-1.2,1.4-2.1,0.6-3-0.4C410.2,284,411.2,284.1,412.2,284.3z"/>
	<path class="st80" d="M409.4,284c-1.4-0.2-2.7-0.4-3.5-1.8C407.3,282.2,408.7,282.4,409.4,284z"/>
	<path class="st95" d="M325,213.3c-1.2,1-2.4,2.1-3.6,3.1c-3.6,0-7.3,0.3-10.9,0.1c-8.9-0.5-15.3-4.7-18.9-12.9
		c-1.5-3.3-2.7-6.7-4.1-10.1c0.9-5.5,5.3-3.6,8.6-4.1c0.2,1.4,0.7,2.8,0.4,4.1c-1.4,7.2,2,11.7,8,14.8c2.9,0.7,5.8,1.1,8.6-0.2
		c0.3-0.2,0.6-0.4,1-0.3c1-0.2,1.7-0.8,2.2-1.6l-0.1,0c0.7-0.4,1.3-1,1.8-1.7l0,0c0.6-0.5,1.3-1,1.6-1.8l0,0
		C325.4,204.2,323,209.8,325,213.3z"/>
	<path class="st96" d="M325,213.3c-3.5-1-5.2-3.2-4.4-6.9c0.3-1.5,0.2-2.7-1-3.7c0.9-3.4,2.3-6.7,2.1-10.4c-0.1-2.2,1.4-2.7,3.3-2.2
		c4.9,4.4,11.1,7.9,9.9,16.1C331.3,207.9,329.4,212.4,325,213.3z"/>
	<path class="st96" d="M313.1,208.1c-2.8,2.3-5.7,2.3-8.6,0.2C307.4,208.2,310.3,208.1,313.1,208.1z"/>
	<path class="st96" d="M316.3,206.2c-0.5,0.9-1.2,1.4-2.2,1.6C314.6,206.8,315.3,206.3,316.3,206.2z"/>
	<path class="st96" d="M318.1,204.5c-0.6,0.6-1.2,1.1-1.8,1.7C316.6,205.3,317.1,204.7,318.1,204.5z"/>
	<path class="st96" d="M319.7,202.7c-0.2,0.9-0.8,1.5-1.6,1.8C318.2,203.6,318.7,203,319.7,202.7z"/>
	<path class="st97" d="M431.1,203.3c0.9-2.1,2.4-3.7,4.1-5.2c3.9-3.4,4.4-3.3,7.8,1.5c1.8,4.8,4.9,8.1,10.2,8.9
		c8.6,1.2,14.6-5.3,12.8-13.8c-0.2-1.1-0.5-2.2-0.7-3.2c0.2-0.8,0.8-1.3,1.2-2c0,0,0-0.1,0-0.1c3.3,0.4,6.8,0.4,9.7,2.6
		c-1,3.5-1.9,7-3,10.5c-5.4,17.1-29.2,17.9-40,8C431.2,208.3,431.4,205.8,431.1,203.3z"/>
	<path class="st90" d="M466.6,189.3c0,0.9-0.4,1.6-1.2,2C465.3,190.4,465.8,189.8,466.6,189.3z"/>
</g>
</svg>
